<?xml version="1.0" encoding="iso-8859-1"?>
<!-- Generator: Adobe Illustrator 25.2.1, SVG Export Plug-In . SVG Version: 6.00 Build 0)  -->
<svg version="1.1" xmlns="http://www.w3.org/2000/svg" xmlns:xlink="http://www.w3.org/1999/xlink" x="0px" y="0px"
	 viewBox="0 0 240.74 323.95" enable-background="new 0 0 240.74 323.95" xml:space="preserve">
<g id="Ornaments">
</g>
<g id="Aya_No.">
</g>
<g id="Quran_Text">
	<path fill-rule="evenodd" clip-rule="evenodd" d="M108.64,145.7c-0.78,0.31-3.4,1.25-4.08,1.53c-0.06,0-0.06,0.03-0.09,0.09
		c-0.03,0.06-0.09,0.34-0.12,0.47c-0.03,0.06,0.03,0.06,0.06,0.03c0.09-0.03,0.22-0.12,0.31-0.16c0.53-0.22,3.06-1.12,3.74-1.37
		c0.03-0.03,0.06-0.03,0.09-0.09c0.03-0.09,0.09-0.31,0.16-0.44C108.7,145.7,108.7,145.7,108.64,145.7z M114.28,147.07
		c-0.06,0-0.06,0.03-0.09,0.09c-0.03,0.06-0.09,0.34-0.12,0.47c-0.03,0.06,0.03,0.06,0.06,0.03c0.09-0.03,0.22-0.12,0.31-0.16h0.03
		c0.53-0.22,2.93-1.12,3.59-1.37c0.03-0.03,0.06-0.03,0.09-0.09c0.03-0.09,0.09-0.31,0.12-0.44c0-0.06,0-0.06-0.06-0.06
		C117.46,145.85,114.93,146.79,114.28,147.07z M118.05,138.25c-0.06,0.12-0.19,0.44-0.19,0.53c0,0.03,0.12,0.19,0.28,0.4
		c0.47,0.69,0.75,1.43,0.59,2.46c-0.03,0.06-0.03,0.16,0,0.16c0.22,0,0.34-0.78,0.34-1.18c0-0.97-0.41-1.75-0.9-2.37
		C118.15,138.18,118.08,138.18,118.05,138.25z M106.8,138.28c-0.25,0.22-0.41,0.5-0.56,0.78c-0.16,0.31-0.53,0.97-0.34,1.31
		c0.19,0.31,0.69,0.25,0.97,0.31c0.34,0.09-0.31,0.31-0.44,0.37c-0.37,0.16-0.78,0.22-1.15,0.12c-0.12-0.03-0.41-0.22-0.5-0.09
		c-0.25,0.28,0,0.37,0.28,0.44v0.03c0.65,0.19,1.47,0.44,2-0.19c0.25-0.31,0.62-1.03,0.34-1.4c-0.22-0.31-0.97,0-1.09-0.34
		c-0.09-0.22,0.37-0.84,0.59-0.65c0.09,0.06,0.12,0.19,0.22,0.25c0.06,0.03,0.19-0.19,0.22-0.25c0.09-0.16,0.31-0.47,0.16-0.62
		C107.27,138.09,107.05,138.06,106.8,138.28z M124.01,142.33c-0.72-0.06-1.19-0.25-1.43-0.41c-0.09-0.06-0.09-0.09-0.06-0.12
		c0.25-0.44,0.5-0.65,0.69-0.65h0.03h0.03h0.03C123.63,141.21,123.82,141.8,124.01,142.33z M114.9,136.03
		c-0.12,0.37-0.19,0.53-0.28,0.81c-0.03,0.06-0.03,0.09,0,0.19c0.44,2.21,1,4.83,1.34,6.73c-0.06,0.84-1.15,0.53-1.56-0.09
		c-0.28-0.44-0.37-1.03-0.56-1.87c-0.37-1.9-0.69-3.74-1-5.58c-0.03-0.19-0.06-0.19-0.09-0.03c-0.09,0.37-0.12,0.53-0.22,0.87
		c-0.03,0.06,0,0.06,0,0.16c0.25,1.59,0.59,3.21,0.78,4.36c-1.37,1.34-4.8,2.09-7.42,2.28c-3.59,0.25-7.33-0.28-9.48-1.75
		c-0.25-0.16-0.37,0-0.19,0.22c0.81,0.78,1.22,1.53,2.46,1.9c3.34,1.09,7.58,0.9,11.1-0.06c1.68-0.47,3.15-1.12,3.65-2
		c0.09,0.56,0.25,1.59,0.47,2.09c0.25,0.53,0.81,1.09,1.65,1.03c0.5-0.03,0.84-0.94,0.78-2.34c0.5,0.94,1.47,1.31,3.27,1.28
		c1.56-0.09,2.24-0.31,2.68-1.47c0.47,0.53,1.43,0.59,2.09,0.62c0.19,0,0.22-0.09,0.31-0.44c0.12-0.44,0.06-0.53-0.09-1.15
		c-0.12-0.44-0.31-0.9-0.53-1.34c-0.22-0.41-0.5-0.44-0.75-0.28c-0.37,0.28-0.66,0.84-0.84,1.28c-0.19,0.44-0.31,0.9-0.59,1.22
		c-0.44,0.4-1.12,0.47-1.78,0.53c-1.34,0.12-2.21-0.03-2.81-0.47c-0.78-0.5-1.06-1.59-1.31-2.49c-0.41-1.5-0.78-3.27-0.94-4.18
		c0-0.06-0.03-0.09-0.03-0.09l-0.06-0.03C114.97,135.94,114.93,135.97,114.9,136.03z M120.26,136.94c-0.03,0.03-0.06,0.03-0.09,0.09
		c-0.03,0.09-0.09,0.34-0.16,0.47c0,0.06,0.03,0.06,0.09,0.03c0.09-0.03,0.22-0.09,0.31-0.16c0.53-0.22,2.93-1.12,3.59-1.4
		l0.03,0.03c0.03-0.03,0.09-0.03,0.09-0.09c0.03-0.09,0.09-0.31,0.12-0.44c0-0.06,0-0.06-0.06-0.06
		C123.45,135.72,120.92,136.66,120.26,136.94z M94.2,146.07c-0.12,0.22-0.28,0.5-0.44,0.72c-0.22-0.16-0.5-0.31-0.69-0.44
		c-0.12-0.06-0.16-0.06-0.22,0.03l-0.03-0.03c-0.12,0.19-0.28,0.44-0.4,0.65c-0.03,0.09-0.03,0.16,0.09,0.22
		c0.19,0.12,0.53,0.31,0.72,0.41c0.06,0.03,0.09,0,0.16-0.06c0.12-0.12,0.25-0.34,0.41-0.62c0.28,0.19,0.53,0.31,0.75,0.44
		c0.06,0.03,0.09,0.03,0.16-0.03c0.12-0.16,0.31-0.47,0.4-0.62c0.06-0.12,0.03-0.16-0.06-0.22c-0.12-0.09-0.5-0.31-0.69-0.44
		C94.26,146,94.23,146,94.2,146.07z M83.79,146.19c-0.03,0.03-0.06,0.03-0.09,0.09c-0.03,0.09-0.09,0.34-0.16,0.47
		c0,0.06,0.03,0.06,0.09,0.03c0.09-0.03,0.22-0.09,0.31-0.16h0.03c0.5-0.22,2.09-0.87,2.74-1.12c0.03-0.03,0.09-0.03,0.09-0.09
		c0.03-0.09,0.09-0.31,0.12-0.44c0-0.06,0-0.06-0.06-0.06C86.13,145.23,84.44,145.91,83.79,146.19z M86.19,142.79
		c-0.72,0-1.25-0.16-1.5-0.31c-0.09-0.06-0.12-0.09-0.09-0.16c0.22-0.47,0.47-0.65,0.65-0.62h0.03h0.03
		C85.66,141.73,85.97,142.26,86.19,142.79z M84.91,141.14l-0.03,0.03c-0.69,1.12-0.69,2.06-0.5,2.31c-0.87,1.06-2.43,1.93-3.84,2.77
		c-0.19,0.12-0.03,0.31,0.16,0.25c1.53-0.59,3.46-1.18,3.99-2.9c0.28,0.16,1.19,0.25,1.87,0.25c0.19,0,0.19-0.09,0.28-0.44
		c0.12-0.47,0.09-0.56-0.12-1.18c-0.12-0.41-0.34-0.87-0.62-1.28C85.69,140.39,85.19,140.64,84.91,141.14z M91.08,143.45
		c-0.84,0.16-1.47-0.06-1.4-0.31c0.06-0.28,0.28-0.62,0.56-0.62C90.43,142.51,90.9,142.92,91.08,143.45z M92.7,139.96h0.03
		c-0.06,0.31-0.06,0.65-0.09,1c0,0.06,0,0.06,0.06,0.12c0.47,0.41,0.87,0.9,1.03,1.28c-0.47,0.37-1.03,0.69-2,0.94
		c-0.34-0.84-0.84-1.84-1.4-1.84c-0.25,0-0.53,0.22-0.78,0.75c-0.37,0.84-0.34,1.81,0.09,2.12c0.37,0.28,1.09,0.19,1.81,0.03
		c-0.53,1.06-1.22,1.87-2.15,2.4c-1.18,0.66-2.62,0.72-4.11,0.44c-0.22-0.03-0.22,0.19-0.09,0.25c1.87,0.65,3.52,0.75,4.8-0.03
		c0.9-0.53,1.65-1.68,2.03-3.18c0.69-0.22,1.31-0.47,1.65-0.78c0.56-0.47,0.5-1.53,0.34-2.03c-0.25-0.62-0.69-1.09-1.09-1.5
		C92.74,139.86,92.7,139.86,92.7,139.96z M88,139.18c-0.03,0.06-0.06,0.16-0.09,0.22c-0.03,0.09,0.03,0.19,0.09,0.09
		c0.06-0.12,0.16-0.22,0.25-0.28c0.25-0.16,0.5-0.22,0.78-0.19c0.25,0.03,0.72,0.19,0.72,0.22c0,0.06-1.09,0.59-1.25,0.69
		c-0.09,0.06-0.16,0.12-0.16,0.22c0.03,0.09,0.12,0.09,0.22,0.06c0.41-0.16,0.56-0.12,0.9-0.28l-0.03-0.03
		c0.47-0.19,0.59-0.44,0.69-0.47c0.03,0,0.09,0,0.12-0.03c0.12-0.12,0.25-0.44,0.25-0.56c0-0.06-0.31-0.09-0.41-0.12
		c-0.28-0.06-0.59-0.22-0.9-0.25C88.71,138.43,88.25,138.65,88,139.18z M90.52,136.99c-0.03,0.03-0.06,0.03-0.09,0.09
		c-0.03,0.06-0.09,0.34-0.16,0.47c0,0.06,0.03,0.06,0.09,0.03c0.09-0.03,0.22-0.09,0.31-0.16c0.53-0.22,2.93-1.12,3.59-1.37h0.03
		c0.03-0.03,0.09-0.03,0.09-0.09c0.03-0.09,0.09-0.31,0.12-0.44c0-0.06,0-0.06-0.06-0.06C93.7,135.78,91.18,136.71,90.52,136.99z
		 M61.13,149.91c-0.06,0-0.06,0.03-0.09,0.09c-0.03,0.06-0.09,0.34-0.12,0.47c-0.03,0.06,0.03,0.06,0.06,0.03
		c0.09-0.03,0.22-0.12,0.31-0.16c0.53-0.22,2.93-1.12,3.58-1.37h0.03c0.03-0.03,0.06-0.03,0.09-0.09c0.03-0.09,0.09-0.31,0.12-0.44
		c0-0.06,0-0.06-0.06-0.06C64.31,148.69,61.78,149.63,61.13,149.91z M69.89,146.57c-0.12,0.22-0.28,0.5-0.44,0.72
		c-0.22-0.16-0.5-0.31-0.69-0.44c-0.12-0.06-0.16-0.06-0.22,0.03l-0.03-0.03c-0.12,0.19-0.28,0.44-0.41,0.65
		c-0.03,0.09-0.03,0.16,0.09,0.22c0.19,0.12,0.53,0.31,0.72,0.41c0.06,0.03,0.12,0,0.16-0.06c0.12-0.12,0.25-0.34,0.41-0.62
		c0.28,0.19,0.53,0.31,0.75,0.44c0.06,0.03,0.12,0.03,0.16-0.03c0.12-0.16,0.31-0.47,0.41-0.62c0.06-0.12,0.03-0.16-0.06-0.22
		c-0.12-0.09-0.5-0.31-0.69-0.44C69.95,146.51,69.92,146.51,69.89,146.57z M75.94,146.29c-0.75,0.31-3.27,1.25-3.93,1.53
		c-0.03,0.03-0.06,0.03-0.09,0.09c-0.03,0.09-0.09,0.34-0.16,0.47c0,0.06,0.03,0.06,0.09,0.03c0.09-0.03,0.22-0.09,0.31-0.16
		c0.5-0.22,2.93-1.12,3.58-1.4l0.03,0.03c0.03-0.03,0.09-0.03,0.09-0.09c0.03-0.09,0.09-0.31,0.12-0.44
		C76.03,146.29,76,146.29,75.94,146.29z M61.88,141.27c-0.12,0.19-0.28,0.47-0.37,0.65l0.03,0.03c-0.06,0.06-0.06,0.12,0.03,0.16
		c0.16,0.09,0.44,0.25,0.62,0.34c0.06,0.03,0.13,0.03,0.16-0.03c0.12-0.19,0.28-0.44,0.37-0.62c0.06-0.06,0.06-0.12,0-0.16
		c-0.19-0.12-0.5-0.28-0.69-0.41C61.94,141.21,61.91,141.21,61.88,141.27z M70.04,140.46c-0.12,0.44-0.22,0.81-0.22,0.84
		c0.16,0.31,0.25,0.56,0.34,0.84h-0.03c-0.28,0.19-0.69,0.34-1.22,0.28c-0.37-0.03-0.41-0.12-0.53-0.37
		c-0.09-0.12-0.16-0.28-0.22-0.41c-0.06-0.12-0.12-0.09-0.16,0c-0.06,0.34-0.19,0.87-0.19,0.9c0.22,0.41,0.56,0.87,0.62,1.53
		c-0.44,0.72-1.34,1.28-2.68,1.84c-2.09,0.84-5.33,0.9-6.58,0.72c-1.71-0.25-4.05-1-4.93-1.68c-0.06-0.06-0.19-0.12-0.25-0.06
		s0,0.16,0.09,0.25c1.53,1.87,3.83,2.43,6.11,2.52c2.03,0.09,4.12-0.28,5.77-0.93c1.12-0.47,1.87-1.03,2.31-1.62
		c0.34-0.53,0.44-1.12,0.47-1.65c0.72,0.03,1.15-0.19,1.4-0.41c0.5-0.5,0.44-1.87,0.03-2.65C70.11,140.24,70.07,140.27,70.04,140.46
		z M74.61,136l-0.19,0.35c-0.02,0.04-0.04,0.07-0.02,0.11c0.05,0.14,0.1,0.3,0.09,0.39c-0.22,0.21-0.45,0.24-0.62,0.1
		c-0.11-0.09-0.15-0.26-0.14-0.48c0.01-0.16,0.03-0.22-0.11-0.11c-0.18,0.15-0.13,0.13-0.14,0.22c-0.06,0.52-0.29,0.76-0.69,0.78
		c-0.25,0.02-0.44-0.16-0.26-0.66c0.04-0.11-0.04-0.22-0.15,0c-0.38,0.75-0.15,1.18,0.24,1.23c0.31,0.05,0.69-0.13,0.88-0.61
		c0.15,0.24,0.44,0.31,0.71,0.24c0.34-0.09,0.42-0.25,0.51-0.53c0.09-0.27,0.1-0.62-0.03-1.05C74.67,135.93,74.63,135.96,74.61,136z
		 M76.56,135.56c-0.12,0.25-0.41,0.84-0.41,0.9c0.03,0.09,0.09,0.31,0.25,0.5c0.41,2.43,0.72,4.33,1.25,7.05l-0.09-0.03
		c-0.31,0.59-1.15,0.44-1.59-0.09c-0.47-0.59-0.78-1.75-1-2.49c-0.16-0.62-0.31-1.28-0.44-1.87c-0.03-0.25-0.09-0.28-0.12-0.06
		c-0.06,0.31-0.12,0.9-0.12,1c0.16,0.78,0.34,1.43,0.5,2.06c-0.34,0.65-1.22,0.94-1.81,1.06c-0.5,0.09-0.94,0.16-1.19,0.12
		c-0.34-0.03-0.31-0.28-0.37-0.28c-0.06-0.03-0.12,0.09-0.12,0.19c-0.09,0.44-0.19,0.97,0.25,1.09c0.56,0.19,1.93-0.19,2.65-0.56
		c0.34-0.16,0.62-0.62,0.78-1.19c0.31,0.97,0.44,1.62,1.03,2.15c0.28,0.28,1.18,0.78,1.68-0.22c0.44-0.97,0.28-1.81,0.06-2.93
		c-0.31-1.62-0.53-2.96-0.81-4.61c0.19-0.28,0.47-0.65,0.44-0.69c-0.28-0.34-0.47-0.72-0.69-1.09
		C76.62,135.47,76.62,135.44,76.56,135.56z M78.93,134.91c-0.03,0-0.06,0.06-0.06,0.16l-0.16,0.87c-0.03,0.25-0.03,0.28,0,0.47
		c0.09,0.56,0.25,1.15,0.37,1.71c0.25,1.25,0.5,2.46,0.72,3.62c0.19,0.94,0.31,1.9,0.37,2.74c0,0.16,0.09,0.16,0.12,0
		c0.12-0.47,0.19-0.97,0.16-1.5c0-0.5-0.19-1.53-0.34-2.34c-0.19-1.03-0.44-2.12-0.62-3.06c-0.19-0.87-0.37-1.75-0.47-2.59
		c0-0.09-0.06-0.12-0.09-0.12V134.91z M80.27,132.82c0.06,0.06,0.12,0.16,0.12,0.25c-0.09,0.22-0.75,0.47-1,0.53
		c-0.03,0.03-0.31,0.06-0.28,0l-0.03-0.03c0.16-0.22,0.31-0.5,0.53-0.69C79.83,132.7,80.05,132.63,80.27,132.82z M79.61,132.42
		c-0.28,0.28-0.65,0.84-0.84,1.19c-0.09,0-0.34-0.12-0.47-0.19c-0.12-0.09-0.25,0.06-0.31,0.19c-0.12,0.22-0.25,0.47-0.34,0.72
		l-0.09,0.25c0,0.13,0.03,0.16,0.12,0.06v-0.03c0.16-0.19,0.31-0.65,0.41-0.59c0.59,0.34,1.37,0.22,1.93-0.19
		c0.44-0.31,0.78-0.81,0.65-1.34c-0.03-0.19-0.25-0.37-0.47-0.37C79.99,132.1,79.77,132.26,79.61,132.42z"/>
</g>
</svg>
