<?xml version="1.0" encoding="iso-8859-1"?>
<!-- Generator: Adobe Illustrator 25.2.1, SVG Export Plug-In . SVG Version: 6.00 Build 0)  -->
<svg version="1.1" xmlns="http://www.w3.org/2000/svg" xmlns:xlink="http://www.w3.org/1999/xlink" x="0px" y="0px"
	 viewBox="0 0 240.74 323.95" enable-background="new 0 0 240.74 323.95" xml:space="preserve">
<g id="Ornaments">
</g>
<g id="Aya_No.">
</g>
<g id="Quran_Text">
	<path fill-rule="evenodd" clip-rule="evenodd" d="M172.74,149.53c-0.03,0.03-0.06,0.03-0.09,0.09c-0.03,0.09-0.09,0.34-0.16,0.47
		c0,0.06,0.03,0.06,0.09,0.03c0.09-0.03,0.22-0.09,0.31-0.16c0.5-0.22,2.93-1.12,3.58-1.37h0.03c0.03-0.03,0.09-0.03,0.09-0.09
		c0.03-0.09,0.09-0.31,0.12-0.44c0-0.06,0-0.06-0.06-0.06C175.92,148.32,173.39,149.25,172.74,149.53z M180.09,142.08h0.03
		c0.19,0,0.25,0.72,0.53,1.15c-0.47-0.12-0.84-0.28-1.03-0.44c-0.09-0.06-0.12-0.09-0.09-0.16c0.12-0.22,0.41-0.56,0.59-0.59
		L180.09,142.08z M186.64,140.62c-0.5,0-1.12,0.31-1.5,1.25c-0.06,0.16,0,0.28,0.16,0.19c1.18-0.59,2.12-0.22,3.8,0.56
		c-1.46,0.5-2.93,0.69-4.46,0.75c-0.87,0.03-1.59-0.06-2.21-0.25c-0.84-0.25-1.22-0.41-1.62-1.03c-0.16-0.22-0.31-0.62-0.53-0.69
		c-0.22-0.06-0.62,0.25-0.87,0.56c-0.25,0.37-0.47,0.84-0.93,1.06c-0.84,0.41-1.96,0.31-2.25-0.06c-0.19-0.19-0.22-0.5-0.37-0.87
		c-0.09-0.16-0.09-0.12-0.12,0c-0.06,0.25-0.16,0.78-0.12,0.94c0.34,0.9,0.59,1.4,0.66,2.37c-0.66,0.97-1.71,1.31-2.65,1.34
		c-1.31,0.03-2.34-0.56-2.24-1.75c0.06-0.53,0.22-1.06,0.44-1.62c0.06-0.19-0.09-0.34-0.22-0.12c-0.34,0.69-0.47,1.12-0.59,1.75
		c-0.41,1.87,1.03,2.93,2.81,2.74c1.22-0.16,2.09-0.72,2.49-1.4c0.31-0.65,0.37-1.5,0.28-2.09c1.09,0.19,2.09-0.28,2.49-0.87
		c0.09,0.65,1.09,0.94,2.15,1.09c0.12,0.03,0.19,0,0.28-0.62c2.12,0.93,4.58,0.5,6.58-0.16c1.18-0.41,2.15-0.81,3.93-0.37
		c0.09,0.03,0.12,0.03,0.19-0.06c0.19-0.28,0.37-0.53,0.53-0.78c0.06-0.12,0.06-0.16-0.06-0.16c-0.87,0.03-1.56-0.06-2.28-0.25
		c-2.43-0.65-2.74-1.22-3.49-1.4C186.8,140.62,186.73,140.62,186.64,140.62z M173.49,139.93c-0.12,0.19-0.28,0.47-0.37,0.65
		l0.03,0.03c-0.06,0.06-0.06,0.12,0.03,0.16c0.16,0.09,0.44,0.25,0.62,0.34c0.06,0.03,0.12,0.03,0.16-0.03
		c0.12-0.19,0.28-0.44,0.38-0.62c0.06-0.06,0.06-0.12,0-0.16c-0.19-0.12-0.5-0.31-0.69-0.41
		C173.55,139.87,173.52,139.87,173.49,139.93z M176.57,137.4c-0.06,0.12-0.19,0.44-0.19,0.53c0,0.03,0.12,0.19,0.28,0.41
		c0.47,0.69,0.75,1.43,0.59,2.46c-0.03,0.06-0.03,0.16,0,0.16v0.03c0.22,0,0.34-0.78,0.34-1.19c0-0.97-0.41-1.75-0.9-2.37
		C176.66,137.34,176.6,137.34,176.57,137.4z M186.02,137.4c-0.16,0.09-0.38,0.25-0.44,0.44c-0.03,0.09-0.09,0.16-0.12,0.25
		c-0.06,0.19,0.19,0.09,0.25,0.03c0.28-0.22,0.56-0.44,0.94-0.37c0.28,0.03,0.56,0.12,0.87,0.19c-0.03-0.03-0.56,0.31-0.66,0.34
		c-0.19,0.09-0.37,0.16-0.53,0.25c-0.06,0.03-0.25,0.06-0.25,0.16c0,0.16,0,0.25,0.16,0.22c0.37-0.06,0.81-0.25,1.12-0.41
		c0.25-0.12,0.44-0.25,0.65-0.41c0.09-0.06,0.53-0.56,0.25-0.59c-0.41-0.06-0.78-0.19-1.19-0.28
		C186.7,137.12,186.36,137.15,186.02,137.4z M193.44,136.51l-0.19,0.35c-0.02,0.04-0.04,0.07-0.02,0.11c0.05,0.14,0.1,0.3,0.09,0.39
		c-0.22,0.21-0.45,0.25-0.62,0.1c-0.11-0.09-0.15-0.26-0.14-0.48c0.01-0.16,0.03-0.22-0.11-0.11c-0.18,0.15-0.13,0.13-0.14,0.22
		c-0.07,0.52-0.29,0.76-0.69,0.78c-0.25,0.02-0.44-0.16-0.26-0.66c0.04-0.11-0.04-0.22-0.15,0c-0.38,0.75-0.15,1.18,0.24,1.23
		c0.32,0.05,0.69-0.13,0.88-0.61c0.15,0.24,0.44,0.31,0.71,0.24c0.34-0.09,0.42-0.25,0.51-0.53c0.09-0.27,0.1-0.62-0.03-1.05
		C193.49,136.44,193.45,136.47,193.44,136.51z M178.19,137.03c-0.03,0.03-0.06,0.03-0.09,0.09c-0.03,0.06-0.09,0.34-0.16,0.47
		c0,0.06,0.03,0.06,0.09,0.03c0.09-0.03,0.22-0.09,0.31-0.16l0.03,0.03c0.53-0.22,2.46-1.03,3.12-1.28
		c0.03-0.03,0.09-0.03,0.09-0.09c0.03-0.09,0.09-0.31,0.12-0.44c0-0.06-0.03-0.06-0.06-0.06
		C180.91,135.94,178.85,136.75,178.19,137.03z M195.12,134.57c-0.12,0.19-0.31,0.44-0.47,0.69c-0.03,0.03-0.03,0.03,0,0.09
		c0.06,0.16,0.16,0.34,0.31,0.65l-0.03,0.03c0.19,1.9,0.62,3.43,1.19,6.61c-0.59,0.5-1.84,0.44-2.09-0.03
		c-0.12-0.25-0.28-0.12-0.34,0.28c-0.06,0.65,0.28,0.97,0.59,1.09c-1,2.46-3.62,3.37-6.33,2.09c-0.28-0.09-0.41,0.16-0.16,0.28
		c2.53,1.37,5.8,1.93,6.92-2.25c0.34,0.03,0.94-0.09,1.22-0.25c1-0.62,0.53-2.53,0.34-3.59l-0.72-3.87
		c0.16-0.19,0.28-0.34,0.44-0.56c0.06-0.06,0.06-0.09,0-0.19c-0.19-0.31-0.47-0.72-0.69-1.06
		C195.21,134.47,195.18,134.47,195.12,134.57z M197.98,134.21c-0.03,0-0.06,0.06-0.07,0.16l-0.17,0.87
		c-0.04,0.25-0.04,0.28-0.01,0.47c0.08,0.56,0.23,1.16,0.34,1.72c0.23,1.25,0.46,2.47,0.65,3.63c0.17,0.94,0.28,1.91,0.33,2.75
		c0,0.16,0.09,0.16,0.12,0c0.13-0.47,0.17-0.96,0.18-1.49c0.01-0.5-0.16-1.53-0.3-2.34c-0.17-1.03-0.4-2.13-0.57-3.06
		c-0.17-0.88-0.34-1.75-0.42-2.6c0-0.09-0.06-0.13-0.09-0.13V134.21z M190.01,135.44c-0.06,0-0.06,0.03-0.09,0.09
		c-0.03,0.06-0.09,0.34-0.12,0.47c-0.03,0.06,0.03,0.06,0.06,0.03c0.09-0.03,0.22-0.13,0.31-0.16h0.03
		c0.53-0.22,2.93-1.12,3.58-1.37c0.03-0.03,0.06-0.03,0.09-0.09c0.03-0.09,0.09-0.31,0.12-0.44c0-0.06,0-0.06-0.06-0.06
		C193.19,134.22,190.66,135.16,190.01,135.44z M199.33,132.17c0.06,0.06,0.12,0.16,0.12,0.25c-0.09,0.22-0.75,0.47-1,0.53
		c-0.03,0.03-0.31,0.06-0.28,0l-0.03-0.03c0.16-0.22,0.31-0.5,0.53-0.69C198.89,132.04,199.11,131.98,199.33,132.17z M198.67,131.76
		c-0.28,0.28-0.65,0.84-0.84,1.18c-0.09,0-0.34-0.12-0.47-0.19c-0.16-0.09-0.25,0.06-0.31,0.19c-0.12,0.22-0.25,0.47-0.34,0.72
		l-0.09,0.25c0,0.12,0.03,0.16,0.12,0.06v-0.03c0.16-0.19,0.31-0.65,0.41-0.59c0.59,0.34,1.37,0.22,1.93-0.19
		c0.44-0.31,0.78-0.81,0.65-1.34c-0.03-0.19-0.25-0.37-0.47-0.37C199.05,131.45,198.83,131.61,198.67,131.76z M141,146.85
		c-0.06,0-0.06,0.03-0.09,0.09c-0.03,0.06-0.09,0.34-0.13,0.47c-0.03,0.06,0.03,0.06,0.06,0.03c0.09-0.03,0.22-0.12,0.31-0.16h0.03
		c0.53-0.22,2.93-1.12,3.59-1.37c0.03-0.03,0.06-0.03,0.09-0.09c0.03-0.09,0.09-0.31,0.12-0.44c0-0.06,0-0.06-0.06-0.06
		C144.18,145.63,141.65,146.57,141,146.85z M153.78,144.92c-0.12,0.22-0.28,0.5-0.44,0.72c-0.22-0.16-0.5-0.31-0.69-0.44
		c-0.12-0.06-0.16-0.06-0.22,0.03l-0.03-0.03c-0.12,0.19-0.28,0.44-0.41,0.65c-0.03,0.09-0.03,0.16,0.09,0.22
		c0.19,0.12,0.53,0.31,0.72,0.4c0.06,0.03,0.09,0,0.16-0.06c0.12-0.12,0.25-0.34,0.41-0.62c0.28,0.19,0.53,0.31,0.75,0.44
		c0.06,0.03,0.09,0.03,0.16-0.03c0.12-0.16,0.31-0.47,0.41-0.62c0.06-0.12,0.03-0.16-0.06-0.22c-0.12-0.09-0.5-0.31-0.69-0.44
		C153.84,144.86,153.81,144.86,153.78,144.92z M156.3,144.76c-0.03,0.03-0.06,0.03-0.09,0.09c-0.03,0.06-0.09,0.34-0.16,0.47
		c0,0.06,0.03,0.06,0.09,0.03c0.09-0.03,0.22-0.09,0.31-0.16c0.5-0.22,2.93-1.12,3.59-1.37h0.03c0.03-0.03,0.09-0.03,0.09-0.09
		c0.03-0.09,0.09-0.31,0.12-0.44c0-0.06,0-0.06-0.06-0.06C159.48,143.55,156.96,144.48,156.3,144.76z M142.53,141.46
		c0.03,0,0.06,0,0.09,0.03c0.16,0.16,0.31,0.65,0.75,1.28c-0.65-0.12-1.22-0.37-1.43-0.62c-0.06-0.06-0.06-0.09-0.06-0.16
		c0.12-0.19,0.44-0.56,0.65-0.56V141.46z M156.37,139.65c-0.87,0-1.34,0.84-1.46,1.34c-0.03,0.09,0.06,0.22,0.19,0.09
		c0.9-0.78,2.56,0.03,3.96,0.5c-0.78,0.28-1.96,0.69-2.68,0.9c-0.75,0.22-1.15,0.31-2.03-0.03c0.09-0.16,0.16-0.37,0.22-0.65
		c0-0.25-0.06-0.12-0.22,0.03c-0.56,0.53-1.43,0.87-2.46,1.15c-1.84,0.4-3.8,0.59-5.52,0.25c-1.28-0.25-2.4-0.81-3.06-1.71
		c-0.22-0.25-0.37-0.69-0.65-0.69c-0.37,0.03-0.84,0.65-1,1.25c-0.16,0.5-0.12,1.03,0.16,1.25c-0.97,1.06-2.37,1.78-4.02,2.65
		c-0.25,0.12-0.16,0.19,0.06,0.19c1.15-0.09,3.77-1,4.21-2.62c0.56,0.25,0.97,0.37,1.84,0.53c0.09,0,0.16,0,0.28-0.56
		c0.72,0.53,2.15,0.87,3.77,0.87c2.34,0.03,4.99-0.5,6.17-1.5c0.31,0.25,0.56,0.53,1.15,0.65c0.5,0.16,2.09-0.44,2.99-0.84
		c1.31-0.59,2.37-0.9,3.77-0.53c0.03,0,0.06,0,0.06-0.03c0.19-0.34,0.31-0.53,0.56-0.97c0.03-0.06,0.03-0.09-0.06-0.09
		c-0.78,0-1.84-0.03-2.65-0.22c-2.21-0.47-2.77-1.25-3.59-1.25V139.65z M163.25,136.03l-0.19,0.35c-0.02,0.04-0.04,0.07-0.02,0.11
		c0.05,0.14,0.1,0.3,0.09,0.39c-0.22,0.21-0.45,0.25-0.62,0.1c-0.11-0.09-0.15-0.26-0.14-0.48c0.01-0.16,0.03-0.22-0.11-0.11
		c-0.18,0.15-0.13,0.13-0.14,0.22c-0.06,0.52-0.29,0.76-0.69,0.79c-0.25,0.02-0.44-0.16-0.26-0.66c0.04-0.11-0.04-0.22-0.15,0
		c-0.38,0.75-0.15,1.18,0.24,1.23c0.31,0.05,0.69-0.13,0.88-0.61c0.15,0.24,0.44,0.31,0.71,0.24c0.34-0.09,0.42-0.25,0.51-0.52
		c0.09-0.27,0.1-0.62-0.03-1.05C163.3,135.96,163.26,136,163.25,136.03z M165.13,134.1c-0.16,0.22-0.22,0.34-0.37,0.59
		c-0.06,0.09-0.06,0.09,0,0.22c0.12,0.22,0.25,0.47,0.34,0.65l-0.03-0.03c0.37,1.93,0.5,2.74,1.12,5.92
		c-0.53,0.37-1.56,0.5-1.81,0.03c-0.12-0.22-0.28-0.09-0.34,0.31c-0.06,0.65,0.19,0.97,0.66,1.06c-0.97,2.49-3.15,3.52-5.77,2.4
		c-0.28-0.09-0.41,0.16-0.16,0.28c2.59,1.34,5.24,1.65,6.36-2.68c0.34,0,0.75-0.09,1.06-0.34c0.78-0.59,0.31-2.37,0.09-3.43
		l-0.69-3.3c0.16-0.22,0.22-0.31,0.37-0.53c0.06-0.09,0.06-0.09,0-0.19c-0.22-0.28-0.47-0.65-0.69-0.97
		C165.22,134.01,165.19,134.01,165.13,134.1z M167.75,133.94l-0.12,0.87c-0.03,0.25-0.03,0.28,0,0.47c0.09,0.59,0.22,1.15,0.34,1.71
		c0.25,1.28,0.53,2.46,0.75,3.65c0.19,0.94,0.31,1.9,0.37,2.74c0,0.16,0.09,0.16,0.12,0.03c0.12-0.47,0.16-0.97,0.16-1.5
		c0-0.5-0.19-1.53-0.34-2.34c-0.19-1.03-0.44-2.12-0.62-3.06c-0.19-0.87-0.37-1.75-0.47-2.59c0-0.09-0.06-0.12-0.09-0.12l-0.03-0.03
		C167.78,133.79,167.75,133.85,167.75,133.94z M160.23,134.97c-0.03,0.03-0.06,0.03-0.09,0.09c-0.03,0.09-0.09,0.34-0.16,0.47
		c0,0.06,0.03,0.06,0.09,0.03c0.09-0.03,0.22-0.09,0.31-0.16l0.03,0.03c0.5-0.22,2.46-1.03,3.12-1.28c0.03-0.03,0.09-0.03,0.09-0.09
		c0.03-0.09,0.09-0.31,0.12-0.44c0-0.06,0-0.06-0.06-0.06C162.95,133.88,160.89,134.72,160.23,134.97z M169.12,131.7
		c0.06,0.06,0.12,0.16,0.12,0.25c-0.09,0.22-0.75,0.47-1,0.53c-0.03,0.03-0.31,0.06-0.28,0l-0.03-0.03c0.16-0.25,0.31-0.5,0.53-0.69
		C168.68,131.57,168.9,131.51,169.12,131.7z M168.46,131.29c-0.28,0.28-0.65,0.84-0.84,1.18c-0.12,0-0.34-0.12-0.47-0.19
		c-0.16-0.09-0.25,0.06-0.31,0.19c-0.12,0.22-0.25,0.47-0.34,0.72l-0.09,0.25c0,0.12,0.03,0.16,0.12,0.06l-0.03-0.03
		c0.19-0.19,0.31-0.65,0.44-0.59c0.59,0.34,1.37,0.22,1.93-0.19c0.44-0.31,0.78-0.81,0.65-1.34c-0.03-0.19-0.25-0.37-0.47-0.37
		C168.84,130.98,168.62,131.14,168.46,131.29z"/>
</g>
</svg>
