<?xml version="1.0" encoding="iso-8859-1"?>
<!-- Generator: Adobe Illustrator 25.2.1, SVG Export Plug-In . SVG Version: 6.00 Build 0)  -->
<svg version="1.1" xmlns="http://www.w3.org/2000/svg" xmlns:xlink="http://www.w3.org/1999/xlink" x="0px" y="0px"
	 viewBox="0 0 240.74 323.95" enable-background="new 0 0 240.74 323.95" xml:space="preserve">
<g id="Ornaments">
</g>
<g id="Aya_No.">
</g>
<g id="Quran_Text">
	<path fill-rule="evenodd" clip-rule="evenodd" d="M200.46,169.15c-0.75,0.28-1.59,0.56-2.25,0.81c-0.03,0.03-0.06,0.03-0.09,0.09
		c-0.03,0.06-0.12,0.34-0.16,0.47c-0.03,0.06,0.03,0.06,0.09,0.03c0.09-0.03,0.22-0.09,0.31-0.12c0.53-0.19,1.25-0.44,1.9-0.69
		c0.03-0.03,0.09-0.03,0.09-0.09c0.03-0.09,0.12-0.31,0.16-0.44C200.55,169.15,200.52,169.15,200.46,169.15z M194.53,167.28
		c-0.12,0.22-0.28,0.5-0.44,0.72c-0.22-0.16-0.5-0.31-0.69-0.44c-0.12-0.06-0.16-0.06-0.22,0.03l-0.03-0.03
		c-0.12,0.19-0.28,0.44-0.41,0.65c-0.03,0.09-0.03,0.16,0.09,0.22c0.19,0.12,0.53,0.31,0.72,0.41c0.06,0.03,0.12,0,0.16-0.06
		c0.12-0.12,0.25-0.34,0.41-0.62c0.28,0.19,0.53,0.31,0.75,0.44c0.06,0.03,0.12,0.03,0.16-0.03c0.12-0.16,0.31-0.47,0.41-0.62
		c0.06-0.12,0.03-0.16-0.06-0.22c-0.12-0.09-0.5-0.31-0.69-0.44C194.6,167.22,194.57,167.22,194.53,167.28z M197.78,167.94
		c-0.06,0.16-0.03,0.31,0.09,0.44c0.12,0.09,0.34,0.22,0.53,0.31c-0.09,0.03-0.28,0.12-0.41,0.22h0.03
		c-0.03,0.09-0.06,0.25-0.09,0.34c0,0.03,0.03,0.06,0.06,0.03c0.37-0.22,1.47-0.5,1.96-0.62c0.03,0,0.19-0.34,0.22-0.41
		c0.03-0.06,0-0.09-0.06-0.06c-0.28,0.06-0.53,0.12-0.87,0.12c-0.41,0-1.06-0.47-1.06-0.53c0-0.09,0.5-0.28,0.59-0.28
		c0.31,0.03,0.37,0.34,0.47,0.34c0.09,0,0.25-0.37,0.25-0.47c0-0.09-0.28-0.41-0.47-0.41C198.68,166.97,197.96,167.57,197.78,167.94
		z M182.62,160.11c-0.34,0.41-0.78,1.19-0.78,1.71c0,0.19,0.06,0.38,0.16,0.47c0.12,0.09,0.31,0.09,0.47,0.12
		c0.22,0.03,0.5,0.03,0.62,0.12c0.06,0.06,0.06,0.06,0,0.12c-0.56,0.5-1.22,0.66-2.03,0.47c-0.28-0.06-0.37,0.22-0.06,0.34
		c0.66,0.28,1.62,0.41,2.18-0.19c0.28-0.28,0.62-1.03,0.37-1.4c-0.16-0.25-0.5-0.25-0.87-0.28c-0.16-0.03-0.31-0.03-0.41-0.19
		c-0.06-0.12,0-0.28,0.09-0.41c0.09-0.09,0.19-0.19,0.25-0.25c0.06-0.03,0.09-0.06,0.19,0c0.03,0.03,0.09,0.06,0.12,0.12
		c0.06,0.09,0.12,0.09,0.16,0v-0.03l0.25-0.56c0.06-0.12,0.06-0.19-0.03-0.28c-0.03-0.03-0.09-0.06-0.12-0.09
		c-0.06-0.03-0.12-0.09-0.19-0.09C182.87,159.83,182.72,160.02,182.62,160.11z M194.25,159.31l-0.18,0.35
		c-0.02,0.04-0.04,0.07-0.02,0.11c0.05,0.14,0.1,0.3,0.09,0.39c-0.22,0.21-0.45,0.24-0.62,0.1c-0.11-0.09-0.15-0.26-0.14-0.48
		c0.01-0.16,0.03-0.22-0.11-0.11c-0.18,0.15-0.13,0.13-0.14,0.22c-0.07,0.52-0.29,0.76-0.69,0.78c-0.25,0.02-0.44-0.16-0.26-0.66
		c0.04-0.11-0.04-0.22-0.15,0c-0.38,0.75-0.15,1.18,0.24,1.23c0.31,0.05,0.69-0.13,0.88-0.61c0.15,0.24,0.44,0.31,0.71,0.24
		c0.34-0.09,0.42-0.25,0.51-0.53c0.09-0.27,0.1-0.62-0.03-1.05C194.31,159.24,194.27,159.27,194.25,159.31z M187.33,158.31
		c0.41,1.4,0.44,5.86,1.12,7.14c0.28,0.5,0.69,0.78,1.22,0.97c1.47,0.5,5.24-0.03,6.08-0.41c0.78-0.37,0.78-1.59,0.62-2.24
		c-0.09-0.37-0.34-1-0.78-1.34c-0.22-0.16-0.31,0.81-0.28,1.06c0.25,0.31,0.53,0.75,0.75,1.37v0.03c-0.81,0.5-3.02,0.72-4.64,0.65
		c-1.03-0.03-2.31-0.12-2.71-1.34c-0.59-1.87-0.47-5.02-0.97-6.92C187.65,156.93,187.33,157.81,187.33,158.31z M190.61,158.52
		c-0.03,0.03-0.06,0.03-0.09,0.09c-0.03,0.09-0.16,0.37-0.19,0.53c0,0.06,0.03,0.06,0.09,0.03c0.09-0.03,0.25-0.12,0.34-0.16
		c0.53-0.19,3.71-1.25,4.36-1.53c0.03-0.03,0.09-0.03,0.09-0.09c0.03-0.09,0.12-0.37,0.19-0.5c0-0.06,0-0.06-0.06-0.06
		C194.6,157.15,191.26,158.24,190.61,158.52z M184.68,156.87c-0.19,0.28-0.44,0.78-0.41,0.97c0.09,0.25,0.22,0.44,0.28,0.59
		c0.22,2.09,1.06,5.46,1.18,6.52c-0.5,0.22-4.83,0.78-5.89,0.47c-0.09-0.03-0.16-0.06-0.19-0.12c-0.06-0.09-0.09-0.06-0.16,0.03
		c-0.34,0.59-0.12,1.06,0.28,1.15l-0.03,0.03c0.69,0.16,4.58-0.19,5.67-0.44c0.16-0.03,0.28-0.09,0.37-0.22
		c0.28-0.44,0.34-1.37,0.28-2c-0.19-1.59-0.78-3.68-0.94-5.18c0.09-0.12,0.31-0.5,0.34-0.59c0.06-0.25-0.5-0.72-0.65-1.25
		C184.81,156.75,184.71,156.81,184.68,156.87z M197.27,156.74l-0.14,0.87c-0.04,0.25-0.04,0.28-0.01,0.47
		c0.08,0.59,0.2,1.16,0.31,1.72c0.23,1.28,0.49,2.47,0.68,3.66c0.17,0.94,0.28,1.91,0.33,2.75c0,0.16,0.09,0.16,0.12,0.03
		c0.13-0.46,0.17-0.96,0.18-1.49c0.01-0.5-0.16-1.53-0.3-2.34c-0.17-1.03-0.4-2.13-0.57-3.06c-0.17-0.88-0.34-1.75-0.42-2.6
		c0-0.09-0.06-0.13-0.09-0.13l-0.03-0.03C197.3,156.58,197.27,156.64,197.27,156.74z M183.34,156.09c-0.75,0.31-2.81,1.15-3.46,1.43
		c-0.03,0.03-0.06,0.03-0.09,0.09c-0.03,0.09-0.09,0.34-0.16,0.47c-0.03,0.06,0.03,0.06,0.09,0.03c0.09-0.03,0.22-0.09,0.31-0.16
		h0.03c0.53-0.22,2.46-1.03,3.12-1.28c0.03-0.03,0.09-0.03,0.09-0.09c0.03-0.09,0.09-0.31,0.12-0.44
		C183.41,156.09,183.37,156.09,183.34,156.09z M163.11,167.81c-0.12,0.19-0.28,0.47-0.37,0.65l0.03,0.03
		c-0.06,0.06-0.06,0.12,0.03,0.16c0.16,0.09,0.44,0.25,0.62,0.34c0.06,0.03,0.12,0.03,0.16-0.03c0.12-0.19,0.28-0.47,0.37-0.62
		c0.06-0.06,0.06-0.12,0-0.16c-0.19-0.12-0.5-0.28-0.69-0.41C163.17,167.75,163.14,167.75,163.11,167.81z M158.87,160.83
		c-0.03,0.34-0.09,0.5-0.09,0.84c0,0.12,0,0.12,0.06,0.34c0.16,0.56,0.31,1.18,0.53,1.84c-0.28,0.84-1.81,1.28-2.71,1.22
		c-0.62-0.06-0.53-0.53-0.65-0.53c-0.09,0-0.16,0.34-0.16,0.44c-0.03,0.34,0.03,0.72,0.22,0.94c0.34,0.41,1.75,0.12,2.4-0.19
		c0.62-0.34,0.72-0.37,1.09-1.34c0.34,1.06,0.62,1.84,1.18,2.25c1.25,0.9,2.09-0.44,2.43-0.84c0.09-0.12,0.12-0.16,0.31,0.03
		c0.59,0.65,2.15,1.09,3.93,1.06c1.65,0,4.58-0.62,5.89-1.43l-0.03-0.06c1.03,1.25,2.93,1.03,3.52,0c0.44-0.75,0.37-1.65,0.03-2.37
		c-0.16-0.37-0.5-0.75-0.9-1.15c-0.09-0.09-0.09-0.06-0.12,0.03c-0.09,0.34-0.12,0.53-0.19,0.87c0,0.09,0,0.09,0.09,0.19
		c0.56,0.62,0.94,1.18,1.03,1.65c-0.66,0.84-2.12,0.62-2.62,0.28c0.34-0.38,0.69-0.97,0.59-1.22c-0.16-0.59-1.12-0.87-1.96-0.81
		c-0.84,0.12-1.28,0.47-1.56,1.34c-0.06,0.19,0.06,0.22,0.16,0.16c0.34-0.28,1-0.12,1.34,0.44c-1.81,0.81-4.58,1.18-6.27,1
		c-1.22-0.12-2.24-0.47-2.93-1c-0.19-0.12-0.34-0.06-0.47,0.12c-0.78,1.25-2.03,1.15-2.71-0.06c-0.56-0.93-0.9-2.71-1.34-4.05
		C158.93,160.67,158.9,160.64,158.87,160.83z M170.25,160.36c-0.03,0.06-0.06,0.16-0.09,0.22c-0.03,0.09,0.03,0.19,0.09,0.09
		c0.06-0.12,0.16-0.22,0.25-0.28c0.25-0.16,0.5-0.22,0.78-0.19c0.25,0.03,0.72,0.19,0.72,0.22c0,0.06-1.09,0.59-1.25,0.69
		c-0.09,0.06-0.19,0.12-0.16,0.22c0.03,0.09,0.12,0.09,0.22,0.06c0.41-0.16,0.56-0.12,0.9-0.28l-0.03-0.03
		c0.47-0.19,0.59-0.44,0.69-0.47c0.03,0,0.09,0,0.12-0.03c0.12-0.12,0.25-0.44,0.25-0.56c0-0.06-0.31-0.09-0.41-0.12
		c-0.28-0.06-0.59-0.22-0.9-0.25C170.97,159.61,170.5,159.83,170.25,160.36z M174.99,159.24c-0.12,0.19-0.28,0.47-0.37,0.65
		l0.03,0.03c-0.06,0.06-0.06,0.12,0.03,0.16c0.16,0.09,0.44,0.25,0.62,0.34c0.06,0.03,0.12,0.03,0.16-0.03
		c0.12-0.19,0.28-0.44,0.37-0.62c0.06-0.06,0.06-0.12,0-0.16c-0.19-0.13-0.5-0.28-0.69-0.41
		C175.05,159.18,175.02,159.18,174.99,159.24z M163.41,158.37c0.08,0.1,0.21,0.3,0.23,0.65c0,0.1-0.02,0.24-0.02,0.25
		c-0.01,0.01-0.19-0.07-0.22-0.09c-0.07-0.03-0.25-0.1-0.58-0.23c-0.13-0.02,0-0.23,0-0.23c0.05-0.09,0.13-0.21,0.22-0.29l0.12-0.08
		C163.24,158.32,163.36,158.29,163.41,158.37z M163.34,157.76c-0.37,0.06-0.81,0.58-0.99,1.18c-0.08,0.27-0.03,0.42,0.12,0.51
		c0.21,0.13,0.52,0.24,0.88,0.33c-0.42,0.71-1.78,1.62-2.03,1.76c-0.3,0.17-0.24,0.36,0.12,0.19c1.37-0.62,2.05-1.28,2.35-1.85
		c0.09,0.02,0.17,0.05,0.27,0.07c0.16,0.04,0.13,0.06,0.21-0.2c0.04-0.12,0.07-0.21,0.08-0.27l-0.41-0.14l0.04-0.14
		c0.05-0.47-0.07-0.86-0.11-0.98C163.75,157.85,163.56,157.72,163.34,157.76z M158.88,156.95c0.09,0.1,0.21,0.3,0.23,0.65
		c0,0.1-0.02,0.24-0.02,0.25c-0.01,0.01-0.19-0.07-0.22-0.09c-0.07-0.03-0.25-0.1-0.58-0.23c-0.13-0.02,0-0.23,0-0.23
		c0.05-0.09,0.13-0.21,0.22-0.3l0.12-0.08C158.71,156.9,158.83,156.88,158.88,156.95z M158.81,156.35
		c-0.37,0.06-0.81,0.58-0.99,1.18c-0.08,0.27-0.03,0.42,0.12,0.51c0.21,0.13,0.52,0.24,0.88,0.33c-0.42,0.71-1.78,1.62-2.03,1.76
		c-0.3,0.17-0.24,0.36,0.12,0.19c1.37-0.62,2.04-1.27,2.35-1.85c0.09,0.02,0.17,0.05,0.27,0.07c0.16,0.04,0.13,0.06,0.21-0.2
		c0.04-0.12,0.07-0.21,0.08-0.27l-0.41-0.14l0.04-0.14c0.05-0.47-0.07-0.86-0.11-0.98C159.22,156.44,159.03,156.31,158.81,156.35z
		 M172.52,157.87c-0.06,0-0.06,0.03-0.09,0.09c-0.03,0.06-0.09,0.34-0.12,0.47c-0.03,0.06,0.03,0.06,0.06,0.03
		c0.09-0.03,0.22-0.12,0.31-0.16h0.03c0.53-0.22,2.93-1.12,3.59-1.37c0.03-0.03,0.06-0.03,0.09-0.09c0.03-0.09,0.09-0.31,0.12-0.44
		c0-0.06,0-0.06-0.06-0.06C175.7,156.65,173.18,157.59,172.52,157.87z M152.69,164.02c-0.31,0.34-0.71,0.51-1.14-0.04
		c-0.03-0.06-0.03-0.12,0.06-0.25C152.01,163.2,152.23,163.23,152.69,164.02z M151.2,163.85c-0.09,0.69,0.03,1.43,0.84,1.5
		c0.34,0,0.72-0.22,0.94-0.75c0.37,0.59-0.62,2.06-1.28,2.62c-1.47,1.31-2.9,1.34-4.71,1.06c-0.22-0.03-0.37,0.19-0.06,0.28
		c1.28,0.47,3.4,0.66,4.33,0.12h0.03c1.47-0.78,2.43-3.09,2-4.89c-0.22-0.75-0.62-1.5-1.06-1.5
		C151.73,162.32,151.3,163.1,151.2,163.85z M153.1,157.93c-0.75,0.31-3.27,1.25-3.93,1.53c-0.06,0-0.06,0.03-0.09,0.09
		c-0.03,0.06-0.09,0.34-0.12,0.47c-0.03,0.06,0.03,0.06,0.06,0.03c0.09-0.03,0.22-0.12,0.31-0.16h0.03
		c0.53-0.22,2.93-1.12,3.59-1.37c0.03-0.03,0.06-0.03,0.09-0.09c0.03-0.09,0.09-0.31,0.12-0.44
		C153.17,157.93,153.17,157.93,153.1,157.93z M143.09,167.6c-0.12,0.22-0.28,0.5-0.44,0.72c-0.22-0.16-0.5-0.31-0.69-0.44
		c-0.12-0.06-0.16-0.06-0.22,0.03l-0.03-0.03c-0.12,0.19-0.28,0.44-0.4,0.65c-0.03,0.09-0.03,0.16,0.09,0.22
		c0.19,0.12,0.53,0.31,0.72,0.4c0.06,0.03,0.09,0,0.16-0.06c0.12-0.12,0.25-0.34,0.41-0.62c0.28,0.19,0.53,0.31,0.75,0.44
		c0.06,0.03,0.09,0.03,0.16-0.03c0.12-0.16,0.31-0.47,0.41-0.62c0.06-0.12,0.03-0.16-0.06-0.22c-0.12-0.09-0.5-0.31-0.69-0.44
		C143.15,167.54,143.12,167.54,143.09,167.6z M146.36,166.66c-0.03,0.03-0.06,0.03-0.09,0.09c-0.03,0.06-0.12,0.31-0.16,0.47
		c-0.03,0.06,0.03,0.06,0.09,0.03c0.09-0.03,0.22-0.09,0.31-0.12c0.53-0.19,1.25-0.44,1.9-0.69c0.03-0.03,0.09-0.03,0.09-0.09
		c0.03-0.09,0.12-0.31,0.16-0.44c0.03-0.06,0-0.06-0.06-0.06C147.86,166.13,147.02,166.41,146.36,166.66z M145.98,164.6
		c-0.06,0.16-0.03,0.31,0.09,0.44c0.12,0.09,0.34,0.22,0.53,0.31c-0.09,0.03-0.34,0.22-0.34,0.22c-0.03,0.09-0.06,0.25-0.09,0.34
		c0,0.03,0.03,0.06,0.06,0.03c0.37-0.22,1.47-0.5,1.93-0.62c0.03,0,0.19-0.34,0.22-0.41c0.03-0.06,0-0.09-0.06-0.06
		c-0.28,0.06-0.53,0.12-0.87,0.12c-0.41,0-1.06-0.47-1.06-0.53c0-0.09,0.5-0.28,0.59-0.28c0.31,0.03,0.37,0.34,0.44,0.34
		c0.09,0,0.28-0.38,0.28-0.47c0-0.12-0.28-0.41-0.47-0.41C146.88,163.63,146.17,164.22,145.98,164.6z M129.9,160.96
		c-0.12,0.31-0.28,0.75,0.03,1c0.31,0.25,0.69,0.03,1,0.22c0.19,0.12-0.09,0.22-0.19,0.28c-0.16,0.09-0.28,0.19-0.44,0.28
		c-0.09,0.06-0.25,0.06-0.37,0.09c-0.31,0.06-0.59,0.09-0.93,0.03c-0.12-0.03-0.44,0.03-0.34,0.22c0.06,0.19,0.5,0.19,0.66,0.19
		c0.34,0,0.65,0.16,0.97,0c0.19-0.03,0.34-0.06,0.53-0.16c0.37-0.19,0.44-0.47,0.56-0.81l-0.03-0.03c0.09-0.25,0.16-0.44,0.09-0.69
		c-0.06-0.44-0.56-0.34-0.87-0.37c-0.12,0-0.28-0.09-0.34-0.16c-0.06-0.09,0-0.12,0.03-0.19c0.09-0.16,0.16-0.34,0.31-0.44
		c0.28-0.19,0.28,0.5,0.5,0c0.09-0.22,0.25-0.53,0.12-0.75C130.81,159.06,130.03,160.68,129.9,160.96z M142.73,159.49l-0.18,0.35
		c-0.02,0.04-0.04,0.07-0.02,0.11c0.05,0.14,0.1,0.3,0.09,0.39c-0.22,0.21-0.45,0.25-0.62,0.1c-0.11-0.09-0.15-0.26-0.14-0.48
		c0.01-0.16,0.03-0.22-0.11-0.11c-0.18,0.15-0.13,0.13-0.14,0.22c-0.07,0.52-0.29,0.76-0.69,0.79c-0.25,0.02-0.44-0.16-0.26-0.66
		c0.04-0.11-0.04-0.22-0.15,0c-0.38,0.75-0.15,1.18,0.24,1.23c0.31,0.05,0.69-0.13,0.88-0.61c0.15,0.24,0.44,0.31,0.71,0.24
		c0.34-0.09,0.42-0.25,0.51-0.53c0.09-0.27,0.1-0.62-0.03-1.05C142.78,159.42,142.74,159.45,142.73,159.49z M135.73,157.28
		l-0.22,0.84c0,0.06,0,0.06,0.03,0.16c0.12,0.47,0.19,0.94,0.25,1.37l0.44,3.06c0.25,1.59,0.22,3.24,1.87,3.58
		c1.43,0.31,3.77,0.19,5.74-0.4c0.25-0.09,0.59-0.19,0.72-0.31c0.16-0.19,0.28-0.69,0.31-1.03c0.12-1.09-0.37-1.71-0.9-2.25
		c-0.12-0.12-0.12-0.12-0.16,0.03l-0.19,0.87c0,0.06,0,0.09,0.03,0.16h-0.03c0.59,0.5,0.78,1,0.84,1.34c-2.24,0.84-5.14,1-6.64,0.44
		c-0.81-0.34-0.94-1.03-1.15-2.28c-0.16-1.09-0.31-2.37-0.47-3.49c-0.12-0.81-0.19-1.59-0.34-2.12
		C135.83,157.12,135.76,157.15,135.73,157.28z M143.53,156.91c-0.75,0.31-4.12,1.4-4.74,1.68c-0.03,0.03-0.06,0.03-0.09,0.09
		c-0.03,0.06-0.12,0.37-0.19,0.53c0,0.06,0.03,0.06,0.09,0.03c0.09-0.03,0.22-0.12,0.34-0.16c0.53-0.19,3.71-1.25,4.36-1.5v-0.03
		c0.06-0.03,0.09-0.03,0.12-0.09c0.03-0.09,0.12-0.34,0.16-0.5C143.59,156.91,143.56,156.91,143.53,156.91z M132.83,156.66
		c-0.19,0.31-0.47,0.78-0.44,0.84c0.09,0.31,0.28,0.56,0.44,0.75l0.03,0.03c0.4,2.06,0.69,3.43,1.31,6.55
		c-2.53,0.47-4.43,0.62-6.42,0.59c-0.22-0.03-0.22-0.22-0.28-0.22c-0.09-0.03-0.19,0.41-0.25,0.72c-0.09,0.56,0.25,0.53,0.62,0.53
		c2.12-0.03,4.08-0.22,6.11-0.56c0.37-0.06,0.44-0.22,0.5-0.84c0.06-0.53,0.06-1.09-0.09-1.84c-0.34-1.65-0.69-3.27-1.03-4.89
		c0.16-0.22,0.47-0.59,0.4-0.65c-0.31-0.25-0.56-0.62-0.78-1C132.9,156.59,132.86,156.59,132.83,156.66z M127.91,157.53
		c-0.03,0.03-0.06,0.03-0.09,0.09c-0.03,0.06-0.09,0.34-0.16,0.47c0,0.06,0.03,0.06,0.09,0.03c0.09-0.03,0.22-0.09,0.31-0.16
		c0.53-0.22,2.93-1.12,3.59-1.37h0.03c0.03-0.03,0.09-0.03,0.09-0.09c0.03-0.09,0.09-0.31,0.12-0.44c0-0.06,0-0.06-0.06-0.06
		C131.09,156.31,128.56,157.25,127.91,157.53z M145.49,156.47c-0.03,0.19,0.03,0.34,0.06,0.53c0.09,0.31,0.09,0.66,0.16,1l0.03,0.03
		c0.12,0.56,0.9,5.21,0.97,5.18c0.09-0.03,0.16-0.56,0.16-0.72c0.03-0.41,0.03-0.81-0.03-1.22c-0.16-1-0.41-2-0.53-2.99
		c-0.06-0.44-0.19-0.87-0.25-1.34c-0.03-0.19-0.09-1.34-0.28-1.37C145.58,155.53,145.52,156.31,145.49,156.47z M104.44,168.94
		c-0.03,0.03-0.06,0.03-0.09,0.09c-0.03,0.06-0.09,0.34-0.16,0.47c0,0.06,0.03,0.06,0.09,0.03c0.09-0.03,0.22-0.09,0.31-0.16
		c0.53-0.22,2.93-1.12,3.59-1.37h0.03c0.03-0.03,0.09-0.03,0.09-0.09c0.03-0.09,0.09-0.31,0.12-0.44c0-0.06,0-0.06-0.06-0.06
		C107.62,167.73,105.09,168.66,104.44,168.94z M100.6,167.32c-0.12,0.22-0.28,0.5-0.44,0.72c-0.22-0.16-0.5-0.31-0.69-0.44
		c-0.12-0.06-0.16-0.06-0.22,0.03l-0.03-0.03c-0.12,0.19-0.28,0.44-0.4,0.65c-0.03,0.09-0.03,0.16,0.09,0.22
		c0.19,0.12,0.53,0.31,0.72,0.41c0.06,0.03,0.12,0,0.16-0.06c0.12-0.12,0.25-0.34,0.41-0.62c0.28,0.19,0.53,0.31,0.75,0.44
		c0.06,0.03,0.12,0.03,0.16-0.03c0.13-0.16,0.31-0.47,0.41-0.62c0.06-0.12,0.03-0.16-0.06-0.22c-0.12-0.09-0.5-0.31-0.69-0.44
		C100.66,167.26,100.63,167.26,100.6,167.32z M92.49,162.21c-0.12,0.19-0.28,0.47-0.37,0.66l0.03,0.03
		c-0.06,0.06-0.06,0.12,0.03,0.16c0.16,0.09,0.44,0.25,0.62,0.34c0.06,0.03,0.12,0.03,0.16-0.03c0.12-0.19,0.28-0.44,0.37-0.62
		c0.06-0.06,0.06-0.12,0-0.16c-0.19-0.12-0.5-0.28-0.69-0.4C92.56,162.15,92.52,162.15,92.49,162.21z M123.45,161.71
		c0.5,0.66,0.9,1.37,1.25,2.4c0.16,0.41-1.37,0.06-1.75-0.06c0.06-0.22,0.06-0.44,0.06-0.56c-0.03-0.16-0.12-0.09-0.16,0.03
		c-0.25,0.72-0.44,1.25-0.62,1.28c-0.09,0.03-0.69-0.22-0.97-0.37c0.09-0.22,0.25-0.5,0.28-0.72c0.03-0.19-0.03-0.31-0.12-0.19
		c-0.37,0.59-0.65,0.9-1.03,1.09c-0.41,0.22-0.87,0.31-1.65,0.37c0.16-0.28,0.37-0.78,0.44-1.15c0.06-0.25-0.06-0.41-0.16-0.19
		c-0.84,1.43-2.71,1.62-4.15,1.71c-1.4,0.06-2.74-0.19-3.34-1.12c-0.09-0.12-0.22-0.16-0.37,0c-1.12,1.56-2.65,1.4-3.71,0.81
		c0.37-0.28,0.81-0.93,0.62-1.31c-0.25-0.47-1-0.78-1.71-0.75c-0.87,0-1.78,0.44-1.9,1.31c-0.03,0.22,0.06,0.25,0.19,0.16
		c0.62-0.25,1,0.09,1.28,0.44c-2,0.84-3.8,0.75-4.43-0.5c-0.31-0.56-0.37-1.65-0.75-2.68c-0.12-0.28-0.37-0.16-0.44,0.06
		c-0.22,0.56-0.47,1.18-1.12,1.21c-0.37-0.03-0.41-0.12-0.53-0.37c-0.09-0.12-0.16-0.28-0.22-0.4c-0.06-0.12-0.12-0.09-0.16,0
		c-0.06,0.34-0.19,0.87-0.19,0.9c0.22,0.41,0.56,0.9,0.62,1.53c-0.44,0.72-1.34,1.28-2.68,1.84c-2.09,0.84-5.33,0.9-6.58,0.72
		c-2.12-0.28-4.71-1.46-5.58-2.15c-0.06-0.06-0.19-0.12-0.25-0.06c-0.06,0.06,0,0.16,0.09,0.25c1.53,1.87,4.49,2.9,6.77,2.99
		c2.03,0.09,4.12-0.28,5.77-0.94c1.12-0.47,1.87-1.03,2.31-1.62c0.34-0.53,0.44-1.15,0.47-1.65c0.84,0.06,1.12-0.78,1.34-1.4
		c0.03-0.06,0.09-0.06,0.12,0.03c0.5,1.56,0.34,3.4,2.24,3.77c1.28,0.25,2.81-0.31,3.83-0.94c1.31,1.47,3.3,1.31,4.55-0.25
		c0.09-0.09,0.16-0.09,0.22,0c0.56,0.75,1.47,1.09,2.49,1.15c1.31,0.09,2.77-0.16,4.02-0.59l-0.06-0.09
		c1.65,0.16,2.34-0.06,2.9-0.56c0.44,0.34,1.15,0.65,1.34,0.59c0.16-0.06,0.47-0.47,0.72-1c0.37,0.28,1.43,0.75,1.81,0.53
		c0.19-0.09,0.28-0.34,0.34-0.62c0.44-1.78-0.53-2.96-1.28-4.05C123.58,160.59,123.45,161.65,123.45,161.71z M110.7,160.06
		c-0.12,0.22-0.28,0.5-0.44,0.72c-0.22-0.16-0.5-0.31-0.69-0.44c-0.12-0.06-0.16-0.06-0.22,0.03l-0.03-0.03
		c-0.12,0.19-0.28,0.44-0.4,0.65c-0.03,0.09-0.03,0.16,0.09,0.22c0.19,0.12,0.53,0.31,0.72,0.41c0.06,0.03,0.09,0,0.16-0.06
		c0.12-0.12,0.25-0.34,0.41-0.62c0.28,0.19,0.53,0.31,0.75,0.44c0.06,0.03,0.09,0.03,0.16-0.03c0.12-0.16,0.31-0.47,0.4-0.62
		c0.06-0.12,0.03-0.16-0.06-0.22c-0.12-0.09-0.5-0.31-0.69-0.44C110.76,159.99,110.73,159.99,110.7,160.06z M118.75,160.15
		c-0.03,0.06-0.06,0.16-0.09,0.22c-0.03,0.09,0.03,0.19,0.09,0.09c0.06-0.12,0.16-0.22,0.25-0.28c0.25-0.16,0.5-0.22,0.78-0.19
		c0.25,0.03,0.72,0.19,0.72,0.22c0,0.03-1.09,0.59-1.25,0.69c-0.09,0.06-0.16,0.12-0.16,0.22c0.03,0.09,0.12,0.09,0.22,0.06
		c0.4-0.16,0.56-0.12,0.9-0.28l-0.03-0.03c0.47-0.19,0.59-0.44,0.69-0.47c0.03,0,0.09,0,0.13-0.03c0.12-0.12,0.25-0.44,0.25-0.56
		c0-0.06-0.31-0.09-0.41-0.12c-0.28-0.06-0.59-0.22-0.9-0.25C119.46,159.4,118.99,159.62,118.75,160.15z M122.64,158.06
		c-0.12,0.19-0.28,0.47-0.37,0.65l0.03,0.03c-0.06,0.06-0.06,0.13,0.03,0.16c0.16,0.09,0.44,0.25,0.62,0.34
		c0.06,0.03,0.12,0.03,0.16-0.03c0.12-0.19,0.28-0.44,0.37-0.62c0.06-0.06,0.06-0.12,0-0.16c-0.19-0.12-0.5-0.31-0.69-0.41
		C122.7,158,122.67,158,122.64,158.06z M108.05,158.59c-0.03,0.03-0.06,0.03-0.09,0.09c-0.03,0.06-0.09,0.34-0.16,0.47
		c0,0.06,0.03,0.06,0.09,0.03c0.09-0.03,0.22-0.09,0.31-0.16c0.53-0.22,2.93-1.12,3.59-1.4l0.03,0.03c0.03-0.03,0.09-0.03,0.09-0.09
		c0.03-0.09,0.09-0.31,0.12-0.44c0-0.06,0-0.06-0.06-0.06C111.23,157.38,108.71,158.31,108.05,158.59z M92.92,157.55
		c0.09,0.1,0.21,0.3,0.23,0.65c0,0.1-0.02,0.24-0.02,0.25c-0.01,0.01-0.19-0.07-0.22-0.09c-0.07-0.03-0.25-0.11-0.58-0.23
		c-0.13-0.02,0-0.23,0-0.23c0.05-0.09,0.13-0.21,0.22-0.3l0.12-0.08C92.74,157.5,92.86,157.47,92.92,157.55z M92.84,156.94
		c-0.37,0.06-0.81,0.58-0.99,1.18c-0.08,0.27-0.03,0.42,0.12,0.51c0.21,0.13,0.52,0.24,0.88,0.33c-0.42,0.71-1.78,1.62-2.03,1.76
		c-0.3,0.17-0.24,0.36,0.12,0.19c1.37-0.62,2.04-1.27,2.35-1.85c0.09,0.02,0.18,0.05,0.27,0.07c0.16,0.04,0.13,0.06,0.21-0.2
		c0.04-0.12,0.07-0.21,0.08-0.27l-0.41-0.14l0.04-0.14c0.05-0.47-0.07-0.86-0.11-0.98C93.25,157.04,93.07,156.9,92.84,156.94z
		 M120.18,156.69c-0.03,0.03-0.06,0.03-0.09,0.09c-0.03,0.09-0.09,0.34-0.16,0.47c0,0.06,0.03,0.06,0.09,0.03
		c0.09-0.03,0.22-0.09,0.31-0.16c0.53-0.22,2.93-1.12,3.59-1.37h0.03c0.03-0.03,0.09-0.03,0.09-0.09c0.03-0.09,0.09-0.31,0.12-0.44
		c0-0.06,0-0.06-0.06-0.06C123.36,155.48,120.83,156.41,120.18,156.69z"/>
</g>
</svg>
