<?xml version="1.0" encoding="iso-8859-1"?>
<!-- Generator: Adobe Illustrator 25.2.1, SVG Export Plug-In . SVG Version: 6.00 Build 0)  -->
<svg version="1.1" xmlns="http://www.w3.org/2000/svg" xmlns:xlink="http://www.w3.org/1999/xlink" x="0px" y="0px"
	 viewBox="0 0 240.74 323.95" enable-background="new 0 0 240.74 323.95" xml:space="preserve">
<g id="Ornaments">
</g>
<g id="Aya_No.">
</g>
<g id="Quran_Text">
	<path fill-rule="evenodd" clip-rule="evenodd" d="M160.79,105.46c-0.03,0.03-0.06,0.03-0.09,0.09c-0.03,0.09-0.09,0.34-0.16,0.47
		c0,0.06,0.03,0.06,0.09,0.03c0.09-0.03,0.22-0.09,0.31-0.16c0.53-0.22,2.93-1.12,3.59-1.37h0.03c0.03-0.03,0.09-0.03,0.09-0.09
		c0.03-0.09,0.09-0.31,0.12-0.44c0-0.06,0-0.06-0.06-0.06C163.97,104.24,161.45,105.18,160.79,105.46z M142.77,104.56
		c-0.03,0.03-0.06,0.03-0.09,0.09c-0.03,0.09-0.09,0.34-0.16,0.47c0,0.06,0.03,0.06,0.09,0.03c0.09-0.03,0.22-0.09,0.31-0.16h0.03
		c0.53-0.22,2.09-0.87,2.74-1.12c0.03-0.03,0.09-0.03,0.09-0.09c0.03-0.09,0.09-0.31,0.12-0.44c0-0.06,0-0.06-0.06-0.06
		C145.11,103.59,143.43,104.28,142.77,104.56z M162.29,102.56c-0.12,0.19-0.28,0.47-0.37,0.66l0.03,0.03
		c-0.06,0.06-0.06,0.12,0.03,0.16c0.16,0.09,0.44,0.25,0.62,0.34c0.06,0.03,0.12,0.03,0.16-0.03c0.12-0.19,0.28-0.44,0.37-0.62
		c0.06-0.06,0.06-0.12,0-0.16c-0.19-0.12-0.5-0.28-0.69-0.41C162.35,102.5,162.32,102.5,162.29,102.56z M144.21,100.88
		c-0.72-0.12-1.03-0.25-1.28-0.41c-0.09-0.06-0.12-0.06-0.09-0.12c0.09-0.22,0.41-0.69,0.59-0.65
		C143.61,99.69,143.8,100.22,144.21,100.88z M161.45,97.85c0.47,0.65,0.9,1.37,1.25,2.37c0.16,0.41-1.37,0.06-1.75-0.06
		c0.06-0.22,0.06-0.44,0.06-0.56c-0.03-0.16-0.12-0.09-0.16,0.03c-0.25,0.72-0.44,1.22-0.62,1.28c-0.09,0.03-0.65-0.19-0.94-0.34
		c0.06-0.22,0.19-0.53,0.25-0.75c0.03-0.19-0.06-0.31-0.12-0.19c-0.78,1.25-1.93,1.71-3.15,1c0.09-0.19,0.19-0.44,0.25-0.65
		c0.03-0.19-0.06-0.28-0.25-0.12c-0.69,0.62-3.02,1.28-5.8,1.4c-1.96,0.09-4.24-0.12-5.64-0.9c-0.39-0.21-0.63-0.48-0.89-0.8
		l-0.17-0.2l-0.07-0.07c-0.17-0.17-0.25-0.12-0.5,0.04c-0.72,0.53-1.06,1.62-0.56,2.21c-0.62,0.97-2.49,1.84-3.65,2.4
		c-0.16,0.06-0.12,0.28,0.09,0.22c2.12-0.41,3.21-0.9,3.9-2.49c0.53,0.19,1.09,0.28,1.84,0.47c0.09,0,0.09,0,0.25-0.5
		c3.49,1.31,8.6,0.47,10.94-0.72c0.56,1.59,2.15,0.93,2.68,0.41c0.44,0.34,1.15,0.65,1.34,0.59c0.16-0.06,0.47-0.47,0.72-1
		c0.37,0.28,1.43,0.75,1.81,0.53c0.19-0.09,0.28-0.34,0.34-0.62c0.44-1.78-0.53-2.96-1.28-4.05
		C161.57,96.76,161.45,97.82,161.45,97.85z M157.08,95.8c-0.03,0.06-0.06,0.16-0.09,0.22c-0.03,0.09,0.03,0.19,0.09,0.09
		c0.06-0.12,0.16-0.22,0.25-0.28c0.25-0.16,0.5-0.22,0.78-0.19c0.25,0.03,0.72,0.19,0.72,0.22c0,0.03-1.09,0.59-1.25,0.69
		c-0.09,0.06-0.19,0.12-0.16,0.22c0.03,0.09,0.12,0.09,0.22,0.06c0.41-0.16,0.56-0.12,0.9-0.28l-0.03-0.03
		c0.47-0.19,0.59-0.44,0.69-0.47c0.03,0,0.09,0,0.12-0.03c0.12-0.12,0.25-0.44,0.25-0.56c0-0.06-0.31-0.09-0.41-0.12
		c-0.28-0.06-0.59-0.22-0.9-0.25C157.8,95.05,157.33,95.27,157.08,95.8z M130.15,103.28c-0.03,0.03-0.06,0.03-0.09,0.09
		c-0.03,0.06-0.12,0.31-0.16,0.47c-0.03,0.06,0.03,0.06,0.09,0.03c0.09-0.03,0.22-0.09,0.31-0.12c0.53-0.19,1.59-0.59,2.28-0.84
		c0.03-0.03,0.09-0.03,0.09-0.09c0.03-0.09,0.12-0.31,0.16-0.44c0.03-0.06,0-0.06-0.06-0.06
		C132.02,102.59,130.81,103.03,130.15,103.28z M132.83,99.88c-0.34,0.22-1.5,0.22-2.03,0.09c-0.03,0-0.03,0-0.03-0.03
		c0.41-0.59,0.97-0.78,2.09-1.15C132.86,99.16,132.86,99.55,132.83,99.88z M137.38,96.3c-0.09,0.31-0.12,0.59-0.16,0.87v0.12
		l0.06-0.03c0.22,1.22,0.62,1.68,1.09,2.74c0.12,0.31-0.16,0.5-0.56,0.4c-0.59-0.22-1.34-0.59-1.56-1.78
		c-0.16-0.78-0.19-1.28-0.34-2.12c-0.03-0.28-0.06-0.31-0.16-0.06c-0.09,0.22-0.12,0.37-0.22,0.72v0.12
		c0.09,0.62,0.22,1.65,0.41,2.43c-0.28,0.69-1.59,1.75-2.4,0.9c-0.44-0.5-0.34-1.75-0.31-3.37c0-0.12-0.03-0.22-0.09-0.06
		c-0.09,0.16-0.09,0.25-0.19,0.44c-0.03,0.03-0.03,0.06-0.03,0.09c-0.03,0.16-0.06,0.22-0.06,0.37c-1.03,0.37-1.47,0.53-1.87,0.97
		c-0.4,0.44-0.56,1-0.81,1.65c-0.06,0.19,0,0.25,0.16,0.28c1.62,0.09,1.62,0.06,2.53-0.65c0.03,1.28,0.59,1.68,1.25,1.68
		c0.75,0,1.62-0.65,1.99-1.68c0.34,0.62,1.28,1.25,1.75,1.25c0.25,0,0.44-0.09,0.56-0.25c0.22-0.37,0.31-0.81,0.31-1.22
		c0.03-0.78-0.37-1.09-0.75-2.24c-0.16-0.47-0.28-0.97-0.4-1.53C137.54,96.23,137.45,96.05,137.38,96.3z M136.33,93.26l-0.19,0.35
		c-0.02,0.04-0.04,0.07-0.02,0.11c0.05,0.14,0.1,0.3,0.09,0.39c-0.22,0.21-0.45,0.24-0.62,0.1c-0.11-0.09-0.15-0.26-0.14-0.48
		c0.01-0.16,0.03-0.22-0.11-0.11c-0.18,0.15-0.13,0.13-0.14,0.22c-0.06,0.52-0.29,0.76-0.69,0.78c-0.25,0.02-0.44-0.16-0.26-0.66
		c0.04-0.11-0.04-0.22-0.15,0c-0.38,0.75-0.15,1.18,0.24,1.23c0.32,0.05,0.69-0.13,0.88-0.61c0.15,0.24,0.44,0.31,0.71,0.24
		c0.34-0.09,0.42-0.25,0.51-0.53c0.09-0.27,0.1-0.62-0.03-1.05C136.39,93.18,136.35,93.22,136.33,93.26z M139.16,91.9
		c-0.03,0-0.06,0.06-0.06,0.16l-0.16,0.87c-0.03,0.25-0.03,0.28,0,0.47c0.09,0.56,0.25,1.15,0.37,1.71c0.25,1.25,0.5,2.46,0.72,3.62
		c0.19,0.94,0.31,1.9,0.37,2.74c0,0.16,0.09,0.16,0.12,0c0.12-0.47,0.19-0.97,0.16-1.5c0-0.5-0.19-1.53-0.34-2.34
		c-0.19-1.03-0.44-2.12-0.62-3.05c-0.19-0.87-0.37-1.75-0.47-2.59c0-0.09-0.06-0.12-0.09-0.12V91.9z M132.89,92.34
		c-0.03,0.03-0.06,0.03-0.09,0.09c-0.03,0.09-0.09,0.34-0.16,0.47c0,0.06,0.03,0.06,0.09,0.03c0.09-0.03,0.22-0.09,0.31-0.16
		c0.5-0.22,2.93-1.12,3.59-1.37h0.03c0.03-0.03,0.09-0.03,0.09-0.09c0.03-0.09,0.09-0.31,0.12-0.44c0-0.06,0-0.06-0.06-0.06
		C136.07,91.12,133.55,92.06,132.89,92.34z M140.59,89.72c0.06,0.06,0.12,0.16,0.12,0.25c-0.09,0.22-0.75,0.47-1,0.53
		c-0.03,0.03-0.31,0.06-0.28,0v-0.03c0.12-0.22,0.28-0.5,0.5-0.69C140.16,89.59,140.38,89.53,140.59,89.72z M139.94,89.31
		c-0.28,0.28-0.65,0.84-0.84,1.18c-0.12,0-0.34-0.12-0.47-0.19c-0.16-0.09-0.25,0.06-0.31,0.19c-0.12,0.22-0.25,0.47-0.34,0.72
		l-0.09,0.25c0,0.12,0.03,0.16,0.13,0.06c0.16-0.19,0.31-0.65,0.4-0.59V90.9c0.59,0.34,1.37,0.22,1.93-0.19
		c0.44-0.31,0.78-0.81,0.66-1.34c-0.03-0.19-0.25-0.37-0.47-0.37C140.31,89,140.1,89.16,139.94,89.31z M112.04,105.74
		c-0.03,0.03-0.06,0.03-0.09,0.09c-0.03,0.06-0.09,0.34-0.16,0.47c-0.03,0.06,0.03,0.06,0.09,0.03c0.09-0.03,0.22-0.09,0.31-0.16
		c0.53-0.22,2.93-1.12,3.59-1.37h0.03c0.03-0.03,0.09-0.03,0.09-0.09c0.03-0.09,0.09-0.31,0.12-0.44c0-0.06,0-0.06-0.06-0.06
		C115.22,104.53,112.69,105.46,112.04,105.74z M112.66,96.48l0.03,0.03c-0.12,0.19-0.28,0.47-0.37,0.65
		c-0.06,0.06-0.06,0.12,0.03,0.16c0.16,0.09,0.44,0.25,0.62,0.34c0.06,0.03,0.12,0.03,0.16-0.03c0.12-0.19,0.28-0.44,0.37-0.62
		c0.06-0.06,0.06-0.12,0-0.16c-0.19-0.12-0.5-0.28-0.69-0.41C112.72,96.42,112.69,96.42,112.66,96.48z M117.93,100.35
		c-0.44-0.03-0.97-0.19-1.31-0.41c-0.06-0.03-0.06-0.06-0.03-0.09c0.12-0.22,0.31-0.31,0.47-0.31
		C117.46,99.54,117.9,100.01,117.93,100.35z M116.93,97.54c-0.03,0.16,0,0.22,0.16,0.12c0.59-0.28,1.25-0.72,3.12,0.37
		c-1.09,0.03-1.81,0.16-2.74,0.5c-1.34,0.53-1.09,1.87-2.59,1.53c-0.34-0.09-0.37-0.25-0.56-0.53c-0.12-0.19-0.16-0.28-0.25-0.44
		c-0.09-0.12-0.09-0.16-0.16,0.03c-0.06,0.28-0.12,0.47-0.19,0.75c-0.03,0.09,0,0.09,0.06,0.22c0.22,0.34,0.41,0.75,0.5,1.31
		c0.03,0.16,0.03,0.19,0,0.22c-1.46,2.31-6.64,3.62-9.57,3.8c-2.9,0.19-5.8-0.09-8.57-0.94c-1.81-0.56-3.34-1.4-4.43-2.12
		c-0.22-0.19-0.34-0.22-0.37-0.16c-0.06,0.09,0.16,0.37,0.22,0.44c1.37,1.65,3.02,2.49,4.8,2.96c2.87,0.9,6.52,1.15,9.95,0.62
		c2.84-0.4,8.73-2.15,8.39-5.36c0.53,0.31,1.15-0.16,1.43-0.5c0.06,0.53,0.47,0.75,0.9,0.87c0.37,0.12,0.81,0.12,1.09-0.06
		c0.31-0.25,0.34-0.62,0.34-0.97c-0.03-0.41-0.16-0.93-0.56-1.18c0.69-0.19,3.37-0.81,4.86-0.22c0.06,0.03,0.06,0,0.09-0.03
		c0.19-0.28,0.37-0.44,0.56-0.75c0.06-0.09,0.06-0.09-0.06-0.12c-1.06-0.09-1.78-0.28-2.37-0.5c-1.68-0.59-1.81-1.15-2.49-1.15
		v-0.03C117.87,96.23,117.31,96.58,116.93,97.54z M114.47,94.83c-0.06,0.12-0.19,0.44-0.19,0.53c0,0.03,0.12,0.19,0.28,0.41
		c0.47,0.69,0.75,1.43,0.59,2.46c-0.03,0.06-0.03,0.16,0,0.16c0.22,0,0.34-0.78,0.34-1.19c0-0.97-0.4-1.75-0.9-2.37
		C114.56,94.77,114.5,94.77,114.47,94.83z M124.03,93.72l-0.19,0.35c-0.02,0.04-0.04,0.07-0.02,0.11c0.05,0.14,0.1,0.3,0.09,0.39
		c-0.22,0.21-0.45,0.24-0.62,0.1c-0.11-0.09-0.15-0.26-0.14-0.48c0.01-0.16,0.03-0.22-0.11-0.11c-0.18,0.15-0.13,0.13-0.14,0.22
		c-0.06,0.52-0.29,0.76-0.69,0.79c-0.25,0.02-0.44-0.16-0.26-0.66c0.04-0.11-0.04-0.22-0.15,0c-0.38,0.75-0.15,1.18,0.24,1.23
		c0.31,0.05,0.69-0.13,0.88-0.61c0.15,0.24,0.44,0.31,0.71,0.24c0.34-0.09,0.42-0.25,0.51-0.52c0.09-0.27,0.1-0.62-0.03-1.05
		C124.08,93.65,124.04,93.69,124.03,93.72z M117.4,94.11c-0.03,0.06-0.06,0.16-0.09,0.22c-0.03,0.09,0.03,0.19,0.09,0.09
		c0.06-0.12,0.16-0.22,0.25-0.28c0.25-0.16,0.5-0.22,0.78-0.19c0.25,0.03,0.72,0.19,0.72,0.22c0,0.03-1.09,0.59-1.25,0.69
		c-0.09,0.06-0.19,0.12-0.16,0.22c0.03,0.09,0.12,0.09,0.22,0.06c0.4-0.16,0.56-0.12,0.9-0.28l-0.03-0.03
		c0.47-0.19,0.59-0.44,0.69-0.47c0.03,0,0.09,0,0.12-0.03c0.12-0.12,0.25-0.44,0.25-0.56c0-0.06-0.31-0.09-0.41-0.12
		c-0.28-0.06-0.59-0.22-0.9-0.25C118.12,93.36,117.65,93.58,117.4,94.11z M125.35,91.74c-0.16,0.25-0.5,0.69-0.47,0.78l-0.06-0.06
		c0.06,0.28,0.09,0.37,0.31,0.75c0.34,2.28,0.62,3.49,1.18,6.3c-0.81,0.47-1.59,0.47-1.96,0.12c-0.09-0.12-0.16-0.06-0.19,0.09
		c-0.19,0.56,0.03,1.03,0.37,1.15c-0.44,0.87-1.09,1.65-1.81,2.03c-0.9,0.53-2.46,0.59-3.93-0.06c-0.16-0.06-0.25,0.16-0.06,0.25
		c1.09,0.69,2.96,1.18,4.15,0.75c1.18-0.44,1.9-2,2.06-2.87c0.34-0.03,1.15-0.09,1.43-0.5c0.37-0.47,0.37-1.53,0.16-2.65
		c-0.31-1.47-0.62-3.18-0.81-4.24c0.25-0.25,0.59-0.5,0.53-0.56c-0.12-0.19-0.56-0.53-0.72-1.25
		C125.51,91.59,125.38,91.65,125.35,91.74z M114.19,92.96c-0.03,0.03-0.06,0.03-0.09,0.09c-0.03,0.06-0.09,0.34-0.16,0.47
		c0,0.06,0.03,0.06,0.09,0.03c0.09-0.03,0.22-0.09,0.31-0.16c0.53-0.22,2.93-1.12,3.58-1.37h0.03c0.03-0.03,0.09-0.03,0.09-0.09
		c0.03-0.09,0.09-0.31,0.12-0.44c0-0.06,0-0.06-0.06-0.06C117.37,91.74,114.84,92.68,114.19,92.96z M127.59,91.43l-0.12,0.87
		c-0.03,0.25-0.03,0.28,0,0.47c0.09,0.59,0.22,1.15,0.34,1.71c0.25,1.28,0.53,2.46,0.75,3.65c0.19,0.94,0.31,1.9,0.37,2.74
		c0,0.16,0.09,0.16,0.12,0.03c0.12-0.47,0.16-0.97,0.16-1.5c0-0.5-0.19-1.53-0.34-2.34c-0.19-1.03-0.44-2.12-0.62-3.06
		c-0.19-0.87-0.37-1.75-0.47-2.59c0-0.09-0.06-0.12-0.09-0.12l-0.03-0.03C127.62,91.28,127.59,91.34,127.59,91.43z M120.61,92.15
		c-0.06,0-0.06,0.03-0.09,0.09c-0.03,0.06-0.09,0.34-0.12,0.47c-0.03,0.06,0.03,0.06,0.06,0.03c0.09-0.03,0.22-0.12,0.31-0.16h0.03
		c0.53-0.22,2.93-1.12,3.59-1.37c0.03-0.03,0.06-0.03,0.09-0.09c0.03-0.09,0.09-0.31,0.12-0.44c0-0.06,0-0.06-0.06-0.06
		C123.79,90.93,121.27,91.87,120.61,92.15z M129.18,89.25c0.06,0.06,0.12,0.16,0.12,0.25c-0.09,0.22-0.75,0.47-1,0.53
		c-0.03,0.03-0.31,0.06-0.28,0L128,90c0.16-0.25,0.31-0.5,0.53-0.69C128.75,89.13,128.97,89.06,129.18,89.25z M128.53,88.85
		c-0.28,0.28-0.65,0.84-0.84,1.18c-0.12,0-0.34-0.12-0.47-0.19c-0.12-0.09-0.25,0.06-0.31,0.19c-0.12,0.22-0.25,0.47-0.34,0.72
		L126.47,91c0,0.12,0.03,0.16,0.12,0.06c0.16-0.19,0.31-0.65,0.41-0.59v-0.03c0.59,0.34,1.37,0.22,1.93-0.19
		c0.44-0.31,0.78-0.81,0.65-1.34c-0.03-0.19-0.25-0.37-0.47-0.37C128.9,88.53,128.69,88.69,128.53,88.85z M87.63,104.31
		c-0.03,0.03-0.06,0.03-0.09,0.09c-0.03,0.06-0.09,0.34-0.16,0.47c0,0.06,0.03,0.06,0.09,0.03c0.09-0.03,0.22-0.09,0.31-0.16
		l0.03,0.03c0.5-0.22,2.09-0.87,2.74-1.12c0.03-0.03,0.09-0.03,0.09-0.09c0.03-0.09,0.09-0.31,0.12-0.44c0-0.06,0-0.06-0.06-0.06
		C89.96,103.37,88.28,104.06,87.63,104.31z M97.04,101.88c-0.12,0.22-0.28,0.5-0.44,0.72c-0.22-0.16-0.5-0.31-0.69-0.44
		c-0.12-0.06-0.16-0.06-0.22,0.03l-0.03-0.03c-0.12,0.19-0.28,0.44-0.4,0.65c-0.03,0.09-0.03,0.16,0.09,0.22
		c0.19,0.12,0.53,0.31,0.72,0.41c0.06,0.03,0.09,0,0.16-0.06c0.12-0.12,0.25-0.34,0.41-0.62c0.28,0.19,0.53,0.31,0.75,0.44
		c0.06,0.03,0.09,0.03,0.16-0.03c0.12-0.16,0.31-0.47,0.41-0.62c0.06-0.12,0.03-0.16-0.06-0.22c-0.12-0.09-0.5-0.31-0.69-0.44
		C97.1,101.81,97.07,101.81,97.04,101.88z M99.41,101.88c-0.03,0.03-0.06,0.03-0.09,0.09c-0.03,0.09-0.09,0.34-0.16,0.47
		c0,0.06,0.03,0.06,0.09,0.03c0.09-0.03,0.22-0.09,0.31-0.16l0.03,0.03c0.53-0.22,2.09-0.87,2.74-1.12
		c0.03-0.03,0.09-0.03,0.09-0.09c0.03-0.09,0.09-0.31,0.12-0.44c0.03-0.06,0-0.06-0.06-0.06
		C101.75,100.94,100.07,101.63,99.41,101.88z M89.93,99.1c0.16,0.16,0.19,0.5,0.56,1.15c-0.66-0.16-0.94-0.25-1.18-0.44
		c-0.06-0.06-0.09-0.09-0.06-0.16l0.03,0.03c0.09-0.19,0.34-0.62,0.56-0.62C89.87,99.07,89.9,99.07,89.93,99.1z M97.98,98.54
		c-0.03,0.09,0.06,0.22,0.19,0.09c0.87-0.65,2.53-0.16,3.93,0.31c-1.43,0.5-3.4,1.56-4.36,0.69c0.03-0.09,0.06-0.56-0.03-0.59
		c-0.06-0.03-0.19,0.22-0.37,0.37c-0.53,0.44-1.25,0.65-2.15,0.87c-1.65,0.22-3.37,0.37-4.58-1.28c-0.22-0.25-0.31-0.53-0.62-0.53
		c-0.31,0-0.84,0.47-1.03,1.06c-0.16,0.5-0.16,1.15,0.16,1.37c-0.97,1.03-1.71,1.43-3.34,2.37c-0.25,0.12-0.16,0.25,0.06,0.22
		c0.62-0.09,3.18-0.97,3.59-2.43c0.59,0.19,0.84,0.28,1.68,0.47c0.09,0.03,0.09,0.03,0.28-0.56c1.81,0.84,4.8,0.41,6.17-0.87
		c0.44,0.44,0.78,0.78,1.25,0.75c1.19-0.09,2.43-0.78,3.46-1.22c0.87-0.37,1.53-0.47,2.65-0.16c0.03,0,0.06,0,0.06-0.03
		c0.19-0.34,0.28-0.5,0.53-0.93c0.03-0.06,0.03-0.09-0.06-0.09c-1.03,0-1.81,0.06-2.68-0.16c-2.09-0.41-2.4-1.03-3.21-1.03V97.2
		C98.66,97.2,98.1,98.04,97.98,98.54z M106.26,93.99l-0.19,0.35c-0.02,0.04-0.04,0.07-0.02,0.11c0.05,0.14,0.1,0.3,0.09,0.39
		c-0.22,0.21-0.45,0.25-0.62,0.1c-0.11-0.09-0.15-0.26-0.14-0.48c0.01-0.16,0.03-0.22-0.11-0.11c-0.18,0.15-0.13,0.13-0.14,0.22
		c-0.06,0.52-0.29,0.76-0.69,0.78c-0.25,0.02-0.44-0.16-0.26-0.66c0.04-0.11-0.04-0.22-0.15,0c-0.38,0.75-0.15,1.18,0.24,1.23
		c0.31,0.05,0.69-0.13,0.88-0.61c0.15,0.24,0.44,0.31,0.71,0.24c0.34-0.09,0.42-0.25,0.51-0.52c0.09-0.27,0.1-0.62-0.03-1.05
		C106.31,93.92,106.27,93.96,106.26,93.99z M102.65,93.03c-0.03,0.03-0.06,0.03-0.09,0.09c-0.03,0.09-0.09,0.34-0.16,0.47
		c0,0.06,0.03,0.06,0.09,0.03c0.09-0.03,0.22-0.09,0.31-0.16c0.5-0.22,2.93-1.12,3.59-1.4l0.03,0.03c0.03-0.03,0.09-0.03,0.09-0.09
		c0.03-0.09,0.09-0.31,0.12-0.44c0-0.06-0.03-0.06-0.06-0.06C105.83,91.81,103.3,92.74,102.65,93.03z M107.73,91.12
		c-0.12,0.19-0.34,0.47-0.44,0.62c-0.03,0.06-0.03,0.09,0,0.19c0.06,0.16,0.16,0.37,0.31,0.72v0.03c0.19,1.87,0.59,3.27,1.15,6.36
		c-0.59,0.47-1.65,0.47-1.9,0.19c-0.19-0.19-0.25-0.09-0.31,0.25c-0.09,0.62,0.16,0.81,0.41,0.94c-0.97,2.4-3.24,3.09-5.71,2.03
		c-0.25-0.09-0.34,0.12-0.12,0.25c2.87,1.56,5.46,1.15,6.23-2.18c0.34,0,0.87-0.16,1.15-0.31c0.97-0.59,0.5-2.43,0.31-3.46
		l-0.69-3.65c0.16-0.19,0.28-0.34,0.44-0.56c0.06-0.09,0.06-0.09,0-0.19c-0.12-0.22-0.41-0.72-0.65-1.18
		C107.86,91.03,107.86,90.93,107.73,91.12z M109.98,90.99l-0.12,0.87c-0.03,0.25-0.03,0.28,0,0.47c0.09,0.56,0.22,1.15,0.34,1.71
		c0.25,1.28,0.53,2.46,0.75,3.65c0.19,0.94,0.31,1.9,0.37,2.74c0,0.16,0.09,0.16,0.12,0.03c0.12-0.47,0.16-0.97,0.16-1.5
		c0-0.5-0.19-1.53-0.34-2.34c-0.19-1.03-0.44-2.12-0.62-3.05c-0.19-0.87-0.37-1.75-0.47-2.59l-0.03-0.03c0-0.09-0.06-0.12-0.09-0.12
		C110.01,90.84,109.98,90.9,109.98,90.99z M111.42,88.75c0.06,0.06,0.12,0.16,0.12,0.25c-0.09,0.22-0.75,0.47-1,0.53
		c-0.03,0.03-0.31,0.06-0.28,0l-0.03-0.03c0.16-0.25,0.31-0.5,0.53-0.69C110.98,88.63,111.2,88.57,111.42,88.75z M110.76,88.35
		c-0.28,0.28-0.65,0.84-0.84,1.18c-0.09,0-0.34-0.12-0.47-0.19c-0.16-0.09-0.25,0.06-0.31,0.19c-0.12,0.22-0.25,0.47-0.34,0.72
		l-0.09,0.25c0,0.12,0.03,0.16,0.12,0.06c0.16-0.19,0.31-0.65,0.41-0.59v-0.03c0.59,0.34,1.37,0.22,1.93-0.19
		c0.44-0.31,0.78-0.81,0.65-1.34c-0.03-0.19-0.25-0.37-0.47-0.37C111.13,88.04,110.92,88.19,110.76,88.35z"/>
</g>
</svg>
