<?xml version="1.0" encoding="iso-8859-1"?>
<!-- Generator: Adobe Illustrator 25.2.1, SVG Export Plug-In . SVG Version: 6.00 Build 0)  -->
<svg version="1.1" xmlns="http://www.w3.org/2000/svg" xmlns:xlink="http://www.w3.org/1999/xlink" x="0px" y="0px"
	 viewBox="0 0 240.74 323.95" enable-background="new 0 0 240.74 323.95" xml:space="preserve">
<g id="Ornaments">
</g>
<g id="Aya_No.">
</g>
<g id="Quran_Text">
	<path fill-rule="evenodd" clip-rule="evenodd" d="M157.92,116.77c-0.03,0.06-0.06,0.16-0.09,0.22c-0.03,0.09,0.03,0.19,0.09,0.09
		c0.06-0.12,0.16-0.22,0.25-0.28c0.25-0.16,0.5-0.22,0.78-0.19c0.25,0.03,0.72,0.19,0.72,0.22c0,0.03-1.09,0.59-1.25,0.69
		c-0.09,0.06-0.19,0.12-0.16,0.22c0.03,0.09,0.12,0.09,0.22,0.06c0.41-0.16,0.56-0.12,0.9-0.28l-0.03-0.03
		c0.47-0.19,0.59-0.44,0.69-0.47c0.03,0,0.09,0,0.12-0.03c0.12-0.12,0.25-0.44,0.25-0.56c0-0.06-0.31-0.09-0.41-0.12
		c-0.28-0.06-0.59-0.22-0.9-0.25C158.64,116.02,158.17,116.24,157.92,116.77z M167.93,116.4c-0.03,0.03-0.06,0.03-0.09,0.09
		c-0.03,0.06-0.12,0.37-0.16,0.53c0,0.06,0.03,0.06,0.09,0.03c0.09-0.03,0.22-0.12,0.34-0.16c0.53-0.19,3.71-1.25,4.36-1.5
		l-0.06-0.03c0.06-0.03,0.09-0.03,0.12-0.09c0.03-0.09,0.12-0.34,0.19-0.5c0-0.06-0.03-0.06-0.06-0.06
		C171.92,115.02,168.59,116.12,167.93,116.4z M179.84,114.37l-0.16,0.87c-0.03,0.25-0.03,0.28,0,0.47c0.09,0.56,0.25,1.15,0.34,1.71
		c0.25,1.25,0.5,2.46,0.72,3.65c0.19,0.94,0.31,1.9,0.37,2.74c0,0.16,0.09,0.16,0.12,0c0.12-0.47,0.19-0.97,0.16-1.5
		c0-0.5-0.19-1.53-0.34-2.34c-0.19-1.03-0.44-2.12-0.62-3.06c-0.19-0.87-0.37-1.75-0.47-2.59c0-0.08-0.04-0.1-0.07-0.11
		C179.87,114.24,179.84,114.29,179.84,114.37z M179.87,114.21c0,0,0.01,0.01,0.02,0.01c0,0,0.01-0.01,0.01-0.01H179.87z
		 M160.01,122.73c-0.59-0.09-1.5-0.41-1.62-0.59c0.12-0.22,0.41-0.75,0.75-0.75C159.36,121.42,159.58,122.07,160.01,122.73z
		 M176.85,114.15c-0.16,0.28-0.5,0.84-0.53,0.9c0,0.06,0.16,0.44,0.41,0.72c0.06,0.47,0.22,1.4,0.41,2.37
		c0.34,1.5,0.65,3.15,0.9,4.46c-0.47,0.44-1.06,0.59-1.65,0.62l0.06-0.06c-0.93,0-1.5-0.31-1.31-1.19c0.34,0.03,0.44,0.03,0.65,0.12
		c0.06,0.03,0.06,0.03,0.09-0.03c0.16-0.28,0.31-0.56,0.53-0.94c0.09-0.12,0.06-0.12-0.06-0.12c-0.69,0.03-1.53,0-2.28-0.12
		c-2.74-0.47-3.24-1.12-4.18-1.25c-0.62-0.06-1.31,0.44-1.62,1.34c-0.09,0.22,0.09,0.28,0.22,0.16c0.25-0.25,0.72-0.34,1.12-0.34
		c0.69,0.03,1.43,0.19,2.87,0.65c-1.03,0.47-2.46,0.9-3.99,1.18c-2.18,0.41-4.58,0.53-6.48-0.06c-1.06-0.34-1.93-0.87-2.53-1.68
		c-0.56-0.72-1.28,0.94-1.56,1.43c-0.25,0.44-0.37,0.72-1.03,0.84c-1.09,0.09-1.59-0.9-1.96-1.87c-0.31-0.78-0.72-2.59-0.97-3.55
		c-0.06-0.16-0.09-0.06-0.09,0.03c-0.09,0.37-0.16,0.75-0.16,0.81c0.16,0.87,0.41,1.84,0.65,2.59c-0.28,0.59-1.09,0.9-1.68,1.03
		c-0.47,0.09-1.06,0.19-1.43,0.09c-0.25-0.06-0.28-0.31-0.34-0.31c-0.09,0-0.09,0.06-0.16,0.25c-0.03,0.34-0.12,0.75,0.12,1
		c0.47,0.44,2.18-0.06,2.84-0.44c0.28-0.16,0.53-0.4,0.78-1.09c0.37,1.22,0.87,2.62,2.15,2.59c0.53-0.03,1.12-0.37,1.5-1.22
		c0.34,0.53,0.87,0.69,2.49,0.94c0.16,0,0.19,0,0.28-0.65c1.28,0.59,2.96,0.78,4.65,0.65c2-0.12,4.05-0.56,5.49-1.12
		c1.56-0.65,2.56-1.15,3.83-0.9c-0.22,0.65-0.22,1.5,0,1.78c0.22,0.28,0.66,0.62,1.68,0.47c0.53-0.12,1-0.22,1.43-0.59
		c0.34-0.34,0.69-0.75,0.22-3.12c-0.19-0.9-0.37-1.87-0.53-2.56c-0.16-0.72-0.28-1.37-0.41-2.09c0.19-0.19,0.5-0.5,0.47-0.53
		c-0.03-0.09-0.59-0.56-0.75-1.15c0-0.06-0.03-0.09-0.06-0.09C176.91,114.09,176.88,114.12,176.85,114.15z M154.55,113.74
		c0.09,0.1,0.21,0.3,0.23,0.65c0,0.1-0.02,0.24-0.02,0.25c-0.01,0.01-0.19-0.07-0.22-0.09c-0.07-0.03-0.25-0.1-0.58-0.23
		c-0.13-0.02,0-0.23,0-0.23c0.05-0.09,0.13-0.21,0.22-0.3l0.12-0.08C154.38,113.69,154.5,113.66,154.55,113.74z M154.48,113.13
		c-0.37,0.06-0.81,0.58-0.99,1.18c-0.08,0.27-0.03,0.42,0.12,0.51c0.21,0.13,0.52,0.23,0.88,0.33c-0.42,0.71-1.78,1.62-2.03,1.76
		c-0.29,0.17-0.24,0.36,0.12,0.19c1.37-0.62,2.05-1.27,2.35-1.85c0.09,0.02,0.18,0.05,0.27,0.07c0.16,0.04,0.13,0.06,0.21-0.2
		c0.04-0.12,0.07-0.21,0.08-0.27l-0.41-0.14l0.04-0.14c0.05-0.47-0.07-0.86-0.11-0.98C154.89,113.22,154.7,113.09,154.48,113.13z
		 M175.26,112.34c-0.03,0.06-0.06,0.16-0.09,0.22c-0.03,0.09,0.03,0.19,0.09,0.09c0.06-0.12,0.16-0.22,0.25-0.28
		c0.25-0.16,0.5-0.22,0.78-0.19c0.25,0.03,0.72,0.19,0.72,0.22c0,0.03-1.09,0.59-1.25,0.69c-0.09,0.06-0.19,0.13-0.16,0.22
		c0.03,0.09,0.12,0.09,0.22,0.06c0.41-0.16,0.56-0.12,0.9-0.28l-0.03-0.03c0.47-0.19,0.59-0.44,0.69-0.47c0.03,0,0.09,0,0.12-0.03
		c0.12-0.12,0.25-0.44,0.25-0.56c0-0.06-0.31-0.09-0.41-0.12c-0.28-0.06-0.59-0.22-0.9-0.25
		C175.98,111.6,175.51,111.81,175.26,112.34z M181.43,112.03c0.06,0.06,0.12,0.16,0.12,0.25c-0.09,0.22-0.75,0.47-1,0.53
		c-0.03,0.03-0.31,0.06-0.28,0v-0.03c0.12-0.25,0.28-0.5,0.5-0.69C180.99,111.91,181.21,111.85,181.43,112.03z M180.78,111.63
		c-0.28,0.28-0.65,0.84-0.84,1.18c-0.12,0-0.34-0.12-0.47-0.19c-0.16-0.09-0.25,0.06-0.31,0.19c-0.12,0.22-0.25,0.47-0.34,0.72
		l-0.09,0.25c0,0.12,0.03,0.16,0.12,0.06c0.16-0.19,0.28-0.65,0.41-0.59v-0.03c0.59,0.34,1.37,0.22,1.93-0.19
		c0.44-0.31,0.78-0.81,0.65-1.34c-0.03-0.19-0.25-0.37-0.47-0.37C181.15,111.32,180.93,111.47,180.78,111.63z M139.22,126.15
		c-0.06,0-0.06,0.03-0.09,0.09c-0.03,0.06-0.09,0.34-0.12,0.47c-0.03,0.06,0.03,0.06,0.06,0.03c0.09-0.03,0.22-0.12,0.31-0.16h0.03
		c0.53-0.22,2.93-1.12,3.58-1.37c0.03-0.03,0.06-0.03,0.09-0.09c0.03-0.09,0.09-0.31,0.12-0.44c0-0.06,0-0.06-0.06-0.06
		C142.4,124.94,139.87,125.87,139.22,126.15z M146.01,125.62c-0.03,0.03-0.06,0.03-0.09,0.09c-0.03,0.09-0.09,0.34-0.16,0.47
		c0,0.06,0.03,0.06,0.09,0.03c0.09-0.03,0.22-0.09,0.31-0.16c0.53-0.22,2.93-1.12,3.59-1.37h0.03c0.03-0.03,0.09-0.03,0.09-0.09
		c0.03-0.09,0.09-0.31,0.13-0.44c0-0.06,0-0.06-0.06-0.06C149.19,124.41,146.67,125.34,146.01,125.62z M142.62,120.39
		c0,0.37,0,0.78-0.03,1.09c-0.34,0.22-1.68,0.34-2.21,0.22c-0.03,0-0.03,0-0.03-0.03c0.41-0.59,1.18-0.9,2.28-1.31V120.39z
		 M146.95,117.24c-0.09,0.31-0.12,0.59-0.16,0.87v0.12h0.06c0.19,1.28,0.75,2.34,1.22,3.4c0.12,0.31-0.16,0.5-0.56,0.41
		c-0.59-0.19-1.31-0.56-1.56-1.78c-0.16-0.78-0.25-1.68-0.4-2.49c-0.03-0.28-0.06-0.31-0.16-0.06c-0.09,0.22-0.12,0.37-0.22,0.69
		v0.12c0.09,0.62,0.28,2.03,0.47,2.81c-0.28,0.69-1.56,1.71-2.37,0.9c-0.44-0.5-0.34-1.81-0.31-3.43c0-0.12-0.03-0.22-0.09-0.06
		c-0.09,0.16-0.09,0.25-0.19,0.44c-0.03,0.06-0.03,0.06-0.03,0.09c-0.03,0.16-0.03,0.31-0.06,0.44c-1.03,0.37-1.65,0.69-2.06,1.12
		c-0.41,0.44-0.56,1-0.78,1.62c-0.06,0.19,0,0.25,0.16,0.25c1.78,0.16,1.81-0.09,2.71-0.81c0.03,1.25,0.59,1.65,1.25,1.65
		c0.75,0,1.59-0.65,1.96-1.65c0.34,0.62,1.28,1.22,1.71,1.25c0.53,0.03,0.72-0.47,0.78-0.94c0.28-1.5-0.31-2.12-0.78-3.4
		c-0.16-0.47-0.28-0.97-0.4-1.5C147.1,117.18,147.01,116.99,146.95,117.24z M145.67,114.81c0.03,0,0.06,0.12,0.09,0.22
		c0.03,0.06,0.06,0.16,0.03,0.19c-0.06,0.06-0.16,0.09-0.25,0.12c-0.09,0.03-0.19,0.03-0.25,0.03c-0.25-0.03-0.31-0.19-0.31-0.44
		c0-0.06,0-0.28-0.06-0.28c-0.06,0-0.09,0.03-0.12,0.09c0,0.06-0.03,0.12-0.03,0.19c-0.03,0.06-0.03,0.16-0.06,0.25
		c-0.03,0.09-0.06,0.19-0.12,0.25c-0.12,0.16-0.22,0.22-0.37,0.28c-0.16,0.06-0.31,0.06-0.44-0.03c-0.09-0.06-0.09-0.16-0.09-0.28
		c0-0.16,0.03-0.28,0.09-0.37c0.06-0.09,0.06-0.12,0-0.12c-0.12,0.03-0.22,0.16-0.28,0.31c-0.06,0.16-0.09,0.34-0.09,0.53
		c0.03,0.19,0.09,0.31,0.19,0.41c0.09,0.09,0.22,0.12,0.37,0.12c0.19,0,0.34-0.06,0.47-0.16c0.12-0.09,0.25-0.25,0.34-0.44
		c0.12,0.19,0.34,0.31,0.65,0.25l-0.03,0.03c0.19-0.03,0.31-0.12,0.41-0.25c0.09-0.12,0.16-0.28,0.22-0.44
		c0.06-0.28,0.09-0.84-0.09-0.94L145.67,114.81z M142.49,113.56c-0.03,0.03-0.06,0.03-0.09,0.09c-0.03,0.09-0.09,0.34-0.16,0.47
		c0,0.06,0.03,0.06,0.09,0.03c0.09-0.03,0.22-0.09,0.31-0.16c0.5-0.22,2.93-1.12,3.59-1.4l0.03,0.03c0.03-0.03,0.09-0.03,0.09-0.09
		c0.03-0.09,0.09-0.31,0.12-0.44c0-0.06,0-0.06-0.06-0.06C145.67,112.34,143.15,113.28,142.49,113.56z M123.25,128.51
		c-0.03,0.03-0.06,0.03-0.09,0.09c-0.03,0.06-0.16,0.37-0.19,0.53c0,0.06,0.03,0.06,0.09,0.03c0.09-0.03,0.25-0.12,0.34-0.16
		c0.53-0.19,3.71-1.25,4.36-1.53c0.03-0.03,0.09-0.03,0.09-0.09c0.03-0.09,0.12-0.37,0.19-0.5c0-0.06,0-0.06-0.06-0.06
		C127.24,127.14,123.91,128.23,123.25,128.51z M125.19,125.22c-0.12,0.19-0.28,0.47-0.37,0.65l0.03,0.03
		c-0.06,0.06-0.06,0.12,0.03,0.16c0.16,0.09,0.44,0.25,0.62,0.34c0.06,0.03,0.12,0.03,0.16-0.03c0.12-0.19,0.28-0.44,0.37-0.62
		c0.06-0.06,0.06-0.12,0-0.16c-0.19-0.12-0.5-0.31-0.69-0.41C125.25,125.16,125.22,125.16,125.19,125.22z M136.01,119.66
		c-0.03,0.25-0.09,0.53-0.09,0.75c0,0.09,0,0.12,0.06,0.16l-0.03,0.03c0.69,0.62,1,1.09,1.25,1.53c0.03,0.06,0.03,0.09,0,0.19
		c-0.47,1.09-1.06,1.78-1.78,2.24c-1.22,0.78-2.68,0.72-4.24,0.34c-0.22-0.06-0.4,0.12-0.09,0.28c1.03,0.44,2.99,0.87,4.3,0.44
		c1.4-0.5,2.28-2.37,2.18-3.59c-0.06-0.87-0.5-1.71-1.4-2.46C136.04,119.48,136.04,119.51,136.01,119.66z M131.54,118.89
		c-0.06,0.22-0.19,0.65-0.22,0.84c0,0.06,0,0.09,0.03,0.12v-0.03c0.59,0.47,0.94,0.94,1.09,1.37c-1.28,0.87-4.49,1.53-8.01,1.75
		c-3.74,0.22-7.57,0.12-10.22-1.5c-0.62-0.34-0.62-0.19-0.31,0.19c0.62,0.72,1.59,1.62,2.99,1.93c1.96,0.47,4.77,0.53,7.61,0.37
		c2.68-0.16,5.33-0.62,7.2-1.47c0.78-0.31,1-0.72,1.12-1.15c0.22-0.81-0.22-1.78-1.09-2.46
		C131.57,118.74,131.57,118.77,131.54,118.89z M126.2,117.18c0.03,0,0.06,0.12,0.09,0.22c0.03,0.06,0.06,0.16,0.03,0.19
		c-0.06,0.06-0.16,0.09-0.25,0.12c-0.09,0.03-0.19,0.03-0.25,0.03c-0.25-0.03-0.31-0.19-0.31-0.44c0-0.06,0-0.28-0.06-0.28
		s-0.09,0.03-0.12,0.09c0,0.06-0.03,0.12-0.03,0.19c-0.03,0.06-0.03,0.16-0.06,0.25c-0.03,0.09-0.06,0.19-0.12,0.25
		c-0.12,0.16-0.22,0.22-0.37,0.28c-0.16,0.06-0.31,0.06-0.44-0.03c-0.09-0.06-0.09-0.16-0.09-0.28c0-0.16,0.03-0.28,0.09-0.37
		c0.06-0.09,0.06-0.12,0-0.12c-0.12,0.03-0.22,0.16-0.28,0.31c-0.06,0.16-0.09,0.34-0.09,0.53c0.03,0.19,0.09,0.31,0.19,0.41
		c0.09,0.09,0.22,0.12,0.37,0.12c0.19,0,0.34-0.06,0.47-0.16c0.12-0.09,0.25-0.25,0.34-0.44c0.12,0.19,0.34,0.31,0.65,0.25
		l-0.03,0.03c0.37-0.06,0.53-0.37,0.62-0.69c0.06-0.28,0.09-0.84-0.09-0.94L126.2,117.18z M133.45,116.67
		c-0.03,0.03-0.06,0.03-0.09,0.09c-0.03,0.06-0.09,0.34-0.16,0.47c0,0.06,0.03,0.06,0.09,0.03c0.09-0.03,0.22-0.09,0.31-0.16
		c0.53-0.22,2.93-1.12,3.59-1.37h0.03c0.03-0.03,0.09-0.03,0.09-0.09c0.03-0.09,0.09-0.31,0.12-0.44c0-0.06,0-0.06-0.06-0.06
		C136.63,115.45,134.11,116.39,133.45,116.67z M90.65,125.73c-0.03,0.03-0.06,0.03-0.09,0.09c-0.03,0.06-0.09,0.34-0.16,0.47
		c0,0.06,0.03,0.06,0.09,0.03c0.09-0.03,0.22-0.09,0.31-0.16h0.03c0.53-0.22,2.93-1.12,3.59-1.37c0.03-0.03,0.09-0.03,0.09-0.09
		c0.03-0.09,0.09-0.31,0.12-0.44c0-0.06,0-0.06-0.06-0.06C93.83,124.51,91.3,125.45,90.65,125.73z M87.47,124.16
		c-0.12,0.22-0.28,0.5-0.44,0.72c-0.22-0.16-0.5-0.31-0.69-0.44c-0.12-0.06-0.16-0.06-0.22,0.03l-0.03-0.03
		c-0.12,0.19-0.28,0.44-0.41,0.65c-0.03,0.09-0.03,0.16,0.09,0.22c0.19,0.12,0.53,0.31,0.72,0.41c0.06,0.03,0.09,0,0.16-0.06
		c0.12-0.12,0.25-0.34,0.4-0.62c0.28,0.19,0.53,0.31,0.75,0.44c0.06,0.03,0.09,0.03,0.16-0.03c0.12-0.16,0.31-0.47,0.41-0.62
		c0.06-0.12,0.03-0.16-0.06-0.22c-0.12-0.09-0.5-0.31-0.69-0.44C87.53,124.1,87.5,124.1,87.47,124.16z M79.02,120.26
		c-0.12,0.19-0.28,0.47-0.37,0.65l0.03,0.03c-0.06,0.06-0.03,0.12,0.03,0.16c0.16,0.09,0.44,0.25,0.62,0.34
		c0.06,0.03,0.12,0.03,0.16-0.03c0.12-0.19,0.28-0.44,0.37-0.62c0.06-0.06,0.06-0.12,0-0.16c-0.19-0.12-0.5-0.28-0.69-0.41
		C79.08,120.2,79.05,120.2,79.02,120.26z M81.39,116.52c-0.75,0.31-4.08,1.4-4.74,1.68c-0.03,0.03-0.06,0.03-0.09,0.09
		c-0.03,0.06-0.16,0.37-0.19,0.53c0,0.06,0.03,0.06,0.09,0.03c0.09-0.03,0.25-0.12,0.34-0.16c0.53-0.19,3.71-1.25,4.36-1.53
		c0.03-0.03,0.09-0.03,0.09-0.09c0.03-0.09,0.12-0.37,0.19-0.5C81.48,116.52,81.45,116.52,81.39,116.52z M100.62,117.71
		c-0.06,0.12-0.19,0.44-0.19,0.53c0,0.03,0.12,0.19,0.28,0.41c0.47,0.69,0.75,1.43,0.59,2.46c-0.03,0.06-0.03,0.16,0,0.16
		c0.22,0,0.34-0.78,0.34-1.19c0-0.97-0.41-1.75-0.9-2.37C100.72,117.65,100.65,117.61,100.62,117.71z M102.56,116.65
		c-0.03,0.03-0.06,0.03-0.09,0.09c-0.03,0.06-0.09,0.34-0.16,0.47c0,0.06,0.03,0.06,0.09,0.03c0.09-0.03,0.22-0.09,0.31-0.16
		c0.53-0.22,2.93-1.12,3.58-1.37h0.03c0.03-0.03,0.09-0.03,0.09-0.09c0.03-0.09,0.09-0.31,0.12-0.44c0-0.06,0-0.06-0.06-0.06
		C105.73,115.43,103.21,116.37,102.56,116.65z M110.69,114.71c-0.06,0.28-0.12,0.59-0.12,0.9c0,0.62,0.16,1.28,0.28,1.9
		c0.22,1.25,0.5,2.49,0.59,3.74c0.06,0.44,0,1.03,0.19,1.43c0.06,0.12,0.22-0.41,0.22-0.44c0.03-0.16,0.03-0.31,0.03-0.47
		c0-0.44,0-0.84-0.03-1.28h-0.03c-0.03-0.19-0.03-0.34-0.06-0.53c-0.22-1.53-0.53-3.06-0.78-4.61c-0.03-0.22,0-0.5-0.09-0.72
		C110.82,114.5,110.72,114.62,110.69,114.71z M92.2,121.14h0.06c0.16,0.03,0.31,0.56,0.75,1.25c-0.84-0.19-1.12-0.37-1.37-0.56
		c-0.12-0.09-0.16-0.09-0.06-0.22c0.19-0.22,0.44-0.5,0.62-0.5V121.14z M107.89,113.81c-0.22,0.34-0.5,0.84-0.47,0.87
		c0.06,0.25,0.12,0.37,0.34,0.62c0.34,2.15,1.09,5.67,1.22,6.48c-0.22,0.5-1.06,0.78-2,0.34c0.5-0.53,0.75-0.97,0.59-1.28
		c-0.4-0.78-3.09-1.25-3.52,0.62c-0.03,0.16,0.09,0.25,0.19,0.16c0.31-0.37,1.03-0.06,1.43,0.31c-2.06,0.94-5.99,1.34-7.58,0.37
		c-0.72-0.47-0.81-1.5-1-2.62c-0.22-1.18-0.5-2.84-0.81-4.74c-0.03-0.12-0.06-0.22-0.16,0c-0.09,0.25-0.09,0.37-0.22,0.75v0.16
		c0.31,1.87,0.65,3.77,0.94,5.49c-0.22,0.53-1.53,0.9-2.62,0.62c-0.62-0.16-1.18-0.72-1.5-1.22c-0.25-0.37-0.44-0.28-0.72-0.09
		c-0.94,0.72-1.03,1.71-2.28,1.78c-1.5,0.09-1.59-1.12-1.81-2.12c-0.09-0.5-0.25-1.62-0.53-1.78c-0.12-0.06-0.19,0-0.25,0.09
		c-0.09,0.25-0.22,0.56-0.41,0.75c-0.16,0.19-0.47,0.37-0.78,0.44c-0.37,0.09-0.47,0.06-0.59-0.16c-0.16-0.22-0.34-0.47-0.44-0.56
		c-0.09,0.41-0.12,0.65-0.19,1.06c0.25,0.37,0.5,0.75,0.65,1.43v0.06c-0.69,1.12-1.87,1.71-3.02,2.12
		c-2.12,0.75-4.77,0.87-6.98,0.47c-1.75-0.31-3.21-0.97-4.27-1.68c-0.22-0.16-0.31-0.22-0.37-0.12c-0.06,0.09,0.16,0.34,0.22,0.44
		c1.81,2.03,3.96,2.59,6.36,2.65c3.15,0.06,6.48-0.62,8.04-2.9c0.31-0.5,0.44-0.97,0.34-1.68c0.97-0.25,1.28-0.65,1.53-1.28
		c0.41,1.56,0.31,2.68,0.9,3.34c0.56,0.56,1.34,0.59,2.06,0.37c0.47-0.19,0.75-0.53,1.03-0.87c0.16,0.59,0.9,0.87,2.31,1
		c0.09,0,0.16-0.03,0.25-0.56c1.25,0.37,2.81,0.16,3.21-1c0.16,1.03,0.87,1.56,1.9,1.81c2.68,0.56,5.95-0.41,7.39-1.12
		c0.84,1.09,2.28,0.97,2.84-0.06c0.34-0.69,0.22-1.65,0.12-2.21c-0.25-1.37-0.66-3.18-0.87-4.74c0.19-0.28,0.47-0.56,0.41-0.72
		c-0.31-0.37-0.5-0.56-0.72-1.06c-0.03-0.06-0.03-0.06-0.06-0.06l-0.06-0.03L107.89,113.81z M94.14,114.15
		c-0.03,0.03-0.06,0.03-0.09,0.09c-0.03,0.09-0.09,0.34-0.16,0.47c0,0.06,0.03,0.06,0.09,0.03c0.09-0.03,0.22-0.09,0.31-0.16
		c0.53-0.22,2.93-1.12,3.58-1.37h0.03c0.03-0.03,0.09-0.03,0.09-0.09c0.03-0.09,0.09-0.31,0.12-0.44c0-0.06,0-0.06-0.06-0.06
		C97.32,112.94,94.79,113.87,94.14,114.15z M112.31,112.35c0.06,0.06,0.12,0.16,0.12,0.25c-0.09,0.22-0.75,0.47-1,0.53
		c-0.03,0.03-0.31,0.06-0.28,0c0.12-0.22,0.28-0.5,0.5-0.69v-0.03C111.88,112.22,112.09,112.16,112.31,112.35z M111.63,111.94
		c-0.28,0.28-0.65,0.84-0.84,1.18c-0.12,0-0.34-0.12-0.47-0.19c-0.16-0.09-0.25,0.06-0.31,0.19c-0.12,0.22-0.25,0.47-0.34,0.72
		l-0.09,0.25c0,0.12,0.03,0.16,0.12,0.06v-0.03c0.16-0.19,0.31-0.66,0.4-0.59c0.59,0.34,1.37,0.22,1.93-0.19
		c0.44-0.31,0.78-0.81,0.65-1.34c-0.03-0.19-0.25-0.37-0.47-0.37C112,111.63,111.78,111.79,111.63,111.94z M106.45,112.1
		c-0.06,0.09-0.09,0.22-0.16,0.31c-0.06,0.12,0.06,0.16,0.16,0.09c0.19-0.16,0.31-0.44,0.56-0.47c0.41-0.09,0.81,0.09,1.22,0.16
		c-0.03-0.03-1.15,0.62-1.28,0.66c-0.06,0.03-0.06,0.12-0.03,0.19c0.03,0.13,0.12,0.09,0.22,0.06c0.22-0.03,0.47-0.16,0.69-0.25
		c0.12-0.06,1.56-0.87,1.09-1.09l0.06-0.03c-0.31-0.19-0.84-0.22-1.22-0.28C107.17,111.35,106.76,111.57,106.45,112.1z"/>
</g>
</svg>
