<?xml version="1.0" encoding="iso-8859-1"?>
<!-- Generator: Adobe Illustrator 25.2.1, SVG Export Plug-In . SVG Version: 6.00 Build 0)  -->
<svg version="1.1" xmlns="http://www.w3.org/2000/svg" xmlns:xlink="http://www.w3.org/1999/xlink" x="0px" y="0px"
	 viewBox="0 0 240.74 323.95" enable-background="new 0 0 240.74 323.95" xml:space="preserve">
<g id="Ornaments">
</g>
<g id="Aya_No.">
</g>
<g id="Quran_Text">
	<path fill-rule="evenodd" clip-rule="evenodd" d="M52.93,169.09c-0.03,0.03-0.06,0.03-0.09,0.09c-0.03,0.09-0.09,0.34-0.16,0.47
		c0,0.06,0.03,0.06,0.09,0.03c0.09-0.03,0.22-0.09,0.31-0.16h0.03c0.53-0.22,2.46-1.03,3.12-1.28c0.03-0.03,0.09-0.03,0.09-0.09
		c0.03-0.09,0.09-0.31,0.13-0.44c0-0.06-0.03-0.06-0.06-0.06C55.65,167.97,53.59,168.81,52.93,169.09z M67.06,164.92
		c0.12,0.12,0.31,0.41,0.28,0.53c0,0.09-0.12,0.19-0.28,0.16c-0.5-0.09-0.84-0.28-1.28-0.4c0.19-0.34,0.19-1.03,0.16-1.37
		C66.4,164.17,66.78,164.6,67.06,164.92z M65.62,164.57c-0.22,0.22-0.41,0.31-0.65,0.41c-1,0-1.03-0.25-1.03-0.41
		c0.09-0.44,0.4-1.06,0.78-1.06C65.09,163.54,65.47,164.04,65.62,164.57z M54.9,160.96c-0.06,0.34-0.12,0.69-0.09,0.75l0.06,0.06
		c0.19,0.59,0.5,1.75,0.72,2.4c-0.34,0.75-1.81,1.15-2.68,1.06c-0.59-0.03-0.56-0.37-0.69-0.41c-0.06,0-0.12,0.25-0.16,0.34
		c-0.06,0.34-0.06,0.66,0.12,0.87c0.34,0.47,1.68,0.16,2.31-0.09c0.72-0.31,0.75-0.25,1.22-1.4c0.31,0.9,0.75,1.65,1.28,2.03
		c1.4,0.97,5.55,0.44,7.7-0.62c0.75,0.06,1.87,0.47,2.03,0.5c0.16,0.03,0.31,0.06,0.44,0c0.22-0.09,0.34-0.47,0.4-0.78
		c0.12-0.81,0-1.31-0.5-1.9c-0.62-0.69-1.43-1.37-2.37-1.93c-0.22-0.12-0.44-0.22-0.59-0.22c-0.12,0-0.22,0.06-0.25,0.25
		c-0.03,0.41,0,0.59,0,0.81c0,0.12,0,0.16,0.19,0.25c-0.41,0.62-0.75,1.65-0.41,2.46c-1.65,0.53-5.14,1.09-6.52,0.09
		c-1.12-0.75-1.65-3.21-2.09-4.52C54.99,160.86,54.93,160.8,54.9,160.96z M48.04,159.83c-0.12,0.19-0.28,0.47-0.37,0.65l0.03,0.03
		c-0.06,0.06-0.06,0.12,0.03,0.16c0.16,0.09,0.44,0.25,0.62,0.34c0.06,0.03,0.12,0.03,0.16-0.03c0.12-0.19,0.28-0.44,0.37-0.62
		c0.06-0.06,0.06-0.12,0-0.16c-0.19-0.12-0.5-0.31-0.69-0.41C48.1,159.77,48.07,159.77,48.04,159.83z M63.19,158.68
		c-0.03,0.06-0.06,0.16-0.09,0.22c-0.03,0.09,0.03,0.19,0.09,0.09c0.06-0.12,0.16-0.22,0.25-0.28c0.25-0.16,0.5-0.22,0.78-0.19
		c0.25,0.03,0.72,0.19,0.72,0.22c0,0.06-1.09,0.59-1.25,0.69c-0.09,0.06-0.19,0.12-0.16,0.22c0.03,0.09,0.12,0.09,0.22,0.06
		c0.41-0.16,0.56-0.12,0.9-0.28l-0.03-0.03c0.47-0.19,0.59-0.44,0.69-0.47c0.03,0,0.09,0,0.12-0.03c0.12-0.12,0.25-0.44,0.25-0.56
		c0-0.06-0.31-0.09-0.41-0.12c-0.28-0.06-0.59-0.22-0.9-0.25C63.91,157.93,63.44,158.15,63.19,158.68z M40.4,157.28l-0.22,0.84
		c0,0.06,0,0.06,0.03,0.16c0.12,0.47,0.19,1.15,0.28,1.62l0.44,3.06c0.25,1.59,0.22,3.24,1.87,3.59c1.06,0.25,2.4,0.25,3.62,0.16
		c1.31-0.12,2.56-0.41,3.68-0.81h-0.06c0.25-0.09,0.56-0.22,0.69-0.37c0.16-0.19,0.25-0.69,0.25-1.06c0.06-1.09-0.47-1.68-1.03-2.18
		c-0.12-0.09-0.12-0.12-0.16,0.06l-0.12,0.87c0,0.09,0,0.09,0.06,0.16c0.59,0.47,0.84,0.94,0.9,1.28c-1.53,0.69-3.9,1.18-5.89,1.09
		c-0.81-0.03-1.59-0.16-2.21-0.37c-0.25-0.09-0.44-0.25-0.56-0.41c-0.31-0.41-0.44-1-0.59-1.87c-0.16-1.09-0.31-2.37-0.47-3.49
		c-0.12-0.81-0.22-1.81-0.37-2.34C40.49,157.12,40.43,157.15,40.4,157.28z M45.11,158.84c-0.03,0.03-0.06,0.03-0.09,0.09
		c-0.03,0.06-0.16,0.37-0.19,0.53c0,0.06,0.03,0.06,0.09,0.03c0.09-0.03,0.25-0.12,0.34-0.16c0.53-0.19,3.71-1.25,4.36-1.53
		c0.03-0.03,0.09-0.03,0.09-0.09c0.03-0.09,0.12-0.37,0.19-0.5c0-0.06,0-0.06-0.06-0.06C49.1,157.46,45.76,158.56,45.11,158.84z
		 M68.46,157.09l-0.16,0.87c-0.03,0.25-0.03,0.28,0,0.47c0.09,0.56,0.25,1.15,0.37,1.71c0.25,1.25,0.5,2.46,0.72,3.65
		c0.19,0.93,0.31,1.9,0.37,2.74c0,0.16,0.09,0.16,0.12,0c0.12-0.47,0.19-0.97,0.16-1.5c0-0.5-0.19-1.53-0.34-2.34
		c-0.19-1.03-0.44-2.12-0.62-3.06c-0.19-0.87-0.37-1.75-0.47-2.59c0-0.09-0.06-0.13-0.09-0.13C68.49,156.93,68.46,157,68.46,157.09z
		 M69.52,154.54c0.06,0.06,0.12,0.16,0.12,0.25c-0.09,0.22-0.75,0.47-1,0.53c-0.03,0.03-0.31,0.06-0.28,0l-0.03-0.03
		c0.16-0.22,0.31-0.5,0.53-0.69C69.08,154.41,69.3,154.35,69.52,154.54z M68.86,154.13c-0.28,0.28-0.65,0.84-0.84,1.18
		c-0.12,0-0.34-0.12-0.47-0.19c-0.16-0.09-0.25,0.06-0.31,0.19c-0.12,0.22-0.25,0.47-0.34,0.72l-0.09,0.25
		c0,0.12,0.03,0.16,0.12,0.06v-0.03c0.16-0.19,0.31-0.65,0.4-0.59c0.59,0.34,1.37,0.22,1.93-0.19c0.44-0.31,0.78-0.81,0.65-1.34
		c-0.03-0.19-0.25-0.37-0.47-0.37C69.24,153.82,69.02,153.98,68.86,154.13z M186.94,190.02c-0.03,0.03-0.06,0.03-0.09,0.09
		c-0.03,0.06-0.09,0.34-0.16,0.47c0,0.06,0.03,0.06,0.09,0.03c0.09-0.03,0.22-0.09,0.31-0.16c0.5-0.22,2.93-1.12,3.58-1.37h0.03
		c0.03-0.03,0.09-0.03,0.09-0.09c0.03-0.09,0.09-0.31,0.12-0.44c0-0.06,0-0.06-0.06-0.06C190.12,188.8,187.59,189.74,186.94,190.02z
		 M177.55,181.22c-0.06,0.12-0.19,0.44-0.19,0.53c0,0.03,0.12,0.19,0.28,0.41c0.47,0.69,0.75,1.43,0.59,2.46
		c-0.03,0.06-0.03,0.16,0,0.16v0.03c0.22,0,0.34-0.78,0.34-1.19c0-0.97-0.4-1.75-0.9-2.37
		C177.65,181.16,177.58,181.16,177.55,181.22z M188.77,179.66l-0.19,0.35c-0.02,0.04-0.04,0.07-0.02,0.11
		c0.05,0.14,0.1,0.3,0.09,0.39c-0.22,0.21-0.45,0.24-0.62,0.1c-0.11-0.09-0.15-0.26-0.14-0.48c0.01-0.16,0.03-0.22-0.11-0.11
		c-0.18,0.15-0.13,0.13-0.14,0.22c-0.07,0.52-0.29,0.76-0.69,0.78c-0.25,0.02-0.44-0.16-0.26-0.66c0.04-0.11-0.04-0.22-0.15,0
		c-0.38,0.75-0.15,1.17,0.24,1.23c0.31,0.05,0.69-0.13,0.88-0.61c0.15,0.24,0.44,0.31,0.71,0.24c0.34-0.09,0.42-0.25,0.51-0.53
		c0.09-0.27,0.1-0.62-0.03-1.05C188.82,179.59,188.79,179.63,188.77,179.66z M176.24,178.49c-0.75,0.31-2.43,0.97-3.09,1.25
		c-0.03,0.03-0.06,0.03-0.09,0.09c-0.03,0.06-0.09,0.34-0.16,0.47c0,0.06,0.03,0.06,0.09,0.03c0.09-0.03,0.22-0.09,0.31-0.16
		l0.03,0.03c0.5-0.22,2.09-0.87,2.74-1.12c0.03-0.03,0.09-0.03,0.09-0.09c0.03-0.09,0.09-0.31,0.12-0.44
		C176.31,178.49,176.31,178.49,176.24,178.49z M179.06,179.91c-0.03,0.03-0.06,0.03-0.09,0.09c-0.03,0.09-0.09,0.34-0.16,0.47
		c0,0.06,0.03,0.06,0.09,0.03c0.09-0.03,0.22-0.09,0.31-0.16c0.5-0.22,2.93-1.12,3.59-1.4l0.03,0.03c0.03-0.03,0.09-0.03,0.09-0.09
		c0.03-0.09,0.09-0.31,0.12-0.44c0-0.06,0-0.06-0.06-0.06C182.24,178.7,179.71,179.63,179.06,179.91z M176.49,185.16
		c-0.62,0.87-3.52,1.62-4.65,1.53c0.75-0.56,1.81-1.75,2.62-2.03C175.06,184.44,176.15,184.69,176.49,185.16z M171.57,177.74
		c-0.09,0.16-0.31,0.5-0.37,0.72c-0.03,0.06-0.03,0.12,0,0.16c0.09,0.22,0.25,0.44,0.37,0.62c0.19,2.4,0.72,3.65,0.81,6.36
		c-0.37,0.37-0.94,0.87-1.25,1.09c-0.94,0.09-2.53-0.19-3.18-0.38c-0.5-0.12-0.28,0.12-0.16,0.22v0.03c0.53,0.44,1.47,1,2.31,1.12
		c1.93,0.34,5.11-0.25,6.24-1.43c0.25-0.28,0.78-0.97,0.72-1.65c-0.09-1-1.4-1.12-2.03-1c-0.9,0.22-1.65,1.15-2.46,1.84
		c0.09-0.31,0.22-0.81,0.19-1.18c-0.09-1.9-0.5-3.02-0.69-4.68c0.09-0.16,0.37-0.62,0.44-0.75c0.06-0.22-0.56-0.59-0.75-1.06
		C171.69,177.64,171.63,177.64,171.57,177.74z M194.02,177.61l-0.12,0.87c-0.03,0.25-0.03,0.28,0,0.47
		c0.09,0.59,0.22,1.15,0.34,1.71c0.25,1.28,0.5,2.46,0.75,3.65c0.19,0.93,0.31,1.9,0.37,2.74c0,0.16,0.09,0.16,0.12,0.03
		c0.12-0.47,0.16-0.97,0.16-1.5c0-0.5-0.19-1.53-0.34-2.34c-0.19-1.03-0.44-2.12-0.62-3.06c-0.19-0.87-0.38-1.75-0.47-2.59
		c0-0.09-0.06-0.12-0.09-0.12l-0.03-0.03C194.05,177.46,194.02,177.52,194.02,177.61z M189.96,184.81v0.03v0.03
		c-0.59,1-2.53,1.62-4.02,1.62h-0.19l0.06-0.06c0.19-0.16,0.38-0.34,0.56-0.53c0.5-0.5,1-0.88,1.46-1.16
		C189.01,184.19,189.75,184.46,189.96,184.81z M191.46,177.39c-0.16,0.19-0.38,0.53-0.47,0.75c-0.03,0.06-0.03,0.12,0,0.19
		c0.09,0.19,0.25,0.47,0.34,0.62l0.03,0.09c0.34,2.52,1.09,5.95,1.12,6.14c-0.59,0.66-2.37,1.06-2.9,1.15l-0.09,0.03l0.09-0.09
		c0.41-0.41,0.84-1.25,0.84-1.87c0-0.59-0.69-0.9-1.31-0.9c-0.37,0-0.78,0.09-1.06,0.31c-0.41,0.28-0.81,0.72-1.25,1.18
		c-0.53,0.56-1.12,1.09-1.65,1.5c-0.44-0.06-1.22-0.47-1.75-0.81l-0.03-0.03v-0.03c0.09-0.16,0.09-0.59,0.06-0.81
		c-0.03-0.09-0.06-0.09-0.06-0.09c-0.03,0-0.06,0.03-0.12,0.06c-0.72,0.4-2.62,0.97-3.27,1.12c-0.06,0-0.09,0-0.12,0.09
		c-0.06,0.19-0.12,0.56-0.12,0.81v0.03h0.06c0.12,0,0.25-0.03,0.37-0.03h0.06l-0.03,0.06c-0.84,1.78-2.15,2.71-3.74,2.71
		c-0.72,0-1.53-0.22-2.34-0.59c-0.06-0.03-0.12-0.06-0.19-0.06s-0.09,0-0.09,0.03c0,0,0,0.09,0.22,0.25
		c0.5,0.37,2.03,1.05,3.21,1.09c0.41,0.01,2.85-0.22,3.27-3.43c0.53-0.16,1.81-0.56,2.43-0.84l0.03-0.03v0.03
		c0.09,0.34,0.66,0.93,1.06,1.25h0.03l-0.06,0.16c-0.12,0.44-0.28,0.9-0.31,1.31c0,0.09,0,0.19,0.06,0.25c0,0,0.06-0.03,0.12-0.19
		c0.06-0.19,0.09-0.34,0.16-0.53c0.09-0.31,0.19-0.62,0.31-0.9v-0.03h0.03c0.47,0.12,1.12,0.22,1.9,0.22c2.24,0,4.89-0.59,5.83-1.31
		c0.65-0.53,0.69-1.34,0.65-1.87c-0.06-0.84-0.28-1.9-0.5-2.9c-0.16-0.81-0.31-1.56-0.41-2.25l0.09-0.09
		c0.16-0.19,0.37-0.41,0.41-0.59c0.03-0.06-0.06-0.16-0.19-0.28c-0.19-0.16-0.44-0.41-0.59-0.84c-0.03-0.06-0.03-0.09-0.06-0.09
		C191.52,177.33,191.49,177.33,191.46,177.39z M195.23,175.37c0.06,0.06,0.12,0.16,0.12,0.25c-0.09,0.22-0.75,0.47-1,0.53
		c-0.03,0.03-0.31,0.06-0.28,0v-0.03c0.12-0.22,0.28-0.5,0.5-0.69C194.8,175.24,195.01,175.18,195.23,175.37z M194.58,174.96
		c-0.28,0.28-0.66,0.84-0.84,1.18c-0.12,0-0.34-0.12-0.47-0.19c-0.16-0.09-0.25,0.06-0.31,0.19c-0.12,0.22-0.25,0.47-0.34,0.72
		l-0.09,0.25c0,0.12,0.03,0.16,0.12,0.06v-0.03c0.16-0.19,0.28-0.66,0.41-0.59c0.59,0.34,1.37,0.22,1.93-0.19
		c0.44-0.31,0.78-0.81,0.65-1.34c-0.03-0.19-0.25-0.37-0.47-0.37C194.95,174.65,194.73,174.81,194.58,174.96z M138.36,190.48
		c-0.03,0.03-0.06,0.03-0.09,0.09c-0.03,0.09-0.09,0.34-0.16,0.47c0,0.06,0.03,0.06,0.09,0.03c0.09-0.03,0.22-0.09,0.31-0.16
		l0.03,0.03c0.53-0.22,2.46-1.03,3.12-1.28c0.03-0.03,0.09-0.03,0.09-0.09c0.03-0.09,0.09-0.31,0.12-0.44c0-0.06,0-0.06-0.06-0.06
		C141.07,189.39,139.01,190.23,138.36,190.48z M134.68,189.08c-0.12,0.22-0.28,0.5-0.44,0.72c-0.22-0.16-0.5-0.31-0.69-0.44
		c-0.12-0.06-0.16-0.06-0.22,0.03l-0.03-0.03c-0.12,0.19-0.28,0.44-0.4,0.65c-0.03,0.09-0.03,0.16,0.09,0.22
		c0.19,0.12,0.53,0.31,0.72,0.41c0.06,0.03,0.12,0,0.16-0.06c0.12-0.13,0.25-0.34,0.41-0.62c0.28,0.19,0.53,0.31,0.75,0.44
		c0.06,0.03,0.12,0.03,0.16-0.03c0.12-0.16,0.31-0.47,0.4-0.62c0.06-0.12,0.03-0.16-0.06-0.22c-0.12-0.09-0.5-0.31-0.68-0.44
		C134.74,189.02,134.71,189.02,134.68,189.08z M145.31,181.41c-0.12,0.22-0.28,0.5-0.44,0.72c-0.22-0.16-0.5-0.31-0.69-0.44
		c-0.12-0.06-0.16-0.06-0.22,0.03l-0.03-0.03c-0.12,0.19-0.28,0.44-0.41,0.66c-0.03,0.09-0.03,0.16,0.09,0.22
		c0.19,0.12,0.53,0.31,0.72,0.41c0.06,0.03,0.09,0,0.16-0.06c0.12-0.12,0.25-0.34,0.4-0.62c0.28,0.19,0.53,0.31,0.75,0.44
		c0.06,0.03,0.09,0.03,0.16-0.03c0.12-0.16,0.31-0.47,0.41-0.62c0.06-0.12,0.03-0.16-0.06-0.22c-0.12-0.09-0.5-0.31-0.69-0.44
		C145.37,181.35,145.34,181.35,145.31,181.41z M132.1,180.93c-0.75,0.31-2.43,1-3.09,1.25c-0.03,0.03-0.06,0.03-0.09,0.09
		c-0.03,0.09-0.09,0.34-0.16,0.47c0,0.06,0.03,0.06,0.09,0.03c0.09-0.03,0.22-0.09,0.31-0.16l0.03,0.03
		c0.5-0.22,2.09-0.87,2.74-1.12c0.03-0.03,0.09-0.03,0.09-0.09c0.03-0.09,0.09-0.31,0.12-0.44
		C132.17,180.93,132.17,180.93,132.1,180.93z M151.92,181.16c-0.03,0.06-0.06,0.16-0.09,0.22c-0.03,0.09,0.03,0.19,0.09,0.09
		c0.06-0.12,0.16-0.22,0.25-0.28c0.25-0.16,0.5-0.22,0.78-0.19c0.25,0.03,0.72,0.19,0.72,0.22c0,0.06-1.09,0.59-1.25,0.69
		c-0.09,0.06-0.16,0.12-0.16,0.22c0.03,0.09,0.12,0.09,0.22,0.06l-0.03-0.03c0.41-0.16,0.56-0.12,0.9-0.28
		c0.47-0.19,0.59-0.44,0.69-0.47c0.03,0,0.09,0,0.12-0.03c0.12-0.12,0.25-0.44,0.25-0.56c0-0.06-0.31-0.09-0.41-0.12
		c-0.28-0.06-0.59-0.22-0.9-0.25C152.64,180.41,152.17,180.63,151.92,181.16z M140.42,180.45c-0.12,0.22-0.28,0.5-0.44,0.72
		c-0.22-0.16-0.5-0.31-0.69-0.44c-0.12-0.06-0.16-0.06-0.22,0.03l-0.03-0.03c-0.12,0.19-0.28,0.44-0.4,0.65
		c-0.03,0.09-0.03,0.16,0.09,0.22c0.19,0.12,0.53,0.31,0.72,0.41c0.06,0.03,0.09,0,0.16-0.06c0.12-0.12,0.25-0.34,0.41-0.62
		c0.28,0.19,0.53,0.31,0.75,0.44c0.06,0.03,0.09,0.03,0.16-0.03c0.12-0.16,0.31-0.47,0.4-0.62c0.06-0.12,0.03-0.16-0.06-0.22
		c-0.12-0.09-0.5-0.31-0.69-0.44C140.48,180.38,140.45,180.38,140.42,180.45z M158.13,179.1c0.09,0.1,0.21,0.3,0.23,0.65
		c0,0.1-0.02,0.24-0.02,0.25c-0.01,0.01-0.19-0.07-0.22-0.09c-0.07-0.03-0.25-0.1-0.58-0.23c-0.13-0.02,0-0.23,0-0.23
		c0.05-0.09,0.13-0.21,0.22-0.3l0.12-0.08C157.95,179.05,158.07,179.02,158.13,179.1z M158.05,178.49
		c-0.37,0.06-0.81,0.58-0.99,1.18c-0.08,0.27-0.03,0.42,0.12,0.51c0.21,0.13,0.52,0.24,0.88,0.33c-0.42,0.71-1.78,1.62-2.03,1.76
		c-0.3,0.17-0.24,0.36,0.12,0.19c1.37-0.62,2.04-1.27,2.35-1.85c0.09,0.02,0.17,0.05,0.27,0.07c0.16,0.04,0.13,0.06,0.21-0.2
		c0.04-0.12,0.07-0.21,0.08-0.27l-0.41-0.14l0.04-0.14c0.05-0.47-0.07-0.86-0.11-0.98C158.46,178.58,158.28,178.45,158.05,178.49z
		 M164.14,178.76c-0.12,0.69,0.19,1.37,0.28,2.06c0.06,0.47,0.16,0.9,0.25,1.37c0.19,0.87,0.34,1.75,0.5,2.62
		c0.09,0.62,0.12,1.25,0.25,1.87c0.06,0.25,0.22-0.31,0.22-0.37c0.09-0.41,0.09-0.84,0.06-1.25h0.03c-0.06-1.43-0.47-2.81-0.75-4.18
		c-0.09-0.37-0.19-0.78-0.22-1.15c-0.03-0.37-0.19-0.69-0.22-1.06c0-0.12,0-0.72-0.16-0.75
		C164.17,177.92,164.17,178.61,164.14,178.76z M142.75,179.42c-0.06,0-0.06,0.03-0.09,0.09c-0.03,0.06-0.09,0.34-0.12,0.47
		c-0.03,0.06,0.03,0.06,0.06,0.03c0.09-0.03,0.22-0.12,0.31-0.16h0.03c0.53-0.22,2.93-1.12,3.59-1.37c0.03-0.03,0.06-0.03,0.09-0.09
		c0.03-0.09,0.09-0.31,0.12-0.44c0-0.06,0-0.06-0.06-0.06C145.93,178.2,143.41,179.14,142.75,179.42z M131.16,186.28
		c0.44,0,0.87,0.37,1.15,1.03l0.03,0.03h-0.06h-0.22c-0.62,0-1.43-0.19-1.68-0.59v-0.03v-0.03c0.22-0.31,0.47-0.47,0.75-0.47
		L131.16,186.28z M158.62,185.31c0.09,0.19,0.16,0.41,0.28,0.53l0.06,0.06h-0.06h-0.06c-0.44,0-1.03-0.28-1.31-0.5
		c0.03-0.34,0.44-0.69,0.65-0.69h0.06C158.4,184.81,158.53,185.06,158.62,185.31z M140.51,184.25h0.09c0.22,0.06,0.5,0.44,0.62,0.97
		c-0.22,0.37-0.62,0.72-1.15,0.87c-0.34-0.12-0.59-0.41-0.75-0.65c0.28-0.62,0.84-1.22,1.18-1.22V184.25z M161.21,177.33
		c-0.16,0.28-0.31,0.56-0.34,0.75c-0.03,0.06-0.03,0.12,0,0.19c0.03,0.12,0.09,0.28,0.19,0.41c0.06,0.12,0.12,0.25,0.19,0.37
		c0.09,1.15,0.34,2.24,0.62,3.33c0.25,0.94,0.47,1.84,0.56,2.78c-0.28,0.37-0.94,0.5-1.43,0.5c-0.34,0-0.65-0.06-0.9-0.16
		c-0.66-0.28-0.97-0.75-1.25-1.09c-0.06-0.09-0.09-0.16-0.16-0.22c-0.09-0.12-0.19-0.19-0.28-0.19c-0.06,0-0.09,0.03-0.16,0.06
		c-0.37,0.28-0.66,0.72-0.94,1.12c-0.25,0.38-0.5,0.72-0.78,0.94c-0.16,0.12-0.34,0.19-0.53,0.19c-0.31,0-0.62-0.12-0.9-0.28h-0.03
		v-0.03c0.06-0.19,0.16-0.56,0.16-0.78c0-0.06-0.06-0.12-0.09-0.12c0,0-0.03,0-0.03,0.03c-0.22,0.62-0.47,1.25-0.78,1.65h-0.09
		c-0.28,0-0.62-0.16-0.94-0.34l-0.03-0.03v-0.03c0.12-0.22,0.28-0.62,0.34-0.94c0-0.09,0-0.19-0.06-0.22
		c-0.03,0-0.06,0.03-0.09,0.09l-0.03,0.03c-0.19,0.34-0.41,0.75-0.72,1c-0.47,0.37-1.18,0.44-1.71,0.44h-0.22l0.03-0.06
		c0.19-0.28,0.37-0.84,0.37-1.34c0-0.03,0-0.06-0.03-0.06c-0.03,0-0.06,0-0.06,0.03c-0.25,0.87-1.15,1.15-1.96,1.34
		c-0.34,0.09-0.72,0.12-1.09,0.12c-1.25,0-2.37-0.44-2.81-1.06c-0.09-0.12-0.16-0.19-0.25-0.19c-0.06,0-0.12,0.06-0.19,0.12
		c-0.59,0.66-1.4,1-2.34,1c-0.47,0-0.97-0.06-1.4-0.25l-0.06-0.03l0.03-0.03c0.65-0.59,0.81-2.15,0.06-3.06
		c-0.16-0.19-0.28-0.25-0.41-0.25c-0.09,0-0.16,0.03-0.25,0.09c-1.03,0.69-1.68,2.12-1.4,3.18v0.03h-0.03
		c-0.47,0.19-1.06,0.28-1.71,0.28c-0.81,0-1.56-0.16-2-0.41c-1.06-0.56-1.37-1.9-1.56-2.62c-0.03-0.09-0.03-0.19-0.06-0.25
		c0-0.06-0.06-0.22-0.06-0.22c-0.03,0.09-0.12,0.34-0.16,1.06c-0.06,0.44-0.41,0.87-0.87,1.12c-0.25,0.12-0.47,0.16-0.62,0.16h-0.25
		h-0.25c-0.12,0-0.31,0-0.5,0.09c-0.37,0.19-0.84,0.59-0.87,1.18c0,0.34,0.09,0.78,0.25,1.06c-0.53,0.87-2.68,2-3.34,2.31
		c-0.28,0.12-0.28,0.19-0.28,0.19s0,0.03,0.09,0.03c0.06,0,0.16,0,0.28-0.03c0,0,2.83-0.38,3.65-2.37v-0.03l0.03,0.03
		c0.25,0.16,0.97,0.25,1.53,0.25c0.12,0,0.28-0.03,0.37-0.03c0.09,0,0.13-0.03,0.16-0.09c0.34-0.53,0-1.59-0.25-1.87l-0.03-0.03
		l0.03-0.03c0.62-0.25,0.9-0.75,1.06-1.15l0.03-0.09l0.06,0.25c0.16,0.56,0.34,1.12,0.75,1.56c0.62,0.62,1.53,0.94,2.62,0.94
		c0.94,0,2.03-0.22,2.93-0.62c0.65,0.41,1.5,0.62,2.31,0.62c1.03,0,1.9-0.37,2.4-1c0.09-0.12,0.16-0.16,0.22-0.16
		c0.06,0,0.16,0.06,0.22,0.19c0.5,0.94,1.84,1.09,2.62,1.09c0.84,0,1.75-0.16,2.25-0.41c0.25,0.19,0.65,0.28,1.09,0.28
		c0.65,0,1.31-0.22,1.62-0.5l0.03-0.03l0.03,0.03c0.19,0.22,0.78,0.53,1.25,0.56h0.03c0.06,0,0.09,0,0.12-0.03
		c0.12-0.16,0.47-0.72,0.62-1.09v-0.03l0.03,0.03c0.19,0.12,0.84,0.56,1.31,0.56c0.34-0.06,0.78-0.62,1.06-1l0.03-0.03l0.03,0.06
		c0.28,0.56,1.34,0.78,1.96,0.78h0.25c0.12-0.03,0.16-0.28,0.19-0.5v-0.06l0.06,0.03c0.22,0.12,0.59,0.22,1.06,0.22
		c0.62,0,1.37-0.16,1.65-0.5c0.25-0.31,0.34-1,0.28-1.87c-0.03-0.72-0.37-2.18-0.69-3.49c-0.16-0.56-0.28-1.12-0.37-1.62l0.09-0.16
		c0.09-0.22,0.25-0.47,0.28-0.59c0.03-0.09-0.06-0.19-0.19-0.31c-0.16-0.16-0.37-0.38-0.47-0.72c-0.03-0.12-0.06-0.16-0.09-0.16
		C161.3,177.23,161.24,177.23,161.21,177.33z M159.81,175.95c-0.03,0.06-0.06,0.16-0.09,0.22c-0.03,0.09,0.03,0.19,0.09,0.09
		c0.06-0.12,0.16-0.22,0.25-0.28c0.25-0.16,0.5-0.22,0.78-0.19c0.25,0.03,0.72,0.19,0.72,0.22c0,0.03-1.09,0.59-1.25,0.69
		c-0.09,0.06-0.19,0.12-0.16,0.22c0.03,0.09,0.12,0.09,0.22,0.06c0.41-0.16,0.56-0.12,0.9-0.28l-0.03-0.03
		c0.47-0.19,0.59-0.44,0.69-0.47c0.03,0,0.09,0,0.12-0.03c0.12-0.12,0.25-0.44,0.25-0.56c0-0.06-0.31-0.09-0.4-0.12
		c-0.28-0.06-0.59-0.22-0.9-0.25C160.52,175.2,160.06,175.42,159.81,175.95z M165.83,175.52c0.06,0.06,0.12,0.16,0.12,0.25
		c-0.09,0.22-0.75,0.47-1,0.53c-0.03,0.03-0.31,0.06-0.28,0l-0.03-0.03c0.16-0.25,0.31-0.5,0.53-0.69
		C165.39,175.39,165.61,175.33,165.83,175.52z M165.17,175.11c-0.28,0.28-0.65,0.84-0.84,1.18c-0.09,0-0.34-0.12-0.47-0.19
		c-0.12-0.09-0.25,0.06-0.31,0.19c-0.12,0.22-0.25,0.47-0.34,0.72l-0.09,0.25c0,0.12,0.03,0.16,0.12,0.06v-0.03
		c0.16-0.19,0.31-0.66,0.41-0.59c0.59,0.34,1.37,0.22,1.93-0.19c0.44-0.31,0.78-0.81,0.65-1.34c-0.03-0.19-0.25-0.37-0.47-0.37
		C165.55,174.8,165.33,174.95,165.17,175.11z"/>
</g>
</svg>
