<?xml version="1.0" encoding="iso-8859-1"?>
<!-- Generator: Adobe Illustrator 25.2.1, SVG Export Plug-In . SVG Version: 6.00 Build 0)  -->
<svg version="1.1" xmlns="http://www.w3.org/2000/svg" xmlns:xlink="http://www.w3.org/1999/xlink" x="0px" y="0px"
	 viewBox="0 0 240.74 323.95" enable-background="new 0 0 240.74 323.95" xml:space="preserve">
<g id="Ornaments">
</g>
<g id="Aya_No.">
</g>
<g id="Quran_Text">
	<path fill-rule="evenodd" clip-rule="evenodd" d="M109.46,189.89c-0.03,0.03-0.06,0.03-0.09,0.09c-0.03,0.09-0.09,0.34-0.16,0.47
		c0,0.06,0.03,0.06,0.09,0.03c0.09-0.03,0.22-0.09,0.31-0.16c0.5-0.22,2.93-1.12,3.58-1.37h0.03c0.03-0.03,0.09-0.03,0.09-0.09
		c0.03-0.09,0.09-0.31,0.13-0.44c0-0.06,0-0.06-0.06-0.06C112.64,188.68,110.11,189.61,109.46,189.89z M113.45,185.18
		c-0.56,0.94-2.43,1.53-3.87,1.5c0.56-0.56,1.28-1.37,1.87-1.71h0.03C112.08,184.62,113.08,184.72,113.45,185.18z M111.67,184.12
		c-0.81,0.59-1.75,1.87-2.71,2.49c-0.41-0.09-0.84-0.25-1.34-0.56c0.06-0.25,0.09-0.81,0-0.75c-0.87,0.53-2.46,0.97-2.9,1.12
		c-0.09,0.03-0.12,0.59-0.09,0.81c0,0.06,0,0.06,0.09,0.06c0.09,0,0.16,0,0.25-0.03c-0.62,2.37-2.84,3.52-5.3,2.46
		c-0.19-0.06-0.53,0.03-0.12,0.28c0.87,0.53,2.12,1,3.27,0.78c1.15-0.25,2.24-1.06,2.53-3.59c0.69-0.19,1.37-0.44,2-0.75
		c0.09,0.34,0.22,0.59,0.62,0.87c-0.16,0.47-0.31,0.97-0.34,1.37c-0.03,0.22,0.06,0.47,0.22,0.09c0.16-0.41,0.25-0.9,0.44-1.34
		c0.41,0.09,0.78,0.19,1.4,0.19l0.03,0.03c1.12-0.03,2.53-0.28,3.46-1.22c0.41-0.4,0.81-1.18,0.81-1.78
		C113.98,183.84,112.55,183.5,111.67,184.12z M101.79,182.1c-0.06,0.12-0.19,0.44-0.19,0.53c0,0.03,0.12,0.19,0.28,0.41
		c0.47,0.69,0.75,1.43,0.59,2.46c-0.03,0.06-0.03,0.16,0,0.16v0.03c0.22,0,0.34-0.78,0.34-1.19c0-0.97-0.41-1.75-0.9-2.37
		C101.89,182.03,101.82,182.03,101.79,182.1z M103.41,181.54c-0.03,0.03-0.06,0.03-0.09,0.09c-0.03,0.09-0.09,0.34-0.16,0.47
		c0,0.06,0.03,0.06,0.09,0.03c0.09-0.03,0.22-0.09,0.31-0.16l0.03,0.03c0.5-0.22,2.09-0.87,2.74-1.12c0.03-0.03,0.09-0.03,0.09-0.09
		c0.03-0.09,0.09-0.31,0.12-0.44c0-0.06,0-0.06-0.06-0.06C105.75,180.6,104.07,181.29,103.41,181.54z M97.36,180.76
		c-0.03,0.03-0.06,0.03-0.09,0.09c-0.03,0.06-0.09,0.34-0.16,0.47c0,0.06,0.03,0.06,0.09,0.03c0.09-0.03,0.22-0.09,0.31-0.16h0.03
		c0.53-0.22,2.46-1.03,3.12-1.28c0.03-0.03,0.09-0.03,0.09-0.09c0.03-0.09,0.09-0.31,0.12-0.44c0-0.06,0-0.06-0.06-0.06
		C100.07,179.63,98.02,180.48,97.36,180.76z M100.51,185.56c-0.62,0.87-3.52,1.62-4.65,1.53c0.75-0.56,1.81-1.75,2.62-2.03
		C99.08,184.84,100.17,185.09,100.51,185.56z M95.59,178.11c-0.09,0.16-0.31,0.5-0.38,0.72c-0.03,0.06-0.03,0.12,0,0.16
		c0.09,0.22,0.25,0.44,0.38,0.62c0.19,2.4,0.72,3.65,0.81,6.39c-0.37,0.38-0.94,0.87-1.25,1.09c-0.93,0.09-2.53-0.19-3.15-0.37
		c-0.5-0.12-0.28,0.12-0.16,0.22l-0.03,0.03c0.53,0.44,1.47,1,2.31,1.12c1.93,0.34,5.11-0.25,6.23-1.43
		c0.25-0.28,0.78-0.97,0.72-1.68c-0.09-1-1.4-1.12-2.03-1c-0.9,0.22-1.65,1.15-2.46,1.84c0.12-0.31,0.22-0.81,0.19-1.18
		c-0.09-1.9-0.5-3.02-0.69-4.68c0.09-0.16,0.37-0.62,0.44-0.75c0.06-0.22-0.56-0.59-0.75-1.06
		C95.71,178.01,95.65,178.01,95.59,178.11z M84.83,189.08c-0.75,0.31-2.43,0.97-3.09,1.25c-0.03,0.03-0.06,0.03-0.09,0.09
		c-0.03,0.09-0.09,0.34-0.16,0.47c0,0.06,0.03,0.06,0.09,0.03c0.09-0.03,0.22-0.09,0.31-0.16l0.03,0.03
		c0.53-0.22,2.09-0.87,2.74-1.12c0.03-0.03,0.09-0.03,0.09-0.09c0.03-0.09,0.09-0.31,0.12-0.44
		C84.9,189.08,84.9,189.08,84.83,189.08z M79.94,188.64c-0.12,0.22-0.28,0.5-0.44,0.72c-0.22-0.16-0.5-0.31-0.69-0.44
		c-0.12-0.06-0.16-0.06-0.22,0.03l-0.03-0.03c-0.12,0.19-0.28,0.44-0.41,0.66c-0.03,0.09-0.03,0.16,0.09,0.22
		c0.19,0.12,0.53,0.31,0.72,0.41c0.06,0.03,0.09,0,0.16-0.06c0.12-0.12,0.25-0.34,0.41-0.62c0.28,0.19,0.53,0.31,0.75,0.44
		c0.06,0.03,0.09,0.03,0.16-0.03c0.12-0.16,0.31-0.47,0.41-0.62c0.06-0.12,0.03-0.16-0.06-0.22c-0.12-0.09-0.5-0.31-0.69-0.44
		C80,188.58,79.97,188.58,79.94,188.64z M79.28,183.28c0.18,0.27,0.39,0.61,0.49,1c-0.41,0.28-1.3,0.43-1.8,0.34
		c-0.12-0.03-0.22-0.06-0.28-0.19c-0.16-0.25-0.25-0.5-0.41-0.72c-0.16-0.25-0.22,0.53-0.19,0.97c0.31,0.72,0.69,1.22,0.69,2.43
		c-0.72,1.62-3.24,2.06-4.21,1.31c-1.09-0.78-0.56-2.31-0.41-2.9c0.06-0.19-0.06-0.47-0.22-0.09c-0.37,0.9-0.9,3.05,0.37,3.99
		c1.09,0.78,3.18,0.75,4.43-1.06c0.34-0.53,0.47-1.18,0.37-2.59c0.69,0,1.56-0.19,1.87-0.59c0.09-0.16,0.16-0.78,0.16-1.06
		c-0.03-0.78-0.31-1.5-0.72-1.93C79.28,182,79.22,182.94,79.28,183.28z M75.01,182.16c-0.12,0.19-0.28,0.47-0.37,0.65l0.03,0.03
		c-0.06,0.06-0.06,0.12,0.03,0.16c0.16,0.09,0.44,0.25,0.62,0.34c0.06,0.03,0.12,0.03,0.16-0.03c0.12-0.19,0.28-0.44,0.37-0.62
		c0.06-0.06,0.06-0.12,0-0.16c-0.19-0.12-0.5-0.28-0.69-0.41C75.08,182.1,75.04,182.1,75.01,182.16z M82.59,179.95
		c-0.12,0.19-0.28,0.47-0.37,0.66l0.03,0.03c-0.06,0.06-0.06,0.12,0.03,0.16c0.16,0.09,0.44,0.25,0.62,0.34
		c0.06,0.03,0.12,0.03,0.16-0.03c0.12-0.19,0.28-0.44,0.37-0.62c0.06-0.06,0.06-0.12,0-0.16c-0.19-0.12-0.5-0.31-0.69-0.41
		C82.65,179.88,82.62,179.88,82.59,179.95z M73.17,179.79c-0.03,0.03-0.06,0.03-0.09,0.09c-0.03,0.06-0.09,0.34-0.16,0.47
		c0,0.06,0.03,0.06,0.09,0.03c0.09-0.03,0.22-0.09,0.31-0.16l0.03,0.03c0.53-0.22,2.46-1.03,3.12-1.28
		c0.03-0.03,0.09-0.03,0.09-0.09c0.03-0.09,0.09-0.31,0.12-0.44c0-0.06,0-0.06-0.06-0.06C75.89,178.7,73.83,179.54,73.17,179.79z
		 M85.36,178.23c-0.16,0.25-0.31,0.56-0.41,0.78c-0.06,0.09-0.06,0.16,0,0.25c0.12,0.22,0.31,0.37,0.41,0.53h0.03
		c0.16,2.49,0.97,4.74,1.43,7.08c-0.19,0.47-0.84,0.44-1.37,0.03c-1.06-0.84-1.15-3.27-1.62-4.55c-0.06-0.16-0.12-0.16-0.16-0.03
		c-0.06,0.19-0.09,0.78-0.06,1.09c0.06,0.59,0.31,1.18,0.4,1.81c-0.28,0.94-2.46,1.22-2.96,1c-0.16-0.09-0.19-0.41-0.28-0.09
		c-0.16,0.53-0.16,1.03,0.16,1.18c0.44,0.25,1.96,0,2.81-0.59c0.25-0.19,0.41-0.47,0.47-0.78c0.22,1.12,0.72,1.81,1.22,2.12
		c0.34,0.22,1.06,0.41,1.43,0c0.31-0.34,0.31-0.87,0.31-1.31c-0.03-1.5-0.84-4.24-1.28-6.73c0.16-0.25,0.31-0.56,0.37-0.72
		c0.06-0.19-0.47-0.5-0.72-0.97C85.46,178.14,85.43,178.17,85.36,178.23z M88.29,178.04c-0.03,0-0.06,0.06-0.06,0.16l-0.16,0.87
		c-0.03,0.25-0.03,0.28,0,0.47c0.09,0.56,0.25,1.15,0.37,1.71c0.25,1.25,0.5,2.46,0.72,3.62c0.19,0.94,0.31,1.9,0.37,2.74
		c0,0.16,0.09,0.16,0.12,0c0.12-0.47,0.19-0.97,0.16-1.5c0-0.5-0.19-1.53-0.34-2.34c-0.19-1.03-0.44-2.12-0.62-3.06
		c-0.19-0.87-0.37-1.75-0.47-2.59c0-0.09-0.06-0.12-0.09-0.12V178.04z M86.12,175.82l-0.18,0.35c-0.02,0.04-0.04,0.07-0.02,0.11
		c0.05,0.14,0.1,0.3,0.09,0.39c-0.22,0.21-0.45,0.25-0.62,0.1c-0.11-0.09-0.15-0.26-0.14-0.48c0.01-0.16,0.03-0.22-0.11-0.11
		c-0.18,0.15-0.13,0.13-0.14,0.22c-0.07,0.52-0.29,0.76-0.69,0.78c-0.25,0.02-0.44-0.16-0.26-0.66c0.04-0.11-0.04-0.22-0.15,0
		c-0.38,0.75-0.15,1.17,0.24,1.23c0.31,0.05,0.69-0.13,0.88-0.61c0.15,0.24,0.44,0.31,0.71,0.24c0.34-0.09,0.42-0.25,0.51-0.53
		c0.09-0.27,0.1-0.62-0.03-1.05C86.17,175.75,86.13,175.79,86.12,175.82z M89.76,175.77c0.06,0.06,0.12,0.16,0.12,0.25
		c-0.09,0.22-0.75,0.47-1,0.53c-0.03,0.03-0.31,0.06-0.28,0l-0.03-0.03c0.16-0.25,0.31-0.5,0.53-0.69
		C89.32,175.65,89.54,175.59,89.76,175.77z M89.1,175.37c-0.28,0.28-0.65,0.84-0.84,1.18c-0.12,0-0.34-0.12-0.47-0.19
		c-0.16-0.09-0.25,0.06-0.31,0.19c-0.12,0.22-0.25,0.47-0.34,0.72l-0.09,0.25c0,0.12,0.03,0.16,0.12,0.06v-0.03
		c0.16-0.19,0.31-0.66,0.41-0.59c0.59,0.34,1.37,0.22,1.93-0.19c0.44-0.31,0.78-0.81,0.65-1.34c-0.03-0.19-0.25-0.37-0.47-0.37
		C89.48,175.06,89.26,175.21,89.1,175.37z M86.95,173.65c-0.75,0.31-3.27,1.25-3.93,1.53c-0.03,0.03-0.06,0.03-0.09,0.09
		c-0.03,0.06-0.09,0.34-0.16,0.47c0,0.06,0.03,0.06,0.09,0.03c0.09-0.03,0.22-0.09,0.31-0.16c0.5-0.22,2.93-1.12,3.58-1.37h0.03
		c0.03-0.03,0.09-0.03,0.09-0.09c0.03-0.09,0.09-0.31,0.12-0.44C87.05,173.65,87.02,173.65,86.95,173.65z M57.43,185.96
		c0.06,0.12,0.12,0.31,0.22,0.5l0.03,0.06h-0.06c-0.22-0.03-1.25-0.28-1.28-0.59c0-0.28,0.47-0.59,0.69-0.59
		C57.22,185.37,57.28,185.59,57.43,185.96z M66.91,183.88c0.34,0.41,0.75,1,1,1.81c-0.12,0.34-0.72,0.59-1.34,0.59
		c-0.34,0-0.66-0.06-0.94-0.19l-0.03-0.03l0.03-0.03c0.34-0.41,0.53-0.75,0.5-1.03c-0.03-0.16-0.09-0.28-0.22-0.41
		c-0.28-0.25-0.81-0.41-1.37-0.41c-0.37,0-0.72,0.06-0.97,0.19c-0.44,0.22-0.56,0.53-0.69,1c-0.03,0.12-0.03,0.16,0,0.19
		c0.03,0,0.09-0.03,0.19-0.06c0.12-0.03,0.28-0.06,0.44-0.06c0.37,0,0.75,0.16,0.9,0.34l0.03,0.03l-0.03,0.03
		c-0.75,0.37-2.12,0.78-3.49,0.78c-0.84,0-1.59-0.16-2.15-0.47c-0.75-0.41-1.03-0.84-1.22-1.15c-0.06-0.06-0.09-0.12-0.12-0.19
		c-0.06-0.09-0.16-0.12-0.22-0.12c-0.09,0-0.19,0.06-0.31,0.19c-0.22,0.19-0.44,0.41-0.65,0.62c-0.44,0.47-0.84,0.91-1.22,1
		c-0.12,0.03-0.25,0.06-0.37,0.06c-0.47,0-0.81-0.25-1.03-0.47l-0.03-0.03l0.03-0.03c0.19-0.28,0.28-0.65,0.28-0.9
		c0-0.09-0.03-0.12-0.06-0.16l-0.06,0.06c-0.44,0.56-0.72,0.81-1.31,1.09c-0.9,0.41-2.65,0.84-4.15,0.84
		c-0.47,0-0.87-0.03-1.25-0.12c-0.75-0.19-1.28-0.56-1.53-1.12c-0.19-0.47-0.16-1,0.12-1.46c0.06-0.12,0.06-0.22,0.03-0.25
		c-0.03,0-0.12,0.06-0.22,0.19c-0.37,0.5-0.72,1.34-0.5,2.15c0.16,0.62,0.62,1.12,1.34,1.4c0.44,0.16,1.06,0.25,1.78,0.25
		c1.69,0,3.99-0.52,4.94-1.33l0.14-0.13l0.03,0.03c0.28,0.47,0.84,0.97,1.37,0.97h0.09c0.28-0.03,0.75-0.41,1.25-0.94l0.06-0.06
		v0.06c0.06,0.94,1.84,1.15,2.12,1.15c0.09,0,0.16-0.31,0.16-0.56v-0.06l0.06,0.03c0.66,0.34,1.43,0.53,2.37,0.53
		c1.4,0,3.02-0.44,4.15-1.12l0.03-0.03l0.03,0.03c0.41,0.5,0.94,0.75,1.56,0.75c0.44,0,0.87-0.12,1.18-0.37
		c0.69-0.5,0.65-1.59,0.41-2.46c-0.22-0.81-0.78-1.5-1-1.59C66.97,182.91,66.88,183.69,66.91,183.88z M50.29,182.47
		c-0.12,0.22-0.28,0.5-0.44,0.72c-0.22-0.16-0.5-0.31-0.69-0.44c-0.12-0.06-0.16-0.06-0.22,0.03l-0.03-0.03
		c-0.12,0.19-0.28,0.44-0.41,0.66c-0.03,0.09-0.03,0.16,0.09,0.22c0.19,0.12,0.53,0.31,0.72,0.41c0.06,0.03,0.12,0,0.16-0.06
		c0.12-0.12,0.25-0.34,0.4-0.62c0.28,0.19,0.53,0.31,0.75,0.44c0.06,0.03,0.12,0.03,0.16-0.03c0.12-0.16,0.31-0.47,0.41-0.62
		c0.06-0.12,0.03-0.16-0.06-0.22c-0.12-0.09-0.5-0.31-0.69-0.44C50.36,182.41,50.33,182.41,50.29,182.47z M64.35,180.63
		c-0.75,0.31-2.81,1.15-3.46,1.43c-0.03,0.03-0.06,0.03-0.09,0.09c-0.03,0.09-0.09,0.34-0.16,0.47c-0.03,0.06,0.03,0.06,0.09,0.03
		c0.09-0.03,0.22-0.09,0.31-0.16h0.03c0.53-0.22,2.46-1.03,3.12-1.28c0.03-0.03,0.09-0.03,0.09-0.09c0.03-0.09,0.09-0.31,0.12-0.44
		C64.42,180.63,64.39,180.63,64.35,180.63z M66.04,180.67l0.03,0.03c-0.12,0.19-0.28,0.47-0.37,0.66c-0.06,0.06-0.06,0.12,0.03,0.16
		c0.16,0.09,0.44,0.25,0.62,0.34c0.06,0.03,0.12,0.03,0.16-0.03c0.12-0.19,0.28-0.47,0.37-0.62c0.06-0.06,0.06-0.12,0-0.16
		c-0.19-0.12-0.5-0.28-0.69-0.4C66.1,180.6,66.07,180.6,66.04,180.67z M55.53,180.45c-0.03,0.06-0.06,0.16-0.09,0.22
		c-0.03,0.09,0.03,0.19,0.09,0.09c0.06-0.09,0.16-0.19,0.25-0.25c0.25-0.16,0.5-0.22,0.78-0.19c0.25,0.03,0.72,0.19,0.72,0.22
		c0,0.06-1.09,0.59-1.25,0.69c-0.09,0.06-0.19,0.12-0.16,0.22c0.03,0.09,0.12,0.09,0.22,0.06c0.41-0.16,0.56-0.12,0.9-0.28
		l-0.03-0.06c0.47-0.19,0.59-0.44,0.69-0.47c0.03,0,0.09,0,0.12-0.03c0.12-0.12,0.25-0.44,0.25-0.56c0-0.06-0.31-0.09-0.4-0.12
		c-0.28-0.06-0.59-0.22-0.9-0.25C56.25,179.7,55.78,179.92,55.53,180.45z M51.73,179.48c-0.75,0.31-3.27,1.25-3.93,1.53
		c-0.03,0.03-0.06,0.03-0.09,0.09c-0.03,0.09-0.09,0.34-0.16,0.47c0,0.06,0.03,0.06,0.09,0.03c0.09-0.03,0.22-0.09,0.31-0.16h0.03
		c0.5-0.22,2.93-1.12,3.58-1.37c0.03-0.03,0.09-0.03,0.09-0.09c0.03-0.09,0.09-0.31,0.12-0.44
		C51.79,179.48,51.76,179.48,51.73,179.48z M64.57,178.83c-0.03,0.06-0.06,0.16-0.09,0.22c-0.03,0.09,0.03,0.19,0.09,0.09
		c0.06-0.12,0.16-0.22,0.25-0.28c0.25-0.16,0.5-0.22,0.78-0.19c0.25,0.03,0.72,0.19,0.72,0.22c0,0.06-1.09,0.59-1.25,0.69
		c-0.09,0.06-0.16,0.12-0.16,0.22c0.03,0.09,0.12,0.09,0.22,0.06c0.41-0.16,0.56-0.12,0.9-0.28l-0.03-0.03
		c0.47-0.19,0.59-0.44,0.69-0.47c0.03,0,0.09,0,0.12-0.03c0.12-0.12,0.25-0.44,0.25-0.56c0-0.06-0.31-0.09-0.41-0.12
		c-0.28-0.06-0.59-0.22-0.9-0.25C65.29,178.08,64.82,178.3,64.57,178.83z M68.94,178.02l-0.12,0.87c-0.03,0.25-0.03,0.28,0,0.47
		c0.09,0.56,0.25,1.15,0.34,1.71c0.25,1.28,0.5,2.46,0.75,3.65c0.19,0.93,0.31,1.9,0.37,2.74c0,0.16,0.09,0.16,0.12,0.03
		c0.12-0.47,0.16-0.97,0.16-1.5c0-0.5-0.19-1.53-0.34-2.34c-0.19-1.03-0.44-2.12-0.62-3.05c-0.19-0.87-0.37-1.75-0.47-2.59
		c0-0.09-0.06-0.12-0.09-0.12L69,177.86C68.97,177.86,68.94,177.92,68.94,178.02z M67.66,176.15c-0.06,0.16-0.03,0.31,0.09,0.44
		c0.12,0.09,0.34,0.22,0.53,0.31c-0.09,0.03-0.28,0.12-0.41,0.22h0.06c-0.03,0.09-0.06,0.25-0.09,0.34c0,0.03,0.03,0.06,0.06,0.03
		c0.37-0.22,1.47-0.5,1.93-0.62c0.03,0,0.19-0.34,0.22-0.41c0.03-0.06,0-0.09-0.06-0.06c-0.28,0.06-0.53,0.12-0.87,0.12
		c-0.41,0-1.06-0.47-1.06-0.53c0-0.09,0.5-0.28,0.59-0.28c0.31,0.03,0.37,0.34,0.44,0.34c0.09,0,0.28-0.38,0.28-0.47
		c0-0.12-0.28-0.41-0.47-0.41C68.56,175.18,67.85,175.77,67.66,176.15z M66.41,174.78c-0.03,0.03-0.06,0.03-0.09,0.09
		c-0.03,0.06-0.09,0.34-0.16,0.47c0,0.06,0.03,0.06,0.09,0.03c0.09-0.03,0.22-0.09,0.31-0.16c0.5-0.22,2.93-1.12,3.58-1.37h0.03
		c0.03-0.03,0.09-0.03,0.09-0.09c0.03-0.09,0.09-0.31,0.12-0.44c0-0.06,0-0.06-0.06-0.06C69.59,173.56,67.07,174.5,66.41,174.78z
		 M165.58,214.21c-0.03,0.03-0.06,0.03-0.09,0.09c-0.03,0.06-0.09,0.34-0.16,0.47c0,0.06,0.03,0.06,0.09,0.03
		c0.09-0.03,0.22-0.09,0.31-0.16h0.03c0.5-0.22,2.09-0.87,2.74-1.12c0.03-0.03,0.09-0.03,0.09-0.09c0.03-0.09,0.09-0.31,0.12-0.44
		c0-0.06,0-0.06-0.06-0.06C167.92,213.24,166.24,213.93,165.58,214.21z M171.88,210.1c-0.12,0.22-0.28,0.5-0.44,0.72
		c-0.22-0.16-0.5-0.31-0.69-0.44c-0.12-0.06-0.16-0.06-0.22,0.03l-0.03-0.03c-0.12,0.19-0.28,0.44-0.41,0.65
		c-0.03,0.09-0.03,0.16,0.09,0.22c0.19,0.12,0.53,0.31,0.72,0.41c0.06,0.03,0.09,0,0.16-0.06c0.12-0.12,0.25-0.34,0.41-0.62
		c0.28,0.19,0.53,0.31,0.75,0.44c0.06,0.03,0.09,0.03,0.16-0.03c0.12-0.16,0.31-0.47,0.4-0.62c0.06-0.12,0.03-0.16-0.06-0.22
		c-0.12-0.09-0.5-0.31-0.69-0.44C171.94,210.04,171.91,210.04,171.88,210.1z M168.89,202.77c-0.03,0.06-0.06,0.16-0.09,0.22
		c-0.03,0.09,0.03,0.19,0.09,0.09c0.06-0.09,0.16-0.19,0.25-0.25c0.25-0.16,0.5-0.22,0.78-0.19c0.25,0.03,0.72,0.19,0.72,0.22
		c0,0.06-1.09,0.59-1.25,0.69c-0.09,0.06-0.19,0.12-0.16,0.22c0.03,0.09,0.12,0.09,0.22,0.06c0.41-0.16,0.56-0.12,0.9-0.28
		l-0.03-0.06c0.47-0.19,0.59-0.44,0.69-0.47c0.03,0,0.09,0,0.12-0.03c0.12-0.12,0.25-0.44,0.25-0.56c0-0.06-0.31-0.09-0.41-0.12
		c-0.28-0.06-0.59-0.22-0.9-0.25C169.6,202.02,169.14,202.24,168.89,202.77z M157.79,202.58c-0.03,0.06-0.06,0.16-0.09,0.22
		c-0.03,0.09,0.03,0.19,0.09,0.09c0.06-0.13,0.16-0.22,0.25-0.28c0.25-0.16,0.5-0.22,0.78-0.19c0.25,0.03,0.72,0.19,0.72,0.22
		c0,0.03-1.09,0.59-1.25,0.69c-0.09,0.06-0.19,0.12-0.16,0.22c0.03,0.09,0.12,0.09,0.22,0.06c0.41-0.16,0.56-0.12,0.9-0.28
		l-0.03-0.03c0.47-0.19,0.59-0.44,0.69-0.47c0.03,0,0.09,0,0.12-0.03c0.12-0.12,0.25-0.44,0.25-0.56c0-0.06-0.31-0.09-0.41-0.12
		c-0.28-0.06-0.59-0.22-0.9-0.25C158.5,201.84,158.04,202.05,157.79,202.58z M175.15,201.99c-0.03,0.03-0.06,0.03-0.09,0.09
		c-0.03,0.06-0.09,0.34-0.16,0.47c0,0.06,0.03,0.06,0.09,0.03c0.09-0.03,0.22-0.09,0.31-0.16c0.5-0.22,2.93-1.12,3.58-1.4l0.03,0.03
		c0.03-0.03,0.09-0.03,0.09-0.09c0.03-0.09,0.09-0.31,0.12-0.44c0.03-0.06,0-0.06-0.06-0.06
		C178.33,200.78,175.81,201.71,175.15,201.99z M165.89,209.38c1.56,0.15,2.21,0.66,2.21,0.66c-0.09,0.37-0.44,0.62-0.84,0.62
		c-0.56,0-1.18-0.44-1.65-1.22l-0.03-0.06h0.06C165.74,209.38,165.8,209.37,165.89,209.38z M158.85,206.54
		c0.16,0.03,0.22,0.25,0.31,0.5c0.09,0.22,0.19,0.5,0.34,0.75l0.03,0.06h-0.06c-0.37-0.06-0.97-0.31-1.31-0.59
		c0-0.16,0.06-0.34,0.19-0.5c0.12-0.16,0.28-0.25,0.44-0.25h0.09L158.85,206.54z M167.39,205.98c-0.16,0.44-1,1.19-1.59,1.4
		l-0.06,0.03v-0.06c0.09-0.59,0.53-1.53,0.87-1.84c0.06-0.09,0.16-0.12,0.25-0.12l0.03-0.03
		C167.11,205.39,167.33,205.67,167.39,205.98z M172.66,201.49c0.22,1.9,0.53,3.83,0.9,5.39c-0.12,0.37-0.28,0.87-0.81,0.9h-0.06
		c-0.19,0-0.87-0.03-1.28-0.34h-0.03v-0.03c0.06-0.16,0.16-0.37,0.16-0.59c0-0.12-0.03-0.22-0.06-0.22l-0.03,0.06
		c-0.69,1.25-3.77,1.75-5.3,1.75h-0.28h-0.09l0.09-0.06c0.94-0.59,1.78-1.37,1.81-2.84c0-0.25-0.12-0.69-0.34-0.9
		c-0.09-0.09-0.19-0.16-0.31-0.16c-0.19,0-0.37,0.12-0.59,0.37c-0.53,0.65-0.78,1.59-1,2.4c-0.03,0.12-0.06,0.25-0.12,0.41
		c-0.65,0.31-1.62,0.5-2.49,0.5c-0.9,0-1.71-0.19-2.31-0.56c-0.59-0.38-0.84-0.75-1.09-1.09c-0.09-0.12-0.19-0.25-0.28-0.37
		c-0.06-0.09-0.12-0.12-0.22-0.12c-0.09,0-0.19,0.03-0.28,0.09c-0.47,0.28-0.87,0.91-0.9,1.44c-0.03,0.37,0.12,0.72,0.41,0.93
		l0.03,0.03l-0.03,0.03c-0.65,0.78-2.77,1.96-3.43,2.31c-0.19,0.12-0.25,0.19-0.25,0.19h0.06c0.09,0,0.22-0.03,0.47-0.09l0.19-0.06
		c0.94-0.25,2.9-0.78,3.24-2.21v-0.03h0.03c0.44,0.19,1.31,0.47,1.75,0.5c0.06,0,0.16-0.22,0.16-0.44v-0.06l0.06,0.03
		c0.47,0.31,1.28,0.53,2.18,0.53c0.59,0,1.15-0.09,1.56-0.25l0.06-0.03v0.06c0,0.06,0,0.12-0.03,0.22c0,0.06-0.03,0.16-0.03,0.22
		c0,0,0,0.03,0.06,0.03h0.37c0.28,0,0.62-0.03,0.72-0.03h0.03v0.03c0.83,2.71,2.37,2.31,2.37,2.31c0.31-0.09,0.56-0.44,0.69-0.97
		c0.16-0.62,0.09-1.31-0.16-1.53l-0.06-0.06h0.06c0.81-0.09,2.12-0.56,2.77-1.15l0.03-0.03l0.03,0.03c0.34,0.38,1.03,0.81,1.56,0.81
		c0.09,0,0.19-0.03,0.28-0.06c0.34-0.16,0.56-0.69,0.78-1.22l0.03-0.09l0.03,0.09c0.31,1.34,1.34,1.62,2.12,1.62
		c0.87,0,1.96-0.34,2.9-0.9c0.53-0.34,1.06-0.78,1.28-1.12c0.16-0.22,0.22-0.69,0.16-0.78l-0.03,0.03c-0.66,0.59-1.28,1.06-2.37,1.4
		c-0.09,0.03-0.19,0.03-0.28,0.03c-0.65,0-1.43-0.65-1.56-1.81c0.28-0.5,1.43-1.03,2.28-1.03c0.28,0,0.5,0.06,0.65,0.16
		c0.06,0.06,0.12,0.06,0.16,0.06c0.03,0,0.03-0.03,0.03-0.03c0.03-0.03,0-0.12-0.06-0.22c-0.37-0.44-1.06-0.62-1.53-0.62
		c-0.12,0-0.25,0-0.34,0.03c-1.03,0.28-1.75,1.56-1.71,2.46c0.03,0.41,0.19,0.81,0.47,1.18l0.03,0.06h-0.06
		c-1.46-0.03-1.93-1.59-2.21-3.09c-0.12-0.59-0.19-1.25-0.28-1.9c-0.12-0.97-0.28-1.93-0.47-2.81l-0.03-0.06
		C172.81,200.25,172.6,200.99,172.66,201.49z M171.16,199.28c-0.03,0.03-0.06,0.03-0.09,0.09c-0.03,0.06-0.09,0.34-0.16,0.47
		c0,0.06,0.03,0.06,0.09,0.03c0.09-0.03,0.22-0.09,0.31-0.16l0.03,0.03c0.53-0.22,2.09-0.87,2.74-1.12
		c0.03-0.03,0.09-0.03,0.09-0.09c0.03-0.09,0.09-0.31,0.12-0.44c0-0.06-0.03-0.06-0.06-0.06C173.5,198.34,171.82,199,171.16,199.28z
		 M139.3,213.4c-0.03,0.03-0.06,0.03-0.09,0.09c-0.03,0.09-0.09,0.34-0.16,0.47c0,0.06,0.03,0.06,0.09,0.03
		c0.09-0.03,0.22-0.09,0.31-0.16c0.5-0.22,2.93-1.12,3.59-1.37h0.03c0.03-0.03,0.09-0.03,0.09-0.09c0.03-0.09,0.09-0.31,0.12-0.44
		c0.03-0.06,0-0.06-0.06-0.06C142.48,212.19,139.95,213.12,139.3,213.4z M145.94,210.47c-0.12,0.22-0.28,0.5-0.44,0.72
		c-0.22-0.16-0.5-0.31-0.69-0.44c-0.12-0.06-0.16-0.06-0.22,0.03l-0.03-0.03c-0.12,0.19-0.28,0.44-0.41,0.65
		c-0.03,0.09-0.03,0.16,0.09,0.22c0.19,0.12,0.53,0.31,0.72,0.41c0.06,0.03,0.09,0,0.16-0.06c0.12-0.12,0.25-0.34,0.41-0.62
		c0.28,0.19,0.53,0.31,0.75,0.44c0.06,0.03,0.09,0.03,0.16-0.03c0.12-0.16,0.31-0.47,0.41-0.62c0.06-0.12,0.03-0.16-0.06-0.22
		c-0.12-0.09-0.5-0.31-0.69-0.44C146,210.41,145.97,210.41,145.94,210.47z M150.21,206.73c-0.06,0.69,0.19,1.09,0.47,1.4l0.03,0.03
		h-0.06c-0.16,0.03-1.09,0.25-2.12,0.25c-0.56,0-1.06-0.06-1.47-0.19c-1.12-0.37-1.47-1.59-1.68-2.68
		c-0.06-0.37-0.22-0.72-0.31-0.84c-0.06-0.06-0.09-0.09-0.12-0.09c-0.03,0-0.06,0.06-0.09,0.16c0,0.12-0.03,0.19-0.06,0.28
		c-0.03,0.06-0.03,0.12-0.06,0.25c-0.12,0.56-0.41,0.9-0.93,1.06c-0.19,0.06-0.4,0.09-0.59,0.09s-0.34,0-0.5-0.06
		c0,0-0.03,0.03-0.03,0.06c-0.09,0.19-0.09,0.78,0.03,0.94c0.06,0.06,0.19,0.09,0.37,0.09c0.12,0,0.22-0.03,0.28-0.03h0.06
		l-0.03,0.06c-0.87,2.81-2.99,3.21-4.18,3.21c-0.84,0-1.59-0.22-2.03-0.37c-0.06-0.03-0.12-0.03-0.16-0.03c-0.06,0-0.09,0-0.09,0.03
		c0,0.03,0.03,0.12,0.09,0.19c0.47,0.34,2.12,0.81,3.37,0.81c0.31,0,0.56-0.03,0.78-0.09v0.06c1.31-0.38,2.49-2.46,2.53-3.9v-0.03
		h0.03c0.56-0.16,1.18-0.69,1.22-1.28h0.06c0.03,0.16,0.06,0.31,0.09,0.47c0.16,0.72,0.31,1.44,0.65,2
		c0.44,0.66,1.59,0.81,2.49,0.81c0.59,0,1.15-0.06,1.5-0.12c2.43-0.44,4.46-1.5,4.96-1.93c0.22-0.19,0.31-0.66,0.22-0.81
		c-0.72,0.41-1.59,0.87-2.46,1.15c-0.09,0.03-0.16,0.03-0.25,0.03c-0.72,0-1.56-0.69-1.59-1.65c0.41-0.37,1.25-0.94,2.12-0.94
		c0.37,0,0.72,0.09,1,0.31c0.03,0.03,0.06,0.03,0.09,0.03c0.03,0,0.06-0.03,0.06-0.03c0-0.03,0-0.09-0.03-0.16
		c-0.22-0.34-1.22-0.81-1.71-0.81C150.99,204.49,150.3,205.8,150.21,206.73z M151.05,201.96l0.03,0.03
		c-0.12,0.19-0.28,0.47-0.37,0.66c-0.06,0.06-0.06,0.12,0.03,0.16c0.16,0.09,0.44,0.25,0.62,0.34c0.06,0.03,0.12,0.03,0.16-0.03
		c0.12-0.19,0.28-0.44,0.37-0.62c0.06-0.06,0.06-0.12,0-0.16c-0.19-0.12-0.5-0.28-0.69-0.41
		C151.12,201.9,151.08,201.9,151.05,201.96z M143.57,201.24c-0.03,0.06-0.06,0.16-0.09,0.22c-0.03,0.09,0.03,0.19,0.09,0.09
		c0.06-0.12,0.16-0.22,0.25-0.28c0.25-0.16,0.5-0.22,0.78-0.19c0.25,0.03,0.72,0.19,0.72,0.22c0,0.03-1.09,0.59-1.25,0.69
		c-0.09,0.06-0.19,0.12-0.16,0.22c0.03,0.09,0.12,0.09,0.22,0.06l-0.03-0.03c0.41-0.16,0.56-0.12,0.9-0.28
		c0.47-0.19,0.59-0.44,0.69-0.47c0.03,0,0.09,0,0.12-0.03c0.12-0.12,0.25-0.44,0.25-0.56c0-0.06-0.31-0.09-0.41-0.12
		c-0.28-0.06-0.59-0.22-0.9-0.25C144.29,200.5,143.82,200.71,143.57,201.24z M148.72,200.81c-0.03,0.03-0.06,0.03-0.09,0.09
		c-0.03,0.06-0.16,0.37-0.19,0.53c0,0.06,0.03,0.06,0.09,0.03c0.09-0.03,0.25-0.12,0.34-0.16c0.53-0.19,3.71-1.25,4.37-1.53v0.03
		c0.03-0.03,0.09-0.03,0.09-0.09c0.03-0.09,0.12-0.37,0.19-0.5c0-0.06,0-0.06-0.06-0.06C152.71,199.47,149.37,200.56,148.72,200.81z
		 M97.68,213.44c-0.03,0.03-0.06,0.03-0.09,0.09c-0.03,0.06-0.16,0.37-0.19,0.53c0,0.06,0.03,0.06,0.09,0.03
		c0.09-0.03,0.25-0.12,0.34-0.16c0.53-0.19,3.71-1.25,4.37-1.53c0.03-0.03,0.09-0.03,0.09-0.09c0.03-0.09,0.12-0.37,0.19-0.5
		c0-0.06,0-0.06-0.06-0.06C101.67,212.06,98.33,213.16,97.68,213.44z M99.52,210.44c-0.12,0.19-0.28,0.47-0.37,0.65l0.03,0.03
		c-0.06,0.06-0.06,0.12,0.03,0.16c0.16,0.09,0.44,0.25,0.62,0.34c0.06,0.03,0.12,0.03,0.16-0.03c0.12-0.19,0.28-0.44,0.37-0.62
		c0.06-0.06,0.06-0.12,0-0.16c-0.19-0.12-0.5-0.31-0.69-0.4C99.58,210.38,99.55,210.38,99.52,210.44z M105.6,204.11
		c0,0-0.03,0.03-0.06,0.03c-0.03,0.06-0.06,0.16-0.09,0.28c-0.06,0.22-0.09,0.47-0.09,0.59c0.34,0.37,0.72,0.87,0.9,1.4
		c0,0.03,0,0.06-0.03,0.06c-1.06,0.72-3.15,1.25-5.49,1.5c-2.34,0.25-4.93,0.25-7.05-0.09c-1.5-0.25-2.74-0.81-4.02-1.47
		c-0.09-0.06-0.19-0.06-0.22-0.09h-0.06v0.06c0,0.03,0.03,0.09,0.09,0.16c0.5,0.69,1.12,1.25,2.06,1.72
		c1.37,0.62,3.83,0.97,6.45,0.87c2.62-0.06,5.39-0.53,7.39-1.4c0.53-0.25,0.84-0.56,1.03-0.94c0.16-0.37,0.22-0.87,0.12-1.47
		c-0.06-0.41-0.44-0.97-0.93-1.25V204.11z M117.69,203.15c-0.12,0.19-0.28,0.47-0.37,0.66l0.03,0.03c-0.06,0.06-0.06,0.12,0.03,0.16
		c0.16,0.09,0.44,0.25,0.62,0.34c0.06,0.03,0.13,0.03,0.16-0.03c0.12-0.19,0.28-0.44,0.37-0.62c0.06-0.06,0.06-0.12,0-0.16
		c-0.19-0.12-0.5-0.31-0.69-0.41C117.75,203.08,117.72,203.08,117.69,203.15z M124.67,202.55c-0.12,0.19-0.28,0.47-0.37,0.66
		l0.03,0.03c-0.06,0.06-0.06,0.12,0.03,0.16c0.16,0.09,0.44,0.25,0.62,0.34c0.06,0.03,0.12,0.03,0.16-0.03
		c0.12-0.19,0.28-0.47,0.37-0.62c0.06-0.06,0.06-0.12,0-0.16c-0.19-0.12-0.5-0.28-0.69-0.41
		C124.74,202.49,124.71,202.49,124.67,202.55z M128.13,201.84c-0.06,0-0.06,0.03-0.09,0.09c-0.03,0.06-0.09,0.34-0.13,0.47
		c-0.03,0.06,0.03,0.06,0.06,0.03c0.09-0.03,0.22-0.12,0.31-0.16h0.03c0.53-0.22,2.93-1.12,3.59-1.37c0.03-0.03,0.06-0.03,0.09-0.09
		c0.03-0.09,0.09-0.31,0.12-0.44c0-0.06,0-0.06-0.06-0.06C131.31,200.62,128.79,201.56,128.13,201.84z M123.33,200.37
		c-0.03,0.06-0.06,0.16-0.09,0.22c-0.03,0.09,0.03,0.19,0.09,0.09c0.06-0.09,0.16-0.19,0.25-0.25c0.25-0.16,0.5-0.22,0.78-0.19
		c0.25,0.03,0.72,0.19,0.72,0.22c0,0.03-1.09,0.59-1.25,0.69c-0.09,0.06-0.16,0.12-0.16,0.22c0.03,0.09,0.12,0.09,0.22,0.06
		l-0.06-0.06c0.44-0.16,0.59-0.12,0.94-0.28c0.47-0.19,0.59-0.44,0.69-0.47c0.03,0,0.09,0,0.12-0.03c0.12-0.12,0.25-0.44,0.25-0.56
		c0-0.06-0.31-0.09-0.41-0.12c-0.28-0.06-0.59-0.22-0.9-0.25C124.05,199.62,123.58,199.84,123.33,200.37z M137.18,199.5
		c-0.06,0.19-0.06,0.34-0.12,0.53c-0.09,0.41,0,0.75,0.06,1.15c0.09,0.62,0.25,1.22,0.37,1.81c0.22,1.22,0.47,2.43,0.59,3.65
		c0.06,0.47,0.03,0.91,0.06,1.37c0.03,0.22,0.22-0.22,0.22-0.25c0.03-0.19,0.06-0.41,0.09-0.62c0.09-0.41,0.09-0.75,0.06-1.15h-0.03
		c-0.12-1.62-0.59-3.21-0.78-4.8c-0.06-0.47-0.22-0.9-0.25-1.37C137.46,199.59,137.3,199.03,137.18,199.5z M117.89,199.27
		c0.09,0.1,0.21,0.3,0.23,0.65c0,0.1-0.02,0.24-0.02,0.25c-0.01,0.01-0.19-0.07-0.22-0.09c-0.07-0.03-0.25-0.1-0.58-0.23
		c-0.13-0.02,0-0.23,0-0.23c0.05-0.09,0.13-0.21,0.22-0.3l0.12-0.08C117.71,199.22,117.84,199.19,117.89,199.27z M117.82,198.66
		c-0.37,0.06-0.81,0.58-0.99,1.18c-0.08,0.27-0.03,0.42,0.12,0.51c0.21,0.13,0.52,0.24,0.88,0.33c-0.42,0.71-1.78,1.62-2.03,1.76
		c-0.3,0.17-0.24,0.36,0.13,0.19c1.37-0.62,2.04-1.27,2.35-1.85c0.09,0.02,0.17,0.05,0.27,0.07c0.16,0.04,0.13,0.06,0.21-0.2
		c0.04-0.12,0.07-0.21,0.08-0.27l-0.41-0.14l0.04-0.14c0.05-0.47-0.07-0.86-0.11-0.98C118.22,198.75,118.04,198.62,117.82,198.66z
		 M110.12,206.79c0.22,0.19,0.37,0.56,0.53,0.94c-0.5,0-0.94-0.09-1.22-0.34c-0.09-0.09-0.09-0.16-0.03-0.25
		c0.06-0.16,0.25-0.31,0.37-0.38h0.03c0.03-0.03,0.06-0.03,0.09-0.06C109.99,206.67,110.05,206.73,110.12,206.79z M121.28,206.7
		c-0.62,0.78-2.68,1.62-4.39,1.4c0.65-0.53,1.62-1.47,2.28-1.84v0.03c0.19-0.12,0.44-0.16,0.69-0.16
		C120.4,206.14,121,206.42,121.28,206.7z M130.54,206.01c0.06,0,0.12,0.06,0.16,0.16c0.19,0.47,0.44,0.84,0.72,1.12
		c-0.56-0.12-1.15-0.25-1.56-0.5c-0.12-0.06-0.12-0.12-0.06-0.22c0.16-0.19,0.34-0.34,0.56-0.47v-0.03
		C130.41,206.01,130.47,205.98,130.54,206.01z M134.34,198.81c-0.12,0.25-0.22,0.47-0.34,0.72c-0.03,0.03-0.03,0.09,0,0.16
		c0,0.06,0.03,0.09,0.03,0.16c0.09,0.22,0.19,0.44,0.31,0.62c0.09,0.53,0.22,1.03,0.31,1.56c0.31,1.5,0.62,2.99,0.9,4.46
		c-0.12,0.34-0.78,0.56-1.47,0.59c-0.65,0.06-1.4-0.06-1.9-0.28c-0.47-0.22-0.87-0.59-1.22-1.15c-0.09-0.19-0.22-0.25-0.34-0.22
		c-0.12,0-0.25,0.09-0.34,0.16c-0.22,0.16-0.5,0.5-0.65,0.75v0.03l-0.03,0.03l-0.03,0.03c-0.9,1.37-2.34,1.59-3.27,1.03v-0.03
		c0.25-0.25,0.53-0.69,0.65-1.09c0.06-0.19,0.09-0.34,0.06-0.5c-0.03-0.12-0.16-0.28-0.41-0.41c-0.37-0.22-0.87-0.31-1.31-0.31
		c-0.44,0-0.84,0.09-1.09,0.22c-0.31,0.19-0.56,0.59-0.75,1.25c-0.03,0.09,0,0.16,0.03,0.19c0,0,0.03,0.03,0.06,0
		c0.03,0,0.06-0.03,0.09-0.06c0.09-0.09,0.22-0.16,0.37-0.16c0.16,0,0.31,0.03,0.47,0.09c0.31,0.12,0.62,0.31,0.78,0.53v0.03
		c-1.43,0.69-3.24,1-4.52,1.03v-0.03c0.37-0.22,0.65-0.62,0.84-1.03c0.19-0.41,0.28-0.84,0.28-1.15c0-0.22-0.09-0.41-0.25-0.56
		c-0.16-0.16-0.37-0.25-0.62-0.31c-0.5-0.12-1.09-0.06-1.53,0.28c-0.87,0.62-2.24,1.93-3.24,2.62c-0.25,0.03-0.62-0.03-0.97-0.19
		c-0.34-0.12-0.69-0.31-0.9-0.53l0.12-0.44c0.03-0.09,0.03-0.16,0-0.19c0-0.03-0.03-0.06-0.06-0.06h-0.09
		c-0.03,0.03-0.06,0.03-0.09,0.06c-0.19,0.16-0.69,0.41-1.25,0.62c-0.56,0.22-1.15,0.37-1.56,0.41c-0.09-0.47-0.25-1-0.47-1.37
		c-0.09-0.19-0.22-0.37-0.34-0.47c-0.12-0.12-0.28-0.19-0.44-0.19c-0.16,0-0.34,0.12-0.5,0.28c-0.16,0.16-0.31,0.41-0.44,0.65
		c-0.22,0.53-0.34,1.15-0.12,1.59c0.16,0.34,0.5,0.53,0.87,0.56c0.34,0.03,0.69,0.03,1.03,0v0.03c-0.62,1.4-1.56,2.21-2.59,2.59
		c-1.03,0.37-2.12,0.37-3.15,0.16c-0.09-0.03-0.16-0.03-0.22,0c-0.06,0-0.09,0.06-0.09,0.09c-0.03,0.03,0,0.06,0.03,0.09
		c0.03,0.03,0.09,0.09,0.22,0.12c1.68,0.5,2.96,0.62,3.96,0.19c0.97-0.44,1.65-1.5,2.18-3.34c0.22,0,0.59-0.09,1.03-0.25
		c0.44-0.16,0.97-0.37,1.4-0.62c0.22,0.31,0.65,0.87,1.22,1.15v0.03c-0.19,0.41-0.47,1.09-0.5,1.53v0.16c0,0.06,0.03,0.09,0.03,0.09
		h0.03h0.03c0.03-0.03,0.06-0.09,0.09-0.19c0.16-0.37,0.41-1.03,0.62-1.5c1.22,0.31,2.96,0.31,4.46,0.22
		c2.06-0.16,4.36-0.56,5.83-1.46c0.62,0.81,1.34,1.03,2.03,0.87c0.69-0.16,1.31-0.65,1.75-1.28c0.06,0.19,0.19,0.37,0.37,0.47
		c0.44,0.25,1.22,0.37,1.87,0.5h0.16h0.09c0.03,0,0.03-0.03,0.06-0.06c0-0.03,0.03-0.06,0.03-0.16l0.06-0.41
		c0.97,0.31,2.15,0.31,2.93,0.06c0.34-0.09,0.62-0.31,0.72-0.62c0.28-0.87,0.16-1.84-0.12-3.15c-0.25-1.15-0.47-2.28-0.72-3.37
		c0.12-0.16,0.22-0.31,0.34-0.47c0.03-0.03,0.06-0.09,0.06-0.16c0-0.06,0-0.12-0.06-0.19c-0.37-0.41-0.56-0.72-0.69-1.06
		c-0.03-0.06-0.06-0.09-0.06-0.12c-0.02-0.02-0.03-0.02-0.03-0.03C134.37,198.75,134.37,198.78,134.34,198.81z M134.37,198.72
		c0.01,0,0.02,0,0.03,0c0,0,0,0,0,0c0-0.03,0.03-0.06,0.03-0.06L134.37,198.72z M138.71,197.16c0.06,0.06,0.12,0.16,0.12,0.25
		c-0.09,0.22-0.75,0.47-1,0.53c-0.03,0.03-0.31,0.06-0.28,0l-0.03-0.03c0.16-0.22,0.31-0.5,0.53-0.69
		C138.27,197.03,138.49,196.97,138.71,197.16z M138.05,196.75c-0.28,0.28-0.65,0.84-0.84,1.18c-0.12,0-0.34-0.12-0.47-0.19
		c-0.16-0.09-0.25,0.06-0.31,0.19c-0.13,0.22-0.25,0.47-0.34,0.72l-0.09,0.25c0,0.12,0.03,0.16,0.12,0.06l-0.03-0.03
		c0.19-0.19,0.31-0.65,0.44-0.59c0.59,0.34,1.37,0.22,1.93-0.19c0.44-0.31,0.78-0.81,0.65-1.34c-0.03-0.19-0.25-0.37-0.47-0.37
		C138.43,196.44,138.21,196.6,138.05,196.75z M132.81,197.13c-0.03,0.06-0.06,0.16-0.09,0.22c-0.03,0.09,0.03,0.19,0.09,0.09
		c0.06-0.12,0.16-0.22,0.25-0.28c0.25-0.16,0.5-0.22,0.78-0.19c0.25,0.03,0.72,0.19,0.72,0.22c0,0.03-1.09,0.59-1.25,0.69
		c-0.09,0.06-0.19,0.12-0.16,0.22c0.03,0.09,0.12,0.09,0.22,0.06c0.41-0.16,0.56-0.12,0.9-0.28l-0.03-0.03
		c0.47-0.19,0.59-0.44,0.69-0.47c0.03,0,0.09,0,0.12-0.03c0.12-0.12,0.25-0.44,0.25-0.56c0-0.06-0.31-0.09-0.41-0.12
		c-0.28-0.06-0.59-0.22-0.9-0.25C133.53,196.38,133.06,196.6,132.81,197.13z M75.92,212.34c-0.75,0.31-3.27,1.25-3.93,1.53
		c-0.03,0.03-0.06,0.03-0.09,0.09c-0.03,0.06-0.09,0.34-0.16,0.47c0,0.06,0.03,0.06,0.09,0.03c0.09-0.03,0.22-0.09,0.31-0.16
		c0.5-0.22,2.93-1.12,3.59-1.37h0.03c0.03-0.03,0.09-0.03,0.09-0.09c0.03-0.09,0.09-0.31,0.13-0.44
		C75.98,212.34,75.95,212.34,75.92,212.34z M78.94,210.25c-0.12,0.22-0.28,0.5-0.44,0.72c-0.22-0.16-0.5-0.31-0.69-0.44
		c-0.13-0.06-0.16-0.06-0.22,0.03l-0.03-0.03c-0.12,0.19-0.28,0.44-0.4,0.66c-0.03,0.09-0.03,0.16,0.09,0.22
		c0.19,0.12,0.53,0.31,0.72,0.41c0.06,0.03,0.09,0,0.16-0.06c0.12-0.12,0.25-0.34,0.41-0.62c0.28,0.19,0.53,0.31,0.75,0.44
		c0.06,0.03,0.09,0.03,0.16-0.03c0.12-0.16,0.31-0.47,0.4-0.62c0.06-0.12,0.03-0.16-0.06-0.22c-0.12-0.09-0.5-0.31-0.69-0.44
		C79.01,210.19,78.97,210.19,78.94,210.25z M76.45,202.96c-0.03,0.06-0.06,0.16-0.09,0.22c-0.03,0.09,0.03,0.19,0.09,0.09
		c0.06-0.12,0.16-0.22,0.25-0.28c0.25-0.16,0.5-0.22,0.78-0.19c0.25,0.03,0.72,0.19,0.72,0.22c0,0.06-1.09,0.59-1.25,0.69
		c-0.09,0.06-0.19,0.12-0.16,0.22c0.03,0.09,0.12,0.09,0.22,0.06c0.4-0.16,0.56-0.12,0.9-0.28l-0.03-0.03
		c0.47-0.19,0.59-0.44,0.69-0.47c0.03,0,0.09,0,0.12-0.03c0.12-0.12,0.25-0.44,0.25-0.56c0-0.06-0.31-0.09-0.4-0.12
		c-0.28-0.06-0.59-0.22-0.9-0.25C77.17,202.21,76.7,202.43,76.45,202.96z M63.61,202.8c-0.03,0.06-0.06,0.16-0.09,0.22
		c-0.03,0.09,0.03,0.19,0.09,0.09c0.06-0.12,0.16-0.22,0.25-0.28c0.25-0.16,0.5-0.22,0.78-0.19c0.25,0.03,0.72,0.19,0.72,0.22
		c0,0.03-1.09,0.59-1.25,0.69c-0.09,0.06-0.19,0.12-0.16,0.22c0.03,0.09,0.12,0.09,0.22,0.06c0.41-0.16,0.56-0.12,0.9-0.28
		l-0.03-0.03c0.47-0.19,0.59-0.44,0.69-0.47c0.03,0,0.09,0,0.12-0.03c0.12-0.12,0.25-0.44,0.25-0.56c0-0.06-0.31-0.09-0.4-0.12
		c-0.28-0.06-0.59-0.22-0.9-0.25C64.32,202.05,63.85,202.27,63.61,202.8z M82.34,201.74c-0.06,0-0.06,0.03-0.09,0.09
		c-0.03,0.06-0.09,0.34-0.12,0.47c-0.03,0.06,0.03,0.06,0.06,0.03c0.09-0.03,0.22-0.12,0.31-0.16c0.53-0.22,2.93-1.12,3.59-1.37
		h0.03c0.03-0.03,0.06-0.03,0.09-0.09c0.03-0.09,0.09-0.31,0.12-0.44c0-0.06,0-0.06-0.06-0.06C85.52,200.53,83,201.46,82.34,201.74z
		 M74.86,209.91h0.03c-0.09,0.37-0.44,0.62-0.84,0.62c-0.59,0-1.22-0.44-1.68-1.21l-0.03-0.06h0.06h0.22
		C73.27,209.26,74.42,209.47,74.86,209.91z M64.79,206.42c0.16,0.03,0.22,0.25,0.31,0.5c0.09,0.22,0.16,0.5,0.34,0.75l0.03,0.06
		h-0.06c-0.37-0.06-1-0.31-1.34-0.59c0-0.16,0.06-0.34,0.19-0.5c0.12-0.16,0.28-0.25,0.44-0.25h0.09V206.42z M74.11,205.89
		c-0.19,0.44-1.03,1.19-1.62,1.4l-0.06,0.03v-0.06c0.09-0.62,0.53-1.56,0.87-1.87c0.09-0.09,0.19-0.12,0.28-0.12h0.03
		C73.83,205.3,74.05,205.58,74.11,205.89z M80.35,201.34l0.03,0.31c0.22,1.65,0.44,3.52,0.84,5.11c-0.09,0.38-0.28,0.87-0.81,0.9
		h-0.06c-0.19,0-0.87-0.03-1.28-0.34h-0.03v-0.03c0.06-0.16,0.16-0.37,0.16-0.59c0-0.12-0.03-0.22-0.06-0.22l-0.03,0.06
		c-0.69,1.25-4.61,1.75-6.14,1.75h-0.31h-0.09l0.06-0.06c0.62-0.44,1.78-1.28,1.81-2.87c0-0.25-0.12-0.69-0.34-0.9
		c-0.09-0.09-0.19-0.16-0.31-0.16c-0.19,0-0.37,0.12-0.59,0.37c-0.5,0.66-0.78,1.59-1,2.4c-0.03,0.12-0.06,0.25-0.12,0.41
		c-0.62,0.31-1.84,0.5-2.96,0.5c-0.78,0-1.9-0.09-2.65-0.56c-0.59-0.37-0.84-0.75-1.09-1.09c-0.09-0.12-0.19-0.25-0.28-0.38
		c-0.06-0.09-0.12-0.12-0.22-0.12c-0.09,0-0.19,0.03-0.28,0.09c-0.47,0.28-0.87,0.91-0.9,1.44c-0.03,0.37,0.12,0.72,0.41,0.94
		l0.03,0.03l-0.03,0.03c-0.65,0.78-2.81,1.96-3.46,2.31c-0.19,0.12-0.25,0.19-0.25,0.19h0.06c0.06,0,0.22-0.03,0.47-0.09l0.19-0.06
		c0.94-0.25,2.9-0.78,3.24-2.21v-0.03h0.03c0.44,0.19,1.31,0.47,1.75,0.5c0.06,0,0.16-0.22,0.16-0.44v-0.06l0.06,0.03
		c0.44,0.31,1.5,0.53,2.68,0.53c0.78,0,1.46-0.09,1.87-0.25l0.06-0.03v0.06c0,0.06,0,0.12-0.03,0.22c0,0.06-0.03,0.16-0.03,0.22
		c0,0,0,0.03,0.06,0.03h0.37c0.31,0,0.62-0.03,0.72-0.03h0.03v0.03c0.54,2.83,2.37,2.4,2.37,2.4c0.31-0.09,0.56-0.44,0.69-0.97
		c0.16-0.66,0.09-1.34-0.16-1.56l-0.06-0.06h0.06c0.94-0.12,3.02-0.62,3.65-1.18l0.03-0.03l0.03,0.03c0.34,0.37,1.03,0.81,1.56,0.81
		c0.12,0,0.22-0.03,0.31-0.06c0.34-0.16,0.56-0.69,0.78-1.22l0.03-0.09l0.03,0.09c0.34,1.34,1.37,1.62,2.15,1.62
		c0.87,0,1.96-0.34,2.93-0.9c0.53-0.34,1.06-0.78,1.28-1.12c0.16-0.22,0.22-0.69,0.16-0.78l-0.03,0.03
		c-0.65,0.62-1.28,1.09-2.37,1.43c-0.09,0.03-0.19,0.03-0.28,0.03c-0.65,0-1.4-0.65-1.56-1.81c0.28-0.5,1.43-1.03,2.28-1.03
		c0.28,0,0.5,0.06,0.65,0.16c0.06,0.06,0.12,0.06,0.16,0.06c0.03,0,0.03-0.03,0.03-0.03c0.03-0.03,0-0.12-0.06-0.22
		c-0.37-0.44-1.06-0.62-1.53-0.62c-0.12,0-0.25,0-0.34,0.03c-1.03,0.25-1.75,1.56-1.71,2.46c0.03,0.44,0.19,0.84,0.47,1.22
		l0.03,0.06h-0.06c-0.62-0.03-1.4-0.31-1.71-1.18c-0.41-1.06-0.59-2.5-0.78-3.87c-0.12-0.97-0.28-1.96-0.47-2.84l-0.03-0.06
		C80.5,200.09,80.28,200.84,80.35,201.34z M78.44,199.18c-0.06,0-0.06,0.03-0.09,0.09c-0.03,0.06-0.09,0.34-0.12,0.47
		c-0.03,0.06,0.03,0.06,0.06,0.03c0.09-0.03,0.22-0.12,0.31-0.16c0.53-0.22,2.93-1.12,3.59-1.37h0.03c0.03-0.03,0.06-0.03,0.09-0.09
		c0.03-0.09,0.09-0.31,0.12-0.44c0-0.06,0-0.06-0.06-0.06C81.62,197.97,79.1,198.9,78.44,199.18z M154.28,228.61
		c-0.37,0.47-0.93,0.31-1.18-0.16c0.09-0.34,0.28-0.62,0.5-0.62h0.03C153.85,227.83,154.1,228.05,154.28,228.61z M153.75,226.71
		h-0.03c-0.09,0-0.19,0.06-0.28,0.12c-0.34,0.28-0.53,0.65-0.62,1c-0.16,0.53-0.28,1.47,0.25,1.87c0.47,0.34,1,0.53,1.59-0.44
		c-0.87,3.52-4.55,3.43-5.8,3.09c-0.44-0.12-0.56,0.19-0.09,0.37c0.97,0.37,2.77,0.62,3.87,0.22c1.62-0.66,2.34-2.34,2.43-3.68
		c0.03-0.66-0.03-1.62-0.9-2.43c-0.16-0.12-0.25-0.19-0.37-0.19L153.75,226.71z M155,222.97c-0.75,0.31-2.81,1.15-3.46,1.4
		c-0.03,0.03-0.06,0.03-0.09,0.09c-0.03,0.09-0.09,0.34-0.16,0.47c0,0.06,0.03,0.06,0.09,0.03c0.09-0.03,0.22-0.09,0.31-0.16
		l0.03,0.03c0.5-0.22,2.46-1.03,3.12-1.28c0.03-0.03,0.09-0.03,0.09-0.09c0.03-0.09,0.09-0.31,0.12-0.44
		C155.06,222.97,155.06,222.97,155,222.97z M149.07,229.67c-0.34,0.12-0.81,0.19-1.22,0.28l-0.03-0.03
		c0.31-0.31,0.69-0.69,0.84-1.12C148.82,229.02,148.98,229.33,149.07,229.67z M148.82,220.41c-0.19,0.34-0.4,0.75-0.44,0.9
		c0.03,0.22,0.19,0.5,0.34,0.81c0.31,1.75,0.53,3.87-0.06,5.8c-1-2-3.96-4.52-5.86-5.52c-0.16-0.09-0.19,1.34,0.09,1.87
		c0.16,0.28,0.87,0.66,1.28,0.75c0.16,0.03,0.28,0.03,0.47-0.28c1.12,1,2.9,2.09,3.77,3.68c-0.25,0.53-0.56,0.97-1.37,1.65
		c-0.19,0.03-0.44,0.09-0.65,0.16c-0.09,0.03-0.19,0.81-0.12,1c0,0.03,0.03,0.03,0.06,0.03c1.03-0.12,2.53-0.44,2.93-0.59
		c0.25-0.62,0-1.75-0.37-2.34c0.59-1.5,0.78-3.59,0.47-5.96c0.16-0.25,0.31-0.47,0.41-0.65c0.06-0.16-0.69-0.75-0.75-1.15
		c-0.03-0.12-0.06-0.22-0.12-0.19l0.03-0.03C148.89,220.35,148.85,220.38,148.82,220.41z M146.64,219.73
		c-0.03,0.03-0.06,0.03-0.09,0.09c-0.03,0.09-0.09,0.34-0.16,0.47c0,0.06,0.03,0.06,0.09,0.03c0.09-0.03,0.22-0.09,0.31-0.16
		c0.53-0.22,2.93-1.12,3.59-1.37h0.03c0.03-0.03,0.09-0.03,0.09-0.09c0.03-0.09,0.09-0.31,0.12-0.44c0-0.06,0-0.06-0.06-0.06
		C149.82,218.51,147.3,219.44,146.64,219.73z M117.9,232.76c-0.03,0.03-0.06,0.03-0.09,0.09c-0.03,0.06-0.09,0.34-0.16,0.47
		c0,0.06,0.03,0.06,0.09,0.03c0.09-0.03,0.22-0.09,0.31-0.16h0.03c0.5-0.22,2.46-1.03,3.12-1.28c0.03-0.03,0.09-0.03,0.09-0.09
		c0.03-0.09,0.09-0.31,0.12-0.44c0-0.06,0-0.06-0.06-0.06C120.61,231.63,118.55,232.48,117.9,232.76z M116.53,230.51
		c-0.12,0.22-0.28,0.5-0.44,0.72c-0.22-0.16-0.5-0.31-0.69-0.44c-0.12-0.06-0.16-0.06-0.22,0.03l-0.03-0.03
		c-0.12,0.19-0.28,0.44-0.4,0.65c-0.03,0.09-0.03,0.16,0.09,0.22c0.19,0.12,0.53,0.31,0.72,0.4c0.06,0.03,0.12,0,0.16-0.06
		c0.12-0.12,0.25-0.34,0.41-0.62c0.28,0.19,0.53,0.31,0.75,0.44c0.06,0.03,0.12,0.03,0.16-0.03c0.12-0.16,0.31-0.47,0.41-0.62
		c0.06-0.12,0.03-0.16-0.06-0.22c-0.12-0.09-0.5-0.31-0.69-0.44C116.59,230.45,116.56,230.45,116.53,230.51z M108.45,226.61
		c-0.12,0.19-0.28,0.47-0.37,0.65l0.03,0.03c-0.06,0.06-0.06,0.12,0.03,0.16c0.16,0.09,0.44,0.25,0.62,0.34
		c0.06,0.03,0.12,0.03,0.16-0.03c0.12-0.19,0.28-0.44,0.37-0.62c0.06-0.06,0.06-0.12,0-0.16c-0.19-0.12-0.5-0.31-0.69-0.41
		C108.51,226.55,108.48,226.55,108.45,226.61z M110.42,223c-0.75,0.31-4.12,1.4-4.74,1.68c-0.03,0.03-0.06,0.03-0.09,0.09
		c-0.03,0.06-0.12,0.37-0.19,0.53c0,0.06,0.03,0.06,0.09,0.03c0.09-0.03,0.22-0.12,0.34-0.16c0.53-0.19,3.71-1.25,4.36-1.5v-0.03
		c0.06-0.03,0.09-0.03,0.12-0.09c0.03-0.09,0.12-0.34,0.16-0.5C110.48,223,110.45,223,110.42,223z M130.55,224.71
		c-0.12,0.19-0.28,0.47-0.37,0.65l0.03,0.03c-0.06,0.06-0.06,0.12,0.03,0.16c0.16,0.09,0.44,0.25,0.62,0.34
		c0.06,0.03,0.12,0.03,0.16-0.03c0.12-0.19,0.28-0.47,0.37-0.62c0.06-0.06,0.06-0.12,0-0.16c-0.19-0.13-0.5-0.28-0.69-0.41
		C130.62,224.65,130.58,224.65,130.55,224.71z M131.39,221.98l-0.19,0.35c-0.02,0.04-0.04,0.07-0.02,0.11
		c0.05,0.14,0.1,0.3,0.09,0.39c-0.22,0.21-0.45,0.24-0.62,0.1c-0.11-0.09-0.15-0.26-0.14-0.48c0.01-0.16,0.03-0.22-0.11-0.11
		c-0.18,0.15-0.13,0.13-0.14,0.22c-0.06,0.52-0.29,0.76-0.69,0.79c-0.25,0.02-0.44-0.16-0.26-0.66c0.04-0.11-0.04-0.22-0.15,0
		c-0.38,0.75-0.15,1.17,0.24,1.23c0.32,0.05,0.69-0.13,0.88-0.61c0.15,0.24,0.44,0.31,0.71,0.24c0.34-0.09,0.42-0.25,0.51-0.52
		c0.09-0.27,0.1-0.62-0.03-1.05C131.44,221.91,131.4,221.95,131.39,221.98z M139.63,220.66c-0.03,0-0.06,0.06-0.06,0.16l-0.16,0.87
		c-0.03,0.25-0.03,0.28,0,0.47c0.09,0.56,0.25,1.15,0.37,1.71c0.25,1.25,0.5,2.46,0.72,3.62c0.19,0.94,0.31,1.9,0.37,2.74
		c0,0.16,0.09,0.16,0.12,0c0.12-0.47,0.19-0.97,0.16-1.5c0-0.5-0.19-1.53-0.34-2.34c-0.19-1.03-0.44-2.12-0.62-3.05
		c-0.19-0.87-0.37-1.75-0.47-2.59c0-0.09-0.06-0.12-0.09-0.12V220.66z M134.48,227.77l0.03,0.03l-0.03,0.03
		c-0.75,0.87-2.28,1.5-3.74,1.5h-0.25h-0.06l0.06-0.06c0.09-0.09,0.19-0.19,0.28-0.28c0.53-0.56,1.37-1.4,2.12-1.65
		c0.12-0.03,0.25-0.06,0.41-0.06C133.55,227.27,134.05,227.33,134.48,227.77z M136.13,220.41c-0.19,0.31-0.41,0.69-0.37,0.84
		c0.06,0.22,0.16,0.4,0.28,0.62c0.16,1.28,0.47,2.74,0.72,3.93c0.16,0.81,0.31,1.53,0.37,2c-0.25,0.65-2.31,1.22-2.96,1.28h-0.09
		l0.06-0.06c0.41-0.44,0.78-1.22,0.69-1.81c-0.06-0.31-0.19-0.53-0.44-0.69c-0.19-0.16-0.47-0.22-0.75-0.22
		c-0.31,0-0.62,0.09-0.87,0.22c-0.5,0.31-0.97,0.78-1.5,1.31c-0.5,0.5-1.03,1.03-1.65,1.43c-0.53-0.03-1.12-0.34-1.65-0.65
		c-0.12-0.06-0.19-0.09-0.25-0.09c-0.09,0-0.19,0.06-0.37,0.25c-0.72,0.66-1.56,0.78-2.12,0.78c-0.47,0-0.97-0.09-1.31-0.25
		c-0.56-0.25-0.9-0.84-1.06-1.75c-0.12-0.59-0.22-1.43-0.31-2.31c-0.16-1.37-0.34-2.93-0.62-4.18c-0.03-0.06-0.03-0.09-0.06-0.09
		c-0.09,0.09-0.25,0.75-0.25,0.97c0.19,0.84,0.28,1.87,0.41,2.96c0.19,1.78,0.37,3.62,0.87,4.58c0.31,0.56,0.72,0.87,1.37,1
		c0.22,0.03,0.41,0.06,0.62,0.06c1.09,0,2.15-0.44,2.71-1.09l0.03-0.03l0.03,0.03c0.09,0.06,0.19,0.12,0.28,0.19
		c0.22,0.12,0.44,0.28,0.69,0.41h0.03v0.03c-0.03,0.12-0.09,0.28-0.16,0.44c-0.12,0.38-0.31,0.84-0.34,1.06c0,0.12,0,0.22,0.03,0.25
		h0.03c0.03,0,0.06,0,0.16-0.19h-0.03c0.03-0.09,0.12-0.31,0.22-0.56c0.12-0.34,0.25-0.69,0.34-0.87v-0.03h0.03
		c0.4,0.09,1.03,0.16,1.75,0.16c1.84,0,4.46-0.34,5.83-1.12c0.69-0.44,1-1.15,0.97-2.25c-0.03-0.69-0.22-1.56-0.44-2.49
		c-0.19-0.78-0.34-1.56-0.47-2.37v-0.03c0.12-0.16,0.31-0.37,0.37-0.59c0.03-0.12-0.09-0.25-0.25-0.41
		c-0.16-0.16-0.37-0.41-0.47-0.69c0,0,0-0.03-0.03-0.03C136.17,220.35,136.17,220.38,136.13,220.41z M118.65,220.16
		c-0.13,0.19-0.34,0.56-0.44,0.75c-0.03,0.06-0.03,0.09,0,0.16c0.06,0.22,0.22,0.47,0.31,0.62l0.06,0.09
		c0.16,1.22,0.53,2.99,0.84,4.43c0.22,0.94,0.37,1.75,0.44,2.21c-0.12,0.28-0.37,0.44-0.72,0.44c-0.5,0-1.18-0.41-1.5-1.15
		c-0.25-0.59-0.37-1.28-0.47-1.81c-0.06-0.4-0.12-0.75-0.22-0.97c-0.03-0.06-0.09-0.12-0.12-0.12c0,0-0.03,0.03-0.03,0.06
		c-0.09,0.41-0.25,0.84-0.56,1.09c-0.28,0.25-0.78,0.41-1.06,0.41c-0.12,0-0.22-0.03-0.28-0.09c0-0.03-0.03-0.09-0.06-0.16
		c-0.06-0.16-0.22-0.44-0.34-0.5c-0.06,0.03-0.19,0.62-0.19,1c0.31,0.47,0.53,1,0.62,1.53c-1.06,1.93-4.8,2.62-7.92,2.62
		c-2.62,0-5.14-0.44-6.73-1.18c-0.81-0.37-1.5-0.78-2.09-1.18c-0.09-0.06-0.16-0.09-0.19-0.09h-0.03c0,0.03,0,0.06,0.03,0.16
		c0.47,0.72,0.9,1.31,1.5,1.71c1.03,0.69,2.4,1.15,4.05,1.43c0.84,0.16,1.84,0.22,2.87,0.22c2.59,0,5.99-0.5,7.64-1.84l-0.06-0.06
		c0.87-0.72,1.19-1.37,1.15-2.62v-0.03h0.16c0.69,0,1.15-0.41,1.4-1.22h0.06c0.06,0.37,0.31,1.68,0.69,2.65
		c0.31,0.75,0.78,1.12,1.46,1.15h0.06c0.31,0,0.59-0.09,0.78-0.31c0.44-0.47,0.44-1.37,0.37-2.03c-0.12-1.06-0.44-2.43-0.72-3.74
		c-0.16-0.69-0.31-1.34-0.41-1.93c0.22-0.22,0.34-0.41,0.37-0.53c0-0.06-0.06-0.19-0.16-0.31c-0.12-0.16-0.31-0.4-0.44-0.81
		c-0.03-0.06-0.03-0.09-0.06-0.09C118.71,220.1,118.68,220.1,118.65,220.16z M132.49,219.69c-0.75,0.31-4.12,1.4-4.74,1.68
		c-0.03,0.03-0.06,0.03-0.09,0.09c-0.03,0.06-0.12,0.37-0.19,0.53c0,0.06,0.03,0.06,0.09,0.03c0.09-0.03,0.22-0.12,0.34-0.16
		c0.53-0.19,3.71-1.25,4.36-1.5v-0.03c0.06-0.03,0.09-0.03,0.12-0.09c0.03-0.09,0.12-0.34,0.16-0.5
		C132.55,219.69,132.52,219.69,132.49,219.69z M124.35,218.76c-0.53,0.53-1.47,0.9-2.21,0.87c-0.5,0-0.78-0.12-1.03-0.31
		c-0.06-0.06-0.12-0.03-0.19,0.03c-0.19,0.22-0.41,0.75-0.47,1.09c0,0.06-0.03,0.16,0,0.16c0.03,0,0.06,0,0.09-0.06
		c0.06-0.16,0.16-0.47,0.31-0.66c0.03-0.03,0.06,0,0.09,0c0.34,0.22,0.81,0.34,1.31,0.31c0.69-0.03,1.96-0.47,2.15-1.4v-0.06
		C124.41,218.73,124.38,218.73,124.35,218.76z M140.97,218.45c0.06,0.06,0.12,0.16,0.12,0.25c-0.09,0.22-0.75,0.47-1,0.53
		c-0.03,0.03-0.31,0.06-0.28,0v-0.03c0.12-0.22,0.28-0.5,0.5-0.69C140.53,218.32,140.75,218.26,140.97,218.45z M140.31,218.04
		c-0.28,0.28-0.66,0.84-0.84,1.18c-0.09,0-0.34-0.12-0.47-0.19c-0.12-0.09-0.25,0.06-0.31,0.19c-0.12,0.22-0.25,0.47-0.34,0.72
		l-0.09,0.25c0,0.12,0.03,0.16,0.12,0.06v-0.03c0.16-0.19,0.31-0.65,0.41-0.59c0.59,0.34,1.37,0.22,1.93-0.19
		c0.44-0.31,0.78-0.81,0.65-1.34c-0.03-0.19-0.25-0.37-0.47-0.37C140.69,217.73,140.47,217.89,140.31,218.04z M119.58,217.65
		l-0.18,0.35c-0.02,0.04-0.04,0.07-0.02,0.11c0.05,0.14,0.1,0.3,0.09,0.39c-0.22,0.21-0.45,0.24-0.62,0.1
		c-0.11-0.09-0.15-0.26-0.14-0.48c0.01-0.16,0.03-0.22-0.11-0.11c-0.18,0.15-0.13,0.13-0.14,0.22c-0.06,0.52-0.29,0.76-0.69,0.79
		c-0.25,0.02-0.44-0.16-0.26-0.66c0.04-0.11-0.04-0.22-0.15,0c-0.38,0.75-0.15,1.18,0.24,1.23c0.31,0.05,0.69-0.13,0.88-0.61
		c0.15,0.24,0.44,0.31,0.71,0.24c0.34-0.09,0.42-0.25,0.51-0.53c0.09-0.27,0.1-0.62-0.03-1.05
		C119.63,217.57,119.59,217.61,119.58,217.65z"/>
</g>
</svg>
