<?xml version="1.0" encoding="iso-8859-1"?>
<!-- Generator: Adobe Illustrator 25.2.1, SVG Export Plug-In . SVG Version: 6.00 Build 0)  -->
<svg version="1.1" xmlns="http://www.w3.org/2000/svg" xmlns:xlink="http://www.w3.org/1999/xlink" x="0px" y="0px"
	 viewBox="0 0 240.74 323.95" enable-background="new 0 0 240.74 323.95" xml:space="preserve">
<g id="Ornaments">
	<path fill-rule="evenodd" clip-rule="evenodd" fill="#C0E2CA" d="M163.5,84.62c42.14,24.33,56.58,78.21,32.25,120.35
		c-24.33,42.14-78.21,56.58-120.35,32.25c-42.14-24.33-56.58-78.21-32.25-120.35C67.47,74.73,121.36,60.29,163.5,84.62z
		 M105.99,19.21c8.1,0.01,31.32,0.05,32.11,0.11c1.56,0.25,2.02,1.94,2.27,2.62c1.6-0.04,3.39,1.1,3.7,1.25
		c-0.92,2.56-0.02,3.7,0.38,4.33c0.4,0.64,1.35,1.1,1.96,1.29c1.37,0.44,2.73-0.25,3.06-0.52c0.33-0.27,0.38-0.29,0.79-0.63
		c-0.21,0.81-0.17,1.27-0.17,1.66c0,0.39,0.62,1,0.94,1.29c1.39,0.58,1.85-0.65,1.92-1.19c0.08-0.54-0.25-0.92-0.38-1.19
		c0.01,0,1.46-0.35,2.1,0.27c0.9,0.6,0.48,2.52,0.42,2.93c2.27-0.96,3.23,0.64,3.52,0.96c0.25,0.28,1.82,1.78,2.52,2.38l0.06,0
		l0.21,0.19l-0.01,0.01l0.01,0.01l-0.21,0.19l-0.06,0c-0.7,0.6-2.27,2.1-2.52,2.38c-0.29,0.33-1.25,1.92-3.52,0.96
		c0.06,0.4,0.48,2.33-0.42,2.93c-0.64,0.62-2.09,0.27-2.1,0.27c0.13-0.27,0.46-0.65,0.38-1.19c-0.08-0.54-0.54-1.77-1.92-1.19
		c-0.33,0.29-0.94,0.9-0.94,1.29s-0.04,0.85,0.17,1.66c-0.4-0.35-0.46-0.37-0.79-0.63c-0.33-0.27-1.69-0.96-3.06-0.52
		c-0.62,0.19-1.56,0.65-1.96,1.29c-0.4,0.64-1.31,1.77-0.38,4.33c-0.31,0.15-2.1,1.29-3.7,1.25c-0.25,0.67-0.71,2.37-2.27,2.62
		c-0.96,0.08-32.04,0.12-32.04,0.12l-0.07-0.73v0.68c0,0-2.73-0.04-3.7-0.12c-1.56-0.25-2.02-1.94-2.27-2.62
		c-1.6,0.04-3.39-1.1-3.7-1.25c0.92-2.56,0.02-3.7-0.38-4.33c-0.4-0.64-1.35-1.1-1.96-1.29c-1.37-0.44-2.73,0.25-3.06,0.52
		c-0.33,0.27-0.38,0.29-0.79,0.63c0.21-0.81,0.17-1.27,0.17-1.66s-0.62-1-0.94-1.29c-1.39-0.58-1.85,0.65-1.92,1.19
		c-0.08,0.54,0.25,0.92,0.38,1.19c-0.01,0-1.46,0.35-2.1-0.27c-0.9-0.6-0.48-2.52-0.42-2.93c-2.27,0.96-3.23-0.64-3.52-0.96
		c-0.25-0.28-1.82-1.78-2.52-2.38l-0.06,0l-0.21-0.19L79,34.91l-0.01-0.01l0.21-0.19l0.06,0c0.7-0.6,2.27-2.1,2.52-2.38
		c0.29-0.33,1.25-1.92,3.52-0.96c-0.06-0.4-0.48-2.33,0.42-2.93c0.64-0.62,2.09-0.27,2.1-0.27c-0.13,0.27-0.46,0.65-0.38,1.19
		c0.08,0.54,0.54,1.77,1.92,1.19c0.33-0.29,0.94-0.9,0.94-1.29c0-0.39,0.04-0.85-0.17-1.66c0.4,0.35,0.46,0.37,0.79,0.63
		c0.33,0.27,1.69,0.96,3.06,0.52c0.62-0.19,1.56-0.65,1.96-1.29c0.4-0.64,1.31-1.77,0.38-4.33c0.31-0.15,2.1-1.29,3.7-1.25
		c0.25-0.67,0.71-2.37,2.27-2.62c0.23-0.02,0.56-0.03,0.93-0.05l0-0.02c0,0,0.18,0,0.48,0c1.09-0.03,2.29-0.05,2.29-0.05V19.21z
		 M13.98,11.69v299.24h212.06h0.4v-0.41V11.69H13.98z"/>
	<path fill-rule="evenodd" clip-rule="evenodd" fill="#C0E2CA" d="M80.02,92.41c-0.05-0.01-0.09-0.02-0.14-0.02
		c-0.42,0-0.78,0.31-0.84,0.72c-0.4,0.12-0.7,0.48-0.7,0.93c0,0.06,0.01,0.12,0.02,0.18c0,0,0,0.01,0,0.01
		c-0.7,0.26-1.49,0.8-2.09,1.82c-0.43,0.73-0.72,1.7-0.76,2.94c0,0.05,0,0.33,0,0.37c0.05,1.24,0.33,2.21,0.76,2.94
		c0.5,0.86,1.13,1.37,1.74,1.67c0.04,0.46,0.42,0.83,0.89,0.84c0.16,0.25,0.44,0.42,0.76,0.42c0.12,0,0.24-0.03,0.34-0.07
		c0.05,0.06,0.1,0.12,0.16,0.17c0.04,0.04,0.12,0.08,0.14,0.1l0.01,0c0.04,0.02,0.08,0.04,0.12,0.05c0.03,0.01,0.06,0.02,0.09,0.03
		c0,0,0.01,0,0.02,0c0.01,0,0.03,0.01,0.04,0.01c0.05,0.01,0.09,0.01,0.14,0.01c0.07,0,0.11-0.01,0.15-0.01l0.01,0
		c0.01,0,0.01,0,0.01,0h0c0.03-0.01,0.05-0.01,0.06-0.01l0,0c0.03-0.01,0.06-0.02,0.09-0.03c0.04-0.01,0.08-0.03,0.12-0.05
		c0.02-0.01,0.11-0.06,0.14-0.09c0.08-0.06,0.13-0.12,0.18-0.18c0.11,0.04,0.22,0.07,0.34,0.07c0.32,0,0.6-0.17,0.76-0.42
		c0.48,0,0.86-0.38,0.89-0.85c0.6-0.3,1.22-0.81,1.71-1.66c0.42-0.73,0.71-1.7,0.76-2.93c0,0,0,0,0,0c0,0,0,0,0,0
		c0-0.01,0-0.04,0-0.06c0-0.04,0-0.08,0-0.13c0-0.08,0-0.17-0.01-0.19c-0.05-1.23-0.33-2.2-0.76-2.93c-0.59-1-1.36-1.55-2.05-1.81
		c0-0.01,0.01-0.02,0.01-0.02c0.01-0.06,0.01-0.12,0.01-0.18c0-0.44-0.3-0.8-0.7-0.93c-0.06-0.41-0.42-0.72-0.84-0.72
		c-0.06,0-0.11,0.01-0.16,0.02c-0.06-0.39-0.34-0.71-0.72-0.72C80.37,91.7,80.09,92.02,80.02,92.41z"/>
	<path fill-rule="evenodd" clip-rule="evenodd" fill="#C0E2CA" d="M62.82,113.97c-0.05-0.01-0.09-0.02-0.14-0.02
		c-0.42,0-0.78,0.31-0.84,0.72c-0.4,0.12-0.7,0.48-0.7,0.93c0,0.06,0.01,0.12,0.02,0.18c0,0,0,0.01,0,0.01
		c-0.7,0.26-1.49,0.8-2.09,1.82c-0.43,0.73-0.72,1.7-0.76,2.94c0,0.05,0,0.33,0,0.37c0.04,1.23,0.33,2.21,0.76,2.94
		c0.5,0.86,1.13,1.37,1.74,1.67c0.04,0.46,0.42,0.83,0.89,0.84c0.16,0.25,0.44,0.42,0.76,0.42c0.12,0,0.24-0.03,0.34-0.07
		c0.05,0.06,0.1,0.12,0.16,0.17c0.04,0.03,0.12,0.08,0.14,0.1l0.01,0c0.04,0.02,0.08,0.04,0.12,0.05c0.03,0.01,0.06,0.02,0.09,0.03
		c0,0,0.01,0,0.02,0c0.01,0,0.03,0.01,0.04,0.01c0.05,0.01,0.09,0.01,0.14,0.01c0.07,0,0.11-0.01,0.15-0.01l0.01,0
		c0.01,0,0.01,0,0.01,0l0,0c0.03-0.01,0.05-0.01,0.06-0.01l0,0c0.03-0.01,0.06-0.02,0.09-0.03c0.04-0.01,0.08-0.03,0.12-0.05
		c0.02-0.01,0.11-0.06,0.14-0.09c0.08-0.06,0.13-0.12,0.18-0.18c0.11,0.04,0.22,0.07,0.34,0.07c0.32,0,0.6-0.17,0.76-0.42
		c0.48,0,0.86-0.38,0.89-0.85c0.6-0.3,1.22-0.82,1.71-1.66c0.42-0.73,0.71-1.7,0.76-2.93c0,0,0,0,0,0c0,0,0,0,0,0
		c0-0.01,0-0.04,0-0.06c0-0.04,0-0.08,0-0.13c0-0.08,0-0.17-0.01-0.19c-0.05-1.23-0.33-2.2-0.76-2.93c-0.59-1-1.36-1.55-2.05-1.81
		c0-0.01,0.01-0.02,0.01-0.02c0.01-0.06,0.01-0.12,0.01-0.18c0-0.44-0.3-0.8-0.7-0.93c-0.06-0.41-0.42-0.72-0.84-0.72
		c-0.06,0-0.11,0.01-0.16,0.02c-0.06-0.39-0.34-0.71-0.72-0.72C63.17,113.26,62.88,113.58,62.82,113.97z"/>
	<path fill-rule="evenodd" clip-rule="evenodd" fill="#C0E2CA" d="M45.05,135.15c-0.05-0.01-0.09-0.02-0.14-0.02
		c-0.42,0-0.78,0.31-0.84,0.72c-0.4,0.12-0.7,0.48-0.7,0.93c0,0.06,0.01,0.12,0.02,0.18c0,0,0,0.01,0,0.01
		c-0.7,0.26-1.49,0.8-2.09,1.82c-0.43,0.73-0.72,1.7-0.76,2.94c0,0.05,0,0.33,0,0.37c0.04,1.24,0.33,2.21,0.76,2.94
		c0.5,0.86,1.13,1.37,1.74,1.67c0.04,0.46,0.42,0.83,0.89,0.84c0.16,0.25,0.44,0.42,0.76,0.42c0.12,0,0.24-0.03,0.34-0.07
		c0.05,0.06,0.1,0.12,0.16,0.17c0.04,0.03,0.12,0.08,0.14,0.1l0.01,0c0.04,0.02,0.08,0.04,0.12,0.05c0.03,0.01,0.06,0.02,0.09,0.03
		c0,0,0.01,0,0.02,0c0.01,0,0.03,0.01,0.04,0.01c0.05,0.01,0.09,0.01,0.14,0.01c0.07,0,0.11-0.01,0.15-0.01l0.01,0
		c0.01,0,0.01,0,0.01,0l0,0c0.03-0.01,0.05-0.01,0.06-0.01l0,0c0.03-0.01,0.06-0.02,0.09-0.03c0.04-0.01,0.08-0.03,0.12-0.05
		c0.02-0.01,0.11-0.06,0.14-0.09c0.08-0.06,0.13-0.12,0.18-0.18c0.11,0.04,0.22,0.07,0.34,0.07c0.32,0,0.6-0.17,0.76-0.42
		c0.48,0,0.86-0.38,0.89-0.85c0.6-0.3,1.22-0.81,1.71-1.66c0.42-0.73,0.71-1.7,0.76-2.93c0,0,0,0,0,0c0,0,0,0,0,0
		c0-0.01,0-0.04,0-0.07c0-0.04,0-0.08,0-0.13c0-0.08,0-0.17-0.01-0.19c-0.05-1.23-0.33-2.2-0.76-2.93c-0.59-1-1.36-1.55-2.05-1.81
		c0-0.01,0.01-0.02,0.01-0.02c0.01-0.06,0.01-0.12,0.01-0.18c0-0.44-0.3-0.8-0.7-0.93c-0.06-0.41-0.42-0.72-0.84-0.72
		c-0.06,0-0.11,0.01-0.16,0.02c-0.06-0.39-0.34-0.71-0.72-0.72C45.39,134.44,45.11,134.76,45.05,135.15z"/>
	<path fill-rule="evenodd" clip-rule="evenodd" fill="#C0E2CA" d="M131.46,135.15c-0.05-0.01-0.09-0.02-0.14-0.02
		c-0.42,0-0.78,0.31-0.84,0.72c-0.4,0.12-0.7,0.48-0.7,0.93c0,0.06,0.01,0.12,0.02,0.18c0,0,0,0.01,0,0.01
		c-0.7,0.26-1.49,0.8-2.09,1.82c-0.43,0.73-0.72,1.7-0.76,2.94c0,0.05,0,0.33,0,0.37c0.04,1.24,0.33,2.21,0.76,2.94
		c0.5,0.86,1.13,1.37,1.74,1.67c0.04,0.46,0.42,0.83,0.89,0.84c0.16,0.25,0.44,0.42,0.76,0.42c0.12,0,0.24-0.03,0.34-0.07
		c0.05,0.06,0.1,0.12,0.16,0.17c0.04,0.04,0.12,0.08,0.14,0.1l0.01,0c0.04,0.02,0.08,0.04,0.12,0.05c0.03,0.01,0.06,0.02,0.09,0.03
		c0,0,0.01,0,0.02,0c0.01,0,0.03,0.01,0.04,0.01c0.05,0.01,0.09,0.01,0.14,0.01c0.07,0,0.11-0.01,0.15-0.01l0,0
		c0.01,0,0.01,0,0.01,0l0,0c0.03-0.01,0.05-0.01,0.06-0.01l0,0c0.03-0.01,0.06-0.02,0.09-0.03c0.04-0.01,0.08-0.03,0.12-0.05
		c0.02-0.01,0.11-0.06,0.14-0.09c0.08-0.06,0.13-0.12,0.18-0.18c0.11,0.04,0.22,0.07,0.34,0.07c0.32,0,0.6-0.17,0.76-0.42
		c0.48,0,0.86-0.38,0.89-0.85c0.6-0.3,1.22-0.81,1.71-1.66c0.42-0.73,0.71-1.7,0.76-2.93c0,0,0,0,0,0c0,0,0,0,0,0
		c0-0.01,0-0.04,0-0.07c0-0.04,0-0.08,0-0.13c0-0.08,0-0.17-0.01-0.19c-0.05-1.23-0.33-2.2-0.76-2.93c-0.59-1-1.36-1.55-2.05-1.81
		c0-0.01,0.01-0.02,0.01-0.02c0.01-0.06,0.02-0.12,0.02-0.18c0-0.44-0.3-0.8-0.7-0.93c-0.06-0.41-0.42-0.72-0.84-0.72
		c-0.06,0-0.11,0.01-0.16,0.02c-0.06-0.39-0.34-0.71-0.72-0.72C131.81,134.44,131.52,134.76,131.46,135.15z"/>
	<path fill-rule="evenodd" clip-rule="evenodd" fill="#C0E2CA" d="M76.29,156.5c-0.05-0.01-0.09-0.02-0.14-0.02
		c-0.42,0-0.78,0.31-0.84,0.72c-0.4,0.12-0.7,0.48-0.7,0.93c0,0.06,0.01,0.12,0.02,0.18c0,0,0,0.01,0,0.01
		c-0.7,0.26-1.49,0.8-2.09,1.82c-0.43,0.73-0.72,1.7-0.76,2.94c0,0.05,0,0.33,0,0.37c0.05,1.24,0.33,2.21,0.76,2.94
		c0.5,0.86,1.13,1.37,1.74,1.67c0.04,0.46,0.42,0.83,0.89,0.84c0.16,0.25,0.44,0.42,0.76,0.42c0.12,0,0.24-0.03,0.34-0.07
		c0.05,0.06,0.1,0.12,0.16,0.17c0.04,0.04,0.12,0.08,0.14,0.1l0.01,0c0.04,0.02,0.08,0.04,0.12,0.05c0.03,0.01,0.06,0.02,0.09,0.03
		c0,0,0.01,0,0.02,0c0.01,0,0.03,0.01,0.04,0.01c0.05,0.01,0.09,0.01,0.14,0.01c0.07,0,0.11-0.01,0.15-0.01l0.01,0
		c0.01,0,0.01,0,0.01,0l0,0c0.03,0,0.05-0.01,0.06-0.01l0,0c0.03-0.01,0.06-0.02,0.09-0.03c0.04-0.01,0.08-0.03,0.12-0.05
		c0.02-0.01,0.11-0.06,0.14-0.09c0.08-0.06,0.13-0.12,0.18-0.18c0.11,0.04,0.22,0.07,0.34,0.07c0.32,0,0.6-0.17,0.76-0.42
		c0.48,0,0.86-0.38,0.89-0.85c0.6-0.3,1.22-0.81,1.71-1.66c0.42-0.73,0.71-1.7,0.76-2.93c0,0,0,0,0,0c0,0,0,0,0,0
		c0-0.01,0-0.04,0-0.07c0-0.04,0-0.08,0-0.13c0-0.08,0-0.17-0.01-0.19c-0.05-1.23-0.33-2.2-0.76-2.93c-0.59-1-1.36-1.55-2.05-1.81
		c0-0.01,0.01-0.02,0.01-0.02c0.01-0.06,0.02-0.12,0.02-0.18c0-0.44-0.3-0.8-0.7-0.93c-0.06-0.41-0.42-0.72-0.84-0.72
		c-0.06,0-0.11,0.01-0.16,0.02c-0.06-0.39-0.34-0.71-0.72-0.72C76.64,155.79,76.35,156.11,76.29,156.5z"/>
	<path fill-rule="evenodd" clip-rule="evenodd" fill="#C0E2CA" d="M120.33,177.76c-0.05-0.01-0.09-0.02-0.14-0.02
		c-0.42,0-0.78,0.31-0.84,0.72c-0.4,0.12-0.7,0.48-0.7,0.93c0,0.06,0.01,0.12,0.02,0.18c0,0,0,0.01,0,0.01
		c-0.7,0.26-1.49,0.8-2.09,1.82c-0.43,0.73-0.72,1.7-0.76,2.94c0,0.05,0,0.33,0,0.37c0.04,1.24,0.33,2.21,0.76,2.94
		c0.5,0.85,1.13,1.37,1.74,1.67c0.04,0.46,0.42,0.83,0.89,0.84c0.16,0.25,0.44,0.42,0.76,0.42c0.12,0,0.24-0.03,0.34-0.07
		c0.05,0.06,0.1,0.12,0.16,0.17c0.04,0.03,0.12,0.08,0.14,0.1l0.01,0c0.04,0.02,0.08,0.04,0.12,0.05c0.03,0.01,0.06,0.02,0.09,0.03
		c0,0,0.01,0,0.02,0c0.01,0,0.03,0.01,0.04,0.01c0.05,0.01,0.09,0.01,0.14,0.01c0.07,0,0.11-0.01,0.15-0.01l0,0
		c0.01,0,0.01,0,0.01,0h0c0.03-0.01,0.05-0.01,0.06-0.01l0,0c0.03-0.01,0.06-0.02,0.09-0.03c0.04-0.01,0.08-0.03,0.12-0.05
		c0.02-0.01,0.11-0.06,0.14-0.08c0.08-0.06,0.13-0.12,0.18-0.18c0.11,0.04,0.22,0.07,0.34,0.07c0.32,0,0.6-0.17,0.76-0.42
		c0.48,0,0.86-0.38,0.89-0.85c0.6-0.3,1.22-0.82,1.71-1.66c0.42-0.73,0.71-1.7,0.76-2.93c0,0,0,0,0,0c0,0,0,0,0,0
		c0-0.01,0-0.04,0-0.06c0-0.04,0-0.08,0-0.13c0-0.08,0-0.17-0.01-0.2c-0.05-1.23-0.33-2.2-0.76-2.93c-0.59-1-1.36-1.55-2.05-1.81
		c0-0.01,0.01-0.02,0.01-0.02c0.01-0.06,0.02-0.12,0.02-0.18c0-0.44-0.3-0.8-0.7-0.93c-0.06-0.41-0.42-0.72-0.84-0.72
		c-0.06,0-0.11,0.01-0.16,0.02c-0.06-0.39-0.34-0.71-0.72-0.71C120.68,177.04,120.39,177.36,120.33,177.76z"/>
	<path fill-rule="evenodd" clip-rule="evenodd" fill="#C0E2CA" d="M89.74,220.56c-0.05-0.01-0.09-0.02-0.14-0.02
		c-0.42,0-0.78,0.31-0.84,0.72c-0.4,0.12-0.7,0.48-0.7,0.93c0,0.06,0.01,0.12,0.02,0.18c0,0,0,0.01,0,0.01
		c-0.7,0.26-1.49,0.8-2.09,1.82c-0.43,0.73-0.72,1.7-0.76,2.94c0,0.05,0,0.33,0,0.38c0.04,1.24,0.33,2.21,0.76,2.94
		c0.5,0.85,1.13,1.37,1.74,1.67c0.04,0.46,0.42,0.83,0.89,0.84c0.16,0.25,0.44,0.42,0.76,0.42c0.12,0,0.24-0.03,0.34-0.07
		c0.05,0.06,0.1,0.12,0.16,0.17c0.04,0.03,0.12,0.08,0.14,0.09l0.01,0c0.04,0.02,0.08,0.04,0.12,0.05c0.03,0.01,0.06,0.02,0.09,0.03
		c0,0,0.01,0,0.02,0c0.01,0,0.03,0.01,0.04,0.01c0.05,0.01,0.09,0.01,0.14,0.01c0.07,0,0.11-0.01,0.15-0.01l0.01,0
		c0.01,0,0.01,0,0.01,0h0c0.03-0.01,0.05-0.01,0.06-0.01l0,0c0.03-0.01,0.06-0.02,0.09-0.03c0.04-0.01,0.08-0.03,0.12-0.05
		c0.02-0.01,0.11-0.06,0.14-0.09c0.08-0.06,0.13-0.12,0.18-0.18c0.11,0.04,0.22,0.07,0.34,0.07c0.32,0,0.6-0.17,0.76-0.42
		c0.48,0,0.86-0.38,0.89-0.85c0.6-0.3,1.22-0.81,1.71-1.66c0.42-0.73,0.71-1.7,0.76-2.93c0,0,0,0,0,0c0,0,0,0,0,0
		c0-0.01,0-0.04,0-0.07c0-0.04,0-0.08,0-0.13c0-0.08,0-0.17-0.01-0.19c-0.05-1.23-0.33-2.2-0.76-2.93c-0.59-1-1.36-1.55-2.05-1.81
		c0-0.01,0.01-0.02,0.01-0.02c0.01-0.06,0.01-0.12,0.01-0.18c0-0.44-0.3-0.8-0.7-0.93c-0.06-0.41-0.42-0.72-0.84-0.72
		c-0.06,0-0.11,0.01-0.16,0.02c-0.06-0.39-0.34-0.71-0.71-0.72C90.08,219.84,89.8,220.16,89.74,220.56z"/>
</g>
<g id="Aya_No.">
	<path fill-rule="evenodd" clip-rule="evenodd" d="M80.24,97.19h-0.03c-0.06,0.06-0.19,0.72-0.16,0.78
		c0.03,0.06,0.06,0.12,0.12,0.19c0.5,0.75,0.87,1.71,0.97,2.77c0.03,0.06,0.03,0.25,0.09,0.25s0.09-0.19,0.12-0.25
		c0.12-0.59,0.03-1.34-0.16-1.96c-0.19-0.69-0.53-1.22-0.9-1.75C80.27,97.19,80.27,97.19,80.24,97.19z"/>
	<path fill-rule="evenodd" clip-rule="evenodd" d="M63.34,118.84c-0.72,0.25-0.84,1.18-0.47,1.84c0.34,0.69,0.62,1.15,0.78,1.87
		c0.03,0.09,0.03,0.16,0.09,0.16c0.06,0,0.12-0.03,0.12-0.16c-0.06-0.97-0.22-1.68-0.72-2.37c-0.03-0.06-0.12-0.19-0.12-0.31
		c0-0.16,0.47-0.25,0.65-0.25c0.22,0,0.44,0.03,0.56,0.03l0.16-0.78C64.02,118.78,63.65,118.75,63.34,118.84z"/>
	<path fill-rule="evenodd" clip-rule="evenodd" d="M133.36,139.99c0,0.22-0.09,0.41-0.12,0.47c-0.22,0.25-0.65,0.19-0.75-0.03
		c-0.03-0.09,0-0.19,0-0.28c0-0.06-0.03-0.09-0.06-0.09c-0.06,0-0.06,0.03-0.09,0.09c-0.03,0.16-0.06,0.28-0.12,0.37
		c-0.25,0.34-0.69,0.31-0.94,0.06c-0.12-0.09-0.22-0.31-0.28-0.44c-0.03-0.06-0.06-0.09-0.09,0l0.06,0.03l-0.12,0.65
		c0,0.06,0.03,0.06,0.06,0.16c0.22,0.53,0.34,0.75,0.53,1.22c0.19,0.53,0.28,0.87,0.37,1.53c0,0.06,0,0.19,0.09,0.19
		c0.06,0,0.09-0.06,0.09-0.12c0.09-0.65,0-1.43-0.28-2.12c-0.03-0.06-0.03-0.09,0-0.09h0.09c0.22,0,0.44-0.19,0.53-0.41
		c0.28,0.28,0.69,0.31,0.94,0c0.25-0.28,0.28-0.93,0.19-1.18c0-0.06-0.03-0.06-0.03-0.06C133.39,139.93,133.36,139.96,133.36,139.99
		z"/>
	<path fill-rule="evenodd" clip-rule="evenodd" d="M45.57,139.97c-0.34,0.34-0.78,0.75-0.84,1.37c0,0.25,0.06,0.41,0.19,0.53
		c0.22,0.16,0.53,0.22,0.53,0.37c0,0.03-0.41,0.72-0.44,1.06c-0.06,0.44,0.22,0.62,0.44,0.62c0.65,0,1.03-0.53,1.31-0.9
		c0.03-0.06,0.03-0.12,0-0.09c-0.34,0.12-0.56,0.16-0.75,0.19c-0.42,0-0.6-0.12-0.59-0.21c0.01-0.13,0.37-0.71,0.43-1.01
		c0.03-0.16,0.03-0.34-0.06-0.44c-0.19-0.22-0.69-0.25-0.69-0.47c0-0.25,0.25-0.31,0.44-0.44c0.09-0.19,0.12-0.41,0.16-0.53
		C45.73,139.97,45.66,139.87,45.57,139.97z"/>
	<path fill-rule="evenodd" clip-rule="evenodd" d="M77.75,163.48c0,0.25-0.44,0.37-0.75,0.37c-0.31,0-0.7-0.21-0.71-0.46
		c0.01-0.31,0.29-0.63,0.62-0.63C77.31,162.76,77.66,163.2,77.75,163.48z M76.03,163.48c0,0.56,0.28,1.15,0.9,1.15
		c0.72,0,1.03-0.44,1.03-1.28c0-0.5-0.47-1.43-1.06-1.43C76.35,161.92,76.03,163.04,76.03,163.48z"/>
	<path fill-rule="evenodd" clip-rule="evenodd" d="M119.87,182.59c0,0.12-0.03,0.34,0,0.56c0.03,0.28,0.28,0.44,0.53,0.47
		c0.31,0.03,0.62,0,0.94-0.06c0.06,0,0.09,0.03,0.09,0.09c0,0.56,0,0.9,0.06,1.28c0.06,0.53,0.19,1.06,0.44,1.53
		c0.03,0.09,0.09,0.12,0.12,0c0.03-0.16,0.09-0.34,0.16-0.53c0.03-0.09,0.03-0.12-0.03-0.22c-0.37-0.78-0.41-1.46-0.5-2.37
		c-0.03-0.34,0-0.65-0.47-0.59l0.06-0.06c-0.22,0.06-0.47,0.09-0.72,0.09c-0.25,0-0.56-0.09-0.56-0.19c0-0.03-0.03-0.06-0.06-0.06
		C119.9,182.52,119.87,182.55,119.87,182.59z"/>
	<path fill-rule="evenodd" clip-rule="evenodd" d="M91.37,225.45c-0.44,0.78-0.65,1.75-0.78,2.34c-0.16-0.41-0.62-1.62-1.22-2.34
		c-0.03-0.06-0.12-0.06-0.12,0.06c-0.03,0.19-0.06,0.41-0.06,0.59c0,0.06,0,0.12,0.06,0.19c0.59,0.87,1.09,1.75,1.31,2.9
		c0.03,0.06,0,0.12,0.09,0.12c0.06,0,0.09-0.03,0.09-0.12c0.22-1.18,0.44-2.06,0.9-2.99c0.03-0.09,0.06-0.09,0.06-0.19
		c-0.03-0.16-0.09-0.44-0.12-0.56C91.52,225.27,91.46,225.33,91.37,225.45z"/>
</g>
<g id="Quran_Text">
	<path fill-rule="evenodd" clip-rule="evenodd" d="M103.14,40.09c-0.16,0.07-2.06,0.72-2.23,0.79c-0.16,0.06-0.23,0.1-0.26,0.23
		c-0.03,0.13-0.07,0.2-0.07,0.2c-0.03,0.07-0.07,0.13,0.16,0.03c0.13-0.07,1.96-0.69,2.16-0.75c0.13-0.07,0.2-0.1,0.26-0.23
		c0.06-0.13,0.06-0.13,0.1-0.23l0.03,0.03C103.34,40.05,103.37,40.02,103.14,40.09z M117.45,39.46c-0.06,0.16-0.36,0.75-0.29,1.41
		c0,0.16,0.1,0.46,0.36,0.46c0.13,0,0.29-0.1,0.39-0.46c0.03-0.1,0.03-0.16,0.03-0.2h-0.03c0-0.07-0.03-0.1-0.06,0
		c-0.1,0.23-0.33,0.39-0.49,0.1c-0.03-0.07-0.13-0.36,0.06-0.98c0.03-0.13,0.1-0.29,0.1-0.29C117.54,39.37,117.51,39.3,117.45,39.46
		z M111,38.65c-0.16,0.07-3.6,1.41-3.76,1.51c-0.16,0.1-0.23,0.1-0.26,0.23c-0.03,0.13-0.06,0.2-0.06,0.2
		c-0.03,0.07-0.07,0.16,0.16,0.03c0.07-0.03,3.54-1.41,3.67-1.47c0.13-0.07,0.2-0.1,0.26-0.23c0.06-0.13,0.06-0.13,0.1-0.23
		l0.07,0.03C111.19,38.61,111.23,38.51,111,38.65z M142.1,38.25c-0.07,0.2-0.1,0.33-0.1,0.39c0,0.07,0.03,0.33,0.03,0.33
		c-0.07,0.06-0.39,0.26-0.69,0.03c0.03-0.07,0.07-0.2,0.07-0.26c0.03-0.1-0.03-0.2-0.1-0.07c-0.07,0.13-0.2,0.52-0.29,0.59
		c-0.1,0.1-0.2,0.43-0.95,0.1c-0.13-0.03-0.36-0.23-0.69,0.13c-0.79,0.72-1.34,0.79-2.23,1.11c-0.1,0.07-0.33,0.23-0.07,0.2
		c0.26-0.03,1.37,0,2-0.69c0.13-0.13,0.26-0.46,0.75-0.26c0.26,0.1,0.75,0.52,1.31-0.33c0.33,0.2,0.79,0.13,0.88-0.1
		c0.07-0.23,0.16-0.46,0.16-0.62v-0.36l0.03-0.1C142.23,38.22,142.16,38.06,142.1,38.25z M101.05,34.1l-0.36,0.52l-0.72-0.52H99.9
		l-0.43,0.59v0.07l0.75,0.56h0.07l0.36-0.52l0.72,0.52h0.07l0.43-0.59v-0.07l-0.75-0.56H101.05z M128.18,37.01
		c-0.33,0.29-1.05,0.65-1.24,0.65c-0.2,0.03-0.72-0.07-0.49-0.62c0.06-0.16,0.57-1,0.61-1.07C127.32,36.1,128.53,36.72,128.18,37.01
		z M128.35,33.44c-0.13,0.16-1.31,1.73-1.31,1.73l0.03-0.06l-0.88-0.62c0,0,0.36-0.1,0.43-0.1c0.07-0.03,0.1-0.1,0-0.16
		c-0.1-0.07-1.15-0.49-1.24-0.52c-0.07-0.03-0.1-0.06-0.13,0.03c0,0.1-0.03,0.79-0.03,0.79s0,0.03,0.07,0.1
		c0.1,0.07,0.2,0.16,0.26,0.23c0.07,0.06,1.05,0.85,1.11,0.88c0,0-0.49,0.85-0.56,1.54c-0.06,0.69,0,1.6,0.92,1.31
		c0.26-0.07,1.28-0.49,1.51-1.21c0.07-0.26,0.29-0.75-0.07-1.21c-0.2-0.29-1.01-0.75-1.01-0.75s0.62-0.85,0.69-0.95
		c0.07-0.1,0.29-0.75,0.29-0.92C128.45,33.38,128.45,33.31,128.35,33.44z M107.99,33.18c-0.03,0.03-0.46,0.29-0.75,0.79
		c-0.29,0.49-0.65,1.18-1.57,1.67c-0.23,0.13-1.44,0.75-1.51,0.88c-0.07,0.13-0.23,0.46-0.26,0.59c-0.03,0.1,0,0.2,0.1,0.16
		c0.26-0.2,3.31,0.26,3.31,0.26c-0.16,0.13-1.38,0.95-2.68,1.21c-0.43,0.1-1.34,0.26-1.87-0.82c-0.13-0.23-0.36-1.24-1.21-0.92
		c-0.82,0.33-1.44,0.98-1.73,1.8c-0.29,0.82-0.59,1.51-0.95,1.51c-0.33,0-1.18-0.49-1.28-1.73c-0.03-0.26,0.03-0.98,0.1-1.18
		c0.03-0.2-0.1-0.33-0.16-0.1c-0.07,0.23-0.65,2.75,0.88,3.67c0.13,0.07,0.79,0.36,1.15-0.33c0.13-0.26,0.69-2.09,1.54-2.62
		c0.23-0.13,0.79-0.43,1.01-0.07c0.23,0.36,0.49,1.6,1.73,1.7c0.16,0,0.85,0.13,2.75-0.85c0.16-0.1,1.73-1.02,2.36-1.11v-0.03
		c0.33-0.07,1.41-0.13,1.41-0.13c0.07-0.1,0.39-0.65,0.46-0.75c0.03-0.07,0.1-0.16-0.1-0.13c-0.2,0-1.64,0.07-2.52,0
		c-1.02-0.07-2.42-0.26-2.42-0.26c0.13-0.1,1.08-0.85,1.44-1.54c0.1-0.2,0.46-0.72,0.66-0.79c0.2-0.1,0.39-0.1,0.46,0.13
		c0.1,0.39,0.1,0.88,0.13,0.98c0.03,0.1,0.13,0.26,0.2,0.1c0.1-0.2,0.23-0.82,0.1-1.47C108.71,33.67,108.54,32.88,107.99,33.18z
		 M135.81,36.58c0,0-0.26,0.13-0.92,0.1c-0.59-0.03-0.52-0.26-0.46-0.36C134.53,36.22,135.22,35.8,135.81,36.58z M130.41,32.69
		c-0.03,0.1-0.1,0.52-0.13,0.62c-0.03,0.1,0,0.16,0.03,0.26c0.03,0.07,0.16,0.33,0.23,0.56c0.07,0.23,0.92,1.83,1.01,2
		c0.07,0.13,0.1,0.26,0.03,0.36c-2.72,2.85-7.92,4.62-8.09,4.71c-0.16,0.1-0.13,0.16,0.16,0.13c0.43-0.07,2.78-0.46,3.44-0.79
		c0.43-0.23,2-0.98,3.24-1.96c-0.03,0.26-0.07,0.62-0.07,1.11c0.1,2.29,2.13,1.93,2.68,1.8c1.61-0.36,3.6-2.59,3.77-3.04
		c0.16-0.46,0.2-0.85,0.16-1.21c0.43-0.23,1.34-0.98,1.34-0.98c0.03,0.98,0.82,1.28,1.05,1.31c1.11,0.16,1.7-0.75,1.93-1.08
		c0.2,0.52,0.69,0.66,0.95,0.69c0.98,0.2,1.15-0.49,1.21-0.65h-0.03c0.29-0.95-0.23-1.64-0.33-1.74c-0.07-0.06-0.1,0-0.13,0.1
		c-0.03,0.1-0.1,0.43-0.16,0.65c0,0,0.2,0.33,0.26,0.49c0.07,0.16-0.03,0.26-0.23,0.3c-0.59,0.06-1.05-0.26-1.21-0.43
		c-0.16-0.16,0-0.43,0.13-0.75c0.1-0.26-0.1-0.29-0.23,0c-0.49,1.31-1.21,1.44-1.38,1.51c-1.67,0.46-1.54-1.08-1.51-1.31
		c0-0.26-0.16-0.16-0.39,0c-0.69,0.56-1.28,0.88-1.57,1.01c-0.26-0.52-0.65-0.82-0.79-0.95c-1.8-1.31-1.96,1.34-1.9,1.64
		c0.26,1.11,2.13,0.46,2.39,0.43c0.29-0.03,0.2,0.36,0.03,0.59c-0.39,0.56-0.85,0.95-1.28,1.31c-1.8,1.44-2.68,1.34-2.95,1.34
		c-1.77-0.07-1.6-1.93-1.51-2.36c0.52-0.46,0.98-0.92,1.24-1.44c0.1-0.26,0.29-0.88-0.03-1.67c-0.16-0.36-0.72-1.31-0.72-1.31h0.46
		c0.03,0,0.13-0.03,0-0.16c-0.1-0.1-0.95-0.98-1.01-1.05C130.47,32.66,130.44,32.59,130.41,32.69z M127.46,31.74l-0.36,0.52
		l-0.72-0.52h-0.07l-0.43,0.59v0.07l0.75,0.56h0.07l0.36-0.52l0.72,0.52h0.07l0.43-0.59V32.3l-0.75-0.56H127.46z M97.41,32.43
		c-0.1,0.36-0.56,1.54-0.39,2.95h0.03c0.03,0.33,0.26,0.92,0.69,0.92c0.23,0,0.49-0.2,0.65-1.01c0.03-0.16,0.03-0.33,0.03-0.39
		c0-0.1-0.07-0.23-0.13,0.03c-0.13,0.49-0.52,0.85-0.88,0.23c-0.07-0.13-0.29-0.69,0-2c0.07-0.26,0.13-0.62,0.13-0.62
		C97.61,32.23,97.51,32.1,97.41,32.43z M141.38,31.74c-0.07,0.16-0.36,0.79-0.33,1.47c0,0.16,0.13,0.49,0.36,0.49
		c0.13,0,0.29-0.1,0.39-0.49c0.03-0.1,0.03-0.16,0.03-0.2c0-0.06-0.03-0.13-0.07,0c-0.1,0.23-0.33,0.43-0.52,0.1
		c-0.03-0.07-0.16-0.36,0.07-1.01h0.03c0.03-0.13,0.1-0.33,0.1-0.33C141.51,31.64,141.44,31.54,141.38,31.74z M108.38,30.82
		l-0.36,0.52l-0.72-0.52h-0.07l-0.43,0.59v0.07l0.75,0.56h0.07l0.36-0.52l0.72,0.52h0.06l0.43-0.59v-0.06l-0.75-0.56H108.38z
		 M133.91,31.35c-0.07,0.2-0.39,0.85-0.36,1.6h0.07c0,0.16,0.13,0.52,0.39,0.52c0.13,0,0.33-0.1,0.43-0.52
		c0.03-0.1,0.03-0.16,0.03-0.23c0-0.07-0.03-0.13-0.07,0c-0.1,0.26-0.36,0.46-0.56,0.1c-0.03-0.07-0.16-0.39,0.07-1.08
		c0.03-0.13,0.1-0.33,0.1-0.33C134.08,31.25,134.01,31.18,133.91,31.35z M105.99,30.95c-0.16,0.07-3.47,1.67-3.63,1.74h-0.07
		c-0.16,0.07-0.2,0.13-0.23,0.26c-0.03,0.13-0.03,0.2-0.03,0.2c-0.03,0.06-0.03,0.16,0.2,0.03c0.07-0.03,3.44-1.64,3.57-1.7
		c0.13-0.07,0.2-0.13,0.26-0.23c0.06-0.13,0.06-0.13,0.1-0.23C106.19,30.92,106.22,30.86,105.99,30.95z M99.7,29.68
		c-0.1,0.23-0.46,0.98-0.33,1.87v0.03c0.03,0.2,0.2,0.59,0.52,0.59c0.16,0,0.39-0.13,0.52-0.65c0.03-0.13,0.03-0.2,0.03-0.26
		c0-0.07-0.03-0.13-0.1,0c-0.1,0.33-0.43,0.56-0.69,0.16c-0.03-0.07-0.23-0.43,0.03-1.28c0.06-0.16,0.13-0.39,0.13-0.39
		C99.9,29.55,99.8,29.48,99.7,29.68z M103.4,28.63c-0.39,0.49-0.43,1.15-0.46,1.87c-0.07-0.16-0.36-1.11-1.34-1.67
		c-0.07-0.03-0.23,0.03-0.23,0.26c0,0.13-0.03,0.46,0.03,0.56v0.03c0.1,0.1,0.36,0.26,0.43,0.29c0.03,0.03,0.1,0.03,0.1-0.03
		c0-0.07,0.07-0.2,0.16-0.1c0.06,0.07,0.56,0.49,0.82,1.34c0.03,0.1,0.16,0.13,0.16-0.03c0.06-0.39,0.1-1.08,0.13-1.31
		c0.03-0.29,0.2-0.88,0.56-0.59c0.1,0.07,0.16,0.16,0.16,0.16c0.07,0.1,0.16,0.23,0.23,0.1c0.07-0.16,0.13-0.46,0.07-0.62
		C104.19,28.83,103.73,28.24,103.4,28.63z M107.82,28.33c-0.07,0.16-0.36,0.75-0.29,1.41h-0.03c0,0.16,0.1,0.46,0.36,0.46
		c0.13,0,0.29-0.1,0.39-0.46c0.03-0.1,0.03-0.16,0.03-0.2c0-0.07-0.03-0.1-0.07,0c-0.1,0.23-0.33,0.39-0.49,0.1
		c-0.03-0.06-0.13-0.36,0.07-0.98c0.03-0.13,0.1-0.29,0.1-0.29C107.92,28.24,107.89,28.17,107.82,28.33z M133.26,28.3
		c-0.16,0.1-3.99,2.29-4.16,2.39c-0.16,0.1-0.2,0.13-0.23,0.26c-0.03,0.13-0.03,0.2-0.03,0.2h-0.03c-0.03,0.07-0.03,0.16,0.2,0.03
		c0.06-0.03,3.93-2.29,4.06-2.36c0.13-0.07,0.2-0.13,0.26-0.23c0.07-0.13,0.07-0.13,0.1-0.23C133.45,28.27,133.49,28.17,133.26,28.3
		z M141.24,28.73c0.23,0.23,0.2,0.59,0.2,0.65c0,0-0.29-0.13-0.43-0.2h-0.03c-0.13-0.07-0.2-0.13-0.13-0.23
		C141.05,28.66,141.15,28.66,141.24,28.73z M140.66,28.56h0.03c-0.16,0.23-0.26,0.82-0.06,0.98c0.23,0.16,0.56,0.29,0.56,0.29
		c-1.05,1.28-3.08,2.19-3.57,2.55c-0.13,0.1-0.13,0.16-0.03,0.16c0.07-0.03,1.64-0.46,3.04-1.67c0.65-0.56,0.62-0.59,0.79-0.95
		c0.13,0.06,0.23,0.2,0.29,0.26c0.07,0.1,0.13,0.16,0.16,0.07c0.13-0.39-0.06-0.59-0.23-0.72c0,0,0.2-0.59-0.16-1.18
		C141.41,28.27,141.08,27.94,140.66,28.56z M137.28,28.33c-0.39,0.52-0.43,1.21-0.49,1.96c-0.06-0.16-0.39-1.18-1.44-1.77
		c-0.07-0.03-0.23,0.03-0.23,0.29c0,0.13-0.03,0.49,0.07,0.59h-0.03c0.1,0.1,0.39,0.29,0.43,0.33c0.07,0.03,0.1,0.03,0.13-0.03
		c0-0.07,0.07-0.2,0.16-0.1c0.06,0.07,0.59,0.49,0.85,1.41c0.03,0.13,0.16,0.13,0.2-0.03c0.07-0.43,0.1-1.15,0.13-1.38
		c0.03-0.29,0.2-0.95,0.59-0.62c0.1,0.07,0.2,0.16,0.2,0.16c0.1,0.1,0.2,0.23,0.23,0.1c0.07-0.2,0.13-0.49,0.07-0.65
		C138.1,28.53,137.61,27.91,137.28,28.33z M114.99,34.82c-0.1,0.23-0.46,0.98-0.33,1.87c0.03,0.2,0.2,0.59,0.52,0.59
		c0.16,0,0.39-0.13,0.52-0.65c0.03-0.13,0.03-0.2,0.03-0.26c0-0.06-0.03-0.13-0.1,0c-0.1,0.33-0.43,0.56-0.69,0.16
		c-0.03-0.07-0.23-0.43,0.03-1.28v0.03c0.07-0.16,0.13-0.39,0.13-0.39C115.19,34.69,115.09,34.62,114.99,34.82z M117.74,33.05
		l-0.43,0.59v0.06l0.75,0.56h0.06l0.43-0.59V33.6l-0.75-0.56H117.74z M119.44,30.04c-0.16,0.1-6.48,3.54-6.68,3.63
		c-0.2,0.1-0.23,0.13-0.26,0.26c-0.03,0.13-0.03,0.2-0.06,0.23l0.03,0.03c-0.03,0.1-0.07,0.2,0.2,0.03c0.1-0.03,6.45-3.5,6.58-3.6
		c0.13-0.1,0.23-0.13,0.29-0.26c0.07-0.13,0.07-0.16,0.1-0.26C119.67,30,119.7,29.91,119.44,30.04z M114.89,28.2
		c-0.39,0.52-0.43,1.21-0.49,1.96c-0.07-0.16-0.39-1.18-1.44-1.77c-0.07-0.03-0.23,0.03-0.23,0.3c0,0.13-0.03,0.49,0.07,0.59h-0.03
		c0.1,0.1,0.39,0.29,0.43,0.33c0.07,0.03,0.1,0.03,0.13-0.03c0-0.07,0.07-0.2,0.16-0.1c0.07,0.07,0.59,0.49,0.85,1.41
		c0.03,0.13,0.16,0.13,0.2-0.03c0.07-0.43,0.1-1.15,0.13-1.38c0.03-0.29,0.2-0.95,0.59-0.62c0.1,0.06,0.2,0.16,0.2,0.16
		c0.1,0.1,0.2,0.23,0.23,0.1c0.07-0.2,0.13-0.49,0.07-0.65C115.71,28.4,115.22,27.78,114.89,28.2z M119.08,36.75
		c0.2,0.39-0.72,0.92-0.85,0.98c0,0-0.33-0.85-0.39-1.05c-0.07-0.2-0.03-0.43,0.36-0.59C118.59,35.93,118.89,36.35,119.08,36.75z
		 M120.36,28.07c-0.03,0.1-0.26,0.69-0.26,0.69c0.07,0.36,1.25,8.41,1.28,8.9c0.03,0.49,0.2,0.92-1.18,1.15
		c-0.23,0.03-1.11,0.06-1.51-0.52c0.23-0.2,0.82-0.52,0.82-1.64c-0.13-1.6-0.98-1.6-1.21-1.54c-0.23,0.06-0.72,0.33-0.85,1.44
		c0,0.36,0.07,0.92,0.26,1.41c-0.65,0.36-2.68,1.34-4.09,1.05c-0.36-0.07-1.34-0.16-1.77-1.96c-0.2-0.79-0.52-4.09-0.52-4.09
		s-0.26-2.52-0.46-3.47c-0.07-0.33-0.2-0.92-0.26-1.15c-0.07-0.2-0.1-0.23-0.16-0.1c-0.1,0.13-0.29,0.36-0.16,1.01
		c0.13,0.65,0.42,2.1,0.56,3.18c0.07,0.62,0.39,3.63,0.43,3.99c0.03,0.36,0,3.14,2.09,3.54c0.49,0.1,1.44,0.13,2.95-0.43
		c0.56-0.2,1.77-0.82,1.77-0.82c0.23,0.36,0.59,1.21,2.23,1.01c0.29-0.03,1.08-0.2,1.44-1.15c0.1-0.26,0.16-0.88,0.07-1.64h0.03
		c-0.03-0.26-1.05-6.84-1.05-6.84s0.43,0.43,0.52,0.49c0.07,0.07,0.16,0.03,0.13-0.1c-0.03-0.13-0.95-2.29-0.98-2.39
		C120.43,28.04,120.39,27.97,120.36,28.07z M122.78,28.07c-0.03,0.1-0.29,0.75-0.29,0.75c0,0.03,0.07,0.33,0.1,0.43
		c0.13,0.95,0.92,6.61,1.15,8.38c0.1,0.88,0.2,1.67,0.2,2.1c0,0.13,0.03,0.2,0.1,0.07c0.03-0.07,0.16-0.36,0.2-1.08
		c0.03-0.56,0-1.41-0.16-2.55c-0.03-0.16-0.85-6.06-0.85-6.06s0.43,0.43,0.52,0.49c0.06,0.07,0.16,0.03,0.13-0.1
		c-0.03-0.13-0.95-2.29-0.98-2.39C122.85,28.04,122.81,27.97,122.78,28.07z M126.71,28.47c0.23,0.23,0.2,0.59,0.2,0.65h-0.03
		c0,0-0.3-0.13-0.43-0.2c-0.13-0.06-0.2-0.13-0.13-0.23C126.51,28.4,126.61,28.4,126.71,28.47z M126.15,28.33
		c-0.16,0.23-0.26,0.82-0.07,0.98c0.23,0.16,0.56,0.29,0.56,0.29c-1.05,1.28-1.74,1.51-2.36,1.87v-0.03
		c-0.16,0.1-0.13,0.16-0.03,0.16c0.03,0,0.85-0.13,1.83-0.85c0.52-0.39,0.82-1.05,0.82-1.05s0.26,0.23,0.29,0.26
		c0.07,0.1,0.13,0.16,0.16,0.07c0.13-0.39-0.07-0.59-0.23-0.72c0,0,0.2-0.59-0.16-1.18C126.91,28.04,126.58,27.71,126.15,28.33z"/>
	<path fill-rule="evenodd" clip-rule="evenodd" fill="#C0E2CA" d="M212.6,0c-0.56,0-1.03,0.35-1.18,0.8
		c-0.59,0.01-1.15,0.43-1.21,1.04c-0.36-0.07-0.78-0.1-1.23-0.1c-1.76,0-4.09,0.58-5.81,2.38c-0.94-1.38-2.52-1.97-4.12-1.97
		c-1.04,0-2.1,0.24-3.04,0.67c-0.08-1.25-1.12-2.05-1.7-2.49l0,0c-0.1-0.07-0.24-0.07-0.34,0l0,0c-0.58,0.43-1.62,1.24-1.7,2.49
		c-0.93-0.43-1.99-0.67-3.03-0.67c-1.6,0-3.18,0.58-4.12,1.96c-1.72-1.81-4.05-2.38-5.81-2.38c-0.45,0-0.87,0.04-1.23,0.1
		c-0.05-0.62-0.61-1.03-1.2-1.04c-0.15-0.46-0.61-0.8-1.18-0.8h0c-0.56,0-1.03,0.34-1.18,0.8c-0.59,0.01-1.15,0.43-1.2,1.04
		c-0.36-0.07-0.78-0.1-1.23-0.1c-1.76,0-4.09,0.58-5.81,2.38c-0.94-1.38-2.52-1.97-4.12-1.97c-1.04,0-2.1,0.24-3.03,0.67
		c-0.08-1.25-1.11-2.05-1.7-2.49c-0.1-0.07-0.24-0.07-0.34,0l0,0l0,0c-0.58,0.43-1.61,1.24-1.69,2.49
		c-0.93-0.43-1.99-0.67-3.04-0.67c-1.6,0-3.18,0.59-4.12,1.97c-1.72-1.81-4.05-2.38-5.81-2.38c-0.45,0-0.87,0.04-1.23,0.1
		c-0.05-0.62-0.61-1.03-1.21-1.04c-0.15-0.46-0.62-0.8-1.18-0.8c-0.56,0-1.03,0.34-1.18,0.8c-0.59,0.01-1.15,0.43-1.2,1.04
		c-0.36-0.07-0.78-0.11-1.23-0.11c-1.76,0-4.08,0.58-5.81,2.38c-0.93-1.38-2.51-1.97-4.11-1.97c-1.04,0-2.1,0.24-3.03,0.67
		c-0.08-1.25-1.11-2.05-1.7-2.49c-0.1-0.07-0.25-0.07-0.34,0c-0.58,0.43-1.61,1.24-1.69,2.49c-0.93-0.43-1.99-0.67-3.04-0.67
		c-1.6,0-3.18,0.59-4.12,1.97c-1.72-1.81-4.05-2.38-5.81-2.38c-0.45,0-0.86,0.04-1.23,0.1c-0.06-0.62-0.61-1.03-1.21-1.04
		c-0.15-0.46-0.62-0.8-1.18-0.8c-0.56,0-1.03,0.34-1.18,0.8c-0.59,0.01-1.15,0.43-1.2,1.04c-0.36-0.07-0.78-0.1-1.23-0.1
		c-1.76,0-4.08,0.58-5.81,2.38c-0.93-1.38-2.52-1.97-4.12-1.97c-1.04,0-2.1,0.24-3.03,0.67c-0.08-1.25-1.11-2.05-1.69-2.49
		c-0.1-0.07-0.24-0.07-0.34,0l0,0c-0.58,0.43-1.61,1.24-1.69,2.49c-0.93-0.43-1.99-0.67-3.03-0.67c-1.6,0-3.18,0.59-4.12,1.97
		c-1.72-1.81-4.05-2.38-5.81-2.38c-0.45,0-0.87,0.04-1.23,0.1c-0.05-0.62-0.61-1.03-1.21-1.04C66.08,0.35,65.61,0,65.04,0
		c-0.57,0-1.03,0.35-1.18,0.8c-0.59,0.01-1.15,0.43-1.2,1.04c-0.36-0.07-0.78-0.1-1.23-0.1c-1.76,0-4.09,0.58-5.81,2.38
		c-0.93-1.38-2.51-1.97-4.12-1.97c-1.04,0-2.1,0.24-3.04,0.67c-0.08-1.25-1.12-2.05-1.7-2.49c-0.1-0.07-0.25-0.07-0.34,0
		c-0.58,0.43-1.62,1.24-1.7,2.49c-0.93-0.43-1.99-0.67-3.04-0.67c-1.6,0-3.18,0.59-4.12,1.97c-1.72-1.81-4.05-2.38-5.81-2.38
		c-0.45,0-0.87,0.04-1.23,0.1c-0.05-0.62-0.61-1.03-1.21-1.04c-0.15-0.46-0.62-0.8-1.21-0.8h0h0c-0.55,0.01-1,0.35-1.15,0.8
		c-0.59,0.01-1.15,0.43-1.2,1.04c-0.36-0.07-0.78-0.1-1.23-0.1c-1.76,0-4.09,0.58-5.81,2.38c-0.97-1.44-2.62-2.07-4.29-2.06
		c-1.05,0-2.11,0.25-3.04,0.7c-0.81-1.19-2.21-1.75-3.55-1.75c-0.37,0-0.73,0.04-1.08,0.12C6.32,0.77,5.75,0.56,5.15,0.44
		C4.52,0.31,3.84,0.28,3.2,0.28c-0.43,0-0.86,0.02-1.25,0.03c-0.33,0.01-0.63,0.02-0.9,0.02c-0.15,0-0.29,0-0.42-0.01
		C0.56,0.31,0.48,0.34,0.43,0.39C0.37,0.44,0.34,0.5,0.35,0.57v0l0,0C0.36,0.68,0.36,0.8,0.36,0.94c0,0.25-0.01,0.53-0.03,0.83
		C0.32,2.14,0.31,2.53,0.31,2.93c0,0.6,0.04,1.22,0.17,1.79c0.13,0.56,0.36,1.08,0.76,1.48c-0.09,0.32-0.14,0.66-0.14,1
		c0,1.22,0.6,2.51,1.91,3.26c-0.49,0.85-0.77,1.84-0.77,2.81c0,1.53,0.68,3.05,2.26,3.95c-1.98,1.59-2.6,3.74-2.6,5.36
		c0,0.42,0.04,0.81,0.12,1.15c-0.69,0.06-1.13,0.59-1.14,1.12C0.36,24.99,0,25.42,0,25.92c0,0.5,0.36,0.94,0.88,1.07
		c0,0.53,0.44,1.06,1.13,1.12c-0.07,0.34-0.12,0.72-0.12,1.15c0,1.62,0.62,3.77,2.6,5.36c-1.52,0.86-2.15,2.32-2.15,3.79
		c0,0.97,0.27,1.95,0.74,2.81c-0.66,0.04-1.2,0.28-1.64,0.58c-0.47,0.32-0.83,0.72-1.08,1c-0.07,0.08-0.07,0.2,0,0.28
		c0.25,0.28,0.6,0.67,1.08,0.99c0.44,0.3,0.98,0.54,1.64,0.58c-0.47,0.86-0.74,1.85-0.74,2.81c0,1.47,0.63,2.93,2.15,3.79
		c-1.98,1.59-2.6,3.74-2.6,5.36c0,0.42,0.04,0.81,0.11,1.15c-0.69,0.06-1.13,0.59-1.13,1.12C0.36,59.02,0,59.45,0,59.95
		c0,0.5,0.36,0.93,0.87,1.07c0,0.53,0.44,1.06,1.13,1.12c-0.07,0.34-0.12,0.72-0.12,1.15c0,1.62,0.62,3.77,2.61,5.35
		c-1.52,0.87-2.15,2.32-2.15,3.8c0,0.96,0.27,1.95,0.73,2.81c-0.66,0.04-1.2,0.28-1.64,0.58c-0.47,0.32-0.83,0.71-1.08,0.99
		c-0.07,0.08-0.07,0.2,0,0.29c0.25,0.28,0.6,0.67,1.08,0.99c0.44,0.3,0.98,0.54,1.64,0.57c-0.47,0.86-0.74,1.85-0.74,2.81
		c0,1.47,0.63,2.93,2.15,3.8c-1.98,1.59-2.6,3.74-2.6,5.36c0,0.42,0.04,0.81,0.11,1.15c-0.69,0.06-1.13,0.59-1.13,1.12
		C0.36,93.03,0,93.46,0,93.96c0,0.5,0.36,0.94,0.87,1.07c0,0.53,0.44,1.06,1.13,1.12c-0.07,0.34-0.12,0.72-0.12,1.15
		c0,1.62,0.62,3.77,2.61,5.36c-1.52,0.86-2.15,2.32-2.15,3.8c0,0.96,0.27,1.95,0.74,2.81c-0.66,0.04-1.2,0.27-1.64,0.57
		c-0.47,0.32-0.83,0.71-1.08,0.99l-0.01,0.01l-0.04,0.12l0,0.06l0.04,0.1l0.01,0.01c0.25,0.28,0.6,0.67,1.08,0.98
		c0.44,0.29,0.98,0.53,1.64,0.57c-0.47,0.86-0.74,1.85-0.74,2.81c0,1.47,0.63,2.93,2.15,3.8c-1.98,1.59-2.61,3.74-2.61,5.36
		c0,0.42,0.04,0.81,0.11,1.14c-0.69,0.06-1.13,0.59-1.13,1.11C0.36,127.04,0,127.47,0,127.97c0,0.5,0.36,0.94,0.87,1.07
		c0,0.53,0.44,1.07,1.13,1.12c-0.07,0.34-0.12,0.72-0.12,1.15c0,1.62,0.62,3.77,2.6,5.36c-1.52,0.87-2.15,2.32-2.15,3.79
		c0,0.97,0.26,1.95,0.74,2.81c-0.66,0.04-1.2,0.28-1.64,0.57c-0.47,0.32-0.83,0.71-1.08,0.99c-0.08,0.09-0.07,0.2,0,0.28l0,0l0,0
		c0.25,0.28,0.6,0.67,1.08,0.99c0.44,0.3,0.98,0.53,1.64,0.57c-0.47,0.86-0.74,1.84-0.74,2.81c0,1.47,0.63,2.93,2.15,3.8
		c-1.98,1.59-2.61,3.74-2.61,5.36c0,0.42,0.04,0.81,0.11,1.15c-0.69,0.06-1.13,0.59-1.13,1.12C0.36,161.04,0,161.47,0,161.97
		c0,0.5,0.36,0.93,0.87,1.07c0,0.53,0.44,1.06,1.13,1.12c-0.07,0.34-0.12,0.72-0.12,1.15c0,1.62,0.62,3.77,2.6,5.36
		c-1.52,0.86-2.15,2.32-2.15,3.79c0,0.96,0.26,1.95,0.74,2.81c-0.66,0.04-1.2,0.28-1.64,0.58c-0.47,0.32-0.83,0.71-1.08,0.99
		c-0.07,0.09-0.07,0.2,0,0.28l0,0c0.25,0.28,0.6,0.67,1.08,0.99c0.44,0.3,0.98,0.54,1.64,0.57c-0.47,0.86-0.74,1.85-0.74,2.81
		c0,1.47,0.63,2.93,2.15,3.8c-1.98,1.59-2.6,3.74-2.6,5.36c0,0.42,0.04,0.81,0.11,1.15c-0.7,0.06-1.13,0.59-1.13,1.12
		C0.36,195.05,0,195.48,0,195.98c0,0.5,0.36,0.93,0.87,1.07c0,0.53,0.44,1.06,1.13,1.11c-0.07,0.34-0.12,0.72-0.12,1.15
		c0,1.62,0.62,3.77,2.6,5.36c-1.52,0.86-2.15,2.32-2.15,3.79c0,0.96,0.27,1.95,0.73,2.81c-0.66,0.04-1.2,0.28-1.64,0.57
		c-0.47,0.32-0.83,0.71-1.08,0.99c-0.07,0.08-0.07,0.2,0,0.28l0,0c0.25,0.28,0.6,0.67,1.08,0.99c0.44,0.3,0.98,0.54,1.64,0.57
		c-0.47,0.86-0.74,1.85-0.74,2.81c0,1.47,0.63,2.93,2.15,3.8c-1.98,1.59-2.6,3.74-2.6,5.35c0,0.42,0.04,0.81,0.11,1.15
		c-0.69,0.06-1.13,0.59-1.13,1.12C0.36,229.06,0,229.49,0,229.99c0,0.5,0.36,0.93,0.87,1.07c0,0.53,0.44,1.06,1.14,1.12
		c-0.07,0.34-0.12,0.72-0.12,1.15c0,1.62,0.62,3.77,2.6,5.36c-1.52,0.87-2.15,2.32-2.15,3.8c0,0.96,0.26,1.95,0.74,2.81
		c-0.66,0.04-1.2,0.28-1.64,0.57c-0.47,0.32-0.83,0.71-1.08,0.99l0,0l0,0c-0.07,0.09-0.07,0.2,0,0.28l0,0
		c0.25,0.28,0.6,0.67,1.08,0.99c0.44,0.3,0.98,0.54,1.64,0.58c-0.47,0.86-0.74,1.85-0.74,2.81c0,1.47,0.63,2.93,2.15,3.8
		c-1.98,1.59-2.6,3.74-2.6,5.36c0,0.42,0.04,0.81,0.11,1.15c-0.7,0.06-1.13,0.59-1.13,1.12C0.36,263.07,0,263.5,0,264
		c0,0.5,0.36,0.93,0.87,1.06c0,0.53,0.44,1.06,1.13,1.12c-0.07,0.34-0.12,0.72-0.12,1.15c0,1.62,0.62,3.77,2.6,5.36
		c-1.52,0.87-2.15,2.32-2.15,3.8c0,0.96,0.26,1.95,0.73,2.81c-0.66,0.04-1.2,0.28-1.64,0.58c-0.47,0.32-0.83,0.72-1.08,1
		c-0.07,0.08-0.07,0.2,0,0.28c0.25,0.28,0.6,0.67,1.08,0.99c0.44,0.3,0.98,0.54,1.64,0.58c-0.47,0.86-0.74,1.85-0.74,2.81
		c0,1.47,0.63,2.93,2.15,3.79c-1.98,1.59-2.6,3.74-2.6,5.36c0,0.42,0.04,0.81,0.11,1.15c-0.69,0.06-1.13,0.59-1.13,1.12
		C0.36,297.09,0,297.53,0,298.03c0,0.5,0.36,0.93,0.87,1.07c0,0.53,0.44,1.06,1.13,1.11c-0.07,0.34-0.12,0.72-0.12,1.15
		c0,1.62,0.62,3.77,2.6,5.36c-1.58,0.89-2.26,2.42-2.26,3.95c0,0.97,0.27,1.96,0.77,2.81c-1.31,0.75-1.91,2.04-1.91,3.26
		c0,0.34,0.04,0.68,0.13,1c-0.39,0.41-0.62,0.93-0.75,1.49c-0.14,0.58-0.17,1.2-0.17,1.79c0,0.4,0.02,0.8,0.03,1.16
		c0.01,0.31,0.02,0.59,0.02,0.83c0,0.14,0,0.27-0.01,0.38c-0.01,0.07,0.02,0.14,0.08,0.18l0,0l0.06,0.04
		c0.05,0.02,0.1,0.03,0.15,0.03h0h0c0.12-0.01,0.26-0.01,0.41-0.01c0.26,0,0.57,0.01,0.9,0.02c0.39,0.01,0.81,0.03,1.25,0.03
		c0.65,0,1.32-0.03,1.95-0.16c0.61-0.12,1.17-0.33,1.62-0.7c0.35,0.08,0.71,0.12,1.08,0.12c1.34,0,2.73-0.56,3.55-1.75
		c0.92,0.45,1.99,0.7,3.04,0.7c1.67,0,3.32-0.63,4.29-2.06c1.72,1.81,4.05,2.38,5.81,2.38c0.45,0,0.87-0.04,1.23-0.1
		c0.05,0.61,0.61,1.03,1.2,1.04c0.15,0.46,0.61,0.8,1.18,0.8h0c0.56,0,1.03-0.34,1.18-0.8c0.6-0.01,1.15-0.43,1.21-1.04
		c0.36,0.07,0.78,0.1,1.23,0.1c1.76,0,4.09-0.58,5.81-2.38c0.94,1.38,2.52,1.97,4.12,1.96c1.04,0,2.1-0.24,3.04-0.67
		c0.08,1.25,1.12,2.05,1.7,2.49c0.1,0.07,0.24,0.08,0.34,0c0.58-0.44,1.62-1.24,1.7-2.49c0.93,0.42,1.99,0.67,3.04,0.67
		c1.6,0,3.18-0.58,4.12-1.97c1.72,1.81,4.05,2.38,5.81,2.38c0.45,0,0.87-0.04,1.23-0.1c0.05,0.61,0.6,1.03,1.2,1.04
		c0.15,0.46,0.62,0.8,1.18,0.8c0.57,0,1.03-0.34,1.18-0.8c0.59-0.01,1.15-0.43,1.21-1.04c0.36,0.07,0.78,0.1,1.23,0.1
		c1.76,0,4.09-0.58,5.81-2.38c0.94,1.38,2.52,1.97,4.12,1.97c1.05,0,2.11-0.24,3.04-0.67c0.08,1.25,1.11,2.05,1.69,2.49l0,0l0,0
		c0.1,0.07,0.24,0.07,0.34,0l0,0c0.58-0.44,1.61-1.24,1.69-2.49c0.93,0.42,1.99,0.67,3.03,0.67c1.6,0,3.18-0.58,4.12-1.97
		c1.72,1.81,4.05,2.38,5.81,2.38c0.45,0,0.87-0.04,1.23-0.1c0.05,0.61,0.61,1.03,1.2,1.04c0.15,0.46,0.61,0.8,1.18,0.8
		c0.57,0,1.04-0.34,1.18-0.8c0.59-0.01,1.15-0.43,1.2-1.04c0.36,0.07,0.78,0.1,1.23,0.1c1.76,0,4.08-0.58,5.8-2.38
		c0.94,1.38,2.52,1.97,4.12,1.96c1.04,0,2.1-0.24,3.04-0.67c0.08,1.25,1.11,2.05,1.69,2.49c0.1,0.08,0.25,0.08,0.34,0
		c0.58-0.44,1.61-1.24,1.7-2.49c0.93,0.43,1.99,0.67,3.03,0.67c1.6,0,3.18-0.58,4.11-1.97c1.72,1.8,4.05,2.38,5.81,2.38
		c0.45,0,0.87-0.04,1.23-0.1c0.05,0.61,0.61,1.03,1.2,1.04c0.15,0.46,0.61,0.8,1.18,0.8c0.56,0,1.03-0.34,1.18-0.81
		c0.6-0.01,1.15-0.43,1.2-1.04c0.36,0.07,0.78,0.1,1.23,0.1c1.76,0,4.08-0.58,5.81-2.38c0.94,1.38,2.52,1.97,4.12,1.97
		c1.04,0,2.1-0.24,3.04-0.67c0.08,1.25,1.11,2.05,1.7,2.49c0.1,0.07,0.24,0.07,0.34,0c0.58-0.44,1.61-1.24,1.7-2.49
		c0.93,0.43,1.99,0.67,3.03,0.67c1.6,0,3.18-0.58,4.12-1.97c1.72,1.81,4.05,2.38,5.81,2.38c0.45,0,0.87-0.04,1.23-0.1
		c0.06,0.61,0.61,1.03,1.2,1.04c0.15,0.46,0.62,0.8,1.19,0.8c0.57,0,1.03-0.34,1.18-0.8c0.59-0.01,1.15-0.43,1.2-1.04
		c0.36,0.07,0.78,0.1,1.23,0.1c1.76,0,4.09-0.58,5.81-2.38c0.94,1.38,2.51,1.97,4.12,1.96c1.04,0,2.1-0.24,3.04-0.67
		c0.08,1.25,1.12,2.05,1.7,2.49c0.1,0.07,0.25,0.08,0.35,0c0.58-0.44,1.62-1.24,1.71-2.49c0.93,0.43,1.99,0.67,3.03,0.67
		c1.6,0,3.18-0.58,4.12-1.97c1.72,1.81,4.05,2.38,5.81,2.38c0.45,0,0.87-0.04,1.23-0.1c0.05,0.61,0.61,1.03,1.2,1.04
		c0.15,0.46,0.62,0.8,1.18,0.8h0c0.57,0,1.03-0.34,1.18-0.8c0.59-0.01,1.15-0.43,1.2-1.04c0.36,0.07,0.78,0.1,1.23,0.1
		c1.76,0,4.09-0.58,5.81-2.38c0.97,1.43,2.62,2.07,4.29,2.07c1.05,0,2.11-0.25,3.04-0.7c0.81,1.19,2.21,1.75,3.55,1.75
		c0.37,0,0.73-0.04,1.08-0.12c0.45,0.36,1.01,0.57,1.62,0.69c0.63,0.13,1.31,0.16,1.95,0.16c0.43,0,0.86-0.01,1.25-0.03
		c0.33-0.01,0.64-0.02,0.9-0.02c0.15,0,0.29,0,0.41,0.01h0c0.08,0,0.15-0.02,0.21-0.06l0,0l0,0c0.05-0.05,0.08-0.11,0.08-0.18
		c-0.01-0.12-0.01-0.25-0.01-0.39c0-0.24,0.01-0.52,0.02-0.83c0.02-0.36,0.03-0.75,0.03-1.15c0-0.6-0.04-1.22-0.17-1.79
		c-0.13-0.56-0.36-1.08-0.76-1.49c0.09-0.33,0.14-0.66,0.14-1c0-1.22-0.6-2.51-1.91-3.26c0.5-0.85,0.77-1.84,0.77-2.81
		c0-1.53-0.68-3.05-2.26-3.95c1.98-1.59,2.61-3.74,2.61-5.36c0-0.42-0.04-0.81-0.12-1.15c0.7-0.05,1.14-0.59,1.14-1.12
		c0.51-0.14,0.87-0.57,0.87-1.07c0-0.5-0.36-0.93-0.87-1.07c0-0.53-0.44-1.06-1.13-1.12c0.07-0.34,0.12-0.72,0.12-1.14
		c0-1.62-0.63-3.77-2.61-5.36c1.52-0.87,2.16-2.32,2.15-3.79c0-0.96-0.27-1.95-0.74-2.81c0.66-0.04,1.2-0.28,1.64-0.58
		c0.47-0.32,0.83-0.72,1.08-1c0.07-0.08,0.07-0.2,0-0.28c-0.25-0.28-0.6-0.67-1.08-1c-0.44-0.3-0.98-0.54-1.64-0.58
		c0.47-0.86,0.74-1.85,0.74-2.81c0-1.47-0.63-2.93-2.15-3.8c1.98-1.59,2.6-3.74,2.6-5.36c0-0.42-0.04-0.81-0.12-1.15
		c0.7-0.05,1.14-0.59,1.14-1.12c0.51-0.13,0.87-0.57,0.87-1.07c0-0.5-0.36-0.93-0.87-1.07c0-0.53-0.44-1.06-1.13-1.12
		c0.07-0.34,0.12-0.72,0.12-1.15c0-1.62-0.63-3.77-2.61-5.36c1.52-0.87,2.15-2.32,2.15-3.8c0-0.97-0.27-1.95-0.74-2.81
		c0.66-0.04,1.2-0.28,1.64-0.57c0.47-0.32,0.83-0.71,1.07-0.99c0.08-0.08,0.08-0.2,0-0.29c-0.25-0.28-0.6-0.67-1.08-0.99
		c-0.44-0.3-0.98-0.54-1.64-0.57c0.47-0.86,0.74-1.85,0.74-2.81c0-1.47-0.63-2.93-2.15-3.79c1.98-1.59,2.61-3.74,2.61-5.36
		c0-0.42-0.04-0.81-0.12-1.15c0.7-0.05,1.14-0.59,1.14-1.12c0.51-0.14,0.87-0.57,0.87-1.07c0-0.5-0.36-0.93-0.87-1.07
		c0-0.53-0.44-1.06-1.14-1.12c0.07-0.34,0.12-0.72,0.12-1.15c0-1.62-0.63-3.77-2.61-5.36c1.52-0.87,2.15-2.32,2.15-3.8
		c0-0.96-0.27-1.95-0.74-2.81c0.66-0.04,1.2-0.28,1.64-0.57c0.47-0.32,0.83-0.71,1.08-0.99v0c0.07-0.08,0.08-0.2,0-0.28
		c-0.25-0.28-0.6-0.67-1.07-0.99c-0.44-0.3-0.98-0.54-1.64-0.57c0.47-0.86,0.74-1.85,0.74-2.81c0-1.47-0.63-2.93-2.15-3.79
		c1.98-1.59,2.61-3.74,2.61-5.36c0-0.42-0.04-0.81-0.12-1.15c0.7-0.05,1.13-0.59,1.14-1.11c0.51-0.14,0.87-0.57,0.87-1.07
		c0-0.5-0.36-0.93-0.87-1.07c0-0.53-0.44-1.06-1.14-1.12c0.07-0.34,0.12-0.72,0.12-1.15c0-1.62-0.62-3.77-2.61-5.36
		c1.52-0.87,2.15-2.32,2.15-3.8c0-0.96-0.27-1.95-0.74-2.81c0.66-0.04,1.2-0.28,1.64-0.57c0.47-0.32,0.83-0.71,1.08-0.99
		c0.07-0.08,0.07-0.2,0-0.28l0,0c-0.25-0.28-0.6-0.67-1.08-0.99c-0.44-0.3-0.98-0.54-1.64-0.58c0.47-0.86,0.74-1.85,0.74-2.81
		c0-1.47-0.63-2.93-2.15-3.79c1.98-1.59,2.61-3.74,2.61-5.36c0-0.42-0.04-0.81-0.12-1.15c0.7-0.05,1.13-0.59,1.14-1.12
		c0.51-0.14,0.87-0.57,0.87-1.07c0-0.5-0.36-0.93-0.87-1.07c0-0.53-0.44-1.06-1.14-1.12c0.07-0.34,0.12-0.72,0.12-1.15
		c0-1.62-0.63-3.77-2.61-5.36c1.52-0.87,2.16-2.32,2.15-3.8c0-0.96-0.27-1.95-0.74-2.81c0.66-0.04,1.2-0.28,1.64-0.57
		c0.47-0.32,0.83-0.71,1.07-0.99c0.08-0.08,0.08-0.2,0-0.28c-0.25-0.28-0.6-0.67-1.08-0.99c-0.44-0.3-0.98-0.53-1.64-0.57
		c0.47-0.86,0.74-1.84,0.74-2.81c0-1.47-0.63-2.93-2.15-3.8c1.98-1.59,2.61-3.74,2.61-5.36c0-0.42-0.04-0.81-0.12-1.14
		c0.7-0.05,1.13-0.59,1.13-1.12c0.51-0.14,0.87-0.57,0.87-1.07c0-0.5-0.36-0.93-0.87-1.07c0-0.53-0.44-1.06-1.14-1.11
		c0.07-0.34,0.12-0.72,0.12-1.15c0-1.62-0.63-3.77-2.61-5.36c1.52-0.87,2.15-2.32,2.15-3.79c0-0.97-0.27-1.95-0.74-2.81
		c0.66-0.04,1.2-0.28,1.64-0.57c0.47-0.32,0.83-0.71,1.07-0.99c0.07-0.08,0.08-0.2,0-0.28c-0.25-0.28-0.6-0.67-1.08-0.99
		c-0.44-0.3-0.98-0.54-1.64-0.58c0.47-0.86,0.74-1.85,0.74-2.81c0-1.47-0.63-2.93-2.15-3.79c1.98-1.59,2.61-3.74,2.61-5.36
		c0-0.42-0.04-0.81-0.12-1.15c0.7-0.05,1.14-0.59,1.14-1.12c0.51-0.14,0.87-0.57,0.87-1.07c0-0.5-0.36-0.93-0.87-1.07
		c0-0.53-0.44-1.06-1.14-1.12c0.07-0.34,0.12-0.72,0.12-1.14c0-1.62-0.63-3.77-2.61-5.36c1.52-0.87,2.15-2.32,2.15-3.79
		c0-0.97-0.27-1.95-0.74-2.81c0.66-0.04,1.2-0.28,1.64-0.57c0.47-0.32,0.83-0.71,1.08-0.99l0,0l0,0c0.07-0.08,0.07-0.2,0-0.28
		c-0.25-0.28-0.6-0.67-1.08-0.99c-0.44-0.3-0.98-0.54-1.64-0.57c0.47-0.86,0.74-1.85,0.74-2.81c0-1.47-0.63-2.93-2.15-3.8
		c1.98-1.59,2.61-3.74,2.61-5.36c0-0.42-0.04-0.81-0.12-1.15c0.7-0.06,1.14-0.59,1.14-1.12c0.51-0.14,0.87-0.57,0.87-1.07
		c0-0.5-0.36-0.93-0.87-1.07c0-0.53-0.44-1.06-1.14-1.12c0.07-0.34,0.12-0.72,0.12-1.14c0-1.62-0.63-3.77-2.6-5.36
		c1.52-0.87,2.15-2.32,2.15-3.8c0-0.96-0.27-1.95-0.74-2.81c0.66-0.04,1.2-0.28,1.64-0.58c0.47-0.32,0.83-0.72,1.08-1
		c0.07-0.08,0.07-0.2,0-0.28c-0.25-0.28-0.6-0.67-1.07-1c-0.44-0.3-0.98-0.54-1.64-0.58c0.47-0.86,0.74-1.85,0.74-2.81
		c0-1.47-0.63-2.93-2.15-3.79c1.98-1.59,2.61-3.74,2.61-5.36c0-0.42-0.04-0.81-0.12-1.15c0.7-0.05,1.13-0.59,1.14-1.12
		c0.51-0.14,0.87-0.57,0.87-1.07c0-0.5-0.36-0.93-0.87-1.07c0-0.53-0.44-1.06-1.14-1.12c0.07-0.34,0.12-0.72,0.12-1.15
		c0-1.62-0.63-3.77-2.61-5.36c1.58-0.9,2.26-2.42,2.26-3.95c0-0.97-0.27-1.96-0.77-2.81c1.31-0.75,1.91-2.04,1.91-3.26
		c0-0.34-0.05-0.68-0.14-1c0.4-0.41,0.63-0.93,0.76-1.49c0.14-0.58,0.17-1.2,0.17-1.8c0-0.39-0.02-0.78-0.03-1.13
		c-0.01-0.31-0.02-0.6-0.02-0.85c0-0.14,0-0.27,0.01-0.39c0.01-0.07-0.02-0.14-0.08-0.18c-0.05-0.05-0.13-0.07-0.21-0.07
		c-0.12,0.01-0.26,0.01-0.42,0.01c-0.26,0-0.57-0.01-0.9-0.02c-0.39-0.01-0.81-0.03-1.25-0.03c-0.65,0-1.32,0.03-1.95,0.16
		c-0.61,0.12-1.17,0.33-1.62,0.69c-0.35-0.08-0.71-0.12-1.08-0.12c-1.34,0-2.73,0.56-3.55,1.75c-0.92-0.45-1.99-0.7-3.04-0.7
		c-1.67,0-3.32,0.63-4.29,2.07c-1.72-1.81-4.05-2.38-5.81-2.38c-0.45,0-0.87,0.04-1.23,0.1c-0.05-0.61-0.61-1.03-1.2-1.04
		c-0.13-0.4-0.5-0.71-0.97-0.78L212.64,0l-0.01,0h0L212.6,0L212.6,0z M225.37,309.89H15.37V14.06h210.01V309.89z"/>
</g>
</svg>
