<?xml version="1.0" encoding="iso-8859-1"?>
<!-- Generator: Adobe Illustrator 25.2.1, SVG Export Plug-In . SVG Version: 6.00 Build 0)  -->
<svg version="1.1" xmlns="http://www.w3.org/2000/svg" xmlns:xlink="http://www.w3.org/1999/xlink" x="0px" y="0px"
	 viewBox="0 0 240.74 323.95" enable-background="new 0 0 240.74 323.95" xml:space="preserve">
<g id="Ornaments">
</g>
<g id="Aya_No.">
</g>
<g id="Quran_Text">
	<path fill-rule="evenodd" clip-rule="evenodd" d="M168.12,212.64c-0.75,0.28-1.59,0.56-2.25,0.81c-0.03,0.03-0.06,0.03-0.09,0.09
		c-0.03,0.06-0.12,0.31-0.16,0.47c-0.03,0.06,0.03,0.06,0.09,0.03c0.09-0.03,0.22-0.09,0.31-0.12c0.53-0.19,1.25-0.44,1.9-0.69
		c0.03-0.03,0.09-0.03,0.09-0.09c0.03-0.09,0.12-0.31,0.16-0.44C168.22,212.64,168.19,212.64,168.12,212.64z M165.48,211.4
		c-0.06,0.16-0.03,0.31,0.09,0.44c0.12,0.09,0.34,0.22,0.53,0.31c-0.09,0.03-0.28,0.12-0.41,0.22l0.03,0.03
		c-0.03,0.09-0.06,0.25-0.09,0.34c0,0.03,0.03,0.06,0.06,0.03c0.37-0.22,1.46-0.5,1.96-0.62c0.03,0,0.19-0.34,0.22-0.41
		c0.03-0.06,0-0.09-0.06-0.06c-0.28,0.06-0.53,0.12-0.87,0.12c-0.41,0-1.06-0.47-1.06-0.53c0-0.09,0.5-0.28,0.59-0.28
		c0.31,0.03,0.38,0.34,0.44,0.34c0.09,0,0.25-0.38,0.28-0.5c0-0.09-0.28-0.41-0.47-0.41C166.38,210.43,165.67,211.02,165.48,211.4z
		 M176.98,207.09c-0.06,0.12-0.34,0.31-0.62,0.31c-0.19,0-0.5-0.31-0.56-0.44c0-0.16,0.28-0.59,0.53-0.56v-0.03
		C176.67,206.41,177.01,207,176.98,207.09z M175.33,207.47c0,0.56,0.53,1,0.97,1c0.37,0,0.75-0.38,0.9-0.81
		c0.03,0.06,0.09,0.19,0.06,0.31c-0.12,1.03-1.81,2.56-2.68,2.93c-1.06,0.44-2.31,0.5-3.43,0.31c-0.16-0.03-0.31,0.19-0.12,0.28
		c1.03,0.37,2.77,0.62,3.74,0.31c1.4-0.47,2.84-2.34,2.9-4.27c0.03-1.06-0.59-2.18-1.22-2.18l0.03-0.06
		C175.74,205.29,175.33,206.81,175.33,207.47z M160.21,202.98c-0.34,0.41-0.78,1.19-0.78,1.71c0,0.19,0.06,0.37,0.16,0.47
		c0.12,0.09,0.31,0.09,0.47,0.12c0.22,0.03,0.5,0.03,0.62,0.12c0.06,0.06,0.06,0.06,0,0.13c-0.56,0.5-1.22,0.65-2.03,0.47
		c-0.28-0.06-0.37,0.22-0.06,0.34c0.65,0.28,1.62,0.4,2.18-0.19c0.28-0.28,0.62-1.03,0.37-1.4c-0.16-0.25-0.5-0.25-0.87-0.28
		c-0.16-0.03-0.31-0.03-0.4-0.19c-0.06-0.12,0-0.28,0.09-0.41l0.25-0.25c0.06-0.03,0.09-0.06,0.19,0c0.03,0.03,0.09,0.06,0.12,0.12
		c0.06,0.09,0.12,0.09,0.16,0v-0.03l0.25-0.56c0.06-0.12,0.06-0.19-0.03-0.28c-0.03-0.03-0.09-0.06-0.12-0.09
		c-0.06-0.03-0.12-0.09-0.19-0.09C160.46,202.7,160.3,202.89,160.21,202.98z M176.17,203.07c0.09,0.12,0.16,0.31,0.12,0.44
		c-0.16,0.16-0.34,0.25-0.56,0.25c-0.19,0-0.5-0.03-0.5-0.28c0-0.25,0.28-0.53,0.5-0.59C175.92,202.88,176.08,202.94,176.17,203.07z
		 M175.83,202.26c-0.16,0.03-0.28,0.09-0.41,0.19c-0.09,0.09-0.19,0.22-0.25,0.37c-0.06,0.12-0.12,0.28-0.16,0.44
		c-0.06,0.16-0.06,0.28-0.06,0.37c0,0.22,0.09,0.37,0.22,0.5s0.31,0.19,0.5,0.19c0.31,0,0.53-0.12,0.69-0.31
		c0.15-0.15,0.22-0.43,0.22-0.68c0-0.09,0-0.2-0.03-0.32c-0.03-0.12-0.06-0.25-0.12-0.38c-0.03-0.12-0.12-0.22-0.22-0.28
		C176.11,202.26,175.99,202.23,175.83,202.26z M169.22,203.63c-0.06,0.12-0.19,0.44-0.19,0.53c0,0.03,0.12,0.19,0.28,0.4
		c0.47,0.69,0.75,1.43,0.59,2.46c-0.03,0.06-0.03,0.16,0,0.16v0.03c0.22,0,0.34-0.78,0.34-1.18c0-0.97-0.41-1.75-0.9-2.37
		C169.31,203.57,169.25,203.57,169.22,203.63z M171.06,201.51c-0.5,0.53-1.46,0.9-2.21,0.87c-0.5,0-0.78-0.12-1.06-0.31
		c-0.06-0.03-0.12-0.03-0.19,0.03c-0.19,0.22-0.4,0.75-0.47,1.09c0,0.06-0.03,0.16,0,0.16c0.03,0,0.09,0,0.09-0.06
		c0.06-0.19,0.16-0.47,0.31-0.66c0.03-0.03,0.06,0,0.09,0c0.31,0.22,0.81,0.34,1.31,0.31c0.69-0.03,1.96-0.47,2.15-1.4v-0.05
		C171.08,201.5,171.07,201.5,171.06,201.51z M171.09,201.49c0.02-0.01,0.03-0.01,0.03-0.01l-0.03-0.03V201.49z M172.4,200.02
		c-0.12,0.19-0.53,0.87-0.53,0.94c0.19,0.25,0.28,0.5,0.34,0.75c0.22,0.94,0.44,2.15,0.66,3.37c0.19,1.09,0.37,2.12,0.5,2.78
		c-0.59,0.44-1.75,0.75-2.77,0.75c-0.72,0-1.68-0.12-2.34-0.78c-0.06-0.09-0.16-0.12-0.22-0.12c-0.09,0-0.19,0.09-0.28,0.25
		c-0.37,0.72-1.18,0.9-1.93,0.97h-0.25c-0.47,0-1.31-0.12-1.53-1.09c-0.25-1.15-0.44-2.49-0.62-3.8c-0.16-1.18-0.31-2.28-0.5-3.24
		c-0.03-0.16-0.09-0.19-0.09-0.19c-0.03,0-0.06,0.03-0.09,0.22c-0.03,0.25-0.09,0.87-0.09,0.97c0.12,0.81,0.28,1.81,0.44,2.8
		c0.12,0.81,0.25,1.59,0.34,2.25c-0.12,1.03-2.65,1.96-4.15,1.96c-1.09,0-1.9-0.31-2.28-0.9c-0.34-0.53-0.31-1.22,0.09-2.06
		c0.03-0.06,0.03-0.09,0-0.12c-0.03,0-0.06,0.03-0.09,0.09c-0.65,1.09-0.78,2.09-0.37,2.84c0.41,0.72,1.28,1.15,2.37,1.15
		c1.03,0,3.83-0.59,4.49-2.03l0.06-0.09v0.12c0.12,1.06,0.44,2.12,1.59,2.18h0.37c0.75,0,1.84-0.12,2.4-1.37l0.06-0.06l0.03-0.06
		l0.03,0.06c0.31,0.65,1.22,1.06,2.46,1.06c0.94,0,1.9-0.22,2.59-0.62c0.47-0.28,0.62-1.53,0.56-1.96c-0.12-0.87-0.31-1.87-0.5-2.87
		c-0.12-0.69-0.25-1.37-0.34-2c-0.03-0.09,0.06-0.22,0.19-0.37c0.06-0.06,0.12-0.16,0.19-0.25c0.03-0.09,0.03-0.16-0.03-0.22
		c-0.41-0.44-0.53-0.75-0.72-1.31v-0.03C172.43,199.99,172.43,199.99,172.4,200.02z M178.45,199.96c-0.03,0-0.06,0.06-0.06,0.16
		l-0.16,0.87c-0.03,0.25-0.03,0.28,0,0.47c0.09,0.56,0.25,1.15,0.34,1.71c0.25,1.25,0.5,2.46,0.72,3.62
		c0.19,0.94,0.31,1.9,0.37,2.74c0,0.16,0.09,0.16,0.12,0c0.12-0.47,0.19-0.97,0.16-1.5c0-0.5-0.19-1.53-0.34-2.34
		c-0.19-1.03-0.44-2.12-0.62-3.06c-0.19-0.87-0.37-1.75-0.47-2.59c0-0.09-0.06-0.12-0.09-0.12L178.45,199.96z M158.15,200.74
		c-0.03,0.03-0.06,0.03-0.09,0.09c-0.03,0.06-0.09,0.34-0.16,0.47c0,0.06,0.03,0.06,0.09,0.03c0.09-0.03,0.22-0.09,0.31-0.16
		c0.5-0.22,2.93-1.12,3.59-1.37h0.03c0.03-0.03,0.09-0.03,0.09-0.09c0.03-0.09,0.09-0.31,0.12-0.44c0.03-0.06,0-0.06-0.06-0.06
		C161.33,199.52,158.81,200.45,158.15,200.74z M174.08,197.34c-0.75,0.31-3.27,1.25-3.93,1.53c-0.03,0.03-0.06,0.03-0.09,0.09
		c-0.03,0.06-0.09,0.34-0.16,0.47c0,0.06,0.03,0.06,0.09,0.03c0.09-0.03,0.22-0.09,0.31-0.16c0.53-0.22,2.93-1.12,3.58-1.4
		l0.03,0.03c0.03-0.03,0.09-0.03,0.09-0.09c0.03-0.09,0.09-0.31,0.12-0.44C174.15,197.34,174.15,197.34,174.08,197.34z
		 M176.98,198.24c-0.06,0.16-0.03,0.31,0.09,0.44c0.12,0.09,0.34,0.22,0.53,0.31c-0.09,0.03-0.28,0.12-0.41,0.22l0.03,0.03
		c-0.03,0.09-0.06,0.25-0.09,0.34c0,0.03,0.03,0.06,0.06,0.03c0.37-0.22,1.47-0.5,1.96-0.62c0.03,0,0.19-0.34,0.22-0.41
		c0.03-0.06,0-0.09-0.06-0.06c-0.28,0.06-0.53,0.12-0.87,0.12c-0.41,0-1.06-0.47-1.06-0.53c0-0.09,0.5-0.28,0.59-0.28
		c0.31,0.03,0.37,0.34,0.44,0.34c0.09,0,0.25-0.37,0.28-0.5c0-0.09-0.28-0.41-0.47-0.41C177.89,197.27,177.17,197.87,176.98,198.24z
		 M177.99,194.44c0.08,0.1,0.21,0.3,0.23,0.65c0,0.1-0.01,0.24-0.02,0.25c-0.01,0.01-0.19-0.07-0.22-0.09
		c-0.07-0.03-0.25-0.1-0.58-0.23c-0.13-0.02,0-0.23,0-0.23c0.05-0.09,0.13-0.21,0.22-0.3l0.12-0.08
		C177.82,194.39,177.94,194.36,177.99,194.44z M177.92,193.83c-0.37,0.06-0.81,0.58-0.99,1.18c-0.08,0.27-0.03,0.42,0.12,0.51
		c0.21,0.13,0.52,0.24,0.88,0.33c-0.42,0.71-1.78,1.62-2.03,1.76c-0.3,0.17-0.24,0.36,0.13,0.19c1.37-0.62,2.04-1.28,2.34-1.85
		c0.09,0.02,0.17,0.05,0.27,0.07c0.17,0.04,0.13,0.06,0.21-0.2c0.04-0.12,0.07-0.21,0.08-0.27l-0.41-0.14l0.04-0.14
		c0.05-0.47-0.07-0.86-0.11-0.98C178.32,193.93,178.14,193.79,177.92,193.83z M146.43,202.76c-0.06,0.12-0.19,0.44-0.19,0.53
		c0,0.03,0.12,0.19,0.28,0.41c0.47,0.69,0.75,1.43,0.59,2.46c-0.03,0.06-0.03,0.16,0,0.16v0.03c0.22,0,0.34-0.78,0.34-1.19
		c0-0.97-0.41-1.75-0.9-2.37C146.53,202.7,146.46,202.7,146.43,202.76z M148.71,201.36c0.09,1.12,0.28,2.09,0.44,3.09
		c0.16,1,0.59,3.65-0.09,4.24c-0.16,0-0.38,0.75-0.25,0.84c0.25,0.16,0.44,0.28,1.03,0.38c0.65,0.06,0.97,0.09,1.22,0.28
		c-1.09,1.09-3.59,2.62-5.18,1.18c-0.47-0.47-1.12-1.18-0.28-3.24c0.09-0.31-0.09-0.25-0.19-0.09c-0.28,0.53-0.81,1.62-0.53,3.12
		c0.41,1.5,1.96,1.93,3.24,1.68c0.94-0.16,2-0.69,3.37-2.18c0.44-0.47,0.09-1.15,0.03-1.28c-0.37-0.53-1.59-0.22-2.09-0.59
		c0.25-0.5,0.37-1,0.44-2.15c0.4,0.87,0.87,1.87,2.4,1.78c1.46-0.09,2.46-0.65,3.4-1.78c0.12-0.12,0.34-1.09,0.16-0.9
		c-0.72,0.78-1.5,1.43-2.68,1.65c-0.84-0.44-1.22-1.09-1.25-1.84c0.19-0.31,1-0.84,1.53-1c0.53-0.16,1-0.19,1.56,0.22v0.06
		c0.09,0.09,0.31-0.09,0.16-0.25c-0.31-0.28-1.03-0.93-2.03-0.72c-0.69,0.19-1.12,0.72-1.56,1.71c-0.38,0.97-0.03,1.47,0.19,1.9
		c-0.53-0.16-0.97-0.53-1.28-1.03c-0.41-0.62-0.62-1.37-1.03-3.49c-0.22-1.03-0.28-1.5-0.41-2.52
		C148.96,199.96,148.71,201.14,148.71,201.36z M150.8,200.83c-0.06,0-0.06,0.03-0.09,0.09c-0.03,0.06-0.09,0.34-0.12,0.47
		c-0.03,0.06,0.03,0.06,0.06,0.03c0.09-0.03,0.22-0.12,0.31-0.16h0.03c0.5-0.22,2.93-1.12,3.58-1.37c0.03-0.03,0.06-0.03,0.09-0.09
		c0.03-0.09,0.09-0.31,0.12-0.44c0-0.06,0-0.06-0.06-0.06C153.98,199.61,151.45,200.55,150.8,200.83z M150.67,197.87
		c-0.75,0.31-3.27,1.25-3.93,1.53c-0.03,0.03-0.06,0.03-0.09,0.09c-0.03,0.06-0.09,0.34-0.16,0.47c0,0.06,0.03,0.06,0.09,0.03
		c0.09-0.03,0.22-0.09,0.31-0.16c0.5-0.22,2.93-1.12,3.59-1.4l0.03,0.03c0.03-0.03,0.09-0.03,0.09-0.09
		c0.03-0.09,0.09-0.31,0.13-0.44C150.76,197.87,150.73,197.87,150.67,197.87z M141.13,206.81c0.06,0.06,0.81,0.69,0.65,0.81
		c-0.09,0.09-0.37,0.34-0.5,0.34c-0.16,0-0.34,0-0.5,0.03c-0.22,0-0.69,0.03-0.69-0.31c0-0.22,0.22-0.69,0.37-0.81
		C140.69,206.72,140.91,206.66,141.13,206.81z M142.94,207.47c0.12,0.16,0.28,0.31,0.38,0.47c0.06,0.09,0.25,0.44,0.12,0.59
		c-0.12,0.16-1-0.25-1.22-0.31c-0.22-0.09,0-0.53-0.03-0.75c0-0.09,0-0.22-0.03-0.28c0-0.06-0.09-0.41-0.06-0.47
		C142.13,206.69,142.88,207.44,142.94,207.47z M135.15,204.66c0.12,0.72,0.34,1.37,0.53,2.06c0.06,0.28,0.22,0.5,0.09,0.78
		c-0.22,0.47-0.87,0.66-1.31,0.78c-0.44,0.16-0.97,0.22-1.43,0.19c-0.22-0.03-0.28-0.09-0.44-0.25c-0.16-0.19-0.22,0.16-0.22,0.28
		c-0.06,0.37-0.06,0.78,0.31,1c0.19,0.09,0.5,0.06,0.72,0.03c0.9-0.12,2.18-0.31,2.49-1.31c0-0.03,0.16-0.47,0.12-0.47
		c0.25,0.62,0.56,1.34,1.06,1.75c0.87,0.72,2.62,0.34,3.74-0.28c0.28-0.16,0.47-0.28,0.78-0.19c0.53,0.12,1.15,0.44,1.62,0.5
		c0.59,0.06,0.59-0.9,0.56-1.34c-0.06-0.84-0.37-1.43-1-2.03c-0.44-0.44-0.94-0.75-1.43-1.09c-0.28-0.22-0.78-0.47-1.15-0.38
		c-0.25,0.06-0.16,0.94-0.12,1.15c0,0.12,0.16,0.28,0.12,0.38c-0.06,0.12-0.12,0.28-0.19,0.4c-0.12,0.28-0.22,0.69-0.22,1.06
		c0,0.25,0.06,0.5,0.12,0.78c0.03,0.16-0.25,0.22-0.44,0.25c-0.65,0.19-1.65,0.22-2.18-0.25c-1.09-0.9-1.37-2.84-1.81-4.18
		c-0.03-0.06-0.16-0.72-0.25-0.75C135.05,203.51,135.11,204.57,135.15,204.66z M130.25,203.01c-0.31,0.03-0.59,0.19-0.72,0.31
		c-0.31,0.25-1.15,0.94-1.56,1.81c-0.22,0.47-0.56,1.25-0.41,2.06c0.09,0.69,0.78,1,1.37,1.03c0.53,0,1.15,0.06,1.71,0.06
		c0.12,0,0.22,0.03,0.31,0.12c-0.75,0.62-1.71,1.22-2.68,1.53c-2.74,0.66-3.24-0.44-3.46-0.78c-0.56-0.9-0.19-2.21-0.09-2.68
		c0.06-0.19,0-0.44-0.19-0.09c-0.34,0.81-0.53,1.87-0.47,2.59c0.19,1.4,1.06,2.21,2.78,2.18c1.75-0.03,4.15-1.5,4.55-2.34
		c0.16-0.31,0.19-0.56,0.19-0.69c-0.03-0.25-0.16-0.62-0.5-0.72c-0.44-0.06-0.93-0.03-1.4-0.03c-0.87,0-1.65-0.41-1.65-0.81
		c-0.03-0.81,0.84-1.87,1.59-2.37c0.34-0.16,0.72-0.37,1.37,0.53c0.09,0.12,0.44-0.75,0.34-0.94c-0.16-0.25-0.37-0.41-0.56-0.59
		c-0.16-0.16-0.34-0.19-0.5-0.19H130.25z M136.95,199.7c-0.75,0.31-2.43,1-3.09,1.28c-0.03,0.03-0.06,0.03-0.09,0.09
		c-0.03,0.09-0.09,0.34-0.16,0.47c0,0.06,0.03,0.06,0.09,0.03c0.09-0.03,0.22-0.09,0.31-0.16h0.03c0.53-0.22,2.09-0.87,2.74-1.12
		c0.03-0.03,0.09-0.03,0.09-0.09c0.03-0.09,0.09-0.31,0.12-0.44C137.01,199.7,136.98,199.7,136.95,199.7z M140.96,200.07
		c0.09,0.09,0.21,0.3,0.23,0.65c0,0.1-0.01,0.24-0.02,0.25c-0.01,0.01-0.19-0.07-0.22-0.09c-0.07-0.03-0.25-0.1-0.58-0.23
		c-0.13-0.02,0-0.23,0-0.23c0.05-0.09,0.13-0.21,0.22-0.29l0.12-0.08C140.79,200.02,140.91,200,140.96,200.07z M140.89,199.46
		c-0.37,0.06-0.81,0.58-0.99,1.18c-0.08,0.27-0.03,0.42,0.12,0.51c0.21,0.13,0.52,0.24,0.88,0.33c-0.42,0.71-1.78,1.62-2.03,1.76
		c-0.3,0.17-0.24,0.36,0.13,0.19c1.37-0.62,2.04-1.27,2.34-1.85c0.09,0.02,0.17,0.05,0.27,0.07c0.16,0.04,0.13,0.06,0.21-0.2
		c0.04-0.12,0.07-0.21,0.08-0.27l-0.41-0.14l0.04-0.14c0.05-0.47-0.07-0.86-0.11-0.98C141.3,199.56,141.12,199.42,140.89,199.46z
		 M131.75,200.33c-0.03,0.03-0.06,0.03-0.09,0.09c-0.03,0.06-0.09,0.34-0.16,0.47c0,0.06,0.03,0.06,0.09,0.03
		c0.09-0.03,0.22-0.09,0.31-0.16h0.03c0.5-0.22,2.09-0.87,2.74-1.12c0.03-0.03,0.09-0.03,0.09-0.09c0.03-0.09,0.09-0.31,0.12-0.44
		c0-0.06,0-0.06-0.06-0.06C134.09,199.36,132.4,200.05,131.75,200.33z M118.96,211.58c-0.03,0.03-0.06,0.03-0.09,0.09
		c-0.03,0.09-0.09,0.34-0.16,0.47c0,0.06,0.03,0.06,0.09,0.03c0.09-0.03,0.22-0.09,0.31-0.16h0.03c0.53-0.22,2.46-1.03,3.12-1.28
		c0.03-0.03,0.09-0.03,0.09-0.09c0.03-0.09,0.09-0.31,0.12-0.44c0-0.06,0-0.06-0.06-0.06C121.68,210.46,119.62,211.3,118.96,211.58z
		 M114.97,204.91c-0.12,0.19-0.28,0.47-0.37,0.65l0.03,0.03c-0.06,0.06-0.06,0.12,0.03,0.16c0.16,0.09,0.44,0.25,0.62,0.34
		c0.06,0.03,0.12,0.03,0.16-0.03c0.12-0.19,0.28-0.44,0.37-0.62c0.06-0.06,0.06-0.12,0-0.16c-0.19-0.12-0.5-0.31-0.69-0.41
		C115.04,204.85,115.01,204.85,114.97,204.91z M122.05,206.72c-0.69,0-1.37-0.25-1.59-0.47h-0.03c0.09-0.22,0.44-0.59,0.72-0.59
		C121.52,205.66,122.02,206.41,122.05,206.72z M119.9,206.53c-0.25,0.44-0.69,0.72-1.18,0.78c-0.37,0.03-0.65-0.06-0.72-0.19
		c-0.09-0.19-0.28-0.56-0.41-0.75c-0.03-0.06-0.09-0.03-0.12,0.03c-0.06,0.19-0.16,0.62-0.22,0.87c0.31,0.47,0.75,1.37,0.81,2.34
		c-0.56,1.09-1.9,1.62-3.06,1.65c-1,0-2.06-0.53-2.06-1.68c0-0.53,0.19-1.15,0.47-1.65c0.03-0.09,0.03-0.19,0-0.22
		c-0.03-0.03-0.12,0-0.19,0.09c-0.44,0.62-0.72,1.46-0.72,2.24c0.03,1.56,1.31,2.28,2.71,2.21c1.4-0.03,2.78-0.97,3.09-2.34
		c0.06-0.37,0.09-0.94,0.06-1.59v-0.06c0.75,0.06,1.28-0.44,1.62-1.25c0.53,0.56,1.53,0.65,2.18,0.65c0.09,0,0.16-0.03,0.19-0.12
		c0.09-0.25,0.25-0.72,0.22-0.9c-0.06-0.66-0.59-2-1.15-2C120.8,204.69,120.31,205.75,119.9,206.53z M121.43,201.06l-0.19,0.35
		c-0.02,0.04-0.04,0.07-0.02,0.11c0.05,0.14,0.1,0.3,0.09,0.39c-0.22,0.21-0.45,0.24-0.62,0.1c-0.11-0.09-0.15-0.26-0.14-0.48
		c0.01-0.16,0.03-0.22-0.11-0.11c-0.18,0.15-0.13,0.13-0.14,0.22c-0.07,0.52-0.29,0.76-0.69,0.79c-0.25,0.02-0.44-0.16-0.26-0.66
		c0.04-0.11-0.04-0.22-0.15,0c-0.38,0.75-0.15,1.18,0.24,1.23c0.32,0.05,0.69-0.13,0.88-0.61c0.15,0.24,0.44,0.31,0.71,0.24
		c0.34-0.09,0.42-0.25,0.51-0.52c0.09-0.27,0.1-0.62-0.03-1.05C121.48,200.99,121.44,201.02,121.43,201.06z M106.93,213.45
		c-0.75,0.31-3.27,1.25-3.93,1.53c-0.03,0.03-0.06,0.03-0.09,0.09c-0.03,0.06-0.09,0.34-0.16,0.47c0,0.06,0.03,0.06,0.09,0.03
		c0.09-0.03,0.22-0.09,0.31-0.16c0.5-0.22,2.93-1.12,3.58-1.4l0.03,0.03c0.03-0.03,0.09-0.03,0.09-0.09
		c0.03-0.09,0.09-0.31,0.12-0.44C106.99,213.45,106.99,213.45,106.93,213.45z M102.29,213.17c-0.75,0.31-3.27,1.25-3.93,1.53
		c-0.03,0.03-0.06,0.03-0.09,0.09c-0.03,0.09-0.09,0.34-0.16,0.47c0,0.06,0.03,0.06,0.09,0.03c0.09-0.03,0.22-0.09,0.31-0.16
		c0.53-0.22,2.93-1.12,3.58-1.37h0.03c0.03-0.03,0.09-0.03,0.09-0.09c0.03-0.09,0.09-0.31,0.12-0.44
		C102.35,213.17,102.35,213.17,102.29,213.17z M105.06,209.28c-0.12,0.19-0.28,0.47-0.37,0.65l0.03,0.03
		c-0.06,0.06-0.06,0.12,0.03,0.16c0.16,0.09,0.44,0.25,0.62,0.34c0.06,0.03,0.12,0.03,0.16-0.03c0.12-0.19,0.28-0.44,0.37-0.62
		c0.06-0.06,0.06-0.12,0-0.16c-0.19-0.12-0.5-0.28-0.69-0.41C105.12,209.22,105.09,209.22,105.06,209.28z M109.58,206l-0.09,1
		c0.53,0.4,1.43,1.62,1.37,1.75c-1,2.74-4.24,3.4-6.36,2.71c-0.38-0.12-0.53,0.22-0.12,0.37c2.37,0.69,5.8,1.22,6.7-2.31
		c0.41-1.62-0.28-2.65-1.34-3.52c-0.05-0.03-0.08-0.05-0.11-0.06C109.6,205.96,109.58,205.98,109.58,206z M101.44,210.43
		c-0.06,0.44-0.31,0.69-0.69,0.69c-0.56,0-1.31-0.56-1.65-1.25l-0.02-0.03h0.05h0.22h0.53C100.38,209.84,100.94,209.9,101.44,210.43
		z M93.37,207.25c0.09,0.19,0.19,0.34,0.31,0.5c0.16,0.22,0.31,0.44,0.41,0.69l0.03,0.06l-0.31-0.06c-0.5-0.12-1.03-0.25-1.47-0.5
		c-0.12-0.06-0.09-0.12-0.03-0.25c0.16-0.22,0.47-0.62,0.75-0.62L93.03,207C93.18,207,93.28,207.09,93.37,207.25z M100.98,206.19
		c0.03,0.06,0.06,0.12,0,0.19c-0.72,1-1.25,1.28-1.62,1.47l-0.12,0.06v-0.06c0.12-0.53,0.41-1.5,0.9-2.06
		c0.09-0.09,0.16-0.12,0.25-0.12v-0.03C100.63,205.66,100.91,205.94,100.98,206.19z M104.78,203.82l-0.22,1.09l0.03,0.03
		c0.44,0.44,0.94,0.9,1.12,1.71c-0.84,1.03-4.08,1.62-5.67,1.81h-0.12l0.09-0.06c0.87-0.69,1.31-1.56,1.4-2.68
		c0.03-0.34-0.12-0.84-0.37-1.09c-0.12-0.12-0.25-0.19-0.37-0.19c-0.19,0-0.41,0.19-0.59,0.53c-0.53,0.93-0.84,1.87-1.03,2.99
		c-0.56,0.25-1.18,0.37-1.9,0.37H96.7c-1.37-0.06-2.4-0.69-3.15-1.84c-0.09-0.12-0.19-0.19-0.28-0.19c-0.12,0-0.25,0.06-0.37,0.19
		c-0.66,0.62-1.15,1.18-0.75,2.37c-0.25,0.87-3.62,2.68-3.99,2.87c-0.19,0.09-0.19,0.12-0.19,0.12c0.03,0.03,0.03,0.03,0.09,0.03
		h0.09c1.96-0.47,3.9-1.09,4.24-2.71v-0.03l0.03,0.03c0.59,0.25,1.22,0.44,2.03,0.53h0.09c0.09,0,0.16-0.03,0.19-0.06
		c0.06-0.09,0.06-0.25,0.06-0.41V209v-0.06l0.06,0.03c0.41,0.28,1.03,0.34,1.62,0.41c0.19,0.03,0.38,0.03,0.59,0.09
		c0.03,0.03,0.03,0.09,0.03,0.12c0.03,0.12,0.03,0.22,0.12,0.22l1.53-0.03v0.03c0.09,1.28,1.31,2.4,2,2.4h0.03
		c0,0,1.52-0.04,0.97-2.46c-0.03-0.12-0.06-0.22-0.12-0.31c0-0.06-0.03-0.09-0.06-0.16l-0.03-0.03h0.03
		c0.16-0.03,3.83-0.69,4.27-1.78c0.66-1.71-0.12-2.78-0.97-3.62c-0.03-0.03-0.06-0.03-0.06-0.03H104.78z M92.56,203.17
		c-0.03,0.06-0.06,0.16-0.09,0.22c-0.03,0.09,0.03,0.19,0.09,0.09c0.06-0.12,0.16-0.22,0.25-0.28c0.25-0.16,0.5-0.22,0.78-0.19
		c0.25,0.03,0.72,0.19,0.72,0.22c0,0.03-1.09,0.59-1.25,0.69c-0.09,0.06-0.19,0.12-0.16,0.22c0.03,0.09,0.12,0.09,0.22,0.06
		c0.41-0.16,0.56-0.12,0.9-0.28l-0.03-0.03c0.47-0.19,0.59-0.44,0.69-0.47c0.03,0,0.09,0,0.12-0.03c0.12-0.12,0.25-0.44,0.25-0.56
		c0-0.06-0.31-0.09-0.41-0.12c-0.28-0.06-0.59-0.22-0.9-0.25C93.28,202.42,92.81,202.64,92.56,203.17z M110.39,202.05l-0.19,0.35
		c-0.02,0.04-0.04,0.07-0.02,0.11c0.05,0.14,0.1,0.3,0.09,0.39c-0.22,0.21-0.45,0.24-0.62,0.1c-0.11-0.09-0.15-0.26-0.14-0.48
		c0.01-0.16,0.03-0.22-0.11-0.11c-0.18,0.15-0.13,0.13-0.14,0.22c-0.06,0.52-0.29,0.76-0.69,0.79c-0.25,0.02-0.44-0.16-0.26-0.66
		c0.04-0.11-0.04-0.22-0.15,0c-0.38,0.75-0.15,1.18,0.24,1.23c0.32,0.05,0.69-0.13,0.88-0.61c0.15,0.24,0.44,0.31,0.71,0.24
		c0.34-0.09,0.42-0.25,0.51-0.53c0.09-0.27,0.1-0.62-0.03-1.05C110.44,201.98,110.4,202.02,110.39,202.05z M104.99,201.06
		l-0.18,0.35c-0.02,0.04-0.04,0.07-0.02,0.11c0.05,0.14,0.1,0.3,0.09,0.39c-0.22,0.21-0.45,0.25-0.62,0.1
		c-0.11-0.09-0.15-0.26-0.14-0.48c0.01-0.16,0.03-0.22-0.11-0.11c-0.18,0.15-0.13,0.13-0.14,0.22c-0.06,0.52-0.29,0.76-0.69,0.78
		c-0.25,0.02-0.44-0.16-0.26-0.66c0.04-0.11-0.04-0.22-0.15,0c-0.38,0.75-0.15,1.18,0.24,1.23c0.31,0.05,0.69-0.13,0.88-0.61
		c0.15,0.24,0.44,0.31,0.71,0.24c0.34-0.09,0.42-0.25,0.51-0.53c0.09-0.27,0.1-0.62-0.03-1.05
		C105.05,200.99,105.01,201.02,104.99,201.06z M110.89,199.46c-0.75,0.31-3.27,1.25-3.93,1.53c-0.06,0-0.06,0.03-0.09,0.09
		c-0.03,0.06-0.09,0.34-0.12,0.47c-0.03,0.06,0.03,0.06,0.06,0.03c0.09-0.03,0.22-0.12,0.31-0.16c0.53-0.22,2.93-1.12,3.58-1.37
		h0.03c0.03-0.03,0.06-0.03,0.09-0.09c0.03-0.09,0.09-0.31,0.12-0.44C110.95,199.46,110.95,199.46,110.89,199.46z M96.08,196.93
		c-0.16,0.22-0.47,0.34-0.81,0.44c-0.25,0.06-0.56,0.12-0.84,0.09v-0.03c0.25-0.31,0.56-0.59,0.9-0.75
		C95.65,196.56,95.9,196.62,96.08,196.93z M92.31,195.25c-0.06,0.12-0.09,0.16-0.16,0.25v0.06c0.12,0.75,0.16,1.37,0.22,1.84
		c-0.03,0.12-0.06,0.19-0.22,0.28c-0.44,0.28-0.87,0.69-0.9,1.28c0,0.41,0.41,0.47,1,0.41c1.43-0.12,2.8-0.37,4.08-0.5
		c0.06-0.09,0.09-0.16,0.19-0.31c0.03-0.03,0.03-0.06,0-0.06c-1.28,0.09-2.74,0.38-4.12,0.47c-0.25,0.03-0.5,0-0.75-0.06
		c-0.09-0.03-0.16-0.12-0.16-0.16c0-0.06,0.03-0.12,0.06-0.16c0.25-0.22,0.59-0.44,0.78-0.69c0.09-0.09,0.09-0.16,0.16-0.25
		c0.22,0.62,0.87,0.5,1.15-0.03l0.03,0.03c0.28,0.25,0.65,0.37,1.03,0.34c0.41-0.03,0.81-0.19,1.12-0.34
		c0.31-0.19,0.56-0.5,0.53-0.87c-0.03-0.34-0.34-0.69-0.78-0.62c-0.44,0.06-1.06,0.81-1.37,1.28c-0.16-0.03-0.28-0.12-0.37-0.31
		c-0.09-0.09-0.12-0.03-0.16,0.03c-0.16,0.34-0.34,0.44-0.56,0.47c-0.25,0-0.41-0.12-0.47-0.41c-0.09-0.4-0.22-1.31-0.28-1.96
		C92.37,195.22,92.31,195.22,92.31,195.25z M87.6,206.88c-0.06,0.12-0.34,0.31-0.62,0.31c-0.19,0-0.5-0.31-0.56-0.44l0.03-0.03
		c0-0.16,0.28-0.59,0.5-0.56C87.29,206.19,87.63,206.78,87.6,206.88z M85.95,207.22c0,0.56,0.53,1,0.97,1c0.38,0,0.75-0.37,0.9-0.81
		c0.03,0.06,0.09,0.19,0.06,0.31c-0.12,1.03-1.81,2.56-2.68,2.93c-1.06,0.44-2.31,0.5-3.43,0.31c-0.16-0.03-0.31,0.19-0.12,0.28
		c1.03,0.37,2.77,0.62,3.74,0.31c1.4-0.47,2.84-2.34,2.9-4.27c0.03-1.06-0.59-2.18-1.22-2.18l0.03-0.06
		C86.36,205.04,85.95,206.57,85.95,207.22z M85.08,202.7c-0.03,0.03-0.06,0.03-0.09,0.09c-0.03,0.09-0.09,0.34-0.16,0.47
		c0,0.06,0.03,0.06,0.09,0.03c0.09-0.03,0.22-0.09,0.31-0.16c0.53-0.22,2.93-1.12,3.58-1.4l0.03,0.03c0.03-0.03,0.09-0.03,0.09-0.09
		c0.03-0.09,0.09-0.31,0.12-0.44c0-0.06,0-0.06-0.06-0.06C88.26,201.48,85.73,202.42,85.08,202.7z M71.76,212.39
		c-0.75,0.28-1.96,0.72-2.62,0.97c-0.03,0.03-0.06,0.03-0.09,0.09c-0.03,0.06-0.12,0.31-0.16,0.47c0,0.06,0.03,0.06,0.09,0.03
		c0.09-0.03,0.22-0.09,0.31-0.12c0.53-0.19,1.59-0.59,2.28-0.84c0.03-0.03,0.09-0.03,0.09-0.09c0.03-0.09,0.12-0.31,0.16-0.44
		C71.86,212.39,71.82,212.39,71.76,212.39z M68.9,211.24c-0.06,0.16-0.03,0.31,0.09,0.44c0.12,0.09,0.34,0.22,0.53,0.31
		c-0.09,0.03-0.28,0.12-0.41,0.22h0.06c-0.03,0.09-0.06,0.25-0.09,0.34c0,0.03,0.03,0.06,0.06,0.03c0.37-0.22,1.46-0.5,1.96-0.62
		c0.03,0,0.19-0.34,0.22-0.4c0.03-0.06,0-0.09-0.06-0.06c-0.28,0.06-0.53,0.12-0.87,0.12c-0.4,0-1.06-0.47-1.06-0.53
		c0-0.09,0.5-0.28,0.59-0.28c0.31,0.03,0.37,0.34,0.44,0.34c0.09,0,0.25-0.37,0.25-0.47c0-0.09-0.25-0.41-0.47-0.41
		C69.8,210.27,69.08,210.87,68.9,211.24z M81.05,206.81c-0.06,0.12-0.34,0.31-0.59,0.31c-0.19,0-0.5-0.31-0.53-0.44
		c0-0.16,0.28-0.56,0.5-0.56C80.77,206.16,81.12,206.72,81.05,206.81z M80.59,205.07c-0.72,0-1.12,1.5-1.09,2.12
		c0,0.53,0.5,0.97,0.94,0.97c0.37,0,0.72-0.34,0.9-0.78c0.03,0.06,0.09,0.19,0.06,0.28c-0.12,1-1.75,2.46-2.62,2.84
		c-1.03,0.44-2.24,0.5-3.3,0.28c-0.16-0.03-0.31,0.19-0.12,0.25c1,0.37,2.71,0.59,3.62,0.28c1.34-0.47,2.74-2.24,2.81-4.15
		c0.03-1.03-0.59-2.12-1.18-2.12V205.07z M63.88,202.79c-0.34,0.41-0.78,1.18-0.78,1.71c0,0.19,0.06,0.37,0.16,0.47
		c0.12,0.09,0.31,0.09,0.47,0.12c0.22,0.03,0.5,0.03,0.62,0.12c0.06,0.06,0.06,0.06,0,0.12c-0.56,0.5-1.22,0.65-2.03,0.47
		c-0.28-0.06-0.37,0.22-0.06,0.34c0.66,0.28,1.62,0.41,2.18-0.19c0.28-0.28,0.62-1.03,0.37-1.4c-0.16-0.25-0.5-0.25-0.87-0.28
		c-0.16-0.03-0.31-0.03-0.41-0.19c-0.06-0.12,0-0.28,0.09-0.41c0.09-0.09,0.19-0.19,0.25-0.25c0.06-0.03,0.09-0.06,0.19,0
		c0.03,0.03,0.09,0.06,0.12,0.12c0.06,0.09,0.12,0.09,0.16,0v-0.03l0.25-0.56c0.06-0.12,0.06-0.19-0.03-0.28
		c-0.03-0.03-0.09-0.06-0.12-0.09c-0.06-0.03-0.12-0.09-0.19-0.09C64.13,202.51,63.97,202.7,63.88,202.79z M80.49,202.73
		c0.09,0.12,0.12,0.28,0.12,0.41c-0.16,0.12-0.34,0.25-0.56,0.25c-0.18,0-0.48-0.03-0.5-0.27c0.01-0.25,0.28-0.51,0.5-0.58
		C80.24,202.54,80.4,202.6,80.49,202.73z M79.78,202.04c-0.12,0.12-0.22,0.25-0.28,0.37c-0.06,0.12-0.12,0.28-0.16,0.44
		c-0.06,0.16-0.06,0.28-0.06,0.37c0,0.25,0.09,0.41,0.22,0.53c0.16,0.12,0.31,0.19,0.5,0.19c0.31,0,0.53-0.12,0.69-0.31
		c0.16-0.19,0.22-0.44,0.22-0.69h0.03c0-0.09,0-0.22-0.03-0.34c-0.03-0.12-0.06-0.25-0.12-0.37c-0.09-0.09-0.16-0.22-0.25-0.28
		c-0.09-0.09-0.22-0.09-0.34-0.09C79.99,201.88,79.9,201.95,79.78,202.04z M72.73,202.92c-0.06,0.12-0.19,0.44-0.19,0.53
		c0,0.03,0.12,0.19,0.28,0.41c0.47,0.69,0.75,1.43,0.59,2.46c-0.03,0.06-0.03,0.16,0,0.16c0.22,0,0.34-0.78,0.34-1.18
		c0-0.97-0.41-1.75-0.9-2.37C72.82,202.86,72.76,202.86,72.73,202.92z M74.66,200.95c-0.5,0.53-1.46,0.9-2.21,0.87
		c-0.5,0-0.78-0.12-1.06-0.31c-0.06-0.03-0.12-0.03-0.19,0.03c-0.19,0.22-0.41,0.75-0.47,1.09c0,0.06-0.03,0.16,0,0.16
		c0.03,0,0.09,0,0.09-0.06c0.06-0.19,0.16-0.47,0.31-0.65c0.03-0.03,0.06,0,0.09,0c0.31,0.22,0.81,0.34,1.31,0.31
		c0.69-0.03,1.96-0.47,2.15-1.4v-0.05C74.69,200.94,74.68,200.94,74.66,200.95z M74.69,200.93c0.02-0.01,0.03-0.01,0.03-0.01
		l-0.03-0.03V200.93z M76,199.74c-0.12,0.16-0.56,0.94-0.53,0.97c0.25,0.34,0.31,0.59,0.34,0.75l0.03,0.03
		c0.37,1.78,0.87,4.8,1.15,6.11c-1,0.75-3.8,1.25-5.08-0.03c-0.25-0.25-0.44-0.12-0.56,0.12c-0.34,0.72-1.18,0.87-1.9,0.94
		c-0.78,0.09-1.56-0.19-1.75-1.06c-0.44-2.12-0.72-4.93-1.12-7.01c-0.03-0.25-0.16-0.31-0.22,0.03c-0.03,0.25-0.09,0.87-0.09,0.97
		c0.25,1.43,0.56,3.58,0.78,5.02c-0.09,1-2.52,1.93-4.05,1.93c-1.75,0-3.15-0.81-2.18-2.9c0.09-0.19-0.03-0.28-0.12-0.09
		c-1.5,2.46-0.03,4.02,2.03,4.02c1.06,0,3.87-0.62,4.52-2.06c0.12,1.09,0.44,2.15,1.62,2.21c0.9,0.03,2.18-0.03,2.81-1.4
		c0.65,1.4,3.62,1.34,5.11,0.47c0.47-0.28,0.62-1.53,0.56-2c-0.22-1.46-0.59-3.3-0.84-4.86c-0.03-0.12,0.22-0.34,0.37-0.59
		c0.03-0.09,0.06-0.16-0.03-0.25c-0.41-0.44-0.53-0.75-0.72-1.31C76.1,199.64,76.04,199.67,76,199.74z M82.58,199.83l-0.16,0.87
		c-0.03,0.25-0.03,0.28,0,0.47c0.09,0.56,0.25,1.15,0.37,1.71c0.25,1.25,0.5,2.46,0.72,3.65c0.19,0.93,0.31,1.9,0.37,2.74
		c0,0.16,0.09,0.16,0.12,0c0.12-0.47,0.19-0.97,0.16-1.5c0-0.5-0.19-1.53-0.34-2.34c-0.19-1.03-0.44-2.12-0.62-3.05
		c-0.19-0.87-0.37-1.75-0.47-2.59c0-0.09-0.06-0.12-0.09-0.12C82.61,199.71,82.58,199.74,82.58,199.83z M61.57,200.92
		c-0.03,0.03-0.06,0.03-0.09,0.09c-0.03,0.09-0.09,0.34-0.16,0.47c-0.03,0.06,0.03,0.06,0.09,0.03c0.09-0.03,0.22-0.09,0.31-0.16
		c0.53-0.22,2.93-1.12,3.59-1.37h0.03c0.03-0.03,0.09-0.03,0.09-0.09c0.03-0.09,0.09-0.31,0.12-0.44c0-0.06,0-0.06-0.06-0.06
		C64.75,199.71,62.22,200.64,61.57,200.92z M77.66,197.27c-0.75,0.31-3.27,1.25-3.93,1.53c-0.03,0.03-0.06,0.03-0.09,0.09
		c-0.03,0.06-0.09,0.34-0.16,0.47c0,0.06,0.03,0.06,0.09,0.03c0.09-0.03,0.22-0.09,0.31-0.16c0.5-0.22,2.93-1.12,3.58-1.37h0.03
		c0.03-0.03,0.09-0.03,0.09-0.09c0.03-0.09,0.09-0.31,0.12-0.44C77.75,197.27,77.72,197.27,77.66,197.27z M81.4,198.18
		c-0.06,0.16-0.03,0.31,0.09,0.44c0.12,0.09,0.34,0.22,0.53,0.31c-0.09,0.03-0.28,0.12-0.41,0.22l0.06-0.03
		c-0.03,0.09-0.06,0.25-0.09,0.34c0,0.03,0.03,0.06,0.06,0.06c0.37-0.22,1.47-0.5,1.93-0.62c0.03,0,0.19-0.34,0.22-0.41
		c0.03-0.06,0-0.09-0.06-0.06c-0.28,0.06-0.53,0.12-0.87,0.12c-0.41,0-1.06-0.47-1.06-0.53c0-0.09,0.5-0.28,0.59-0.28
		c0.31,0.03,0.37,0.34,0.44,0.34c0.09,0,0.28-0.38,0.28-0.47c0-0.09-0.28-0.41-0.47-0.41C82.3,197.21,81.58,197.8,81.4,198.18z
		 M82.7,194.13c0.08,0.1,0.21,0.3,0.23,0.65c0,0.1-0.02,0.24-0.02,0.25c-0.01,0.01-0.19-0.07-0.22-0.09
		c-0.07-0.03-0.25-0.1-0.58-0.23c-0.13-0.02,0-0.23,0-0.23c0.05-0.09,0.13-0.21,0.22-0.3l0.12-0.08
		C82.53,194.08,82.65,194.05,82.7,194.13z M82.63,193.52c-0.37,0.06-0.81,0.58-0.99,1.18c-0.08,0.27-0.03,0.42,0.12,0.51
		c0.21,0.13,0.52,0.24,0.88,0.33c-0.42,0.71-1.78,1.62-2.03,1.76c-0.3,0.17-0.24,0.36,0.13,0.19c1.37-0.62,2.04-1.28,2.34-1.85
		c0.09,0.02,0.17,0.05,0.27,0.07c0.16,0.04,0.13,0.06,0.21-0.2c0.04-0.12,0.07-0.21,0.08-0.27l-0.41-0.14l0.04-0.14
		c0.05-0.47-0.07-0.86-0.11-0.98C83.04,193.61,82.86,193.48,82.63,193.52z M147.07,229.61c0.06,0.16,0.12,0.34,0.19,0.47l0.03,0.06
		h-0.06c-0.34-0.03-1-0.25-1.25-0.5c0-0.19,0.03-0.37,0.16-0.5c0.12-0.16,0.34-0.22,0.44-0.22h0.03
		C146.86,228.92,146.95,229.26,147.07,229.61z M153.99,227.89c0.37,0.28,1.21,1,1.37,1.43c0.03,0.09,0.03,0.22,0,0.28
		c0,0.06-0.06,0.09-0.12,0.12h-0.03c-0.12,0-0.34-0.09-0.59-0.19c-0.25-0.09-0.53-0.22-0.75-0.25h-0.03l0.03-0.03
		c0.09-0.16,0.19-0.94,0.12-1.31l-0.03-0.09L153.99,227.89z M153.68,228.64c-0.16,0.22-0.56,0.5-0.84,0.56c-0.13,0-0.66,0-0.87-0.19
		c-0.09-0.06-0.03-0.25,0-0.38c0.16-0.4,0.53-0.97,0.84-0.97h0.03C153.18,227.74,153.68,228.39,153.68,228.64z M152.37,225.86
		c-0.12,0.03-0.19,0.22-0.19,0.34c-0.03,0.34,0.09,0.75,0.19,0.81l0.03,0.03l-0.03,0.03c-0.37,0.56-0.93,1.87-0.47,2.62l0.03,0.03
		h-0.03c-0.59,0.22-1.34,0.34-2.03,0.34c-0.28,0-0.53-0.03-0.75-0.06c-0.87-0.16-1.53-0.56-2.03-1.25l-0.06-0.09
		c-0.12-0.16-0.22-0.31-0.37-0.31c-0.06,0-0.16,0.03-0.25,0.09c-0.53,0.37-1.31,1.12-0.62,2.21c-0.37,0.72-2.18,1.75-3.05,2.24
		l-0.25,0.16c-0.12,0.06-0.19,0.12-0.19,0.16h0.06c0.03,0,0.12,0,0.22-0.03l0.06,0.09c1.59-0.34,2.78-0.84,3.43-2.31v-0.03h0.03
		c0.44,0.16,1.25,0.37,1.96,0.44c0.03,0,0.12-0.06,0.12-0.47v-0.03h0.03c0.19,0.06,0.72,0.22,1.5,0.22c0.75,0,1.93-0.16,3.15-0.87
		c0.06-0.03,0.16-0.03,0.25-0.03c0.44,0,0.9,0.19,1.34,0.34c0.16,0.06,0.31,0.12,0.47,0.16c0.16,0.03,0.25,0.06,0.34,0.06
		c0.06,0,0.09,0,0.12-0.03c0.47-0.47,0.47-1.65,0.03-2.37c-0.47-0.78-1.9-2.06-2.68-2.4c-0.12-0.06-0.25-0.09-0.31-0.09H152.37z
		 M147.08,223.13c0.08,0.09,0.21,0.3,0.23,0.65c0,0.1-0.02,0.24-0.02,0.25c-0.01,0.01-0.19-0.07-0.22-0.09
		c-0.07-0.03-0.25-0.1-0.58-0.23c-0.13-0.02,0-0.23,0-0.23c0.05-0.09,0.13-0.21,0.22-0.29l0.12-0.08
		C146.91,223.08,147.03,223.05,147.08,223.13z M147.01,222.52c-0.37,0.06-0.81,0.58-0.99,1.18c-0.08,0.27-0.03,0.42,0.12,0.51
		c0.21,0.13,0.52,0.24,0.88,0.33c-0.42,0.71-1.78,1.62-2.03,1.76c-0.29,0.17-0.24,0.36,0.13,0.19c1.37-0.62,2.04-1.27,2.34-1.85
		c0.09,0.02,0.17,0.05,0.27,0.07c0.16,0.04,0.13,0.06,0.21-0.2c0.04-0.12,0.07-0.21,0.08-0.27l-0.41-0.14l0.04-0.14
		c0.05-0.47-0.07-0.86-0.11-0.98C147.42,222.61,147.23,222.48,147.01,222.52z M152.63,222.05c0.08,0.1,0.21,0.3,0.23,0.65
		c0,0.1-0.01,0.24-0.02,0.25c-0.01,0.01-0.19-0.07-0.22-0.09c-0.07-0.03-0.25-0.1-0.58-0.23c-0.13-0.02,0-0.23,0-0.23
		c0.05-0.09,0.13-0.21,0.22-0.3l0.12-0.08C152.45,222,152.57,221.98,152.63,222.05z M152.56,221.44c-0.37,0.06-0.81,0.58-0.99,1.18
		c-0.08,0.27-0.03,0.42,0.12,0.51c0.21,0.13,0.52,0.24,0.88,0.33c-0.42,0.71-1.78,1.62-2.03,1.76c-0.3,0.17-0.24,0.36,0.13,0.19
		c1.37-0.62,2.04-1.27,2.34-1.85c0.09,0.02,0.17,0.05,0.27,0.07c0.16,0.04,0.13,0.06,0.21-0.2c0.04-0.12,0.07-0.21,0.08-0.27
		l-0.41-0.14l0.04-0.14c0.05-0.47-0.07-0.86-0.11-0.98C152.96,221.54,152.78,221.4,152.56,221.44z M124.32,234.28
		c-0.03,0.03-0.06,0.03-0.09,0.09c-0.03,0.06-0.09,0.34-0.16,0.47c-0.03,0.06,0.03,0.06,0.09,0.03c0.09-0.03,0.22-0.09,0.31-0.16
		c0.53-0.22,2.93-1.12,3.58-1.37h0.03c0.03-0.03,0.09-0.03,0.09-0.09c0.03-0.09,0.09-0.31,0.12-0.44c0-0.06,0-0.06-0.06-0.06
		C127.49,233.07,124.97,234,124.32,234.28z M105.23,226.92c-0.12,0.19-0.28,0.47-0.37,0.65l0.03,0.03
		c-0.06,0.06-0.06,0.12,0.03,0.16c0.16,0.09,0.44,0.25,0.62,0.34c0.06,0.03,0.12,0.03,0.16-0.03c0.12-0.19,0.28-0.44,0.37-0.62
		c0.06-0.06,0.06-0.12,0-0.16c-0.19-0.12-0.5-0.28-0.69-0.41C105.3,226.86,105.27,226.86,105.23,226.92z M111.53,226.39l-0.31,1
		c0,0.06,0,0.09,0.03,0.12c0.37,0.44,0.75,0.9,0.93,1.71c-1.12,1.43-3.83,2.31-7.01,2.31c-3.43,0-6.64-0.97-8.57-2.62
		c-0.09-0.06-0.19-0.12-0.25-0.12c-0.03,0-0.06,0-0.06,0.03c-0.03,0-0.03,0.09,0.06,0.28c1.5,2.49,5.55,3.37,8.57,3.37h0.03
		c3.43,0,6.3-1.06,7.23-2.65c0.84-1.47,0.12-2.43-0.56-3.4c-0.03-0.03-0.03-0.06-0.06-0.06
		C111.56,226.36,111.53,226.36,111.53,226.39z M107.48,223.81c-0.75,0.31-4.08,1.4-4.74,1.68c-0.03,0.03-0.06,0.03-0.09,0.09
		c-0.03,0.06-0.16,0.37-0.19,0.53c0,0.06,0.03,0.06,0.09,0.03c0.09-0.03,0.25-0.12,0.34-0.16c0.53-0.19,3.71-1.25,4.36-1.53
		c0.03-0.03,0.09-0.03,0.09-0.09c0.03-0.09,0.12-0.37,0.19-0.5C107.54,223.81,107.54,223.81,107.48,223.81z M129.8,225.12
		c-0.12,0.19-0.28,0.47-0.37,0.66l0.03,0.03c-0.06,0.06-0.06,0.12,0.03,0.16c0.16,0.09,0.44,0.25,0.62,0.34
		c0.06,0.03,0.12,0.03,0.16-0.03c0.12-0.19,0.28-0.44,0.37-0.62c0.06-0.06,0.06-0.12,0-0.16c-0.19-0.12-0.5-0.31-0.69-0.41
		C129.86,225.05,129.83,225.05,129.8,225.12z M136.22,222.97c0.08,0.1,0.21,0.3,0.23,0.65c0,0.1-0.01,0.24-0.02,0.25
		c-0.01,0.01-0.19-0.07-0.22-0.09c-0.07-0.03-0.25-0.11-0.58-0.23c-0.13-0.02,0-0.23,0-0.23c0.05-0.09,0.13-0.21,0.22-0.3l0.12-0.08
		C136.04,222.92,136.16,222.89,136.22,222.97z M136.14,222.36c-0.37,0.06-0.81,0.58-0.99,1.18c-0.08,0.27-0.03,0.42,0.12,0.51
		c0.21,0.13,0.52,0.24,0.88,0.33c-0.42,0.71-1.78,1.62-2.03,1.76c-0.29,0.17-0.24,0.36,0.13,0.19c1.37-0.62,2.04-1.27,2.35-1.85
		c0.09,0.02,0.17,0.05,0.27,0.07c0.16,0.04,0.13,0.06,0.21-0.2c0.04-0.12,0.07-0.21,0.08-0.27l-0.41-0.14l0.04-0.14
		c0.05-0.47-0.07-0.86-0.11-0.98C136.55,222.45,136.37,222.32,136.14,222.36z M128.77,223.03c-0.03,0.06-0.06,0.16-0.09,0.22
		c-0.03,0.09,0.03,0.19,0.09,0.09c0.06-0.09,0.16-0.19,0.25-0.25c0.25-0.16,0.5-0.22,0.78-0.19c0.25,0.03,0.72,0.19,0.72,0.22
		c0,0.06-1.09,0.59-1.25,0.69c-0.09,0.06-0.19,0.12-0.16,0.22c0.03,0.09,0.12,0.09,0.22,0.06c0.41-0.16,0.56-0.12,0.9-0.28
		l-0.03-0.06c0.47-0.19,0.59-0.44,0.69-0.47c0.03,0,0.09,0,0.12-0.03c0.12-0.12,0.25-0.44,0.25-0.56c0-0.06-0.31-0.09-0.41-0.12
		c-0.28-0.06-0.59-0.22-0.9-0.25C129.49,222.28,129.02,222.5,128.77,223.03z M141.21,222c-0.03,0.25-0.09,0.53-0.12,0.78
		c-0.03,0.25-0.03,0.28,0,0.5c0.09,0.44,0.19,0.9,0.31,1.4c0.16,0.72,0.31,1.4,0.47,2.09c0.22,1.15,0.53,2.71,0.66,3.96
		c0,0.16,0.12,0.12,0.12,0c0.25-1.22,0.03-2.46-0.25-3.8c-0.16-0.72-0.31-1.5-0.47-2.18c-0.22-0.94-0.44-1.84-0.56-2.71l0.03-0.03
		c-0.03-0.12-0.06-0.16-0.09-0.16C141.28,221.84,141.24,221.9,141.21,222z M136.66,229.67v0.06h-0.06
		c-0.31-0.06-1.12-0.31-1.25-0.53c0.19-0.47,0.37-0.72,0.56-0.72l0.03-0.03C136.19,228.45,136.41,228.86,136.66,229.67z
		 M116.33,229.26l0.03,0.06l0.03,0.06h-0.06c-0.22,0-1.31-0.06-1.37-0.47c0.16-0.34,0.34-0.53,0.53-0.53h0.03l-0.03-0.06
		C115.83,228.33,116.15,228.92,116.33,229.26z M131.92,228.73h0.03c-0.03,0.28-0.53,0.56-0.81,0.75l-0.09,0.03
		c-0.25,0-0.78-0.34-0.9-0.53c0.16-0.28,0.69-1.15,1.15-1.15C131.58,227.83,131.8,228.14,131.92,228.73z M139.12,221.37
		c-0.12,0.22-0.5,0.9-0.53,0.94c0.25,0.34,0.31,0.62,0.34,0.75c0.09,0.41,0.16,0.81,0.25,1.22c0.19,0.9,0.37,1.78,0.59,2.74
		l0.06,0.28c0.09,0.47,0.22,0.97,0.28,1.46c0.03,0.06,0.03,0.09,0.03,0.12c0.03,0.09,0.03,0.19,0,0.28
		c-0.41,0.28-0.84,0.41-1.34,0.41c-0.65,0-1.25-0.25-1.46-0.41c-0.44-0.28-0.69-0.72-0.97-1.12l-0.09-0.12
		c-0.06-0.09-0.12-0.12-0.19-0.12c-0.34,0-0.97,0.94-1.25,1.4l-0.06,0.09c-0.28,0.47-1,0.78-1.78,0.78c-0.44,0-0.84-0.09-1.22-0.28
		h-0.03v-0.03c0.4-0.78,0.69-1.4,0.37-2.34c-0.12-0.31-0.31-0.66-0.66-0.66c-0.16,0-0.31,0.06-0.47,0.19c-0.62,0.5-1.68,1.78-1,2.96
		v0.03l-0.03,0.03c-0.31,0.19-0.75,0.31-1.22,0.31c-0.72,0-1.31-0.25-1.59-0.69c-0.31-0.47-0.41-0.97-0.53-1.59
		c-0.25-1.31-0.44-2.68-0.59-3.87c-0.09-0.56-0.16-1.09-0.25-1.65c-0.06-0.31-0.09-0.37-0.09-0.37s-0.06,0.03-0.12,0.28
		c-0.06,0.22-0.09,0.5-0.09,0.66c0,0.37,0.06,0.78,0.12,1.18l0.03,0.25c0.06,0.31,0.12,0.62,0.16,0.94c0.03,0.19,0.06,0.4,0.09,0.59
		c0.06,0.25,0.09,0.53,0.16,0.81c0.03,0.28,0.09,0.53,0.12,0.78c0.03,0.16,0.06,0.34,0.09,0.5c0.03,0.25,0.06,0.47,0.09,0.69v0.09
		v0.19c-0.28,0.62-1.22,0.94-2,1h-0.09c-0.38,0-0.99-0.07-1.09-0.47c-0.08-0.29-0.02-0.58,0.2-1.02c0.03,0,0.26,0.01,0.61,0.11
		c0.06-0.09,0.16-0.25,0.28-0.44c0.09-0.16,0.19-0.31,0.28-0.44c0.06-0.12,0.06-0.16,0.06-0.16h-0.03c-0.03,0-0.06,0.03-0.12,0.03
		c-0.03,0.03-0.09,0.03-0.12,0.03c-0.16,0.03-0.34,0.03-0.53,0.03c-1.34,0-2.68-0.53-3.99-1.03c-0.25-0.09-0.5-0.19-0.75-0.28
		c-0.06-0.03-0.12-0.03-0.22-0.03c-0.47,0-1,0.47-1.15,0.87l-0.03,0.06c-0.03,0.09-0.16,0.37-0.09,0.44c0,0,0.06-0.03,0.16-0.09
		c0.28-0.22,0.59-0.31,0.97-0.31c0.56,0,1.09,0.22,1.59,0.4c0.25,0.09,0.5,0.19,0.72,0.25l0.09,0.03l-0.06,0.03
		c-0.97,0.5-3.33,1.15-4.02,1.15c-0.03-0.03-0.06-0.09-0.09-0.22c-0.06-0.25-0.22-0.72-0.59-1.28c-0.22-0.34-0.44-0.5-0.66-0.5
		c-0.16,0-0.31,0.09-0.47,0.25c-0.34,0.34-0.56,0.84-0.65,1.5c-0.06,0.37,0,0.62,0.16,0.81c0.25,0.28,0.69,0.41,1.4,0.41h0.44h0.06
		l-0.03,0.06c-0.75,1.62-2.21,2.56-4.05,2.56c-0.62,0-1.25-0.09-1.87-0.28h-0.09c-0.09,0-0.16,0.03-0.16,0.09
		c0,0.03,0.03,0.09,0.16,0.16c1.18,0.5,2.15,0.72,2.93,0.72c1.65,0,2.81-1,3.68-3.3l0.09-0.12c0.97-0.12,2.15-0.59,3.33-1.06
		c0.22-0.06,0.75-0.28,0.75-0.28c0.28-0.12,0.62-0.25,1.15-0.25c0.16,0,0.37,0.03,0.56,0.06h0.03v0.03
		c-0.09,0.41-0.34,1.5,0.09,2.06c0.16,0.22,0.44,0.34,0.78,0.34c1.31,0,2.43-0.62,2.56-1.43h0.06c0.31,1.12,0.97,1.68,1.96,1.68
		c0.65,0,1.46-0.25,2.37-0.75c0.66,0.34,1.37,0.53,2,0.53c0.9,0,1.62-0.41,2.03-1.15l0.03-0.06l0.03,0.06
		c0.12,0.34,1.34,0.84,2.28,1h0.03c0.12,0,0.16-0.09,0.19-0.25c0-0.09,0.03-0.16,0.06-0.25v-0.03h0.03
		c0.19,0.06,0.62,0.19,1.12,0.19c0.47,0,0.87-0.09,1.22-0.31c0.53-0.31,0.65-1.59,0.53-2.37c-0.06-0.5-0.22-1.28-0.38-1.93
		l-0.06-0.22c-0.12-0.5-0.22-1.09-0.34-1.65l-0.12-0.59c-0.03-0.09,0.06-0.22,0.19-0.37c0.06-0.06,0.12-0.16,0.19-0.25
		c0.03-0.09,0.03-0.16-0.03-0.22c-0.41-0.44-0.53-0.72-0.75-1.31C139.15,221.31,139.15,221.34,139.12,221.37z M119.3,222.13
		c0.08,0.1,0.21,0.3,0.23,0.65c0,0.1-0.02,0.24-0.02,0.25c-0.01,0.01-0.19-0.07-0.22-0.09c-0.07-0.03-0.25-0.11-0.58-0.23
		c-0.13-0.02,0-0.23,0-0.23c0.05-0.09,0.13-0.21,0.22-0.3l0.12-0.08C119.12,222.08,119.25,222.05,119.3,222.13z M119.23,221.52
		c-0.37,0.07-0.81,0.58-0.99,1.18c-0.08,0.27-0.03,0.42,0.12,0.51c0.21,0.13,0.52,0.24,0.88,0.33c-0.42,0.71-1.78,1.62-2.03,1.76
		c-0.29,0.17-0.24,0.36,0.13,0.19c1.37-0.62,2.04-1.27,2.35-1.85c0.09,0.02,0.17,0.05,0.27,0.07c0.17,0.04,0.13,0.06,0.21-0.2
		c0.04-0.12,0.07-0.21,0.08-0.27l-0.41-0.14l0.04-0.14c0.05-0.47-0.07-0.86-0.11-0.98C119.63,221.62,119.45,221.48,119.23,221.52z
		 M137.13,220.13c-0.03,0.06-0.06,0.16-0.09,0.22c-0.03,0.09,0.03,0.19,0.09,0.09c0.06-0.09,0.16-0.19,0.25-0.25
		c0.25-0.16,0.5-0.22,0.78-0.19c0.25,0.03,0.72,0.19,0.72,0.22c0,0.06-1.09,0.59-1.25,0.69c-0.09,0.06-0.19,0.12-0.16,0.22
		c0.03,0.09,0.12,0.09,0.22,0.06c0.41-0.16,0.56-0.12,0.9-0.28l-0.03-0.06c0.47-0.19,0.59-0.44,0.69-0.47c0.03,0,0.09,0,0.12-0.03
		c0.12-0.12,0.25-0.44,0.25-0.56c0-0.06-0.31-0.09-0.4-0.12c-0.28-0.06-0.59-0.22-0.9-0.25
		C137.85,219.38,137.38,219.6,137.13,220.13z M142.93,219.16c0.06,0.09,0.12,0.16,0.12,0.25c-0.09,0.25-0.75,0.47-1,0.53
		c-0.06,0.03-0.31,0.06-0.28,0l-0.03-0.03c0.16-0.22,0.31-0.5,0.53-0.69C142.49,219.04,142.71,218.97,142.93,219.16z M142.33,218.76
		c-0.31,0.28-0.69,0.84-0.87,1.18c-0.12,0-0.34-0.12-0.47-0.19c-0.19-0.09-0.28,0.06-0.34,0.19c-0.16,0.25-0.25,0.47-0.34,0.72
		l-0.09,0.25c0,0.12,0.03,0.16,0.12,0.06l0.03-0.03c0.16-0.19,0.28-0.65,0.4-0.59c0.62,0.38,1.37,0.25,1.96-0.16
		c0.44-0.31,0.78-0.81,0.65-1.34c-0.03-0.22-0.25-0.4-0.47-0.4C142.68,218.44,142.49,218.6,142.33,218.76z"/>
</g>
</svg>
