<?xml version="1.0" encoding="iso-8859-1"?>
<!-- Generator: Adobe Illustrator 25.2.1, SVG Export Plug-In . SVG Version: 6.00 Build 0)  -->
<svg version="1.1" xmlns="http://www.w3.org/2000/svg" xmlns:xlink="http://www.w3.org/1999/xlink" x="0px" y="0px"
	 viewBox="0 0 240.74 323.95" enable-background="new 0 0 240.74 323.95" xml:space="preserve">
<g id="Ornaments">
</g>
<g id="Aya_No.">
</g>
<g id="Quran_Text">
	<path fill-rule="evenodd" clip-rule="evenodd" d="M151.21,126.12c-0.03,0.03-0.06,0.03-0.09,0.09c-0.03,0.06-0.12,0.31-0.16,0.47
		c-0.03,0.06,0.03,0.06,0.09,0.03c0.09-0.03,0.22-0.09,0.31-0.12c0.53-0.19,1.59-0.59,2.28-0.84c0.03-0.03,0.09-0.03,0.09-0.09
		c0.03-0.09,0.12-0.31,0.16-0.44c0.03-0.06,0-0.06-0.06-0.06C153.08,125.44,151.86,125.87,151.21,126.12z M155.76,119.89h-0.03
		c-0.09,0-0.09,0.09-0.16,0.5c-0.06,0.53-0.09,0.56,0.09,0.62c1,0.41,1.59,1.09,1.68,1.96c-0.69,0.31-1.62,0.41-2,0.41
		c-0.41,0-0.34-0.22-0.44-0.22c-0.09,0-0.16,0.12-0.19,0.37c-0.06,0.62-0.03,0.94,0.56,0.9c0.84-0.03,1.87-0.31,2.18-0.59
		c0.16-0.16,0.22-0.9,0.22-1.37c0-1.28-0.9-2.21-1.81-2.56C155.82,119.89,155.79,119.89,155.76,119.89z M147.15,117.92
		c-0.34,0.41-0.78,1.18-0.78,1.71c0,0.19,0.06,0.37,0.16,0.47c0.12,0.09,0.31,0.09,0.47,0.12c0.22,0.03,0.5,0.03,0.62,0.12
		c0.06,0.06,0.06,0.06,0,0.12c-0.56,0.5-1.22,0.65-2.03,0.47c-0.28-0.06-0.37,0.22-0.06,0.34c0.65,0.28,1.62,0.41,2.18-0.19
		c0.28-0.28,0.62-1.03,0.37-1.4c-0.16-0.25-0.5-0.25-0.87-0.28c-0.16-0.03-0.31-0.03-0.41-0.19c-0.06-0.12,0-0.28,0.09-0.41
		c0.09-0.09,0.19-0.19,0.25-0.25c0.06-0.03,0.09-0.06,0.19,0c0.03,0.03,0.09,0.06,0.12,0.12c0.06,0.09,0.12,0.09,0.16,0v-0.03
		l0.25-0.56c0.06-0.12,0.06-0.19-0.03-0.28c-0.03-0.03-0.09-0.06-0.12-0.09c-0.06-0.03-0.12-0.09-0.19-0.09
		C147.4,117.64,147.25,117.83,147.15,117.92z M155.32,117.49c-0.12,0.19-0.28,0.47-0.38,0.65l0.03,0.03
		c-0.06,0.06-0.06,0.12,0.03,0.16c0.16,0.09,0.44,0.25,0.62,0.34c0.06,0.03,0.12,0.03,0.16-0.03c0.12-0.19,0.28-0.44,0.37-0.62
		c0.06-0.06,0.06-0.12,0-0.16c-0.19-0.12-0.5-0.31-0.69-0.41C155.39,117.42,155.35,117.42,155.32,117.49z M153.14,117.05
		c-0.06,0.12-0.19,0.44-0.19,0.53c0,0.03,0.12,0.19,0.28,0.41c0.47,0.69,0.75,1.43,0.59,2.46c-0.03,0.06-0.03,0.16,0,0.16
		c0.22,0,0.34-0.76,0.34-1.17c0-0.96-0.41-1.74-0.9-2.36C153.24,116.99,153.17,116.99,153.14,117.05z M151.3,115.27
		c-0.16,0.22-0.37,0.56-0.47,0.75c-0.03,0.06-0.03,0.12,0,0.19c0.09,0.25,0.28,0.56,0.37,0.69c0.22,2.12,1.09,5.05,1.22,6.2
		c-0.12,0.66-0.9,0.56-1.47-0.28l-0.03-0.03c-0.75-1.06-0.75-4.8-1.34-7.14c-0.09-0.31-0.28,0.47-0.31,0.94
		c0.09,1.19,0.69,4.36,0.81,5.49c-0.65,1.15-4.3,2.21-5.64,1.18c-0.9-0.75-0.41-1.62-0.16-2.12c0.12-0.25,0.06-0.41-0.16-0.16
		c-0.9,1.03-0.97,2.68,0,3.3c1.75,1.12,5.89-0.12,6.08-1.59c0.16,0.72,0.59,1.53,1.28,1.84c0.59,0.25,1.03-0.12,1.12-0.56
		c0.16-0.59,0.16-1.37,0.09-2.06c-0.19-1.53-0.69-3.24-0.9-4.77c0.16-0.19,0.44-0.47,0.47-0.69c0-0.22-0.53-0.44-0.78-1.15
		C151.43,115.15,151.36,115.21,151.3,115.27z M144.57,116.21c-0.06,0-0.06,0.03-0.09,0.09c-0.03,0.06-0.09,0.34-0.12,0.47
		c-0.03,0.06,0.03,0.06,0.06,0.03c0.09-0.03,0.22-0.12,0.31-0.16h0.03c0.53-0.22,2.93-1.12,3.58-1.37c0.03-0.03,0.06-0.03,0.09-0.09
		c0.03-0.09,0.09-0.31,0.12-0.44c0-0.06,0-0.06-0.06-0.06C147.75,114.99,145.22,115.93,144.57,116.21z M157.26,114.46
		c-0.75,0.28-2.5,0.97-3.15,1.22c-0.03,0.03-0.06,0.03-0.09,0.09c-0.03,0.06-0.12,0.31-0.16,0.47c-0.03,0.06,0.03,0.06,0.09,0.03
		c0.09-0.03,0.22-0.09,0.31-0.12c0.53-0.19,2.12-0.87,2.81-1.09c0.03-0.03,0.09-0.03,0.09-0.09c0.03-0.09,0.12-0.31,0.16-0.44
		C157.35,114.46,157.32,114.46,157.26,114.46z M114.86,125.75c-0.12,0.19-0.28,0.47-0.37,0.65l0.03,0.03
		c-0.06,0.06-0.06,0.12,0.03,0.16c0.16,0.09,0.44,0.25,0.62,0.34c0.06,0.03,0.12,0.03,0.16-0.03c0.12-0.19,0.28-0.44,0.37-0.62
		c0.06-0.06,0.06-0.12,0-0.16c-0.19-0.12-0.5-0.28-0.69-0.41C114.92,125.69,114.89,125.69,114.86,125.75z M126.52,126.43
		c-0.03,0.03-0.06,0.03-0.09,0.09c-0.03,0.09-0.09,0.34-0.16,0.47c0,0.06,0.03,0.06,0.09,0.03c0.09-0.03,0.22-0.09,0.31-0.16
		c0.5-0.22,2.93-1.12,3.59-1.37h0.03c0.03-0.03,0.09-0.03,0.09-0.09c0.03-0.09,0.09-0.31,0.12-0.44c0-0.06-0.03-0.06-0.06-0.06
		C129.7,125.22,127.17,126.15,126.52,126.43z M119.31,117.27c-0.06,0.12-0.19,0.44-0.19,0.53c0,0.03,0.12,0.19,0.28,0.41
		c0.47,0.69,0.75,1.43,0.59,2.46c-0.03,0.09-0.06,0.16,0,0.16c0.22,0,0.34-0.78,0.34-1.18c0-0.97-0.41-1.75-0.9-2.37
		C119.37,117.21,119.34,117.17,119.31,117.27z M122.99,117.17c-0.12,0.22-0.28,0.5-0.44,0.72c-0.22-0.16-0.5-0.31-0.69-0.44
		c-0.12-0.06-0.16-0.06-0.22,0.03l-0.03-0.03c-0.12,0.19-0.28,0.44-0.41,0.65c-0.03,0.09-0.03,0.16,0.09,0.22
		c0.19,0.12,0.53,0.31,0.72,0.41c0.06,0.03,0.09,0,0.16-0.06c0.12-0.12,0.25-0.34,0.41-0.62c0.28,0.19,0.53,0.31,0.75,0.44
		c0.06,0.03,0.09,0.03,0.16-0.03c0.12-0.16,0.31-0.47,0.41-0.62c0.06-0.12,0.03-0.16-0.06-0.22c-0.12-0.09-0.5-0.31-0.69-0.44
		C123.05,117.11,123.02,117.11,122.99,117.17z M116.24,116.59c0.08,0.1,0.21,0.3,0.23,0.65c0,0.1-0.01,0.24-0.02,0.25
		c-0.01,0.01-0.19-0.07-0.22-0.09c-0.07-0.03-0.25-0.1-0.58-0.23c-0.13-0.02,0-0.23,0-0.23c0.05-0.09,0.13-0.21,0.22-0.3l0.12-0.08
		C116.06,116.54,116.19,116.51,116.24,116.59z M116.17,115.98c-0.38,0.06-0.81,0.58-0.99,1.18c-0.08,0.27-0.03,0.42,0.12,0.51
		c0.21,0.13,0.52,0.24,0.88,0.33c-0.42,0.71-1.78,1.62-2.03,1.76c-0.29,0.17-0.24,0.36,0.13,0.19c1.37-0.62,2.04-1.27,2.35-1.85
		c0.09,0.02,0.17,0.05,0.27,0.07c0.16,0.04,0.13,0.06,0.21-0.2c0.04-0.12,0.07-0.21,0.08-0.27l-0.41-0.14l0.04-0.14
		c0.05-0.47-0.07-0.86-0.11-0.98C116.57,116.08,116.39,115.94,116.17,115.98z M141.2,115.55l-0.12,0.87c-0.03,0.25-0.03,0.28,0,0.47
		c0.5,2.31,1,4.46,1.12,6.7c0,0.16,0.09,0.16,0.12,0.03c0.12-0.47,0.16-0.97,0.16-1.5c-0.03-1.87-0.87-4.65-1.12-6.61
		c0-0.09-0.06-0.12-0.09-0.12C141.23,115.4,141.2,115.46,141.2,115.55z M138.8,114.68c-0.19,0.31-0.34,0.75-0.34,0.9
		c0.06,0.22,0.16,0.41,0.28,0.62c0.19,1.15,0.5,2.62,0.75,3.93c0.22,1.12,0.41,2.09,0.47,2.62c-0.34,0.41-1.12,0.59-1.53,0.59
		c-0.31,0-0.53-0.06-0.65-0.22c-0.19-0.19-0.19-0.5-0.16-0.72v-0.09h0.09c0.06-0.03,0.12-0.03,0.19-0.03
		c0.22-0.19,0.56-1.22,0.37-1.87c-0.12-0.44-0.62-0.66-1.47-0.66c-0.62,0-1.28,0.12-1.65,0.19c-1.03,0.19-4.55,0.78-7.08,0.78
		c-1.28,0-2.06-0.16-2.4-0.5c0.22-0.69,2.68-2.34,3.83-2.62c0.25-0.16,0.41-0.69,0.37-0.87c0-0.03-0.03-0.03-0.03-0.03
		c-0.93,0.16-2.53,1.28-3.3,1.93c-0.69,0.56-1.4,1.56-1.43,2.37c0.03,0.41,0.97,0.59,1.84,0.65c0.31,0.03,0.62,0.03,0.9,0.03
		c1.93,0,3.8-0.31,5.58-0.59c0.75-0.12,1.53-0.25,2.28-0.34c0.25-0.03,0.53-0.06,0.78-0.06c0.81,0,1.28,0.22,1.34,0.62v0.03h-0.03
		c-3.96,0.75-7.36,1.43-10.48,1.56h-0.65c-1.12,0-2.68-0.09-3.37-0.87c0.03-0.22,0-0.31-0.03-0.34c-0.03-0.03-0.03-0.03-0.06-0.03
		c-0.03,0-0.03,0.03-0.06,0.06c-0.44,0.9-1.62,1.31-2.59,1.31c-0.62,0-1.15-0.16-1.47-0.44h-0.03v-0.03
		c0.06-0.19,0.09-0.28,0.12-0.34c0.03-0.09,0.06-0.12,0.09-0.28c0-0.09,0-0.12-0.03-0.16c0-0.03,0-0.03-0.03-0.03
		c-0.03,0-0.03,0-0.06,0.03c-0.44,0.65-0.87,0.9-1.53,1.15c-1.15,0.4-2.28,0.62-3.3,0.62c-0.72,0-1.31-0.09-1.81-0.31
		c-0.9-0.37-1.18-0.97-0.84-1.87c0.03-0.16,0.03-0.25,0-0.28c-0.03,0-0.09,0.06-0.19,0.19c-0.16,0.25-0.65,1.06-0.37,1.84
		c0.22,0.56,0.81,1.28,2.5,1.43c0.25,0.03,0.47,0.03,0.69,0.03c1.93,0,3.62-0.78,4.46-1.43l-0.06-0.03l0.03-0.03l0.03,0.03
		c0.25,0.5,0.84,0.81,1.65,0.81c1.12,0,2.28-0.56,2.46-1.22l0.03-0.09l0.03,0.09c0.31,0.78,1.53,1.18,3.55,1.18
		c3.02,0,7.2-0.9,9.73-1.43c0.44-0.09,0.84-0.19,1.18-0.25h0.06v0.06c-0.12,0.75-0.28,1.84,0.65,2c0.09,0.03,0.22,0.03,0.31,0.03
		c0.56,0,1.28-0.22,1.68-0.84c0.22-0.31,0.19-1.15,0.16-1.4c-0.06-0.81-0.28-1.87-0.5-2.9c-0.22-0.94-0.41-1.93-0.5-2.74v-0.03
		c0.16-0.16,0.31-0.37,0.37-0.59c0-0.12-0.12-0.25-0.28-0.44c-0.16-0.19-0.37-0.44-0.47-0.72c0,0,0-0.03-0.03-0.03
		C138.83,114.62,138.83,114.65,138.8,114.68z M120.59,115.9c-0.03,0.03-0.06,0.03-0.09,0.09c-0.03,0.06-0.09,0.34-0.16,0.47
		c0,0.06,0.03,0.06,0.09,0.03c0.09-0.03,0.22-0.09,0.31-0.16c0.53-0.22,2.93-1.12,3.58-1.37h0.03c0.03-0.03,0.09-0.03,0.09-0.09
		c0.03-0.09,0.09-0.31,0.12-0.44c0-0.06,0-0.06-0.06-0.06C123.77,114.68,121.25,115.62,120.59,115.9z M137.12,113.12
		c-0.03,0.06-0.06,0.16-0.09,0.22c-0.03,0.09,0.03,0.19,0.09,0.09c0.06-0.09,0.16-0.19,0.25-0.25c0.25-0.16,0.5-0.22,0.78-0.19
		c0.25,0.03,0.72,0.19,0.72,0.22c0,0.06-1.09,0.59-1.25,0.69c-0.09,0.06-0.19,0.12-0.16,0.22c0.03,0.09,0.12,0.09,0.22,0.06
		c0.41-0.16,0.56-0.12,0.9-0.28l-0.03-0.06c0.47-0.19,0.59-0.44,0.69-0.47c0.03,0,0.09,0,0.12-0.03c0.12-0.12,0.25-0.44,0.25-0.56
		c0-0.06-0.31-0.09-0.41-0.12c-0.28-0.06-0.59-0.22-0.9-0.25C137.83,112.37,137.37,112.59,137.12,113.12z M142.7,112.87
		c0.06,0.06,0.12,0.16,0.12,0.25c-0.09,0.22-0.75,0.47-1,0.53c-0.03,0.03-0.31,0.06-0.28,0l-0.03-0.03c0.16-0.22,0.31-0.5,0.53-0.69
		C142.26,112.75,142.48,112.68,142.7,112.87z M142.04,112.47c-0.28,0.28-0.66,0.84-0.84,1.18c-0.12,0-0.34-0.13-0.47-0.19
		c-0.16-0.09-0.25,0.06-0.31,0.19c-0.12,0.22-0.25,0.47-0.34,0.72l-0.09,0.25c0,0.12,0.03,0.16,0.12,0.06
		c0.16-0.19,0.31-0.66,0.41-0.59v-0.03c0.59,0.34,1.37,0.22,1.93-0.19c0.44-0.31,0.78-0.81,0.65-1.34
		c-0.03-0.19-0.25-0.37-0.47-0.37C142.42,112.15,142.2,112.31,142.04,112.47z M109.49,123.16c-0.32,0.12-0.73,0.18-1.11,0.24
		c0.27-0.28,0.62-0.63,0.74-1.05C109.28,122.57,109.43,122.85,109.49,123.16z M109.31,114.37c-0.19,0.31-0.37,0.69-0.41,0.87
		c0.03,0.19,0.19,0.47,0.34,0.75c0.31,1.68,0.5,3.68-0.03,5.52c-0.97-1.9-3.77-4.3-5.58-5.27c-0.16-0.09-0.16,1.28,0.09,1.78
		c0.12,0.28,0.84,0.62,1.22,0.72c0.16,0.03,0.25,0.03,0.44-0.25c1.09,0.94,2.77,2,3.58,3.52c-0.22,0.5-0.53,0.94-1.31,1.59
		c-0.16,0.03-0.41,0.09-0.62,0.12c-0.09,0.03-0.19,0.78-0.12,0.97c0,0.03,0.03,0.03,0.06,0.03c1-0.12,2.43-0.44,2.81-0.56
		c0.25-0.59,0-1.68-0.34-2.21c0.56-1.4,0.75-3.43,0.44-5.67c0.16-0.25,0.31-0.44,0.37-0.62c0.06-0.16-0.66-0.72-0.69-1.12
		c-0.03-0.12-0.06-0.19-0.12-0.19l-0.03-0.03C109.37,114.31,109.34,114.34,109.31,114.37z M110.87,112.09
		c-0.75,0.31-3.27,1.25-3.93,1.53c-0.03,0.03-0.06,0.03-0.09,0.09c-0.03,0.09-0.09,0.34-0.16,0.47c0,0.06,0.03,0.06,0.09,0.03
		c0.09-0.03,0.22-0.09,0.31-0.16c0.5-0.22,2.93-1.12,3.58-1.37h0.03c0.03-0.03,0.09-0.03,0.09-0.09c0.03-0.09,0.09-0.31,0.12-0.44
		C110.96,112.09,110.93,112.09,110.87,112.09z M94.44,125.75c-0.12,0.19-0.28,0.47-0.37,0.65l0.03,0.03
		c-0.06,0.06-0.06,0.12,0.03,0.16c0.16,0.09,0.44,0.25,0.62,0.34c0.06,0.03,0.12,0.03,0.16-0.03c0.12-0.19,0.28-0.44,0.37-0.62
		c0.06-0.06,0.06-0.12,0-0.16c-0.19-0.12-0.5-0.28-0.69-0.41C94.5,125.69,94.47,125.69,94.44,125.75z M99.55,124.28
		c-0.12,0.22-0.28,0.5-0.44,0.72c-0.22-0.16-0.5-0.31-0.69-0.44c-0.12-0.06-0.16-0.06-0.22,0.03l-0.03-0.03
		c-0.12,0.19-0.28,0.44-0.41,0.66c-0.03,0.09-0.03,0.16,0.09,0.22c0.19,0.12,0.53,0.31,0.72,0.41c0.06,0.03,0.09,0,0.16-0.06
		c0.12-0.12,0.25-0.34,0.41-0.62c0.28,0.19,0.53,0.31,0.75,0.44c0.06,0.03,0.09,0.03,0.16-0.03c0.12-0.16,0.31-0.47,0.41-0.62
		c0.06-0.12,0.03-0.16-0.06-0.22c-0.12-0.09-0.5-0.31-0.69-0.44C99.62,124.22,99.59,124.22,99.55,124.28z M102.61,122.22
		c0.34,0.31,0.78,0.69,1.03,1.22l-0.03-0.03c-1.06,3.27-3.71,3.4-5.39,3.02c-0.44-0.09-0.44,0.09-0.06,0.28
		c0.56,0.28,2.68,0.69,3.68,0.31c0.72-0.28,1.31-0.87,1.81-1.9c0.34-0.78,0.53-1.96,0.09-2.87c-0.25-0.56-0.69-0.94-1-1.09
		C102.61,121.1,102.54,122,102.61,122.22z M99.8,120.42l-0.25,0.65c-0.03,0.06-0.03,0.12,0,0.22c0.12,0.34,0.25,0.97,0.19,1.15
		c-0.31,0.09-1,0.06-1.53-0.06c0.09-0.19,0.16-0.4,0.19-0.62c0.06-0.28-0.12-0.31-0.22-0.12c-0.12,0.25-0.25,0.44-0.41,0.59
		c-0.16,0.16-0.34,0.28-0.59,0.44c-0.84,0.47-2.34,0.78-3.68,0.78c-1.4,0-3.71-0.47-2.53-2.84c0.16-0.31-0.03-0.37-0.22-0.09
		c-1.68,2.87,0.22,4.05,2.71,3.96c1.4-0.06,3.21-0.31,4.21-1.34c0.34,0.16,0.75,0.31,1.12,0.37c0.53,0.09,0.94,0.09,1.15-0.53
		c0.28-0.75,0.31-1.75,0.03-2.59l0.03,0.06c-0.03-0.06-0.06-0.16-0.12-0.16C99.86,120.29,99.83,120.32,99.8,120.42z M103.71,119.07
		c-0.75,0.28-1.96,0.72-2.62,0.97c-0.03,0.03-0.06,0.03-0.09,0.09c-0.03,0.06-0.12,0.31-0.16,0.47c-0.03,0.06,0.03,0.06,0.09,0.03
		c0.09-0.03,0.22-0.09,0.31-0.12c0.53-0.19,1.59-0.59,2.28-0.84c0.03-0.03,0.09-0.03,0.09-0.09c0.03-0.09,0.12-0.31,0.16-0.44
		C103.8,119.07,103.77,119.07,103.71,119.07z M97.7,117.91c-0.03,0.06-0.06,0.16-0.09,0.22c-0.03,0.09,0.03,0.19,0.09,0.09
		c0.06-0.09,0.16-0.19,0.25-0.25c0.25-0.16,0.5-0.22,0.78-0.19c0.25,0.03,0.72,0.19,0.72,0.22c0,0.06-1.09,0.59-1.25,0.69
		c-0.09,0.06-0.19,0.12-0.16,0.22c0,0.09,0.09,0.09,0.19,0.06c0.41-0.16,0.56-0.12,0.9-0.28v-0.06c0.47-0.19,0.59-0.44,0.69-0.47
		c0.03,0,0.09,0,0.12-0.03c0.12-0.12,0.25-0.44,0.25-0.56c0-0.06-0.31-0.09-0.41-0.13c-0.28-0.06-0.59-0.22-0.9-0.25
		C98.42,117.16,97.95,117.38,97.7,117.91z M92.65,118.03c-0.03,0.03-0.06,0.03-0.09,0.09c-0.03,0.06-0.09,0.34-0.16,0.47
		c-0.03,0.06,0.03,0.06,0.09,0.03c0.09-0.03,0.22-0.09,0.31-0.16c0.53-0.22,2.93-1.12,3.59-1.37h0.03c0.03-0.03,0.09-0.03,0.09-0.09
		c0.03-0.09,0.09-0.31,0.12-0.44c0-0.06,0-0.06-0.06-0.06C95.83,116.82,93.31,117.75,92.65,118.03z M91.2,112.46h-0.03
		c-0.16,0.25-0.37,0.62-0.5,0.84c-0.06,0.09-0.03,0.16,0.06,0.22c0.22,0.09,0.56,0.31,0.81,0.44c0.09,0.06,0.16,0.06,0.22-0.03
		c0.12-0.22,0.34-0.56,0.47-0.78c0.06-0.06,0.09-0.12,0-0.19c-0.22-0.16-0.59-0.37-0.84-0.53C91.29,112.37,91.23,112.4,91.2,112.46z
		 M93.2,112.18c-0.16,0.25-0.37,0.62-0.5,0.84c-0.06,0.09-0.03,0.16,0.06,0.22c0.22,0.09,0.56,0.31,0.81,0.44
		c0.09,0.06,0.19,0.03,0.22-0.03c0.12-0.22,0.34-0.56,0.47-0.78c0.03-0.06,0.06-0.12-0.03-0.19c-0.22-0.16-0.59-0.37-0.84-0.53
		C93.29,112.09,93.26,112.09,93.2,112.18z M91.95,110.59c-0.16,0.25-0.37,0.62-0.5,0.84c-0.06,0.09-0.03,0.16,0.06,0.22
		c0.22,0.09,0.56,0.31,0.81,0.44c0.09,0.06,0.16,0.06,0.22-0.03c0.12-0.22,0.34-0.56,0.47-0.78c0.03-0.06,0.06-0.12-0.03-0.19
		c-0.22-0.16-0.59-0.37-0.84-0.53C92.04,110.5,92.01,110.5,91.95,110.59z M90.01,125.47c-0.75,0.31-2.43,1-3.09,1.28
		c-0.03,0.03-0.06,0.03-0.09,0.09c-0.03,0.09-0.09,0.34-0.16,0.47c0,0.06,0.03,0.06,0.09,0.03c0.09-0.03,0.22-0.09,0.31-0.16h0.03
		c0.5-0.22,2.09-0.87,2.74-1.12c0.03-0.03,0.09-0.03,0.09-0.09c0.03-0.09,0.09-0.31,0.12-0.44
		C90.07,125.47,90.07,125.47,90.01,125.47z M85.3,125.28c-0.12,0.22-0.28,0.5-0.44,0.72c-0.22-0.16-0.5-0.31-0.69-0.44
		c-0.12-0.06-0.16-0.06-0.22,0.03l-0.03-0.03c-0.12,0.19-0.28,0.44-0.41,0.65c-0.03,0.09-0.03,0.16,0.09,0.22
		c0.19,0.12,0.53,0.31,0.72,0.41c0.06,0.03,0.12,0,0.16-0.06c0.12-0.12,0.25-0.34,0.4-0.62c0.28,0.19,0.53,0.31,0.75,0.44
		c0.06,0.03,0.12,0.03,0.16-0.03c0.12-0.16,0.31-0.47,0.41-0.62c0.06-0.12,0.03-0.16-0.06-0.22c-0.12-0.09-0.5-0.31-0.69-0.44
		C85.36,125.22,85.33,125.22,85.3,125.28z M78.6,126.12c-0.03,0.03-0.06,0.03-0.09,0.09c-0.03,0.09-0.09,0.34-0.16,0.47
		c0,0.06,0.03,0.06,0.09,0.03c0.09-0.03,0.22-0.09,0.31-0.16l0.03,0.03c0.53-0.22,2.12-0.87,2.81-1.15
		c0.03-0.03,0.09-0.03,0.09-0.09c0.03-0.09,0.09-0.31,0.12-0.44c0.03-0.06,0-0.06-0.06-0.06C81,125.15,79.25,125.84,78.6,126.12z
		 M80.81,120.83c0,0.06,0.16,0.81,0.22,1.09v0.03h-0.03c-0.56,0.22-0.96,0.31-1.37,0.31c-0.16,0-0.31,0-0.47-0.03h-0.03v-0.03
		c0.09-0.44,0.93-1.08,1.61-1.36l0.06-0.03V120.83z M88.05,120.54h-0.03c-0.16,0.19-0.34,0.28-0.59,0.28c-0.34,0-0.65-0.22-0.78-0.5
		c0.19-0.5,0.41-0.62,0.59-0.62C87.58,119.7,87.89,120.1,88.05,120.54z M87.08,118.7c-0.69,0.47-1.12,1.81-0.65,2.62
		c0.19,0.31,0.56,0.53,0.94,0.53c0.47,0,0.78-0.31,0.9-0.87l0.03-0.09l0.03,0.06c0.25,0.44,0.34,0.87,0.22,1.25
		c-0.06,0.25-0.22,0.41-0.44,0.5c-0.16,0.06-0.31,0.09-0.47,0.09c-0.28,0-0.53-0.09-0.81-0.19l-0.28-0.09
		c-0.19-0.03-0.28-0.06-0.34-0.06c-0.06,0-0.09,0.03-0.16,0.06c-0.81,0.56-1.68,0.87-2.43,0.87c-0.72,0-1.28-0.25-1.71-0.72
		c-0.5-0.59-0.72-1.96-0.87-3.05l-0.06-0.44c-0.03-0.22-0.06-0.22-0.06-0.22s-0.06,0.06-0.09,0.22c-0.06,0.47-0.06,0.93-0.06,1.12
		v0.06c-0.12,0.06-0.28,0.16-0.47,0.28c-0.41,0.25-0.9,0.53-1.18,0.87c-0.41,0.44-0.69,1.47-0.53,1.68
		c0.09,0.09,0.34,0.19,0.72,0.19c0.37,0,1.28-0.09,1.78-1.09l0.03-0.09l0.03,0.09c0.16,0.69,0.59,1.62,1.47,1.93
		c0.22,0.09,0.53,0.12,0.84,0.12c1,0,2.09-0.44,2.74-1.09h0.09c0.06,0,0.12,0,0.19,0.03c0.12,0.06,0.22,0.09,0.34,0.16
		c0.34,0.12,0.65,0.28,0.93,0.28c0.25,0,0.47-0.09,0.66-0.31c0.41-0.44,0.56-1.71,0.5-2.4c-0.09-0.97-0.72-1.81-1.25-2.21
		c-0.12-0.09-0.25-0.16-0.34-0.16C87.2,118.64,87.14,118.67,87.08,118.7z M86.49,116.36c-0.12,0.19-0.28,0.47-0.37,0.65l0.03,0.03
		c-0.06,0.06-0.06,0.12,0.03,0.16c0.16,0.09,0.44,0.25,0.62,0.34c0.06,0.03,0.12,0.03,0.16-0.03c0.12-0.19,0.28-0.44,0.37-0.62
		c0.06-0.06,0.06-0.12,0-0.16c-0.19-0.12-0.5-0.31-0.69-0.41C86.55,116.3,86.52,116.3,86.49,116.36z M79.48,112.46
		c-0.16,0.25-0.37,0.62-0.5,0.84c-0.03,0.09-0.03,0.16,0.06,0.22c0.22,0.09,0.56,0.31,0.81,0.44c0.09,0.06,0.16,0.06,0.22-0.03
		c0.12-0.22,0.34-0.56,0.47-0.78c0.03-0.06,0.06-0.16-0.03-0.19c-0.22-0.16-0.59-0.37-0.84-0.53
		C79.57,112.37,79.54,112.37,79.48,112.46z M81.85,112.27h-0.03c-0.16,0.25-0.37,0.62-0.5,0.84c-0.06,0.09-0.03,0.16,0.06,0.22
		c0.22,0.09,0.56,0.31,0.81,0.44c0.09,0.06,0.16,0.06,0.22-0.03c0.12-0.22,0.34-0.56,0.47-0.78c0.06-0.06,0.06-0.12,0-0.19
		c-0.22-0.16-0.59-0.37-0.84-0.53C81.94,112.18,81.91,112.18,81.85,112.27z M80.38,110.5h-0.03c-0.16,0.25-0.37,0.62-0.5,0.84
		c-0.06,0.09-0.03,0.16,0.06,0.22c0.22,0.09,0.56,0.31,0.81,0.44c0.09,0.06,0.16,0.06,0.22-0.03c0.12-0.22,0.34-0.56,0.47-0.78
		c0.06-0.06,0.09-0.12,0-0.19c-0.22-0.16-0.59-0.37-0.84-0.53C80.48,110.4,80.45,110.4,80.38,110.5z M76.73,122.97
		c0.06,0.12,0.06,0.28-0.09,0.34c-0.19,0.03-0.84-0.34-1.28-0.44c0.09-0.16,0.09-1.03,0.06-1.4
		C75.79,121.79,76.57,122.54,76.73,122.97z M74.23,121.32l0.1,0.03c0.31,0.15,0.74,0.7,0.74,0.9c-0.16,0.22-0.47,0.44-0.72,0.53
		c-0.25,0-0.75-0.06-0.94-0.22c-0.17-0.14,0.35-1.18,0.75-1.25L74.23,121.32z M69.71,119.17c-0.06,0.34-0.06,0.62-0.03,0.9
		c0.12,0.72,0.34,1.43,0.53,2.12c-0.37,0.94-2.15,1.12-2.56,0.97c-0.19-0.06-0.19-0.31-0.31-0.06c-0.09,0.19-0.41,1.03,0.28,1.15
		c0.84,0.12,1.71-0.19,2.21-0.53c0.37-0.28,0.47-0.62,0.56-1c0.28,0.97,0.69,1.59,1.34,1.84c0.72,0.22,1.87-0.25,2.87-0.81
		c0.59-0.03,1.09,0.25,1.68,0.44c0.22,0.09,0.41,0.09,0.47,0.03c0.47-0.47,0.47-1.65,0.03-2.37c-0.5-0.81-1.9-2.06-2.65-2.37
		c-0.19-0.06-0.31-0.09-0.41-0.06c-0.34,0.09-0.19,1.12,0,1.22c-0.41,0.65-0.94,1.96-0.5,2.68h-0.03c-0.97,0.44-1.75,0.31-2.25-0.65
		c-0.62-1.15-0.72-2.4-1.09-3.59C69.84,118.92,69.74,118.98,69.71,119.17z M64.85,118.83c-0.59,0.28-1.03,0.65-1.34,1.06
		c-0.66,0.81-1.37,2.49-0.66,3.09c0.97,0.75,2.34,0.22,2.62,0.59c-0.69,0.62-2.06,1.25-2.99,1.37c-1.47,0.22-2.81-0.25-3.12-1.56
		c-0.16-0.75,0.16-1.43,0.37-2.09c0.12-0.34-0.03-0.31-0.16-0.16c-0.47,0.59-0.65,1.71-0.69,2.34c-0.06,1.47,0.9,2.28,2,2.49
		c1.68,0.28,4.12-0.69,4.96-1.78c0.37-0.44,0.37-1.47-0.22-1.56c-0.72-0.09-1.78,0.09-2.4-0.5c-0.37-0.37-0.12-0.84,0.22-1.22
		c0.31-0.41,0.84-0.84,1.25-1v-0.06c0.47-0.16,0.81,0.16,1.09,0.53c0.12,0.16,0.12,0.22,0.19,0c0.06-0.22,0.19-0.72,0.16-0.84
		C65.97,119.08,65.38,118.61,64.85,118.83z M70.93,115.96c-0.75,0.28-1.96,0.72-2.62,0.97c-0.03,0.03-0.06,0.03-0.09,0.09
		c-0.03,0.06-0.12,0.31-0.16,0.47c-0.03,0.06,0.03,0.06,0.09,0.03c0.09-0.03,0.22-0.09,0.31-0.12c0.53-0.19,1.59-0.59,2.28-0.84
		c0.03-0.03,0.09-0.03,0.09-0.09c0.03-0.09,0.12-0.31,0.16-0.44C71.02,115.96,70.99,115.96,70.93,115.96z M69.25,115.43
		c-0.75,0.28-1.96,0.72-2.62,0.97c-0.03,0.03-0.06,0.03-0.09,0.09c-0.03,0.06-0.12,0.31-0.16,0.47c-0.03,0.06,0.03,0.06,0.09,0.03
		c0.09-0.03,0.22-0.09,0.31-0.12c0.53-0.19,1.59-0.59,2.28-0.84c0.03-0.03,0.09-0.03,0.09-0.09c0.03-0.09,0.12-0.31,0.16-0.44
		C69.34,115.43,69.31,115.43,69.25,115.43z M74.54,114.62c0.08,0.1,0.21,0.3,0.23,0.65c0,0.1-0.01,0.24-0.02,0.25
		c-0.01,0.01-0.19-0.07-0.22-0.09c-0.07-0.03-0.25-0.1-0.58-0.23c-0.13-0.02,0-0.23,0-0.23c0.05-0.09,0.13-0.21,0.22-0.3l0.12-0.08
		C74.37,114.57,74.49,114.54,74.54,114.62z M74.47,114.01c-0.37,0.06-0.81,0.58-0.99,1.18c-0.08,0.27-0.03,0.42,0.12,0.51
		c0.21,0.13,0.52,0.24,0.88,0.33c-0.42,0.71-1.78,1.62-2.03,1.76c-0.29,0.17-0.24,0.36,0.13,0.19c1.37-0.62,2.04-1.27,2.34-1.85
		c0.09,0.02,0.18,0.05,0.27,0.07c0.16,0.04,0.13,0.06,0.21-0.2c0.04-0.12,0.07-0.21,0.08-0.27l-0.41-0.14l0.04-0.14
		c0.05-0.47-0.07-0.86-0.11-0.98C74.88,114.1,74.69,113.97,74.47,114.01z M179.63,146.73c-0.12,0.22-0.28,0.5-0.44,0.72
		c-0.22-0.16-0.5-0.31-0.69-0.44c-0.12-0.06-0.25,0-0.25,0c-0.12,0.19-0.28,0.44-0.41,0.65c-0.03,0.09-0.03,0.16,0.09,0.22
		c0.19,0.12,0.53,0.31,0.72,0.4c0.06,0.03,0.12,0,0.16-0.06c0.12-0.12,0.25-0.34,0.41-0.62c0.28,0.19,0.53,0.31,0.75,0.44
		c0.06,0.03,0.09,0.03,0.16-0.03c0.12-0.16,0.31-0.47,0.41-0.62c0.06-0.12,0.03-0.16-0.06-0.22c-0.12-0.09-0.5-0.31-0.69-0.44
		C179.69,146.67,179.66,146.67,179.63,146.73z M182.25,147.66c-0.03,0.03-0.06,0.03-0.09,0.09c-0.03,0.06-0.09,0.34-0.16,0.47
		c0,0.06,0.03,0.06,0.09,0.03c0.09-0.03,0.34-0.12,0.34-0.12c0.5-0.22,2.09-0.87,2.74-1.12c0.03-0.03,0.09-0.03,0.09-0.09
		c0.03-0.09,0.09-0.31,0.12-0.44c0-0.06,0-0.06-0.06-0.06C184.58,146.73,182.9,147.38,182.25,147.66z M195.12,146.92
		c-0.03,0.03-0.06,0.03-0.09,0.09c-0.03,0.06-0.09,0.34-0.16,0.47c0,0.06,0.03,0.06,0.09,0.03c0.09-0.03,0.22-0.09,0.31-0.16h0.03
		c0.5-0.22,2.09-0.87,2.74-1.12c0.03-0.03,0.09-0.03,0.09-0.09c0.03-0.09,0.09-0.31,0.12-0.44c0-0.06,0-0.06-0.06-0.06
		C197.46,145.95,195.78,146.64,195.12,146.92z M174.39,140.34c-0.12,0.19-0.28,0.47-0.38,0.65v0.03c-0.06,0.06-0.06,0.12,0.03,0.16
		c0.16,0.09,0.44,0.25,0.62,0.34c0.06,0.03,0.12,0.03,0.16-0.03c0.12-0.19,0.28-0.47,0.38-0.62c0.06-0.06,0.06-0.12,0-0.16
		c-0.16-0.12-0.47-0.28-0.66-0.41C174.45,140.28,174.42,140.28,174.39,140.34z M187.39,140.06c-0.12,0.22-0.28,0.5-0.44,0.72
		c-0.22-0.16-0.5-0.31-0.69-0.44c-0.12-0.06-0.16-0.06-0.22,0.03l-0.03-0.03c-0.12,0.19-0.28,0.44-0.41,0.65
		c-0.03,0.09-0.03,0.16,0.09,0.22c0.19,0.12,0.53,0.31,0.72,0.41c0.06,0.03,0.09,0,0.16-0.06c0.12-0.12,0.25-0.34,0.41-0.62
		c0.28,0.19,0.53,0.31,0.75,0.44c0.06,0.03,0.09,0.03,0.16-0.03c0.12-0.16,0.31-0.47,0.41-0.62c0.06-0.12,0.03-0.16-0.06-0.22
		c-0.12-0.09-0.5-0.31-0.69-0.44C187.45,139.99,187.42,139.99,187.39,140.06z M183.31,138.62c-0.12,0.22-0.28,0.5-0.44,0.72
		c-0.22-0.16-0.5-0.31-0.69-0.44c-0.12-0.06-0.16-0.06-0.22,0.03l-0.03-0.03c-0.12,0.19-0.28,0.44-0.41,0.66
		c-0.03,0.09-0.03,0.16,0.09,0.22c0.19,0.12,0.53,0.31,0.72,0.41c0.06,0.03,0.12,0,0.16-0.06c0.12-0.12,0.25-0.34,0.4-0.62
		c0.28,0.19,0.53,0.31,0.75,0.44c0.06,0.03,0.12,0.03,0.16-0.03c0.12-0.16,0.31-0.47,0.41-0.62c0.06-0.12,0.03-0.16-0.06-0.22
		c-0.12-0.09-0.5-0.31-0.69-0.44C183.37,138.56,183.34,138.56,183.31,138.62z M191.43,138.22c0.08,0.1,0.21,0.3,0.23,0.65
		c0,0.1-0.02,0.24-0.02,0.25c-0.01,0.01-0.19-0.07-0.22-0.09c-0.07-0.03-0.25-0.1-0.58-0.23c-0.13-0.02,0-0.23,0-0.23
		c0.05-0.09,0.13-0.21,0.22-0.3l0.12-0.08C191.26,138.17,191.38,138.14,191.43,138.22z M191.36,137.61
		c-0.37,0.06-0.81,0.58-0.99,1.18c-0.08,0.27-0.03,0.42,0.12,0.51c0.21,0.13,0.52,0.24,0.88,0.33c-0.42,0.71-1.78,1.62-2.03,1.76
		c-0.29,0.17-0.24,0.36,0.13,0.19c1.37-0.62,2.04-1.27,2.35-1.85c0.09,0.02,0.17,0.05,0.27,0.07c0.16,0.04,0.13,0.06,0.21-0.2
		c0.04-0.12,0.07-0.21,0.08-0.27l-0.41-0.14l0.04-0.14c0.05-0.47-0.07-0.86-0.11-0.98C191.77,137.71,191.58,137.57,191.36,137.61z
		 M172.74,138.4c-0.03,0.03-0.06,0.03-0.09,0.09c-0.03,0.06-0.09,0.34-0.16,0.47c0,0.06,0.03,0.06,0.09,0.03
		c0.09-0.03,0.22-0.09,0.31-0.16h0.03c0.53-0.22,2.46-1.03,3.12-1.28c0.03-0.03,0.09-0.03,0.09-0.09c0.03-0.09,0.09-0.31,0.12-0.44
		c0-0.06,0-0.06-0.06-0.06C175.45,137.28,173.39,138.12,172.74,138.4z M192.44,144.11h-0.03v0.03h-0.12c-0.31,0-1.31-0.06-1.59-0.78
		v-0.03h0.03c0.22-0.16,0.44-0.25,0.65-0.25C191.91,143.08,192.35,143.52,192.44,144.11z M183.74,142.52c0.34,0,0.53,0.41,0.69,0.69
		c0.03,0.06,0.06,0.12,0.09,0.16v0.03l-0.03,0.03c-0.31,0.28-0.66,0.56-1.03,0.75c-0.37-0.19-0.59-0.34-0.9-0.62l-0.03-0.03
		l0.03-0.03c0.47-0.69,0.84-1,1.15-1L183.74,142.52z M195.37,137.41c-0.03,0.09-0.03,0.16,0,0.22c0.03,0.12,0.09,0.28,0.22,0.56
		c0.16,1.65,0.59,3.87,1.03,5.99c-0.16,0.22-0.41,0.31-0.69,0.31c-0.53,0-1.22-0.44-1.4-1.37c-0.28-1.37-0.47-2.53-0.62-3.65
		c-0.12-0.87-0.22-1.68-0.37-2.56c-0.03,0.03-0.19,0.41-0.25,1c0.12,0.94,0.25,1.62,0.5,3.34l0.09,0.59
		c-0.31,0.56-0.75,0.81-1.28,0.81c-0.22,0-0.44-0.03-0.72-0.12c-0.12-0.03-0.22-0.03-0.31-0.03c-0.75,0-1.18,0.84-1.5,1.4
		c-0.19,0.34-0.37,0.5-0.59,0.5c-0.22,0-0.47-0.19-0.78-0.4c-0.09-0.06-0.19-0.16-0.31-0.22c-0.09-0.06-0.16-0.09-0.25-0.09
		c-0.12,0-0.25,0.09-0.37,0.19l-0.06,0.06c-0.66,0.47-1.43,0.75-2.24,0.75c-0.44,0-0.87-0.09-1.19-0.25l-0.03-0.03l0.03-0.03
		c0.22-0.22,0.72-0.84,0.53-1.75c-0.19-0.75-0.5-1.15-0.9-1.15c-0.31,0-0.69,0.25-1.09,0.75c-0.31,0.41-0.84,1.4-0.41,2.31v0.03
		h-0.03c-0.31,0.12-0.69,0.19-1.03,0.19c-0.72,0-1.25-0.28-1.53-0.75c-0.22-0.41-0.34-0.94-0.5-1.93c-0.12-0.69-0.28-0.94-0.38-0.94
		c-0.03,0-0.09,0.03-0.19,0.34c-0.12,0.53-0.56,1.18-1.37,1.18c-0.19-0.03-0.22-0.06-0.34-0.25c-0.09-0.16-0.16-0.28-0.22-0.41
		c-0.03-0.06-0.06-0.12-0.09-0.19c-0.03-0.03-0.03-0.06-0.03-0.06v0.06c-0.09,0.28-0.19,0.94-0.16,1c0.37,0.69,0.69,1.4,0.72,2.43
		c-0.09,1.03-1.56,1.75-2.81,1.75c-0.87,0-1.56-0.31-1.93-0.9c-0.25-0.44-0.19-0.94,0.22-2.12c0.03-0.09,0.03-0.19-0.03-0.22
		c-0.03,0-0.09,0.06-0.16,0.16c-0.66,1.25-0.81,2.99,0.25,3.68c0.37,0.25,0.9,0.41,1.5,0.41c1,0,2.03-0.41,2.56-1l0.12-0.15
		c0.78-0.81,0.47-2,0.38-3.18v-0.03h0.03c0.84-0.16,1.12-0.81,1.25-1.09c0.03-0.12,0.06-0.16,0.09-0.16c0.06,0,0.06,0.03,0.09,0.22
		c0.03,0.12,0.03,0.25,0.06,0.37c0.12,0.84,0.28,1.78,0.84,2.31c0.34,0.31,0.81,0.47,1.34,0.47c0.62,0,1.34-0.22,2.06-0.59
		c0.72,0.31,1.4,0.47,2.03,0.47c1.15,0,2-0.53,2.49-0.94c0.06-0.06,0.16-0.09,0.22-0.09c0.09,0,0.19,0.03,0.28,0.12
		c0.5,0.41,0.81,0.56,1.03,0.56c0.37,0,0.65-0.47,1.15-1.28l0.06-0.09v0.09c0.16,0.87,1.15,1.09,1.71,1.09
		c0.19,0,0.34-0.03,0.47-0.06c0.09-0.06,0.34-1.06,0.12-1.59v-0.03h0.03c0.56-0.19,0.94-0.56,1.15-1.19l0.03-0.12l0.03,0.12
		c0.06,0.25,0.09,0.47,0.12,0.69c0.25,1.4,0.34,2.06,1.4,2.43c0.19,0.06,0.34,0.09,0.5,0.09c0.25,0,0.5-0.09,0.65-0.28
		c0.47-0.56,0.38-1.65,0.34-2c-0.09-0.62-0.22-1.22-0.37-2c-0.16-0.75-0.34-1.65-0.53-2.87l0.34-0.5c0-0.03,0-0.06-0.09-0.19
		c-0.09-0.12-0.28-0.41-0.53-0.94C195.71,136.69,195.53,137.03,195.37,137.41z M187.58,136.85l-0.19,0.35
		c-0.02,0.04-0.04,0.07-0.02,0.11c0.05,0.14,0.1,0.3,0.09,0.39c-0.22,0.21-0.45,0.24-0.62,0.1c-0.11-0.09-0.15-0.26-0.14-0.48
		c0.01-0.16,0.03-0.22-0.11-0.11c-0.18,0.15-0.13,0.13-0.14,0.22c-0.06,0.52-0.29,0.76-0.69,0.78c-0.25,0.02-0.44-0.16-0.26-0.66
		c0.04-0.11-0.04-0.22-0.15,0c-0.38,0.75-0.15,1.18,0.24,1.23c0.32,0.05,0.69-0.13,0.88-0.61c0.15,0.24,0.44,0.31,0.71,0.24
		c0.34-0.09,0.42-0.25,0.51-0.52c0.09-0.27,0.1-0.62-0.03-1.05C187.63,136.78,187.59,136.82,187.58,136.85z M191.44,134.91
		c-0.03,0.06-0.06,0.16-0.09,0.22c-0.03,0.09,0.03,0.19,0.09,0.09c0.06-0.12,0.16-0.22,0.25-0.28c0.25-0.16,0.5-0.22,0.78-0.19
		c0.25,0.03,0.72,0.19,0.72,0.22c0,0.06-1.09,0.59-1.25,0.69c-0.09,0.06-0.19,0.12-0.16,0.22c0.03,0.09,0.12,0.09,0.22,0.06
		c0.4-0.16,0.56-0.12,0.9-0.28l-0.03-0.03c0.47-0.19,0.59-0.44,0.69-0.47c0.03,0,0.09,0,0.12-0.03c0.12-0.12,0.25-0.44,0.25-0.56
		c0-0.06-0.31-0.09-0.41-0.12c-0.28-0.06-0.59-0.22-0.9-0.25C192.16,134.16,191.69,134.38,191.44,134.91z M196.97,134.24l-0.18,0.35
		c-0.02,0.04-0.04,0.07-0.02,0.11c0.05,0.14,0.1,0.3,0.09,0.39c-0.22,0.21-0.45,0.25-0.62,0.1c-0.11-0.09-0.15-0.26-0.14-0.48
		c0.01-0.16,0.03-0.22-0.11-0.11c-0.18,0.15-0.13,0.13-0.14,0.22c-0.06,0.52-0.29,0.76-0.69,0.79c-0.25,0.02-0.44-0.16-0.26-0.66
		c0.04-0.11-0.04-0.22-0.15,0c-0.38,0.75-0.15,1.18,0.24,1.23c0.32,0.05,0.69-0.13,0.88-0.61c0.15,0.24,0.44,0.31,0.71,0.24
		c0.34-0.09,0.42-0.25,0.51-0.53c0.09-0.27,0.1-0.62-0.03-1.05C197.02,134.16,196.98,134.2,196.97,134.24z M184.61,135.69
		c-0.03,0.03-0.06,0.03-0.09,0.09c-0.03,0.06-0.09,0.34-0.16,0.47c0,0.06,0.03,0.06,0.09,0.03c0.09-0.03,0.22-0.09,0.31-0.16
		c0.53-0.22,2.93-1.12,3.58-1.37h0.03c0.03-0.03,0.09-0.03,0.09-0.09c0.03-0.09,0.09-0.31,0.12-0.44c0-0.06,0-0.06-0.06-0.06
		C187.79,134.48,185.27,135.41,184.61,135.69z"/>
</g>
</svg>
