<?xml version="1.0" encoding="iso-8859-1"?>
<!-- Generator: Adobe Illustrator 25.2.1, SVG Export Plug-In . SVG Version: 6.00 Build 0)  -->
<svg version="1.1" xmlns="http://www.w3.org/2000/svg" xmlns:xlink="http://www.w3.org/1999/xlink" x="0px" y="0px"
	 viewBox="0 0 240.74 323.95" enable-background="new 0 0 240.74 323.95" xml:space="preserve">
<g id="Ornaments">
</g>
<g id="Aya_No.">
</g>
<g id="Quran_Text">
	<path fill-rule="evenodd" clip-rule="evenodd" d="M150.29,148.88c-0.03,0.03-0.06,0.03-0.09,0.09c-0.03,0.06-0.09,0.34-0.16,0.47
		c0,0.06,0.03,0.06,0.09,0.03c0.09-0.03,0.22-0.09,0.31-0.16c0.5-0.22,2.93-1.12,3.58-1.37h0.03c0.03-0.03,0.09-0.03,0.09-0.09
		c0.03-0.09,0.09-0.31,0.12-0.44c0.03-0.06,0-0.06-0.06-0.06C153.47,147.66,150.94,148.6,150.29,148.88z M148.7,147.29
		c-0.12,0.22-0.28,0.5-0.44,0.72c-0.22-0.16-0.5-0.31-0.69-0.44c-0.12-0.06-0.16-0.06-0.22,0.03l-0.03-0.03
		c-0.12,0.19-0.28,0.44-0.41,0.65c-0.03,0.09-0.03,0.16,0.09,0.22c0.19,0.12,0.53,0.31,0.72,0.41c0.06,0.03,0.12,0,0.16-0.06
		c0.12-0.12,0.25-0.34,0.41-0.62c0.28,0.19,0.53,0.31,0.75,0.44c0.06,0.03,0.12,0.03,0.16-0.03c0.12-0.16,0.31-0.47,0.4-0.62
		c0.06-0.12,0.03-0.16-0.06-0.22c-0.12-0.09-0.5-0.31-0.69-0.44C148.76,147.23,148.73,147.23,148.7,147.29z M147.89,140.43
		c-0.03,0.22-0.06,0.53-0.12,0.81c0,0.09,0,0.09,0.03,0.19c0.19,0.28,0.25,0.44,0.34,0.78c-0.34,0.28-0.81,0.37-1.34,0.34l0.06-0.06
		c-0.22,0-0.25-0.06-0.41-0.37c-0.09-0.16-0.16-0.31-0.22-0.41c-0.06-0.09-0.06-0.12-0.09,0c-0.06,0.25-0.16,0.78-0.12,0.94
		c0.34,0.78,0.62,1.34,0.69,2.46c-0.25,0.56-1.15,1.25-2.31,1.43c-1.09,0.12-1.68-0.09-2.03-0.37c-0.94-0.84-0.37-2-0.06-3.02
		c0.03-0.12-0.12-0.19-0.16-0.09c-0.56,0.87-0.81,1.81-0.75,2.62c0.09,1.09,0.75,1.96,2.18,1.96c1.56,0,2.71-0.69,3.12-1.53
		c0.34-0.69,0.31-1.93,0.22-2.53c0.37,0.03,0.84-0.09,1.15-0.31c0.28-0.19,0.34-0.44,0.41-0.81c0.12-0.75,0-1.47-0.41-2.03
		C147.95,140.24,147.92,140.28,147.89,140.43z M144.06,139.87c-0.12,0.19-0.28,0.47-0.37,0.65l0.03,0.03
		c-0.06,0.06-0.06,0.12,0.03,0.16c0.16,0.09,0.44,0.25,0.62,0.34c0.06,0.03,0.12,0.03,0.16-0.03c0.12-0.19,0.28-0.44,0.37-0.62
		c0.06-0.06,0.06-0.12,0-0.16c-0.19-0.12-0.5-0.31-0.69-0.41C144.12,139.81,144.09,139.81,144.06,139.87z M150.6,138
		c-0.12,0.19-0.28,0.47-0.37,0.66v0.03c-0.06,0.06-0.06,0.12,0.03,0.16c0.16,0.09,0.44,0.25,0.62,0.34
		c0.06,0.03,0.12,0.03,0.16-0.03c0.12-0.19,0.28-0.44,0.37-0.62c0.06-0.06,0.06-0.12,0-0.16c-0.16-0.12-0.47-0.31-0.65-0.41
		C150.66,137.94,150.63,137.94,150.6,138z M153.53,136.35c-0.12,0.22-0.25,0.44-0.34,0.62c-0.09,0.16-0.06,0.16,0,0.31
		c0.06,0.12,0.14,0.26,0.28,0.53c0.25,1.81,1.22,6.17,1.31,6.92c-0.19,0.59-1.53,0.56-2.03-1.19c-0.34-1.22-0.41-1.75-0.81-3.24
		c-0.12-0.4-0.28,0.78-0.25,0.87c0.16,0.69,0.34,1.62,0.47,2.15c-0.34,0.94-2.68,1.43-3.02,1c-0.16-0.19-0.25-0.22-0.31,0.12
		c-0.06,0.25,0.03,0.75,0.16,0.87c0.44,0.53,2.96-0.09,3.34-1.37c0.22,1,1.15,2.71,2.34,2.03c0.59-0.34,0.59-1.78,0.47-2.31
		c-0.34-1.78-0.94-4.74-1.09-5.67c0.12-0.19,0.22-0.31,0.28-0.44c0.12-0.16,0.12-0.16,0-0.31c-0.22-0.25-0.41-0.5-0.65-0.9
		C153.63,136.25,153.56,136.28,153.53,136.35z M156.34,136.32l-0.12,0.87c-0.03,0.25-0.03,0.28,0,0.47
		c0.09,0.59,0.22,1.15,0.34,1.71c0.25,1.28,0.53,2.46,0.75,3.65c0.19,0.94,0.31,1.9,0.37,2.74c0,0.16,0.09,0.16,0.12,0.03
		c0.12-0.47,0.16-0.97,0.16-1.5c0-0.5-0.19-1.53-0.34-2.34c-0.19-1.03-0.44-2.12-0.62-3.06c-0.19-0.87-0.37-1.75-0.47-2.59
		c0-0.09-0.06-0.12-0.09-0.12l-0.03-0.03C156.37,136.16,156.34,136.22,156.34,136.32z M142.19,137.66
		c-0.03,0.03-0.06,0.03-0.09,0.09c-0.03,0.09-0.09,0.34-0.16,0.47c-0.03,0.06,0.03,0.06,0.09,0.03c0.09-0.03,0.22-0.09,0.31-0.16
		c0.5-0.22,2.93-1.12,3.59-1.37h0.03c0.03-0.03,0.09-0.03,0.09-0.09c0.03-0.09,0.09-0.31,0.12-0.44c0-0.06,0-0.06-0.06-0.06
		C145.36,136.44,142.84,137.38,142.19,137.66z M154.17,133.92l-0.18,0.35c-0.02,0.04-0.04,0.07-0.02,0.11
		c0.05,0.14,0.1,0.3,0.09,0.39c-0.22,0.21-0.45,0.24-0.62,0.1c-0.11-0.09-0.15-0.26-0.14-0.48c0.01-0.16,0.03-0.22-0.11-0.11
		c-0.18,0.15-0.13,0.13-0.14,0.22c-0.06,0.52-0.29,0.76-0.69,0.79c-0.25,0.02-0.44-0.16-0.26-0.66c0.04-0.11-0.04-0.22-0.15,0
		c-0.38,0.75-0.15,1.18,0.24,1.23c0.31,0.05,0.69-0.13,0.88-0.61c0.15,0.24,0.44,0.31,0.71,0.24c0.34-0.09,0.42-0.25,0.51-0.53
		c0.09-0.27,0.1-0.62-0.03-1.05C154.23,133.85,154.19,133.89,154.17,133.92z M157.77,133.85c0.06,0.06,0.12,0.16,0.12,0.25
		c-0.09,0.22-0.75,0.47-1,0.53c-0.03,0.03-0.31,0.06-0.28,0l-0.03-0.03c0.16-0.25,0.31-0.5,0.53-0.69
		C157.34,133.73,157.56,133.67,157.77,133.85z M157.12,133.45c-0.28,0.28-0.65,0.84-0.84,1.19c-0.12,0-0.34-0.12-0.47-0.19
		c-0.12-0.09-0.25,0.06-0.31,0.19c-0.12,0.22-0.25,0.47-0.34,0.72l-0.09,0.25c0,0.12,0.03,0.16,0.12,0.06v-0.03
		c0.16-0.19,0.31-0.65,0.41-0.59c0.59,0.34,1.37,0.22,1.93-0.19c0.44-0.31,0.78-0.81,0.66-1.34c-0.03-0.19-0.25-0.37-0.47-0.37
		C157.49,133.14,157.27,133.29,157.12,133.45z M155,131.58c-0.75,0.31-3.27,1.25-3.93,1.53c-0.03,0.03-0.06,0.03-0.09,0.09
		c-0.03,0.06-0.09,0.34-0.16,0.47c0,0.06,0.03,0.06,0.09,0.03c0.09-0.03,0.22-0.09,0.31-0.16c0.5-0.22,2.93-1.12,3.58-1.37h0.03
		c0.03-0.03,0.09-0.03,0.09-0.09c0.03-0.09,0.09-0.31,0.12-0.44C155.06,131.58,155.03,131.58,155,131.58z M140.13,147.82
		c-0.12,0.22-0.28,0.5-0.44,0.72c-0.22-0.16-0.5-0.31-0.69-0.44c-0.12-0.06-0.16-0.06-0.22,0.03l-0.03-0.03
		c-0.12,0.19-0.28,0.44-0.41,0.66c-0.03,0.09-0.03,0.16,0.09,0.22c0.19,0.12,0.53,0.31,0.72,0.4c0.06,0.03,0.09,0,0.16-0.06
		c0.12-0.12,0.25-0.34,0.4-0.62c0.28,0.19,0.53,0.31,0.75,0.44c0.06,0.03,0.09,0.03,0.16-0.03c0.12-0.16,0.31-0.47,0.41-0.62
		c0.06-0.12,0.03-0.16-0.06-0.22c-0.12-0.09-0.5-0.31-0.69-0.44C140.19,147.75,140.16,147.75,140.13,147.82z M134.86,145.27
		c-0.75,0.31-2.43,1-3.09,1.28c-0.03,0.03-0.06,0.03-0.09,0.09c-0.03,0.09-0.09,0.34-0.16,0.47c0,0.06,0.03,0.06,0.09,0.03
		c0.09-0.03,0.22-0.09,0.31-0.16h0.03c0.5-0.22,2.09-0.87,2.74-1.12c0.03-0.03,0.09-0.03,0.09-0.09c0.03-0.09,0.09-0.31,0.12-0.44
		C134.92,145.27,134.92,145.27,134.86,145.27z M122.17,142.46c0.37,0.81,0.81,1.31,1,2.53c-0.78,1.62-4.24,2.09-4.46,0.28
		c-0.03-0.47,0.25-1.15,0.44-1.78c0.03-0.16-0.09-0.22-0.19-0.06c-0.59,0.9-0.9,2.28-0.47,3.12c0.87,1.65,4.12,0.72,4.71-0.53
		c0.84-1.78,0.09-3.21-0.72-4.49l-0.03-0.03C122.36,141.34,122.14,142.4,122.17,142.46z M126.75,144.49
		c-0.72,0.06-1.28-0.16-1.22-0.31C126.07,143.05,126.41,143.77,126.75,144.49z M133.67,143.18c-0.59-0.06-1.56-0.37-1.53-0.5
		C132.99,141.43,133.24,142.31,133.67,143.18z M131.74,142.87l-0.06,0.06c-0.47,1.03-0.47,1.43-1.75,0.53
		c-0.34-0.22-0.47-0.09-0.87,0.16c-0.53,0.34-1.21,0.62-1.59,0.75c-0.16-0.5-0.37-1-0.56-1.34c-0.34-0.62-0.87-0.72-1.31-0.09
		c-0.37,0.53-0.66,1.53-0.47,2.06c0.19,0.5,1.12,0.72,1.96,0.44c-0.72,1.68-2.09,3.27-5.55,2.43c-0.28-0.06-0.34,0.22-0.06,0.31
		c1.37,0.37,5.36,1.65,6.2-2.96c0.53-0.22,0.97-0.44,1.5-0.81c0.25-0.19,0.28-0.28,0.59-0.06c1,0.72,1.25,1.06,2.09-0.72
		c0.47,0.59,1.75,0.62,2.24,0.56c0.09,0,0.25-0.65,0.28-0.9c0-0.56-0.5-2.06-1.03-2.31C132.71,140.65,131.93,142.4,131.74,142.87z
		 M137.88,144.29c-0.75,0.12-1.22-0.12-1.15-0.25C137.1,143.14,137.54,143.67,137.88,144.29z M139.1,141.74
		c0.31,0.4,0.94,1.15,1.03,1.62c-0.22,0.31-0.9,0.65-1.53,0.81c-0.44-0.84-1.03-2.06-1.68-1.43c-0.38,0.34-0.66,1.06-0.59,1.81
		c0.09,0.94,1.12,0.84,1.93,0.65c-0.78,2.09-2.62,3.46-5.49,2.81c-0.25-0.03-0.38,0.25,0,0.34c3.24,0.9,5.27,0.25,5.99-3.24
		c0.75-0.22,1.37-0.53,1.62-1.12c0.44-1.09-0.12-2.28-1.12-3.27C139.13,140.61,139.04,141.67,139.1,141.74z M128.5,140.56
		c-0.12,0.19-0.28,0.47-0.37,0.65l0.03,0.03c-0.06,0.06-0.06,0.12,0.03,0.16c0.16,0.09,0.44,0.25,0.62,0.34
		c0.06,0.03,0.12,0.03,0.16-0.03c0.12-0.19,0.28-0.44,0.37-0.62c0.06-0.06,0.06-0.12,0-0.16c-0.19-0.12-0.5-0.28-0.69-0.4
		C128.56,140.5,128.53,140.5,128.5,140.56z M120.3,140.37c-0.12,0.19-0.28,0.47-0.37,0.65l0.03,0.03c-0.06,0.06-0.06,0.12,0.03,0.16
		c0.16,0.09,0.44,0.25,0.62,0.34c0.06,0.03,0.12,0.03,0.16-0.03c0.12-0.19,0.28-0.47,0.37-0.62c0.06-0.06,0.06-0.12,0-0.16
		c-0.19-0.12-0.5-0.28-0.69-0.41C120.36,140.31,120.33,140.31,120.3,140.37z M135.11,140.52c-0.06,0.16-0.03,0.31,0.09,0.44
		c0.12,0.09,0.34,0.22,0.53,0.31c-0.09,0.03-0.28,0.12-0.4,0.22h0.03c-0.03,0.09-0.06,0.25-0.09,0.34c0,0.03,0.03,0.06,0.06,0.03
		c0.37-0.22,1.46-0.5,1.96-0.62c0.03,0,0.19-0.34,0.22-0.41c0.03-0.06,0-0.09-0.06-0.06c-0.28,0.06-0.53,0.12-0.87,0.12
		c-0.41,0-1.06-0.47-1.06-0.53c0-0.09,0.5-0.28,0.59-0.28c0.31,0.03,0.37,0.34,0.47,0.34c0.09,0,0.25-0.37,0.25-0.47
		c0-0.12-0.28-0.4-0.47-0.4C136.01,139.55,135.3,140.15,135.11,140.52z M134.48,137.75c-0.03,0.06-0.06,0.16-0.09,0.22
		c-0.03,0.09,0.03,0.19,0.09,0.09c0.06-0.12,0.16-0.22,0.25-0.28c0.25-0.16,0.5-0.22,0.78-0.19c0.25,0.03,0.72,0.19,0.72,0.22
		c0,0.06-1.09,0.59-1.25,0.69c-0.09,0.06-0.16,0.12-0.16,0.22c0.03,0.09,0.13,0.09,0.22,0.06c0.41-0.16,0.56-0.12,0.9-0.28
		l-0.03-0.03c0.47-0.19,0.59-0.44,0.69-0.47c0.03,0,0.09,0,0.12-0.03c0.12-0.12,0.25-0.44,0.25-0.56c0-0.06-0.31-0.09-0.4-0.12
		c-0.28-0.06-0.59-0.22-0.9-0.25C135.2,137,134.73,137.22,134.48,137.75z M118.49,138.56c-0.03,0.03-0.06,0.03-0.09,0.09
		c-0.03,0.06-0.09,0.34-0.16,0.47c0,0.06,0.03,0.06,0.09,0.03c0.09-0.03,0.22-0.09,0.31-0.16c0.53-0.22,2.93-1.12,3.58-1.37h0.03
		c0.03-0.03,0.09-0.03,0.09-0.09c0.03-0.09,0.09-0.31,0.12-0.44c0-0.06,0-0.06-0.06-0.06C121.67,137.34,119.15,138.28,118.49,138.56
		z M128.71,136.5c0.08,0.1,0.21,0.3,0.23,0.65c0,0.1-0.02,0.24-0.02,0.25c-0.01,0.01-0.19-0.07-0.22-0.09
		c-0.07-0.03-0.25-0.1-0.58-0.23c-0.13-0.02,0-0.23,0-0.23c0.05-0.09,0.13-0.21,0.22-0.3l0.12-0.08
		C128.53,136.45,128.66,136.42,128.71,136.5z M128.64,135.89c-0.37,0.06-0.81,0.58-0.99,1.18c-0.08,0.27-0.03,0.42,0.12,0.51
		c0.21,0.13,0.52,0.24,0.88,0.33c-0.42,0.71-1.78,1.62-2.03,1.76c-0.3,0.17-0.24,0.36,0.13,0.19c1.37-0.62,2.04-1.27,2.34-1.85
		c0.09,0.02,0.17,0.05,0.27,0.07c0.16,0.04,0.13,0.06,0.21-0.2c0.04-0.12,0.07-0.21,0.08-0.27l-0.41-0.14l0.04-0.14
		c0.05-0.47-0.07-0.86-0.11-0.98C129.04,135.98,128.86,135.85,128.64,135.89z M139.93,136.08c0.08,0.1,0.21,0.3,0.23,0.65
		c0,0.1-0.02,0.24-0.02,0.25c-0.01,0.01-0.19-0.07-0.22-0.09c-0.07-0.03-0.25-0.1-0.58-0.23c-0.13-0.02,0-0.23,0-0.23
		c0.05-0.09,0.13-0.21,0.22-0.3l0.12-0.08C139.76,136.03,139.88,136,139.93,136.08z M139.86,135.47c-0.37,0.06-0.81,0.58-0.99,1.18
		c-0.08,0.27-0.03,0.42,0.12,0.51c0.21,0.13,0.52,0.24,0.88,0.33c-0.42,0.71-1.78,1.62-2.03,1.76c-0.3,0.17-0.24,0.36,0.13,0.19
		c1.37-0.62,2.04-1.28,2.34-1.85c0.09,0.02,0.17,0.05,0.27,0.07c0.16,0.04,0.13,0.06,0.21-0.2c0.04-0.12,0.07-0.21,0.08-0.27
		l-0.41-0.14l0.04-0.14c0.05-0.47-0.07-0.86-0.11-0.98C140.27,135.56,140.08,135.43,139.86,135.47z M101.53,148.75
		c-0.75,0.31-3.27,1.25-3.93,1.53c-0.03,0.03-0.06,0.03-0.09,0.09c-0.03,0.09-0.09,0.34-0.16,0.47c0,0.06,0.03,0.06,0.09,0.03
		c0.09-0.03,0.22-0.09,0.31-0.16c0.5-0.22,2.93-1.12,3.58-1.37h0.03c0.03-0.03,0.09-0.03,0.09-0.09c0.03-0.09,0.09-0.31,0.12-0.44
		C101.59,148.75,101.56,148.75,101.53,148.75z M114.03,149.53c-0.03,0.03-0.06,0.03-0.09,0.09c-0.03,0.06-0.09,0.34-0.16,0.47
		c-0.03,0.06,0.03,0.06,0.09,0.03c0.09-0.03,0.22-0.09,0.31-0.16l0.03,0.03c0.53-0.22,2.09-0.87,2.74-1.12
		c0.03-0.03,0.09-0.03,0.09-0.09c0.03-0.09,0.09-0.31,0.12-0.44c0-0.06,0-0.06-0.06-0.06C116.37,148.6,114.69,149.25,114.03,149.53z
		 M99.07,147.45c-0.12,0.19-0.28,0.47-0.37,0.65l0.03,0.03c-0.06,0.06-0.06,0.12,0.03,0.16c0.16,0.09,0.44,0.25,0.62,0.34
		c0.06,0.03,0.12,0.03,0.16-0.03c0.12-0.19,0.28-0.47,0.37-0.62c0.06-0.06,0.06-0.12,0-0.16c-0.19-0.12-0.5-0.28-0.69-0.41
		C99.13,147.38,99.1,147.38,99.07,147.45z M105.43,146.82c-0.12,0.22-0.28,0.5-0.44,0.72c-0.22-0.16-0.5-0.31-0.69-0.44
		c-0.12-0.06-0.16-0.06-0.22,0.03l-0.03-0.03c-0.12,0.19-0.28,0.44-0.41,0.65c-0.03,0.09-0.03,0.16,0.09,0.22
		c0.19,0.12,0.53,0.31,0.72,0.41c0.06,0.03,0.09,0,0.16-0.06c0.12-0.12,0.25-0.34,0.41-0.62c0.28,0.19,0.53,0.31,0.75,0.44
		c0.06,0.03,0.09,0.03,0.16-0.03c0.12-0.16,0.31-0.47,0.41-0.62c0.06-0.12,0.03-0.16-0.06-0.22c-0.12-0.09-0.5-0.31-0.69-0.44
		C105.49,146.76,105.46,146.76,105.43,146.82z M115.25,146.57c-0.12,0.19-0.28,0.47-0.37,0.65l0.03,0.03
		c-0.06,0.06-0.06,0.12,0.03,0.16c0.16,0.09,0.44,0.25,0.62,0.34c0.06,0.03,0.12,0.03,0.16-0.03c0.12-0.19,0.28-0.44,0.38-0.62
		c0.06-0.06,0.06-0.12,0-0.16c-0.19-0.12-0.5-0.28-0.69-0.41C115.31,146.51,115.28,146.51,115.25,146.57z M107.7,139.56
		c-0.12,0.19-0.28,0.47-0.38,0.65l0.03,0.03c-0.06,0.06-0.06,0.12,0.03,0.16c0.16,0.09,0.44,0.25,0.62,0.34
		c0.06,0.03,0.12,0.03,0.16-0.03c0.13-0.19,0.28-0.44,0.37-0.62c0.06-0.06,0.06-0.12,0-0.16c-0.19-0.12-0.5-0.31-0.69-0.41
		C107.77,139.5,107.74,139.5,107.7,139.56z M102.4,138.37c-0.03,0.06-0.06,0.16-0.09,0.22c-0.03,0.09,0.03,0.19,0.09,0.09
		c0.06-0.12,0.16-0.22,0.25-0.28c0.25-0.16,0.5-0.22,0.78-0.19c0.25,0.03,0.72,0.19,0.72,0.22c0,0.03-1.09,0.59-1.25,0.69
		c-0.09,0.06-0.19,0.12-0.16,0.22c0.03,0.09,0.12,0.09,0.22,0.06c0.41-0.16,0.56-0.12,0.9-0.28l-0.03-0.03
		c0.47-0.19,0.59-0.44,0.69-0.47c0.03,0,0.09,0,0.12-0.03c0.12-0.12,0.25-0.44,0.25-0.56c0-0.06-0.31-0.09-0.41-0.12
		c-0.28-0.06-0.59-0.22-0.9-0.25C103.12,137.63,102.65,137.84,102.4,138.37z M106.05,138.25c-0.03,0.03-0.06,0.03-0.09,0.09
		c-0.03,0.09-0.09,0.34-0.16,0.47c0,0.06,0.03,0.06,0.09,0.03c0.09-0.03,0.22-0.09,0.31-0.16h0.03c0.53-0.22,2.09-0.87,2.74-1.12
		c0.03-0.03,0.09-0.03,0.09-0.09c0.03-0.09,0.09-0.31,0.12-0.44c0-0.06,0-0.06-0.06-0.06C108.39,137.28,106.71,137.97,106.05,138.25
		z M112.75,135.63c-0.06,0.16-0.12,0.28-0.16,0.44c-0.06,0.19-0.06,0.19-0.03,0.41c0.22,1.25,0.62,4.52,0.87,6.39
		c0.09,0.65,0.19,1.47,0.56,1.93c0.59,0.81,1.93,0.31,2.21,0.06c0.31-0.25,0.44-1.15,0.41-1.62c-0.03-0.75-0.31-1.37-0.78-1.84
		c-0.12-0.12-0.19-0.19-0.25,0.09c-0.03,0.19-0.06,0.37-0.09,0.56c-0.06,0.25-0.03,0.25,0.09,0.44c0.34,0.47,0.59,0.9,0.66,1.4
		c-0.37,0.25-1.15,0.37-1.59,0.25c-0.53-0.16-0.69-0.84-0.78-1.5c-0.31-2.24-0.69-5.64-0.9-6.77c-0.03-0.19-0.09-0.31-0.12-0.31
		v-0.06C112.82,135.51,112.79,135.54,112.75,135.63z M110.45,135.19c-0.25,0.34-0.53,0.78-0.53,0.84c0.03,0.19,0.16,0.53,0.31,0.72
		c0.41,2.09,1.06,5.52,1.28,6.95c-0.53,0.84-1.19,0.5-1.71,0.28c0.19-0.31,0.37-0.56,0.47-0.81c0.31-0.62-0.9-1.18-1.87-0.94
		c-0.59,0.16-1.18,0.53-1.31,1.15c-0.06,0.19,0.06,0.22,0.16,0.16c0.41-0.12,0.84-0.16,1.25,0.28c-0.53,0.31-1.96,1.12-2.93-0.12
		c-0.06-0.06-0.09-0.03-0.16,0.03c-0.34,0.37-0.56,0.87-1.12,1c-0.47,0.06-0.9-0.25-1.28-0.44c0.12-0.25,0.31-0.87,0.19-0.94
		c-0.12-0.06-0.28,0.53-1,1.03c-0.9,0.59-2.12,0.9-3.3,0.94c-1.15,0.03-2.18-0.12-2.87-0.65c-0.87-0.69-0.72-1.28-0.31-2.34
		c0.06-0.12,0-0.28-0.09-0.16c-0.69,0.87-1.06,2.18-0.19,3.18c0.62,0.69,1.68,0.97,2.99,0.93c1.56-0.06,3.27-0.47,4.27-1.46
		c0.22,0.31,0.59,0.78,1.28,0.84c0.56,0.06,0.93-0.62,1.28-1.06c0.12-0.09,0.09-0.12,0.19,0c0.37,0.44,0.62,0.65,1,0.72
		c0.78,0.19,1.96-0.53,2.74-1.03c0.37,0.59,1.03,1.03,1.53,0.94c1.03-0.16,1.31-1.62,1.09-2.84c-0.19-1.09-0.72-3.68-1.03-5.42
		c0.19-0.19,0.47-0.44,0.44-0.5c-0.31-0.37-0.44-0.78-0.62-1.25c-0.03-0.06-0.03-0.09-0.06-0.09
		C110.51,135.13,110.48,135.13,110.45,135.19z M109.92,132.86c-0.19,0.06-0.44,0.28-0.56,0.44c-0.09,0.09-0.12,0.19-0.19,0.28
		c-0.06,0.16-0.06,0.37,0.16,0.19l-0.03-0.03c0.16-0.16,0.34-0.31,0.56-0.37c0.09-0.03,0.97,0.03,0.97,0.09
		c0,0.12-0.65,0.34-0.78,0.41c-0.12,0.06-0.28,0.12-0.41,0.22c-0.19,0.09-0.06,0.28,0.12,0.25c0.41-0.03,0.87-0.25,1.22-0.47
		c0.19-0.12,0.69-0.5,0.62-0.78c-0.06-0.19-0.59-0.19-0.75-0.19C110.51,132.82,110.23,132.79,109.92,132.86z M114.75,133.35
		c0.06,0.06,0.12,0.16,0.12,0.25c-0.09,0.22-0.75,0.47-1,0.53c-0.03,0.03-0.31,0.06-0.28,0v-0.03c0.12-0.25,0.28-0.5,0.5-0.69
		C114.31,133.23,114.53,133.17,114.75,133.35z M114.1,132.95c-0.28,0.28-0.65,0.84-0.84,1.18c-0.12,0-0.34-0.12-0.47-0.19
		c-0.16-0.09-0.25,0.06-0.31,0.19c-0.12,0.22-0.25,0.47-0.34,0.72l-0.09,0.25c0,0.12,0.03,0.16,0.12,0.06
		c0.16-0.19,0.31-0.65,0.41-0.59v-0.03c0.59,0.34,1.37,0.22,1.93-0.19c0.44-0.31,0.78-0.81,0.65-1.34
		c-0.03-0.19-0.25-0.37-0.47-0.37C114.47,132.64,114.25,132.79,114.1,132.95z M92.86,143.67c-0.16,0.28-0.78,0.41-1.03-0.06
		c0.16-0.41,0.31-0.56,0.47-0.59C92.52,143.02,92.74,143.3,92.86,143.67z M91.81,142.46c-0.28,0.47-0.44,1.4-0.28,1.87
		c0.31,1,1.34,0.62,1.59,0.09c-0.12,1.71-1.37,2.87-2.68,3.34c-1.03,0.34-2.15,0.34-3.05,0.19c-0.16-0.03-0.22,0.22-0.06,0.25
		c3.55,1.28,5.89-0.34,6.17-3.27c0.06-0.9,0-1.71-0.47-2.43C92.55,141.74,92.18,141.86,91.81,142.46z M94.08,137.66
		c-0.75,0.31-3.27,1.25-3.93,1.53c-0.03,0.03-0.06,0.03-0.09,0.09c-0.03,0.09-0.09,0.34-0.16,0.47c0,0.06,0.03,0.06,0.09,0.03
		c0.09-0.03,0.22-0.09,0.31-0.16c0.5-0.22,2.93-1.12,3.58-1.37h0.03c0.03-0.03,0.09-0.03,0.09-0.09c0.03-0.09,0.09-0.31,0.12-0.44
		C94.14,137.66,94.11,137.66,94.08,137.66z M86.66,146.75c-0.75,0.31-2.43,0.97-3.09,1.25c-0.03,0.03-0.06,0.03-0.09,0.09
		c-0.03,0.09-0.09,0.34-0.16,0.47c0,0.06,0.03,0.06,0.09,0.03c0.09-0.03,0.22-0.09,0.31-0.16l0.03,0.03
		c0.53-0.22,2.09-0.87,2.74-1.12c0.03-0.03,0.09-0.03,0.09-0.09c0.03-0.09,0.09-0.31,0.12-0.44
		C86.73,146.75,86.73,146.75,86.66,146.75z M82.11,146.05c-0.12,0.22-0.28,0.5-0.44,0.72c-0.22-0.16-0.5-0.31-0.69-0.44
		c-0.12-0.06-0.16-0.06-0.22,0.03l-0.03-0.03c-0.12,0.19-0.28,0.44-0.41,0.65c-0.03,0.09-0.03,0.16,0.09,0.22
		c0.19,0.12,0.53,0.31,0.72,0.41c0.06,0.03,0.12,0,0.16-0.06c0.12-0.12,0.25-0.34,0.41-0.62c0.28,0.19,0.53,0.31,0.75,0.44
		c0.06,0.03,0.12,0.03,0.16-0.03c0.12-0.16,0.31-0.47,0.41-0.62c0.06-0.12,0.03-0.16-0.06-0.22c-0.12-0.09-0.5-0.31-0.69-0.44
		C82.17,145.98,82.14,145.98,82.11,146.05z M89.5,145.33c-0.12,0.22-0.28,0.5-0.44,0.72c-0.22-0.16-0.5-0.31-0.69-0.44
		c-0.12-0.06-0.16-0.06-0.22,0.03l-0.03-0.03c-0.12,0.19-0.28,0.44-0.41,0.65c-0.03,0.09-0.03,0.16,0.09,0.22
		c0.19,0.12,0.53,0.31,0.72,0.41c0.06,0.03,0.09,0,0.16-0.06c0.12-0.12,0.25-0.34,0.41-0.62c0.28,0.19,0.53,0.31,0.75,0.44
		c0.06,0.03,0.09,0.03,0.16-0.03c0.12-0.16,0.31-0.47,0.41-0.62c0.06-0.12,0.03-0.16-0.06-0.22c-0.12-0.09-0.5-0.31-0.69-0.44
		C89.57,145.27,89.53,145.27,89.5,145.33z M70.07,141.96c0.34,0.84,0.78,1.37,0.97,2.62c-0.75,1.68-4.12,2.15-4.33,0.28
		c-0.03-0.47,0.25-1.18,0.41-1.84c0.03-0.16-0.09-0.25-0.19-0.06c-0.56,0.94-0.87,2.34-0.47,3.24c0.84,1.71,3.99,0.72,4.55-0.53
		c0.81-1.84,0.09-3.34-0.69-4.65l0.03-0.06C70.26,140.81,70.04,141.9,70.07,141.96z M74.28,144.39c-0.62,0.09-1.28-0.16-1.22-0.31
		C73.54,142.86,74,143.74,74.28,144.39z M77.93,144.05c-0.56-0.12-1.31-0.47-1.22-0.59C77.74,142.24,77.59,143.46,77.93,144.05z
		 M86.66,142.33c-0.16,0.22-0.62,0.62-0.87,0.78c-0.25-0.12-0.62-0.44-0.78-0.53c0.28-0.5,0.56-0.87,0.81-1.03
		c0.06-0.03,0.12-0.06,0.19-0.06C86.22,141.49,86.41,141.74,86.66,142.33z M86.22,140.4c-0.19,0-0.38,0.12-0.62,0.34
		c-0.72,0.72-1.28,1.81-0.78,2.84c-0.41,0.22-1.34,0.59-2.12-0.37c-0.09-0.09-0.16-0.06-0.25,0.03c-1.09,1.03-2.71,1.12-3.65,0.44
		c-0.47-0.31-0.69-0.69-0.97-1.12c-0.28-0.41-0.47-0.28-0.81,0.03c-0.87,0.87-0.56,1.22-2.09,1.71c-0.12-0.5-0.28-1.06-0.59-1.5
		c-0.9-1.25-1.81,0.9-1.65,1.9c0.19,1.06,1.5,0.69,1.81,0.65c-1.28,2.71-3.71,3.09-5.83,2.43c-0.25-0.06-0.37,0.16-0.06,0.28
		c3.43,1.28,5.58,0.69,6.45-2.87c0.62-0.28,1-0.5,1.34-0.9c0,0,0.22,0.69,2.21,1.06c0.06,0,0.12-0.31,0.12-0.53
		c0.97,0.53,2.71,0.34,3.77-0.84c0.93,1.47,2.53,0.53,3.12,0.16c0.5,0.19,1.65,0.65,2.46,0.59c1.37-0.12,1.71-1.78,1.4-2.77
		c-0.16-0.44-0.41-0.9-0.78-1.4c-0.06-0.06-0.28,1-0.25,1.06c0.19,0.31,0.59,0.94,0.75,1.47c-0.62,0.87-1.46,0.69-2.56,0.31
		c0.44-0.72,0.5-1.31,0.38-1.93c-0.16-0.62-0.38-1.09-0.78-1.06H86.22z M68.05,139.62c-0.12,0.19-0.28,0.47-0.37,0.65v0.03
		c-0.06,0.06-0.06,0.12,0.03,0.16c0.16,0.09,0.44,0.25,0.62,0.34c0.06,0.03,0.12,0.03,0.16-0.03c0.12-0.19,0.28-0.44,0.37-0.62
		c0.06-0.06,0.06-0.12,0-0.16c-0.16-0.12-0.47-0.31-0.65-0.41C68.11,139.56,68.08,139.56,68.05,139.62z M85.32,137.94
		c-0.12,0.22-0.28,0.5-0.44,0.72c-0.22-0.16-0.5-0.31-0.69-0.44c-0.12-0.06-0.16-0.06-0.22,0.03l-0.03-0.03
		c-0.12,0.19-0.28,0.44-0.41,0.66c-0.03,0.09-0.03,0.16,0.09,0.22c0.19,0.12,0.53,0.31,0.72,0.4c0.06,0.03,0.09,0,0.16-0.06
		c0.12-0.12,0.25-0.34,0.41-0.62c0.28,0.19,0.53,0.31,0.75,0.44c0.06,0.03,0.09,0.03,0.16-0.03c0.12-0.16,0.31-0.47,0.41-0.62
		c0.06-0.12,0.03-0.16-0.06-0.22c-0.12-0.09-0.5-0.31-0.69-0.44C85.38,137.87,85.35,137.87,85.32,137.94z M77.41,137.31
		c0.08,0.1,0.21,0.3,0.23,0.65c0,0.1-0.01,0.24-0.02,0.25c-0.01,0.01-0.19-0.07-0.22-0.09c-0.07-0.03-0.25-0.1-0.58-0.23
		c-0.13-0.02,0-0.23,0-0.23c0.05-0.09,0.13-0.21,0.22-0.29l0.12-0.08C77.23,137.26,77.35,137.23,77.41,137.31z M77.33,136.7
		c-0.37,0.06-0.81,0.58-0.99,1.18c-0.08,0.27-0.03,0.42,0.12,0.51c0.21,0.13,0.52,0.24,0.88,0.33c-0.42,0.71-1.78,1.62-2.03,1.76
		c-0.29,0.17-0.24,0.36,0.13,0.19c1.37-0.62,2.04-1.27,2.34-1.85c0.09,0.02,0.18,0.05,0.27,0.07c0.16,0.04,0.13,0.06,0.21-0.2
		c0.04-0.12,0.07-0.21,0.08-0.27l-0.41-0.14l0.04-0.14c0.05-0.47-0.07-0.86-0.11-0.98C77.74,136.79,77.56,136.66,77.33,136.7z
		 M66.33,137.84c-0.03,0.03-0.06,0.03-0.09,0.09c-0.03,0.06-0.09,0.34-0.16,0.47c0,0.06,0.03,0.06,0.09,0.03
		c0.09-0.03,0.22-0.09,0.31-0.16c0.53-0.22,2.93-1.12,3.59-1.37h0.03c0.03-0.03,0.09-0.03,0.09-0.09c0.03-0.09,0.09-0.31,0.12-0.44
		c0-0.06,0-0.06-0.06-0.06C69.51,136.63,66.99,137.56,66.33,137.84z M89.39,135.05c0.08,0.1,0.21,0.3,0.23,0.65
		c0,0.1-0.01,0.24-0.02,0.25c-0.01,0.01-0.19-0.07-0.22-0.09c-0.07-0.03-0.25-0.1-0.58-0.23c-0.13-0.02,0-0.23,0-0.23
		c0.05-0.09,0.13-0.21,0.22-0.3l0.12-0.08C89.22,135,89.34,134.98,89.39,135.05z M89.32,134.44c-0.37,0.06-0.81,0.58-0.99,1.18
		c-0.08,0.27-0.03,0.42,0.12,0.51c0.21,0.13,0.52,0.24,0.88,0.33c-0.42,0.71-1.78,1.62-2.03,1.76c-0.29,0.17-0.24,0.36,0.13,0.19
		c1.37-0.62,2.04-1.27,2.35-1.85c0.09,0.02,0.17,0.05,0.27,0.07c0.17,0.04,0.13,0.06,0.21-0.2c0.04-0.12,0.07-0.21,0.08-0.27
		l-0.41-0.14l0.04-0.14c0.05-0.47-0.07-0.86-0.11-0.98C89.73,134.54,89.54,134.41,89.32,134.44z M43.79,142.27
		c0.59,0.34,1.15,0.69,1.43,1.09c0.06,0.09,0.22,0.31,0.12,0.37c-0.47,0.47-1.46,0.47-1.71,0.19c-0.28-0.28-0.22-0.69,0.16-1.68
		V142.27z M43.67,141.34l-0.16,0.53c-0.06,0.16-0.09,0.19,0.03,0.28c-0.47,1.03-0.62,1.87-0.47,2.37c0.16,0.47,0.56,0.72,1.09,0.69
		c0.44-0.03,0.87-0.22,1.18-0.53c0.22-0.22,0.53-0.97,0.47-1.5c-0.06-0.81-0.59-1.34-1.81-1.9c-0.12-0.06-0.19-0.09-0.25-0.09
		l0.03-0.03C43.73,141.15,43.7,141.21,43.67,141.34z M44.07,138.56c-0.12,0.22-0.28,0.5-0.44,0.72c-0.22-0.16-0.5-0.31-0.69-0.44
		c-0.12-0.06-0.16-0.06-0.22,0.03l-0.03-0.03c-0.12,0.19-0.28,0.44-0.41,0.65c-0.03,0.09-0.03,0.16,0.09,0.22
		c0.19,0.12,0.53,0.31,0.72,0.41c0.06,0.03,0.09,0,0.16-0.06c0.12-0.12,0.25-0.34,0.4-0.62c0.28,0.19,0.53,0.31,0.75,0.44
		c0.06,0.03,0.09,0.03,0.16-0.03c0.12-0.16,0.31-0.47,0.41-0.62c0.06-0.12,0.03-0.16-0.06-0.22c-0.12-0.09-0.5-0.31-0.69-0.44
		C44.14,138.5,44.11,138.5,44.07,138.56z M47.47,137.13c-0.06,0.12-0.19,0.44-0.19,0.53c0,0.03,0.12,0.19,0.28,0.41
		c0.47,0.69,0.75,1.43,0.59,2.46c-0.03,0.06-0.03,0.16,0,0.16c0.22,0,0.34-0.78,0.34-1.18c0-0.97-0.4-1.75-0.9-2.37
		C47.57,137.06,47.5,137.06,47.47,137.13z M57.5,137.94l-0.19,0.35c-0.02,0.04-0.04,0.07-0.02,0.11c0.05,0.14,0.1,0.3,0.09,0.39
		c-0.22,0.21-0.45,0.24-0.62,0.1c-0.11-0.09-0.15-0.26-0.14-0.48c0.01-0.16,0.03-0.22-0.11-0.11c-0.18,0.15-0.13,0.13-0.14,0.22
		c-0.06,0.52-0.29,0.76-0.69,0.79c-0.25,0.02-0.44-0.16-0.26-0.66c0.04-0.11-0.04-0.22-0.15,0c-0.38,0.76-0.15,1.18,0.24,1.23
		c0.31,0.05,0.69-0.13,0.88-0.61c0.15,0.24,0.44,0.31,0.71,0.24c0.34-0.09,0.42-0.25,0.51-0.52c0.09-0.27,0.1-0.62-0.03-1.05
		C57.56,137.86,57.52,137.9,57.5,137.94z M63.4,136.07c-0.03,0.25-0.09,0.53-0.12,0.78c-0.03,0.25-0.03,0.28,0,0.5
		c0.09,0.44,0.19,0.9,0.31,1.4c0.16,0.72,0.31,1.4,0.47,2.09c0.22,1.15,0.53,2.71,0.65,3.96c0.03,0.12,0.12,0.12,0.12,0
		c0.25-1.22,0.03-2.46-0.25-3.8c-0.16-0.72-0.31-1.5-0.47-2.18c-0.22-0.93-0.44-1.84-0.56-2.71l0.03-0.03
		c-0.03-0.12-0.06-0.16-0.09-0.16C63.47,135.91,63.43,135.97,63.4,136.07z M49.22,143.77l0.03,0.03h-0.03
		c-0.12,0.03-0.22,0.03-0.31,0.03c-0.41,0-0.84-0.12-0.94-0.28c-0.03-0.03-0.03-0.06-0.03-0.09c0.16-0.41,0.31-0.59,0.53-0.59
		C48.75,142.86,49.03,143.36,49.22,143.77z M60.25,142.83l0.03,0.03l-0.03,0.03c-0.16,0.22-1.06,1.31-3.34,1.31h-0.28h-0.09
		l0.06-0.06c0.16-0.12,0.34-0.31,0.53-0.53c0.53-0.56,1.12-1.22,1.84-1.22h0.03h0.03C59.48,142.43,59.85,142.55,60.25,142.83z
		 M61.22,135.69c-0.06,0.12-0.16,0.25-0.25,0.41c-0.06,0.09-0.12,0.19-0.19,0.28c-0.03,0.03-0.03,0.03,0,0.06
		c0.03,0.09,0.09,0.25,0.19,0.4c0.06,0.12,0.16,0.28,0.22,0.44c0.06,0.53,0.22,1.37,0.41,2.24c0.22,1.15,0.5,2.43,0.56,3.43
		c-0.16,0.31-1.09,0.72-1.93,0.97l-0.09,0.03l0.06-0.09c0.44-0.65,0.62-1.15,0.59-1.56c-0.09-0.56-0.53-0.87-1.19-0.87
		c-0.4,0-0.84,0.12-1.18,0.34c-0.41,0.28-0.81,0.65-1.22,1.09c-0.37,0.4-0.78,0.84-1.31,1.25c-0.19,0-0.59-0.06-0.87-0.34
		c-0.16-0.16-0.25-0.22-0.31-0.22s-0.12,0.06-0.25,0.22c-0.34,0.44-0.81,0.69-1.31,0.69c-0.19,0-0.37-0.03-0.53-0.09
		c-0.87-0.31-1.09-1.4-1.22-2.15c-0.16-0.9-0.28-1.78-0.37-2.62c-0.12-1.03-0.25-2.03-0.44-3.05c-0.03-0.06-0.03-0.09-0.03-0.09
		c-0.09,0.03-0.28,0.72-0.25,0.81c0.09,1,0.25,2.03,0.37,2.93c0.16,1,0.25,1.87,0.31,2.53c-0.06,0.31-0.47,0.65-1.03,0.84h-0.03
		v-0.03c-0.22-0.56-0.37-0.93-0.65-1.34c-0.19-0.25-0.37-0.37-0.56-0.37c-0.16,0-0.34,0.09-0.5,0.28c-0.41,0.47-0.69,1.37-0.59,1.96
		c0.09,0.47,0.44,0.72,1.03,0.72c0.41,0,0.78-0.12,0.94-0.16l0.06-0.03l-0.03,0.06c-1.06,2.28-2.87,2.74-4.21,2.74
		c-0.62,0-1.25-0.09-1.9-0.28h-0.06c-0.06,0-0.12,0.06-0.12,0.09c0,0.06,0.03,0.12,0.12,0.16c1.12,0.41,2.09,0.62,2.93,0.62
		c2,0,3.18-1.15,3.8-3.62l0.06,0.06c0.41-0.19,0.65-0.44,0.81-1.03h0.06c0.19,1.53,1.06,2.06,1.84,2.06c0.59,0,1.18-0.34,1.56-0.87
		c0.03-0.06,0.06-0.09,0.09-0.09c0.06,0,0.09,0.06,0.12,0.12c0.06,0.12,0.19,0.25,0.31,0.31h0.03v0.03
		c-0.06,0.25-0.12,0.44-0.19,0.62c-0.03,0.19-0.09,0.34-0.16,0.53c-0.03,0.12-0.03,0.22,0.03,0.28c0.03,0,0.09-0.06,0.16-0.22
		c0.09-0.25,0.22-0.72,0.37-1.09v-0.03h0.03c0.53,0.12,1.18,0.19,1.84,0.19c1.06,0,2.21-0.16,3.4-0.47
		c2.34-0.72,2.06-2.31,1.84-3.37l-0.75-3.93c0.06-0.09,0.12-0.16,0.16-0.22c0.06-0.09,0.12-0.19,0.22-0.34
		c0.03-0.06,0.03-0.09,0-0.16c-0.16-0.25-0.34-0.56-0.53-0.84l-0.12-0.19c-0.03-0.03-0.06-0.09-0.09-0.09
		C61.28,135.63,61.25,135.66,61.22,135.69z M54.2,136.94c-0.03,0.03-0.06,0.03-0.09,0.09c-0.03,0.09-0.09,0.34-0.16,0.47
		c0,0.06,0.03,0.06,0.09,0.03c0.09-0.03,0.22-0.09,0.31-0.16c0.53-0.22,2.93-1.12,3.58-1.4l0.03,0.03c0.03-0.03,0.09-0.03,0.09-0.09
		c0.03-0.09,0.09-0.31,0.12-0.44c0-0.06,0-0.06-0.06-0.06C57.38,135.72,54.86,136.66,54.2,136.94z M42.02,136.5
		c-0.03,0.03-0.06,0.03-0.09,0.09c-0.03,0.06-0.09,0.34-0.16,0.47c0,0.06,0.03,0.06,0.09,0.03c0.09-0.03,0.22-0.09,0.31-0.16
		l0.03,0.03c0.5-0.22,2.46-1.03,3.12-1.28c0.03-0.03,0.09-0.03,0.09-0.09c0.03-0.09,0.09-0.31,0.12-0.44c0-0.06,0-0.06-0.06-0.06
		C44.73,135.41,42.67,136.25,42.02,136.5z M48.66,135.13c-0.06,0-0.06,0.03-0.09,0.09c-0.03,0.06-0.09,0.34-0.12,0.47
		c-0.03,0.06,0.03,0.06,0.06,0.03c0.09-0.03,0.22-0.12,0.31-0.16c0.53-0.22,2.93-1.12,3.58-1.37h0.03c0.03-0.03,0.06-0.03,0.09-0.09
		c0.03-0.09,0.09-0.31,0.12-0.44c0-0.06,0-0.06-0.06-0.06C51.84,133.92,49.31,134.85,48.66,135.13z M64.87,133.54
		c0.06,0.06,0.12,0.16,0.12,0.25c-0.09,0.22-0.75,0.47-1,0.53c-0.03,0.03-0.31,0.06-0.28,0v-0.03c0.12-0.25,0.28-0.5,0.5-0.69
		C64.43,133.42,64.65,133.35,64.87,133.54z M64.21,133.14c-0.28,0.28-0.65,0.84-0.84,1.18c-0.12,0-0.34-0.12-0.47-0.19
		c-0.16-0.09-0.25,0.06-0.31,0.19c-0.12,0.22-0.25,0.47-0.34,0.72l-0.09,0.25c0,0.12,0.03,0.16,0.12,0.06l-0.03-0.03
		c0.19-0.19,0.31-0.66,0.44-0.59c0.59,0.34,1.37,0.22,1.93-0.19c0.44-0.31,0.78-0.81,0.65-1.34c-0.03-0.19-0.25-0.37-0.47-0.37
		C64.59,132.82,64.37,132.98,64.21,133.14z M199.06,164.35c-0.19,0.28-0.87,0.41-1.12-0.06c0.15-0.4,0.34-0.58,0.52-0.59
		C198.7,163.72,198.91,163.99,199.06,164.35z M197.87,163.11h0.03c-0.31,0.47-0.47,1.47-0.31,1.93c0.34,1.03,1.47,0.65,1.75,0.09
		c-0.16,1.75-1.53,2.93-2.99,3.4c-1.12,0.37-2.37,0.37-3.4,0.19c-0.19-0.03-0.22,0.22-0.06,0.25c3.96,1.31,6.55-0.34,6.86-3.34
		c0.06-0.94,0-1.75-0.53-2.49C198.69,162.36,198.28,162.48,197.87,163.11z M200.06,157.99c-0.75,0.31-2.81,1.15-3.46,1.43
		c-0.03,0.03-0.06,0.03-0.09,0.09c-0.03,0.06-0.09,0.34-0.16,0.47c0,0.06,0.03,0.06,0.09,0.03c0.09-0.03,0.22-0.09,0.31-0.16h0.03
		c0.5-0.22,2.46-1.03,3.12-1.28c0.03-0.03,0.09-0.03,0.09-0.09c0.03-0.09,0.09-0.31,0.12-0.44
		C200.15,157.99,200.12,157.99,200.06,157.99z M196.44,166.1c-0.75,0.31-2.43,1-3.09,1.28c-0.03,0.03-0.06,0.03-0.09,0.09
		c-0.03,0.09-0.09,0.34-0.16,0.47c0,0.06,0.03,0.06,0.09,0.03c0.09-0.03,0.22-0.09,0.31-0.16h0.03c0.53-0.22,2.09-0.87,2.74-1.12
		c0.03-0.03,0.09-0.03,0.09-0.09c0.03-0.09,0.09-0.31,0.12-0.44C196.53,166.1,196.5,166.1,196.44,166.1z M188.92,159.86l-0.19,0.35
		c-0.02,0.04-0.04,0.07-0.02,0.11c0.05,0.14,0.1,0.3,0.09,0.39c-0.22,0.21-0.45,0.24-0.62,0.1c-0.11-0.09-0.15-0.26-0.14-0.48
		c0.01-0.16,0.03-0.22-0.11-0.11c-0.18,0.15-0.13,0.13-0.14,0.22c-0.07,0.52-0.29,0.76-0.69,0.78c-0.25,0.02-0.44-0.16-0.26-0.66
		c0.04-0.11-0.04-0.22-0.15,0c-0.38,0.75-0.15,1.18,0.24,1.23c0.31,0.05,0.69-0.13,0.88-0.61c0.15,0.24,0.44,0.31,0.71,0.24
		c0.34-0.09,0.42-0.25,0.51-0.53c0.09-0.27,0.1-0.62-0.03-1.05C188.97,159.78,188.93,159.82,188.92,159.86z M188.49,164.7
		c0.19,0.44,0.44,0.81,0.72,1.09c-0.56-0.09-1.15-0.22-1.53-0.47c-0.12-0.06-0.09-0.12-0.03-0.22c0.12-0.19,0.31-0.34,0.53-0.47
		c0.06-0.06,0.12-0.09,0.19-0.06l-0.03-0.03C188.4,164.54,188.46,164.57,188.49,164.7z M195.04,164.57c-0.62-0.09-1.15-0.31-1.5-0.5
		c0.25-0.41,0.5-0.59,0.72-0.59h0.06C194.69,163.54,194.94,164.07,195.04,164.57z M183.44,157.9c-0.06,0.19-0.16,0.41-0.22,0.59
		c-0.06,0.19-0.03,0.19,0,0.4c0.4,2.12,0.4,4.15,0.78,6.36c0.16,0.81,0.41,1.9,1.47,1.96c0.93,0.06,1.68-0.81,1.84-1.18
		c0.06,0.16,0.16,0.28,0.31,0.37c0.44,0.22,1.22,0.34,1.87,0.44c0.25,0.03,0.28,0.03,0.31-0.22l0.06-0.41
		c0.81,0.19,1.68,0.09,2.31-0.25c0.38-0.19,0.66-0.53,0.91-1.09c0.31,0.37,0.9,0.62,2.09,0.75c0.12,0,0.25,0.03,0.28-0.12
		c0.06-0.22,0.09-0.41,0.12-0.59c0.03-0.22,0.03-0.28,0-0.53c-0.09-0.69-0.31-1.47-0.69-1.81c-0.09-0.09-0.22-0.16-0.34-0.19h-0.09
		c-0.09,0-0.19,0.03-0.28,0.09c-0.28,0.16-0.5,0.53-0.72,0.9c-0.25,0.41-0.44,0.84-0.65,1.15c-0.59,0.94-2.06,0.9-2.81,0.65
		c-0.5-0.19-0.9-0.53-1.28-1.09c-0.12-0.19-0.22-0.22-0.34-0.22s-0.25,0.09-0.34,0.19c-0.25,0.19-0.53,0.59-0.69,0.87
		c-0.13,0.25-0.28,0.5-0.47,0.69h0.03c-0.87,0.87-1.84,0.75-2.24-0.28c-0.28-0.75-0.37-1.87-0.5-3.02c-0.16-1.59-0.28-3.34-0.53-4.4
		c-0.03-0.16-0.06-0.22-0.09-0.22C183.5,157.71,183.47,157.78,183.44,157.9z M189.65,157.46c-0.75,0.31-3.27,1.25-3.93,1.53
		c-0.03,0.03-0.06,0.03-0.09,0.09c-0.03,0.09-0.09,0.34-0.16,0.47c0,0.06,0.03,0.06,0.09,0.03c0.09-0.03,0.22-0.09,0.31-0.16
		c0.53-0.22,2.93-1.12,3.58-1.37h0.03c0.03-0.03,0.09-0.03,0.09-0.09c0.03-0.09,0.09-0.31,0.12-0.44
		C189.71,157.46,189.71,157.46,189.65,157.46z M180.27,164c0.47,0.47,0.9,0.97,1.15,1.5c-0.06,1.25-1.84,3.93-5.61,3.18
		c-0.22-0.03-0.28,0.19-0.06,0.28c1.96,0.65,5.86,1.03,6.08-3.46c0-1.28-0.87-2.21-1.31-2.53
		C180.36,162.88,180.21,163.94,180.27,164z M175.65,161.8c-0.12,0.09-0.12,1-0.09,1.03c0.5,0.44,1.09,0.97,1.4,1.53
		c-0.22,1.19-2.21,4.15-5.96,3.37c-0.22-0.03-0.28,0.22-0.06,0.31c2,0.66,5.3,0.81,6.24-2.56c0.25-0.9,0.25-1.59-0.22-2.37
		C176.65,162.58,175.78,161.7,175.65,161.8z M167.67,161.61c-0.12,0.19-0.28,0.47-0.37,0.65l0.03,0.03
		c-0.06,0.06-0.06,0.12,0.03,0.16c0.16,0.09,0.44,0.25,0.62,0.34c0.06,0.03,0.12,0.03,0.16-0.03c0.12-0.19,0.28-0.44,0.38-0.62
		c0.06-0.06,0.06-0.12,0-0.16c-0.19-0.12-0.5-0.28-0.69-0.41C167.73,161.55,167.7,161.55,167.67,161.61z M164.55,167.38
		c0.22,0.06,0.41,0.16,0.5,0.25c0.12,0.09,0.19,0.19,0.22,0.25v0.06c0,0.03-0.03,0.03-0.03,0.06c-0.03,0.06-0.09,0.09-0.16,0.16
		c-0.12,0.12-0.31,0.22-0.5,0.22c-0.78,0-1.46-0.56-1.81-1.22l0.03-0.03C163.46,167.16,164.09,167.25,164.55,167.38z M156.98,164.73
		c0.06,0.09,0.09,0.19,0.19,0.34c0.12,0.25,0.31,0.56,0.53,0.81c-0.5-0.06-0.93-0.19-1.28-0.31c-0.16-0.06-0.28-0.12-0.38-0.19
		c-0.03-0.03-0.09-0.06-0.09-0.09c-0.03-0.03-0.03-0.06-0.03-0.09c0-0.03,0.06-0.09,0.12-0.16c0.06-0.06,0.12-0.16,0.22-0.22
		c0.16-0.16,0.37-0.28,0.5-0.28h0.06C156.88,164.57,156.92,164.63,156.98,164.73z M164.12,163.23h0.06c0.03,0,0.09,0.03,0.16,0.09
		c0.06,0.06,0.09,0.12,0.16,0.19c0.09,0.16,0.16,0.34,0.19,0.53c-0.06,0.19-0.25,0.44-0.53,0.65c-0.28,0.22-0.69,0.47-1.12,0.66
		c0.12-0.47,0.31-1,0.5-1.4c0.09-0.22,0.22-0.37,0.31-0.5c0.09-0.12,0.22-0.22,0.31-0.25L164.12,163.23z M171.13,162.7h0.03
		c0.06,0,0.19,0.06,0.34,0.19c0.12,0.12,0.31,0.31,0.47,0.59c-0.22,0.19-0.44,0.25-0.59,0.25c-0.16,0-0.31-0.09-0.47-0.19
		c-0.06-0.03-0.12-0.09-0.16-0.16c-0.03-0.06-0.06-0.09-0.06-0.12c0-0.03,0.03-0.09,0.06-0.16c0.03-0.06,0.06-0.12,0.09-0.19
		c0.03-0.06,0.09-0.16,0.16-0.19c0.03-0.03,0.09-0.06,0.12-0.06V162.7z M171.35,161.58c-0.09,0-0.22,0.06-0.34,0.19
		c-0.12,0.12-0.22,0.25-0.34,0.44c-0.22,0.37-0.37,0.84-0.44,1.25c-0.06,0.41,0.06,0.72,0.25,0.94c0.19,0.22,0.47,0.37,0.69,0.41
		c0.19,0.03,0.41-0.03,0.59-0.19c0.19-0.16,0.34-0.34,0.47-0.56c0.16,0.37,0.25,0.72,0.25,0.97c-0.06,0.34-0.25,0.53-0.5,0.65
		c-0.25,0.12-0.56,0.19-0.84,0.19c-0.62,0-1.25-0.22-1.56-0.56c0.09-0.19,0.22-0.47,0.28-0.69c0.03-0.06,0.03-0.12,0.03-0.16
		c0-0.03-0.03-0.06-0.03-0.06h-0.06l-0.09,0.09c-0.31,0.44-0.72,0.62-1.37,0.87c-1.4,0.53-3.37,0.72-4.96,0.75
		c0.97-0.59,1.65-1.68,1.62-2.87c0-0.25-0.06-0.5-0.12-0.69c-0.06-0.16-0.16-0.28-0.22-0.38c-0.06-0.09-0.16-0.12-0.25-0.12h-0.06
		c-0.22,0.06-0.4,0.28-0.59,0.53c-0.19,0.25-0.31,0.53-0.44,0.75c-0.31,0.69-0.59,1.4-0.75,2.09c-1.12,0.37-2.77,0.34-3.77-0.03
		c-0.75-0.31-1.09-0.87-1.47-1.46c-0.09-0.16-0.19-0.28-0.28-0.31c-0.09,0-0.22,0.03-0.34,0.09c-0.12,0.06-0.25,0.19-0.41,0.31
		c-0.28,0.25-0.53,0.59-0.69,0.94c-0.31,0.22-0.56,0.5-0.72,0.84c-0.22,0.47-0.41,1.15-0.37,1.75c0.06,1.15,0.22,1.56,0.44,2.81
		c0.22,1.31,0.5,3.12,0.59,4.21c0,0.06,0.03,0.12,0.03,0.16c0,0,0,0.03,0.03,0.03c0,0,0.03,0,0.06-0.06
		c0.03-0.03,0.03-0.06,0.06-0.16c0.12-0.75,0.12-1.62,0-2.68c-0.22-1.81-0.65-3.4-0.81-5.14c0-0.12,0.06-0.22,0.16-0.34
		c0.09-0.09,0.22-0.19,0.31-0.25c0.06-0.06,0.22-0.12,0.34-0.19c0,0.03,0.03,0.09,0.06,0.16c0.03,0.06,0.09,0.12,0.19,0.22
		c0.19,0.16,0.44,0.31,0.81,0.41c0.44,0.12,0.81,0.16,1.09,0.19h0.31h0.09h0.03v-0.03c0-0.03,0.03-0.09,0.03-0.12
		c0.03-0.09,0.06-0.22,0.09-0.37c0.81,0.31,2.18,0.34,3.06,0.28v0.31V167v0.03h0.06h0.75c0.37,1.5,1.43,2.37,2.34,2.24
		c0.16-0.03,0.31-0.12,0.47-0.28c0.12-0.16,0.25-0.37,0.34-0.62c0.19-0.5,0.22-1.09,0-1.5c1.43-0.09,3.09-0.59,3.83-1.28
		c0.25,0.37,0.62,0.78,1.09,0.97c0.44,0.19,0.84,0.22,1.18,0.12c0.34-0.09,0.62-0.31,0.84-0.65c0.44-0.65,0.53-1.65,0.37-2.43
		c-0.09-0.47-0.37-1.03-0.69-1.43c-0.16-0.22-0.31-0.37-0.47-0.5c-0.16-0.12-0.28-0.19-0.37-0.19L171.35,161.58z M165.46,160.77
		c-0.06,0.12-0.19,0.44-0.19,0.53c0,0.03,0.12,0.19,0.28,0.41c0.47,0.69,0.75,1.43,0.59,2.46c-0.03,0.06-0.03,0.16,0,0.16v0.03
		c0.22,0,0.34-0.78,0.34-1.18c0-0.97-0.4-1.75-0.9-2.37C165.55,160.71,165.49,160.71,165.46,160.77z M155.64,160.33
		c-0.03,0.06-0.06,0.16-0.09,0.22c-0.03,0.09,0.03,0.19,0.09,0.09c0.06-0.12,0.16-0.22,0.25-0.28c0.25-0.16,0.5-0.22,0.78-0.19
		c0.25,0.03,0.72,0.19,0.72,0.22c0,0.03-1.09,0.59-1.25,0.69c-0.09,0.06-0.16,0.12-0.16,0.22c0.03,0.09,0.12,0.09,0.22,0.06
		c0.41-0.16,0.56-0.12,0.9-0.28l-0.03-0.03c0.47-0.19,0.59-0.44,0.69-0.47c0.03,0,0.09,0,0.12-0.03c0.12-0.12,0.25-0.44,0.25-0.56
		c0-0.06-0.31-0.09-0.4-0.12c-0.28-0.06-0.59-0.22-0.9-0.25C156.36,159.58,155.89,159.8,155.64,160.33z M175.06,159.34
		c-0.12,0.19-0.28,0.47-0.37,0.65l0.03,0.03c-0.06,0.06-0.06,0.12,0.03,0.16c0.16,0.09,0.44,0.25,0.62,0.34
		c0.06,0.03,0.12,0.03,0.16-0.03c0.12-0.19,0.28-0.47,0.37-0.62c0.06-0.06,0.06-0.12,0-0.16c-0.19-0.12-0.5-0.28-0.69-0.41
		C175.12,159.27,175.09,159.27,175.06,159.34z M170.98,159.27c-0.12,0.22-0.28,0.5-0.44,0.72c-0.22-0.16-0.5-0.31-0.69-0.44
		c-0.12-0.06-0.16-0.06-0.22,0.03l-0.03-0.03c-0.12,0.19-0.28,0.44-0.41,0.65c-0.03,0.09-0.03,0.16,0.09,0.22
		c0.19,0.12,0.53,0.31,0.72,0.41c0.06,0.03,0.12,0,0.16-0.06c0.12-0.12,0.25-0.34,0.41-0.62c0.28,0.19,0.53,0.31,0.75,0.44
		c0.06,0.03,0.12,0.03,0.16-0.03c0.12-0.16,0.31-0.47,0.41-0.62c0.06-0.12,0.03-0.16-0.06-0.22c-0.13-0.09-0.5-0.31-0.69-0.44
		C171.04,159.21,171.01,159.21,170.98,159.27z M177.87,160.29c-0.03,0.03-0.06,0.03-0.09,0.09c-0.03,0.09-0.09,0.34-0.16,0.47
		c0,0.06,0.03,0.06,0.09,0.03c0.09-0.03,0.22-0.09,0.31-0.16c0.5-0.22,2.93-1.12,3.58-1.37h0.03c0.03-0.03,0.09-0.03,0.09-0.09
		c0.03-0.09,0.09-0.31,0.12-0.44c0-0.06,0-0.06-0.06-0.06C181.05,159.08,178.52,160.01,177.87,160.29z M165.24,159.4
		c-0.03,0.03-0.06,0.03-0.09,0.09c-0.03,0.06-0.09,0.34-0.16,0.47c0,0.06,0.03,0.06,0.09,0.03c0.09-0.03,0.22-0.09,0.31-0.16
		l0.03,0.03c0.5-0.22,2.09-0.87,2.74-1.12c0.03-0.03,0.09-0.03,0.09-0.09c0.03-0.09,0.09-0.31,0.12-0.44c0-0.06,0-0.06-0.06-0.06
		C167.58,158.46,165.9,159.12,165.24,159.4z M162.59,158.08c0.09,0.1,0.21,0.3,0.23,0.65c0,0.1-0.01,0.24-0.02,0.25
		c-0.01,0.01-0.19-0.07-0.22-0.09c-0.07-0.03-0.25-0.1-0.58-0.23c-0.13-0.02,0-0.23,0-0.23c0.05-0.09,0.13-0.2,0.22-0.3l0.12-0.08
		C162.41,158.03,162.53,158,162.59,158.08z M162.51,157.47c-0.37,0.06-0.81,0.58-0.99,1.18c-0.08,0.27-0.03,0.42,0.12,0.51
		c0.21,0.13,0.52,0.24,0.88,0.33c-0.42,0.71-1.78,1.62-2.03,1.76c-0.3,0.17-0.24,0.36,0.12,0.19c1.37-0.62,2.04-1.27,2.35-1.85
		c0.09,0.02,0.17,0.05,0.27,0.07c0.16,0.04,0.13,0.06,0.21-0.2c0.04-0.12,0.07-0.21,0.08-0.27l-0.41-0.14l0.04-0.14
		c0.05-0.47-0.07-0.86-0.11-0.98C162.92,157.57,162.74,157.43,162.51,157.47z M169.2,157.18c-0.03,0.06-0.06,0.16-0.09,0.22
		c-0.03,0.09,0.03,0.19,0.09,0.09c0.06-0.12,0.16-0.22,0.25-0.28c0.25-0.16,0.5-0.22,0.78-0.19c0.25,0.03,0.72,0.19,0.72,0.22
		c0,0.06-1.09,0.59-1.25,0.69c-0.09,0.06-0.19,0.12-0.16,0.22c0.03,0.09,0.12,0.09,0.22,0.06c0.4-0.16,0.56-0.12,0.9-0.28
		l-0.03-0.03c0.47-0.19,0.59-0.44,0.69-0.47c0.03,0,0.09,0,0.12-0.03c0.12-0.12,0.25-0.44,0.25-0.56c0-0.06-0.31-0.09-0.41-0.12
		c-0.28-0.06-0.59-0.22-0.9-0.25C169.92,156.44,169.45,156.65,169.2,157.18z M176.81,155.97c-0.75,0.31-3.27,1.25-3.93,1.53
		c-0.03,0.03-0.06,0.03-0.09,0.09c-0.03,0.09-0.09,0.34-0.16,0.47c0,0.06,0.03,0.06,0.09,0.03c0.09-0.03,0.22-0.09,0.31-0.16
		c0.5-0.22,2.93-1.12,3.59-1.37h0.03c0.03-0.03,0.09-0.03,0.09-0.09c0.03-0.09,0.09-0.31,0.12-0.44
		C176.87,155.97,176.84,155.97,176.81,155.97z M143.46,169.47c-0.03,0.03-0.06,0.03-0.09,0.09c-0.03,0.06-0.09,0.34-0.16,0.47
		c0,0.06,0.03,0.06,0.09,0.03c0.09-0.03,0.22-0.09,0.31-0.16c0.53-0.22,2.93-1.12,3.59-1.37h0.03c0.03-0.03,0.09-0.03,0.09-0.09
		c0.03-0.09,0.09-0.31,0.12-0.44c0-0.06,0-0.06-0.06-0.06C146.64,168.25,144.11,169.19,143.46,169.47z M151.69,167.57
		c-0.12,0.22-0.28,0.5-0.44,0.72c-0.22-0.16-0.5-0.31-0.69-0.44c-0.12-0.06-0.16-0.06-0.22,0.03l-0.03-0.03
		c-0.12,0.19-0.28,0.44-0.41,0.65c-0.03,0.09-0.03,0.16,0.09,0.22c0.19,0.12,0.53,0.31,0.72,0.4c0.06,0.03,0.12,0,0.16-0.06
		c0.12-0.12,0.25-0.34,0.41-0.62c0.28,0.19,0.53,0.31,0.75,0.44c0.06,0.03,0.12,0.03,0.16-0.03c0.12-0.16,0.31-0.47,0.41-0.62
		c0.06-0.12,0.03-0.16-0.06-0.22c-0.12-0.09-0.5-0.31-0.69-0.44C151.75,167.5,151.72,167.5,151.69,167.57z M132.05,163.48
		c0.38,0.66,0.84,1.59,1.03,2.62c-0.87,1.84-4.46,2.21-4.68,0.16c-0.06-0.53,0.19-1.12,0.37-1.84c0.06-0.19-0.09-0.25-0.19-0.06
		c-0.66,1.03-0.84,2.59-0.44,3.37c1,1.78,4.08,1.03,4.99-0.56h-0.03c0.87-1.81-0.37-4.3-0.81-4.71
		C132.17,162.33,132.02,163.45,132.05,163.48z M137.1,165.76c-0.93,0.15-1.36-0.19-1.37-0.32c0.07-0.34,0.37-0.64,0.56-0.64
		C136.6,164.79,136.91,165.35,137.1,165.76z M146.17,164.01c-0.25,0.37-0.69,0.72-0.9,0.87c-0.44-0.22-0.84-0.5-0.81-0.59
		l-0.03-0.03c0.06-0.22,0.72-1.03,1.12-1.03C145.83,163.23,145.98,163.51,146.17,164.01z M141.4,164.04
		c-0.16,0.22-0.65,0.66-1.09,0.87c-0.12-0.03-0.56-0.37-0.78-0.59c0.25-0.37,0.72-1.15,1.15-1.12
		C140.93,163.2,141.21,163.45,141.4,164.04z M144.86,162.67c-0.75,0.78-1.06,1.75-0.66,2.62c-0.28,0.09-1.87,0.5-3.02,0
		c0.59-0.69,0.84-1.96,0.22-2.84c-0.16-0.22-0.34-0.31-0.53-0.31c-0.56,0-1.12,0.81-1.31,1.09c-0.38,0.59-0.56,1.34-0.28,2.09
		c-0.44,0.19-1.12,0.37-1.62,0.41c-0.16-0.53-0.34-1.15-0.69-1.59c-0.97-1.34-1.93,1.15-1.59,2.12c0.19,0.53,0.87,0.72,1.84,0.59
		c-0.94,2.28-3.58,3.12-6.27,2.46c-0.25-0.06-0.34,0.22-0.06,0.34c2.5,0.93,5.49,1.4,6.86-2.87c0.75-0.12,1.75-0.47,2.37-0.81
		c0.69,0.37,2.59,1.12,4.99-0.09c1.81,0.81,3.37,0.72,4.86-0.62c0.12-0.09,0.16-0.16,0.28-0.03c0,0,0.87,0.75,1.5,0.66
		c0.25-0.03,0.59-0.66,0.72-1.37c0.09-0.62,0.06-1.96-0.16-2.06c-0.12-0.06-0.34,0.81-0.34,0.9c0.06,0.59,0.12,1.22,0.06,1.37
		c-0.09,0.34-0.87-0.06-1.31-0.31c-0.53-0.34-0.5-0.31-0.97,0.09c-0.97,0.93-2.24,1.09-3.68,0.62c0.75-0.94,0.56-2.09,0.22-2.62
		C145.86,161.8,145.3,162.2,144.86,162.67z M148.45,161.52c-0.12,0.19-0.28,0.47-0.37,0.66l0.03,0.03
		c-0.06,0.06-0.06,0.12,0.03,0.16c0.16,0.09,0.44,0.25,0.62,0.34c0.06,0.03,0.12,0.03,0.16-0.03c0.12-0.19,0.28-0.44,0.38-0.62
		c0.06-0.06,0.06-0.12,0-0.16c-0.19-0.12-0.5-0.28-0.69-0.4C148.51,161.45,148.48,161.45,148.45,161.52z M130.15,161.42
		c-0.12,0.19-0.28,0.47-0.37,0.66v0.03c-0.06,0.06-0.06,0.12,0.03,0.16c0.16,0.09,0.44,0.25,0.62,0.34
		c0.06,0.03,0.12,0.03,0.16-0.03c0.12-0.19,0.28-0.44,0.37-0.62c0.06-0.06,0.06-0.12,0-0.16c-0.16-0.12-0.47-0.31-0.65-0.4
		C130.21,161.36,130.18,161.36,130.15,161.42z M144.92,159.99c-0.12,0.19-0.28,0.47-0.37,0.65l0.03,0.03
		c-0.06,0.06-0.06,0.12,0.03,0.16c0.16,0.09,0.44,0.25,0.62,0.34c0.06,0.03,0.12,0.03,0.16-0.03c0.12-0.19,0.28-0.44,0.38-0.62
		c0.06-0.06,0.06-0.12,0-0.16c-0.19-0.12-0.5-0.28-0.69-0.41C144.99,159.93,144.96,159.93,144.92,159.99z M140.78,159.77
		c-0.12,0.22-0.28,0.5-0.44,0.72c-0.22-0.16-0.5-0.31-0.69-0.44c-0.12-0.06-0.16-0.06-0.22,0.03v-0.03
		c-0.12,0.19-0.28,0.44-0.41,0.66c-0.03,0.09-0.03,0.16,0.09,0.22c0.19,0.12,0.53,0.31,0.72,0.4c0.06,0.03,0.09,0,0.16-0.06
		c0.09-0.12,0.22-0.34,0.38-0.62c0.28,0.19,0.53,0.31,0.75,0.44c0.06,0.03,0.12,0.03,0.16-0.03c0.12-0.16,0.31-0.47,0.41-0.62
		c0.06-0.12,0.03-0.16-0.06-0.22c-0.12-0.09-0.5-0.31-0.69-0.44C140.84,159.71,140.81,159.71,140.78,159.77z M132.17,157.75
		c-0.75,0.31-3.27,1.25-3.93,1.53c-0.03,0.03-0.06,0.03-0.09,0.09c-0.03,0.09-0.09,0.34-0.16,0.47c0,0.06,0.03,0.06,0.09,0.03
		c0.09-0.03,0.22-0.09,0.31-0.16c0.5-0.22,2.93-1.12,3.59-1.37h0.03c0.03-0.03,0.09-0.03,0.09-0.09c0.03-0.09,0.09-0.31,0.12-0.44
		C132.24,157.75,132.24,157.75,132.17,157.75z M152.42,157.78c0.09,0.1,0.21,0.3,0.23,0.65c0,0.1-0.01,0.24-0.02,0.25
		c-0.01,0.01-0.19-0.07-0.22-0.09c-0.07-0.03-0.25-0.1-0.58-0.23c-0.13-0.02,0-0.23,0-0.23c0.05-0.09,0.13-0.21,0.22-0.3l0.12-0.08
		C152.24,157.73,152.36,157.7,152.42,157.78z M152.34,157.17c-0.37,0.06-0.81,0.58-0.99,1.18c-0.08,0.27-0.03,0.42,0.12,0.51
		c0.21,0.13,0.52,0.24,0.88,0.33c-0.42,0.71-1.78,1.62-2.03,1.76c-0.29,0.17-0.24,0.36,0.13,0.19c1.37-0.62,2.04-1.27,2.34-1.85
		c0.09,0.02,0.18,0.05,0.27,0.07c0.16,0.04,0.13,0.06,0.21-0.2c0.04-0.12,0.07-0.21,0.08-0.27l-0.41-0.14l0.04-0.14
		c0.05-0.47-0.07-0.86-0.11-0.98C152.75,157.26,152.57,157.13,152.34,157.17z M140.59,156.18c0.09,0.1,0.21,0.3,0.23,0.65
		c0,0.1-0.02,0.24-0.02,0.25c-0.01,0.01-0.19-0.07-0.22-0.09c-0.07-0.03-0.25-0.1-0.58-0.23c-0.13-0.02,0-0.23,0-0.23
		c0.05-0.09,0.13-0.21,0.22-0.3l0.12-0.08C140.41,156.13,140.54,156.1,140.59,156.18z M140.52,155.57
		c-0.37,0.06-0.81,0.58-0.99,1.18c-0.08,0.27-0.03,0.42,0.12,0.51c0.21,0.13,0.52,0.23,0.88,0.33c-0.42,0.71-1.78,1.62-2.03,1.76
		c-0.3,0.17-0.24,0.36,0.13,0.19c1.37-0.62,2.04-1.27,2.34-1.85c0.09,0.02,0.17,0.05,0.27,0.07c0.16,0.04,0.13,0.06,0.21-0.2
		c0.04-0.12,0.07-0.21,0.08-0.27l-0.41-0.14l0.04-0.14c0.05-0.47-0.07-0.86-0.11-0.98C140.92,155.66,140.74,155.53,140.52,155.57z"
		/>
</g>
</svg>
