<?xml version="1.0" encoding="iso-8859-1"?>
<!-- Generator: Adobe Illustrator 25.2.1, SVG Export Plug-In . SVG Version: 6.00 Build 0)  -->
<svg version="1.1" xmlns="http://www.w3.org/2000/svg" xmlns:xlink="http://www.w3.org/1999/xlink" x="0px" y="0px"
	 viewBox="0 0 240.74 323.95" enable-background="new 0 0 240.74 323.95" xml:space="preserve">
<g id="Ornaments">
</g>
<g id="Aya_No.">
</g>
<g id="Quran_Text">
	<path fill-rule="evenodd" clip-rule="evenodd" d="M175.03,117.05c-0.93,0.62-1.99,0.9-3.12,0.75c-0.25-0.03-0.5-0.09-0.69-0.22
		c-0.16-0.09-0.25,0.12-0.31,0.25c-0.06,0.09-0.33,0.83-0.21,0.87c0.15-0.07,0.21-0.28,0.27-0.4c0.06-0.09,0.37,0.06,0.47,0.06
		c0.59,0.16,1.25,0.12,1.87,0c0.56-0.12,1.03-0.37,1.53-0.66c0.22-0.12,0.44-0.28,0.44-0.56
		C175.31,116.89,175.18,116.96,175.03,117.05z M179.61,114.46c-0.03,0-0.06,0.06-0.06,0.16l-0.16,0.87c-0.03,0.25-0.03,0.28,0,0.47
		c0.09,0.56,0.25,1.15,0.37,1.71c0.25,1.25,0.5,2.46,0.72,3.62c0.19,0.94,0.31,1.9,0.37,2.74c0,0.16,0.09,0.16,0.12,0
		c0.12-0.47,0.19-0.97,0.16-1.5c0-0.5-0.19-1.53-0.34-2.34c-0.19-1.03-0.44-2.12-0.62-3.06c-0.19-0.87-0.37-1.75-0.47-2.59
		c0-0.09-0.06-0.12-0.09-0.12V114.46z M173.65,121.85c0.16,0.12,0.25,0.41,0.34,0.69c0.06,0.19,0.09,0.37,0.19,0.5l0.03,0.06h-0.06
		c-0.44-0.06-1.18-0.31-1.43-0.69c0.16-0.34,0.53-0.59,0.78-0.59C173.56,121.82,173.62,121.82,173.65,121.85z M177.05,114.18
		c-0.16,0.25-0.28,0.5-0.34,0.65c-0.06,0.09-0.03,0.19,0,0.28c0.06,0.19,0.19,0.41,0.25,0.56l0.03,0.06
		c0.22,1.65,0.66,3.99,0.94,5.52c0.06,0.47,0.16,0.84,0.19,1.12c-0.28,0.31-1.12,0.56-1.87,0.56c-0.44,0-1.03-0.09-1.5-0.47
		c-0.22-0.19-0.41-0.44-0.56-0.69c-0.12-0.16-0.22-0.31-0.31-0.41c-0.06-0.06-0.16-0.16-0.28-0.16s-0.22,0.06-0.38,0.19
		c-0.28,0.25-1.21,1.15-0.59,1.96c-0.12,0.84-2.56,2.15-3.37,2.59c-0.16,0.09-0.16,0.12-0.16,0.12s0.03,0.03,0.09,0.03h0.12
		l0.06-0.03c0.94-0.19,3.18-0.78,3.46-2.43v-0.06l0.03,0.03c0.38,0.25,1.37,0.56,1.75,0.56h0.06c0.12,0,0.16-0.25,0.16-0.5v-0.06
		l0.06,0.03c0.37,0.19,0.81,0.28,1.28,0.28c0.31,0,0.65-0.03,0.97-0.12c0.5-0.16,0.94-0.31,1.12-0.72c0.25-0.53,0.16-1.4,0.12-1.81
		c-0.09-0.94-0.34-2.15-0.56-3.34c-0.16-0.72-0.28-1.4-0.38-2.06c0.06-0.06,0.09-0.09,0.12-0.16c0.09-0.12,0.16-0.25,0.22-0.37
		c0.03-0.09-0.09-0.25-0.22-0.44c-0.16-0.22-0.34-0.5-0.44-0.78c0-0.03,0-0.03-0.03-0.03C177.08,114.12,177.08,114.15,177.05,114.18
		z M178.61,112c-0.53,0.5-1.46,0.9-2.21,0.87c-0.5,0-0.78-0.12-1.03-0.31c-0.06-0.06-0.12-0.03-0.19,0.03
		c-0.19,0.22-0.41,0.75-0.47,1.09c0,0.06-0.03,0.16,0,0.19c0.03,0,0.06,0,0.09-0.06c0.06-0.16,0.16-0.47,0.31-0.65
		c0.03-0.03,0.06,0,0.09,0c0.34,0.22,0.81,0.34,1.31,0.31c0.69-0.03,1.96-0.47,2.15-1.4v-0.09
		C178.67,111.97,178.64,111.97,178.61,112z"/>
</g>
</svg>
