<?xml version="1.0" encoding="iso-8859-1"?>
<!-- Generator: Adobe Illustrator 25.2.1, SVG Export Plug-In . SVG Version: 6.00 Build 0)  -->
<svg version="1.1" xmlns="http://www.w3.org/2000/svg" xmlns:xlink="http://www.w3.org/1999/xlink" x="0px" y="0px"
	 viewBox="0 0 240.74 323.95" enable-background="new 0 0 240.74 323.95" xml:space="preserve">
<g id="Ornaments">
</g>
<g id="Aya_No.">
</g>
<g id="Quran_Text">
	<path fill-rule="evenodd" clip-rule="evenodd" d="M114.15,164.97c-0.53,0.62-1.09,0.22-1.18-0.06
		C113.31,163.76,113.81,164.16,114.15,164.97z M112.56,165.35c0.19,1.06,1.4,1.34,1.87,0.25c0.03,1.09-1.03,2.25-2.09,2.78
		c-1.25,0.62-2.81,0.59-3.96,0.34c-0.19-0.03-0.28,0.19-0.06,0.28c3.05,1.09,5.74,0.47,6.36-2.37c0.28-1.09,0.16-2.53-0.78-3.34
		C113.16,162.7,112.44,164.41,112.56,165.35z M111.48,160.48c-0.03,0.03-0.06,0.03-0.09,0.09c-0.03,0.09-0.09,0.34-0.16,0.47
		c-0.03,0.06,0.03,0.06,0.09,0.03c0.09-0.03,0.22-0.09,0.31-0.16l0.03,0.03c0.53-0.22,2.46-1.03,3.12-1.28
		c0.03-0.03,0.09-0.03,0.09-0.09c0.03-0.09,0.09-0.31,0.12-0.44c0-0.06-0.03-0.06-0.06-0.06
		C114.19,159.39,112.13,160.23,111.48,160.48z M106.18,168.94c-0.75,0.31-2.43,0.97-3.09,1.25c-0.03,0.03-0.06,0.03-0.09,0.09
		c-0.03,0.06-0.09,0.34-0.16,0.47c0,0.06,0.03,0.06,0.09,0.03c0.09-0.03,0.22-0.09,0.31-0.16l0.03,0.03
		c0.53-0.22,2.09-0.87,2.74-1.12c0.03-0.03,0.09-0.03,0.09-0.09c0.03-0.09,0.09-0.31,0.12-0.44
		C106.28,168.94,106.24,168.94,106.18,168.94z M101.63,168.16c-0.12,0.22-0.28,0.5-0.44,0.72c-0.22-0.16-0.5-0.31-0.69-0.44
		c-0.12-0.06-0.16-0.06-0.22,0.03l-0.03-0.03c-0.12,0.19-0.28,0.44-0.41,0.66c-0.03,0.09-0.03,0.16,0.09,0.22
		c0.19,0.12,0.53,0.31,0.72,0.41c0.06,0.03,0.12,0,0.16-0.06c0.12-0.12,0.25-0.34,0.41-0.62c0.28,0.19,0.53,0.31,0.75,0.44
		c0.06,0.03,0.12,0.03,0.16-0.03c0.12-0.16,0.31-0.47,0.41-0.62c0.06-0.12,0.03-0.16-0.06-0.22c-0.12-0.09-0.5-0.31-0.69-0.44
		C101.69,168.1,101.66,168.1,101.63,168.16z M99.17,162.73c0,0,0,0.01,0.01,0.02c0-0.01,0.01-0.01,0.01-0.02H99.17z M99.19,162.73
		h0.04C99.22,162.71,99.2,162.71,99.19,162.73z M101.07,161.3c-0.06,0.06-0.12,0.34-0.16,1c0,0.03,0.41,0.44,0.5,1.03
		c-0.25,0.25-0.84,0.37-1.5,0.37c-0.22,0-0.25-0.03-0.34-0.19c-0.15-0.27-0.25-0.52-0.4-0.76c-0.09,0.15-0.19,0.84-0.16,0.92
		c0.31,0.72,0.69,1.62,0.72,2.65c-0.72,1.62-4.68,2.28-4.71-0.12c0-0.5,0.19-0.97,0.37-1.56c0.09-0.38-0.09-0.41-0.25-0.12
		c-0.25,0.47-0.47,1.09-0.53,1.65c-0.09,0.9,0,1.75,0.9,2.31c1.12,0.66,2.93,0.28,3.83-0.62c0.75-0.75,0.75-1.9,0.65-3.09
		c0.75,0,1.34-0.22,1.65-0.65c0.25-0.34,0.25-0.87,0.19-1.28c-0.09-0.69-0.34-1.09-0.62-1.43
		C101.19,161.33,101.1,161.24,101.07,161.3z M96.83,161.08c-0.12,0.19-0.28,0.47-0.37,0.66l0.03,0.03
		c-0.06,0.06-0.06,0.12,0.03,0.16c0.16,0.09,0.44,0.25,0.62,0.34c0.06,0.03,0.12,0.03,0.16-0.03c0.13-0.19,0.28-0.44,0.38-0.62
		c0.06-0.06,0.06-0.12,0-0.16c-0.19-0.12-0.5-0.31-0.69-0.41C96.89,161.02,96.86,161.02,96.83,161.08z M103.94,159.52
		c-0.12,0.19-0.28,0.47-0.37,0.65l0.03,0.03c-0.06,0.06-0.06,0.12,0.03,0.16c0.16,0.09,0.44,0.25,0.62,0.34
		c0.06,0.03,0.12,0.03,0.16-0.03c0.12-0.19,0.28-0.44,0.38-0.62c0.06-0.06,0.06-0.12,0-0.16c-0.19-0.12-0.5-0.28-0.69-0.41
		C104,159.46,103.97,159.46,103.94,159.52z M109.21,158.03c-0.25,0.78-0.19,1.56,0,2.34c0.12,0.56,0.19,1.15,0.31,1.75
		c0.19,0.97,0.31,1.96,0.41,2.96c0,0.03,0.03,1.09,0.03,1.09c0.25,0,0.28-0.81,0.31-0.97c0.06-0.31,0.03-0.62,0-0.97l0.03-0.03
		c-0.09-0.9-0.19-1.78-0.34-2.68c-0.09-0.62-0.19-1.25-0.31-1.87c-0.09-0.41-0.16-0.81-0.19-1.22
		C109.42,158.31,109.33,157.62,109.21,158.03z M106.49,157.81c-0.09,0.22-0.22,0.44-0.31,0.62c-0.09,0.16-0.06,0.16,0,0.31
		c0.06,0.12,0.16,0.28,0.31,0.59v-0.03c0.22,1.81,1.15,6.2,1.25,6.95c-0.16,0.62-1.43,0.59-1.93-1.19c-0.34-1.25-0.34-1.5-0.72-2.99
		c-0.12-0.41-0.28,0.78-0.25,0.87c0.12,0.65,0.25,1.31,0.37,1.87c-0.34,0.94-2.59,1.43-2.93,1c-0.16-0.19-0.25-0.22-0.31,0.12
		c-0.06,0.28,0.03,0.78,0.16,0.9c0.44,0.5,2.87-0.12,3.21-1.4c0.22,1,1.09,2.74,2.25,2.03c0.56-0.34,0.53-1.78,0.44-2.31
		c-0.34-1.78-0.9-4.77-1.06-5.71c0.12-0.19,0.22-0.31,0.28-0.44c0.09-0.16,0.12-0.16,0-0.31c-0.22-0.25-0.37-0.5-0.62-0.9
		C106.59,157.71,106.52,157.74,106.49,157.81z M95.02,159.27c-0.03,0.03-0.06,0.03-0.09,0.09c-0.03,0.06-0.09,0.34-0.16,0.47
		c0,0.06,0.03,0.06,0.09,0.03c0.09-0.03,0.22-0.09,0.31-0.16c0.5-0.22,2.93-1.12,3.58-1.37h0.03c0.03-0.03,0.09-0.03,0.09-0.09
		c0.03-0.09,0.09-0.31,0.12-0.44c0-0.06,0-0.06-0.06-0.06C98.2,158.06,95.68,158.99,95.02,159.27z M110.76,155.87
		c0.06,0.06,0.12,0.16,0.12,0.25c-0.09,0.22-0.75,0.47-1,0.53c-0.03,0.03-0.31,0.06-0.28,0l-0.03-0.03c0.16-0.25,0.31-0.5,0.53-0.69
		C110.33,155.75,110.55,155.69,110.76,155.87z M110.11,155.47c-0.28,0.28-0.66,0.84-0.84,1.18c-0.12,0-0.34-0.12-0.47-0.19
		c-0.16-0.09-0.25,0.06-0.31,0.19c-0.12,0.22-0.25,0.47-0.34,0.72l-0.09,0.25c0,0.12,0.03,0.16,0.12,0.06v-0.03
		c0.16-0.19,0.31-0.65,0.41-0.59c0.59,0.34,1.37,0.22,1.93-0.19c0.44-0.31,0.78-0.81,0.65-1.34c-0.03-0.19-0.25-0.37-0.47-0.37
		C110.48,155.16,110.27,155.31,110.11,155.47z M107.3,155.07l-0.18,0.35c-0.02,0.04-0.04,0.07-0.02,0.11
		c0.05,0.14,0.1,0.3,0.09,0.39c-0.22,0.21-0.45,0.24-0.62,0.1c-0.11-0.09-0.15-0.26-0.14-0.48c0.01-0.16,0.03-0.22-0.11-0.11
		c-0.18,0.15-0.13,0.13-0.14,0.22c-0.06,0.52-0.29,0.76-0.69,0.78c-0.25,0.02-0.44-0.16-0.26-0.66c0.04-0.11-0.04-0.22-0.15,0
		c-0.38,0.75-0.15,1.18,0.24,1.23c0.32,0.05,0.69-0.13,0.88-0.61c0.15,0.24,0.44,0.31,0.71,0.24c0.34-0.09,0.42-0.25,0.51-0.53
		c0.09-0.27,0.1-0.62-0.03-1.05C107.35,154.99,107.31,155.03,107.3,155.07z M103.97,154.47c-0.06,0-0.06,0.03-0.09,0.09
		c-0.03,0.06-0.09,0.34-0.12,0.47c-0.03,0.06,0.03,0.06,0.06,0.03c0.09-0.03,0.22-0.12,0.31-0.16c0.53-0.22,2.93-1.12,3.59-1.37
		h0.03c0.03-0.03,0.06-0.03,0.09-0.09c0.03-0.09,0.09-0.31,0.12-0.44c0-0.06,0-0.06-0.06-0.06
		C107.15,153.26,104.62,154.19,103.97,154.47z M92.69,168.18c-0.12,0.22-0.28,0.5-0.44,0.72c-0.22-0.16-0.5-0.31-0.69-0.44
		c-0.13-0.06-0.16-0.06-0.22,0.03l-0.03-0.03c-0.12,0.19-0.28,0.44-0.41,0.66c-0.03,0.09-0.03,0.16,0.09,0.22
		c0.19,0.12,0.53,0.31,0.72,0.4c0.06,0.03,0.12,0,0.16-0.06c0.12-0.12,0.25-0.34,0.41-0.62c0.28,0.19,0.53,0.31,0.75,0.44
		c0.06,0.03,0.09,0.03,0.16-0.03c0.12-0.16,0.31-0.47,0.41-0.62c0.06-0.12,0.03-0.16-0.06-0.22c-0.12-0.09-0.5-0.31-0.69-0.44
		C92.75,168.12,92.72,168.12,92.69,168.18z M83.15,167.85c-0.03,0.03-0.06,0.03-0.09,0.09c-0.03,0.06-0.09,0.34-0.16,0.47
		c0,0.06,0.03,0.06,0.09,0.03c0.09-0.03,0.22-0.09,0.31-0.16c0.53-0.22,2.93-1.12,3.59-1.4l0.03,0.03c0.03-0.03,0.09-0.03,0.09-0.09
		c0.03-0.09,0.09-0.31,0.12-0.44c0-0.06,0-0.06-0.06-0.06C86.33,166.63,83.8,167.57,83.15,167.85z M74.05,162.52
		c-0.12-0.12-0.28,0.97-0.25,1.03c0.37,0.66,0.84,1.59,1.03,2.59c-0.87,1.84-4.43,2.18-4.64,0.16c-0.06-0.53,0.19-1.12,0.37-1.84
		c0.06-0.19-0.09-0.22-0.19-0.06c-0.65,1.03-0.84,2.56-0.44,3.34c0.97,1.78,4.05,1.03,4.96-0.56c0.87-1.78-0.37-4.27-0.81-4.68
		L74.05,162.52z M78.44,165.98c-0.78,0-1.09-0.06-1.31-0.22c-0.06-0.06-0.06-0.12-0.06-0.19c0.09-0.22,0.37-0.65,0.56-0.65h0.03
		C77.88,164.92,78.13,165.23,78.44,165.98z M86.02,164.67c-0.87-0.09-1.34-0.25-1.56-0.41c-0.03-0.03-0.03-0.06,0-0.12
		c0.16-0.25,0.44-0.53,0.72-0.56h0.06l-0.03-0.03C85.67,163.55,85.89,164.36,86.02,164.67z M84.18,163.95
		c-0.16,0.41-0.31,0.9-0.66,1.25c-0.22,0.19-0.41,0.34-0.69,0.28c-0.53-0.12-1-0.44-1.46-0.62c-0.16-0.06-0.28-0.09-0.41,0
		c-0.41,0.25-1.09,0.75-1.87,0.97c-0.22-0.59-0.41-1.12-0.87-1.75c-0.47-0.62-0.87-0.03-1.15,0.47c-0.31,0.56-0.62,1.62-0.19,2.09
		c0.41,0.44,1.22,0.41,2,0.12c-0.5,1.15-1.25,1.87-2.06,2.28c-1.15,0.56-2.43,0.53-3.71,0.28c-0.25-0.03-0.34,0.19-0.12,0.28
		c1.68,0.66,3.21,0.62,4.27,0.16c1.06-0.5,1.71-1.53,1.96-3.12c0.59-0.25,1.12-0.5,1.62-0.9c0.16-0.12,0.19-0.16,0.37-0.06
		c0.37,0.22,0.81,0.44,1.22,0.65c0.34,0.16,0.47,0.12,0.78-0.09c0.41-0.28,0.72-0.78,0.87-1.15c0.22,0.28,0.44,0.56,2.06,0.62
		c0.41,0,0.41-0.09,0.47-0.81c0-0.5-0.31-1.5-0.59-1.93c-0.18-0.27-0.34-0.46-0.57-0.46C84.95,162.56,84.49,163.24,84.18,163.95z
		 M89.51,164.82c0.22,0.16,0.41,0.5,0.56,0.84c-0.47,0.03-0.9-0.03-1.15-0.25c-0.09-0.09-0.12-0.12-0.09-0.22
		c0.06-0.16,0.22-0.31,0.34-0.41c0.03,0,0.06-0.03,0.09-0.03v-0.03h0.06C89.38,164.72,89.45,164.75,89.51,164.82z M91.57,162.04
		c-0.03,0-0.06,0.06-0.09,0.12c-0.03,0.25-0.06,0.5-0.09,0.75c0,0.09-0.03,0.19,0.09,0.28c0.44,0.37,0.87,0.87,1.03,1.56
		c-0.37,0.31-1.09,0.62-1.84,0.81c-0.25-0.9-0.69-1.93-1.28-1.87c-0.65,0.06-1.31,1.68-0.87,2.46c0.16,0.31,0.5,0.47,0.87,0.5
		c0.28,0,0.62-0.03,0.9-0.09c-1.21,2.84-3.62,3.18-5.58,2.74c-0.34-0.06-0.53,0.19-0.09,0.31c3.33,1,4.99,0.5,6.02-3.15
		c0.44-0.09,1.53-0.47,1.93-1c0.25-0.34,0.25-1,0.25-1.18c0-0.84-0.37-1.68-1.12-2.21v0.03C91.63,162.04,91.6,162.01,91.57,162.04z
		 M79.84,161.52c-0.12,0.19-0.28,0.47-0.37,0.65l0.03,0.03c-0.06,0.06-0.06,0.12,0.03,0.16c0.16,0.09,0.44,0.25,0.62,0.34
		c0.06,0.03,0.12,0.03,0.16-0.03c0.12-0.19,0.28-0.44,0.37-0.62c0.06-0.06,0.06-0.12,0-0.16c-0.19-0.12-0.5-0.31-0.69-0.41
		C79.91,161.46,79.88,161.46,79.84,161.52z M71.99,161.24c-0.12,0.19-0.28,0.47-0.37,0.65l0.03,0.03c-0.06,0.06-0.06,0.12,0.03,0.16
		c0.16,0.09,0.44,0.25,0.62,0.34c0.06,0.03,0.12,0.03,0.16-0.03c0.12-0.19,0.28-0.47,0.37-0.62c0.06-0.06,0.06-0.12,0-0.16
		c-0.19-0.12-0.5-0.28-0.69-0.41C72.05,161.18,72.02,161.18,71.99,161.24z M87.11,161.89c-0.06,0.16-0.03,0.31,0.09,0.44
		c0.12,0.09,0.34,0.22,0.53,0.31c-0.09,0.03-0.28,0.12-0.41,0.22h0.03c-0.03,0.09-0.06,0.25-0.09,0.34c0,0.03,0.03,0.06,0.06,0.03
		c0.37-0.22,1.46-0.5,1.96-0.62c0.03,0,0.19-0.34,0.22-0.41c0.03-0.06,0-0.09-0.06-0.06c-0.28,0.06-0.53,0.12-0.87,0.12
		c-0.4,0-1.06-0.47-1.06-0.53c0-0.09,0.5-0.28,0.59-0.28c0.31,0.03,0.37,0.34,0.47,0.34c0.09,0,0.25-0.37,0.25-0.47
		c0-0.12-0.28-0.41-0.47-0.41C88.01,160.92,87.3,161.51,87.11,161.89z M86.36,159.17c-0.03,0.06-0.06,0.16-0.09,0.22
		c-0.03,0.09,0.03,0.19,0.09,0.09c0.06-0.12,0.16-0.22,0.25-0.28c0.25-0.16,0.5-0.22,0.78-0.19c0.25,0.03,0.72,0.19,0.72,0.22
		c0,0.03-1.09,0.59-1.25,0.69c-0.09,0.06-0.19,0.12-0.16,0.22c0,0.09,0.09,0.09,0.19,0.06c0.44-0.16,0.59-0.12,0.94-0.28l-0.03-0.03
		c0.47-0.19,0.59-0.44,0.69-0.47c0.03,0,0.09,0,0.12-0.03c0.12-0.12,0.25-0.44,0.25-0.56c0-0.06-0.31-0.09-0.41-0.12
		c-0.28-0.06-0.59-0.22-0.9-0.25C87.08,158.43,86.61,158.64,86.36,159.17z M70.09,159.8c-0.03,0.03-0.06,0.03-0.09,0.09
		c-0.03,0.06-0.09,0.34-0.16,0.47c0,0.06,0.03,0.06,0.09,0.03c0.09-0.03,0.22-0.09,0.31-0.16c0.53-0.22,2.93-1.12,3.59-1.4
		l0.03,0.03c0.03-0.03,0.09-0.03,0.09-0.09c0.03-0.09,0.09-0.31,0.12-0.44c0-0.06,0-0.06-0.06-0.06
		C73.27,158.59,70.74,159.52,70.09,159.8z M92.13,157.99c0.08,0.1,0.21,0.3,0.23,0.65c0,0.1-0.01,0.24-0.02,0.25
		c-0.01,0.01-0.19-0.07-0.22-0.09c-0.07-0.03-0.25-0.1-0.58-0.23c-0.13-0.02,0-0.23,0-0.23c0.05-0.09,0.13-0.21,0.22-0.3l0.12-0.08
		C91.96,157.94,92.08,157.91,92.13,157.99z M92.06,157.38c-0.37,0.06-0.81,0.58-0.99,1.18c-0.08,0.27-0.03,0.42,0.12,0.51
		c0.21,0.13,0.52,0.24,0.88,0.33c-0.42,0.71-1.78,1.62-2.03,1.76c-0.29,0.17-0.24,0.36,0.13,0.19c1.37-0.62,2.04-1.28,2.35-1.85
		c0.09,0.02,0.17,0.05,0.27,0.07c0.16,0.04,0.13,0.06,0.21-0.2c0.04-0.12,0.07-0.21,0.08-0.27l-0.41-0.14l0.04-0.14
		c0.05-0.47-0.07-0.86-0.11-0.98C92.47,157.47,92.29,157.34,92.06,157.38z M80.1,157.86c0.08,0.1,0.21,0.3,0.23,0.65
		c0,0.1-0.01,0.24-0.02,0.25c-0.01,0.01-0.19-0.07-0.22-0.09c-0.07-0.03-0.25-0.1-0.58-0.23c-0.13-0.02,0-0.23,0-0.23
		c0.05-0.09,0.13-0.21,0.22-0.3l0.12-0.08C79.93,157.81,80.05,157.78,80.1,157.86z M80.03,157.25c-0.37,0.06-0.81,0.58-0.99,1.18
		c-0.08,0.27-0.03,0.42,0.12,0.51c0.21,0.13,0.52,0.24,0.88,0.33c-0.42,0.71-1.78,1.62-2.03,1.76c-0.29,0.17-0.24,0.36,0.13,0.19
		c1.37-0.62,2.04-1.28,2.34-1.85c0.09,0.02,0.17,0.05,0.27,0.07c0.16,0.04,0.13,0.06,0.21-0.2c0.04-0.12,0.07-0.21,0.08-0.27
		l-0.41-0.14l0.04-0.14c0.05-0.47-0.07-0.86-0.11-0.98C80.44,157.34,80.25,157.21,80.03,157.25z M64.67,170.4
		c-0.06,0-0.06,0.03-0.09,0.09c-0.03,0.06-0.09,0.34-0.13,0.47c-0.03,0.06,0.03,0.06,0.06,0.03c0.09-0.03,0.22-0.12,0.31-0.16
		c0.53-0.22,2.56-1.03,3.21-1.28h0.03c0.03-0.03,0.06-0.03,0.09-0.09c0.03-0.09,0.09-0.31,0.12-0.44c0-0.06,0-0.06-0.06-0.06
		C67.47,169.28,65.32,170.12,64.67,170.4z M65.85,167.6c-0.12,0.19-0.28,0.47-0.37,0.65l0.03,0.03c-0.06,0.06-0.06,0.12,0.03,0.16
		c0.16,0.09,0.44,0.25,0.62,0.34c0.06,0.03,0.12,0.03,0.16-0.03c0.12-0.19,0.28-0.44,0.37-0.62c0.06-0.06,0.06-0.12,0-0.16
		c-0.19-0.12-0.5-0.31-0.69-0.41C65.91,167.53,65.88,167.53,65.85,167.6z M58.46,160.4c-0.03,0.03-0.06,0.03-0.09,0.09
		c-0.03,0.09-0.09,0.34-0.16,0.47c0,0.06,0.03,0.06,0.09,0.03c0.09-0.03,0.22-0.09,0.31-0.16c0.5-0.22,2.93-1.12,3.58-1.37h0.03
		c0.03-0.03,0.09-0.03,0.09-0.09c0.03-0.09,0.09-0.31,0.12-0.44c0-0.06-0.03-0.06-0.06-0.06C61.64,159.18,59.12,160.11,58.46,160.4z
		 M61.86,165.94c-0.62-0.06-1.62-0.53-1.43-0.72C61.33,164.29,61.36,165.2,61.86,165.94z M55.69,158.99
		c0.31,1.53,0.53,3.71,0.72,5.3c0.12,0.87,0.19,2.43,1.22,2.81c0.78,0.28,2.06,0.16,2.52-0.87c0.34,0.65,1.15,0.78,2.4,0.9
		c0.09,0,0.12-0.34,0.19-0.59c0.97,0.31,3.3,0.12,4.24-0.37c0.81-0.41,0.84-1.34,0.72-1.9c-0.09-0.53-0.41-1.09-0.87-1.43
		c-0.03-0.03-0.03-0.03-0.06,0c-0.06,0.12-0.25,0.97-0.19,1.03h0.03c0.28,0.31,0.56,0.69,0.69,1.18c-1.09,0.66-3.59,0.9-4.74,0.25
		c-0.65-0.37-0.97-1.22-1.4-1.18c-0.44,0.06-1,0.97-1.19,1.31c-0.47,0.72-1.46,0.9-2.12,0.59c-0.81-0.41-0.9-1.59-1-2.28
		c-0.28-1.93-0.4-3.83-0.75-5.61C56,157.71,55.69,158.9,55.69,158.99z M58.62,155.69c-0.41,0.41-1.09,0.65-1.62,0.78
		c-0.44,0.09-1.06,0.09-1.43,0c-0.19-0.06-0.41-0.19-0.47-0.13c-0.19,0.13-0.65,0.81-0.53,1.06c0.06,0.12,0.31-0.28,0.34-0.31
		c0.06-0.12,0.16-0.09,0.25-0.06c0.47,0.12,0.84,0.12,1.31,0.09c1.03-0.09,1.93-0.47,2.21-1v-0.03
		C58.74,155.97,58.86,155.44,58.62,155.69z M44.87,171.65c-0.06,0-0.06,0.03-0.09,0.09c-0.03,0.06-0.09,0.34-0.12,0.47
		c-0.03,0.06,0.03,0.06,0.06,0.03c0.09-0.03,0.22-0.12,0.31-0.16c0.53-0.22,2.93-1.12,3.59-1.37h0.03c0.03-0.03,0.06-0.03,0.09-0.09
		c0.03-0.09,0.09-0.31,0.12-0.44c0-0.06,0-0.06-0.06-0.06C48.05,170.43,45.52,171.37,44.87,171.65z M50.79,164.2
		c0.12,0.16,0.5,0.78,0.62,1.12c-1.12,0.72-3.4,0.81-3.96-0.12c-0.12-0.22-0.25-0.25-0.31,0.06c-0.06,0.53,0.03,1,0.59,1.43
		c-0.9,2.03-2.81,3.4-5.64,2.28c-0.19-0.06-0.34,0.16-0.09,0.28c3.15,1.43,5.21,1.06,6.11-2.43c0.69,0.28,2.24,0.03,3.02-0.34
		c0.72-0.34,0.78-1.12,0.65-1.81c-0.15-0.6-0.48-1.12-0.84-1.46C50.84,163.28,50.76,164.17,50.79,164.2z M50.95,163.2
		c0.01-0.01,0.02-0.01,0.03,0l-0.06-0.03C50.93,163.18,50.94,163.19,50.95,163.2z M47.24,161.74c-0.12,0.19-0.28,0.47-0.37,0.65
		v0.03c-0.06,0.06-0.06,0.12,0.03,0.16c0.16,0.09,0.44,0.25,0.62,0.34c0.06,0.03,0.12,0.03,0.16-0.03c0.12-0.19,0.28-0.44,0.37-0.62
		c0.06-0.06,0.06-0.12,0-0.16c-0.16-0.12-0.47-0.28-0.65-0.4C47.3,161.67,47.27,161.67,47.24,161.74z M50.1,160.74
		c-0.12,0.19-0.28,0.47-0.37,0.65l0.03,0.03c-0.06,0.06-0.06,0.12,0.03,0.16c0.16,0.09,0.44,0.25,0.62,0.34
		c0.06,0.03,0.12,0.03,0.16-0.03c0.12-0.19,0.28-0.44,0.37-0.62c0.06-0.06,0.06-0.12,0-0.16c-0.19-0.12-0.5-0.28-0.69-0.4
		C50.17,160.68,50.14,160.68,50.1,160.74z M52.82,157.78c-0.03,0-0.06,0.06-0.06,0.16l-0.16,0.87c-0.03,0.25-0.03,0.28,0,0.47
		c0.09,0.56,0.25,1.15,0.34,1.71c0.25,1.25,0.5,2.46,0.72,3.62c0.19,0.94,0.31,1.9,0.37,2.74c0,0.16,0.09,0.16,0.12,0
		c0.12-0.47,0.19-0.97,0.16-1.5c0-0.5-0.19-1.53-0.34-2.34c-0.19-1.03-0.44-2.12-0.62-3.05c-0.19-0.87-0.37-1.75-0.47-2.59
		c0-0.09-0.06-0.12-0.09-0.12L52.82,157.78z M43.68,157.71l-0.34,0.59c-0.12,0.22-0.09,0.19,0.03,0.4h-0.06l0.25,0.5
		c0.37,2.18,0.84,4.93,1.12,6.52c-0.84,1.37-3.27,1.9-4.12,0.62c-0.34-0.56-0.19-1.31,0.22-2.03c0.22-0.4,0-0.53-0.25-0.16
		c-0.53,0.75-0.78,1.87-0.53,2.62c0.72,1.9,3.06,1.37,4.05,0.62c1.06-0.75,1.12-2.09,0.94-3.18l-0.84-4.99l0.28-0.5
		c0.06-0.09,0.03-0.09-0.03-0.16c-0.19-0.25-0.37-0.53-0.53-0.87C43.78,157.56,43.74,157.59,43.68,157.71z M51.38,156.06
		c-0.06,0.16-0.03,0.31,0.09,0.44c0.12,0.09,0.34,0.22,0.53,0.31c-0.09,0.03-0.28,0.12-0.41,0.22h0.03
		c-0.03,0.09-0.06,0.25-0.09,0.34c0,0.03,0.03,0.06,0.06,0.03c0.37-0.22,1.47-0.5,1.96-0.62c0.03,0,0.19-0.34,0.22-0.41
		c0.03-0.06,0-0.09-0.06-0.06c-0.28,0.06-0.53,0.12-0.87,0.12c-0.41,0-1.06-0.47-1.06-0.53c0-0.09,0.5-0.28,0.59-0.28
		c0.31,0.03,0.37,0.34,0.47,0.34c0.09,0,0.25-0.37,0.25-0.47c0-0.12-0.28-0.4-0.47-0.4C52.29,155.1,51.57,155.69,51.38,156.06z
		 M41.38,156.62c-0.03,0.03-0.06,0.03-0.09,0.09c-0.03,0.09-0.09,0.34-0.16,0.47c0,0.06,0.03,0.06,0.09,0.03
		c0.09-0.03,0.22-0.09,0.31-0.16c0.53-0.22,2.93-1.12,3.59-1.37h0.03c0.03-0.03,0.09-0.03,0.09-0.09c0.03-0.09,0.09-0.31,0.12-0.44
		c0-0.06,0-0.06-0.06-0.06C44.56,155.41,42.03,156.34,41.38,156.62z M52.33,151.77c0.08,0.1,0.21,0.3,0.23,0.65
		c0,0.1-0.02,0.24-0.02,0.25c-0.01,0.01-0.19-0.07-0.22-0.09c-0.07-0.03-0.25-0.1-0.58-0.23c-0.13-0.02,0-0.23,0-0.23
		c0.05-0.09,0.13-0.21,0.22-0.3l0.12-0.08C52.16,151.72,52.28,151.7,52.33,151.77z M52.26,151.17c-0.37,0.06-0.81,0.58-0.99,1.18
		c-0.08,0.27-0.03,0.42,0.12,0.51c0.21,0.13,0.52,0.24,0.88,0.33c-0.42,0.71-1.78,1.62-2.03,1.76c-0.29,0.17-0.24,0.36,0.13,0.19
		c1.37-0.62,2.04-1.27,2.35-1.85c0.09,0.02,0.18,0.05,0.27,0.07c0.16,0.04,0.13,0.06,0.21-0.2c0.04-0.12,0.07-0.21,0.08-0.27
		l-0.41-0.14l0.04-0.14c0.05-0.47-0.07-0.86-0.11-0.98C52.67,151.26,52.48,151.13,52.26,151.17z M197.31,191.35
		c-0.75,0.28-1.96,0.72-2.62,0.97c-0.03,0.03-0.06,0.03-0.09,0.09c-0.03,0.06-0.12,0.31-0.16,0.47c-0.03,0.06,0.03,0.06,0.09,0.03
		c0.09-0.03,0.22-0.09,0.31-0.12c0.53-0.19,1.59-0.59,2.28-0.84c0.03-0.03,0.09-0.03,0.09-0.09c0.03-0.09,0.12-0.31,0.16-0.44
		C197.4,191.35,197.37,191.35,197.31,191.35z M190.17,189.35c-0.12,0.22-0.28,0.5-0.44,0.72c-0.22-0.16-0.5-0.31-0.69-0.44
		c-0.12-0.06-0.16-0.06-0.22,0.03l-0.03-0.03c-0.12,0.19-0.28,0.44-0.41,0.66c-0.03,0.09-0.03,0.16,0.09,0.22
		c0.19,0.12,0.53,0.31,0.72,0.41c0.06,0.03,0.09,0,0.16-0.06c0.12-0.12,0.25-0.34,0.41-0.62c0.28,0.19,0.53,0.31,0.75,0.44
		c0.06,0.03,0.09,0.03,0.16-0.03c0.12-0.16,0.31-0.47,0.4-0.62c0.06-0.12,0.03-0.16-0.06-0.22c-0.12-0.09-0.5-0.31-0.69-0.44
		C190.23,189.29,190.2,189.29,190.17,189.35z M194.53,190.19c-0.06,0.16-0.03,0.31,0.09,0.44c0.12,0.09,0.34,0.22,0.53,0.31
		c-0.09,0.03-0.28,0.12-0.41,0.22l0.03,0.03c-0.03,0.09-0.06,0.25-0.09,0.34c0,0.03,0.03,0.06,0.06,0.03
		c0.38-0.22,1.47-0.5,1.96-0.62c0.03,0,0.19-0.34,0.22-0.41c0.03-0.06,0-0.09-0.06-0.06c-0.28,0.06-0.53,0.12-0.87,0.12
		c-0.4,0-1.06-0.47-1.06-0.53c0-0.09,0.5-0.31,0.59-0.28c0.31,0.03,0.37,0.34,0.44,0.34c0.09,0,0.25-0.37,0.28-0.5
		c0-0.09-0.28-0.41-0.47-0.41C195.44,189.23,194.72,189.82,194.53,190.19z M182.34,181.5c-0.34,0.41-0.78,1.18-0.78,1.71
		c0,0.19,0.06,0.37,0.16,0.47c0.12,0.09,0.31,0.09,0.47,0.12c0.22,0.03,0.5,0.03,0.62,0.12c0.06,0.06,0.06,0.06,0,0.12
		c-0.56,0.5-1.22,0.66-2.03,0.47c-0.28-0.06-0.37,0.22-0.06,0.34c0.65,0.28,1.62,0.41,2.18-0.19c0.28-0.28,0.62-1.03,0.37-1.4
		c-0.16-0.25-0.5-0.25-0.87-0.28c-0.16-0.03-0.31-0.03-0.41-0.19c-0.06-0.12,0-0.28,0.09-0.4c0.09-0.09,0.19-0.19,0.25-0.25
		c0.06-0.03,0.09-0.06,0.19,0c0.03,0.03,0.09,0.06,0.12,0.12c0.06,0.09,0.12,0.09,0.16,0v-0.03l0.25-0.56
		c0.06-0.13,0.06-0.19-0.03-0.28c-0.03-0.03-0.09-0.06-0.12-0.09c-0.06-0.03-0.12-0.09-0.19-0.09
		C182.59,181.21,182.44,181.4,182.34,181.5z M187.58,183.33c-0.03,0.06-0.06,0.16-0.09,0.22c-0.03,0.09,0.03,0.19,0.09,0.09
		c0.06-0.12,0.16-0.22,0.25-0.28c0.25-0.16,0.5-0.22,0.78-0.19c0.25,0.03,0.72,0.19,0.72,0.22c0,0.06-1.09,0.59-1.25,0.69
		c-0.09,0.06-0.19,0.12-0.16,0.22c0.03,0.09,0.12,0.09,0.22,0.06c0.41-0.16,0.56-0.12,0.9-0.28l-0.03-0.03
		c0.47-0.19,0.59-0.44,0.69-0.47c0.03,0,0.09,0,0.12-0.03c0.12-0.12,0.25-0.44,0.25-0.56c0-0.06-0.31-0.09-0.41-0.12
		c-0.28-0.06-0.59-0.22-0.9-0.25C188.3,182.59,187.83,182.8,187.58,183.33z M194.13,178.81c-0.03,0-0.06,0.06-0.06,0.16l-0.16,0.87
		c-0.03,0.25-0.03,0.28,0,0.47c0.09,0.56,0.25,1.15,0.37,1.71c0.25,1.25,0.5,2.46,0.72,3.62c0.19,0.93,0.31,1.9,0.37,2.74
		c0,0.16,0.09,0.16,0.12,0c0.12-0.47,0.16-0.97,0.16-1.5c0-0.5-0.19-1.53-0.34-2.34c-0.19-1.03-0.44-2.12-0.62-3.06
		c-0.19-0.87-0.37-1.75-0.47-2.59c0-0.09-0.06-0.12-0.09-0.12V178.81z M191.04,178.72c-0.12,0.16-0.53,0.87-0.5,0.9
		c0.22,0.31,0.28,0.56,0.31,0.69v0.06c0.38,1.65,0.94,4.99,1.22,6.2c0,0.53-1.09,0.28-1.5,0.06c-0.44-0.22-0.78-0.03-1,0.16
		c-0.62,0.5-1.31,0.62-2,0.69c-0.72,0.06-1.4-0.34-1.59-1.15c-0.44-1.96-0.69-4.55-1.09-6.48c-0.06-0.25-0.16-0.28-0.22,0.03
		c-0.06,0.22-0.09,0.81-0.09,0.9c0.25,1.31,0.53,3.3,0.75,4.61c-0.09,0.9-2.43,1.78-3.9,1.78c-1.62,0-2.99-0.75-2.06-2.68
		c0.09-0.19-0.03-0.25-0.12-0.09c-1.43,2.28-0.03,3.71,1.93,3.71c1,0,3.68-0.56,4.3-1.9c0.16,1,0.41,2.15,1.53,2.21
		c0.69,0.03,1.25-0.06,1.99-0.44c0.53-0.28,1-0.94,1.71-0.41c0.16,0.12,0.9,0.37,1.25,0.12c0.56-0.44,0.47-1.65,0.41-2.09
		c-0.19-1.37-0.62-3.43-0.87-4.86c-0.03-0.12,0.22-0.34,0.34-0.56c0.03-0.09,0.03-0.16-0.03-0.25c-0.38-0.4-0.5-0.69-0.69-1.21
		C191.1,178.63,191.07,178.66,191.04,178.72z M179.88,180.19c-0.03,0.03-0.06,0.03-0.09,0.09c-0.03,0.06-0.09,0.34-0.16,0.47
		c0,0.06,0.03,0.06,0.09,0.03c0.09-0.03,0.22-0.09,0.31-0.16c0.53-0.22,2.93-1.12,3.58-1.37h0.03c0.03-0.03,0.09-0.03,0.09-0.09
		c0.03-0.09,0.09-0.31,0.12-0.44c0-0.06,0-0.06-0.06-0.06C183.06,178.97,180.54,179.9,179.88,180.19z M189.42,177.88
		c-0.06,0-0.06,0.03-0.09,0.09c-0.03,0.06-0.09,0.34-0.12,0.47c-0.03,0.06,0.03,0.06,0.06,0.03c0.09-0.03,0.22-0.12,0.31-0.16h0.03
		c0.53-0.22,2.93-1.12,3.59-1.37c0.03-0.03,0.06-0.03,0.09-0.09c0.03-0.09,0.09-0.31,0.12-0.44c0-0.06,0-0.06-0.06-0.06
		C192.6,176.66,190.08,177.6,189.42,177.88z M176.09,186.56c-0.06,0.12-0.34,0.31-0.59,0.31c-0.19,0-0.5-0.31-0.53-0.44
		c0-0.16,0.25-0.56,0.5-0.56C175.81,185.91,176.15,186.47,176.09,186.56z M175.62,184.82c-0.72,0-1.12,1.5-1.09,2.12
		c0,0.53,0.5,0.97,0.93,0.97c0.37,0,0.72-0.34,0.87-0.78c0.03,0.06,0.09,0.19,0.06,0.28c-0.12,1-1.75,2.46-2.62,2.84
		c-1.03,0.44-2.24,0.5-3.3,0.28c-0.16-0.03-0.31,0.19-0.12,0.25c1,0.37,2.71,0.59,3.62,0.28c1.34-0.47,2.74-2.24,2.81-4.15
		c0.03-1.03-0.59-2.12-1.18-2.12L175.62,184.82z M177.37,180.05c-0.75,0.31-3.27,1.25-3.93,1.53c-0.03,0.03-0.06,0.03-0.09,0.09
		c-0.03,0.09-0.09,0.34-0.16,0.47c0,0.06,0.03,0.06,0.09,0.03c0.09-0.03,0.22-0.09,0.31-0.16c0.5-0.22,2.93-1.12,3.58-1.4l0.03,0.03
		c0.03-0.03,0.09-0.03,0.09-0.09c0.03-0.09,0.09-0.31,0.12-0.44C177.43,180.05,177.43,180.05,177.37,180.05z M168.85,180.65
		c-0.03,0.03-0.06,0.03-0.09,0.09c-0.03,0.06-0.09,0.34-0.16,0.47c0,0.06,0.03,0.06,0.09,0.03c0.09-0.03,0.22-0.09,0.31-0.16
		l0.03,0.03c0.53-0.22,2.09-0.87,2.74-1.12c0.03-0.03,0.09-0.03,0.09-0.09c0.03-0.09,0.09-0.31,0.12-0.44c0-0.06,0-0.06-0.06-0.06
		C171.18,179.72,169.5,180.37,168.85,180.65z M171.46,185.49c0.37,0,0.78,0.87,0.81,1.18c-0.69-0.03-1.4-0.44-1.59-0.62
		c0.09-0.19,0.5-0.59,0.78-0.59V185.49z M166.23,178.41c-0.09,0.28-0.22,0.59-0.31,0.9c0.22,0.59,0.31,1.28,0.41,1.9
		c0.19,1.53,0.34,3.15,0.5,4.77c0.12,1.34,0.47,2.46,1.78,2.43c1-0.03,1.37-0.81,1.71-1.53c0.47,0.59,1.5,0.75,2.12,0.75
		c0.09,0,0.12-0.03,0.19-0.12c0.12-0.19,0.22-0.62,0.22-0.78c0.03-0.5-0.47-2.15-1.09-2.15c-0.72,0-1.34,1.4-1.65,1.99
		c-0.28,0.56-0.87,0.87-1.5,0.87c-1.15-0.03-1.28-0.97-1.4-2.06c-0.12-1.22-0.31-2.9-0.44-4.27c-0.09-0.9-0.22-1.81-0.47-2.68
		c0-0.03-0.02-0.04-0.05-0.05C166.24,178.39,166.24,178.4,166.23,178.41z M166.23,178.38c0.01,0,0.01,0,0.02,0.01
		c0.01-0.01,0.01-0.02,0.02-0.02L166.23,178.38z M169.09,176.07c-0.41,0.41-1.09,0.65-1.62,0.78c-0.44,0.09-1.06,0.09-1.43,0
		c-0.19-0.06-0.41-0.19-0.47-0.12c-0.19,0.12-0.66,0.81-0.53,1.06c0.06,0.12,0.31-0.28,0.34-0.31c0.06-0.12,0.16-0.09,0.25-0.06
		c0.47,0.12,0.84,0.12,1.31,0.09c1.03-0.09,1.93-0.47,2.21-1v-0.03C169.22,176.35,169.34,175.82,169.09,176.07z M156.81,192.53
		c-0.03,0.03-0.06,0.03-0.09,0.09c-0.03,0.06-0.09,0.34-0.16,0.47c0,0.06,0.03,0.06,0.09,0.03c0.09-0.03,0.22-0.09,0.31-0.16
		c0.5-0.22,2.93-1.12,3.59-1.37h0.03c0.03-0.03,0.09-0.03,0.09-0.09c0.03-0.09,0.09-0.31,0.12-0.44c0-0.06,0-0.06-0.06-0.06
		C159.99,191.32,157.47,192.25,156.81,192.53z M161.56,184.14c0,0.01-0.01,0.02-0.01,0.03l-0.03,0.94c0.28,0.37,0.62,0.69,0.75,1.31
		c-0.97,0.72-3.18,0.9-3.46,0c-0.09-0.28-0.19-0.16-0.22,0c-0.19,1.25,0.41,1.4,0.94,1.59c-1.62,3.49-4.83,2.87-5.92,2.56
		c-0.41-0.12-0.53,0.31-0.16,0.41c2.87,0.62,5.49,1.03,6.49-2.9c1.75-0.16,2.28-0.59,2.56-0.94c0.09-0.16,0.25-1.96-0.81-2.96
		C161.65,184.15,161.61,184.12,161.56,184.14z M161.56,184.13l0.05-0.05C161.59,184.08,161.57,184.1,161.56,184.13z M158.15,183.24
		c-0.12,0.19-0.28,0.47-0.37,0.66v0.03c-0.06,0.06-0.06,0.12,0.03,0.16c0.16,0.09,0.44,0.25,0.62,0.34
		c0.06,0.03,0.12,0.03,0.16-0.03c0.12-0.19,0.28-0.47,0.37-0.62c0.06-0.06,0.06-0.12,0-0.16c-0.16-0.12-0.47-0.28-0.65-0.41
		C158.21,183.18,158.18,183.18,158.15,183.24z M160.8,181.74c-0.12,0.19-0.28,0.47-0.37,0.66l0.03,0.03
		c-0.06,0.06-0.06,0.12,0.03,0.16c0.16,0.09,0.44,0.25,0.62,0.34c0.06,0.03,0.12,0.03,0.16-0.03c0.12-0.19,0.28-0.44,0.37-0.62
		c0.06-0.06,0.06-0.12,0-0.16c-0.19-0.12-0.5-0.31-0.69-0.4C160.86,181.68,160.83,181.68,160.8,181.74z M162.77,178.81
		c-0.03,0.25-0.09,0.53-0.12,0.78c-0.03,0.25-0.03,0.28,0,0.5c0.09,0.44,0.19,0.9,0.31,1.4c0.16,0.72,0.31,1.4,0.47,2.09
		c0.22,1.15,0.53,2.71,0.65,3.96c0.03,0.16,0.12,0.12,0.12,0c0.25-1.22,0.03-2.46-0.25-3.8c-0.16-0.72-0.31-1.5-0.47-2.18
		c-0.22-0.94-0.44-1.84-0.56-2.71l0.03-0.03c-0.03-0.12-0.06-0.16-0.09-0.16C162.83,178.66,162.8,178.72,162.77,178.81z
		 M155.5,178.63c-0.12,0.16-0.53,0.87-0.5,0.9c0.22,0.31,0.28,0.56,0.31,0.72c0.38,1.9,1.15,4.74,1.31,6.17
		c-0.25,1-1.75,1.43-2.49,1.43c-2.03,0.03-2.21-1.46-1.71-2.59c0.12-0.31-0.09-0.25-0.19-0.09c-1.12,2.15-0.19,3.74,1.68,3.74
		c1.71,0,2.9-1.09,3.02-2.25c0.09-0.78-0.03-1.59-0.16-2.28c-0.25-1.28-0.59-2.53-0.81-3.77l-0.03,0.03
		c-0.03-0.12,0.22-0.34,0.37-0.56c0.06-0.09,0.06-0.16-0.03-0.25c-0.37-0.41-0.5-0.69-0.69-1.22
		C155.56,178.53,155.53,178.57,155.5,178.63z M153.1,177.69c-0.03,0.03-0.06,0.03-0.09,0.09c-0.03,0.09-0.09,0.34-0.16,0.47
		c0,0.06,0.03,0.06,0.09,0.03c0.09-0.03,0.22-0.09,0.31-0.16c0.5-0.22,2.93-1.12,3.59-1.37h0.03c0.03-0.03,0.09-0.03,0.09-0.09
		c0.03-0.09,0.09-0.31,0.12-0.44c0-0.06-0.03-0.06-0.06-0.06C156.28,176.48,153.76,177.41,153.1,177.69z M161.49,176.88
		c-0.06,0.16-0.03,0.31,0.09,0.44c0.12,0.09,0.34,0.22,0.53,0.31c-0.09,0.03-0.28,0.12-0.41,0.22l0.03,0.03
		c-0.03,0.09-0.06,0.25-0.09,0.34c0,0.03,0.03,0.06,0.06,0.03c0.37-0.22,1.46-0.5,1.96-0.62c0.03,0,0.19-0.34,0.22-0.41
		c0.03-0.06,0-0.09-0.06-0.06c-0.28,0.06-0.53,0.12-0.87,0.12c-0.41,0-1.06-0.47-1.06-0.53c0-0.09,0.5-0.31,0.59-0.28
		c0.31,0.03,0.37,0.34,0.44,0.34c0.09,0,0.25-0.37,0.28-0.5c0-0.09-0.28-0.41-0.47-0.41C162.39,175.91,161.67,176.51,161.49,176.88z
		 M162.27,172.92c0.08,0.1,0.21,0.3,0.23,0.65c0,0.1-0.02,0.24-0.02,0.25c-0.01,0.01-0.19-0.07-0.22-0.09
		c-0.07-0.03-0.25-0.1-0.58-0.23c-0.13-0.02,0-0.23,0-0.23c0.05-0.09,0.13-0.21,0.22-0.3l0.12-0.08
		C162.09,172.87,162.22,172.85,162.27,172.92z M162.2,172.31c-0.37,0.06-0.81,0.58-0.99,1.18c-0.08,0.27-0.03,0.42,0.12,0.51
		c0.21,0.13,0.52,0.24,0.88,0.33c-0.42,0.71-1.78,1.62-2.03,1.76c-0.29,0.17-0.24,0.36,0.13,0.19c1.37-0.62,2.04-1.28,2.34-1.85
		c0.09,0.02,0.17,0.05,0.27,0.07c0.16,0.04,0.13,0.06,0.21-0.2c0.04-0.12,0.07-0.21,0.08-0.27l-0.41-0.14l0.04-0.14
		c0.05-0.47-0.07-0.86-0.11-0.98C162.6,172.41,162.42,172.28,162.2,172.31z M146.81,190.19c-0.03,0.03-0.06,0.03-0.09,0.09
		c-0.03,0.06-0.09,0.34-0.16,0.47c0,0.06,0.03,0.06,0.09,0.03c0.09-0.03,0.22-0.09,0.31-0.16c0.5-0.22,2.93-1.12,3.58-1.37h0.03
		c0.03-0.03,0.09-0.03,0.09-0.09c0.03-0.09,0.09-0.31,0.12-0.44c0-0.06,0-0.06-0.06-0.06C149.99,188.98,147.46,189.91,146.81,190.19
		z M149.61,185.86c-0.69,0-1.34-0.25-1.56-0.47c0.09-0.19,0.41-0.56,0.69-0.56C149.11,184.83,149.58,185.55,149.61,185.86z
		 M147.56,185.67c-0.22,0.44-0.69,0.69-1.15,0.75c-0.37,0.03-0.65-0.06-0.72-0.19c-0.09-0.19-0.25-0.53-0.37-0.72
		c-0.03-0.06-0.09-0.03-0.12,0.03c-0.06,0.19-0.16,0.59-0.22,0.84c0.28,0.47,0.72,1.34,0.78,2.28c-0.53,1.06-1.84,1.59-2.96,1.59
		c-1,0.03-2.03-0.5-2.03-1.62c0-0.53,0.19-1.15,0.44-1.62c0.03-0.06,0.03-0.16,0-0.19c-0.03-0.03-0.12,0-0.19,0.09
		c-0.47,0.62-0.72,1.47-0.72,2.21c0.03,1.53,1.28,2.21,2.65,2.15c1.4-0.06,2.71-0.97,3.02-2.31c0.06-0.37,0.09-0.9,0.06-1.56h0.03
		c0.75,0.06,1.28-0.44,1.59-1.22c0.5,0.53,1.47,0.62,2.12,0.62c0.09,0,0.16-0.03,0.19-0.12c0.09-0.25,0.25-0.72,0.22-0.9
		c-0.06-0.62-0.59-1.93-1.12-1.93C148.46,183.86,147.96,184.93,147.56,185.67z M142.82,183.62c-0.12,0.19-0.28,0.47-0.37,0.65
		l0.03,0.03c-0.06,0.06-0.06,0.12,0.03,0.16c0.16,0.09,0.44,0.25,0.62,0.34c0.06,0.03,0.12,0.03,0.16-0.03
		c0.12-0.19,0.28-0.44,0.37-0.62c0.06-0.06,0.06-0.12,0-0.16c-0.19-0.12-0.5-0.31-0.69-0.41
		C142.88,183.55,142.85,183.55,142.82,183.62z M129.51,190.97c-0.03,0.03-0.06,0.03-0.09,0.09c-0.03,0.06-0.09,0.34-0.16,0.47
		c0,0.06,0.03,0.06,0.09,0.03c0.09-0.03,0.22-0.09,0.31-0.16l0.03,0.03c0.53-0.22,2.09-0.87,2.74-1.12
		c0.03-0.03,0.09-0.03,0.09-0.09c0.03-0.09,0.09-0.31,0.12-0.44c0-0.06,0-0.06-0.06-0.06C131.85,190.04,130.17,190.69,129.51,190.97
		z M134.97,189.01c-0.12,0.19-0.28,0.47-0.38,0.66v0.03c-0.06,0.06-0.06,0.12,0.03,0.16c0.16,0.09,0.44,0.25,0.62,0.34
		c0.06,0.03,0.12,0.03,0.16-0.03c0.12-0.19,0.28-0.47,0.37-0.62c0.06-0.06,0.06-0.12,0-0.16c-0.16-0.12-0.47-0.28-0.66-0.41
		C135.03,188.95,135,188.95,134.97,189.01z M132.41,182.62c-0.03,0.06-0.06,0.16-0.09,0.22c-0.03,0.09,0.03,0.19,0.09,0.09
		c0.06-0.12,0.16-0.22,0.25-0.28c0.25-0.16,0.5-0.22,0.78-0.19c0.25,0.03,0.72,0.19,0.72,0.22c0,0.03-1.09,0.59-1.25,0.69
		c-0.09,0.06-0.16,0.12-0.16,0.22c0.03,0.09,0.12,0.09,0.22,0.06c0.41-0.16,0.56-0.12,0.9-0.28l-0.03-0.03
		c0.47-0.19,0.59-0.44,0.69-0.47c0.03,0,0.09,0,0.12-0.03c0.12-0.12,0.25-0.44,0.25-0.56c0-0.06-0.31-0.09-0.41-0.12
		c-0.28-0.06-0.59-0.22-0.9-0.25C133.13,181.87,132.66,182.09,132.41,182.62z M124.87,181.81c-0.34,0.41-0.78,1.18-0.78,1.71
		c0,0.19,0.06,0.37,0.16,0.47c0.12,0.09,0.31,0.09,0.47,0.12c0.22,0.03,0.5,0.03,0.62,0.12c0.06,0.06,0.06,0.06,0,0.12
		c-0.56,0.5-1.22,0.66-2.03,0.47c-0.28-0.06-0.37,0.22-0.06,0.34c0.66,0.28,1.62,0.41,2.18-0.19c0.28-0.28,0.62-1.03,0.37-1.4
		c-0.16-0.25-0.5-0.25-0.87-0.28c-0.16-0.03-0.31-0.03-0.41-0.19c-0.06-0.12,0-0.28,0.09-0.41c0.09-0.09,0.19-0.19,0.25-0.25
		c0.06-0.03,0.09-0.06,0.19,0c0.03,0.03,0.09,0.06,0.12,0.12c0.06,0.09,0.12,0.09,0.16,0v-0.03l0.25-0.56
		c0.06-0.12,0.06-0.19-0.03-0.28c-0.03-0.03-0.09-0.06-0.12-0.09c-0.06-0.03-0.12-0.09-0.19-0.09
		C125.12,181.53,124.96,181.71,124.87,181.81z M137.34,180.12c-0.12,0.22-0.28,0.5-0.44,0.72c-0.22-0.16-0.5-0.31-0.69-0.44
		c-0.12-0.06-0.16-0.06-0.22,0.03l-0.03-0.03c-0.12,0.19-0.28,0.44-0.41,0.66c-0.03,0.09-0.03,0.16,0.09,0.22
		c0.19,0.12,0.53,0.31,0.72,0.41c0.06,0.03,0.09,0,0.16-0.06c0.12-0.12,0.25-0.34,0.41-0.62c0.28,0.19,0.53,0.31,0.75,0.44
		c0.06,0.03,0.09,0.03,0.16-0.03c0.12-0.16,0.31-0.47,0.4-0.62c0.06-0.12,0.03-0.16-0.06-0.22c-0.12-0.09-0.5-0.31-0.69-0.44
		C137.4,180.06,137.37,180.06,137.34,180.12z M138.02,184.74c-0.06,0.22-0.31,0.37-0.62,0.37c-0.31,0-0.66-0.12-0.81-0.53
		c0.12-0.47,0.37-0.56,0.56-0.56C137.49,184.02,137.87,184.36,138.02,184.74z M129.7,180.03c-0.06,0.34-0.19,0.81-0.12,1.18
		c0.16,1.15,0.37,2.37,0.62,3.65c0.19,1.12,0.41,2.28,0.59,3.4c0,0.28-0.31,0.47-0.59,0.47c-0.09,0-0.12,0-0.19-0.03
		c-0.25-0.09-0.47-0.25-0.72-0.5c-0.59-0.59-0.81-1.4-0.93-2.21c-0.25-1.47-0.5-3.18-0.75-4.86l-0.03-0.28
		c-0.03-0.31-0.09-0.4-0.12-0.4c0,0-0.06,0.03-0.12,0.34c-0.03,0.31-0.06,0.56-0.03,0.84c0.22,1.5,0.5,3.21,0.75,4.74
		c-0.59,1.12-2.34,1.62-3.77,1.75h-0.28c-0.75,0-1.31-0.22-1.46-0.28c-0.62-0.25-1-0.59-1.15-1c-0.16-0.41-0.09-0.94,0.22-1.59
		v-0.09c-0.03,0-0.09,0.03-0.12,0.09c-0.56,1.06-0.69,1.96-0.38,2.59c0.25,0.56,0.87,0.94,1.81,1.09c0.31,0.06,0.65,0.09,1,0.09
		c1.53,0,3.43-0.53,4.21-2.03l0.03-0.06l0.03,0.09c0,0.09,0.03,0.19,0.06,0.28c0.09,0.37,0.22,0.87,0.47,1.31
		c0.37,0.69,0.93,1.12,1.43,1.12h0.03v0.03c0.25,0,0.44-0.12,0.59-0.31c0.37-0.47,0.44-1.31,0.34-1.87l0.06-0.03
		c0.44,0.65,1.25,0.81,1.87,0.81c1,0,2.09-0.37,2.62-0.75c0.16-0.06,0.28-0.12,0.44-0.12c0.09,0,0.19,0.03,0.25,0.06
		c0.34,0.22,0.78,0.37,1.22,0.41h0.09c0.94,0,1.12-1.31,1.22-1.93c0.09-0.78-0.25-1.96-0.78-2.59c-0.25-0.28-0.5-0.44-0.75-0.44
		c-0.06,0-0.09,0.03-0.16,0.03c-0.25,0.06-0.5,0.34-0.62,0.56c-0.25,0.47-0.44,1.22-0.38,1.62c0.06,0.47,0.53,0.87,1.03,0.87
		c0.5,0,0.84-0.34,1-0.97l0.03-0.06l0.03,0.06c0.31,0.5,0.41,1.03,0.19,1.43c-0.12,0.28-0.41,0.44-0.78,0.44h-0.12
		c-0.22-0.03-0.44-0.09-0.65-0.19c-0.25-0.09-0.5-0.19-0.75-0.19c-0.09,0-0.16,0-0.22,0.03c-0.22,0.06-0.44,0.19-0.62,0.28
		c-0.16,0.09-0.34,0.19-0.53,0.25c-0.44,0.12-0.97,0.22-1.47,0.22c-0.22,0-0.4,0-0.59-0.03c-0.81-0.12-1.4-0.65-1.75-1.56
		c-0.5-1.34-0.72-2.77-0.93-4.27c-0.06-0.5-0.12-0.97-0.22-1.47c0-0.06-0.03-0.12-0.06-0.12
		C129.76,179.94,129.73,179.97,129.7,180.03z M122.75,180.06c-0.03,0.03-0.06,0.03-0.09,0.09c-0.03,0.09-0.09,0.34-0.16,0.47
		c0,0.06,0.03,0.06,0.09,0.03c0.09-0.03,0.22-0.09,0.31-0.16l0.03,0.03c0.53-0.22,2.46-1.03,3.12-1.28
		c0.03-0.03,0.09-0.03,0.09-0.09c0.03-0.09,0.09-0.31,0.12-0.44c0-0.06,0-0.06-0.06-0.06C125.46,178.97,123.4,179.81,122.75,180.06z
		 M134.44,178.47c-0.03,0.03-0.06,0.03-0.09,0.09c-0.03,0.06-0.09,0.34-0.16,0.47c0,0.06,0.03,0.06,0.09,0.03
		c0.09-0.03,0.22-0.09,0.31-0.16h0.03c0.5-0.22,2.46-1.03,3.12-1.28c0.03-0.03,0.09-0.03,0.09-0.09c0.03-0.09,0.09-0.31,0.12-0.44
		c0-0.06,0-0.06-0.06-0.06C137.15,177.35,135.09,178.19,134.44,178.47z M118.47,187.19c-0.53,0.62-1.09,0.22-1.18-0.06
		C117.63,185.98,118.12,186.38,118.47,187.19z M116.88,187.57c0.19,1.06,1.4,1.34,1.87,0.25c0.03,1.09-1.03,2.25-2.09,2.78
		c-1.25,0.62-2.81,0.59-3.96,0.34c-0.19-0.03-0.28,0.19-0.06,0.28c3.06,1.09,5.74,0.47,6.36-2.37c0.28-1.09,0.16-2.53-0.78-3.34
		C117.47,184.92,116.75,186.63,116.88,187.57z M115.75,182.47c-0.06,0-0.06,0.03-0.09,0.09c-0.03,0.06-0.09,0.34-0.12,0.47
		c-0.03,0.06,0.03,0.06,0.06,0.03c0.09-0.03,0.22-0.12,0.31-0.16c0.53-0.22,2.93-1.12,3.58-1.37h0.03c0.03-0.03,0.06-0.03,0.09-0.09
		c0.03-0.09,0.09-0.31,0.12-0.44c0-0.06,0-0.06-0.06-0.06C118.93,181.25,116.4,182.19,115.75,182.47z M111.98,193.89
		c-0.06,0-0.06,0.03-0.09,0.09c-0.03,0.06-0.09,0.34-0.12,0.47c-0.03,0.06,0.03,0.06,0.06,0.03c0.09-0.03,0.22-0.12,0.31-0.16h0.03
		c0.53-0.22,2.93-1.12,3.58-1.37c0.03-0.03,0.06-0.03,0.09-0.09c0.03-0.09,0.09-0.31,0.12-0.44c0-0.06,0-0.06-0.06-0.06
		C115.16,192.67,112.64,193.61,111.98,193.89z M113.69,189.09c-0.12,0.19-0.28,0.47-0.37,0.65l0.03,0.03
		c-0.06,0.06-0.06,0.12,0.03,0.16c0.16,0.09,0.44,0.25,0.62,0.34c0.06,0.03,0.12,0.03,0.16-0.03c0.12-0.19,0.28-0.44,0.37-0.62
		c0.03-0.06,0.03-0.12-0.03-0.16c-0.16-0.12-0.47-0.31-0.65-0.4C113.75,189.03,113.72,189.03,113.69,189.09z M100.04,189.66
		c-0.03,0.03-0.06,0.03-0.09,0.09c-0.03,0.06-0.09,0.34-0.16,0.47c0,0.06,0.03,0.06,0.09,0.03c0.09-0.03,0.22-0.09,0.31-0.16
		c0.5-0.22,2.93-1.12,3.59-1.37h0.03c0.03-0.03,0.09-0.03,0.09-0.09c0.03-0.09,0.09-0.31,0.12-0.44c0-0.06,0-0.06-0.06-0.06
		C103.22,188.45,100.69,189.38,100.04,189.66z M91.62,188.63c-0.03,0.03-0.06,0.03-0.09,0.09c-0.03,0.09-0.09,0.34-0.16,0.47
		c0,0.06,0.03,0.06,0.09,0.03c0.09-0.03,0.22-0.09,0.31-0.16l0.03,0.03c0.5-0.22,2.09-0.87,2.74-1.12c0.03-0.03,0.09-0.03,0.09-0.09
		c0.03-0.09,0.09-0.31,0.12-0.44c0-0.06,0-0.06-0.06-0.06C93.96,187.7,92.28,188.39,91.62,188.63z M99.04,185.17
		c-0.03,0.09,0,0.12,0,0.12s0.06,0,0.16-0.09c0.31-0.25,0.69-0.37,1.12-0.37c0.66,0,1.31,0.28,1.81,0.5l0.22,0.09l-0.06,0.03
		c-0.41,0.28-2.06,1.09-3.34,1.09c-0.69,0-1.15-0.22-1.37-0.69c-0.09-0.22-0.16-0.22-0.16-0.22s0,0.03-0.03,0.06
		c-0.34,0.84-0.19,1.37,0.5,1.71h0.03v0.03c-0.41,1.06-1.47,2.84-4.08,2.84c-0.66,0-1.37-0.12-2.15-0.34h-0.06
		c-0.09,0-0.12,0.03-0.12,0.06c0,0.03,0,0.09,0.09,0.12c1.25,0.53,2.31,0.78,3.18,0.78c1.81,0,2.87-1.06,3.46-3.4l0.03,0.09v-0.03
		h0.03h0.22c1.15,0,2.31-0.5,3.4-1c0.44-0.19,0.9-0.4,1.34-0.56c0.31-0.12,0.66-0.19,1.03-0.19c0.34,0,0.69,0.03,1.09,0.12
		l0.34-0.84v-0.06h-0.06h-0.47c-1.84,0-2.81-0.5-3.68-0.97c-0.41-0.19-0.78-0.31-1.09-0.31C99.79,183.77,99.32,184.24,99.04,185.17z
		 M92.28,184.52c0.59,0.34,1.15,0.69,1.43,1.09c0.06,0.09,0.22,0.31,0.12,0.37c-0.47,0.47-1.47,0.47-1.71,0.19
		c-0.28-0.28-0.22-0.69,0.16-1.68V184.52z M92.15,183.58l-0.16,0.53c-0.06,0.16-0.06,0.19,0.03,0.28c-0.47,1.03-0.62,1.87-0.47,2.37
		c0.16,0.47,0.56,0.72,1.09,0.69c0.44-0.03,0.87-0.22,1.18-0.53c0.22-0.22,0.53-0.97,0.47-1.5c-0.06-0.81-0.59-1.34-1.81-1.9
		c-0.12-0.06-0.19-0.09-0.25-0.09l0.03-0.03C92.21,183.4,92.18,183.46,92.15,183.58z M100.1,181.34c-0.12,0.19-0.28,0.47-0.37,0.65
		l0.03,0.03c-0.06,0.06-0.06,0.12,0.03,0.16c0.16,0.09,0.44,0.25,0.62,0.34c0.06,0.03,0.12,0.03,0.16-0.03
		c0.12-0.19,0.28-0.44,0.37-0.62c0.06-0.06,0.06-0.12,0-0.16c-0.19-0.12-0.5-0.28-0.69-0.41
		C100.16,181.28,100.13,181.28,100.1,181.34z M98.57,180.87c-0.75,0.31-2.81,1.15-3.46,1.4c-0.03,0.03-0.06,0.03-0.09,0.09
		c-0.03,0.09-0.09,0.34-0.16,0.47c0,0.06,0.03,0.06,0.09,0.03c0.09-0.03,0.22-0.09,0.31-0.16l0.03,0.03
		c0.53-0.22,2.46-1.03,3.12-1.28c0.03-0.03,0.09-0.03,0.09-0.09c0.03-0.09,0.09-0.31,0.12-0.44
		C98.64,180.87,98.6,180.87,98.57,180.87z M92.56,180.87c-0.12,0.22-0.28,0.5-0.44,0.72c-0.22-0.16-0.5-0.31-0.69-0.44
		c-0.12-0.06-0.16-0.06-0.22,0.03l-0.03-0.03c-0.12,0.19-0.28,0.44-0.41,0.65c-0.03,0.09-0.03,0.16,0.09,0.22
		c0.19,0.12,0.53,0.31,0.72,0.41c0.06,0.03,0.09,0,0.16-0.06c0.12-0.12,0.25-0.34,0.4-0.62c0.28,0.19,0.53,0.31,0.75,0.44
		c0.06,0.03,0.09,0.03,0.16-0.03c0.12-0.16,0.31-0.47,0.41-0.62c0.06-0.12,0.03-0.16-0.06-0.22c-0.12-0.09-0.5-0.31-0.69-0.44
		C92.62,180.81,92.59,180.81,92.56,180.87z M106.06,180.4c-0.06,0.16-0.03,0.31,0.09,0.44c0.12,0.09,0.34,0.22,0.53,0.31
		c-0.09,0.03-0.28,0.12-0.41,0.22h0.03c-0.03,0.09-0.06,0.25-0.09,0.34c0,0.03,0.03,0.06,0.06,0.03c0.38-0.22,1.46-0.5,1.96-0.62
		c0.03,0,0.19-0.34,0.22-0.41c0.03-0.06,0-0.09-0.06-0.06c-0.28,0.06-0.53,0.12-0.87,0.12c-0.41,0-1.06-0.47-1.06-0.53
		c0-0.09,0.5-0.28,0.59-0.28c0.31,0.03,0.38,0.34,0.47,0.34c0.09,0,0.25-0.38,0.25-0.47c0-0.12-0.28-0.41-0.47-0.41
		C106.96,179.44,106.24,180.03,106.06,180.4z M111.23,179.03c-0.06,0.16-0.12,0.28-0.16,0.41c-0.06,0.19-0.06,0.19-0.03,0.41
		c0.19,1.25,0.53,4.24,0.75,6.11c0.09,0.65,0.19,1.46,0.53,1.93c0.59,0.84,1.93,0.34,2.21,0.09c0.31-0.25,0.44-1.15,0.44-1.62
		c0-0.75-0.28-1.37-0.75-1.87c-0.12-0.12-0.19-0.22-0.25,0.09c-0.03,0.19-0.06,0.37-0.12,0.56c-0.06,0.25-0.03,0.25,0.09,0.44
		c0.34,0.47,0.56,0.9,0.66,1.4c-0.37,0.22-1.18,0.37-1.59,0.22c-0.53-0.19-0.69-0.87-0.78-1.5c-0.31-2.28-0.59-5.36-0.78-6.48
		c-0.03-0.19-0.09-0.31-0.12-0.31C111.29,178.91,111.26,178.94,111.23,179.03z M108.46,186.58c0.12,0.22,0.22,0.5,0.34,0.81
		c-0.34,0.06-0.87,0.12-1.22,0.16c0.25-0.22,0.66-0.69,0.87-1V186.58z M109.08,178.16c-0.16,0.28-0.5,0.84-0.47,0.87
		c0.16,0.25,0.31,0.47,0.34,0.75c0.16,1.87,0.37,4.08-0.47,5.8c-1.22-1.96-3.24-4.46-5.24-5.49c-0.19-0.09-0.22-0.06-0.22,0.16
		c0,0.41,0.09,1.5,0.22,1.62c0.16,0.16,0.87,0.59,1.47,0.59c0.12,0,0.09-0.31,0.12-0.28c1.09,0.87,2.65,2.74,3.4,4.05
		c-0.28,0.47-0.97,1.12-1.34,1.47c-0.22,0.03-0.53,0.09-0.66,0.16c-0.06,0.03-0.09,0.06-0.09,0.09c-0.06,0.31-0.16,0.66-0.16,0.78
		c0,0.16,0.09,0.12,0.22,0.09c0.69-0.22,1.93-0.28,2.8-0.44c0.19-0.03,0.28-0.56,0.28-0.84c0.03-0.41-0.37-1.22-0.5-1.53
		c0.84-1.81,1-3.9,0.75-5.83c0-0.19,0.28-0.41,0.37-0.59c0.06-0.09,0.06-0.16-0.03-0.22c-0.16-0.19-0.44-0.47-0.65-1.15
		c0-0.03-0.03-0.06-0.03-0.06l-0.06-0.03C109.14,178.13,109.11,178.13,109.08,178.16z M104.5,179c-0.03,0.03-0.06,0.03-0.09,0.09
		c-0.03,0.09-0.09,0.34-0.16,0.47c0,0.06,0.03,0.06,0.09,0.03c0.09-0.03,0.22-0.09,0.31-0.16l0.03,0.03
		c0.53-0.22,2.09-0.87,2.74-1.12c0.03-0.03,0.09-0.03,0.09-0.09c0.03-0.09,0.09-0.31,0.12-0.44c0-0.06,0-0.06-0.06-0.06
		C106.83,178.07,105.15,178.75,104.5,179z M113.04,176.66c0.06,0.06,0.12,0.16,0.12,0.25c-0.09,0.22-0.75,0.47-1,0.53
		c-0.03,0.03-0.31,0.06-0.28,0l-0.03-0.03c0.16-0.25,0.31-0.5,0.53-0.69C112.6,176.54,112.82,176.48,113.04,176.66z M112.38,176.26
		c-0.28,0.28-0.66,0.84-0.84,1.19c-0.12,0-0.34-0.12-0.47-0.19c-0.12-0.09-0.25,0.06-0.31,0.19c-0.12,0.22-0.25,0.47-0.34,0.72
		l-0.09,0.25c0,0.12,0.03,0.16,0.12,0.06v-0.03c0.16-0.19,0.31-0.65,0.41-0.59c0.59,0.34,1.37,0.22,1.93-0.19
		c0.44-0.31,0.78-0.81,0.66-1.34c-0.03-0.19-0.25-0.38-0.47-0.38C112.76,175.95,112.54,176.1,112.38,176.26z M107.74,176.48
		c-0.03,0.06-0.06,0.16-0.09,0.22c-0.03,0.09,0.03,0.19,0.09,0.09c0.06-0.09,0.16-0.19,0.25-0.25c0.25-0.16,0.5-0.22,0.78-0.19
		c0.25,0.03,0.72,0.19,0.72,0.22c0,0.06-1.09,0.59-1.25,0.69c-0.09,0.06-0.16,0.12-0.16,0.22c0.03,0.09,0.12,0.09,0.22,0.06
		c0.41-0.16,0.56-0.12,0.9-0.28l-0.03-0.06c0.47-0.19,0.59-0.44,0.69-0.47c0.03,0,0.09,0,0.12-0.03c0.12-0.12,0.25-0.44,0.25-0.56
		c0-0.06-0.31-0.09-0.41-0.12c-0.28-0.06-0.59-0.22-0.9-0.25C108.46,175.73,107.99,175.95,107.74,176.48z M81.12,186.42h-0.03
		c0.06,0.16,0.16,0.34,0.25,0.53l0.03,0.03h-0.03h-0.06c-0.37,0-1.31-0.37-1.4-0.5l-0.03-0.03l0.03-0.03
		c0.41-0.41,0.66-0.56,0.81-0.56C80.87,185.86,80.96,186.08,81.12,186.42z M87.29,184.8c0.28,0.12,1.5,1.18,1.56,1.65
		c0.03,0.06,0,0.09-0.06,0.16c-0.59-0.19-1.12-0.37-1.62-0.41h-0.03l0.03-0.09c0.03-0.19,0.16-0.72,0.09-1.31v-0.02L87.29,184.8z
		 M87.01,185.64c-0.09,0.16-0.66,0.47-0.81,0.47c-0.22,0-0.81-0.19-0.87-0.41c0.12-0.59,0.47-1,0.84-1
		C86.51,184.71,86.82,185.05,87.01,185.64z M85.64,182.9c-0.22,0.31-0.06,0.87,0,1.12v0.09c-0.5,0.72-0.59,1.62-0.5,2.06
		c0,0.12,0.06,0.19,0.09,0.22l0.06,0.03l-0.06,0.03c-0.47,0.19-1.25,0.28-1.71,0.28h-0.12c-0.91-0.03-1.5-0.31-2.03-0.87
		c-0.06-0.03-0.09-0.12-0.16-0.19c-0.12-0.19-0.25-0.37-0.41-0.37c-0.03,0-0.09,0-0.12,0.03c-0.65,0.38-1.4,1.15-1.65,1.81
		c-0.37,0.9-0.44,1.84-0.25,2.99c0.12,0.72,0.28,1.43,0.41,2.15c0.22,1.25,0.47,2.46,0.69,3.62c0.03,0.06,0.06,0.12,0.06,0.12
		c0.03,0,0.03-0.03,0.06-0.12l0.03-0.03c0.09-0.41,0.12-0.87,0.03-1.31c-0.06-0.28-0.12-0.59-0.19-0.9
		c-0.12-0.62-0.28-1.25-0.37-1.87c-0.03-0.25-0.09-0.5-0.12-0.75c-0.12-0.66-0.25-1.34-0.34-2.03v-0.06c-0.09-0.53-0.16-1,0.41-1.4
		c0.12-0.06,0.22-0.16,0.31-0.16c0.03,0,0.06,0,0.06,0.03c0.41,0.56,1.37,0.62,1.93,0.66h0.19c0.22,0,0.25-0.22,0.28-0.44v-0.09
		v-0.03h0.03c0.47,0.09,0.9,0.16,1.31,0.16c0.94,0,1.59-0.28,2.09-0.47c0.22-0.09,0.44-0.16,0.59-0.19
		c0.12-0.03,0.25-0.03,0.37-0.03c0.31,0,0.69,0.06,0.91,0.13c0.22,0.06,0.37,0.09,0.53,0.16c0.16,0.06,0.31,0.09,0.53,0.16
		c0.09,0.03,0.16,0.03,0.19,0.03c0.09,0,0.12-0.03,0.16-0.09c0.66-1.68-0.19-2.56-1-3.21c-0.31-0.25-0.59-0.44-0.84-0.65l-0.4-0.31
		c-0.34-0.25-0.62-0.41-0.81-0.41C85.76,182.77,85.7,182.84,85.64,182.9z M79.43,181.9c-0.03,0.06-0.06,0.16-0.09,0.22
		c-0.03,0.09,0.03,0.19,0.09,0.09c0.06-0.09,0.16-0.19,0.25-0.25c0.25-0.16,0.5-0.22,0.78-0.19c0.25,0.03,0.72,0.19,0.72,0.22
		c0,0.06-1.09,0.59-1.25,0.69c-0.09,0.06-0.16,0.12-0.16,0.22c0.03,0.09,0.12,0.09,0.22,0.06c0.41-0.16,0.56-0.12,0.9-0.28
		l-0.03-0.06c0.47-0.19,0.59-0.44,0.69-0.47c0.03,0,0.09,0,0.12-0.03c0.12-0.12,0.25-0.44,0.25-0.56c0-0.06-0.31-0.09-0.41-0.12
		c-0.28-0.06-0.59-0.22-0.9-0.25C80.15,181.15,79.68,181.37,79.43,181.9z M86.2,178.65c0.08,0.1,0.21,0.3,0.23,0.65
		c0,0.1-0.02,0.24-0.02,0.25c-0.01,0.01-0.19-0.07-0.22-0.09c-0.07-0.03-0.25-0.1-0.58-0.23c-0.13-0.02,0-0.23,0-0.23
		c0.05-0.09,0.13-0.21,0.22-0.3l0.12-0.08C86.03,178.6,86.15,178.58,86.2,178.65z M86.13,178.04c-0.37,0.06-0.81,0.58-0.99,1.18
		c-0.08,0.27-0.03,0.42,0.12,0.51c0.21,0.13,0.52,0.24,0.88,0.33c-0.42,0.71-1.78,1.62-2.03,1.76c-0.29,0.17-0.24,0.36,0.13,0.19
		c1.37-0.62,2.04-1.27,2.35-1.85c0.09,0.02,0.17,0.05,0.27,0.07c0.16,0.04,0.13,0.06,0.21-0.2c0.04-0.12,0.07-0.21,0.08-0.27
		l-0.41-0.14l0.04-0.14c0.05-0.47-0.07-0.86-0.11-0.98C86.53,178.14,86.35,178,86.13,178.04z M76.26,190.19
		c-0.12,0.22-0.28,0.5-0.44,0.72c-0.22-0.16-0.5-0.31-0.69-0.44c-0.12-0.06-0.16-0.06-0.22,0.03l-0.03-0.03
		c-0.12,0.19-0.28,0.44-0.41,0.65c-0.03,0.09-0.03,0.16,0.09,0.22c0.19,0.12,0.53,0.31,0.72,0.41c0.06,0.03,0.09,0,0.16-0.06
		c0.12-0.12,0.25-0.34,0.41-0.62c0.28,0.19,0.53,0.31,0.75,0.44c0.06,0.03,0.09,0.03,0.16-0.03c0.12-0.16,0.31-0.47,0.41-0.62
		c0.06-0.12,0.03-0.16-0.06-0.22c-0.12-0.09-0.5-0.31-0.69-0.44C76.33,190.13,76.3,190.13,76.26,190.19z M66.6,189.76
		c-0.03,0.03-0.06,0.03-0.09,0.09c-0.03,0.09-0.09,0.34-0.16,0.47c0,0.06,0.03,0.06,0.09,0.03c0.09-0.03,0.22-0.09,0.31-0.16
		c0.5-0.22,2.93-1.12,3.59-1.37h0.03c0.03-0.03,0.09-0.03,0.09-0.09c0.03-0.09,0.09-0.31,0.12-0.44c0-0.06,0-0.06-0.06-0.06
		C69.78,188.54,67.25,189.48,66.6,189.76z M58.87,183.37c-0.09,0.31-0.16,0.56-0.22,0.87c0.5,0.72,0.9,1.53,1.06,2.56
		c-0.53,1.03-1.81,1.53-2.9,1.53c-0.97,0-1.96-0.47-1.96-1.56c0-0.53,0.19-1.09,0.44-1.56c0.03-0.06,0.06-0.16,0-0.19
		c-0.03-0.03-0.12,0-0.19,0.09c-0.44,0.59-0.69,1.4-0.69,2.12c0,1.47,1.22,2.12,2.56,2.06c1.15-0.06,2.31-0.72,2.77-1.71
		c0.19-0.41,0.25-0.93,0.25-1.37c0-1.03-0.34-2-1-2.84v-0.03C58.93,183.27,58.9,183.3,58.87,183.37z M64.57,183.18
		c-0.12,0.19-0.28,0.47-0.37,0.65l0.03,0.03c-0.06,0.06-0.06,0.12,0.03,0.16c0.16,0.09,0.44,0.25,0.62,0.34
		c0.06,0.03,0.12,0.03,0.16-0.03c0.12-0.19,0.28-0.47,0.37-0.62c0.06-0.06,0.06-0.12,0-0.16c-0.19-0.12-0.5-0.28-0.69-0.41
		C64.64,183.12,64.61,183.12,64.57,183.18z M74.02,186.61c-0.65,0.09-1.15-0.12-1.18-0.34c0-0.12,0.26-0.53,0.48-0.56
		C73.6,185.76,73.99,186.45,74.02,186.61z M75.52,182.8c-0.03,0-0.06,0.03-0.06,0.06c-0.06,0.22-0.12,0.69-0.16,0.87
		c0,0.09,0,0.09,0.06,0.16c0.31,0.31,1.03,1.31,1.12,1.81c-0.19,0.25-1.28,0.72-1.84,0.81c-0.16-0.81-0.75-1.9-1.21-1.9
		c-0.53,0-1.15,1.4-1.12,1.96c0.06,1.03,0.9,1.09,1.81,1c-0.81,2.49-2.99,3.34-5.83,2.96c-0.28-0.03-0.44,0.22-0.16,0.28
		c3.24,1,5.74,0.41,6.58-3.34c0.56-0.12,1.15-0.31,1.56-0.62c0.41-0.31,0.62-1.34,0.56-1.78c-0.12-0.9-0.78-1.78-1.25-2.24
		c-0.03-0.03-0.06-0.06-0.09-0.06L75.52,182.8z M63.51,187.42c-0.16,0.03-1.15-0.19-1.25-0.44
		C62.48,186.23,63.08,186.2,63.51,187.42z M69.09,184.58c-0.47,0.72-1.31,0.31-1.34-0.12C67.97,183.55,68.72,183.77,69.09,184.58z
		 M67.63,183.4c-0.19,0.41-0.31,0.94-0.31,1.46c0,1.22,1.59,1.78,2.06,0.25c0.09,0.16,0.38,0.72,0.31,0.94
		c-0.09,0.41-0.41,0.65-0.78,0.84c-0.31,0.12-0.97,0.12-1.28,0.03c-0.41-0.12-0.81-0.34-1.18-0.53c-0.28-0.12-0.47,0.06-0.65,0.22
		c-0.44,0.34-1.12,0.62-1.59,0.72c-0.12-0.25-0.75-2.31-1.59-1.78c-0.4,0.25-0.62,0.78-0.75,1.28c-0.31,1.43,0.65,1.71,1.96,1.53
		c-1.25,2.68-4.05,2.93-5.89,2.43c-0.31-0.09-0.44,0.22-0.16,0.31c3.24,0.9,5.42,0.72,6.58-2.87c0.31-0.12,0.87-0.31,1.53-0.84
		c0.31-0.22,0.37-0.28,0.72-0.09v0.03c0.69,0.4,1.62,1,2.49,0.5c0.56-0.31,0.66-0.75,0.81-1.37c0.28-1.22-0.03-2.46-1-3.43
		C68.44,182.56,67.94,182.77,67.63,183.4z M56.44,181.78c-0.12,0.19-0.28,0.47-0.37,0.65l0.03,0.03c-0.06,0.06-0.06,0.12,0.03,0.16
		c0.16,0.09,0.44,0.25,0.62,0.34c0.06,0.03,0.12,0.03,0.16-0.03c0.12-0.19,0.28-0.44,0.37-0.62c0.06-0.06,0.06-0.12,0-0.16
		c-0.19-0.12-0.5-0.28-0.69-0.41C56.5,181.71,56.47,181.71,56.44,181.78z M68.25,180.12c-0.12,0.22-0.28,0.5-0.44,0.72
		c-0.22-0.16-0.5-0.31-0.69-0.44c-0.12-0.06-0.16-0.06-0.22,0.03l-0.03-0.03c-0.12,0.19-0.28,0.44-0.41,0.66
		c-0.03,0.09-0.03,0.16,0.09,0.22c0.19,0.12,0.53,0.31,0.72,0.41c0.06,0.03,0.12,0,0.16-0.06c0.12-0.12,0.25-0.34,0.41-0.62
		c0.28,0.19,0.53,0.31,0.75,0.44c0.06,0.03,0.09,0.03,0.16-0.03c0.12-0.16,0.31-0.47,0.41-0.62c0.06-0.12,0.03-0.16-0.06-0.22
		c-0.12-0.09-0.5-0.31-0.69-0.44C68.32,180.06,68.28,180.06,68.25,180.12z M54.91,180.4c-0.03,0.03-0.06,0.03-0.09,0.09
		c-0.03,0.09-0.09,0.34-0.16,0.47c0,0.06,0.03,0.06,0.09,0.03c0.09-0.03,0.22-0.09,0.31-0.16l0.03,0.03
		c0.53-0.22,2.46-1.03,3.12-1.28c0.03-0.03,0.09-0.03,0.09-0.09c0.03-0.09,0.09-0.31,0.12-0.44c0-0.06,0-0.06-0.06-0.06
		C57.62,179.31,55.56,180.15,54.91,180.4z M64.4,179.27c0.08,0.1,0.21,0.3,0.23,0.65c0,0.1-0.02,0.24-0.02,0.25
		c-0.01,0.01-0.19-0.07-0.22-0.09c-0.07-0.03-0.25-0.1-0.58-0.23c-0.13-0.02,0-0.23,0-0.23c0.05-0.09,0.13-0.21,0.22-0.3l0.12-0.08
		C64.23,179.22,64.35,179.2,64.4,179.27z M64.33,178.66c-0.37,0.06-0.81,0.58-0.99,1.18c-0.08,0.27-0.03,0.42,0.12,0.51
		c0.21,0.13,0.52,0.24,0.88,0.33c-0.42,0.71-1.78,1.62-2.03,1.76c-0.3,0.17-0.24,0.36,0.13,0.19c1.37-0.62,2.04-1.28,2.35-1.85
		c0.09,0.02,0.17,0.05,0.27,0.07c0.16,0.04,0.13,0.06,0.21-0.2c0.04-0.12,0.07-0.21,0.08-0.27l-0.41-0.14l0.04-0.14
		c0.05-0.47-0.07-0.86-0.11-0.98C64.74,178.76,64.56,178.63,64.33,178.66z M75.3,179.03c0.08,0.1,0.21,0.3,0.23,0.65
		c0,0.1-0.02,0.24-0.02,0.25c-0.01,0.01-0.19-0.07-0.22-0.09c-0.07-0.03-0.25-0.1-0.58-0.23c-0.13-0.02,0-0.23,0-0.23
		c0.05-0.09,0.13-0.21,0.22-0.29l0.12-0.08C75.13,178.98,75.25,178.95,75.3,179.03z M75.23,178.42c-0.37,0.06-0.81,0.58-0.99,1.17
		c-0.08,0.27-0.03,0.42,0.12,0.51c0.21,0.13,0.52,0.24,0.88,0.33c-0.42,0.71-1.78,1.62-2.03,1.76c-0.29,0.17-0.24,0.36,0.13,0.19
		c1.37-0.62,2.04-1.28,2.34-1.85c0.09,0.02,0.18,0.05,0.27,0.07c0.16,0.04,0.13,0.06,0.21-0.2c0.04-0.12,0.07-0.21,0.08-0.27
		L75.83,180l0.04-0.14c0.05-0.47-0.07-0.86-0.11-0.98C75.64,178.51,75.45,178.38,75.23,178.42z"/>
</g>
</svg>
