<?xml version="1.0" encoding="iso-8859-1"?>
<!-- Generator: Adobe Illustrator 25.2.1, SVG Export Plug-In . SVG Version: 6.00 Build 0)  -->
<svg version="1.1" xmlns="http://www.w3.org/2000/svg" xmlns:xlink="http://www.w3.org/1999/xlink" x="0px" y="0px"
	 viewBox="0 0 240.74 323.95" enable-background="new 0 0 240.74 323.95" xml:space="preserve">
<g id="Ornaments">
	<path fill-rule="evenodd" clip-rule="evenodd" fill="#C0E2CA" d="M197.17,118.05c24.33,42.14,9.89,96.02-32.25,120.36
		c-42.14,24.33-96.02,9.89-120.35-32.25c-24.33-42.14-9.89-96.03,32.25-120.35C118.96,61.47,172.84,75.91,197.17,118.05z
		 M136.61,20.39c0.3,0,0.48,0,0.48,0l0,0.02c0.37,0.01,0.7,0.03,0.93,0.05c1.56,0.25,2.02,1.94,2.27,2.62
		c1.6-0.04,3.39,1.1,3.7,1.25c-0.92,2.56-0.02,3.7,0.38,4.33c0.4,0.64,1.35,1.1,1.96,1.29c1.37,0.44,2.73-0.25,3.06-0.52
		c0.33-0.27,0.38-0.29,0.79-0.63c-0.21,0.81-0.17,1.27-0.17,1.66c0,0.39,0.62,1,0.94,1.29c1.39,0.58,1.85-0.65,1.92-1.19
		c0.08-0.54-0.25-0.92-0.38-1.19c0.01,0,1.46-0.35,2.1,0.27c0.9,0.6,0.48,2.52,0.42,2.93c2.27-0.96,3.23,0.64,3.52,0.96
		c0.25,0.28,1.82,1.78,2.52,2.38l0.06,0l0.21,0.19l-0.01,0.01l0.01,0.01l-0.21,0.19l-0.06,0c-0.7,0.6-2.27,2.1-2.52,2.38
		c-0.29,0.33-1.25,1.92-3.52,0.96c0.06,0.4,0.48,2.33-0.42,2.93c-0.64,0.62-2.09,0.27-2.1,0.27c0.13-0.27,0.46-0.65,0.38-1.19
		c-0.08-0.54-0.54-1.77-1.92-1.19c-0.33,0.29-0.94,0.9-0.94,1.29s-0.04,0.85,0.17,1.66c-0.4-0.35-0.46-0.37-0.79-0.63
		c-0.33-0.27-1.69-0.96-3.06-0.52c-0.62,0.19-1.56,0.65-1.96,1.29c-0.4,0.64-1.31,1.77-0.38,4.33c-0.31,0.15-2.1,1.29-3.7,1.25
		c-0.25,0.67-0.71,2.37-2.27,2.62c-0.96,0.08-3.7,0.12-3.7,0.12v-0.68l-0.07,0.73c0,0-31.08-0.04-32.04-0.12
		c-1.56-0.25-2.02-1.94-2.27-2.62c-1.6,0.04-3.39-1.1-3.7-1.25c0.92-2.56,0.02-3.7-0.38-4.33c-0.4-0.64-1.35-1.1-1.96-1.29
		c-1.37-0.44-2.73,0.25-3.06,0.52c-0.33,0.27-0.38,0.29-0.79,0.63c0.21-0.81,0.17-1.27,0.17-1.66c0-0.39-0.62-1-0.94-1.29
		c-1.39-0.58-1.85,0.65-1.92,1.19c-0.08,0.54,0.25,0.92,0.38,1.19c-0.01,0-1.46,0.35-2.1-0.27c-0.9-0.6-0.48-2.52-0.42-2.93
		c-2.27,0.96-3.23-0.64-3.52-0.96c-0.25-0.28-1.82-1.78-2.52-2.38l-0.06,0l-0.21-0.19l0.01-0.01l-0.01-0.01l0.21-0.19l0.06,0
		c0.7-0.6,2.27-2.1,2.52-2.38c0.29-0.33,1.25-1.92,3.52-0.96c-0.06-0.4-0.48-2.33,0.42-2.93c0.64-0.62,2.09-0.27,2.1-0.27
		c-0.13,0.27-0.46,0.65-0.38,1.19c0.08,0.54,0.54,1.77,1.92,1.19c0.33-0.29,0.94-0.9,0.94-1.29c0-0.39,0.04-0.85-0.17-1.66
		c0.4,0.35,0.46,0.37,0.79,0.63c0.33,0.27,1.69,0.96,3.06,0.52c0.62-0.19,1.56-0.65,1.96-1.29c0.4-0.64,1.31-1.77,0.38-4.33
		c0.31-0.15,2.1-1.29,3.7-1.25c0.25-0.67,0.71-2.37,2.27-2.62c0.79-0.06,24.01-0.1,32.11-0.11v-0.05
		C134.32,20.34,135.53,20.35,136.61,20.39z M13.88,12.87V311.7v0.41h0.4h212.06V12.87H13.88z"/>
	<path fill-rule="evenodd" clip-rule="evenodd" fill="#C0E2CA" d="M163.82,115.08c-0.04-0.01-0.09-0.02-0.14-0.02
		c-0.42,0-0.78,0.31-0.84,0.72c-0.4,0.12-0.7,0.48-0.7,0.93c0,0.06,0.01,0.12,0.02,0.18c0,0,0,0.01,0,0.01
		c-0.7,0.26-1.49,0.8-2.09,1.82c-0.43,0.73-0.72,1.7-0.76,2.94c0,0.05,0,0.33,0,0.37c0.04,1.24,0.33,2.21,0.76,2.94
		c0.5,0.86,1.13,1.37,1.74,1.67c0.04,0.46,0.42,0.83,0.89,0.84c0.16,0.25,0.44,0.42,0.76,0.42c0.12,0,0.24-0.03,0.34-0.07
		c0.05,0.06,0.1,0.12,0.16,0.17c0.04,0.03,0.12,0.08,0.14,0.1l0.01,0c0.04,0.02,0.08,0.04,0.12,0.05c0.03,0.01,0.06,0.02,0.09,0.03
		c0,0,0.01,0,0.02,0c0.01,0,0.03,0.01,0.04,0.01c0.04,0.01,0.09,0.01,0.14,0.01c0.07,0,0.11-0.01,0.15-0.01l0.01,0
		c0,0,0.01,0,0.01,0l0,0c0.03-0.01,0.05-0.01,0.06-0.01l0,0c0.03-0.01,0.06-0.02,0.09-0.03c0.04-0.01,0.08-0.03,0.12-0.05
		c0.02-0.01,0.11-0.06,0.14-0.09c0.08-0.06,0.13-0.12,0.18-0.18c0.11,0.04,0.22,0.07,0.34,0.07c0.32,0,0.6-0.17,0.76-0.42
		c0.48,0,0.86-0.38,0.89-0.85c0.6-0.3,1.22-0.82,1.71-1.66c0.42-0.73,0.71-1.7,0.76-2.93c0,0,0,0,0,0c0,0,0,0,0,0
		c0-0.01,0-0.04,0-0.07c0-0.04,0-0.08,0-0.13c0-0.08,0-0.17-0.01-0.19c-0.04-1.23-0.33-2.2-0.76-2.93c-0.59-1-1.36-1.55-2.05-1.81
		c0-0.01,0.01-0.02,0.01-0.02c0.01-0.06,0.01-0.12,0.01-0.18c0-0.44-0.3-0.8-0.7-0.93c-0.06-0.41-0.41-0.72-0.84-0.72
		c-0.06,0-0.11,0.01-0.16,0.02c-0.06-0.39-0.34-0.71-0.72-0.72C164.17,114.37,163.88,114.69,163.82,115.08z"/>
	<path fill-rule="evenodd" clip-rule="evenodd" fill="#C0E2CA" d="M88.5,221.38c-0.04-0.01-0.09-0.02-0.14-0.02
		c-0.42,0-0.78,0.31-0.84,0.72c-0.4,0.12-0.7,0.48-0.7,0.93c0,0.06,0.01,0.12,0.02,0.18c0,0,0,0.01,0,0.01
		c-0.7,0.26-1.49,0.8-2.09,1.82c-0.43,0.73-0.72,1.7-0.76,2.94c0,0.05,0,0.33,0,0.38c0.04,1.23,0.33,2.21,0.76,2.94
		c0.5,0.86,1.13,1.37,1.74,1.67c0.04,0.46,0.42,0.83,0.89,0.84c0.16,0.25,0.44,0.42,0.76,0.42c0.12,0,0.24-0.03,0.34-0.07
		c0.05,0.06,0.1,0.12,0.16,0.17c0.04,0.04,0.12,0.08,0.14,0.1l0.01,0c0.04,0.02,0.08,0.04,0.12,0.05c0.03,0.01,0.06,0.02,0.09,0.03
		c0,0,0.01,0,0.02,0c0.01,0,0.03,0.01,0.04,0.01c0.04,0.01,0.09,0.01,0.14,0.01c0.07,0,0.11-0.01,0.15-0.01l0.01,0
		c0,0,0.01,0,0.01,0l0,0c0.03,0,0.05-0.01,0.06-0.01l0,0c0.03-0.01,0.06-0.02,0.09-0.03c0.04-0.01,0.08-0.03,0.12-0.05
		c0.02-0.01,0.11-0.06,0.14-0.09c0.08-0.06,0.13-0.12,0.18-0.18c0.11,0.04,0.22,0.07,0.34,0.07c0.32,0,0.6-0.17,0.76-0.42
		c0.48,0,0.86-0.38,0.89-0.85c0.6-0.3,1.22-0.81,1.71-1.66c0.42-0.73,0.71-1.7,0.76-2.93c0,0,0,0,0,0c0,0,0,0,0,0
		c0-0.01,0-0.04,0-0.07c0-0.04,0-0.08,0-0.13c0-0.08,0-0.17-0.01-0.19c-0.05-1.23-0.33-2.2-0.76-2.93c-0.59-1-1.36-1.55-2.05-1.81
		c0-0.01,0.01-0.02,0.01-0.03c0.01-0.06,0.01-0.12,0.01-0.18c0-0.44-0.3-0.8-0.7-0.93c-0.06-0.41-0.42-0.72-0.84-0.72
		c-0.06,0-0.11,0.01-0.16,0.02c-0.06-0.39-0.34-0.71-0.72-0.72C88.85,220.67,88.56,220.99,88.5,221.38z"/>
	<path fill-rule="evenodd" clip-rule="evenodd" fill="#C0E2CA" d="M46.87,178.44c-0.05-0.01-0.09-0.02-0.14-0.02
		c-0.42,0-0.78,0.31-0.84,0.72c-0.4,0.12-0.7,0.48-0.7,0.93c0,0.06,0.01,0.12,0.02,0.18c0,0,0,0.01,0,0.01
		c-0.7,0.26-1.49,0.8-2.09,1.82c-0.43,0.73-0.72,1.7-0.76,2.94c0,0.05,0,0.33,0,0.38c0.04,1.24,0.33,2.21,0.76,2.94
		c0.5,0.85,1.13,1.37,1.74,1.67c0.04,0.46,0.42,0.83,0.89,0.84c0.16,0.25,0.44,0.42,0.76,0.42c0.12,0,0.24-0.03,0.34-0.07
		c0.05,0.06,0.1,0.12,0.16,0.17c0.04,0.03,0.12,0.08,0.14,0.09l0.01,0c0.04,0.02,0.08,0.04,0.12,0.05c0.03,0.01,0.06,0.02,0.09,0.03
		c0,0,0.01,0,0.02,0c0.01,0,0.03,0.01,0.04,0.01c0.05,0.01,0.09,0.01,0.14,0.01c0.07,0,0.11-0.01,0.15-0.01l0.01,0
		c0.01,0,0.01,0,0.01,0h0c0.03-0.01,0.05-0.01,0.06-0.01l0,0c0.03-0.01,0.06-0.02,0.09-0.03c0.04-0.01,0.08-0.03,0.12-0.05
		c0.02-0.01,0.11-0.06,0.14-0.09c0.08-0.06,0.13-0.12,0.18-0.18c0.11,0.04,0.22,0.07,0.34,0.07c0.32,0,0.6-0.17,0.76-0.42
		c0.48,0,0.86-0.38,0.89-0.85c0.6-0.3,1.22-0.81,1.71-1.66c0.42-0.73,0.71-1.7,0.76-2.93c0,0,0,0,0,0c0,0,0,0,0,0
		c0-0.01,0-0.04,0-0.07c0-0.04,0-0.08,0-0.13c0-0.08,0-0.17-0.01-0.19c-0.05-1.23-0.33-2.2-0.76-2.93c-0.59-1-1.36-1.55-2.05-1.81
		c0-0.01,0.01-0.02,0.01-0.02c0.01-0.06,0.02-0.12,0.02-0.18c0-0.44-0.3-0.8-0.7-0.93c-0.06-0.41-0.42-0.72-0.84-0.72
		c-0.06,0-0.11,0.01-0.16,0.02c-0.06-0.39-0.34-0.71-0.72-0.72C47.22,177.72,46.93,178.04,46.87,178.44z"/>
	<path fill-rule="evenodd" clip-rule="evenodd" fill="#C0E2CA" d="M164.24,136.71c-0.05-0.01-0.09-0.02-0.14-0.02
		c-0.42,0-0.78,0.31-0.84,0.72c-0.4,0.12-0.7,0.48-0.7,0.93c0,0.06,0.01,0.12,0.02,0.18c0,0,0,0.01,0,0.01
		c-0.7,0.26-1.49,0.8-2.09,1.82c-0.43,0.73-0.72,1.7-0.76,2.94c0,0.05,0,0.33,0,0.37c0.05,1.24,0.33,2.21,0.76,2.94
		c0.5,0.85,1.13,1.37,1.74,1.67c0.04,0.46,0.42,0.83,0.89,0.84c0.16,0.25,0.44,0.42,0.76,0.42c0.12,0,0.24-0.03,0.34-0.07
		c0.05,0.06,0.1,0.12,0.16,0.17c0.04,0.03,0.12,0.08,0.14,0.1l0.01,0c0.04,0.02,0.08,0.04,0.12,0.05c0.03,0.01,0.06,0.02,0.09,0.03
		c0,0,0.01,0,0.02,0c0.01,0,0.03,0.01,0.04,0.01c0.05,0.01,0.09,0.01,0.14,0.01c0.07,0,0.11-0.01,0.15-0.01l0,0
		c0.01,0,0.01,0,0.01,0l0,0c0.03-0.01,0.05-0.01,0.06-0.01l0,0c0.03-0.01,0.06-0.02,0.09-0.03c0.04-0.01,0.08-0.03,0.12-0.05
		c0.02-0.01,0.11-0.06,0.14-0.09c0.08-0.06,0.13-0.12,0.18-0.18c0.11,0.04,0.22,0.07,0.34,0.07c0.32,0,0.6-0.17,0.76-0.42
		c0.48,0,0.86-0.38,0.89-0.85c0.6-0.3,1.22-0.81,1.71-1.66c0.42-0.73,0.71-1.7,0.76-2.93c0,0,0,0,0,0c0,0,0,0,0,0
		c0-0.01,0-0.04,0-0.07c0-0.04,0-0.08,0-0.13c0-0.08,0-0.17-0.01-0.19c-0.05-1.23-0.33-2.2-0.76-2.93c-0.59-1-1.36-1.55-2.05-1.81
		c0-0.01,0.01-0.02,0.01-0.02c0.01-0.06,0.01-0.12,0.01-0.18c0-0.44-0.3-0.8-0.7-0.93c-0.06-0.41-0.42-0.72-0.84-0.72
		c-0.06,0-0.11,0.01-0.16,0.02c-0.06-0.39-0.34-0.71-0.71-0.72C164.59,136,164.3,136.32,164.24,136.71z"/>
	<path fill-rule="evenodd" clip-rule="evenodd" fill="#C0E2CA" d="M120.63,157.49c-0.05-0.01-0.09-0.02-0.14-0.02
		c-0.42,0-0.78,0.31-0.84,0.72c-0.4,0.12-0.7,0.48-0.7,0.93c0,0.06,0.01,0.12,0.02,0.18c0,0,0,0.01,0,0.01
		c-0.7,0.26-1.49,0.8-2.09,1.82c-0.43,0.73-0.72,1.7-0.76,2.94c0,0.05,0,0.33,0,0.38c0.04,1.24,0.33,2.21,0.76,2.94
		c0.5,0.85,1.13,1.37,1.74,1.67c0.04,0.46,0.42,0.83,0.89,0.84c0.16,0.25,0.44,0.42,0.76,0.42c0.12,0,0.24-0.03,0.34-0.07
		c0.05,0.06,0.1,0.12,0.16,0.17c0.04,0.03,0.12,0.08,0.14,0.09l0.01,0c0.04,0.02,0.08,0.04,0.12,0.05c0.03,0.01,0.06,0.02,0.09,0.03
		c0,0,0.01,0,0.02,0c0.01,0,0.03,0.01,0.04,0.01c0.05,0.01,0.09,0.01,0.14,0.01c0.07,0,0.11-0.01,0.15-0.01l0,0
		c0.01,0,0.01,0,0.01,0h0c0.03-0.01,0.05-0.01,0.06-0.01l0,0c0.03-0.01,0.06-0.02,0.09-0.03c0.04-0.01,0.08-0.03,0.12-0.05
		c0.02-0.01,0.11-0.06,0.14-0.09c0.08-0.06,0.13-0.12,0.18-0.18c0.11,0.04,0.22,0.07,0.34,0.07c0.32,0,0.6-0.17,0.76-0.42
		c0.48,0,0.86-0.38,0.89-0.85c0.6-0.3,1.22-0.81,1.71-1.66c0.42-0.73,0.71-1.7,0.76-2.93c0,0,0,0,0,0c0,0,0,0,0,0
		c0-0.01,0-0.04,0-0.07c0-0.04,0-0.08,0-0.13c0-0.08,0-0.17-0.01-0.2c-0.05-1.23-0.33-2.2-0.76-2.93c-0.59-1-1.36-1.55-2.05-1.81
		c0-0.01,0.01-0.02,0.01-0.02c0.01-0.06,0.01-0.12,0.01-0.18c0-0.44-0.3-0.8-0.7-0.93c-0.06-0.41-0.42-0.72-0.84-0.72
		c-0.06,0-0.11,0.01-0.16,0.02c-0.06-0.39-0.34-0.71-0.71-0.72C120.97,156.78,120.69,157.1,120.63,157.49z"/>
</g>
<g id="Aya_No.">
	<path fill-rule="evenodd" clip-rule="evenodd" d="M164.03,119.86H164c-0.06,0.06-0.19,0.72-0.16,0.78
		c0.03,0.06,0.06,0.12,0.12,0.19c0.5,0.75,0.87,1.71,0.97,2.77c0.03,0.06,0.03,0.25,0.09,0.25c0.06,0,0.09-0.19,0.12-0.25
		c0.12-0.59,0.03-1.34-0.16-1.96c-0.19-0.69-0.53-1.22-0.9-1.75C164.07,119.86,164.07,119.86,164.03,119.86z"/>
	<path fill-rule="evenodd" clip-rule="evenodd" d="M164.76,141.58c-0.72,0.25-0.84,1.18-0.47,1.84c0.34,0.69,0.62,1.15,0.78,1.87
		c0.03,0.09,0.03,0.16,0.09,0.16s0.12-0.03,0.12-0.16c-0.06-0.97-0.22-1.68-0.72-2.37c-0.03-0.06-0.12-0.19-0.12-0.31
		c0-0.16,0.47-0.25,0.65-0.25c0.22,0,0.44,0.03,0.56,0.03l0.16-0.78C165.44,141.52,165.07,141.46,164.76,141.58z"/>
	<path fill-rule="evenodd" clip-rule="evenodd" d="M122.6,162.27c-0.03,0-0.06,0.03-0.06,0.06c0,0.22-0.09,0.41-0.12,0.47
		c-0.22,0.25-0.65,0.19-0.75-0.03c-0.03-0.09,0-0.19,0-0.28c0-0.06-0.03-0.09-0.06-0.09c-0.06,0-0.06,0.03-0.09,0.09
		c-0.03,0.16-0.06,0.28-0.12,0.37c-0.25,0.34-0.69,0.31-0.93,0.06c-0.12-0.09-0.22-0.31-0.28-0.44c-0.03-0.06-0.06-0.09-0.09,0
		l0.03,0.03l-0.12,0.65c0,0.03,0.03,0.06,0.06,0.16c0.22,0.53,0.34,0.75,0.53,1.22c0.19,0.53,0.28,0.87,0.37,1.53
		c0.03,0.06,0.03,0.19,0.12,0.19c0.06,0,0.09-0.06,0.09-0.12c0.09-0.66,0-1.43-0.28-2.12c-0.03-0.06-0.03-0.09,0-0.09h0.09
		c0.22,0,0.44-0.19,0.53-0.41c0.28,0.28,0.69,0.31,0.94,0c0.25-0.28,0.28-0.94,0.19-1.18C122.63,162.27,122.6,162.27,122.6,162.27z"
		/>
	<path fill-rule="evenodd" clip-rule="evenodd" d="M47.4,183.25c-0.34,0.34-0.78,0.75-0.84,1.37c0,0.25,0.06,0.41,0.19,0.53
		c0.22,0.16,0.53,0.22,0.53,0.37c0,0.03-0.41,0.72-0.44,1.06c-0.06,0.44,0.22,0.62,0.44,0.62c0.65,0,1.03-0.53,1.31-0.9
		c0.03-0.06,0.03-0.12,0-0.09c-0.34,0.12-0.56,0.16-0.75,0.19c-0.42,0-0.6-0.12-0.59-0.21c0.01-0.13,0.37-0.71,0.43-1.01
		c0.03-0.16,0.03-0.34-0.06-0.44c-0.19-0.22-0.69-0.25-0.69-0.47c0-0.25,0.25-0.31,0.44-0.44c0.09-0.19,0.12-0.41,0.16-0.53
		C47.55,183.25,47.49,183.15,47.4,183.25z"/>
	<path fill-rule="evenodd" clip-rule="evenodd" d="M89.96,228.35c0,0.25-0.44,0.37-0.75,0.37c-0.31,0-0.7-0.21-0.71-0.46
		c0.01-0.31,0.29-0.63,0.62-0.63C89.52,227.64,89.87,228.07,89.96,228.35z M88.24,228.35c0,0.56,0.25,1.15,0.9,1.15
		c0.72,0,1.03-0.44,1.03-1.28c0-0.5-0.47-1.43-1.06-1.43C88.56,226.79,88.24,227.92,88.24,228.35z"/>
</g>
<g id="Quran_Text">
	<path fill-rule="evenodd" clip-rule="evenodd" d="M115.19,41.4l-0.49,0.69v0.07l0.85,0.62h0.07l0.49-0.69v-0.07l-0.85-0.62H115.19z
		 M109.27,40.35c-0.07,0.23-0.42,0.98-0.29,1.83c0.03,0.2,0.2,0.59,0.49,0.59c0.16,0,0.36-0.13,0.49-0.62
		c0.03-0.09,0.03-0.17,0.03-0.24c0-0.06-0.04-0.12-0.1,0.01c-0.1,0.29-0.39,0.52-0.65,0.13c-0.03-0.06-0.23-0.43,0.03-1.24
		c0.03-0.16,0.1-0.39,0.1-0.39C109.43,40.25,109.33,40.16,109.27,40.35z M100.85,40.09c-0.2,0.1-2.06,0.88-2.26,1.01
		c-0.2,0.1-0.26,0.13-0.29,0.29c-0.03,0.13-0.07,0.23-0.07,0.26c-0.03,0.1-0.07,0.2,0.23,0.03c0.1-0.07,2-0.85,2.16-0.95
		c0.16-0.1,0.26-0.13,0.33-0.26c0.06-0.13,0.1-0.16,0.13-0.26l-0.03-0.07C101.08,40.06,101.11,39.93,100.85,40.09z M139.51,39.57
		c-0.07,0.2-0.1,0.33-0.1,0.39c0,0.07,0.03,0.33,0.03,0.33c-0.07,0.07-0.39,0.26-0.69,0.03c0.03-0.06,0.07-0.2,0.07-0.26
		c0.03-0.1-0.03-0.2-0.1-0.07c-0.07,0.13-0.2,0.52-0.3,0.59c-0.1,0.1-0.2,0.42-0.95,0.1c-0.13-0.03-0.36-0.23-0.69,0.13
		c-0.79,0.72-1.34,0.79-2.23,1.11c-0.1,0.07-0.33,0.23-0.07,0.2c0.26-0.03,1.38,0,2-0.69c0.13-0.13,0.26-0.46,0.75-0.26
		c0.26,0.1,0.75,0.52,1.31-0.33c0.33,0.2,0.79,0.13,0.88-0.1c0.07-0.23,0.16-0.46,0.16-0.62v-0.36l0.03-0.1
		C139.65,39.54,139.58,39.37,139.51,39.57z M119.61,39.44c-0.1,0.23-0.43,1.05-0.33,2c0.03,0.23,0.2,0.62,0.52,0.62
		c0.16,0,0.39-0.13,0.52-0.69c0.03-0.13,0.03-0.23,0.03-0.26c0-0.07-0.03-0.16-0.1,0c-0.1,0.33-0.43,0.59-0.69,0.16
		c-0.03-0.1-0.23-0.46,0.03-1.34c0.07-0.16,0.1-0.43,0.1-0.43C119.78,39.31,119.68,39.21,119.61,39.44z M125.6,38.32
		c-0.33,0.29-1.05,0.65-1.24,0.65c-0.2,0.03-0.72-0.07-0.49-0.62c0.06-0.16,0.57-1,0.62-1.07C124.74,37.42,125.95,38.04,125.6,38.32
		z M125.77,34.76c-0.13,0.16-1.31,1.74-1.31,1.74l0.03-0.07l-0.88-0.62c0,0,0.36-0.1,0.43-0.1c0.07-0.03,0.1-0.1,0-0.16
		c-0.1-0.07-1.15-0.49-1.24-0.52c-0.07-0.03-0.1-0.07-0.13,0.03c0,0.1-0.03,0.79-0.03,0.79s0,0.03,0.06,0.1
		c0.1,0.07,0.2,0.16,0.26,0.23c0.07,0.06,1.05,0.85,1.11,0.88c0,0-0.49,0.85-0.56,1.54c-0.06,0.69,0,1.6,0.92,1.31
		c0.26-0.07,1.28-0.49,1.5-1.21c0.07-0.26,0.29-0.75-0.07-1.21c-0.2-0.29-1.01-0.75-1.01-0.75s0.62-0.85,0.69-0.95
		c0.07-0.1,0.29-0.75,0.29-0.92C125.86,34.69,125.86,34.63,125.77,34.76z M133.23,37.95c0,0-0.26,0.13-0.92,0.1
		c-0.59-0.03-0.52-0.26-0.46-0.36C131.95,37.59,132.64,37.16,133.23,37.95z M127.83,34.05c-0.03,0.1-0.1,0.52-0.13,0.62
		c-0.03,0.1,0,0.16,0.03,0.26c0.03,0.07,0.16,0.33,0.23,0.56c0.07,0.23,0.92,1.83,1.02,2c0.06,0.13,0.1,0.26,0.03,0.36
		c-2.72,2.85-7.92,4.62-8.08,4.71c-0.16,0.1-0.13,0.16,0.16,0.13c0.43-0.07,2.78-0.46,3.44-0.79c0.43-0.23,2-0.98,3.24-1.96
		c-0.03,0.26-0.07,0.62-0.07,1.11c0.1,2.29,2.13,1.93,2.68,1.8c1.6-0.36,3.6-2.59,3.76-3.04c0.16-0.46,0.2-0.85,0.16-1.21
		c0.43-0.23,1.34-0.98,1.34-0.98c0.03,0.98,0.82,1.28,1.05,1.31c1.11,0.16,1.7-0.75,1.93-1.08c0.2,0.52,0.69,0.65,0.95,0.69
		c0.98,0.2,1.15-0.49,1.21-0.65h-0.03c0.29-0.95-0.23-1.64-0.33-1.74c-0.07-0.06-0.1,0-0.13,0.1c-0.03,0.1-0.1,0.43-0.16,0.65
		c0,0,0.2,0.33,0.26,0.49c0.07,0.16-0.03,0.26-0.23,0.29c-0.59,0.06-1.05-0.26-1.21-0.43c-0.16-0.16,0-0.43,0.13-0.75
		c0.1-0.26-0.1-0.29-0.23,0c-0.49,1.31-1.21,1.44-1.38,1.51c-1.67,0.46-1.54-1.08-1.51-1.31c0-0.26-0.16-0.16-0.39,0
		c-0.69,0.56-1.28,0.88-1.57,1.01c-0.26-0.52-0.66-0.82-0.79-0.95c-1.8-1.31-1.96,1.34-1.9,1.64c0.26,1.11,2.13,0.46,2.39,0.43
		c0.29-0.03,0.2,0.36,0.03,0.59c-0.39,0.56-0.85,0.95-1.28,1.31c-1.8,1.44-2.68,1.34-2.95,1.34c-1.77-0.06-1.6-1.93-1.51-2.36
		c0.52-0.46,0.98-0.92,1.24-1.44c0.1-0.26,0.3-0.88-0.03-1.67c-0.16-0.36-0.72-1.31-0.72-1.31h0.46c0.03,0,0.13-0.03,0-0.16
		c-0.1-0.1-0.95-0.98-1.02-1.05C127.89,34.02,127.86,33.96,127.83,34.05z M108.48,35.24c-0.2,0.1-3.54,1.57-3.73,1.67
		c-0.2,0.1-0.26,0.13-0.29,0.29c-0.03,0.13-0.1,0.23-0.1,0.23c-0.03,0.1-0.07,0.2,0.23,0.03c0.1-0.07,3.5-1.54,3.63-1.64
		c0.16-0.1,0.26-0.13,0.33-0.26c0.07-0.13,0.1-0.16,0.13-0.26C108.71,35.21,108.74,35.08,108.48,35.24z M117.09,34.78
		c-0.2,0.1-3.53,1.57-3.73,1.67l-0.03-0.03c-0.2,0.1-0.26,0.13-0.29,0.29c-0.03,0.13-0.07,0.23-0.07,0.26
		c-0.03,0.1-0.07,0.2,0.23,0.03c0.1-0.07,3.5-1.54,3.63-1.64c0.16-0.1,0.26-0.13,0.33-0.26c0.07-0.13,0.1-0.16,0.13-0.26
		C117.32,34.74,117.35,34.61,117.09,34.78z M124.62,33.05l-0.36,0.52l-0.72-0.52h-0.07l-0.42,0.59v0.07l0.75,0.56h0.06l0.36-0.52
		l0.72,0.52h0.07l0.42-0.59v-0.06l-0.75-0.56H124.62z M110.12,33.12l-0.49,0.69v0.07l0.85,0.62h0.07l0.42-0.59l0.82,0.62h0.07
		l0.49-0.69v-0.06l-0.85-0.62h-0.07L111,33.74l-0.82-0.62H110.12z M138.79,32.93c-0.06,0.16-0.36,0.79-0.33,1.47
		c0,0.16,0.13,0.49,0.36,0.49c0.13,0,0.29-0.1,0.39-0.49c0.03-0.1,0.03-0.16,0.03-0.2c0-0.07-0.03-0.13-0.07,0
		c-0.1,0.23-0.33,0.43-0.52,0.1c-0.03-0.07-0.16-0.36,0.07-1.01h0.03c0.03-0.13,0.1-0.33,0.1-0.33
		C138.93,32.83,138.86,32.73,138.79,32.93z M101.97,31.96l-0.49,0.69l-0.85-0.62h-0.07l-0.49,0.69v0.06l0.85,0.62h0.07l0.49-0.69
		l0.85,0.62h0.07l0.49-0.69v-0.07l-0.85-0.62H101.97z M131.25,32.23c-0.1,0.23-0.43,1.05-0.33,2c0.03,0.23,0.2,0.62,0.52,0.62
		c0.16,0,0.39-0.13,0.52-0.69C132,34.03,132,33.93,132,33.9c0-0.06-0.03-0.16-0.1,0c-0.1,0.33-0.42,0.59-0.69,0.16
		c-0.03-0.1-0.23-0.46,0.03-1.34c0.07-0.16,0.1-0.43,0.1-0.43C131.41,32.1,131.31,32,131.25,32.23z M114.51,31.02
		c-0.1,0.23-0.43,1.05-0.33,2c0.03,0.23,0.2,0.62,0.52,0.62c0.16,0,0.39-0.13,0.52-0.69c0.03-0.13,0.03-0.23,0.03-0.26
		c0-0.07-0.03-0.16-0.1,0c-0.1,0.33-0.42,0.59-0.69,0.16c-0.03-0.1-0.23-0.46,0.03-1.34c0.07-0.16,0.1-0.43,0.1-0.43
		C114.67,30.89,114.57,30.79,114.51,31.02z M130.55,29.28c-0.16,0.1-3.99,2.29-4.16,2.39c-0.16,0.1-0.2,0.13-0.23,0.26
		c-0.03,0.13-0.03,0.2-0.03,0.2h-0.03c-0.03,0.07-0.03,0.16,0.2,0.03c0.07-0.03,3.93-2.29,4.06-2.36c0.13-0.07,0.2-0.13,0.26-0.23
		c0.07-0.13,0.07-0.13,0.1-0.23C130.74,29.24,130.78,29.14,130.55,29.28z M134.7,29.23c-0.39,0.52-0.42,1.21-0.49,1.96
		c-0.07-0.16-0.39-1.18-1.44-1.77c-0.07-0.03-0.23,0.03-0.23,0.29c0,0.13-0.03,0.49,0.07,0.59h-0.03c0.1,0.1,0.39,0.29,0.42,0.33
		c0.07,0.03,0.1,0.03,0.13-0.03c0-0.06,0.07-0.2,0.16-0.1c0.07,0.07,0.59,0.49,0.85,1.41c0.03,0.13,0.16,0.13,0.2-0.03
		c0.07-0.43,0.1-1.15,0.13-1.38c0.03-0.29,0.2-0.95,0.59-0.62c0.1,0.07,0.2,0.16,0.2,0.16c0.1,0.1,0.2,0.23,0.23,0.1
		c0.06-0.2,0.13-0.49,0.06-0.65C135.52,29.43,135.03,28.8,134.7,29.23z M101.28,29.06c-0.08,0.19-0.34,0.85-0.27,1.62
		c0.03,0.19,0.16,0.5,0.42,0.5c0.13,0,0.32-0.11,0.42-0.56c0.03-0.11,0.03-0.18,0.03-0.21c0-0.05-0.03-0.13-0.08,0
		c-0.08,0.27-0.34,0.48-0.56,0.13c-0.03-0.08-0.19-0.37,0.03-1.09c0.05-0.13,0.08-0.34,0.08-0.34
		C101.41,28.96,101.33,28.88,101.28,29.06z M111.69,37.25c0.36,0.43-0.66,0.85-0.82,0.92c0,0-0.26-0.36-0.36-0.69
		c-0.1-0.33,0.1-0.59,0.29-0.79C111.04,36.49,111.53,37.05,111.69,37.25z M102.75,37.64c0.1,0.13-0.1,0.36-0.1,0.36
		c-0.16,0.16-0.82,0.49-1.18,0.59c-0.36,0.1-0.66-0.2-0.59-0.59c0.07-0.29,0.69-1.18,0.79-1.34
		C101.67,36.66,102.43,37.18,102.75,37.64z M117.48,29c-0.03,0.1-0.29,0.79-0.29,0.79c0.03,0.23,1.15,8.28,1.18,8.9
		c0,0.13,0.07,0.36-0.1,0.52c-0.17,0.16-0.82,0.72-1.96,0.13c-0.13-0.07-0.56-0.49-0.49-0.75c0.07-0.33,0.03-0.62-0.16-0.39
		c-0.2,0.23-0.98,1.51-2.55,1.57c-0.26,0-1.08,0.03-1.8-0.88c0,0,0.69-0.46,0.82-0.88c0.13-0.43,0.39-1.51-0.59-2.36
		c-0.2-0.13-0.59-0.39-1.08,0.33c-0.46,0.72-0.39,1.93-0.13,2.32c0,0-1.18,0.43-2.29,0.72c-0.33,0.1-1.7,0.52-3.34,2.03
		c-0.26,0.26-1.57,1.54-2.49,0.98c-0.16-0.1-0.85-0.59,0.13-2.75c0.03-0.03,0.03-0.1,0.03-0.13c0.2-0.13,0.43-0.29,0.66-0.56
		c0.1-0.1,0.29-0.46,0.1-1.44c-0.06-0.29-0.29-0.66-0.98-1.18c0,0,0.66-0.92,0.69-1.01c0.03-0.1,0.23-0.69,0.26-0.82
		c0.03-0.16,0-0.23-0.1-0.1c-0.1,0.13-1.21,1.67-1.21,1.67c-0.13-0.07-0.56-0.43-0.62-0.49c-0.1-0.1-0.03-0.13-0.03-0.13
		s0.23-0.07,0.26-0.07c0.07,0,0.07-0.1-0.03-0.13c-0.1-0.03-0.88-0.46-0.95-0.52c-0.07-0.03-0.13-0.1-0.16,0.03
		c-0.03,0.13-0.07,0.79-0.07,0.88c0,0.1,0,0.16,0.1,0.2c0.1,0.03,1.02,0.88,1.02,0.88c-0.13,0.2-0.72,1.15-0.79,2.13
		c0,0.23-0.1,1.15,0.79,1.01c0.13-0.03,0.36-0.03,0.65-0.16c-0.26,0.56-1.11,2.68,0.49,3.54c0.29,0.13,1.08,0.29,2.49-1.05
		c0.26-0.23,1.47-1.24,2.46-1.57c0.66-0.23,3.08-0.95,3.24-1.02c0,0,0.49,1.15,1.47,1.41c0.29,0.07,2.03,0.36,3.14-1.18
		c0.16,0.26,0.56,1.11,1.9,1.11c0.33-0.03,1.2-0.02,1.6-1.51c0.15-0.55,0.13-0.93-0.06-2.24l-0.7-5.48c0,0,0.49,0.49,0.59,0.56
		c0.07,0.1,0.2,0.03,0.13-0.1c-0.03-0.13-1.08-2.65-1.11-2.75C117.55,28.97,117.51,28.9,117.48,29z M124.13,29.46
		c0.23,0.23,0.2,0.59,0.2,0.65h-0.03c0,0-0.29-0.13-0.43-0.2c-0.13-0.06-0.2-0.13-0.13-0.23C123.93,29.39,124.03,29.39,124.13,29.46
		z M123.57,29.32c-0.16,0.23-0.26,0.82-0.07,0.98c0.23,0.16,0.56,0.29,0.56,0.29c-1.05,1.28-1.74,1.51-2.36,1.87v-0.03
		c-0.16,0.1-0.13,0.16-0.03,0.16c0.03,0,0.85-0.13,1.83-0.85c0.52-0.39,0.82-1.05,0.82-1.05s0.26,0.23,0.29,0.26
		c0.07,0.1,0.13,0.16,0.16,0.07c0.13-0.39-0.07-0.59-0.23-0.72c0,0,0.2-0.59-0.16-1.18C124.32,29.03,124,28.7,123.57,29.32z
		 M139.18,29.49c0.23,0.23,0.2,0.59,0.2,0.65c0,0-0.29-0.13-0.43-0.2h-0.03c-0.13-0.07-0.2-0.13-0.13-0.23
		C138.98,29.42,139.08,29.42,139.18,29.49z M138.59,29.32h0.03c-0.16,0.23-0.26,0.82-0.07,0.98c0.23,0.16,0.56,0.29,0.56,0.29
		c-1.05,1.28-3.08,2.19-3.57,2.55c-0.13,0.1-0.13,0.16-0.03,0.16c0.07-0.03,1.64-0.46,3.04-1.67c0.65-0.56,0.62-0.59,0.79-0.95
		c0.13,0.07,0.23,0.2,0.29,0.26c0.07,0.1,0.13,0.16,0.16,0.07c0.13-0.39-0.07-0.59-0.23-0.72c0,0,0.2-0.59-0.16-1.18
		C139.34,29.03,139.02,28.7,138.59,29.32z M113.88,29.04c-0.21,0.12-8.04,3.89-8.25,4.04h-0.03c-0.21,0.12-0.29,0.15-0.32,0.32
		c-0.03,0.15-0.06,0.27-0.06,0.29c-0.03,0.12-0.09,0.24,0.24,0.06c0.09-0.06,7.98-3.86,8.16-3.98c0.18-0.12,0.29-0.15,0.35-0.32
		c0.09-0.18,0.09-0.21,0.15-0.32C114.18,29.01,114.2,28.86,113.88,29.04z M106.4,29.09c-0.35,0.47-0.38,1.06-0.44,1.74
		c-0.06-0.15-0.35-1.03-1.27-1.56c-0.06-0.03-0.21,0.03-0.21,0.24c0,0.12-0.03,0.41,0.06,0.5l-0.03,0.03
		c0.09,0.09,0.35,0.27,0.38,0.27c0.03,0.03,0.09,0.03,0.12-0.03c0-0.06,0.06-0.18,0.15-0.09c0.06,0.06,0.53,0.44,0.77,1.24
		c0.03,0.12,0.15,0.12,0.15-0.03c0.06-0.38,0.09-1,0.12-1.21c0.03-0.27,0.18-0.83,0.53-0.53c0.09,0.06,0.18,0.15,0.18,0.15
		c0.06,0.09,0.18,0.21,0.21,0.09c0.06-0.15,0.12-0.44,0.06-0.56C107.13,29.26,106.69,28.7,106.4,29.09z M120.07,29
		c-0.03,0.1-0.29,0.75-0.29,0.75c0,0.03,0.07,0.33,0.1,0.43c0.13,0.95,0.92,6.61,1.15,8.38c0.1,0.88,0.2,1.67,0.2,2.09
		c0,0.13,0.03,0.2,0.1,0.07c0.03-0.07,0.16-0.36,0.2-1.08c0.03-0.56,0-1.41-0.16-2.55c-0.03-0.16-0.85-6.06-0.85-6.06
		s0.43,0.43,0.52,0.49c0.07,0.07,0.16,0.03,0.13-0.1c-0.03-0.13-0.95-2.29-0.98-2.39C120.14,28.97,120.1,28.9,120.07,29z"/>
	<path fill-rule="evenodd" clip-rule="evenodd" d="M106.86,106.57c-0.03,0.03-0.06,0.03-0.09,0.09c-0.03,0.06-0.09,0.34-0.16,0.47
		c-0.03,0.06,0.03,0.06,0.09,0.03c0.09-0.03,0.22-0.09,0.31-0.16c0.53-0.22,2.93-1.12,3.59-1.37h0.03c0.03-0.03,0.09-0.03,0.09-0.09
		c0.03-0.09,0.09-0.31,0.12-0.44c0-0.06,0-0.06-0.06-0.06C110.04,105.35,107.52,106.29,106.86,106.57z M155.62,106.28
		c-0.03,0.03-0.06,0.03-0.09,0.09c-0.03,0.09-0.09,0.34-0.16,0.47c0,0.06,0.03,0.06,0.09,0.03c0.09-0.03,0.22-0.09,0.31-0.16
		c0.53-0.22,2.93-1.12,3.59-1.37h0.03c0.03-0.03,0.09-0.03,0.09-0.09c0.03-0.09,0.09-0.31,0.12-0.44c0-0.06,0-0.06-0.06-0.06
		C158.8,105.07,156.27,106,155.62,106.28z M137.6,105.38c-0.03,0.03-0.06,0.03-0.09,0.09c-0.03,0.09-0.09,0.34-0.16,0.47
		c0,0.06,0.03,0.06,0.09,0.03c0.09-0.03,0.22-0.09,0.31-0.16h0.03c0.53-0.22,2.09-0.87,2.74-1.12c0.03-0.03,0.09-0.03,0.09-0.09
		c0.03-0.09,0.09-0.31,0.12-0.44c0-0.06,0-0.06-0.06-0.06C139.94,104.42,138.25,105.1,137.6,105.38z M82.45,105.13
		c-0.03,0.03-0.06,0.03-0.09,0.09c-0.03,0.06-0.09,0.34-0.16,0.47c0,0.06,0.03,0.06,0.09,0.03c0.09-0.03,0.22-0.09,0.31-0.16
		l0.03,0.03c0.5-0.22,2.09-0.87,2.74-1.12c0.03-0.03,0.09-0.03,0.09-0.09c0.03-0.09,0.09-0.31,0.12-0.44c0-0.06,0-0.06-0.06-0.06
		C84.79,104.2,83.11,104.88,82.45,105.13z M157.11,103.39c-0.12,0.19-0.28,0.47-0.37,0.65l0.03,0.03c-0.06,0.06-0.06,0.12,0.03,0.16
		c0.16,0.09,0.44,0.25,0.62,0.34c0.06,0.03,0.12,0.03,0.16-0.03c0.12-0.19,0.28-0.44,0.37-0.62c0.06-0.06,0.06-0.12,0-0.16
		c-0.19-0.13-0.5-0.28-0.69-0.41C157.18,103.32,157.14,103.32,157.11,103.39z M124.97,104.11c-0.03,0.03-0.06,0.03-0.09,0.09
		c-0.03,0.06-0.12,0.31-0.16,0.47c-0.03,0.06,0.03,0.06,0.09,0.03c0.09-0.03,0.22-0.09,0.31-0.12c0.53-0.19,1.59-0.59,2.28-0.84
		c0.03-0.03,0.09-0.03,0.09-0.09c0.03-0.09,0.12-0.31,0.16-0.44c0.03-0.06,0-0.06-0.06-0.06
		C126.85,103.42,125.63,103.86,124.97,104.11z M91.86,102.7c-0.12,0.22-0.28,0.5-0.44,0.72c-0.22-0.16-0.5-0.31-0.69-0.44
		c-0.12-0.06-0.16-0.06-0.22,0.03l-0.03-0.03c-0.12,0.19-0.28,0.44-0.41,0.65c-0.03,0.09-0.03,0.16,0.09,0.22
		c0.19,0.12,0.53,0.31,0.72,0.41c0.06,0.03,0.09,0,0.16-0.06c0.12-0.12,0.25-0.34,0.41-0.62c0.28,0.19,0.53,0.31,0.75,0.44
		c0.06,0.03,0.09,0.03,0.16-0.03c0.12-0.16,0.31-0.47,0.41-0.62c0.06-0.12,0.03-0.16-0.06-0.22c-0.13-0.09-0.5-0.31-0.69-0.44
		C91.93,102.64,91.9,102.64,91.86,102.7z M97.32,101.45c-0.75,0.31-2.43,1-3.09,1.25c-0.03,0.03-0.06,0.03-0.09,0.09
		c-0.03,0.09-0.09,0.34-0.16,0.47c0,0.06,0.03,0.06,0.09,0.03c0.09-0.03,0.22-0.09,0.31-0.16l0.03,0.03
		c0.53-0.22,2.09-0.87,2.74-1.12c0.03-0.03,0.09-0.03,0.09-0.09c0.03-0.09,0.09-0.31,0.12-0.44
		C97.41,101.45,97.38,101.45,97.32,101.45z M84.76,99.93c0.16,0.16,0.19,0.5,0.56,1.15c-0.66-0.16-0.94-0.25-1.19-0.44
		c-0.06-0.06-0.09-0.09-0.06-0.16l0.03,0.03c0.09-0.19,0.34-0.62,0.56-0.62C84.69,99.9,84.73,99.9,84.76,99.93z M92.8,99.37
		c-0.03,0.09,0.06,0.22,0.19,0.09c0.87-0.65,2.53-0.16,3.93,0.31c-1.43,0.5-3.4,1.56-4.36,0.69c0.03-0.09,0.06-0.56-0.03-0.59
		c-0.06-0.03-0.19,0.22-0.37,0.37c-0.53,0.44-1.25,0.65-2.15,0.87c-1.65,0.22-3.37,0.37-4.58-1.28c-0.22-0.25-0.31-0.53-0.62-0.53
		c-0.31,0-0.84,0.47-1.03,1.06c-0.16,0.5-0.16,1.15,0.16,1.37c-0.97,1.03-1.71,1.43-3.34,2.37c-0.25,0.12-0.16,0.25,0.06,0.22
		c0.62-0.09,3.18-0.97,3.58-2.43c0.59,0.19,0.84,0.28,1.68,0.47c0.09,0.03,0.09,0.03,0.28-0.56c1.81,0.84,4.8,0.41,6.17-0.87
		c0.44,0.44,0.78,0.78,1.25,0.75c1.19-0.09,2.43-0.78,3.46-1.22c0.87-0.37,1.53-0.47,2.65-0.16c0.03,0,0.06,0,0.06-0.03
		c0.19-0.34,0.28-0.5,0.53-0.93c0.03-0.06,0.03-0.09-0.06-0.09c-1.03,0-1.81,0.06-2.68-0.16c-2.09-0.41-2.4-1.03-3.21-1.03v-0.03
		C93.49,98.03,92.93,98.87,92.8,99.37z M139.03,101.7c-0.72-0.12-1.03-0.25-1.28-0.41c-0.09-0.06-0.12-0.06-0.09-0.12
		c0.09-0.22,0.41-0.69,0.59-0.65C138.44,100.52,138.63,101.05,139.03,101.7z M156.27,98.68c0.47,0.65,0.9,1.37,1.25,2.37
		c0.16,0.41-1.37,0.06-1.75-0.06c0.06-0.22,0.06-0.44,0.06-0.56c-0.03-0.16-0.12-0.09-0.16,0.03c-0.25,0.72-0.44,1.22-0.62,1.28
		c-0.09,0.03-0.65-0.19-0.94-0.34c0.06-0.22,0.19-0.53,0.25-0.75c0.03-0.19-0.06-0.31-0.12-0.19c-0.78,1.25-1.93,1.71-3.15,1
		c0.09-0.19,0.19-0.44,0.25-0.65c0.03-0.19-0.06-0.28-0.25-0.12c-0.69,0.62-3.02,1.28-5.8,1.4c-1.96,0.09-4.24-0.12-5.64-0.9
		c-0.39-0.21-0.63-0.48-0.89-0.8l-0.17-0.2l-0.06-0.07c-0.17-0.17-0.25-0.12-0.5,0.04c-0.72,0.53-1.06,1.62-0.56,2.21
		c-0.62,0.97-2.49,1.84-3.65,2.4c-0.16,0.06-0.12,0.28,0.09,0.22c2.12-0.41,3.21-0.9,3.9-2.49c0.53,0.19,1.09,0.28,1.84,0.47
		c0.09,0,0.09,0,0.25-0.5c3.49,1.31,8.6,0.47,10.94-0.72c0.56,1.59,2.15,0.94,2.68,0.41c0.44,0.34,1.15,0.65,1.34,0.59
		c0.16-0.06,0.47-0.47,0.72-1c0.37,0.28,1.43,0.75,1.81,0.53c0.19-0.09,0.28-0.34,0.34-0.62c0.44-1.78-0.53-2.96-1.28-4.05
		C156.4,97.59,156.27,98.65,156.27,98.68z M107.49,97.31l0.03,0.03c-0.12,0.19-0.28,0.47-0.37,0.65c-0.06,0.06-0.06,0.12,0.03,0.16
		c0.16,0.09,0.44,0.25,0.62,0.34c0.06,0.03,0.12,0.03,0.16-0.03c0.12-0.19,0.28-0.44,0.38-0.62c0.06-0.06,0.06-0.12,0-0.16
		c-0.19-0.12-0.5-0.28-0.69-0.4C107.55,97.24,107.52,97.24,107.49,97.31z M112.75,101.17c-0.44-0.03-0.97-0.19-1.31-0.41
		c-0.06-0.03-0.06-0.06-0.03-0.09c0.12-0.22,0.31-0.31,0.47-0.31C112.29,100.36,112.72,100.83,112.75,101.17z M111.76,98.37
		c-0.03,0.16,0,0.22,0.16,0.12c0.59-0.28,1.25-0.72,3.12,0.37c-1.09,0.03-1.81,0.16-2.74,0.5c-1.34,0.53-1.09,1.87-2.59,1.53
		c-0.34-0.09-0.37-0.25-0.56-0.53c-0.12-0.19-0.16-0.28-0.25-0.44c-0.09-0.12-0.09-0.16-0.16,0.03c-0.06,0.28-0.12,0.47-0.19,0.75
		c-0.03,0.09,0,0.09,0.06,0.22c0.22,0.34,0.41,0.75,0.5,1.31c0.03,0.16,0.03,0.19,0,0.22c-1.47,2.31-6.64,3.62-9.57,3.8
		c-2.9,0.19-5.8-0.09-8.57-0.93c-1.81-0.56-3.33-1.4-4.43-2.12c-0.22-0.19-0.34-0.22-0.38-0.16c-0.06,0.09,0.16,0.37,0.22,0.44
		c1.37,1.65,3.02,2.49,4.8,2.96c2.87,0.9,6.52,1.15,9.95,0.62c2.84-0.41,8.73-2.15,8.39-5.36c0.53,0.31,1.15-0.16,1.43-0.5
		c0.06,0.53,0.47,0.75,0.9,0.87c0.37,0.12,0.81,0.12,1.09-0.06c0.31-0.25,0.34-0.62,0.34-0.97c-0.03-0.41-0.16-0.94-0.56-1.18
		c0.69-0.19,3.37-0.81,4.86-0.22c0.06,0.03,0.06,0,0.09-0.03c0.19-0.28,0.37-0.44,0.56-0.75c0.06-0.09,0.06-0.09-0.06-0.12
		c-1.06-0.09-1.78-0.28-2.37-0.5c-1.68-0.59-1.81-1.15-2.49-1.15v-0.03C112.69,97.06,112.13,97.4,111.76,98.37z M127.66,100.71
		c-0.34,0.22-1.5,0.22-2.03,0.09c-0.03,0-0.03,0-0.03-0.03c0.41-0.59,0.97-0.78,2.09-1.15C127.69,99.98,127.69,100.37,127.66,100.71
		z M132.21,97.12c-0.09,0.31-0.12,0.59-0.16,0.87v0.12l0.06-0.03c0.22,1.22,0.62,1.68,1.09,2.74c0.12,0.31-0.16,0.5-0.56,0.41
		c-0.59-0.22-1.34-0.59-1.56-1.78c-0.16-0.78-0.19-1.28-0.34-2.12c-0.03-0.28-0.06-0.31-0.16-0.06c-0.09,0.22-0.12,0.37-0.22,0.72
		v0.12c0.09,0.62,0.22,1.65,0.41,2.43c-0.28,0.69-1.59,1.75-2.4,0.9c-0.44-0.5-0.34-1.75-0.31-3.37c0-0.12-0.03-0.22-0.09-0.06
		c-0.09,0.16-0.09,0.25-0.19,0.44c-0.03,0.03-0.03,0.06-0.03,0.09c-0.03,0.16-0.06,0.22-0.06,0.37c-1.03,0.37-1.46,0.53-1.87,0.97
		c-0.4,0.44-0.56,1-0.81,1.65c-0.06,0.19,0,0.25,0.16,0.28c1.62,0.09,1.62,0.06,2.53-0.65c0.03,1.28,0.59,1.68,1.25,1.68
		c0.75,0,1.62-0.65,2-1.68c0.34,0.62,1.28,1.25,1.75,1.25c0.25,0,0.44-0.09,0.56-0.25c0.22-0.37,0.31-0.81,0.31-1.22
		c0.03-0.78-0.37-1.09-0.75-2.24c-0.16-0.47-0.28-0.97-0.4-1.53C132.36,97.06,132.27,96.87,132.21,97.12z M151.91,96.62
		c-0.03,0.06-0.06,0.16-0.09,0.22c-0.03,0.09,0.03,0.19,0.09,0.09c0.06-0.12,0.16-0.22,0.25-0.28c0.25-0.16,0.5-0.22,0.78-0.19
		c0.25,0.03,0.72,0.19,0.72,0.22c0,0.03-1.09,0.59-1.25,0.69c-0.09,0.06-0.19,0.12-0.16,0.22c0.03,0.09,0.12,0.09,0.22,0.06
		c0.41-0.16,0.56-0.12,0.9-0.28l-0.03-0.03c0.47-0.19,0.59-0.44,0.69-0.47c0.03,0,0.09,0,0.12-0.03c0.12-0.13,0.25-0.44,0.25-0.56
		c0-0.06-0.31-0.09-0.41-0.12c-0.28-0.06-0.59-0.22-0.9-0.25C152.62,95.87,152.16,96.09,151.91,96.62z M109.29,95.66
		c-0.06,0.12-0.19,0.44-0.19,0.53c0,0.03,0.12,0.19,0.28,0.41c0.47,0.69,0.75,1.43,0.59,2.46c-0.03,0.06-0.03,0.16,0,0.16
		c0.22,0,0.34-0.78,0.34-1.18c0-0.97-0.4-1.75-0.9-2.37C109.39,95.59,109.32,95.59,109.29,95.66z M101.08,94.82l-0.18,0.35
		c-0.02,0.04-0.04,0.07-0.02,0.11c0.05,0.14,0.1,0.3,0.09,0.39c-0.22,0.21-0.45,0.24-0.62,0.1c-0.11-0.09-0.15-0.26-0.14-0.48
		c0.01-0.16,0.03-0.22-0.11-0.11c-0.18,0.15-0.13,0.13-0.14,0.22c-0.06,0.52-0.29,0.76-0.69,0.78c-0.25,0.02-0.44-0.16-0.26-0.66
		c0.04-0.11-0.04-0.22-0.15,0c-0.38,0.75-0.15,1.18,0.24,1.23c0.32,0.05,0.69-0.13,0.88-0.61c0.15,0.24,0.44,0.31,0.71,0.24
		c0.34-0.09,0.42-0.25,0.51-0.52c0.09-0.27,0.1-0.62-0.03-1.05C101.14,94.75,101.1,94.78,101.08,94.82z M118.85,94.55l-0.19,0.35
		c-0.02,0.04-0.04,0.07-0.02,0.11c0.05,0.14,0.1,0.3,0.09,0.39c-0.22,0.21-0.45,0.24-0.62,0.1c-0.11-0.09-0.15-0.26-0.14-0.48
		c0.01-0.16,0.03-0.22-0.11-0.11c-0.18,0.15-0.13,0.13-0.14,0.22c-0.06,0.52-0.29,0.76-0.69,0.78c-0.25,0.02-0.44-0.16-0.26-0.66
		c0.04-0.11-0.04-0.22-0.15,0c-0.38,0.75-0.15,1.18,0.24,1.23c0.31,0.05,0.69-0.13,0.88-0.61c0.15,0.24,0.44,0.31,0.71,0.24
		c0.34-0.09,0.42-0.25,0.51-0.52c0.09-0.27,0.1-0.62-0.03-1.05C118.9,94.47,118.86,94.51,118.85,94.55z M112.22,94.94
		c-0.03,0.06-0.06,0.16-0.09,0.22c-0.03,0.09,0.03,0.19,0.09,0.09c0.06-0.12,0.16-0.22,0.25-0.28c0.25-0.16,0.5-0.22,0.78-0.19
		c0.25,0.03,0.72,0.19,0.72,0.22c0,0.03-1.09,0.59-1.25,0.69c-0.09,0.06-0.19,0.12-0.16,0.22c0.03,0.09,0.12,0.09,0.22,0.06
		c0.4-0.16,0.56-0.12,0.9-0.28l-0.03-0.03c0.47-0.19,0.59-0.44,0.69-0.47c0.03,0,0.09,0,0.12-0.03c0.12-0.12,0.25-0.44,0.25-0.56
		c0-0.06-0.31-0.09-0.41-0.12c-0.28-0.06-0.59-0.22-0.9-0.25C112.94,94.19,112.47,94.41,112.22,94.94z M131.16,93.96l-0.18,0.35
		c-0.02,0.04-0.04,0.07-0.02,0.11c0.05,0.14,0.1,0.3,0.09,0.39c-0.22,0.21-0.45,0.24-0.62,0.1c-0.11-0.09-0.15-0.26-0.14-0.48
		c0.01-0.16,0.03-0.22-0.11-0.11c-0.18,0.15-0.13,0.13-0.14,0.22c-0.06,0.52-0.29,0.76-0.69,0.78c-0.25,0.02-0.44-0.16-0.26-0.66
		c0.04-0.11-0.04-0.22-0.15,0c-0.38,0.75-0.15,1.18,0.24,1.23c0.32,0.05,0.69-0.13,0.88-0.61c0.15,0.24,0.44,0.31,0.71,0.24
		c0.34-0.09,0.42-0.25,0.51-0.53c0.09-0.27,0.1-0.62-0.03-1.05C131.21,93.89,131.17,93.92,131.16,93.96z M133.99,92.73
		c-0.03,0-0.06,0.06-0.06,0.16l-0.16,0.87c-0.03,0.25-0.03,0.28,0,0.47c0.09,0.56,0.25,1.15,0.37,1.71c0.25,1.25,0.5,2.46,0.72,3.62
		c0.19,0.93,0.31,1.9,0.38,2.74c0,0.16,0.09,0.16,0.12,0c0.12-0.47,0.19-0.97,0.16-1.5c0-0.5-0.19-1.53-0.34-2.34
		c-0.19-1.03-0.44-2.12-0.62-3.06c-0.19-0.87-0.37-1.75-0.47-2.59c0-0.09-0.06-0.12-0.09-0.12V92.73z M120.17,92.57
		c-0.16,0.25-0.5,0.69-0.47,0.78l-0.06-0.06c0.06,0.28,0.09,0.37,0.31,0.75c0.34,2.28,0.62,3.49,1.19,6.3
		c-0.81,0.47-1.59,0.47-1.96,0.12c-0.09-0.12-0.16-0.06-0.19,0.09c-0.19,0.56,0.03,1.03,0.37,1.15c-0.44,0.87-1.09,1.65-1.81,2.03
		c-0.9,0.53-2.46,0.59-3.93-0.06c-0.16-0.06-0.25,0.16-0.06,0.25c1.09,0.69,2.96,1.19,4.15,0.75c1.18-0.44,1.9-2,2.06-2.87
		c0.34-0.03,1.15-0.09,1.43-0.5c0.37-0.47,0.37-1.53,0.16-2.65c-0.31-1.47-0.62-3.18-0.81-4.24c0.25-0.25,0.59-0.5,0.53-0.56
		c-0.12-0.19-0.56-0.53-0.72-1.25C120.33,92.41,120.2,92.48,120.17,92.57z M97.47,93.85c-0.03,0.03-0.06,0.03-0.09,0.09
		c-0.03,0.09-0.09,0.34-0.16,0.47c0,0.06,0.03,0.06,0.09,0.03c0.09-0.03,0.22-0.09,0.31-0.16c0.5-0.22,2.93-1.12,3.58-1.4l0.03,0.03
		c0.03-0.03,0.09-0.03,0.09-0.09c0.03-0.09,0.09-0.31,0.12-0.44c0-0.06-0.03-0.06-0.06-0.06C100.65,92.64,98.13,93.57,97.47,93.85z
		 M109.01,93.79c-0.03,0.03-0.06,0.03-0.09,0.09c-0.03,0.06-0.09,0.34-0.16,0.47c0,0.06,0.03,0.06,0.09,0.03
		c0.09-0.03,0.22-0.09,0.31-0.16c0.53-0.22,2.93-1.12,3.58-1.37h0.03c0.03-0.03,0.09-0.03,0.09-0.09c0.03-0.09,0.09-0.31,0.12-0.44
		c0-0.06,0-0.06-0.06-0.06C112.19,92.57,109.67,93.5,109.01,93.79z M122.42,92.26l-0.12,0.87c-0.03,0.25-0.03,0.28,0,0.47
		c0.09,0.59,0.22,1.15,0.34,1.71c0.25,1.28,0.53,2.46,0.75,3.65c0.19,0.94,0.31,1.9,0.37,2.74c0,0.16,0.09,0.16,0.12,0.03
		c0.12-0.47,0.16-0.97,0.16-1.5c0-0.5-0.19-1.53-0.34-2.34c-0.19-1.03-0.44-2.12-0.62-3.06c-0.19-0.87-0.37-1.75-0.47-2.59
		c0-0.09-0.06-0.12-0.09-0.12l-0.03-0.03C122.45,92.1,122.42,92.16,122.42,92.26z M102.56,91.95c-0.12,0.19-0.34,0.47-0.44,0.62
		c-0.03,0.06-0.03,0.09,0,0.19c0.06,0.16,0.16,0.37,0.31,0.72v0.03c0.19,1.87,0.59,3.27,1.15,6.36c-0.59,0.47-1.65,0.47-1.9,0.19
		c-0.19-0.19-0.25-0.09-0.31,0.25c-0.09,0.62,0.16,0.81,0.41,0.94c-0.97,2.4-3.24,3.09-5.71,2.03c-0.25-0.09-0.34,0.12-0.12,0.25
		c2.87,1.56,5.46,1.15,6.23-2.18c0.34,0,0.87-0.16,1.15-0.31c0.97-0.59,0.5-2.43,0.31-3.46l-0.69-3.65
		c0.16-0.19,0.28-0.34,0.44-0.56c0.06-0.09,0.06-0.09,0-0.19c-0.12-0.22-0.41-0.72-0.66-1.18
		C102.68,91.85,102.68,91.76,102.56,91.95z M104.81,91.82l-0.12,0.87c-0.03,0.25-0.03,0.28,0,0.47c0.09,0.56,0.22,1.15,0.34,1.71
		c0.25,1.28,0.53,2.46,0.75,3.65c0.19,0.93,0.31,1.9,0.37,2.74c0,0.16,0.09,0.16,0.12,0.03c0.12-0.47,0.16-0.97,0.16-1.5
		c0-0.5-0.19-1.53-0.34-2.34c-0.19-1.03-0.44-2.12-0.62-3.06c-0.19-0.87-0.37-1.75-0.47-2.59l-0.03-0.03c0-0.09-0.06-0.12-0.09-0.12
		C104.84,91.67,104.81,91.73,104.81,91.82z M127.59,93.16c-0.03,0.03-0.06,0.03-0.09,0.09c-0.03,0.09-0.09,0.34-0.16,0.47
		c0,0.06,0.03,0.06,0.09,0.03c0.09-0.03,0.22-0.09,0.31-0.16c0.5-0.22,2.93-1.12,3.59-1.37h0.03c0.03-0.03,0.09-0.03,0.09-0.09
		c0.03-0.09,0.09-0.31,0.12-0.44c0-0.06,0-0.06-0.06-0.06C130.77,91.95,128.25,92.88,127.59,93.16z M115.43,92.98
		c-0.06,0-0.06,0.03-0.09,0.09c-0.03,0.06-0.09,0.34-0.12,0.47c-0.03,0.06,0.03,0.06,0.06,0.03c0.09-0.03,0.22-0.12,0.31-0.16h0.03
		c0.53-0.22,2.93-1.12,3.59-1.37c0.03-0.03,0.06-0.03,0.09-0.09c0.03-0.09,0.09-0.31,0.12-0.44c0-0.06,0-0.06-0.06-0.06
		C118.61,91.76,116.09,92.69,115.43,92.98z M135.42,90.67c0.06,0.06,0.12,0.16,0.12,0.25c-0.09,0.22-0.75,0.47-1,0.53
		c-0.03,0.03-0.31,0.06-0.28,0v-0.03c0.12-0.22,0.28-0.5,0.5-0.69C134.98,90.54,135.2,90.48,135.42,90.67z M134.76,90.26
		c-0.28,0.28-0.65,0.84-0.84,1.18c-0.12,0-0.34-0.12-0.47-0.19c-0.16-0.09-0.25,0.06-0.31,0.19c-0.12,0.22-0.25,0.47-0.34,0.72
		l-0.09,0.25c0,0.12,0.03,0.16,0.12,0.06c0.16-0.19,0.31-0.65,0.4-0.59v-0.03c0.59,0.34,1.37,0.22,1.93-0.19
		c0.44-0.31,0.78-0.81,0.66-1.34c-0.03-0.19-0.25-0.37-0.47-0.37C135.14,89.95,134.92,90.11,134.76,90.26z M124.01,90.2
		c0.06,0.06,0.12,0.16,0.12,0.25c-0.09,0.22-0.75,0.47-1,0.53c-0.03,0.03-0.31,0.06-0.28,0l-0.03-0.03c0.16-0.25,0.31-0.5,0.53-0.69
		C123.57,90.08,123.79,90.01,124.01,90.2z M123.35,89.8c-0.28,0.28-0.66,0.84-0.84,1.18c-0.13,0-0.34-0.12-0.47-0.19
		c-0.12-0.09-0.25,0.06-0.31,0.19c-0.12,0.22-0.25,0.47-0.34,0.72l-0.09,0.25c0,0.12,0.03,0.16,0.12,0.06
		c0.16-0.19,0.31-0.65,0.41-0.59v-0.03c0.59,0.34,1.37,0.22,1.93-0.19c0.44-0.31,0.78-0.81,0.66-1.34
		c-0.03-0.19-0.25-0.37-0.47-0.37C123.73,89.48,123.51,89.64,123.35,89.8z M106.24,89.7c0.06,0.06,0.12,0.16,0.12,0.25
		c-0.09,0.22-0.75,0.47-1,0.53c-0.03,0.03-0.31,0.06-0.28,0l-0.03-0.03c0.16-0.25,0.31-0.5,0.53-0.69
		C105.8,89.58,106.02,89.51,106.24,89.7z M105.59,89.3c-0.28,0.28-0.66,0.84-0.84,1.18c-0.09,0-0.34-0.12-0.47-0.19
		c-0.16-0.09-0.25,0.06-0.31,0.19c-0.13,0.22-0.25,0.47-0.34,0.72l-0.09,0.25c0,0.12,0.03,0.16,0.12,0.06
		c0.16-0.19,0.31-0.65,0.4-0.59v-0.03c0.59,0.34,1.37,0.22,1.93-0.19c0.44-0.31,0.78-0.81,0.66-1.34c-0.03-0.19-0.25-0.37-0.47-0.37
		C105.96,88.98,105.74,89.14,105.59,89.3z"/>
	<path fill-rule="evenodd" clip-rule="evenodd" fill="#C0E2CA" d="M212.6,0c-0.56,0-1.03,0.35-1.18,0.8
		c-0.59,0.01-1.15,0.43-1.21,1.04c-0.36-0.07-0.78-0.1-1.23-0.1c-1.76,0-4.09,0.58-5.81,2.38c-0.94-1.38-2.52-1.97-4.12-1.97
		c-1.04,0-2.1,0.24-3.04,0.67c-0.08-1.25-1.12-2.05-1.7-2.49l0,0c-0.1-0.07-0.24-0.07-0.34,0l0,0c-0.58,0.43-1.62,1.24-1.7,2.49
		c-0.93-0.43-1.99-0.67-3.03-0.67c-1.6,0-3.18,0.58-4.12,1.96c-1.72-1.81-4.05-2.38-5.81-2.38c-0.45,0-0.87,0.04-1.23,0.1
		c-0.05-0.62-0.61-1.03-1.2-1.04c-0.15-0.46-0.61-0.8-1.18-0.8h0c-0.56,0-1.03,0.34-1.18,0.8c-0.59,0.01-1.15,0.43-1.2,1.04
		c-0.36-0.07-0.78-0.1-1.23-0.1c-1.76,0-4.09,0.58-5.81,2.38c-0.94-1.38-2.52-1.97-4.12-1.97c-1.04,0-2.1,0.24-3.03,0.67
		c-0.08-1.25-1.11-2.05-1.7-2.49c-0.1-0.07-0.24-0.07-0.34,0l0,0l0,0c-0.58,0.43-1.61,1.24-1.69,2.49
		c-0.93-0.43-1.99-0.67-3.04-0.67c-1.6,0-3.18,0.59-4.12,1.97c-1.72-1.81-4.05-2.38-5.81-2.38c-0.45,0-0.87,0.04-1.23,0.1
		c-0.05-0.62-0.61-1.03-1.21-1.04c-0.15-0.46-0.62-0.8-1.18-0.8c-0.56,0-1.03,0.34-1.18,0.8c-0.59,0.01-1.15,0.43-1.2,1.04
		c-0.36-0.07-0.78-0.11-1.23-0.11c-1.76,0-4.08,0.58-5.81,2.38c-0.93-1.38-2.51-1.97-4.11-1.97c-1.04,0-2.1,0.24-3.03,0.67
		c-0.08-1.25-1.11-2.05-1.7-2.49c-0.1-0.07-0.25-0.07-0.34,0c-0.58,0.43-1.61,1.24-1.69,2.49c-0.93-0.43-1.99-0.67-3.04-0.67
		c-1.6,0-3.18,0.59-4.12,1.97c-1.72-1.81-4.05-2.38-5.81-2.38c-0.45,0-0.86,0.04-1.23,0.1c-0.06-0.62-0.61-1.03-1.21-1.04
		c-0.15-0.46-0.62-0.8-1.18-0.8c-0.56,0-1.03,0.34-1.18,0.8c-0.59,0.01-1.15,0.43-1.2,1.04c-0.36-0.07-0.78-0.1-1.23-0.1
		c-1.76,0-4.08,0.58-5.81,2.38c-0.93-1.38-2.52-1.97-4.12-1.97c-1.04,0-2.1,0.24-3.03,0.67c-0.08-1.25-1.11-2.05-1.69-2.49
		c-0.1-0.07-0.24-0.07-0.34,0l0,0c-0.58,0.43-1.61,1.24-1.69,2.49c-0.93-0.43-1.99-0.67-3.03-0.67c-1.6,0-3.18,0.59-4.12,1.97
		c-1.72-1.81-4.05-2.38-5.81-2.38c-0.45,0-0.87,0.04-1.23,0.1c-0.05-0.62-0.61-1.03-1.21-1.04C66.08,0.35,65.61,0,65.04,0
		c-0.57,0-1.03,0.35-1.18,0.8c-0.59,0.01-1.15,0.43-1.2,1.04c-0.36-0.07-0.78-0.1-1.23-0.1c-1.76,0-4.09,0.58-5.81,2.38
		c-0.93-1.38-2.51-1.97-4.12-1.97c-1.04,0-2.1,0.24-3.04,0.67c-0.08-1.25-1.12-2.05-1.7-2.49c-0.1-0.07-0.25-0.07-0.34,0
		c-0.58,0.43-1.62,1.24-1.7,2.49c-0.93-0.43-1.99-0.67-3.04-0.67c-1.6,0-3.18,0.59-4.12,1.97c-1.72-1.81-4.05-2.38-5.81-2.38
		c-0.45,0-0.87,0.04-1.23,0.1c-0.05-0.62-0.61-1.03-1.21-1.04c-0.15-0.46-0.62-0.8-1.21-0.8h0h0c-0.55,0.01-1,0.35-1.15,0.8
		c-0.59,0.01-1.15,0.43-1.2,1.04c-0.36-0.07-0.78-0.1-1.23-0.1c-1.76,0-4.09,0.58-5.81,2.38c-0.97-1.44-2.62-2.07-4.29-2.06
		c-1.05,0-2.11,0.25-3.04,0.7c-0.81-1.19-2.21-1.75-3.55-1.75c-0.37,0-0.73,0.04-1.08,0.12C6.32,0.77,5.75,0.56,5.15,0.44
		C4.52,0.31,3.84,0.28,3.2,0.28c-0.43,0-0.86,0.02-1.25,0.03c-0.33,0.01-0.63,0.02-0.9,0.02c-0.15,0-0.29,0-0.42-0.01
		C0.56,0.31,0.48,0.34,0.43,0.39C0.37,0.44,0.34,0.5,0.35,0.57v0l0,0C0.36,0.68,0.36,0.8,0.36,0.94c0,0.25-0.01,0.53-0.03,0.83
		C0.32,2.14,0.31,2.53,0.31,2.93c0,0.6,0.04,1.22,0.17,1.79c0.13,0.56,0.36,1.08,0.76,1.48c-0.09,0.32-0.14,0.66-0.14,1
		c0,1.22,0.6,2.51,1.91,3.26c-0.49,0.85-0.77,1.84-0.77,2.81c0,1.53,0.68,3.05,2.26,3.95c-1.98,1.59-2.6,3.74-2.6,5.36
		c0,0.42,0.04,0.81,0.12,1.15c-0.69,0.06-1.13,0.59-1.14,1.12C0.36,24.99,0,25.42,0,25.92c0,0.5,0.36,0.94,0.88,1.07
		c0,0.53,0.44,1.06,1.13,1.12c-0.07,0.34-0.12,0.72-0.12,1.15c0,1.62,0.62,3.77,2.6,5.36c-1.52,0.86-2.15,2.32-2.15,3.79
		c0,0.97,0.27,1.95,0.74,2.81c-0.66,0.04-1.2,0.28-1.64,0.58c-0.47,0.32-0.83,0.72-1.08,1c-0.07,0.08-0.07,0.2,0,0.28
		c0.25,0.28,0.6,0.67,1.08,0.99c0.44,0.3,0.98,0.54,1.64,0.58c-0.47,0.86-0.74,1.85-0.74,2.81c0,1.47,0.63,2.93,2.15,3.79
		c-1.98,1.59-2.6,3.74-2.6,5.36c0,0.42,0.04,0.81,0.11,1.15c-0.69,0.06-1.13,0.59-1.13,1.12C0.36,59.02,0,59.45,0,59.95
		c0,0.5,0.36,0.93,0.87,1.07c0,0.53,0.44,1.06,1.13,1.12c-0.07,0.34-0.12,0.72-0.12,1.15c0,1.62,0.62,3.77,2.61,5.35
		c-1.52,0.87-2.15,2.32-2.15,3.8c0,0.96,0.27,1.95,0.73,2.81c-0.66,0.04-1.2,0.28-1.64,0.58c-0.47,0.32-0.83,0.71-1.08,0.99
		c-0.07,0.08-0.07,0.2,0,0.29c0.25,0.28,0.6,0.67,1.08,0.99c0.44,0.3,0.98,0.54,1.64,0.57c-0.47,0.86-0.74,1.85-0.74,2.81
		c0,1.47,0.63,2.93,2.15,3.8c-1.98,1.59-2.6,3.74-2.6,5.36c0,0.42,0.04,0.81,0.11,1.15c-0.69,0.06-1.13,0.59-1.13,1.12
		C0.36,93.03,0,93.46,0,93.96c0,0.5,0.36,0.94,0.87,1.07c0,0.53,0.44,1.06,1.13,1.12c-0.07,0.34-0.12,0.72-0.12,1.15
		c0,1.62,0.62,3.77,2.61,5.36c-1.52,0.86-2.15,2.32-2.15,3.8c0,0.96,0.27,1.95,0.74,2.81c-0.66,0.04-1.2,0.27-1.64,0.57
		c-0.47,0.32-0.83,0.71-1.08,0.99l-0.01,0.01l-0.04,0.12l0,0.06l0.04,0.1l0.01,0.01c0.25,0.28,0.6,0.67,1.08,0.98
		c0.44,0.29,0.98,0.53,1.64,0.57c-0.47,0.86-0.74,1.85-0.74,2.81c0,1.47,0.63,2.93,2.15,3.8c-1.98,1.59-2.61,3.74-2.61,5.36
		c0,0.42,0.04,0.81,0.11,1.14c-0.69,0.06-1.13,0.59-1.13,1.11C0.36,127.04,0,127.47,0,127.97c0,0.5,0.36,0.94,0.87,1.07
		c0,0.53,0.44,1.07,1.13,1.12c-0.07,0.34-0.12,0.72-0.12,1.15c0,1.62,0.62,3.77,2.6,5.36c-1.52,0.87-2.15,2.32-2.15,3.79
		c0,0.97,0.26,1.95,0.74,2.81c-0.66,0.04-1.2,0.28-1.64,0.57c-0.47,0.32-0.83,0.71-1.08,0.99c-0.08,0.09-0.07,0.2,0,0.28l0,0l0,0
		c0.25,0.28,0.6,0.67,1.08,0.99c0.44,0.3,0.98,0.53,1.64,0.57c-0.47,0.86-0.74,1.84-0.74,2.81c0,1.47,0.63,2.93,2.15,3.8
		c-1.98,1.59-2.61,3.74-2.61,5.36c0,0.42,0.04,0.81,0.11,1.15c-0.69,0.06-1.13,0.59-1.13,1.12C0.36,161.04,0,161.47,0,161.97
		c0,0.5,0.36,0.93,0.87,1.07c0,0.53,0.44,1.06,1.13,1.12c-0.07,0.34-0.12,0.72-0.12,1.15c0,1.62,0.62,3.77,2.6,5.36
		c-1.52,0.86-2.15,2.32-2.15,3.79c0,0.96,0.26,1.95,0.74,2.81c-0.66,0.04-1.2,0.28-1.64,0.58c-0.47,0.32-0.83,0.71-1.08,0.99
		c-0.07,0.09-0.07,0.2,0,0.28l0,0c0.25,0.28,0.6,0.67,1.08,0.99c0.44,0.3,0.98,0.54,1.64,0.57c-0.47,0.86-0.74,1.85-0.74,2.81
		c0,1.47,0.63,2.93,2.15,3.8c-1.98,1.59-2.6,3.74-2.6,5.36c0,0.42,0.04,0.81,0.11,1.15c-0.7,0.06-1.13,0.59-1.13,1.12
		C0.36,195.05,0,195.48,0,195.98c0,0.5,0.36,0.93,0.87,1.07c0,0.53,0.44,1.06,1.13,1.11c-0.07,0.34-0.12,0.72-0.12,1.15
		c0,1.62,0.62,3.77,2.6,5.36c-1.52,0.86-2.15,2.32-2.15,3.79c0,0.96,0.27,1.95,0.73,2.81c-0.66,0.04-1.2,0.28-1.64,0.57
		c-0.47,0.32-0.83,0.71-1.08,0.99c-0.07,0.08-0.07,0.2,0,0.28l0,0c0.25,0.28,0.6,0.67,1.08,0.99c0.44,0.3,0.98,0.54,1.64,0.57
		c-0.47,0.86-0.74,1.85-0.74,2.81c0,1.47,0.63,2.93,2.15,3.8c-1.98,1.59-2.6,3.74-2.6,5.35c0,0.42,0.04,0.81,0.11,1.15
		c-0.69,0.06-1.13,0.59-1.13,1.12C0.36,229.06,0,229.49,0,229.99c0,0.5,0.36,0.93,0.87,1.07c0,0.53,0.44,1.06,1.14,1.12
		c-0.07,0.34-0.12,0.72-0.12,1.15c0,1.62,0.62,3.77,2.6,5.36c-1.52,0.87-2.15,2.32-2.15,3.8c0,0.96,0.26,1.95,0.74,2.81
		c-0.66,0.04-1.2,0.28-1.64,0.57c-0.47,0.32-0.83,0.71-1.08,0.99l0,0l0,0c-0.07,0.09-0.07,0.2,0,0.28l0,0
		c0.25,0.28,0.6,0.67,1.08,0.99c0.44,0.3,0.98,0.54,1.64,0.58c-0.47,0.86-0.74,1.85-0.74,2.81c0,1.47,0.63,2.93,2.15,3.8
		c-1.98,1.59-2.6,3.74-2.6,5.36c0,0.42,0.04,0.81,0.11,1.15c-0.7,0.06-1.13,0.59-1.13,1.12C0.36,263.07,0,263.5,0,264
		c0,0.5,0.36,0.93,0.87,1.06c0,0.53,0.44,1.06,1.13,1.12c-0.07,0.34-0.12,0.72-0.12,1.15c0,1.62,0.62,3.77,2.6,5.36
		c-1.52,0.87-2.15,2.32-2.15,3.8c0,0.96,0.26,1.95,0.73,2.81c-0.66,0.04-1.2,0.28-1.64,0.58c-0.47,0.32-0.83,0.72-1.08,1
		c-0.07,0.08-0.07,0.2,0,0.28c0.25,0.28,0.6,0.67,1.08,0.99c0.44,0.3,0.98,0.54,1.64,0.58c-0.47,0.86-0.74,1.85-0.74,2.81
		c0,1.47,0.63,2.93,2.15,3.79c-1.98,1.59-2.6,3.74-2.6,5.36c0,0.42,0.04,0.81,0.11,1.15c-0.69,0.06-1.13,0.59-1.13,1.12
		C0.36,297.09,0,297.53,0,298.03c0,0.5,0.36,0.93,0.87,1.07c0,0.53,0.44,1.06,1.13,1.11c-0.07,0.34-0.12,0.72-0.12,1.15
		c0,1.62,0.62,3.77,2.6,5.36c-1.58,0.89-2.26,2.42-2.26,3.95c0,0.97,0.27,1.96,0.77,2.81c-1.31,0.75-1.91,2.04-1.91,3.26
		c0,0.34,0.04,0.68,0.13,1c-0.39,0.41-0.62,0.93-0.75,1.49c-0.14,0.58-0.17,1.2-0.17,1.79c0,0.4,0.02,0.8,0.03,1.16
		c0.01,0.31,0.02,0.59,0.02,0.83c0,0.14,0,0.27-0.01,0.38c-0.01,0.07,0.02,0.14,0.08,0.18l0,0l0.06,0.04
		c0.05,0.02,0.1,0.03,0.15,0.03h0h0c0.12-0.01,0.26-0.01,0.41-0.01c0.26,0,0.57,0.01,0.9,0.02c0.39,0.01,0.81,0.03,1.25,0.03
		c0.65,0,1.32-0.03,1.95-0.16c0.61-0.12,1.17-0.33,1.62-0.7c0.35,0.08,0.71,0.12,1.08,0.12c1.34,0,2.73-0.56,3.55-1.75
		c0.92,0.45,1.99,0.7,3.04,0.7c1.67,0,3.32-0.63,4.29-2.06c1.72,1.81,4.05,2.38,5.81,2.38c0.45,0,0.87-0.04,1.23-0.1
		c0.05,0.61,0.61,1.03,1.2,1.04c0.15,0.46,0.61,0.8,1.18,0.8h0c0.56,0,1.03-0.34,1.18-0.8c0.6-0.01,1.15-0.43,1.21-1.04
		c0.36,0.07,0.78,0.1,1.23,0.1c1.76,0,4.09-0.58,5.81-2.38c0.94,1.38,2.52,1.97,4.12,1.96c1.04,0,2.1-0.24,3.04-0.67
		c0.08,1.25,1.12,2.05,1.7,2.49c0.1,0.07,0.24,0.08,0.34,0c0.58-0.44,1.62-1.24,1.7-2.49c0.93,0.42,1.99,0.67,3.04,0.67
		c1.6,0,3.18-0.58,4.12-1.97c1.72,1.81,4.05,2.38,5.81,2.38c0.45,0,0.87-0.04,1.23-0.1c0.05,0.61,0.6,1.03,1.2,1.04
		c0.15,0.46,0.62,0.8,1.18,0.8c0.57,0,1.03-0.34,1.18-0.8c0.59-0.01,1.15-0.43,1.21-1.04c0.36,0.07,0.78,0.1,1.23,0.1
		c1.76,0,4.09-0.58,5.81-2.38c0.94,1.38,2.52,1.97,4.12,1.97c1.05,0,2.11-0.24,3.04-0.67c0.08,1.25,1.11,2.05,1.69,2.49l0,0l0,0
		c0.1,0.07,0.24,0.07,0.34,0l0,0c0.58-0.44,1.61-1.24,1.69-2.49c0.93,0.42,1.99,0.67,3.03,0.67c1.6,0,3.18-0.58,4.12-1.97
		c1.72,1.81,4.05,2.38,5.81,2.38c0.45,0,0.87-0.04,1.23-0.1c0.05,0.61,0.61,1.03,1.2,1.04c0.15,0.46,0.61,0.8,1.18,0.8
		c0.57,0,1.04-0.34,1.18-0.8c0.59-0.01,1.15-0.43,1.2-1.04c0.36,0.07,0.78,0.1,1.23,0.1c1.76,0,4.08-0.58,5.8-2.38
		c0.94,1.38,2.52,1.97,4.12,1.96c1.04,0,2.1-0.24,3.04-0.67c0.08,1.25,1.11,2.05,1.69,2.49c0.1,0.08,0.25,0.08,0.34,0
		c0.58-0.44,1.61-1.24,1.7-2.49c0.93,0.43,1.99,0.67,3.03,0.67c1.6,0,3.18-0.58,4.11-1.97c1.72,1.8,4.05,2.38,5.81,2.38
		c0.45,0,0.87-0.04,1.23-0.1c0.05,0.61,0.61,1.03,1.2,1.04c0.15,0.46,0.61,0.8,1.18,0.8c0.56,0,1.03-0.34,1.18-0.81
		c0.6-0.01,1.15-0.43,1.2-1.04c0.36,0.07,0.78,0.1,1.23,0.1c1.76,0,4.08-0.58,5.81-2.38c0.94,1.38,2.52,1.97,4.12,1.97
		c1.04,0,2.1-0.24,3.04-0.67c0.08,1.25,1.11,2.05,1.7,2.49c0.1,0.07,0.24,0.07,0.34,0c0.58-0.44,1.61-1.24,1.7-2.49
		c0.93,0.43,1.99,0.67,3.03,0.67c1.6,0,3.18-0.58,4.12-1.97c1.72,1.81,4.05,2.38,5.81,2.38c0.45,0,0.87-0.04,1.23-0.1
		c0.06,0.61,0.61,1.03,1.2,1.04c0.15,0.46,0.62,0.8,1.19,0.8c0.57,0,1.03-0.34,1.18-0.8c0.59-0.01,1.15-0.43,1.2-1.04
		c0.36,0.07,0.78,0.1,1.23,0.1c1.76,0,4.09-0.58,5.81-2.38c0.94,1.38,2.51,1.97,4.12,1.96c1.04,0,2.1-0.24,3.04-0.67
		c0.08,1.25,1.12,2.05,1.7,2.49c0.1,0.07,0.25,0.08,0.35,0c0.58-0.44,1.62-1.24,1.71-2.49c0.93,0.43,1.99,0.67,3.03,0.67
		c1.6,0,3.18-0.58,4.12-1.97c1.72,1.81,4.05,2.38,5.81,2.38c0.45,0,0.87-0.04,1.23-0.1c0.05,0.61,0.61,1.03,1.2,1.04
		c0.15,0.46,0.62,0.8,1.18,0.8h0c0.57,0,1.03-0.34,1.18-0.8c0.59-0.01,1.15-0.43,1.2-1.04c0.36,0.07,0.78,0.1,1.23,0.1
		c1.76,0,4.09-0.58,5.81-2.38c0.97,1.43,2.62,2.07,4.29,2.07c1.05,0,2.11-0.25,3.04-0.7c0.81,1.19,2.21,1.75,3.55,1.75
		c0.37,0,0.73-0.04,1.08-0.12c0.45,0.36,1.01,0.57,1.62,0.69c0.63,0.13,1.31,0.16,1.95,0.16c0.43,0,0.86-0.01,1.25-0.03
		c0.33-0.01,0.64-0.02,0.9-0.02c0.15,0,0.29,0,0.41,0.01h0c0.08,0,0.15-0.02,0.21-0.06l0,0l0,0c0.05-0.05,0.08-0.11,0.08-0.18
		c-0.01-0.12-0.01-0.25-0.01-0.39c0-0.24,0.01-0.52,0.02-0.83c0.02-0.36,0.03-0.75,0.03-1.15c0-0.6-0.04-1.22-0.17-1.79
		c-0.13-0.56-0.36-1.08-0.76-1.49c0.09-0.33,0.14-0.66,0.14-1c0-1.22-0.6-2.51-1.91-3.26c0.5-0.85,0.77-1.84,0.77-2.81
		c0-1.53-0.68-3.05-2.26-3.95c1.98-1.59,2.61-3.74,2.61-5.36c0-0.42-0.04-0.81-0.12-1.15c0.7-0.05,1.14-0.59,1.14-1.12
		c0.51-0.14,0.87-0.57,0.87-1.07c0-0.5-0.36-0.93-0.87-1.07c0-0.53-0.44-1.06-1.13-1.12c0.07-0.34,0.12-0.72,0.12-1.14
		c0-1.62-0.63-3.77-2.61-5.36c1.52-0.87,2.16-2.32,2.15-3.79c0-0.96-0.27-1.95-0.74-2.81c0.66-0.04,1.2-0.28,1.64-0.58
		c0.47-0.32,0.83-0.72,1.08-1c0.07-0.08,0.07-0.2,0-0.28c-0.25-0.28-0.6-0.67-1.08-1c-0.44-0.3-0.98-0.54-1.64-0.58
		c0.47-0.86,0.74-1.85,0.74-2.81c0-1.47-0.63-2.93-2.15-3.8c1.98-1.59,2.6-3.74,2.6-5.36c0-0.42-0.04-0.81-0.12-1.15
		c0.7-0.05,1.14-0.59,1.14-1.12c0.51-0.13,0.87-0.57,0.87-1.07c0-0.5-0.36-0.93-0.87-1.07c0-0.53-0.44-1.06-1.13-1.12
		c0.07-0.34,0.12-0.72,0.12-1.15c0-1.62-0.63-3.77-2.61-5.36c1.52-0.87,2.15-2.32,2.15-3.8c0-0.97-0.27-1.95-0.74-2.81
		c0.66-0.04,1.2-0.28,1.64-0.57c0.47-0.32,0.83-0.71,1.07-0.99c0.08-0.08,0.08-0.2,0-0.29c-0.25-0.28-0.6-0.67-1.08-0.99
		c-0.44-0.3-0.98-0.54-1.64-0.57c0.47-0.86,0.74-1.85,0.74-2.81c0-1.47-0.63-2.93-2.15-3.79c1.98-1.59,2.61-3.74,2.61-5.36
		c0-0.42-0.04-0.81-0.12-1.15c0.7-0.05,1.14-0.59,1.14-1.12c0.51-0.14,0.87-0.57,0.87-1.07c0-0.5-0.36-0.93-0.87-1.07
		c0-0.53-0.44-1.06-1.14-1.12c0.07-0.34,0.12-0.72,0.12-1.15c0-1.62-0.63-3.77-2.61-5.36c1.52-0.87,2.15-2.32,2.15-3.8
		c0-0.96-0.27-1.95-0.74-2.81c0.66-0.04,1.2-0.28,1.64-0.57c0.47-0.32,0.83-0.71,1.08-0.99v0c0.07-0.08,0.08-0.2,0-0.28
		c-0.25-0.28-0.6-0.67-1.07-0.99c-0.44-0.3-0.98-0.54-1.64-0.57c0.47-0.86,0.74-1.85,0.74-2.81c0-1.47-0.63-2.93-2.15-3.79
		c1.98-1.59,2.61-3.74,2.61-5.36c0-0.42-0.04-0.81-0.12-1.15c0.7-0.05,1.13-0.59,1.14-1.11c0.51-0.14,0.87-0.57,0.87-1.07
		c0-0.5-0.36-0.93-0.87-1.07c0-0.53-0.44-1.06-1.14-1.12c0.07-0.34,0.12-0.72,0.12-1.15c0-1.62-0.62-3.77-2.61-5.36
		c1.52-0.87,2.15-2.32,2.15-3.8c0-0.96-0.27-1.95-0.74-2.81c0.66-0.04,1.2-0.28,1.64-0.57c0.47-0.32,0.83-0.71,1.08-0.99
		c0.07-0.08,0.07-0.2,0-0.28l0,0c-0.25-0.28-0.6-0.67-1.08-0.99c-0.44-0.3-0.98-0.54-1.64-0.58c0.47-0.86,0.74-1.85,0.74-2.81
		c0-1.47-0.63-2.93-2.15-3.79c1.98-1.59,2.61-3.74,2.61-5.36c0-0.42-0.04-0.81-0.12-1.15c0.7-0.05,1.13-0.59,1.14-1.12
		c0.51-0.14,0.87-0.57,0.87-1.07c0-0.5-0.36-0.93-0.87-1.07c0-0.53-0.44-1.06-1.14-1.12c0.07-0.34,0.12-0.72,0.12-1.15
		c0-1.62-0.63-3.77-2.61-5.36c1.52-0.87,2.16-2.32,2.15-3.8c0-0.96-0.27-1.95-0.74-2.81c0.66-0.04,1.2-0.28,1.64-0.57
		c0.47-0.32,0.83-0.71,1.07-0.99c0.08-0.08,0.08-0.2,0-0.28c-0.25-0.28-0.6-0.67-1.08-0.99c-0.44-0.3-0.98-0.53-1.64-0.57
		c0.47-0.86,0.74-1.84,0.74-2.81c0-1.47-0.63-2.93-2.15-3.8c1.98-1.59,2.61-3.74,2.61-5.36c0-0.42-0.04-0.81-0.12-1.14
		c0.7-0.05,1.13-0.59,1.13-1.12c0.51-0.14,0.87-0.57,0.87-1.07c0-0.5-0.36-0.93-0.87-1.07c0-0.53-0.44-1.06-1.14-1.11
		c0.07-0.34,0.12-0.72,0.12-1.15c0-1.62-0.63-3.77-2.61-5.36c1.52-0.87,2.15-2.32,2.15-3.79c0-0.97-0.27-1.95-0.74-2.81
		c0.66-0.04,1.2-0.28,1.64-0.57c0.47-0.32,0.83-0.71,1.07-0.99c0.07-0.08,0.08-0.2,0-0.28c-0.25-0.28-0.6-0.67-1.08-0.99
		c-0.44-0.3-0.98-0.54-1.64-0.58c0.47-0.86,0.74-1.85,0.74-2.81c0-1.47-0.63-2.93-2.15-3.79c1.98-1.59,2.61-3.74,2.61-5.36
		c0-0.42-0.04-0.81-0.12-1.15c0.7-0.05,1.14-0.59,1.14-1.12c0.51-0.14,0.87-0.57,0.87-1.07c0-0.5-0.36-0.93-0.87-1.07
		c0-0.53-0.44-1.06-1.14-1.12c0.07-0.34,0.12-0.72,0.12-1.14c0-1.62-0.63-3.77-2.61-5.36c1.52-0.87,2.15-2.32,2.15-3.79
		c0-0.97-0.27-1.95-0.74-2.81c0.66-0.04,1.2-0.28,1.64-0.57c0.47-0.32,0.83-0.71,1.08-0.99l0,0l0,0c0.07-0.08,0.07-0.2,0-0.28
		c-0.25-0.28-0.6-0.67-1.08-0.99c-0.44-0.3-0.98-0.54-1.64-0.57c0.47-0.86,0.74-1.85,0.74-2.81c0-1.47-0.63-2.93-2.15-3.8
		c1.98-1.59,2.61-3.74,2.61-5.36c0-0.42-0.04-0.81-0.12-1.15c0.7-0.06,1.14-0.59,1.14-1.12c0.51-0.14,0.87-0.57,0.87-1.07
		c0-0.5-0.36-0.93-0.87-1.07c0-0.53-0.44-1.06-1.14-1.12c0.07-0.34,0.12-0.72,0.12-1.14c0-1.62-0.63-3.77-2.6-5.36
		c1.52-0.87,2.15-2.32,2.15-3.8c0-0.96-0.27-1.95-0.74-2.81c0.66-0.04,1.2-0.28,1.64-0.58c0.47-0.32,0.83-0.72,1.08-1
		c0.07-0.08,0.07-0.2,0-0.28c-0.25-0.28-0.6-0.67-1.07-1c-0.44-0.3-0.98-0.54-1.64-0.58c0.47-0.86,0.74-1.85,0.74-2.81
		c0-1.47-0.63-2.93-2.15-3.79c1.98-1.59,2.61-3.74,2.61-5.36c0-0.42-0.04-0.81-0.12-1.15c0.7-0.05,1.13-0.59,1.14-1.12
		c0.51-0.14,0.87-0.57,0.87-1.07c0-0.5-0.36-0.93-0.87-1.07c0-0.53-0.44-1.06-1.14-1.12c0.07-0.34,0.12-0.72,0.12-1.15
		c0-1.62-0.63-3.77-2.61-5.36c1.58-0.9,2.26-2.42,2.26-3.95c0-0.97-0.27-1.96-0.77-2.81c1.31-0.75,1.91-2.04,1.91-3.26
		c0-0.34-0.05-0.68-0.14-1c0.4-0.41,0.63-0.93,0.76-1.49c0.14-0.58,0.17-1.2,0.17-1.8c0-0.39-0.02-0.78-0.03-1.13
		c-0.01-0.31-0.02-0.6-0.02-0.85c0-0.14,0-0.27,0.01-0.39c0.01-0.07-0.02-0.14-0.08-0.18c-0.05-0.05-0.13-0.07-0.21-0.07
		c-0.12,0.01-0.26,0.01-0.42,0.01c-0.26,0-0.57-0.01-0.9-0.02c-0.39-0.01-0.81-0.03-1.25-0.03c-0.65,0-1.32,0.03-1.95,0.16
		c-0.61,0.12-1.17,0.33-1.62,0.69c-0.35-0.08-0.71-0.12-1.08-0.12c-1.34,0-2.73,0.56-3.55,1.75c-0.92-0.45-1.99-0.7-3.04-0.7
		c-1.67,0-3.32,0.63-4.29,2.07c-1.72-1.81-4.05-2.38-5.81-2.38c-0.45,0-0.87,0.04-1.23,0.1c-0.05-0.61-0.61-1.03-1.2-1.04
		c-0.13-0.4-0.5-0.71-0.97-0.78L212.64,0l-0.01,0h0L212.6,0L212.6,0z M225.37,309.89H15.37V14.06h210.01V309.89z"/>
</g>
</svg>
