<?xml version="1.0" encoding="iso-8859-1"?>
<!-- Generator: Adobe Illustrator 25.2.1, SVG Export Plug-In . SVG Version: 6.00 Build 0)  -->
<svg version="1.1" xmlns="http://www.w3.org/2000/svg" xmlns:xlink="http://www.w3.org/1999/xlink" x="0px" y="0px"
	 viewBox="0 0 293.23 484.99" enable-background="new 0 0 293.23 484.99" xml:space="preserve">
<g id="Ornaments">
</g>
<g id="Header__x26__Marks__x26__Page_No.">
</g>
<g id="Aya_No.">
</g>
<g id="Quran_Text">
	<path fill-rule="evenodd" clip-rule="evenodd" d="M74.49,221.85c-0.35,0.51-0.83,0.73-1.37,0.22c-0.19-0.18-0.18-0.24-0.1-0.44
		c0.18-0.36,0.43-0.52,0.6-0.53C73.86,221.09,74.28,221.55,74.49,221.85z M73.09,220.07c-0.33,0.36-0.61,1.16-0.63,1.91
		c-0.04,0.84,0.41,1.68,1.21,1.7c0.49,0.01,0.94-0.44,1.2-1.08c0.17,1.03-0.69,2.57-1.88,3.53c-1.41,1.07-2.76,1.2-4.73,1.11
		c-0.32-0.04-0.47,0.28-0.09,0.37c1.77,0.4,4.18,0.47,5.44-0.66c1.04-0.93,1.66-2.37,1.76-4c0.05-1.02-0.27-2.19-1.12-2.93
		C73.78,219.64,73.45,219.67,73.09,220.07z M75.61,214.09c-0.93,0.39-3.52,1.42-4.34,1.77c-0.05,0.02-0.08,0.03-0.1,0.1
		c-0.03,0.1-0.13,0.42-0.18,0.59c-0.02,0.07,0.04,0.07,0.1,0.04c0.11-0.05,0.26-0.13,0.38-0.18c0.64-0.27,3.08-1.27,3.91-1.6
		c0.05-0.02,0.1-0.05,0.12-0.11c0.05-0.12,0.13-0.39,0.17-0.55C75.71,214.09,75.67,214.07,75.61,214.09z M71.53,223.86
		c-0.94,0.35-1.99,0.7-2.82,1.02c-0.05,0.02-0.08,0.03-0.11,0.1c-0.04,0.1-0.15,0.41-0.2,0.58c-0.02,0.07,0.04,0.07,0.1,0.05
		c0.11-0.04,0.26-0.12,0.39-0.17c0.65-0.24,1.55-0.56,2.38-0.86c0.05-0.02,0.1-0.04,0.13-0.1c0.05-0.11,0.14-0.38,0.2-0.54
		C71.63,223.86,71.59,223.84,71.53,223.86z M68.43,222.16c-0.09,0.19-0.06,0.39,0.13,0.53c0.14,0.1,0.41,0.28,0.67,0.41
		c-0.11,0.05-0.37,0.15-0.52,0.26c-0.04,0.12-0.09,0.31-0.11,0.44c-0.01,0.04,0.02,0.09,0.07,0.06c0.46-0.27,1.84-0.62,2.43-0.76
		c0.04-0.01,0.23-0.44,0.26-0.5c0.04-0.08,0-0.11-0.06-0.09c-0.34,0.09-0.67,0.15-1.1,0.14c-0.52-0.01-1.31-0.57-1.31-0.68
		c0-0.11,0.62-0.37,0.76-0.36c0.4,0.04,0.46,0.44,0.57,0.44c0.13,0,0.33-0.48,0.33-0.6c0-0.14-0.33-0.5-0.59-0.5
		C69.55,220.94,68.65,221.69,68.43,222.16z M64.14,218.82c-0.04,0.24-0.12,0.97,0,0.98c0.08,0.01,0.42-0.15,0.73,0.01
		c0.71,0.36,1.42,1.65,1.69,2.7c-0.56,0.33-1.94,0.53-2.63,0.54c-0.21,0-0.61-0.04-0.72-0.23c-0.12-0.22-0.19-0.17-0.24,0.04
		c-0.06,0.27-0.11,0.62-0.12,0.85c-0.01,0.36,0.45,0.52,0.73,0.53c0.9,0.01,2.2-0.16,3.01-0.59c0.2-0.11,0.29-0.49,0.31-0.92
		c0.05-1.01-0.12-1.9-0.65-2.75c-0.46-0.75-1.1-1.42-1.75-1.44C64.32,218.54,64.18,218.62,64.14,218.82z M64.05,214.95
		c-0.17,0.28-0.4,0.69-0.53,0.94c-0.05,0.1-0.05,0.18,0.06,0.24c0.22,0.12,0.61,0.33,0.89,0.48c0.12,0.06,0.18,0.05,0.24-0.03
		c0.15-0.25,0.38-0.64,0.52-0.88c0.05-0.09,0.07-0.16-0.02-0.21c-0.26-0.16-0.69-0.42-0.95-0.57
		C64.14,214.85,64.1,214.87,64.05,214.95z M59.96,211.61c-0.04,0.01-0.08,0.07-0.1,0.16l-0.19,0.99c-0.06,0.28-0.04,0.32,0,0.55
		c0.11,0.66,0.27,1.31,0.39,1.95c0.32,1.55,0.77,3.92,1.04,5.35c0.2,1.07,0.34,2.16,0.38,3.12c0.01,0.18,0.11,0.17,0.16,0.03
		c0.17-0.53,0.24-1.09,0.24-1.68c0-0.58-0.19-1.75-0.38-2.68c-0.26-1.29-0.67-3.53-0.91-4.7c-0.21-0.99-0.41-1.99-0.53-2.95
		C60.04,211.64,60,211.6,59.96,211.61z M67.65,210.93c-0.05,0.31-0.1,0.61-0.15,0.92c-0.04,0.28-0.04,0.32,0.01,0.57
		c0.11,0.51,0.23,1.08,0.36,1.62c0.19,0.79,0.35,1.5,0.5,2.24c0.25,1.24,0.52,2.76,0.66,4.01c0.02,0.16,0.13,0.14,0.16,0
		c0.26-1.3,0.08-2.61-0.21-4.03c-0.14-0.73-0.33-1.49-0.48-2.15c-0.24-1.06-0.49-2.15-0.64-3.17c-0.02-0.14-0.08-0.2-0.12-0.19
		C67.7,210.76,67.67,210.83,67.65,210.93z M66.69,210.5c-0.93,0.39-4.1,1.56-4.92,1.91c-0.05,0.02-0.08,0.03-0.1,0.1
		c-0.03,0.1-0.13,0.42-0.18,0.59c-0.02,0.07,0.04,0.07,0.1,0.04c0.11-0.05,0.26-0.13,0.38-0.18c0.64-0.27,3.66-1.41,4.49-1.73
		c0.05-0.02,0.1-0.05,0.12-0.11c0.05-0.12,0.13-0.39,0.17-0.55C66.78,210.5,66.74,210.47,66.69,210.5z M60.54,225.98
		c-0.93,0.39-4.1,1.56-4.92,1.91c-0.05,0.02-0.08,0.03-0.1,0.1c-0.03,0.1-0.13,0.42-0.18,0.59c-0.02,0.07,0.04,0.07,0.1,0.04
		c0.11-0.05,0.26-0.13,0.38-0.18c0.64-0.27,3.66-1.41,4.49-1.73c0.05-0.02,0.1-0.05,0.12-0.11c0.05-0.11,0.13-0.39,0.17-0.55
		C60.64,225.97,60.6,225.95,60.54,225.98z M54.16,225.33c-0.16,0.24-0.35,0.59-0.54,0.88c-0.27-0.18-0.62-0.4-0.86-0.55
		c-0.13-0.08-0.18-0.08-0.26,0.05c-0.14,0.21-0.35,0.54-0.5,0.8c-0.05,0.1-0.04,0.18,0.1,0.26c0.26,0.15,0.66,0.38,0.9,0.51
		c0.08,0.04,0.14,0.02,0.2-0.07c0.13-0.18,0.28-0.45,0.49-0.79c0.36,0.21,0.65,0.4,0.94,0.54c0.08,0.04,0.12,0.03,0.18-0.04
		c0.14-0.18,0.39-0.58,0.5-0.78c0.07-0.14,0.05-0.19-0.07-0.27c-0.19-0.12-0.65-0.41-0.88-0.56
		C54.25,225.24,54.21,225.25,54.16,225.33z M56.9,214.18c-0.16,0.24-0.35,0.59-0.54,0.88c-0.27-0.18-0.62-0.39-0.86-0.55
		c-0.13-0.08-0.18-0.07-0.26,0.05c-0.14,0.21-0.35,0.54-0.5,0.8c-0.05,0.1-0.04,0.18,0.1,0.26c0.26,0.15,0.66,0.38,0.9,0.51
		c0.08,0.04,0.14,0.01,0.2-0.07c0.13-0.18,0.28-0.45,0.49-0.79c0.36,0.21,0.65,0.4,0.94,0.54c0.08,0.04,0.12,0.03,0.18-0.04
		c0.14-0.18,0.4-0.58,0.5-0.78c0.07-0.14,0.05-0.19-0.07-0.27c-0.19-0.12-0.65-0.41-0.88-0.56C56.99,214.1,56.95,214.11,56.9,214.18
		z M57.59,219.57c-0.49,0.47-1.22,0.38-1.69-0.18c0.24-0.5,0.47-0.69,0.7-0.7C56.97,218.67,57.32,219.17,57.59,219.57z
		 M47.21,213.45c-0.12,0.2-0.23,1-0.23,1.57c0.2,1.52,1.09,6.21,1.47,9.23c-0.17,1.21-3.34,3.06-5.23,1.25
		c-0.99-0.99-0.21-2.06,0.03-3.05c0.04-0.2-0.04-0.53-0.26-0.18c-0.51,0.81-0.94,2.73-0.66,3.6c0.65,1.99,3.56,2.38,5.72,0.44
		c0.75-0.66,1.06-1.7,0.83-3.74c0.61,1.26,3.47,2.04,5.85-0.07c0.82,0.57,1.7,1.32,2.57,0.88c1.11-0.6,1.47-2.26,1.28-3.44
		c-0.19-1.33-0.9-2-1.26-2.3c-0.55-0.46-0.91-0.29-1.04-0.18c-1.19,1.03-0.98,2.51-0.8,2.94c0.36,0.86,1.78,1.41,2.45-0.09
		c0.4,0.64-0.1,1.74-0.89,1.99c-0.74,0.25-1.36-0.35-1.94-0.75c-0.23-0.15-0.31-0.16-0.48-0.02c-2.28,1.85-4.52,0.89-5.15,0.14
		c-1.04-1.2-1.44-5.4-2-8.15c-0.02-0.1-0.06-0.17-0.12-0.17C47.31,213.33,47.26,213.37,47.21,213.45z M49.59,210.35
		c-0.93,0.39-3.52,1.42-4.34,1.77c-0.05,0.02-0.08,0.03-0.1,0.1c-0.03,0.1-0.13,0.42-0.18,0.59c-0.02,0.07,0.04,0.07,0.1,0.05
		c0.11-0.05,0.26-0.13,0.38-0.18c0.64-0.27,3.08-1.27,3.91-1.6c0.05-0.02,0.1-0.05,0.12-0.11c0.05-0.12,0.13-0.39,0.17-0.55
		C49.68,210.35,49.64,210.33,49.59,210.35z M28.36,215.38c-0.03,0.08-0.09,0.2-0.12,0.28c-0.04,0.14,0.04,0.24,0.11,0.13
		c0.08-0.13,0.19-0.25,0.32-0.33c0.31-0.19,0.65-0.26,0.99-0.23c0.31,0.03,0.89,0.25,0.89,0.28c0,0.07-1.35,0.73-1.56,0.87
		c-0.09,0.06-0.2,0.16-0.18,0.27c0.02,0.08,0.15,0.1,0.25,0.06c0.53-0.19,0.72-0.18,1.15-0.36c0.58-0.25,0.75-0.55,0.85-0.58
		c0.04-0.01,0.09-0.01,0.14-0.05c0.17-0.15,0.31-0.57,0.32-0.71c-0.02-0.11-0.4-0.15-0.52-0.17c-0.38-0.09-0.75-0.29-1.14-0.32
		C29.24,214.46,28.67,214.74,28.36,215.38z M35.24,213.27c0.1,0.12,0.26,0.37,0.29,0.8c0,0.13-0.02,0.3-0.03,0.31
		c-0.01,0.01-0.24-0.09-0.28-0.11c-0.08-0.04-0.31-0.13-0.71-0.28c-0.16-0.03,0-0.28,0-0.28c0.06-0.11,0.16-0.25,0.27-0.37l0.15-0.1
		C35.02,213.21,35.17,213.17,35.24,213.27z M35.15,212.52c-0.46,0.08-1,0.72-1.23,1.45c-0.1,0.33-0.04,0.52,0.14,0.63
		c0.26,0.16,0.64,0.29,1.09,0.41c-0.52,0.87-2.2,2-2.51,2.18c-0.36,0.21-0.3,0.44,0.15,0.24c1.69-0.76,2.52-1.57,2.9-2.29
		c0.12,0.02,0.22,0.06,0.34,0.09c0.2,0.05,0.16,0.08,0.26-0.24c0.05-0.15,0.09-0.26,0.1-0.33l-0.51-0.17l0.05-0.18
		c0.06-0.58-0.09-1.06-0.14-1.21C35.65,212.63,35.42,212.47,35.15,212.52z M37.95,224.43c-0.61,1.52-2.11,0.25-2.41-0.47
		c0.08-0.01,0.2-0.01,0.34-0.01C36.48,223.95,37.47,224.04,37.95,224.43z M29.45,221.09c0.48,0.19,0.84,1.21,1.05,1.56
		c-0.47,0-1.7-0.14-1.83-1.06c0.08-0.26,0.5-0.51,0.72-0.5C29.41,221.08,29.43,221.08,29.45,221.09z M37.26,219.99
		c-0.22,0.63-1.54,1.53-2.17,1.83c0.34-0.79,0.92-2.42,1.54-2.44C36.83,219.38,37.05,219.55,37.26,219.99z M39.37,212.06
		c-0.26,0.32-0.46,0.76-0.58,1.08c0.02,0.3,0.23,0.73,0.39,1.04c0.29,2.35,0.84,4.52,1.22,6.79c-0.42,0.81-2.94,1.59-4.59,1.57
		c1.54-0.93,1.9-1.99,1.89-2.89c-0.01-0.61-0.13-1.06-0.36-1.32c-0.22-0.26-0.4-0.32-0.63-0.27c-1.02,0.22-1.86,3.02-1.97,3.87
		c-0.94,0.51-2.66,0.4-3.45,0c-0.54-0.26-1.11-1.17-1.47-1.56c-0.26-0.26-0.37-0.24-0.55-0.12c-1.22,0.93-1.35,2.31-0.6,3.03
		c-0.8,1.24-3,2.29-3.86,2.69c-0.19,0.09-0.44,0.4,0.1,0.3c2.21-0.49,3.77-1.3,4.2-2.67c0.3,0.27,1.54,0.45,2.07,0.36
		c0.09-0.06,0.22-0.42,0.23-0.7c0.47,0.23,1.57,0.34,2.5,0.2c-0.05,0.18-0.08,0.3-0.14,0.51c0.28,0.03,0.75,0.01,1.03,0.01
		c0.21,1.03,1.41,2.67,2.55,2.49c0.52-0.09,1.62-1.06,0.79-3.13c1.13-0.23,1.76-0.59,2.22-1.2c0.44-0.59,0.57-1.26,0.54-1.88
		c-0.12-1.9-0.62-3.92-1.04-5.85c0.13-0.21,0.32-0.47,0.43-0.74c-0.25-0.46-0.51-0.72-0.75-1.48
		C39.5,212.01,39.44,211.96,39.37,212.06z M41.51,208.97c-0.93,0.39-3.52,1.42-4.34,1.77c-0.05,0.02-0.08,0.03-0.1,0.1
		c-0.03,0.1-0.13,0.42-0.18,0.59c-0.02,0.07,0.04,0.07,0.1,0.04c0.11-0.05,0.26-0.13,0.39-0.18c0.64-0.27,3.08-1.27,3.91-1.6
		c0.05-0.02,0.1-0.05,0.12-0.11c0.05-0.12,0.13-0.39,0.17-0.55C41.61,208.97,41.57,208.95,41.51,208.97z M267.94,249.29
		c-0.51,0.09-1.08,0.2-1.53,0.25c0.33-0.36,0.79-0.81,0.99-1.11C267.41,248.44,267.81,249.05,267.94,249.29z M267.31,238.55
		c-0.17,0.2-0.47,0.78-0.46,1.16c0,0.08,0.21,0.44,0.48,0.87c-0.08,0.76,1.36,5.14,0.09,6.89c-1.8-2.88-4.33-4.73-6.79-6.09
		c-0.47-0.28-0.06,1.66,0.08,2.12c0.08,0.18,2.17,0.91,2.16,0.46c1.84,1.07,3.07,2.49,4.23,4.03c-0.05,0.08-0.02,0.03-0.26,0.33
		c-0.25,0.3-0.63,0.67-1.37,1.39c-0.33,0.1-0.53,0.15-0.94,0.26c-0.08,0.02-0.2,0.12-0.21,0.27l-0.05,0.62
		c-0.01,0.23,0.03,0.33,0.23,0.3c1.77-0.21,2.75-0.43,3.83-0.65c0.15-0.03,0.17-0.21,0.2-0.4c0.15-0.95-0.38-1.48-0.79-2.22
		c1.19-1.79,0.76-5.37,0.33-7.04c1.05-0.97-0.1-1.16-0.45-2.24C267.53,238.36,267.43,238.41,267.31,238.55z M269.01,235.8
		c-0.93,0.39-4.68,1.66-5.5,2.01c-0.05,0.02-0.08,0.03-0.1,0.1c-0.03,0.1-0.13,0.42-0.18,0.59c-0.02,0.07,0.04,0.07,0.1,0.04
		c0.11-0.05,0.26-0.13,0.38-0.18c0.64-0.27,4.25-1.51,5.07-1.84c0.05-0.02,0.1-0.05,0.12-0.11c0.05-0.11,0.13-0.39,0.17-0.55
		C269.1,235.8,269.07,235.78,269.01,235.8z M248.53,253.02c-0.93,0.39-4.1,1.56-4.92,1.91c-0.05,0.02-0.08,0.03-0.1,0.1
		c-0.03,0.1-0.13,0.42-0.18,0.59c-0.02,0.07,0.04,0.07,0.1,0.04c0.11-0.04,0.26-0.13,0.38-0.18c0.64-0.27,3.66-1.41,4.49-1.73
		c0.05-0.02,0.1-0.05,0.12-0.11c0.05-0.11,0.13-0.39,0.17-0.55C248.62,253.01,248.58,252.99,248.53,253.02z M230.38,246.61
		c-0.35,0.51-0.83,0.73-1.37,0.21c-0.18-0.18-0.18-0.24-0.1-0.44c0.18-0.36,0.42-0.52,0.6-0.53
		C229.75,245.84,230.17,246.31,230.38,246.61z M228.98,244.83c-0.33,0.36-0.61,1.16-0.63,1.91c-0.04,0.84,0.41,1.68,1.21,1.7
		c0.49,0.01,0.94-0.44,1.2-1.08c0.17,1.03-0.69,2.57-1.88,3.53c-1.41,1.07-2.76,1.2-4.73,1.11c-0.32-0.04-0.47,0.28-0.09,0.37
		c1.77,0.41,4.18,0.47,5.44-0.66c1.04-0.93,1.66-2.37,1.76-4c0.05-1.02-0.27-2.19-1.12-2.93
		C229.67,244.39,229.34,244.42,228.98,244.83z M254.09,248.01c-0.99,1.29-1.81,0.72-2.09,0.32
		C253.34,245.84,253.9,247.13,254.09,248.01z M236.2,245.46l0.51,2.29c-0.48,1.11-3.31,2.23-3.87,1.29
		c-0.41-0.74-0.48,1.51,0.29,1.52c1.16,0.08,3.32-0.38,3.76-2.2c0.51,1.11,0.87,4.03,5.7,2.67c0.68-0.02,2.79,0.4,3.98-0.48
		c0.47,0.54,1.3,0.95,1.66,0.45c0.19-0.28,0.05-0.11,0.56-1c0.6,0.41,1.28,1.22,2.83,0.53c1.19-0.5,1.29-0.34,1.65-0.26
		c2.53,0.66,3.96,0.57,4.66-0.64c0.75-1.47,0.25-3.25-0.8-4.17c-0.36-0.29-0.52,1.02-0.33,1.32c0.66,0.65,1,1.57,1,1.88
		c-0.76,1.16-2.78,0.73-3.71,0.5c0.77-0.68,0.55-2.31,0.1-3.11c-0.57-0.98-1.11-0.32-1.61,0.15c-0.74,0.84-1.64,2.43-0.99,3.13
		c-0.9,0.23-1.52,0.27-2.53-0.19c0.09-0.28,0.18-0.6,0.17-0.79c-0.03-0.22-0.18-0.37-0.32-0.06c-0.34,1.01-0.39,1.37-0.84,1.68
		c-0.52-0.04-0.8-0.24-0.95-0.32c0.16-0.34,0.31-0.72,0.39-1c0.07-0.38-0.14-0.69-0.41-0.06c-0.55,1.54-2.05,1.47-3.1,1.59
		c0.4-0.62,0.62-1.07,0.67-1.61c0.01-0.45-0.18-0.41-0.42,0.08c-1.12,1.93-4.79,2.03-5.95,0.7c-1.29-1.51-1.42-4.05-1.84-5.2
		C236.33,243.7,236.08,245.05,236.2,245.46z M251.95,242.5c-0.17,0.28-0.4,0.69-0.53,0.94c-0.05,0.1-0.05,0.18,0.06,0.24
		c0.22,0.12,0.61,0.33,0.89,0.48c0.12,0.06,0.18,0.05,0.24-0.03c0.15-0.25,0.38-0.64,0.52-0.88c0.05-0.09,0.07-0.16-0.02-0.21
		c-0.26-0.16-0.69-0.42-0.95-0.57C252.05,242.4,252,242.41,251.95,242.5z M256.93,241.55c-0.16,0.24-0.35,0.59-0.54,0.88
		c-0.27-0.18-0.62-0.4-0.86-0.55c-0.13-0.08-0.18-0.07-0.26,0.05c-0.14,0.21-0.35,0.54-0.5,0.8c-0.05,0.1-0.04,0.18,0.1,0.26
		c0.26,0.15,0.66,0.38,0.91,0.51c0.08,0.04,0.14,0.02,0.2-0.07c0.13-0.18,0.28-0.45,0.49-0.79c0.36,0.21,0.65,0.4,0.94,0.54
		c0.08,0.04,0.12,0.03,0.18-0.04c0.14-0.18,0.39-0.58,0.5-0.78c0.07-0.14,0.05-0.19-0.06-0.27c-0.19-0.12-0.65-0.41-0.88-0.56
		C257.03,241.46,256.98,241.47,256.93,241.55z M224.64,238.63l-0.16,1.01c-0.04,0.29-0.03,0.32,0.01,0.56
		c0.12,0.67,0.27,1.33,0.4,1.98c0.3,1.46,0.6,2.86,0.86,4.21c0.21,1.08,0.35,2.19,0.42,3.17c0.01,0.19,0.11,0.17,0.15,0.03
		c0.15-0.55,0.2-1.12,0.18-1.72c-0.01-0.59-0.21-1.78-0.4-2.72c-0.22-1.18-0.5-2.47-0.72-3.54c-0.21-1.01-0.42-2.02-0.55-2.99
		c-0.02-0.11-0.06-0.15-0.1-0.14C224.69,238.48,224.66,238.54,224.64,238.63z M249.49,238.78c-0.04,0.08-0.09,0.2-0.12,0.28
		c-0.04,0.14,0.04,0.24,0.11,0.13c0.08-0.13,0.19-0.25,0.32-0.33c0.31-0.19,0.65-0.26,0.99-0.23c0.31,0.03,0.89,0.25,0.89,0.28
		c0,0.07-1.35,0.73-1.56,0.87c-0.09,0.06-0.2,0.16-0.18,0.27c0.02,0.08,0.15,0.1,0.25,0.06c0.53-0.19,0.72-0.18,1.15-0.36
		c0.58-0.25,0.75-0.55,0.85-0.58c0.04-0.01,0.09-0.01,0.14-0.05c0.17-0.16,0.31-0.57,0.32-0.71c-0.02-0.11-0.41-0.15-0.52-0.17
		c-0.38-0.09-0.75-0.29-1.14-0.32C250.37,237.86,249.8,238.14,249.49,238.78z M236.13,238.15c0.11,0.12,0.26,0.37,0.29,0.8
		c0,0.13-0.02,0.3-0.03,0.31c-0.01,0.01-0.24-0.09-0.28-0.11c-0.08-0.04-0.31-0.13-0.71-0.28c-0.16-0.03,0-0.28,0-0.28
		c0.06-0.11,0.16-0.25,0.27-0.36l0.15-0.1C235.92,238.09,236.07,238.06,236.13,238.15z M236.05,237.4c-0.46,0.08-1,0.72-1.22,1.45
		c-0.1,0.33-0.04,0.52,0.14,0.63c0.26,0.16,0.64,0.29,1.09,0.41c-0.52,0.87-2.2,2-2.51,2.18c-0.36,0.21-0.3,0.44,0.15,0.24
		c1.69-0.76,2.53-1.57,2.9-2.29c0.12,0.02,0.22,0.06,0.34,0.09c0.2,0.05,0.16,0.08,0.26-0.24c0.05-0.15,0.09-0.26,0.1-0.33
		l-0.51-0.17l0.05-0.18c0.06-0.58-0.09-1.06-0.14-1.21C236.55,237.52,236.32,237.35,236.05,237.4z M256.43,236.4
		c0.11,0.12,0.26,0.37,0.29,0.8c0,0.12-0.02,0.3-0.03,0.31c-0.01,0.01-0.24-0.09-0.28-0.11c-0.08-0.04-0.31-0.13-0.71-0.28
		c-0.16-0.03,0-0.28,0-0.28c0.06-0.11,0.16-0.25,0.27-0.37l0.15-0.1C256.22,236.34,256.37,236.31,256.43,236.4z M256.34,235.65
		c-0.46,0.08-1,0.72-1.22,1.45c-0.1,0.33-0.04,0.52,0.14,0.63c0.26,0.16,0.64,0.29,1.09,0.4c-0.52,0.87-2.2,2-2.51,2.18
		c-0.36,0.21-0.3,0.44,0.15,0.24c1.69-0.76,2.53-1.57,2.9-2.29c0.12,0.02,0.22,0.06,0.34,0.09c0.2,0.06,0.16,0.08,0.26-0.24
		c0.05-0.15,0.09-0.26,0.1-0.33l-0.51-0.17l0.05-0.18c0.06-0.58-0.09-1.06-0.14-1.21C256.85,235.77,256.62,235.6,256.34,235.65z
		 M225.49,236.47c-0.21,0.41-0.85,0.52-1.3,0.38c-0.27-0.08-0.36-0.32-0.24-0.56c0.25-0.5,0.52-0.67,0.77-0.67
		C225.14,235.62,225.49,236.12,225.49,236.47z M223.79,235.6c-0.71,1.62,0.14,2.21,0.82,2.19c1.09-0.03,1.48-1.1,1.2-2.18
		c-0.18-0.68-0.55-0.92-0.95-0.9C224.46,234.72,224.04,235.01,223.79,235.6z M222.41,253.91c-0.93,0.39-3.52,1.42-4.34,1.77
		c-0.05,0.02-0.08,0.03-0.1,0.1c-0.03,0.1-0.13,0.42-0.18,0.59c-0.02,0.07,0.04,0.07,0.1,0.05c0.11-0.05,0.26-0.13,0.38-0.18
		c0.64-0.27,3.08-1.27,3.91-1.6c0.05-0.02,0.1-0.05,0.12-0.11c0.05-0.12,0.13-0.39,0.17-0.55
		C222.5,253.91,222.46,253.89,222.41,253.91z M219.93,245.79c-0.52,0.93-1.62,0.38-1.68,0.04c-0.03-0.21,0.37-0.92,0.67-0.91
		C219.31,244.93,219.64,245.4,219.93,245.79z M219.03,243.6c-0.14,0.02-0.27,0.11-0.42,0.25c-0.76,0.68-1.11,2.53-0.54,3.23
		c0.39,0.48,0.89,0.5,1.27,0.43c0.34-0.07,0.69-0.41,0.95-1.03c0.45,0.72,0.29,1.3-0.24,1.76c-0.53,0.41-1.13,0.58-1.68,0.64
		c-0.07,0.01-0.08,0.02-0.1,0.08c-0.08,0.28-0.11,0.41-0.17,0.66c-0.04,0.14-0.04,0.15,0.1,0.15c1.06-0.05,2.85,0.31,2.73,0.51
		c-1.21,1.19-2.71,1.85-4.09,1.94c-2.24,0.15-4.09-1.36-2.63-4.52c0.12-0.31-0.08-0.55-0.26-0.23c-1.99,3.95-0.21,5.95,2.19,6.08
		c1.7,0.09,3.7-0.77,4.99-2.28c0.3-0.49,0.44-1.03,0.4-1.45c-0.06-0.54-0.36-0.76-1.2-0.84c0.71-1.01,0.96-2.1,0.5-3.34
		c-0.36-0.88-0.74-1.37-1.33-1.86C219.31,243.62,219.16,243.58,219.03,243.6z M217.94,240.29c-0.17,0.28-0.4,0.69-0.53,0.94
		c-0.05,0.1-0.05,0.18,0.06,0.24c0.22,0.12,0.61,0.33,0.89,0.48c0.12,0.06,0.19,0.05,0.24-0.03c0.15-0.25,0.38-0.63,0.52-0.88
		c0.05-0.09,0.07-0.16-0.02-0.21c-0.26-0.16-0.69-0.42-0.96-0.57C218.04,240.19,217.99,240.21,217.94,240.29z M192.99,250.56
		c-0.93,0.39-3.52,1.42-4.34,1.77c-0.05,0.02-0.08,0.03-0.1,0.1c-0.03,0.1-0.13,0.42-0.18,0.59c-0.02,0.07,0.04,0.07,0.1,0.04
		c0.11-0.04,0.26-0.13,0.38-0.18c0.64-0.27,3.08-1.27,3.91-1.6c0.05-0.03,0.1-0.05,0.12-0.11c0.05-0.12,0.13-0.39,0.17-0.55
		C193.08,250.56,193.05,250.54,192.99,250.56z M196.25,247.4l0.01,0.84c0.01,0.26,0,0.26,0.19,0.45c0.32,0.31,0.62,0.69,0.88,1.14
		c0.1,0.17,0.1,0.2,0.05,0.37c-0.34,1.01-0.92,1.88-1.64,2.46c-1.2,0.95-2.53,1.06-4.51,0.88c-0.42-0.02-0.45,0.34-0.06,0.41
		c2.29,0.48,4.29,0.59,5.5-0.71c0.72-0.75,1.16-1.84,1.19-2.95c0.03-1.1-0.31-2.05-1.29-2.99
		C196.4,247.14,196.25,247.12,196.25,247.4z M191.04,246.65c0.48-0.03,1.18,0.33,1.6,0.73c0.07,0.06,0.09,0.06,0.03,0.11
		c-1.35,1.12-3.46,1.73-4.84,1.57c0.83-0.71,1.87-2.12,2.82-2.37c0.06-0.01,0.14-0.04,0.2-0.04
		C190.9,246.64,190.97,246.64,191.04,246.65z M190.51,245.66c-0.83,0.42-2.35,2.36-3.3,3.26c-0.15,0-0.37-0.28-0.46-0.47
		c-0.16-0.34-0.31-0.68-0.49-1.04c-0.17-0.3-0.26-0.29-0.34,0l-0.18,0.8c-0.04,0.2-0.06,0.15,0.09,0.47
		c0.71,1.35,0.84,2.06,0.78,2.86c-0.52,0.85-2.08,1.64-3.5,1.74c-2.71,0.18-2.88-2.53-1.98-3.99c0.13-0.21-0.04-0.43-0.24-0.08
		c-1.38,2.36-1.13,5.14,1.73,5.28c1.27,0.06,2.7-0.46,3.46-1.2c0.74-0.72,1.01-1.47,1.1-3.09c1.31,0.12,3.52-0.29,4.88-1.16
		c0.26-0.17,0.39-0.26,0.57-0.5c0.22-0.3,0.47-0.73,0.61-1.15c0.19-0.54,0.18-1.08-0.26-1.45c-0.45-0.37-0.96-0.58-1.5-0.55
		C191.17,245.39,190.85,245.47,190.51,245.66z M193.93,243.76c-0.03,0.08-0.08,0.2-0.12,0.28c-0.04,0.14,0.04,0.24,0.11,0.13
		c0.09-0.13,0.19-0.25,0.32-0.33c0.31-0.19,0.65-0.26,0.99-0.23c0.31,0.03,0.89,0.25,0.89,0.28c0,0.07-1.35,0.73-1.56,0.87
		c-0.09,0.06-0.2,0.16-0.18,0.27c0.02,0.08,0.15,0.1,0.25,0.06c0.53-0.19,0.72-0.18,1.15-0.36c0.58-0.25,0.75-0.55,0.85-0.58
		c0.04-0.01,0.09-0.01,0.14-0.05c0.17-0.16,0.31-0.57,0.32-0.71c-0.02-0.11-0.4-0.15-0.51-0.17c-0.38-0.09-0.75-0.29-1.14-0.32
		C194.81,242.84,194.25,243.11,193.93,243.76z M188.21,242.81c-0.17,0.28-0.4,0.69-0.53,0.94c-0.05,0.1-0.05,0.18,0.06,0.23
		c0.22,0.12,0.61,0.33,0.89,0.48c0.12,0.06,0.18,0.05,0.24-0.03c0.15-0.25,0.38-0.64,0.52-0.88c0.05-0.09,0.07-0.16-0.02-0.21
		c-0.26-0.16-0.69-0.42-0.95-0.57C188.3,242.71,188.26,242.73,188.21,242.81z M208.77,239.07c-0.04,0.01-0.08,0.07-0.1,0.16
		l-0.2,0.99c-0.06,0.28-0.04,0.31,0,0.55c0.11,0.66,0.27,1.31,0.39,1.95c0.32,1.55,0.71,3.5,0.99,4.93c0.2,1.07,0.34,2.16,0.38,3.12
		c0.01,0.18,0.11,0.17,0.16,0.03c0.17-0.53,0.24-1.09,0.24-1.68c0-0.58-0.19-1.75-0.38-2.68c-0.26-1.29-0.61-3.1-0.85-4.27
		c-0.21-0.99-0.41-1.99-0.53-2.95C208.85,239.09,208.81,239.06,208.77,239.07z M205.61,249.77c-0.32,0.08-0.93,0.22-1.58,0.31
		c0.47-0.49,0.92-1.04,1.14-1.32C205.33,248.99,205.54,249.43,205.61,249.77z M205.08,238.54c-0.2,0.35-0.41,0.81-0.46,1.09
		c0.12,0.38,0.3,0.65,0.47,0.98c0.09,2.4,1.34,4.37,0.09,7.19c-1.5-2.69-4.42-5.01-6.53-6.3c-0.34-0.17-0.24,1.54,0.11,2.21
		c0.56,0.42,1.41,0.62,1.87,0.61c0.13,0,0.14-0.06,0.13-0.18c2.01,1.49,2.99,2.27,4.14,4.2c-0.38,0.7-0.84,1.21-1.44,1.82
		c-0.29,0.08-1.1,0.18-1.23,0.28c-0.05,0.05-0.17,0.84-0.14,1.16c0.02,0.13,0.15,0.13,0.28,0.11c1.07-0.11,2.97-0.49,3.6-0.66
		c0.14-0.05,0.18-0.08,0.21-0.23c0.1-0.56-0.27-1.78-0.71-2.53c1.42-3.24,0.61-5.08,0.34-7.31c0.2-0.3,0.36-0.57,0.4-0.74
		c-0.16-0.31-0.63-0.94-0.86-1.62C205.27,238.42,205.17,238.37,205.08,238.54z M197.01,239.39c-0.09,0.19-0.05,0.39,0.13,0.53
		c0.14,0.1,0.41,0.28,0.67,0.41c-0.11,0.05-0.37,0.15-0.52,0.26c-0.04,0.12-0.09,0.31-0.11,0.43c-0.01,0.04,0.03,0.09,0.07,0.06
		c0.46-0.27,1.84-0.63,2.44-0.76c0.04-0.01,0.23-0.44,0.26-0.51c0.04-0.08,0-0.11-0.06-0.09c-0.34,0.09-0.67,0.15-1.09,0.14
		c-0.52-0.01-1.31-0.57-1.31-0.68c0-0.11,0.62-0.37,0.76-0.36c0.4,0.04,0.46,0.44,0.57,0.44c0.13,0,0.33-0.48,0.33-0.6
		c0-0.14-0.33-0.5-0.59-0.5C198.13,238.17,197.23,238.93,197.01,239.39z M200,235.69c-0.93,0.39-4.1,1.56-4.92,1.91
		c-0.05,0.02-0.08,0.03-0.1,0.1c-0.03,0.1-0.13,0.42-0.18,0.59c-0.02,0.07,0.04,0.07,0.1,0.04c0.11-0.05,0.26-0.13,0.38-0.18
		c0.64-0.27,3.66-1.41,4.49-1.73c0.05-0.02,0.1-0.05,0.12-0.11c0.05-0.11,0.13-0.39,0.17-0.55
		C200.1,235.69,200.06,235.66,200,235.69z M210.59,236.52c0.08,0.08,0.17,0.19,0.16,0.3c-0.13,0.29-0.95,0.58-1.26,0.66
		c-0.06,0.01-0.38,0.08-0.35-0.02c0.19-0.3,0.37-0.62,0.64-0.87C210.04,236.38,210.32,236.28,210.59,236.52z M209.81,235.99
		c-0.36,0.37-0.85,1.05-1.07,1.49c-0.16-0.01-0.46-0.17-0.6-0.24c-0.19-0.09-0.32,0.1-0.41,0.25c-0.18,0.29-0.33,0.58-0.44,0.9
		l-0.11,0.31c0,0.13,0.06,0.17,0.16,0.06c0.22-0.22,0.39-0.82,0.52-0.74c0.75,0.43,1.71,0.28,2.43-0.22
		c0.56-0.4,0.99-1.01,0.83-1.69c-0.06-0.24-0.33-0.48-0.59-0.49C210.26,235.61,210.01,235.78,209.81,235.99z M203.23,236.47
		c-0.04,0.08-0.09,0.2-0.12,0.28c-0.04,0.14,0.04,0.24,0.11,0.13c0.09-0.13,0.19-0.25,0.32-0.33c0.31-0.19,0.65-0.26,0.99-0.23
		c0.31,0.03,0.89,0.25,0.89,0.28c0,0.07-1.35,0.73-1.56,0.87c-0.09,0.06-0.2,0.16-0.18,0.27c0.02,0.08,0.15,0.1,0.25,0.06
		c0.53-0.19,0.72-0.18,1.15-0.36c0.58-0.25,0.75-0.55,0.85-0.58c0.04-0.01,0.09-0.01,0.14-0.05c0.17-0.16,0.31-0.57,0.32-0.71
		c-0.02-0.11-0.41-0.15-0.52-0.17c-0.38-0.09-0.75-0.29-1.14-0.32C204.12,235.55,203.55,235.82,203.23,236.47z M177.02,241.35
		c-0.16,0.24-0.35,0.59-0.54,0.88c-0.27-0.18-0.62-0.39-0.86-0.55c-0.13-0.08-0.18-0.08-0.26,0.05c-0.14,0.21-0.35,0.54-0.5,0.8
		c-0.05,0.1-0.04,0.18,0.1,0.26c0.26,0.15,0.66,0.38,0.9,0.51c0.08,0.04,0.14,0.01,0.2-0.07c0.13-0.18,0.28-0.45,0.49-0.79
		c0.36,0.21,0.65,0.4,0.94,0.54c0.08,0.04,0.12,0.03,0.18-0.04c0.14-0.18,0.39-0.58,0.5-0.78c0.07-0.14,0.05-0.19-0.07-0.27
		c-0.19-0.12-0.65-0.41-0.88-0.56C177.11,241.26,177.07,241.27,177.02,241.35z M167.08,241.2c-0.64,0.65-1.83,1.13-2.76,1.11
		c-0.64-0.02-0.99-0.17-1.31-0.4c-0.08-0.06-0.16-0.05-0.22,0.03c-0.22,0.28-0.51,0.92-0.59,1.37c-0.02,0.08-0.03,0.19,0.01,0.21
		c0.04,0.02,0.1-0.01,0.13-0.07c0.08-0.22,0.19-0.6,0.38-0.81c0.03-0.03,0.08-0.01,0.11,0.01c0.4,0.27,1.01,0.42,1.63,0.39
		c0.87-0.04,2.44-0.57,2.69-1.75c0.01-0.06,0.02-0.11,0-0.12C167.14,241.14,167.12,241.16,167.08,241.2z M177.43,247.07
		c-0.33,0.48-1.19,0.62-1.5-0.11c0.16-0.59,0.38-0.79,0.61-0.78C176.94,246.19,177.36,246.85,177.43,247.07z M171.96,240.81
		c0.33,2.4,0.65,4.73,0.8,7.15c0.06,0.76,0.15,1.68,0.43,2.23c0.86,1.8,4.56,0.94,5.16-0.47c0.45-1.43,0.26-2.96-0.75-4.16
		c-0.46-0.52-1.07-1.11-1.63-0.2c-0.48,0.74-0.61,1.77-0.53,2.31c0.2,1.03,1.58,1.72,2.38,0.03c0.2,0.46,0.27,0.57,0.35,1.16
		c-0.48,1-4.04,2.09-4.64,0.09c-0.54-2.5-0.52-5.41-0.96-8.16l-0.19-1.11c-0.02-0.1-0.05-0.14-0.08-0.14
		C172.16,239.55,171.9,240.57,171.96,240.81z M167.45,250.15c-0.54,0.08-1.07,0.09-1.63-0.28
		C166.33,248.55,166.91,249.1,167.45,250.15z M168.28,239.61c-0.55,0.98-0.54,1.34-0.06,2.02c0.39,2.5,1.04,5.02,1.48,7.57
		c-0.29,0.33-0.94,0.71-1.46,0.74c-0.66-1.4-1.45-2.94-2.33-1.69c-0.56,0.88-0.54,2.2-0.44,2.55c0.14,0.47,0.62,0.9,2.17,0.55
		c-0.81,1.51-2.4,4.1-7.23,3.28c-0.25-0.04-0.4,0.24-0.01,0.38c2.35,0.67,6.45,1.45,7.88-3.82c3.7-0.58,0.81-6.31,0.71-9.25
		c1.16-1.13-0.17-0.94-0.41-2.24c-0.04-0.19-0.08-0.26-0.13-0.26C168.39,239.44,168.33,239.54,168.28,239.61z M160.35,239.13
		c-0.04,0.01-0.08,0.07-0.1,0.16l-0.19,0.99c-0.06,0.28-0.04,0.31,0,0.55c0.11,0.66,0.27,1.31,0.39,1.95
		c0.32,1.55,0.71,3.5,0.99,4.93c0.2,1.07,0.34,2.16,0.38,3.12c0.01,0.18,0.11,0.17,0.16,0.03c0.17-0.53,0.24-1.09,0.24-1.68
		c0-0.58-0.19-1.75-0.38-2.68c-0.26-1.29-0.61-3.1-0.85-4.27c-0.21-0.99-0.41-1.99-0.53-2.95
		C160.44,239.15,160.39,239.12,160.35,239.13z M178.83,237.21c-0.93,0.39-4.1,1.56-4.92,1.91c-0.05,0.02-0.08,0.03-0.1,0.1
		c-0.03,0.1-0.13,0.42-0.18,0.59c-0.02,0.07,0.04,0.07,0.1,0.04c0.11-0.05,0.26-0.13,0.38-0.18c0.64-0.27,3.66-1.41,4.49-1.73
		c0.05-0.02,0.1-0.05,0.12-0.11c0.05-0.12,0.13-0.39,0.17-0.55C178.93,237.21,178.89,237.19,178.83,237.21z M161.02,236.88
		c-0.22,0.41-0.85,0.52-1.3,0.38c-0.27-0.08-0.36-0.32-0.24-0.56c0.25-0.5,0.52-0.67,0.77-0.67
		C160.67,236.03,161.02,236.53,161.02,236.88z M159.31,236.01c-0.7,1.62,0.14,2.21,0.82,2.19c1.09-0.03,1.48-1.1,1.2-2.18
		c-0.18-0.68-0.55-0.92-0.95-0.9C159.99,235.14,159.57,235.42,159.31,236.01z M168.5,234.64c0.11,0.12,0.26,0.37,0.29,0.8
		c0,0.12-0.02,0.3-0.03,0.31c-0.01,0.01-0.24-0.09-0.28-0.11c-0.08-0.04-0.31-0.13-0.71-0.28c-0.16-0.03,0-0.28,0-0.28
		c0.06-0.11,0.16-0.25,0.27-0.37l0.15-0.1C168.28,234.58,168.43,234.55,168.5,234.64z M168.41,233.89c-0.46,0.08-1,0.72-1.23,1.45
		c-0.1,0.33-0.03,0.52,0.14,0.63c0.26,0.16,0.64,0.29,1.09,0.4c-0.52,0.87-2.2,2-2.51,2.18c-0.36,0.21-0.3,0.44,0.16,0.24
		c1.69-0.76,2.52-1.57,2.9-2.29c0.12,0.02,0.22,0.06,0.34,0.09c0.2,0.05,0.16,0.08,0.27-0.24c0.05-0.15,0.09-0.26,0.1-0.33
		l-0.51-0.17l0.05-0.18c0.06-0.58-0.09-1.06-0.14-1.21C168.91,234.01,168.68,233.84,168.41,233.89z M159.24,254.22
		c-0.94,0.35-1.99,0.7-2.82,1.02c-0.05,0.02-0.08,0.03-0.11,0.1c-0.04,0.1-0.15,0.41-0.2,0.58c-0.02,0.07,0.04,0.07,0.1,0.05
		c0.11-0.04,0.26-0.12,0.39-0.17c0.65-0.24,1.55-0.56,2.38-0.86c0.05-0.02,0.1-0.04,0.13-0.1c0.05-0.11,0.15-0.38,0.2-0.54
		C159.33,254.23,159.3,254.2,159.24,254.22z M156.03,252.52c-0.09,0.19-0.06,0.39,0.13,0.53c0.14,0.1,0.41,0.28,0.67,0.41
		c-0.11,0.05-0.37,0.15-0.52,0.26c-0.04,0.12-0.09,0.31-0.11,0.44c-0.01,0.04,0.02,0.09,0.07,0.06c0.46-0.27,1.84-0.62,2.44-0.76
		c0.04-0.01,0.23-0.44,0.26-0.51c0.04-0.08,0-0.11-0.06-0.09c-0.34,0.09-0.67,0.15-1.09,0.14c-0.52-0.01-1.31-0.57-1.31-0.68
		c0.01-0.11,0.62-0.37,0.76-0.36c0.4,0.04,0.46,0.44,0.57,0.44c0.13,0,0.33-0.48,0.33-0.6c0-0.14-0.33-0.5-0.59-0.5
		C157.15,251.3,156.25,252.06,156.03,252.52z M151.41,242.72c-0.17,0.28-0.4,0.69-0.53,0.94c-0.05,0.1-0.05,0.18,0.06,0.24
		c0.22,0.12,0.61,0.33,0.89,0.48c0.11,0.06,0.18,0.05,0.24-0.03c0.15-0.25,0.38-0.64,0.52-0.88c0.05-0.09,0.07-0.16-0.02-0.21
		c-0.26-0.16-0.69-0.42-0.95-0.57C151.51,242.62,151.46,242.64,151.41,242.72z M147.62,241.24c-0.93,0.39-4.1,1.56-4.92,1.91
		c-0.05,0.02-0.08,0.03-0.1,0.1c-0.03,0.1-0.13,0.42-0.18,0.59c-0.02,0.07,0.04,0.07,0.1,0.04c0.11-0.05,0.26-0.13,0.38-0.18
		c0.64-0.27,3.66-1.4,4.49-1.73c0.05-0.02,0.1-0.05,0.12-0.11c0.05-0.11,0.13-0.39,0.17-0.55
		C147.72,241.24,147.68,241.21,147.62,241.24z M147.32,249.7c-0.71-0.06-1.53-0.37-2.01-0.66c0.51-0.73,0.81-1,1-1
		C146.69,248.06,146.73,249.06,147.32,249.7z M140.06,241.03c0.75,2.77,0.84,7.02,1.26,8.87c0.4,1.6,2.71,2.19,3.7,0
		c0.23,0.96,2.59,1.24,3.07,1.22c0.15-0.02,0.2-0.42,0.19-0.64c1.19,0.65,5.21,0.37,6.19-0.77c0.24-0.28,0.44-1.27,0.32-1.98
		c-0.17-0.85-0.95-1.75-1.25-1.96c-0.17-0.11-0.34,0.96-0.23,1.33c0.29,0.4,0.76,0.7,1.02,1.52c-0.88,0.62-2.86,1-4.48,0.87
		c-1.16-0.09-1.81-0.3-2.91-1.87c-0.31-0.43-0.36-0.57-0.64-0.39c-1.17,0.77-1.21,1.44-1.69,2.16c-0.55,0.85-2.36,1.09-2.75-0.42
		c-0.72-2.81-0.31-5.94-1.32-9.1c-0.03-0.07-0.06-0.1-0.09-0.1C140.28,239.78,140.06,240.57,140.06,241.03z M152.66,239.34
		l-0.23,0.43c-0.02,0.05-0.05,0.08-0.03,0.13c0.07,0.17,0.12,0.37,0.12,0.48c-0.27,0.26-0.56,0.3-0.77,0.13
		c-0.14-0.11-0.19-0.32-0.17-0.59c0.01-0.2,0.03-0.27-0.14-0.13c-0.23,0.18-0.17,0.17-0.18,0.27c-0.08,0.64-0.36,0.93-0.85,0.97
		c-0.31,0.02-0.54-0.2-0.32-0.82c0.05-0.13-0.05-0.27-0.18,0c-0.47,0.93-0.18,1.45,0.29,1.52c0.39,0.06,0.85-0.16,1.09-0.75
		c0.18,0.3,0.55,0.39,0.88,0.3c0.42-0.11,0.51-0.3,0.63-0.65c0.12-0.33,0.12-0.77-0.04-1.29
		C152.73,239.25,152.68,239.3,152.66,239.34z M155.68,238.78c-0.04,0.01-0.08,0.07-0.1,0.16l-0.19,0.99c-0.06,0.28-0.04,0.31,0,0.55
		c0.11,0.66,0.27,1.31,0.39,1.95c0.32,1.55,0.71,3.5,0.99,4.93c0.2,1.07,0.34,2.16,0.38,3.12c0.01,0.18,0.11,0.17,0.16,0.03
		c0.17-0.53,0.24-1.09,0.24-1.68c0-0.58-0.19-1.75-0.38-2.68c-0.26-1.28-0.61-3.1-0.85-4.27c-0.21-0.99-0.41-1.99-0.53-2.95
		C155.77,238.8,155.72,238.77,155.68,238.78z M153.49,236.07c-0.93,0.39-4.68,1.66-5.5,2.01c-0.05,0.02-0.08,0.03-0.1,0.1
		c-0.03,0.1-0.13,0.42-0.18,0.59c-0.02,0.07,0.04,0.07,0.1,0.04c0.11-0.05,0.26-0.13,0.38-0.18c0.64-0.27,4.25-1.51,5.07-1.84
		c0.05-0.02,0.1-0.05,0.12-0.11c0.05-0.12,0.13-0.39,0.17-0.55C153.58,236.07,153.54,236.04,153.49,236.07z M123.92,245.88
		c-0.17,0.28-0.4,0.69-0.53,0.94c-0.05,0.1-0.05,0.17,0.06,0.23c0.22,0.12,0.61,0.33,0.89,0.48c0.12,0.06,0.19,0.05,0.24-0.03
		c0.15-0.25,0.38-0.64,0.52-0.88c0.05-0.09,0.07-0.16-0.02-0.21c-0.26-0.16-0.69-0.42-0.95-0.57
		C124.01,245.78,123.97,245.8,123.92,245.88z M134.74,243.44c-1.89,2.37-2.19,2.49-3.97,3.21c-0.7,0.3-0.84,0.65-1.08,1.06
		c-0.27,0.5-0.21,0.77,0.08,0.48c0.49-0.45,1.55,0.26,3.76,0.71c-2.32,0.78-3.63,1.41-5.54,0.75c-0.19-0.43-0.37-0.82-0.56-1.23
		c-0.31-0.59-0.45,0.88-0.35,1.15c0.13,0.5,0.78,1.25,0.63,2.8c-0.83,1.64-5.38,3.17-6.2,0.34c-0.19-0.8-0.06-1.54,0.3-2.71
		c0.07-0.1-0.03-0.61-0.26-0.09c-0.54,1.1-0.91,2.96-0.44,4.1c1.14,2.26,5.34,1.56,6.7-0.62c0.37-0.69,0.5-1.47,0.41-2.51
		c1.35,0.16,2.79,0.03,5.01-0.92c1.13-0.47,3.45-0.98,4.45-0.52c0.13,0.1,1.14-1.4,0.54-1.25c-1.37,0.27-4.21-0.15-6.36-0.96
		c1.88-0.57,3.15-4.76,3.74-1.77c0.03,0.25,0.08,1.15,0.46,0.19C136.4,244.32,135.79,242.28,134.74,243.44z M128.53,243.1
		c-0.03,0.08-0.09,0.2-0.12,0.28c-0.04,0.14,0.04,0.24,0.11,0.13c0.09-0.13,0.19-0.25,0.32-0.33c0.31-0.19,0.65-0.26,0.99-0.23
		c0.31,0.03,0.89,0.25,0.89,0.28c0,0.07-1.35,0.73-1.56,0.87c-0.09,0.06-0.2,0.16-0.18,0.27c0.02,0.08,0.15,0.1,0.25,0.06
		c0.53-0.19,0.72-0.18,1.15-0.36c0.58-0.25,0.75-0.55,0.85-0.58c0.04-0.01,0.09-0.01,0.14-0.05c0.17-0.16,0.31-0.57,0.32-0.71
		c-0.02-0.11-0.41-0.15-0.52-0.17c-0.38-0.09-0.75-0.29-1.14-0.32C129.42,242.18,128.85,242.45,128.53,243.1z M134.5,239.84
		c-0.17,0.28-0.4,0.69-0.53,0.94c-0.05,0.1-0.05,0.17,0.06,0.23c0.22,0.12,0.61,0.33,0.89,0.48c0.11,0.06,0.18,0.05,0.24-0.03
		c0.15-0.25,0.38-0.64,0.52-0.88c0.05-0.09,0.07-0.16-0.02-0.21c-0.26-0.16-0.69-0.42-0.95-0.57
		C134.6,239.74,134.55,239.76,134.5,239.84z M124.34,240.43c0.11,0.12,0.26,0.37,0.29,0.8c0,0.12-0.02,0.3-0.03,0.31
		c-0.01,0.01-0.24-0.09-0.28-0.11c-0.08-0.04-0.31-0.13-0.71-0.28c-0.16-0.03,0-0.28,0-0.28c0.06-0.11,0.16-0.25,0.27-0.37l0.15-0.1
		C124.13,240.37,124.28,240.33,124.34,240.43z M124.25,239.68c-0.46,0.08-1,0.72-1.23,1.45c-0.1,0.33-0.03,0.52,0.14,0.63
		c0.26,0.16,0.64,0.29,1.09,0.41c-0.52,0.87-2.2,2-2.51,2.18c-0.36,0.21-0.3,0.44,0.15,0.24c1.69-0.76,2.52-1.57,2.9-2.29
		c0.12,0.02,0.22,0.06,0.34,0.09c0.2,0.05,0.16,0.08,0.26-0.24c0.05-0.15,0.09-0.26,0.1-0.33l-0.51-0.17l0.05-0.18
		c0.06-0.58-0.09-1.06-0.14-1.21C124.76,239.8,124.53,239.63,124.25,239.68z M136.87,236.77c-0.93,0.39-4.1,1.56-4.92,1.91
		c-0.05,0.02-0.08,0.03-0.1,0.1c-0.03,0.1-0.13,0.42-0.18,0.59c-0.02,0.07,0.04,0.07,0.1,0.04c0.11-0.05,0.26-0.13,0.38-0.18
		c0.64-0.27,3.66-1.41,4.49-1.73c0.05-0.02,0.1-0.05,0.12-0.11c0.05-0.12,0.13-0.39,0.17-0.55
		C136.96,236.77,136.93,236.75,136.87,236.77z M103.72,252.82c-0.93,0.39-4.1,1.56-4.92,1.91c-0.05,0.02-0.08,0.03-0.1,0.1
		c-0.03,0.1-0.13,0.42-0.18,0.59c-0.02,0.07,0.04,0.07,0.1,0.04c0.11-0.05,0.26-0.13,0.38-0.18c0.64-0.27,3.66-1.41,4.49-1.73
		c0.05-0.02,0.1-0.05,0.12-0.11c0.05-0.12,0.13-0.39,0.17-0.55C103.82,252.82,103.78,252.8,103.72,252.82z M84.29,245.41
		c-0.12,0.4-0.21,0.74-0.28,1.12c0.66,0.93,1.18,1.97,1.37,3.32c-0.68,1.33-2.37,1.98-3.78,1.99c-1.26,0.02-2.54-0.62-2.54-2.04
		c0-0.68,0.24-1.43,0.56-2.03c0.05-0.09,0.06-0.21,0.01-0.25c-0.06-0.05-0.16-0.01-0.24,0.1c-0.55,0.76-0.89,1.81-0.89,2.75
		c0.02,1.9,1.59,2.75,3.32,2.68c1.5-0.06,3-0.91,3.61-2.22c0.25-0.54,0.32-1.23,0.32-1.8c-0.01-1.32-0.45-2.6-1.3-3.67
		C84.38,245.28,84.32,245.32,84.29,245.41z M81.62,243.36c-0.17,0.28-0.4,0.69-0.53,0.94c-0.05,0.1-0.05,0.17,0.06,0.23
		c0.22,0.12,0.61,0.33,0.89,0.48c0.12,0.06,0.18,0.05,0.24-0.03c0.15-0.25,0.38-0.64,0.52-0.88c0.05-0.09,0.07-0.16-0.02-0.21
		c-0.26-0.16-0.69-0.42-0.95-0.57C81.71,243.26,81.67,243.28,81.62,243.36z M107.91,242.93c-0.03,0.08-0.09,0.2-0.12,0.28
		c-0.04,0.14,0.04,0.24,0.11,0.13c0.08-0.13,0.19-0.25,0.32-0.33c0.31-0.19,0.65-0.26,0.99-0.23c0.31,0.03,0.89,0.25,0.89,0.28
		c0,0.07-1.35,0.73-1.56,0.87c-0.09,0.06-0.2,0.16-0.18,0.27c0.02,0.08,0.15,0.1,0.25,0.06c0.53-0.19,0.72-0.18,1.15-0.36
		c0.58-0.25,0.75-0.55,0.85-0.58c0.04-0.01,0.09-0.01,0.14-0.05c0.17-0.15,0.31-0.57,0.32-0.71c-0.02-0.11-0.4-0.15-0.52-0.17
		c-0.38-0.09-0.75-0.29-1.14-0.32C108.79,242.01,108.22,242.29,107.91,242.93z M89.42,249.95c-0.55,0.01-1.11,0.23-1.54-0.44
		c0.23-0.44,0.44-0.6,0.64-0.61C88.98,248.9,89.33,249.8,89.42,249.95z M113.26,248.25c-0.14,0.55-2.7,1.99-4.96,1.89
		c1.07-1.06,1.69-1.85,2.33-2.26c0.3-0.21,0.64-0.3,0.97-0.3C112.24,247.57,112.87,247.87,113.26,248.25z M118.83,248.33
		c-0.85,0.02-1.59-0.37-1.97-0.68c0.37-0.46,0.68-0.63,0.94-0.63C118.51,247.03,118.83,248.33,118.83,248.33z M99.48,242.25
		c0.52,2.32,0.86,4.64,1.22,6.96c-0.71,1.27-3.04,1.53-3.62,0.76c-0.12-0.25,0-0.81,0.08-1.21c0.4,0.04,1.03-0.01,1.39,0.35
		c0.17,0.01,0.55-0.76,0.72-1.07c0.22-0.42,0.06-0.42-0.18-0.39c-2.59,0.36-4.64-0.71-6.36-1.41c-1.18-0.43-1.87,0.59-2.16,1.38
		c-0.17,0.66,0.13,0.43,0.28,0.23c0.71-0.71,1.98-0.29,3.97,0.42c-1.43,0.78-3.02,1.22-4.47,1.51c-0.24-0.56-0.44-1.12-0.88-1.7
		c-0.39-0.52-0.9-0.79-1.48,0.01c-0.21,0.3-0.64,1.02-0.62,2.2c-0.01,0.47,0.44,1.1,2.58,0.73c-1.27,2.36-3.11,3.86-7.27,3.1
		c-0.19-0.05-0.61,0.12-0.11,0.35c0.7,0.25,3.93,1.64,6.49-0.75c1.03-1.03,1.15-1.91,1.46-2.85c4.04-1.11,3.74-1.91,6.26-2.1
		c-0.25,0.9-0.36,2.27,0.36,2.62c1.37,0.53,3.43-0.23,3.75-1.64c-0.04,1.13,2.7,3.48,4.66,0.12c0.14,0.49,0.41,0.9,0.86,1.15
		c-0.29,0.84-0.36,1.62-0.48,2.45c-0.05,0.61,0.22,0.26,0.26,0.1c0.19-0.81,0.23-1.73,0.67-2.45c0.55,0.28,8.26,0.67,9.54-2.44
		c-0.01,0.7,2.85,1.19,2.92,0.87c0.79-1.81-0.67-5.52-2.25-2.98c-0.26,0.36-0.56,1.18-1.17,1.9c-0.7,0.81-2.57,1.47-3.35,1.49
		c1.05-0.96,1.17-1.5,1.38-2.33c-0.02-1.61-2.4-1.66-3.29-0.71c-0.98,1.04-1.89,2.17-3.02,3.09c-0.7-0.12-0.81-0.04-1.49-0.59
		c-0.52-0.74-0.52-0.71-1.07,0.14c-1.27,1.36-3.17,1.35-3.81-1.28c-0.62-2.54-0.87-5-1.28-7.5c-0.01-0.08-0.02-0.12-0.05-0.12
		C99.78,240.65,99.41,241.74,99.48,242.25z M84.11,239.39c-0.93,0.39-4.1,1.56-4.92,1.91c-0.05,0.02-0.08,0.03-0.1,0.1
		c-0.03,0.1-0.13,0.42-0.18,0.59c-0.02,0.07,0.04,0.07,0.1,0.05c0.11-0.05,0.26-0.13,0.39-0.18c0.64-0.27,3.66-1.41,4.49-1.73
		c0.05-0.02,0.1-0.05,0.12-0.11c0.05-0.12,0.13-0.39,0.17-0.55C84.21,239.39,84.17,239.37,84.11,239.39z M117.93,240.06
		c0.1,0.12,0.26,0.37,0.29,0.8c0,0.12-0.02,0.3-0.03,0.31c-0.01,0.01-0.24-0.09-0.28-0.11c-0.08-0.04-0.31-0.13-0.71-0.28
		c-0.16-0.03,0-0.28,0-0.28c0.06-0.11,0.16-0.25,0.27-0.36l0.15-0.1C117.72,240,117.87,239.97,117.93,240.06z M117.84,239.31
		c-0.46,0.08-1,0.72-1.23,1.45c-0.1,0.33-0.04,0.52,0.14,0.63c0.26,0.16,0.64,0.29,1.09,0.41c-0.52,0.87-2.2,2-2.51,2.18
		c-0.36,0.21-0.3,0.44,0.16,0.24c1.69-0.76,2.52-1.57,2.9-2.29c0.12,0.02,0.22,0.06,0.34,0.09c0.2,0.06,0.16,0.08,0.27-0.24
		c0.05-0.15,0.09-0.26,0.1-0.33l-0.51-0.17l0.05-0.18c0.06-0.58-0.09-1.06-0.14-1.21C118.35,239.43,118.12,239.26,117.84,239.31z
		 M93.33,239.83c0.11,0.12,0.26,0.37,0.29,0.8c0,0.12-0.02,0.3-0.03,0.31c-0.01,0.01-0.24-0.09-0.28-0.11
		c-0.08-0.04-0.31-0.13-0.71-0.28c-0.16-0.03,0-0.28,0-0.28c0.06-0.11,0.16-0.25,0.27-0.37l0.15-0.1
		C93.11,239.77,93.26,239.73,93.33,239.83z M93.24,239.08c-0.46,0.08-1,0.72-1.22,1.45c-0.1,0.33-0.04,0.52,0.14,0.63
		c0.26,0.16,0.64,0.29,1.09,0.41c-0.52,0.87-2.2,2-2.51,2.18c-0.36,0.21-0.3,0.44,0.15,0.24c1.69-0.76,2.52-1.57,2.9-2.29
		c0.12,0.02,0.22,0.06,0.34,0.09c0.2,0.05,0.16,0.08,0.26-0.24c0.05-0.15,0.09-0.26,0.1-0.33l-0.51-0.17l0.05-0.18
		c0.06-0.58-0.09-1.06-0.14-1.21C93.74,239.2,93.52,239.03,93.24,239.08z"/>
</g>
</svg>
