<?xml version="1.0" encoding="iso-8859-1"?>
<!-- Generator: Adobe Illustrator 25.2.1, SVG Export Plug-In . SVG Version: 6.00 Build 0)  -->
<svg version="1.1" xmlns="http://www.w3.org/2000/svg" xmlns:xlink="http://www.w3.org/1999/xlink" x="0px" y="0px"
	 viewBox="0 0 293.23 484.99" enable-background="new 0 0 293.23 484.99" xml:space="preserve">
<g id="Ornaments">
</g>
<g id="Header__x26__Marks__x26__Page_No.">
</g>
<g id="Aya_No.">
</g>
<g id="Quran_Text">
	<path fill-rule="evenodd" clip-rule="evenodd" d="M190.81,86.93c0.19,0.21,0.36,0.7,0.89,1.52c-0.92-0.14-2.11-0.59-1.96-0.86
		C189.87,87.4,190.54,86.65,190.81,86.93z M201.36,86.47c-0.03,0.13,0.04,0.19,0.19,0.06c1.14-0.99,2.3-0.27,4.07,0.32
		c-1,0.37-1.79,0.69-2.64,0.96c-0.92,0.28-1.41,0.44-2.5,0.01c0.14-0.42,0.17-0.47,0.22-0.94c0.02-0.26-0.13-0.21-0.21-0.09
		c-0.69,0.98-2.27,1.62-4.52,1.72c-1.7,0.04-2.92-0.02-4.29-1.53c-0.33-0.38-0.67-0.98-1.11-0.71c-0.35,0.24-1.02,0.92-1.05,1.3
		c-0.18,1.21-0.11,1.15,0.27,1.58c-1.29,1.19-2.22,1.73-4.33,2.69c-0.3,0.11-0.14,0.17,0.05,0.16c0.99-0.02,4.25-0.81,4.62-2.67
		c0.67,0.3,1.17,0.37,2.24,0.45c0.09,0,0.09-0.04,0.26-0.55c1.55,0.65,5.56,0.75,7.49-0.96c0.34,0.24,0.85,0.68,1.47,0.79
		c0.52,0.11,1.71-0.36,2.83-0.84c1.93-0.85,3.02-1.09,4.53-0.73c0.09,0.03,0.54-1.06,0.43-1.07c-0.99,0.09-2.02-0.1-3.01-0.35
		c-1.33-0.32-2.42-1.07-3-1.14C202.07,84.71,201.54,85.82,201.36,86.47z M197.71,82.99c-0.16,0.24-0.35,0.59-0.54,0.88
		c-0.27-0.18-0.62-0.39-0.86-0.55c-0.13-0.08-0.18-0.07-0.26,0.05c-0.14,0.21-0.35,0.54-0.5,0.8c-0.05,0.09-0.04,0.18,0.1,0.26
		c0.26,0.15,0.66,0.38,0.91,0.51c0.08,0.04,0.14,0.01,0.2-0.07c0.13-0.18,0.28-0.45,0.49-0.79c0.36,0.21,0.65,0.4,0.94,0.54
		c0.08,0.04,0.12,0.03,0.18-0.04c0.14-0.18,0.4-0.58,0.5-0.78c0.07-0.14,0.05-0.19-0.07-0.27c-0.19-0.12-0.65-0.41-0.88-0.56
		C197.81,82.91,197.76,82.92,197.71,82.99z M202.47,81.57c-0.17,0.28-0.4,0.69-0.53,0.94c-0.05,0.1-0.05,0.18,0.06,0.23
		c0.22,0.12,0.61,0.33,0.89,0.48c0.12,0.06,0.18,0.05,0.24-0.03c0.15-0.25,0.38-0.64,0.52-0.88c0.05-0.09,0.07-0.16-0.02-0.21
		c-0.26-0.16-0.69-0.42-0.95-0.57C202.57,81.47,202.52,81.49,202.47,81.57z M192.21,81.27c-0.93,0.39-3.52,1.42-4.34,1.77
		c-0.05,0.02-0.08,0.03-0.1,0.1c-0.03,0.1-0.13,0.42-0.18,0.59c-0.02,0.07,0.04,0.07,0.1,0.04c0.11-0.05,0.26-0.13,0.39-0.18
		c0.64-0.27,3.08-1.27,3.91-1.6c0.05-0.02,0.1-0.05,0.12-0.11c0.05-0.11,0.13-0.39,0.17-0.55
		C192.31,81.27,192.27,81.24,192.21,81.27z M205.32,77.25c-0.93,0.39-4.1,1.56-4.92,1.91c-0.05,0.02-0.08,0.03-0.1,0.1
		c-0.03,0.1-0.13,0.42-0.18,0.59c-0.02,0.07,0.04,0.07,0.1,0.04c0.11-0.05,0.26-0.13,0.38-0.18c0.64-0.27,3.66-1.4,4.49-1.73
		c0.05-0.02,0.1-0.05,0.12-0.11c0.05-0.12,0.13-0.39,0.17-0.55C205.41,77.25,205.38,77.23,205.32,77.25z M198.98,77.05
		c-0.93,0.39-4.1,1.56-4.92,1.91c-0.05,0.02-0.08,0.03-0.1,0.1c-0.03,0.1-0.13,0.42-0.18,0.59c-0.02,0.07,0.04,0.07,0.1,0.04
		c0.11-0.05,0.26-0.13,0.38-0.18c0.64-0.27,3.66-1.4,4.49-1.73c0.05-0.02,0.1-0.05,0.12-0.11c0.05-0.12,0.13-0.39,0.17-0.55
		C199.08,77.05,199.04,77.02,198.98,77.05z M173.53,87.36c-0.4,0.17-0.89,0.19-1.26,0.22c-0.91,0.04-1.16-0.07-1.14-0.12
		c0.06-0.29,0.53-0.53,1-0.69c0.51-0.19,1.07-0.33,1.35-0.43C173.48,86.63,173.51,87.01,173.53,87.36z M179.53,84.05
		c0.08,0.63,0.35,1.64,0.57,2.11c0.34,0.77,1.23,2.31,0.63,2.24c-0.63-0.1-1.53-0.23-2.13-0.96c-0.53-0.7-0.62-1.71-0.79-2.6
		c-0.1-0.55-0.2-1.1-0.32-1.7c-0.09-0.36-0.5,0.83-0.46,1.02c0.11,0.61,0.43,2.53,0.67,3.56c-0.4,0.75-2.14,1.95-3.14,0.97
		c-0.54-0.58-0.53-1.71-0.62-3.11c-0.02-0.48-0.03-0.99-0.08-1.52c-0.04-0.59-0.52,0.77-0.5,1.12c0.01,0.14,0.01,0.24,0.02,0.38
		c-1.58,0.55-2.14,0.88-2.48,1.41c-0.22,0.34-0.44,0.85-0.59,1.34c-0.03,0.12,0.02,0.18,0.12,0.19c1.25,0.13,1.81,0.07,2.22-0.14
		c0.04-0.02,0.07-0.02,0.82-0.64c0.11,1.15,0.29,2.09,1.44,2.35c2,0.35,2.9-1.7,3.03-1.88c0.47,0.66,1.71,1.25,2.39,1.27
		c0.56-0.01,0.9-0.55,1.02-1.12c0.33-1.53-1-2.59-1.43-5.48c-0.01-0.03-0.02-0.05-0.03-0.05C179.79,82.79,179.47,83.73,179.53,84.05
		z M172.55,79.77c0.11,0.12,0.26,0.37,0.29,0.8c0,0.12-0.02,0.3-0.03,0.31c-0.01,0.01-0.24-0.09-0.28-0.11
		c-0.08-0.04-0.31-0.13-0.71-0.28c-0.16-0.03,0-0.28,0-0.28c0.06-0.11,0.16-0.25,0.27-0.36l0.15-0.1
		C172.33,79.71,172.49,79.68,172.55,79.77z M172.46,79.02c-0.46,0.08-1,0.72-1.22,1.45c-0.1,0.33-0.04,0.52,0.14,0.63
		c0.26,0.16,0.64,0.29,1.09,0.41c-0.52,0.87-2.2,2-2.51,2.18c-0.36,0.21-0.3,0.44,0.15,0.24c1.69-0.76,2.53-1.57,2.9-2.29
		c0.12,0.02,0.22,0.06,0.34,0.09c0.2,0.05,0.16,0.08,0.26-0.24c0.05-0.15,0.09-0.26,0.1-0.33l-0.51-0.17l0.05-0.18
		c0.06-0.58-0.09-1.06-0.14-1.21C172.96,79.14,172.74,78.97,172.46,79.02z M178.5,78.99l-0.23,0.43c-0.03,0.05-0.05,0.08-0.03,0.13
		c0.07,0.17,0.12,0.37,0.12,0.48c-0.27,0.26-0.56,0.3-0.77,0.13c-0.14-0.11-0.19-0.32-0.17-0.59c0.01-0.2,0.03-0.27-0.14-0.13
		c-0.22,0.18-0.16,0.17-0.18,0.27c-0.08,0.64-0.36,0.93-0.85,0.97c-0.31,0.02-0.54-0.2-0.32-0.82c0.05-0.13-0.05-0.27-0.18,0
		c-0.47,0.93-0.18,1.45,0.29,1.52c0.39,0.06,0.85-0.16,1.09-0.75c0.18,0.3,0.55,0.39,0.88,0.3c0.42-0.11,0.51-0.3,0.63-0.65
		c0.12-0.33,0.12-0.77-0.04-1.29C178.57,78.9,178.52,78.95,178.5,78.99z M182.46,78.18l-0.19,0.99c-0.06,0.28-0.04,0.31,0,0.55
		c0.11,0.66,0.26,1.31,0.39,1.95c0.32,1.55,0.71,3.5,0.99,4.93c0.2,1.07,0.34,2.16,0.38,3.12c0.01,0.18,0.11,0.17,0.16,0.03
		c0.17-0.53,0.24-1.09,0.24-1.68c0-0.58-0.19-1.75-0.38-2.68c-0.26-1.29-0.61-3.1-0.85-4.27c-0.21-0.99-0.41-1.99-0.53-2.95
		c-0.01-0.11-0.06-0.14-0.1-0.13C182.52,78.04,182.48,78.1,182.46,78.18z M179.23,75.64c-0.93,0.39-4.1,1.56-4.92,1.91
		c-0.05,0.02-0.08,0.03-0.1,0.1c-0.03,0.1-0.13,0.42-0.18,0.59c-0.02,0.07,0.04,0.07,0.1,0.04c0.11-0.05,0.26-0.13,0.38-0.18
		c0.64-0.27,3.66-1.4,4.49-1.73c0.05-0.02,0.1-0.05,0.12-0.11c0.05-0.11,0.13-0.39,0.17-0.55
		C179.32,75.64,179.29,75.61,179.23,75.64z M183.98,75.46c0.08,0.08,0.17,0.19,0.16,0.3c-0.13,0.29-0.95,0.57-1.26,0.66
		c-0.06,0.01-0.38,0.08-0.35-0.02c0.19-0.3,0.37-0.62,0.64-0.87C183.43,75.32,183.71,75.22,183.98,75.46z M183.19,74.93
		c-0.36,0.37-0.85,1.05-1.06,1.49c-0.16-0.01-0.46-0.17-0.6-0.24c-0.19-0.09-0.32,0.1-0.41,0.25c-0.18,0.29-0.33,0.58-0.44,0.9
		l-0.11,0.31c0,0.14,0.06,0.17,0.16,0.07c0.22-0.22,0.39-0.82,0.52-0.74c0.75,0.43,1.71,0.28,2.43-0.22
		c0.56-0.4,0.99-1.01,0.83-1.69c-0.06-0.24-0.33-0.47-0.59-0.49C183.64,74.56,183.4,74.72,183.19,74.93z M156.44,82.61
		c-0.09,0.18-0.24,0.57-0.24,0.68c0,0.06,0.17,0.25,0.36,0.52c0.61,0.86,0.93,1.8,0.75,3.07c-0.02,0.11-0.05,0.21,0.01,0.21
		c0.28-0.01,0.44-0.97,0.43-1.48c-0.02-1.23-0.52-2.21-1.14-2.98C156.55,82.54,156.49,82.51,156.44,82.61z M159.21,80.42
		c0.14,1.32,0.33,2.4,0.54,3.56c0.2,1.17,0.8,4.21-0.1,5c-0.06-0.01-0.37,0.96-0.3,1.01c0.29,0.19,0.53,0.34,1.27,0.44
		c0.8,0.07,1.19,0.13,1.5,0.33c-1.34,1.3-4.44,3.07-6.37,1.39c-0.56-0.52-1.39-1.35-0.33-3.78c0.07-0.17,0.02-0.24-0.03-0.27
		c-0.07-0.03-0.16,0.02-0.22,0.15c-0.41,0.99-0.97,1.91-0.66,3.66c0.35,1.64,2.41,2.39,3.98,1.99c1.24-0.36,2.72-0.94,4.14-2.57
		c0.34-0.38,0.25-1.22,0.02-1.49c-0.47-0.61-1.97-0.26-2.57-0.69c0.3-0.6,0.46-1.18,0.54-2.53c0.5,1.03,1.07,2.19,2.95,2.08
		c1.79-0.11,3.09-0.78,4.22-2.1c0.07-0.09,0.35-1.2,0.2-1.05c-0.88,0.88-1.88,1.68-3.33,1.96c-1.05-0.51-1.52-1.29-1.55-2.18
		c0.2-0.38,1.2-1,1.86-1.18c0.63-0.15,1.22-0.2,1.9,0.27c0.06,0.04,0.19,0.01,0.23-0.04c0.03-0.04,0.08-0.17-0.02-0.26
		c-0.38-0.34-1.26-1.13-2.49-0.86c-0.83,0.22-1.37,0.84-1.9,2.02c-0.48,1.15-0.04,1.72,0.23,2.24c-0.64-0.21-1.19-0.64-1.58-1.21
		c-0.49-0.75-0.72-1.59-1.24-4.12c-0.24-1.21-0.34-1.8-0.5-3.02C159.53,78.82,159.17,80.03,159.21,80.42z M166.14,78.3
		c-0.93,0.39-3.52,1.42-4.34,1.77c-0.05,0.02-0.08,0.03-0.1,0.1c-0.03,0.1-0.13,0.42-0.18,0.59c-0.02,0.07,0.04,0.07,0.1,0.04
		c0.11-0.05,0.26-0.13,0.38-0.18c0.64-0.27,3.08-1.27,3.91-1.6c0.05-0.02,0.1-0.05,0.12-0.11c0.05-0.11,0.13-0.39,0.17-0.55
		C166.23,78.3,166.19,78.27,166.14,78.3z M161.51,76.02c-0.93,0.39-3.03,1.23-3.85,1.58c-0.05,0.02-0.08,0.03-0.1,0.1
		c-0.03,0.1-0.13,0.42-0.18,0.59c-0.02,0.07,0.04,0.07,0.1,0.04c0.11-0.05,0.26-0.13,0.39-0.18c0.64-0.27,2.6-1.07,3.42-1.4
		c0.05-0.02,0.1-0.05,0.12-0.11c0.05-0.11,0.13-0.39,0.17-0.55C161.61,76.02,161.57,76,161.51,76.02z M138.84,94.45
		c-0.93,0.39-3.03,1.23-3.85,1.58c-0.05,0.02-0.08,0.03-0.1,0.1c-0.03,0.1-0.13,0.42-0.18,0.59c-0.02,0.07,0.04,0.07,0.1,0.05
		c0.11-0.05,0.26-0.13,0.38-0.18c0.64-0.27,2.6-1.07,3.42-1.4c0.05-0.02,0.1-0.05,0.12-0.11c0.05-0.11,0.13-0.39,0.17-0.55
		C138.93,94.45,138.9,94.43,138.84,94.45z M133.09,93.6c-0.93,0.39-4.1,1.56-4.92,1.91c-0.05,0.02-0.08,0.03-0.1,0.1
		c-0.03,0.1-0.13,0.42-0.18,0.59c-0.02,0.07,0.04,0.07,0.1,0.04c0.11-0.05,0.26-0.13,0.38-0.18c0.64-0.27,3.66-1.41,4.49-1.73
		c0.05-0.02,0.1-0.05,0.12-0.11c0.05-0.11,0.13-0.39,0.17-0.55C133.18,93.6,133.14,93.58,133.09,93.6z M137.14,89.01
		c-0.17,0.28-0.4,0.69-0.53,0.94c-0.05,0.1-0.05,0.18,0.06,0.24c0.22,0.12,0.61,0.33,0.89,0.48c0.12,0.06,0.19,0.05,0.24-0.03
		c0.15-0.25,0.38-0.64,0.52-0.88c0.05-0.09,0.07-0.16-0.02-0.21c-0.26-0.16-0.69-0.42-0.95-0.57
		C137.23,88.91,137.19,88.93,137.14,89.01z M132.25,90.82c-0.59,1.34-2.34-0.4-2.47-0.87c0.03-0.01,0.08-0.01,0.14-0.01
		C130.5,89.93,132.42,90.24,132.25,90.82z M122.06,87.08c0.22,0.18,0.25,0.39,0.81,1.41c-1.17-0.18-1.75-0.43-1.83-0.48
		c-0.25-0.15,0.21-1.03,0.74-1.03C121.87,86.98,121.97,87.01,122.06,87.08z M131.47,86.13c-0.49,0.88-1.6,1.39-1.82,1.49
		c0.11-0.31,0.54-1.95,1.04-2.25c0.04-0.02,0.08-0.03,0.13-0.03C131.18,85.33,131.65,85.83,131.47,86.13z M136.41,84.57
		c0.57,0.5,1.06,1.29,1.27,1.72c0.09,0.21,0.09,0.23-0.07,0.35c-1.78,1.33-6.77,2.02-7.57,1.97c1.07-0.81,1.66-1.1,1.92-2.67
		c0.19-1.25-0.73-2.28-1.26-1.69c-0.59,0.68-1.17,2.33-1.4,3.55c-0.81,0.44-2.76,0.73-4.34,0.43c-2.23-0.48-1.92-1.18-2.54-1.86
		c-0.27-0.28-0.65-0.22-0.91-0.04c-0.45,0.31-0.81,0.95-0.85,1.04c-0.25,0.56,0.17,1.78,0.27,1.87c-0.57,0.86-3.68,2.84-3.82,2.94
		c-0.09,0.08-0.02,0.21,0.18,0.17c1.37-0.25,3.72-1.42,4-2.99c0.56,0.19,2.03,0.38,2.38,0.4c0.26,0.04,0.24-0.02,0.38-0.57
		c0.95,0.45,3.58,0.28,4.07,0.22c-0.11,0.32-0.13,0.34-0.1,0.35c0.36,0.04,0.69,0.06,1.2,0.11c1.14,3.08,2.6,2.87,3.06,2.45
		c0.62-0.57,0.72-2.38,0.02-2.85c1.1-0.09,5.06-0.92,5.67-2.12c0.83-2.07-0.77-3.63-1.34-4.1
		C136.48,83.14,136.38,84.53,136.41,84.57z M120.73,81.8c-0.03,0.08-0.09,0.2-0.12,0.28c-0.04,0.14,0.04,0.24,0.11,0.13
		c0.08-0.13,0.19-0.25,0.32-0.33c0.31-0.19,0.65-0.26,0.99-0.23c0.31,0.03,0.89,0.25,0.89,0.28c0,0.07-1.35,0.73-1.56,0.87
		c-0.09,0.06-0.2,0.16-0.18,0.27c0.02,0.08,0.15,0.1,0.25,0.06c0.53-0.19,0.72-0.18,1.15-0.36c0.58-0.25,0.75-0.55,0.85-0.58
		c0.04-0.01,0.09-0.01,0.14-0.05c0.17-0.15,0.31-0.57,0.32-0.71c-0.02-0.11-0.41-0.15-0.52-0.17c-0.38-0.09-0.75-0.29-1.14-0.32
		C121.62,80.88,121.05,81.15,120.73,81.8z M149.73,79.79c-0.16,0.24-0.35,0.59-0.54,0.88c-0.27-0.18-0.62-0.39-0.86-0.55
		c-0.13-0.08-0.18-0.07-0.26,0.05c-0.14,0.21-0.35,0.54-0.5,0.8c-0.05,0.1-0.04,0.18,0.1,0.26c0.26,0.15,0.66,0.38,0.9,0.51
		c0.08,0.04,0.14,0.01,0.2-0.07c0.13-0.18,0.28-0.45,0.49-0.79c0.36,0.21,0.65,0.4,0.94,0.54c0.08,0.04,0.12,0.03,0.18-0.04
		c0.14-0.18,0.39-0.58,0.5-0.78c0.07-0.14,0.05-0.19-0.07-0.27c-0.19-0.12-0.65-0.41-0.88-0.56
		C149.82,79.71,149.78,79.72,149.73,79.79z M143.61,88.18c-1.04,0.21-1.62-0.06-1.69-0.24c-0.1-0.35,0.23-0.99,0.6-1
		C142.82,86.94,143.26,87.4,143.61,88.18z M150.38,85.9c-0.82,0.86-1.73,0.15-1.73-0.08c-0.02-0.18,0.29-0.83,0.64-0.83
		C149.68,84.99,150.09,85.53,150.38,85.9z M145.16,80.75c0.14,1.19,0.34,2.03,0.51,3.17c0.16,1,0.3,1.83,0.55,2.9
		c-0.46,0.66-1.24,1.01-1.91,1.16c-0.24-0.65-0.5-1.41-1.04-1.96c-0.43-0.42-0.76-0.59-1.23,0.05c-0.3,0.39-0.48,1.02-0.57,1.53
		c-0.13,0.71,0.01,1.59,0.65,1.8c0.54,0.17,1.35,0,1.94-0.16c-0.47,1.4-1.39,2.28-2.47,2.89c-1.29,0.75-2.96,0.89-4.96,0.46
		c-0.18-0.02-0.23,0.27-0.09,0.33c3.16,1.07,4.99,0.67,5.9-0.04c1.09-0.89,1.76-1.71,2.13-3.77c0.89-0.42,1.49-0.72,1.83-1.59
		c0.23,0.96,0.3,1.66,0.97,2.19c0.58,0.43,1.2,0.59,1.98,0.36c0.9-0.28,1.63-0.74,2-1.5c0.2-0.51,0.33-1.78-0.13-2.94
		c-0.33-0.72-0.74-1.3-1.36-1.77c-0.43-0.32-0.88-0.17-1.24,0.52c-0.35,0.72-0.5,1.64-0.44,2.04c0.1,0.61,0.43,0.9,0.9,1.11
		c0.37,0.14,1.13,0.11,1.71-0.85c0.1,0.23,0.29,0.74,0.33,1.03c-0.29,0.71-1.43,1.23-2.46,1.19c-0.48-0.03-1.33-0.15-1.68-1.65
		c-0.33-1.2-0.55-2.46-0.79-3.75c-0.23-1.35-0.47-2.47-0.64-4.09C145.48,79.05,145.09,80.3,145.16,80.75z M145.24,75.31
		c0.1,0.12,0.26,0.37,0.28,0.8c0,0.12-0.02,0.3-0.03,0.31c-0.01,0.01-0.24-0.09-0.28-0.11c-0.08-0.04-0.31-0.13-0.71-0.28
		c-0.16-0.03,0-0.28,0-0.28c0.06-0.11,0.16-0.25,0.27-0.37l0.15-0.1C145.02,75.25,145.17,75.22,145.24,75.31z M145.15,74.56
		c-0.46,0.08-1,0.72-1.23,1.45c-0.1,0.33-0.04,0.52,0.14,0.63c0.26,0.16,0.64,0.29,1.09,0.41c-0.52,0.87-2.2,2-2.51,2.18
		c-0.36,0.21-0.3,0.44,0.16,0.24c1.69-0.76,2.52-1.57,2.9-2.29c0.12,0.02,0.22,0.06,0.34,0.09c0.2,0.05,0.16,0.08,0.27-0.24
		c0.05-0.15,0.09-0.26,0.1-0.33l-0.51-0.17l0.05-0.18c0.06-0.58-0.09-1.06-0.14-1.21C145.65,74.68,145.43,74.51,145.15,74.56z
		 M150.31,74.84c0.1,0.12,0.26,0.37,0.29,0.8c0,0.12-0.02,0.3-0.03,0.31c-0.01,0.01-0.24-0.09-0.28-0.11
		c-0.08-0.04-0.31-0.13-0.71-0.28c-0.16-0.03,0-0.28,0-0.28c0.06-0.11,0.16-0.25,0.27-0.37l0.15-0.1
		C150.1,74.78,150.25,74.75,150.31,74.84z M150.23,74.09c-0.46,0.08-1.01,0.72-1.23,1.45c-0.1,0.33-0.04,0.52,0.14,0.63
		c0.26,0.16,0.64,0.29,1.09,0.41c-0.52,0.87-2.2,2-2.51,2.18c-0.36,0.21-0.3,0.44,0.15,0.24c1.69-0.76,2.52-1.57,2.9-2.29
		c0.12,0.02,0.22,0.06,0.34,0.09c0.2,0.06,0.16,0.08,0.26-0.24c0.05-0.15,0.09-0.26,0.1-0.33l-0.51-0.17l0.05-0.18
		c0.06-0.58-0.09-1.06-0.14-1.21C150.73,74.21,150.5,74.04,150.23,74.09z M115.24,86.29c-0.35,0.51-0.83,0.73-1.37,0.22
		c-0.18-0.18-0.18-0.24-0.1-0.44c0.18-0.36,0.43-0.52,0.6-0.53C114.62,85.53,115.04,85.99,115.24,86.29z M113.84,84.51
		c-0.33,0.36-0.61,1.16-0.63,1.91c-0.04,0.84,0.41,1.68,1.21,1.7c0.49,0.01,0.94-0.44,1.2-1.08c0.17,1.03-0.69,2.57-1.88,3.53
		c-1.41,1.07-2.75,1.2-4.73,1.11c-0.32-0.04-0.47,0.28-0.09,0.37c1.77,0.4,4.18,0.47,5.44-0.66c1.04-0.93,1.66-2.37,1.76-4
		c0.05-1.02-0.27-2.19-1.12-2.93C114.54,84.08,114.2,84.11,113.84,84.51z M116.63,78.78c-0.93,0.39-4.1,1.56-4.92,1.91
		c-0.05,0.02-0.08,0.03-0.1,0.1c-0.03,0.1-0.13,0.42-0.18,0.59c-0.02,0.07,0.04,0.07,0.1,0.04c0.11-0.05,0.26-0.13,0.39-0.18
		c0.64-0.27,3.66-1.41,4.49-1.73c0.05-0.02,0.1-0.05,0.12-0.11c0.05-0.12,0.13-0.39,0.17-0.55
		C116.72,78.77,116.68,78.75,116.63,78.78z M98.72,81.91c-0.09,0.18-0.24,0.57-0.24,0.68c0,0.06,0.17,0.25,0.36,0.52
		c0.61,0.86,0.93,1.8,0.75,3.07c-0.02,0.11-0.05,0.21,0.01,0.21c0.28-0.01,0.44-0.97,0.43-1.48c-0.02-1.23-0.52-2.21-1.14-2.98
		C98.82,81.84,98.76,81.81,98.72,81.91z M101.82,80.13c0.15,1.35,0.34,2.47,0.55,3.66c0.21,1.21,0.83,4.33-0.1,5.14
		c-0.07-0.01-0.38,0.99-0.31,1.03c0.3,0.2,0.54,0.35,1.3,0.45c0.82,0.07,1.23,0.13,1.55,0.34c-1.38,1.33-4.56,3.15-6.55,1.43
		c-0.58-0.54-1.43-1.39-0.34-3.88c0.07-0.18,0.02-0.25-0.04-0.27c-0.07-0.03-0.16,0.02-0.22,0.15c-0.42,1.02-1,1.96-0.68,3.76
		c0.36,1.69,2.48,2.46,4.09,2.04c1.28-0.37,2.79-0.97,4.25-2.64c0.35-0.39,0.26-1.26,0.02-1.53c-0.49-0.63-2.02-0.27-2.65-0.71
		c0.31-0.61,0.47-1.22,0.56-2.6c0.52,1.06,1.1,2.25,3.04,2.14c1.84-0.11,3.17-0.8,4.34-2.16c0.07-0.09,0.36-1.23,0.21-1.08
		c-0.9,0.91-1.93,1.73-3.42,2.01c-1.08-0.52-1.56-1.32-1.59-2.24c0.2-0.4,1.23-1.03,1.91-1.21c0.64-0.15,1.25-0.2,1.95,0.28
		c0.06,0.04,0.2,0.01,0.23-0.04c0.03-0.04,0.08-0.17-0.02-0.27c-0.39-0.35-1.3-1.16-2.56-0.88c-0.85,0.22-1.41,0.87-1.96,2.07
		c-0.49,1.18-0.04,1.77,0.23,2.3c-0.66-0.22-1.22-0.65-1.63-1.24c-0.5-0.77-0.74-1.64-1.28-4.24c-0.25-1.24-0.35-1.85-0.52-3.11
		C102.15,78.49,101.78,79.73,101.82,80.13z M109.98,78.44c-0.93,0.39-4.1,1.56-4.92,1.91c-0.05,0.02-0.08,0.03-0.1,0.1
		c-0.03,0.1-0.13,0.42-0.18,0.59c-0.02,0.07,0.04,0.07,0.1,0.04c0.11-0.05,0.26-0.13,0.38-0.18c0.64-0.27,3.66-1.4,4.49-1.73
		c0.05-0.02,0.1-0.05,0.12-0.11c0.05-0.11,0.13-0.39,0.17-0.55C110.08,78.44,110.04,78.41,109.98,78.44z M104.23,76.24
		c-0.93,0.39-3.52,1.42-4.34,1.77c-0.05,0.02-0.08,0.03-0.1,0.1c-0.03,0.1-0.13,0.42-0.18,0.59c-0.02,0.07,0.04,0.07,0.1,0.05
		c0.11-0.05,0.26-0.13,0.38-0.18c0.64-0.27,3.08-1.27,3.91-1.6c0.05-0.02,0.1-0.05,0.12-0.11c0.05-0.11,0.13-0.39,0.17-0.55
		C104.32,76.24,104.29,76.22,104.23,76.24z M68.45,93.63c-0.93,0.39-4.1,1.56-4.92,1.91c-0.05,0.02-0.08,0.03-0.1,0.1
		c-0.03,0.1-0.13,0.42-0.18,0.59c-0.02,0.07,0.04,0.07,0.1,0.04c0.11-0.05,0.26-0.13,0.39-0.18c0.64-0.27,3.66-1.41,4.49-1.73
		c0.05-0.02,0.1-0.05,0.12-0.11c0.05-0.11,0.13-0.39,0.17-0.55C68.54,93.63,68.51,93.61,68.45,93.63z M75.33,91.48
		c-0.93,0.39-3.52,1.42-4.34,1.77c-0.05,0.02-0.08,0.03-0.1,0.1c-0.03,0.1-0.13,0.42-0.18,0.59c-0.02,0.07,0.04,0.07,0.1,0.04
		c0.11-0.05,0.26-0.13,0.39-0.18c0.64-0.27,3.08-1.27,3.91-1.6c0.05-0.02,0.1-0.05,0.12-0.11c0.05-0.12,0.13-0.39,0.17-0.55
		C75.43,91.48,75.39,91.45,75.33,91.48z M64.15,90.25c0.31,0.02,2.69,0.23,2.52,0.74c-0.45,1.25-1.91,0.49-2.46-0.57l-0.08-0.18
		L64.15,90.25z M56.11,88.37c-0.79-0.16-1.68-0.3-1.8-0.74c-0.06-0.26,0.58-0.92,0.82-0.94C55.42,86.66,55.67,87.54,56.11,88.37z
		 M80.16,88.12c-0.52-0.03-1.91-0.58-1.83-0.81c0.19-0.32,0.67-0.84,0.92-0.8C79.61,86.56,80.03,87.78,80.16,88.12z M66.11,86.22
		c0.11,0.23-1.43,1.46-1.93,1.71c0.19-0.44,0.56-1.9,1.06-2.1c0.06-0.02,0.12-0.03,0.17-0.04C65.74,85.8,66.06,86.08,66.11,86.22z
		 M65.01,84.93c-0.65,0.83-0.99,2.4-1.24,3.19c-3.09,1.11-6.18,0.33-6.91-0.39c-0.7-0.61-1.12-1.65-1.46-1.78
		c-0.37-0.17-1.11,0.62-1.31,0.96c-0.54,0.81-0.54,1.5-0.04,1.88c-1.44,1.72-4.61,3.41-4.89,3.51c-0.26,0.12-0.26,0.27,0.07,0.22
		c3.04-0.56,4.63-1.91,5.11-3.48c0.56,0.37,2,0.73,2.73,0.84c0.12,0.02,0.08-0.06,0.24-0.51c1.26,0.49,3.79,0.46,5.05,0.3
		c-0.07,0.29-0.11,0.44-0.08,0.45c0.2,0.04,0.7,0.08,1.26,0.11c0.63,1.28,0.95,2,1.62,2.45c0.33,0.24,1.36,0.58,1.84-0.65
		c0.06-0.15,0.43-1.56-0.1-2.15c2.42-0.25,4.51-1.13,5.57-1.55c0.45,0.54,1.34,1.52,2.53,1.45c2-0.05,2.79-1.37,2.98-1.7
		c-0.12,1.02,1.82,1.3,3.24,1.72c0.08,0.03,0.16-0.43,0.21-0.65c1.07,0.6,3.85,0.39,6.17-0.2c3.02,0.21,3.9-0.43,4.34-1.23
		c0.47,0.58,1.68,1.22,2.29,0.7c0.39-0.37,0.72-2.63,0.2-3.88c-0.07-0.22-0.45,1.09-0.45,1.17c-0.02,0.22,0.21,1.14,0.22,1.56
		c0,0.15-0.55,0.15-1.82-0.53c0.12-0.34,0.42-0.9,0.43-1.38c-0.01-0.26-0.17-0.18-0.22-0.06c-0.23,0.39-0.55,1.32-0.86,1.69
		c-0.59,0.74-2.13,0.88-2.84,0.92c0.19-0.19,0.97-1.14,0.88-1.88c-0.03-0.22-0.14-0.19-0.2-0.06c-0.12,0.22-0.43,0.92-1.12,1.37
		c-0.83,0.58-4.7,1.43-6.74,0.54c-0.85-0.36-1.19-0.91-1.77-1.75c-0.45-0.66-0.84-0.47-1.69,0.59c-0.28,0.36-0.61,0.84-0.78,0.98
		c-0.77,0.7-2.74,1.32-3.89,0.18c0.22-0.25,1.33-1.29,0.8-1.91c-1.19-1.34-4.13-0.79-4.39,0.95c-0.04,0.2,0.05,0.22,0.1,0.2
		c0.39-0.17,1.19-0.17,1.62,0.32c-1.24,0.83-5.04,1.55-7.41,1.54c1.5-0.87,2.4-2.24,2.29-3.16c-0.1-0.91-0.47-1.33-0.88-1.34
		C65.49,84.49,65.23,84.64,65.01,84.93z M53.6,82.19c-0.03,0.08-0.09,0.2-0.12,0.28c-0.04,0.14,0.04,0.24,0.11,0.13
		c0.08-0.13,0.19-0.25,0.32-0.33c0.31-0.19,0.65-0.26,0.99-0.23c0.31,0.03,0.89,0.25,0.89,0.28c0,0.07-1.35,0.73-1.56,0.87
		c-0.09,0.06-0.2,0.16-0.18,0.27c0.02,0.08,0.15,0.1,0.25,0.06c0.53-0.19,0.72-0.18,1.15-0.36c0.58-0.25,0.75-0.55,0.85-0.58
		c0.04-0.01,0.09-0.01,0.14-0.05c0.17-0.15,0.31-0.57,0.32-0.71c-0.02-0.11-0.4-0.15-0.52-0.17c-0.38-0.09-0.75-0.29-1.14-0.32
		C54.49,81.27,53.92,81.55,53.6,82.19z M78.03,80.46c-0.03,0.08-0.09,0.2-0.12,0.28c-0.04,0.14,0.04,0.24,0.11,0.13
		c0.08-0.13,0.19-0.25,0.32-0.33c0.31-0.19,0.65-0.26,0.99-0.23c0.31,0.03,0.89,0.25,0.89,0.28c0,0.07-1.35,0.73-1.56,0.87
		c-0.09,0.06-0.2,0.16-0.18,0.27c0.02,0.08,0.15,0.1,0.25,0.06c0.53-0.19,0.72-0.18,1.15-0.36c0.58-0.25,0.75-0.55,0.85-0.58
		c0.04-0.01,0.09-0.01,0.14-0.05c0.17-0.16,0.31-0.57,0.32-0.71c-0.02-0.11-0.4-0.15-0.52-0.17c-0.38-0.09-0.75-0.29-1.14-0.32
		C78.92,79.54,78.35,79.82,78.03,80.46z M93.17,78.18c-0.93,0.39-5.12,1.74-5.93,2.09c-0.05,0.02-0.08,0.03-0.1,0.1
		c-0.03,0.1-0.18,0.48-0.22,0.65c-0.02,0.07,0.04,0.07,0.1,0.04c0.11-0.05,0.3-0.15,0.43-0.2c0.68-0.24,4.63-1.57,5.46-1.89
		c0.05-0.02,0.1-0.05,0.12-0.11c0.05-0.11,0.17-0.45,0.22-0.61C93.27,78.18,93.23,78.15,93.17,78.18z M58.32,74.34
		c-0.19,0.27-0.58,0.42-1.02,0.53c-0.32,0.09-0.71,0.14-1.04,0.11c0.32-0.42,0.71-0.77,1.13-0.95
		C57.77,73.87,58.07,73.93,58.32,74.34z M53.58,72.19c-0.07,0.15-0.12,0.2-0.19,0.32c-0.02,0.04-0.02,0.09-0.02,0.09
		c0.15,0.95,0.22,1.71,0.28,2.3c-0.02,0.13-0.08,0.24-0.26,0.34c-0.53,0.34-1.07,0.87-1.11,1.59c0,0.51,0.52,0.57,1.26,0.51
		c1.8-0.14,3.49-0.45,5.09-0.61c0.09-0.12,0.15-0.23,0.25-0.41c0.03-0.06,0.02-0.08-0.02-0.08c-1.62,0.11-3.43,0.46-5.15,0.57
		c-0.32,0.02-0.63,0.01-0.94-0.08c-0.12-0.03-0.19-0.14-0.19-0.18c0-0.08,0.03-0.14,0.09-0.18c0.29-0.25,0.73-0.52,0.97-0.85
		c0.09-0.13,0.12-0.2,0.18-0.32c0.3,0.79,1.13,0.65,1.46-0.03c0.33,0.32,0.8,0.48,1.28,0.44c0.47-0.03,0.99-0.21,1.39-0.42
		c0.4-0.23,0.71-0.61,0.68-1.08c-0.02-0.42-0.44-0.84-0.97-0.78c-0.55,0.06-1.3,1.02-1.7,1.59c-0.2-0.04-0.35-0.17-0.49-0.41
		c-0.09-0.13-0.15-0.03-0.19,0.03c-0.22,0.4-0.44,0.54-0.71,0.57c-0.32,0.03-0.52-0.13-0.6-0.49c-0.12-0.5-0.26-1.65-0.34-2.45
		C53.64,72.16,53.6,72.15,53.58,72.19z M46.89,86.03c-0.35,0.51-0.83,0.73-1.37,0.22c-0.19-0.18-0.18-0.24-0.1-0.44
		c0.18-0.36,0.43-0.52,0.6-0.53C46.26,85.27,46.68,85.73,46.89,86.03z M45.49,84.25c-0.33,0.36-0.61,1.16-0.63,1.91
		c-0.04,0.84,0.41,1.68,1.21,1.7c0.49,0.01,0.94-0.44,1.2-1.08c0.17,1.03-0.69,2.57-1.89,3.53c-1.41,1.07-2.75,1.2-4.73,1.12
		c-0.32-0.04-0.47,0.28-0.09,0.37c1.77,0.4,4.18,0.47,5.44-0.66c1.04-0.93,1.66-2.37,1.76-4c0.05-1.02-0.27-2.19-1.12-2.93
		C46.19,83.81,45.85,83.85,45.49,84.25z M48.75,78.95c-0.93,0.39-4.1,1.56-4.92,1.91c-0.05,0.02-0.08,0.03-0.1,0.1
		c-0.03,0.1-0.13,0.42-0.18,0.59c-0.02,0.07,0.04,0.07,0.1,0.05c0.11-0.05,0.26-0.13,0.38-0.18c0.64-0.27,3.66-1.41,4.49-1.73
		c0.05-0.02,0.1-0.05,0.12-0.11c0.05-0.12,0.13-0.39,0.17-0.55C48.85,78.95,48.81,78.93,48.75,78.95z M27.25,84.85
		c-0.09,0.18-0.24,0.57-0.24,0.68c0,0.06,0.17,0.25,0.36,0.52c0.61,0.86,0.93,1.8,0.74,3.07c-0.02,0.11-0.05,0.21,0.01,0.21
		c0.28-0.01,0.44-0.97,0.43-1.48c-0.02-1.23-0.52-2.21-1.14-2.98C27.36,84.79,27.3,84.76,27.25,84.85z M29.58,82.04
		c-0.64,0.65-1.83,1.13-2.76,1.11c-0.64-0.02-0.99-0.17-1.31-0.4c-0.08-0.06-0.16-0.05-0.22,0.03c-0.22,0.28-0.51,0.92-0.59,1.37
		c-0.02,0.08-0.03,0.19,0.01,0.21c0.04,0.02,0.1-0.01,0.13-0.07c0.09-0.22,0.19-0.6,0.38-0.81c0.03-0.03,0.08-0.01,0.11,0.01
		c0.4,0.27,1.01,0.42,1.63,0.39c0.87-0.04,2.44-0.57,2.69-1.75c0.01-0.06,0.02-0.11,0-0.12C29.64,81.99,29.61,82,29.58,82.04z
		 M40.53,78.45c-0.93,0.39-4.68,1.66-5.5,2.01c-0.05,0.02-0.08,0.03-0.1,0.1c-0.03,0.1-0.13,0.42-0.18,0.59
		c-0.02,0.07,0.04,0.07,0.1,0.04c0.11-0.05,0.26-0.13,0.38-0.18c0.64-0.27,4.24-1.51,5.07-1.84c0.05-0.02,0.1-0.05,0.12-0.11
		c0.05-0.12,0.13-0.39,0.17-0.55C40.62,78.45,40.58,78.42,40.53,78.45z M30.08,79.7c0.15,1.4,0.35,2.62,0.57,3.86
		c0.21,1.25,0.78,4.57-0.1,5.32c-0.21,0.04-0.47,0.97-0.31,1.07c0.3,0.21,0.54,0.36,1.31,0.47c0.83,0.07,1.23,0.14,1.55,0.35
		c-1.38,1.38-4.58,3.27-6.58,1.48c-0.58-0.56-1.43-1.47-0.36-4.04c0.11-0.4-0.16-0.31-0.25-0.11c-0.39,1.05-1.04,2.03-0.67,3.9
		c0.51,1.92,2.49,2.51,4.11,2.12c1.28-0.38,2.8-1,4.27-2.73c0.27-0.73,0.11-1.44,0.02-1.59c-0.49-0.65-2.03-0.28-2.66-0.74
		c0.31-0.64,0.47-1.26,0.56-2.69c0.53,2.09,2.61,2.6,4.46,2.24c2-0.35,3.82-1.11,5.16-2.14c0.36-0.22,0.6-1.41,0.28-1.17
		c-1.12,0.78-1.79,1.33-3.46,1.74c-1.08-0.54-1.58-1.22-1.61-2.17c0.2-0.41,1.24-1.06,1.92-1.25c0.65-0.16,1.25-0.21,1.96,0.29
		c0.14,0.11,0.42-0.11,0.21-0.31c-0.4-0.36-1.3-1.2-2.57-0.92c-0.86,0.23-1.41,0.9-1.96,2.15c-0.49,1.22,0.15,2.02,0.43,2.57
		c-2.36,0.59-3.65-0.75-4.06-1.36c-0.5-0.8-0.78-1.71-1.31-4.38c-0.25-1.28-0.33-1.85-0.51-3.14C30.38,77.95,30.03,79.27,30.08,79.7
		z M32.48,75.79c-0.93,0.39-3.52,1.42-4.34,1.77c-0.05,0.02-0.08,0.03-0.1,0.1c-0.03,0.1-0.13,0.42-0.18,0.59
		c-0.02,0.07,0.04,0.07,0.1,0.04c0.11-0.05,0.26-0.13,0.38-0.18c0.64-0.27,3.08-1.27,3.91-1.6c0.05-0.02,0.1-0.05,0.12-0.11
		c0.05-0.11,0.13-0.39,0.17-0.55C32.57,75.79,32.54,75.77,32.48,75.79z M247.77,120.71c-0.93,0.39-4.1,1.56-4.92,1.91
		c-0.05,0.02-0.08,0.03-0.1,0.1c-0.03,0.1-0.13,0.42-0.18,0.59c-0.02,0.07,0.04,0.07,0.1,0.04c0.11-0.05,0.26-0.13,0.38-0.18
		c0.64-0.27,3.66-1.4,4.49-1.73c0.05-0.02,0.1-0.05,0.12-0.11c0.05-0.12,0.13-0.39,0.17-0.55
		C247.87,120.71,247.83,120.68,247.77,120.71z M264.75,117.02c-0.17,0.28-0.4,0.69-0.53,0.94c-0.05,0.1-0.05,0.17,0.06,0.23
		c0.22,0.12,0.61,0.33,0.89,0.48c0.12,0.06,0.18,0.05,0.24-0.03c0.15-0.25,0.38-0.64,0.52-0.88c0.05-0.09,0.07-0.16-0.02-0.21
		c-0.26-0.16-0.69-0.42-0.95-0.57C264.85,116.92,264.8,116.94,264.75,117.02z M241.93,115.89c-0.93,0.39-3.52,1.42-4.34,1.77
		c-0.05,0.02-0.08,0.03-0.1,0.1c-0.03,0.1-0.13,0.42-0.18,0.59c-0.02,0.07,0.04,0.07,0.1,0.04c0.11-0.05,0.26-0.13,0.38-0.18
		c0.64-0.27,3.09-1.27,3.91-1.6c0.05-0.02,0.1-0.05,0.12-0.11c0.05-0.12,0.13-0.39,0.17-0.55
		C242.02,115.89,241.99,115.87,241.93,115.89z M262.11,113.69c-0.66,1.12-3.38,1.88-5.5,1.76c0.47-0.35,1.04-0.83,1.6-1.34
		c0.49-0.49,1.18-1.09,1.6-1.16C260.57,112.8,261.68,113.18,262.11,113.69z M264.17,111.98c0.63,0.58,0.88,1.21,1.08,1.94
		c-0.85,0.65-2.22,0.95-3.39,1.16c0.58-0.62,0.88-1.8,0.85-2.11c-0.08-0.56-0.44-1.3-2.13-1.32c-0.83,0.06-1.55,0.9-2.41,1.67
		c-0.78,0.74-1.26,1.11-2.33,2.03c-0.58-0.11-1.05-0.26-1.56-0.62c0.09-0.28,0.16-0.48,0.17-0.96c0-0.21-0.18-0.22-0.27-0.06
		c-0.69,1.23-2.13,1.53-3.35,1.8c-0.95,0.17-2.08,0.25-3.45-0.13c-0.77-0.25-1.43-0.61-1.57-1.42c-0.02-0.13-0.14-0.24-0.21-0.02
		c-0.25,0.96-0.43,1.81,0.82,2.43c-1.36,3.19-4.02,4.18-7.47,2.96c-0.19-0.06-0.38,0.17-0.2,0.28c4.53,2.04,7.24,0.78,8.16-3.05
		c1.13,0.36,2.38,0.41,3.55,0.22c1.26-0.22,2.76-0.61,3.46-1.45c0.12,0.33,0.22,0.58,0.62,0.9c-0.53,1.24-0.79,2.22-1.03,3.21
		c-0.03,0.16,0.11,0.24,0.17,0.09c0.39-1,0.74-1.97,1.26-3.09c1.34,0.39,3.5,0.33,5.34,0.08c1.74-0.26,3.99-0.64,4.95-1.57
		c0.32-0.32,0.64-1.35,0.45-2.34c-0.14-0.77-0.54-1.42-1.1-1.97C264.34,110.41,264.1,111.89,264.17,111.98z M250.14,109.04
		c-0.09,0.18-0.24,0.57-0.24,0.68c0,0.06,0.17,0.25,0.36,0.52c0.61,0.86,0.93,1.8,0.75,3.07c-0.01,0.11-0.05,0.21,0.01,0.21
		c0.28-0.01,0.44-0.97,0.43-1.48c-0.02-1.23-0.52-2.21-1.14-2.98C250.24,108.97,250.18,108.94,250.14,109.04z M231.59,109.43
		c-0.04,0.08-0.09,0.2-0.12,0.28c-0.04,0.14,0.04,0.24,0.11,0.13c0.08-0.13,0.19-0.25,0.32-0.33c0.31-0.19,0.65-0.26,0.99-0.23
		c0.31,0.03,0.89,0.25,0.89,0.28c0,0.07-1.35,0.73-1.56,0.87c-0.09,0.06-0.2,0.16-0.18,0.27c0.02,0.08,0.15,0.1,0.25,0.06
		c0.53-0.19,0.72-0.18,1.15-0.36c0.58-0.25,0.75-0.55,0.85-0.58c0.04-0.01,0.09-0.01,0.14-0.05c0.17-0.15,0.31-0.57,0.32-0.71
		c-0.02-0.11-0.41-0.15-0.52-0.17c-0.38-0.09-0.75-0.29-1.14-0.32C232.47,108.51,231.9,108.78,231.59,109.43z M235.16,116.23
		c-1.3,0.03-1.9-0.28-2.23-0.68c-0.26-0.35,0.22-0.62,0.61-0.77c0.06-0.02,0.12-0.03,0.18-0.03
		C234.14,114.75,234.67,115.26,235.16,116.23z M241.64,112.53c0.09,0.22-0.06,0.42-0.29,0.34c-0.43-0.14-1.07-0.36-1.64-0.45
		c0.2-0.61,0.14-1.07,0.15-1.69C241.27,111.81,241.57,112.38,241.64,112.53z M238.49,110.62c0.32,0.15,0.88,0.51,1.02,1.38
		c0,0.06-0.34,0.25-0.64,0.37c-0.47,0-1.19,0.04-1.28-0.11c-0.07-0.12-0.29-0.79,0.35-1.54c0.08-0.09,0.16-0.15,0.28-0.15
		C238.3,110.55,238.38,110.57,238.49,110.62z M237.12,109.47c0.01,0.12,0.03,0.11,0.37,0.26c-0.66,1.08-0.86,2.94-0.14,3.51
		c-1.18,0.59-1.95,0.76-2.86,0.58c-0.5-0.08-1.34-0.02-1.89,1.02c-0.2,0.57-0.11,1.51,0,1.8c-1.31,1.61-2.78,2.08-4.76,3.24
		c-0.09,0.04-0.2,0.16,0.08,0.12c2.07-0.39,4.45-1.05,4.98-3.04c0.31,0.45,2.66,0.66,2.69,0.47c0.25-1.1,0.34-1.06-0.3-2.65
		c0.47,0.04,0.93-0.01,1.42-0.21c0.95-0.43,1.09-0.59,2.02-1.09c0.89,0.16,1.34,0.23,2.12,0.53c0.66,0.22,1.01,0.38,1.26-0.68
		c0.28-1.19-0.28-2.17-1.21-3.15c-0.48-0.47-1.59-1.73-3.5-2.31c-0.02,0-0.05-0.01-0.07,0
		C236.89,107.89,237.12,108.99,237.12,109.47z M261.55,107.91c-0.04,0.08-0.09,0.2-0.12,0.28c-0.04,0.14,0.04,0.24,0.11,0.13
		c0.08-0.13,0.19-0.25,0.32-0.33c0.31-0.19,0.65-0.26,0.99-0.23c0.31,0.03,0.89,0.25,0.89,0.28c0,0.07-1.35,0.73-1.56,0.87
		c-0.09,0.06-0.2,0.16-0.18,0.27c0.02,0.08,0.15,0.1,0.25,0.06c0.53-0.19,0.72-0.18,1.15-0.36c0.58-0.25,0.75-0.55,0.85-0.58
		c0.04-0.01,0.09-0.01,0.14-0.05c0.17-0.16,0.3-0.57,0.32-0.71c-0.02-0.11-0.41-0.15-0.52-0.17c-0.38-0.09-0.75-0.29-1.14-0.32
		C262.43,106.99,261.86,107.27,261.55,107.91z M266.69,106.58c-0.06,0.34-0.12,0.67-0.19,1.01c-0.05,0.28-0.03,0.32,0.01,0.56
		c0.1,0.67,0.23,1.33,0.35,1.99c0.14,0.79,0.27,1.54,0.42,2.36c0.25,1.42,0.53,3.22,0.66,4.67c0.01,0.16,0.13,0.14,0.16,0
		c0.32-1.4,0.1-2.85-0.2-4.58c-0.2-1.13-0.37-2.09-0.55-3.02c-0.19-1.01-0.38-2.03-0.49-3.01c-0.01-0.11-0.06-0.15-0.09-0.14
		C266.75,106.43,266.71,106.49,266.69,106.58z M258.36,105.04c-0.93,0.39-4.68,1.66-5.5,2.01c-0.05,0.02-0.08,0.03-0.1,0.1
		c-0.03,0.1-0.13,0.42-0.18,0.59c-0.02,0.07,0.04,0.07,0.1,0.04c0.11-0.05,0.26-0.13,0.38-0.18c0.64-0.27,4.25-1.51,5.07-1.84
		c0.05-0.02,0.1-0.05,0.12-0.11c0.05-0.11,0.13-0.39,0.17-0.55C258.46,105.04,258.42,105.02,258.36,105.04z M264.93,104.25
		c-0.09,0.19-0.05,0.39,0.13,0.53c0.14,0.1,0.41,0.28,0.67,0.41c-0.11,0.05-0.37,0.15-0.52,0.26c-0.04,0.12-0.09,0.31-0.11,0.43
		c-0.01,0.04,0.03,0.09,0.07,0.06c0.46-0.27,1.84-0.62,2.43-0.76c0.04-0.01,0.23-0.44,0.26-0.5c0.04-0.08,0-0.11-0.06-0.09
		c-0.34,0.09-0.67,0.15-1.09,0.14c-0.52-0.01-1.31-0.57-1.31-0.68c0-0.11,0.62-0.37,0.76-0.36c0.4,0.04,0.46,0.44,0.57,0.44
		c0.13,0,0.33-0.48,0.33-0.6c0-0.14-0.33-0.5-0.59-0.5C266.05,103.03,265.15,103.79,264.93,104.25z M268.78,100.74
		c-0.93,0.39-4.68,1.66-5.5,2.01c-0.05,0.02-0.08,0.03-0.1,0.1c-0.03,0.1-0.13,0.42-0.18,0.59c-0.02,0.07,0.04,0.07,0.1,0.04
		c0.11-0.05,0.26-0.13,0.38-0.18c0.64-0.27,4.25-1.51,5.07-1.84c0.05-0.02,0.1-0.05,0.12-0.11c0.05-0.12,0.13-0.39,0.17-0.55
		C268.88,100.74,268.84,100.72,268.78,100.74z M227.24,116.3c-0.93,0.39-4.1,1.56-4.92,1.91c-0.05,0.02-0.08,0.03-0.1,0.1
		c-0.03,0.1-0.13,0.42-0.18,0.59c-0.02,0.07,0.04,0.07,0.1,0.04c0.11-0.05,0.26-0.13,0.38-0.18c0.64-0.27,3.66-1.41,4.49-1.73
		c0.05-0.02,0.1-0.05,0.12-0.11c0.05-0.11,0.13-0.39,0.17-0.55C227.34,116.3,227.3,116.27,227.24,116.3z M202.73,115.44
		c-0.32,0.32-0.86,0.48-1.31,0.49c-0.58,0.01-0.91-0.15-1.09-0.6c-0.14-0.35,0.33-1.4,0.56-1.68
		C201.1,113.69,202.81,114.54,202.73,115.44z M200.59,113.37c0,0.01,0.03,0.04,0.05,0.05c-0.41,0.7-0.91,1.72-0.89,2.51
		c0.03,0.81,0.55,1.18,1.31,1.18c0.81,0,1.57-0.33,1.9-1.08c0.14-0.33,0.31-1.06,0.25-1.64c-0.11-1.16-1.36-1.71-2.21-2.12
		C200.92,112.29,200.6,113.23,200.59,113.37z M208.27,115.76c-0.33,0.02-1.61-0.25-1.71-0.51c-0.07-0.14,0.3-0.68,0.67-0.69
		C207.66,114.55,208.18,115.44,208.27,115.76z M222.52,110.16c-0.63,0.25-0.85,0.71-1.14,1.16c-0.19,0.3-0.47,0.99-0.54,1.23
		c-0.37,1.09,0.57,1.88,0.89,2.08c-0.83,0.23-2.38,0.55-3.06-0.24c0.2-0.52,0.18-1.16-0.17-0.63c-0.18,0.23-0.57,1.69-1.01,1.68
		c-0.33,0.01-1.05-0.37-1.17-0.67c0.09-0.21,0.24-0.48,0.4-1.01c0.05-0.14-0.11-0.27-0.25-0.05c-0.2,0.34-0.54,1.02-0.82,1.2
		c-0.72,0.55-1.94,0.69-2.8,0.71c0.12-0.29,0.61-1.21,0.74-1.77c0.06-0.22-0.07-0.24-0.21-0.01c-0.63,0.92-0.93,1.19-1.91,1.48
		c-0.65,0.17-1.65,0.34-2.29,0.37c-0.22-0.4-0.54-1.71-1.57-2.44c-0.42-0.28-0.76,0.21-0.89,0.38c-0.62,0.8-0.68,1.77-0.61,2.23
		c0.1,0.94,1.02,1.16,2.7,1.14c-1.19,2.34-3.5,4.03-7.54,3.05c-0.14-0.03-0.23,0.11-0.25,0.14c-0.01,0.03-0.04,0.16,0.09,0.21
		c2.18,0.58,6.67,2.22,8.21-3.5c0.88-0.18,1.34-0.19,2.44-0.47c1.48,0.15,3.1,0.33,4.11-0.79c0.18,0.48,0.63,0.91,1.25,1.02
		c0.62,0.06,0.82-0.63,1.32-1.5c0.61,0.65,0.44,1.4,3.78,0.46c1.59-0.47,3.08-1.09,4.14-1.57c0.24-0.08,1.07-1.35,0.78-1.26
		c-2.11,0.86-2.29,0.97-3.25,1.29c-1.14,0.1-2.16-1.11-2.37-1.5c-0.14-0.28-0.04-0.48,0.39-0.85c1.05-0.92,2.24-1.19,3.32-0.36
		c0.15,0.12,0.44,0.01,0.31-0.25c-0.09-0.2-0.91-0.76-1.28-0.9c-0.3-0.11-0.6-0.19-0.94-0.19
		C223.05,110.02,222.8,110.06,222.52,110.16z M216.17,109.44c-0.16,0.24-0.35,0.59-0.54,0.88c-0.27-0.18-0.62-0.39-0.86-0.55
		c-0.13-0.08-0.18-0.08-0.26,0.05c-0.14,0.21-0.35,0.54-0.5,0.8c-0.05,0.1-0.04,0.18,0.1,0.26c0.25,0.15,0.66,0.38,0.9,0.51
		c0.08,0.04,0.14,0.01,0.2-0.07c0.13-0.18,0.28-0.45,0.49-0.79c0.36,0.21,0.65,0.4,0.94,0.54c0.08,0.04,0.12,0.03,0.18-0.04
		c0.14-0.18,0.4-0.58,0.5-0.78c0.07-0.14,0.05-0.19-0.07-0.27c-0.19-0.12-0.65-0.41-0.88-0.56
		C216.27,109.35,216.22,109.36,216.17,109.44z M209.95,109.02c-0.09,0.18-0.24,0.57-0.24,0.68c0,0.06,0.17,0.25,0.36,0.52
		c0.61,0.85,0.93,1.8,0.75,3.07c-0.02,0.11-0.05,0.21,0.01,0.21c0.28-0.01,0.44-0.97,0.43-1.48c-0.02-1.23-0.52-2.21-1.14-2.98
		C210.05,108.96,210,108.92,209.95,109.02z M201.38,108.09c-0.16,0.24-0.35,0.59-0.54,0.88c-0.27-0.18-0.62-0.39-0.86-0.55
		c-0.13-0.08-0.18-0.07-0.26,0.05c-0.14,0.21-0.35,0.54-0.5,0.8c-0.05,0.1-0.04,0.18,0.1,0.26c0.26,0.15,0.66,0.38,0.9,0.51
		c0.08,0.04,0.14,0.01,0.2-0.07c0.13-0.18,0.28-0.45,0.49-0.79c0.36,0.21,0.65,0.4,0.94,0.54c0.08,0.04,0.12,0.03,0.18-0.04
		c0.14-0.18,0.4-0.58,0.5-0.78c0.07-0.14,0.05-0.19-0.07-0.27c-0.19-0.12-0.65-0.41-0.88-0.56
		C201.48,108.01,201.43,108.02,201.38,108.09z M214.83,107.48c-0.17,0.28-0.4,0.69-0.53,0.94c-0.05,0.1-0.05,0.17,0.06,0.23
		c0.22,0.12,0.61,0.33,0.89,0.48c0.12,0.06,0.18,0.05,0.24-0.03c0.15-0.25,0.38-0.64,0.52-0.88c0.05-0.09,0.07-0.16-0.02-0.21
		c-0.26-0.16-0.69-0.42-0.96-0.57C214.92,107.38,214.88,107.4,214.83,107.48z M221.82,106.99c-0.17,0.28-0.4,0.69-0.53,0.94
		c-0.05,0.1-0.05,0.17,0.06,0.24c0.22,0.12,0.61,0.33,0.89,0.48c0.11,0.06,0.18,0.05,0.24-0.03c0.15-0.25,0.38-0.64,0.52-0.88
		c0.05-0.09,0.07-0.16-0.02-0.21c-0.26-0.16-0.69-0.42-0.95-0.57C221.92,106.89,221.87,106.91,221.82,106.99z M209.08,105.91
		c-0.93,0.39-4.1,1.56-4.92,1.91c-0.05,0.02-0.08,0.03-0.1,0.1c-0.03,0.1-0.13,0.42-0.18,0.59c-0.02,0.07,0.04,0.07,0.1,0.04
		c0.11-0.05,0.26-0.13,0.38-0.18c0.64-0.27,3.66-1.41,4.49-1.73c0.05-0.02,0.1-0.05,0.12-0.11c0.05-0.12,0.13-0.39,0.17-0.55
		C209.18,105.91,209.14,105.89,209.08,105.91z M217.73,103.45c-0.93,0.39-4.1,1.56-4.92,1.91c-0.05,0.02-0.08,0.03-0.1,0.1
		c-0.03,0.1-0.13,0.42-0.18,0.59c-0.02,0.07,0.04,0.07,0.1,0.04c0.11-0.05,0.26-0.13,0.38-0.18c0.64-0.27,3.66-1.41,4.49-1.73
		c0.05-0.02,0.1-0.05,0.12-0.11c0.05-0.12,0.13-0.39,0.17-0.55C217.82,103.45,217.78,103.42,217.73,103.45z M200.32,103.76
		c0,0.07,0.01,0.14,0.01,0.21V104l-0.01,0.09l-0.12-0.02c-0.2-0.04-0.55-0.14-0.86-0.32c-0.02-0.02-0.01-0.07,0-0.11l0.15-0.19
		c0.14-0.12,0.3-0.21,0.43-0.23C200.12,103.2,200.29,103.33,200.32,103.76z M199.95,102.45c-0.42,0.09-0.89,0.71-1.07,1.41
		c-0.08,0.32-0.01,0.5,0.16,0.6c0.25,0.15,0.59,0.26,1.01,0.35c-0.45,0.84-1.94,1.96-2.22,2.14c-0.33,0.21-0.26,0.43,0.15,0.22
		c1.5-0.76,2.23-1.54,2.55-2.22c0.12-0.22,0.21-0.79,0.21-0.79h0c0.05-0.57-0.12-1.04-0.17-1.18
		C200.41,102.55,200.2,102.39,199.95,102.45z M202.86,103.77c0,0.07,0.01,0.14,0.01,0.21l0,0.05l-0.01,0.09l-0.15-0.03
		c-0.2-0.05-0.53-0.15-0.82-0.31c-0.02-0.02-0.01-0.07,0.01-0.11l0.14-0.19c0.15-0.12,0.3-0.21,0.43-0.23
		C202.67,103.21,202.83,103.34,202.86,103.77z M202.53,102.45c-0.42,0.09-0.89,0.71-1.07,1.41c-0.08,0.32-0.01,0.5,0.16,0.6
		c0.25,0.15,0.59,0.26,1.01,0.35c-0.45,0.84-1.94,1.96-2.22,2.14c-0.33,0.21-0.26,0.43,0.15,0.22c1.52-0.77,2.26-1.56,2.57-2.25
		c0.11,0.02,0.2,0.05,0.31,0.08c0.19,0.05,0.14,0.07,0.23-0.24c0.15-0.51,0.13-0.48-0.22-0.57c-0.05-0.01-0.09-0.02-0.14-0.03
		c0.05-0.57-0.12-1.04-0.17-1.18C202.99,102.55,202.78,102.39,202.53,102.45z M205.27,96.94c-0.19,0.27-0.58,0.42-1.02,0.53
		c-0.32,0.09-0.71,0.14-1.04,0.11c0.32-0.42,0.71-0.77,1.14-0.95C204.72,96.47,205.02,96.53,205.27,96.94z M200.52,94.79
		c-0.07,0.15-0.12,0.2-0.19,0.32c-0.02,0.04-0.02,0.09-0.02,0.09c0.15,0.95,0.22,1.71,0.28,2.3c-0.02,0.13-0.08,0.24-0.26,0.34
		c-0.53,0.34-1.07,0.87-1.11,1.59c0,0.51,0.52,0.57,1.26,0.51c1.8-0.14,3.49-0.45,5.09-0.61c0.08-0.12,0.15-0.23,0.25-0.41
		c0.03-0.05,0.02-0.08-0.02-0.08c-1.62,0.11-3.43,0.46-5.15,0.57c-0.32,0.02-0.63,0.01-0.94-0.08c-0.12-0.03-0.19-0.14-0.19-0.18
		c0-0.08,0.03-0.14,0.09-0.18c0.29-0.25,0.73-0.52,0.97-0.85c0.09-0.13,0.12-0.2,0.18-0.32c0.3,0.79,1.13,0.65,1.46-0.03
		c0.33,0.32,0.8,0.48,1.28,0.44c0.47-0.03,0.99-0.21,1.39-0.42c0.4-0.23,0.71-0.61,0.68-1.08c-0.02-0.42-0.44-0.84-0.97-0.78
		c-0.55,0.06-1.3,1.02-1.7,1.59c-0.2-0.04-0.35-0.17-0.49-0.41c-0.09-0.13-0.15-0.03-0.19,0.03c-0.22,0.4-0.44,0.54-0.71,0.57
		c-0.32,0.03-0.52-0.13-0.6-0.49c-0.12-0.5-0.26-1.65-0.34-2.45C200.58,94.77,200.54,94.75,200.52,94.79z M194.26,113.19
		c-0.35,0.51-0.83,0.73-1.37,0.22c-0.19-0.18-0.18-0.24-0.1-0.44c0.18-0.36,0.43-0.52,0.6-0.53
		C193.64,112.43,194.06,112.89,194.26,113.19z M192.87,111.41c-0.33,0.36-0.61,1.16-0.63,1.91c-0.04,0.84,0.41,1.68,1.21,1.7
		c0.49,0.01,0.93-0.44,1.2-1.08c0.17,1.03-0.69,2.57-1.88,3.53c-1.41,1.07-2.76,1.2-4.73,1.11c-0.32-0.04-0.47,0.28-0.09,0.37
		c1.77,0.4,4.18,0.47,5.44-0.66c1.04-0.93,1.66-2.37,1.76-4c0.05-1.02-0.27-2.19-1.12-2.93
		C193.56,110.98,193.22,111.01,192.87,111.41z M194.97,104.65c-0.93,0.39-3.52,1.42-4.34,1.77c-0.05,0.02-0.08,0.03-0.1,0.1
		c-0.03,0.1-0.13,0.42-0.18,0.59c-0.02,0.07,0.04,0.07,0.1,0.04c0.11-0.05,0.26-0.13,0.38-0.18c0.64-0.27,3.09-1.27,3.91-1.6
		c0.05-0.02,0.1-0.05,0.12-0.11c0.05-0.12,0.13-0.39,0.17-0.55C195.06,104.64,195.02,104.62,194.97,104.65z M172.74,108.53
		c-0.03,0.08-0.09,0.2-0.12,0.28c-0.04,0.14,0.04,0.24,0.11,0.13c0.08-0.13,0.19-0.25,0.32-0.33c0.31-0.19,0.65-0.26,0.99-0.23
		c0.31,0.03,0.89,0.25,0.89,0.28c0,0.07-1.35,0.73-1.56,0.87c-0.09,0.06-0.2,0.16-0.18,0.27c0.02,0.08,0.15,0.1,0.25,0.06
		c0.53-0.19,0.72-0.18,1.15-0.36c0.58-0.25,0.75-0.55,0.85-0.58c0.04-0.01,0.09-0.01,0.14-0.05c0.17-0.16,0.3-0.57,0.32-0.71
		c-0.02-0.11-0.41-0.15-0.52-0.17c-0.38-0.09-0.75-0.29-1.14-0.32C173.62,107.6,173.05,107.88,172.74,108.53z M182.03,105.6
		c0.11,0.12,0.26,0.37,0.29,0.8c0,0.13-0.02,0.3-0.03,0.31c-0.01,0.01-0.24-0.09-0.28-0.11c-0.08-0.04-0.31-0.13-0.71-0.28
		c-0.16-0.03,0-0.28,0-0.28c0.06-0.11,0.16-0.25,0.27-0.37l0.15-0.1C181.81,105.54,181.96,105.51,182.03,105.6z M181.94,104.85
		c-0.46,0.08-1,0.72-1.22,1.45c-0.1,0.33-0.04,0.52,0.14,0.63c0.26,0.16,0.64,0.29,1.09,0.41c-0.52,0.87-2.2,2-2.51,2.18
		c-0.36,0.21-0.3,0.44,0.16,0.24c1.69-0.76,2.52-1.57,2.9-2.29c0.12,0.02,0.22,0.06,0.34,0.09c0.2,0.05,0.16,0.08,0.26-0.24
		c0.05-0.15,0.09-0.26,0.1-0.33l-0.51-0.17l0.05-0.18c0.06-0.58-0.09-1.06-0.14-1.21C182.44,104.97,182.22,104.8,181.94,104.85z
		 M184.6,118.14c-0.64,1.44-2.47-0.42-2.65-0.94C182.76,117.1,184.8,117.51,184.6,118.14z M175.11,115.47
		c-1.25-0.2-1.86-0.52-1.95-0.58c-0.09-0.06,0.39-1.07,0.86-1.02C174.35,113.91,174.54,114.7,175.11,115.47z M183.78,113.12
		c-0.53,0.94-1.72,1.48-1.95,1.59c0.12-0.33,0.59-2.08,1.12-2.4c0.04-0.02,0.09-0.03,0.14-0.03
		C183.47,112.26,183.97,112.79,183.78,113.12z M187.13,105.45c0.06,0.27,0.12,0.54,0.44,1.08c0.31,1.43,0.48,2.59,0.69,3.98
		c0.07,0.56,0.49,3.43,0.32,3.56c-1.73,1.47-5.5,1.74-6.35,1.69c1.15-0.86,1.78-1.17,2.07-2.85c0.21-1.34-0.77-2.44-1.34-1.81
		c-0.63,0.72-1.26,2.49-1.51,3.79c-1.42,0.65-3.33,0.66-4.56,0.31c-0.7-0.22-1.51-0.82-2.2-1.82c-0.38-0.49-0.79-0.35-1.03-0.14
		c-0.45,0.39-0.77,1.24-0.83,1.54c-0.08,0.28-0.04,0.81,0.41,1.46c-0.63,1.07-4.54,3-4.69,3.08c-0.13,0.06-0.08,0.22,0.19,0.19
		c1.47-0.26,4.67-1.35,4.97-3.04c0.61,0.14,2.01,0.43,2.39,0.47c0.13,0.02,0.1-0.02,0.25-0.61c1.01,0.48,3.24,0.34,3.77,0.27
		c-0.09,0.39-0.09,0.4-0.07,0.4c0.14,0.03,0.46,0.05,1.31,0.11c1.21,3.3,2.77,3.07,3.27,2.63c0.67-0.61,0.78-2.55,0.03-3.05
		c1.18-0.09,3.41-0.59,4.1-1.58c0.17-0.3,0.31-0.75,0.37-1.38c0.08-0.87-0.03-2.05-0.31-3.74c-0.21-1.37-0.37-2.15-0.52-3.22
		c0.38-0.58,0.44-0.8,0.45-0.87c-0.04-0.21-0.42-0.19-0.96-1.55C187.66,104.05,187.13,105.37,187.13,105.45z M190.14,101.57
		c-0.93,0.39-3.52,1.42-4.34,1.77c-0.05,0.02-0.08,0.03-0.1,0.1c-0.03,0.1-0.13,0.42-0.18,0.59c-0.02,0.07,0.04,0.07,0.1,0.04
		c0.11-0.05,0.26-0.13,0.38-0.18c0.64-0.27,3.08-1.27,3.91-1.6c0.05-0.02,0.1-0.05,0.12-0.11c0.05-0.12,0.13-0.39,0.17-0.55
		C190.23,101.57,190.19,101.55,190.14,101.57z M144.32,118.28c-0.17,0.28-0.4,0.69-0.53,0.94c-0.05,0.1-0.05,0.17,0.06,0.23
		c0.22,0.12,0.61,0.33,0.89,0.48c0.12,0.06,0.19,0.05,0.24-0.03c0.15-0.25,0.38-0.64,0.52-0.88c0.05-0.09,0.07-0.16-0.02-0.21
		c-0.26-0.16-0.69-0.42-0.95-0.57C144.42,118.19,144.37,118.2,144.32,118.28z M147.35,111.04c-0.04,0.33-0.08,0.66-0.11,0.98
		c-0.01,0.12-0.06,0.25,0.09,0.36c0.47,0.34,0.93,0.81,1.22,1.52c-1.21,0.97-3.98,1.6-5.88,1.73c-3.24,0.22-5.37-0.76-4.3-3.46
		c0.1-0.25-0.09-0.35-0.24-0.07c-0.77,1.46-0.8,2.68-0.36,3.44c0.64,1.1,2.26,1.52,4.13,1.48c2.04-0.05,4.51-0.56,6.36-1.6
		c0.46-0.26,0.57-0.47,0.71-0.9c0.2-0.63,0.2-1.22,0.07-1.74c-0.18-0.7-0.64-1.3-1.41-1.82
		C147.44,110.83,147.37,110.86,147.35,111.04z M156.78,111.24c0.19,0.8,0.44,1.38,0.68,2.28c-0.21,0.69-0.87,0.95-1.18,1.1
		c-0.8,0.35-2.48,0.85-2.93,0.27c-0.15-0.2-0.19-0.15-0.23,0.09c-0.09,0.69,0.08,1.45,0.73,1.46c0.85-0.02,2.56-0.39,3.25-1.1
		c0.22-0.23,0.29-0.39,0.58-1.25c0.43,1.37,0.77,1.89,1.08,2.18c1.29,1.26,3.3,0.66,5.06,0.14c1.48-0.47,2.89-1.15,3.74-2.07
		c0.13-0.13,0.35-1.21,0.21-1.11c-1.07,0.9-2.79,1.69-3.5,1.85c-0.37-0.12-0.75-0.2-1.32-0.85c-0.25-0.31-0.59-0.84-0.49-1.41
		c0.01-0.21,0.53-0.68,1.22-1.08c0.77-0.42,1.51-0.61,2.33,0.08c0.12,0.12,0.39,0,0.27-0.22c-0.25-0.39-1.14-1.08-1.94-1.1
		c-1.15-0.05-1.87,1.2-1.96,1.36c-0.25,0.42-0.62,1.44-0.64,1.97c0.06,0.79,0.52,1.45,0.84,1.77c-0.95,0.2-2.14,0.16-2.75-0.09
		c-1.21-0.49-1.64-1.87-1.95-2.68c-0.48-1.41-0.86-2.89-0.96-3.27C156.71,108.83,156.67,110.87,156.78,111.24z M143.73,107.28
		c0.1,0.12,0.26,0.37,0.29,0.8c0,0.12-0.02,0.3-0.03,0.31c-0.01,0.01-0.24-0.09-0.28-0.11c-0.08-0.04-0.31-0.13-0.71-0.28
		c-0.16-0.03,0-0.28,0-0.28c0.06-0.11,0.16-0.25,0.27-0.37l0.15-0.1C143.52,107.22,143.67,107.19,143.73,107.28z M143.65,106.53
		c-0.46,0.08-1.01,0.72-1.23,1.45c-0.1,0.33-0.04,0.52,0.14,0.63c0.26,0.16,0.64,0.29,1.09,0.4c-0.52,0.87-2.2,2-2.51,2.18
		c-0.36,0.21-0.3,0.44,0.16,0.24c1.69-0.76,2.52-1.57,2.9-2.29c0.12,0.02,0.22,0.06,0.34,0.09c0.2,0.05,0.16,0.08,0.26-0.24
		c0.05-0.15,0.09-0.26,0.1-0.33l-0.51-0.17l0.05-0.18c0.06-0.58-0.09-1.06-0.14-1.21C144.15,106.65,143.92,106.48,143.65,106.53z
		 M155.48,106.28c-0.17,0.28-0.4,0.69-0.53,0.94c-0.05,0.1-0.05,0.18,0.06,0.24c0.22,0.12,0.61,0.33,0.89,0.48
		c0.11,0.06,0.18,0.05,0.24-0.03c0.15-0.25,0.38-0.63,0.52-0.88c0.05-0.09,0.07-0.16-0.02-0.21c-0.26-0.16-0.69-0.42-0.95-0.57
		C155.58,106.19,155.53,106.2,155.48,106.28z M165.49,105.4c-0.93,0.39-4.68,1.66-5.5,2.01c-0.05,0.02-0.08,0.03-0.1,0.1
		c-0.03,0.1-0.13,0.42-0.18,0.59c-0.02,0.07,0.04,0.07,0.1,0.04c0.11-0.05,0.26-0.13,0.38-0.18c0.64-0.27,4.24-1.51,5.07-1.84
		c0.05-0.02,0.1-0.05,0.12-0.11c0.05-0.11,0.13-0.39,0.17-0.55C165.58,105.4,165.54,105.37,165.49,105.4z M142.83,105.48
		c-0.81,0.51-1.52,1.47-1.73,2.47c-0.07,0.3-0.09,0.55,0.02,0.82c0.13,0.34,0.35,0.58,0.53,0.72c0.13,0.11,0.14,0.01,0.24-0.29
		c0.1-0.31,0.1-0.28-0.04-0.4c-0.12-0.13-0.25-0.25-0.36-0.39c-0.07-0.1-0.11-0.21-0.08-0.33c0.25-0.89,0.8-1.76,1.81-2.16
		c1.22-0.48,1.98,0.05,1.82,0.9c-0.03,0.13,0,0.25,0.12,0.04C145.79,105.77,144.8,104.22,142.83,105.48z M149.93,104.13
		c-0.04,0.01-0.08,0.07-0.1,0.16l-0.19,0.99c-0.06,0.28-0.04,0.31,0,0.55c0.11,0.66,0.27,1.31,0.4,1.95
		c0.32,1.55,0.85,4.26,1.13,5.69c0.2,1.07,0.34,2.16,0.38,3.12c0.01,0.18,0.11,0.17,0.16,0.03c0.17-0.53,0.24-1.09,0.24-1.68
		c0-0.58-0.19-1.75-0.38-2.68c-0.26-1.29-0.75-3.86-1-5.03c-0.21-0.99-0.41-1.99-0.53-2.95
		C150.02,104.15,149.97,104.12,149.93,104.13z M157.76,103.38c-0.93,0.39-4.1,1.56-4.92,1.91c-0.05,0.02-0.08,0.03-0.1,0.1
		c-0.03,0.1-0.13,0.42-0.18,0.59c-0.02,0.07,0.04,0.07,0.1,0.04c0.11-0.05,0.26-0.13,0.38-0.18c0.64-0.27,3.66-1.4,4.49-1.73
		c0.05-0.02,0.1-0.05,0.12-0.11c0.05-0.11,0.13-0.39,0.17-0.55C157.85,103.38,157.82,103.35,157.76,103.38z M115.36,118.71
		c-0.16,0.24-0.35,0.59-0.54,0.88c-0.27-0.18-0.62-0.39-0.86-0.55c-0.13-0.08-0.18-0.07-0.26,0.05c-0.14,0.22-0.35,0.54-0.5,0.8
		c-0.05,0.1-0.04,0.18,0.1,0.26c0.26,0.15,0.66,0.38,0.9,0.51c0.08,0.04,0.14,0.01,0.2-0.07c0.13-0.18,0.28-0.45,0.49-0.79
		c0.36,0.21,0.65,0.4,0.94,0.54c0.08,0.04,0.12,0.03,0.18-0.04c0.14-0.18,0.4-0.58,0.5-0.78c0.07-0.14,0.05-0.19-0.07-0.27
		c-0.19-0.12-0.65-0.41-0.88-0.56C115.45,118.62,115.41,118.64,115.36,118.71z M125.81,117.78c-0.93,0.39-4.1,1.56-4.92,1.91
		c-0.05,0.02-0.08,0.03-0.1,0.1c-0.03,0.1-0.13,0.42-0.18,0.59c-0.02,0.07,0.05,0.07,0.1,0.04c0.11-0.05,0.26-0.13,0.38-0.18
		c0.64-0.27,3.66-1.4,4.49-1.73c0.05-0.02,0.1-0.05,0.12-0.11c0.05-0.12,0.13-0.39,0.17-0.55
		C125.9,117.78,125.87,117.76,125.81,117.78z M122.77,107.17c-0.17,0.28-0.4,0.69-0.53,0.94c-0.05,0.1-0.05,0.17,0.06,0.23
		c0.22,0.12,0.61,0.33,0.89,0.48c0.11,0.06,0.18,0.05,0.24-0.03c0.15-0.25,0.38-0.63,0.52-0.88c0.05-0.09,0.07-0.16-0.02-0.21
		c-0.26-0.16-0.69-0.42-0.95-0.57C122.86,107.07,122.82,107.09,122.77,107.17z M103.58,107.27c0,0.07,0.01,0.14,0.01,0.21v0.04
		l-0.01,0.09l-0.12-0.02c-0.2-0.04-0.55-0.14-0.86-0.32c-0.02-0.02-0.01-0.07,0.01-0.11l0.14-0.19c0.15-0.12,0.3-0.21,0.43-0.23
		C103.38,106.71,103.55,106.84,103.58,107.27z M103.21,105.96c-0.42,0.09-0.89,0.71-1.07,1.41c-0.08,0.32-0.01,0.5,0.16,0.6
		c0.25,0.15,0.59,0.26,1.01,0.35c-0.45,0.84-1.94,1.96-2.22,2.14c-0.33,0.21-0.26,0.43,0.15,0.22c1.5-0.76,2.23-1.54,2.55-2.22
		c0.12-0.22,0.21-0.79,0.21-0.79c0.04-0.57-0.12-1.04-0.17-1.18C103.67,106.06,103.46,105.91,103.21,105.96z M106.12,107.28
		c0,0.07,0.01,0.14,0.01,0.21l0,0.05l-0.01,0.09l-0.15-0.03c-0.2-0.05-0.53-0.15-0.82-0.31c-0.02-0.02-0.01-0.07,0-0.11l0.14-0.19
		c0.15-0.12,0.3-0.21,0.44-0.23C105.93,106.72,106.09,106.86,106.12,107.28z M105.79,105.96c-0.42,0.09-0.89,0.71-1.07,1.41
		c-0.08,0.32-0.01,0.5,0.16,0.6c0.25,0.15,0.59,0.26,1.01,0.35c-0.45,0.84-1.94,1.96-2.22,2.14c-0.33,0.21-0.26,0.43,0.15,0.22
		c1.52-0.77,2.26-1.56,2.57-2.25c0.11,0.02,0.2,0.05,0.31,0.08c0.19,0.05,0.14,0.07,0.23-0.24c0.15-0.51,0.13-0.48-0.22-0.57
		c-0.04-0.02-0.09-0.02-0.13-0.03c0.04-0.57-0.12-1.04-0.17-1.18C106.25,106.06,106.04,105.91,105.79,105.96z M133.22,104.76
		c-0.93,0.39-4.68,1.66-5.5,2.01c-0.05,0.02-0.08,0.03-0.1,0.1c-0.03,0.1-0.13,0.42-0.18,0.59c-0.02,0.07,0.04,0.07,0.1,0.04
		c0.11-0.05,0.26-0.13,0.39-0.18c0.64-0.27,4.25-1.51,5.07-1.84c0.05-0.02,0.1-0.05,0.12-0.11c0.05-0.12,0.13-0.39,0.17-0.55
		C133.31,104.76,133.27,104.73,133.22,104.76z M105.59,115.35c-1.14-0.26-1.79-0.5-1.88-0.68c-0.1-0.17,0.63-0.9,0.92-0.93
		c0.01,0,0.02,0,0.03,0C104.86,113.76,105.11,114.48,105.59,115.35z M125.93,113.02c-0.36,0.81-2.35,2.06-5.49,2.47
		c0.52-0.47,1.26-1.31,1.82-1.88c0.57-0.64,1.07-1.04,1.66-1.24C124.42,112.19,125.87,112.57,125.93,113.02z M119.7,104.02
		c-0.15,0.26-0.44,0.66-0.55,1.13c-0.01,0.23,0.29,0.82,0.42,0.97c0.34,1.63,0.7,3.26,0.98,4.85c0.21,1.21,0.31,2.24,0.12,3.41
		c-0.49,0.48-0.69,0.67-1.27,1.16c-1.5,0.05-2.52-0.38-2.67-1.03c0.03-0.2,0.03-0.39,0.05-0.59c0.02-0.19-0.15-0.28-0.24-0.07
		c-0.44,1.48-3.24,1.92-4.91,2.07c-2.08,0.14-3.5-0.11-4.83-0.82c-0.77-0.43-1.05-1.09-1.58-1.92c-0.25-0.37-0.48-0.43-0.84-0.12
		c-0.47,0.4-0.9,0.79-1.2,1.44c-0.06,0.27-0.04,0.91,0.32,1.34c-1.31,1.9-3.27,2.43-5.07,3.47c-0.19,0.11-0.17,0.36,0.08,0.32
		c1.39-0.37,5.04-1.12,5.3-3.51c0.89,0.36,1.62,0.53,2.67,0.78c0.1,0.02,0.12-0.02,0.2-0.39c2.46,0.96,5.54,0.92,8.32-0.17
		c0.86-0.34,1.25-0.7,1.56-1.27c0.49,1.04,0.76,1.6,1.68,1.69c1.64,0.14,3.46-0.06,5.3-0.31c3.75-0.62,4.01-0.66,6.28-1.44
		c1.55-0.62,3.17-1.15,4.67-2.09c0.27-0.17,0.54-1.37,0.38-1.27c-0.78,0.57-2.02,1.07-3.26,1.6c-1.3-0.12-2.13-0.73-2.46-1.95
		c0.5-0.7,1.27-1.11,1.76-1.32c0.73-0.31,1.44-0.26,1.99,0.19c0.21,0.14,0.39-0.16,0.26-0.3c-1.56-1.38-2.53-0.98-3.03-0.64
		c-0.55,0.39-0.97,0.91-1.27,1.74c-0.61,1.68-0.55,1.84,0.71,2.99c-1.19,0.53-2.99,0.94-4.71,1.32c0.93-0.57,1.35-1.35,1.42-1.52
		c0.17-0.38,0.36-1.26,0.22-1.74c-0.34-0.93-1.67-1.16-2.56-0.8c-0.3,0.13-0.53,0.28-0.7,0.45c-0.77,0.74-1.52,1.63-2.28,2.43
		c0.21-1.15,0.41-2.21,0.16-3.55c-0.23-1.4-0.53-2.76-0.83-4.11c0.9-1.58,0.16-0.43-0.43-2.45
		C119.82,103.94,119.74,103.96,119.7,104.02z"/>
</g>
</svg>
