<?xml version="1.0" encoding="iso-8859-1"?>
<!-- Generator: Adobe Illustrator 25.2.1, SVG Export Plug-In . SVG Version: 6.00 Build 0)  -->
<svg version="1.1" xmlns="http://www.w3.org/2000/svg" xmlns:xlink="http://www.w3.org/1999/xlink" x="0px" y="0px"
	 viewBox="0 0 293.23 484.99" enable-background="new 0 0 293.23 484.99" xml:space="preserve">
<g id="Ornaments">
</g>
<g id="Header__x26__Marks__x26__Page_No.">
</g>
<g id="Aya_No.">
</g>
<g id="Quran_Text">
	<path fill-rule="evenodd" clip-rule="evenodd" d="M79.87,113.84c-0.35,0.51-0.83,0.73-1.37,0.22c-0.19-0.18-0.18-0.24-0.1-0.44
		c0.18-0.36,0.43-0.52,0.6-0.53C79.24,113.08,79.66,113.54,79.87,113.84z M78.47,112.06c-0.33,0.36-0.61,1.16-0.63,1.91
		c-0.04,0.84,0.41,1.68,1.21,1.7c0.49,0.01,0.94-0.44,1.2-1.08c0.17,1.03-0.69,2.57-1.88,3.53c-1.41,1.07-2.75,1.2-4.73,1.12
		c-0.32-0.04-0.47,0.28-0.09,0.37c1.77,0.41,4.18,0.47,5.44-0.66c1.04-0.93,1.66-2.37,1.76-4c0.05-1.02-0.27-2.19-1.12-2.93
		C79.16,111.62,78.83,111.66,78.47,112.06z M81.39,105.84c-0.93,0.39-4.1,1.56-4.92,1.91c-0.05,0.02-0.08,0.03-0.1,0.1
		c-0.03,0.1-0.13,0.42-0.18,0.59c-0.02,0.07,0.04,0.07,0.1,0.04c0.11-0.05,0.26-0.13,0.38-0.18c0.64-0.27,3.66-1.4,4.49-1.73
		c0.05-0.02,0.1-0.05,0.12-0.11c0.05-0.12,0.13-0.39,0.17-0.55C81.49,105.84,81.45,105.82,81.39,105.84z M74.95,116.33
		c-0.93,0.39-3.52,1.42-4.34,1.77c-0.05,0.02-0.08,0.03-0.1,0.1c-0.03,0.1-0.13,0.42-0.18,0.59c-0.02,0.07,0.04,0.07,0.1,0.04
		c0.11-0.05,0.26-0.13,0.38-0.18c0.64-0.27,3.08-1.27,3.91-1.6c0.05-0.02,0.1-0.05,0.12-0.11c0.05-0.12,0.13-0.39,0.17-0.55
		C75.04,116.33,75.01,116.31,74.95,116.33z M64.44,111.48c-0.17,0.28-0.4,0.69-0.53,0.94c-0.05,0.1-0.05,0.18,0.06,0.24
		c0.22,0.12,0.61,0.33,0.89,0.48c0.12,0.06,0.18,0.05,0.24-0.03c0.15-0.25,0.38-0.64,0.52-0.88c0.05-0.09,0.07-0.16-0.02-0.21
		c-0.26-0.16-0.69-0.42-0.95-0.57C64.54,111.38,64.49,111.4,64.44,111.48z M72.25,112.45c0.63,0.25,0.81,1.02,0.99,1.55
		c-0.84-0.11-2.14-0.53-2.08-0.7c0.02-0.09,0.61-0.86,0.95-0.87C72.15,112.42,72.2,112.43,72.25,112.45z M72.02,111.29
		c-0.87,0.8-1.22,1.79-1.45,2.21c-0.35,0.63-0.77,0.95-1.42,1c-0.41,0.02-0.79-0.16-0.83-0.23c-0.13-0.31-0.59-1.22-0.71-1.32
		c-0.11-0.17-0.25,1.2-0.18,1.33c0.48,0.85,0.83,1.62,0.86,3.19c-0.33,0.6-1.41,1.44-2.86,1.66c-2.17,0.31-2.8-0.64-3.04-1.01
		c-0.65-1.11-0.07-2.39,0.04-3.11c-0.01-0.15-0.1-0.13-0.15-0.05c-1.31,2.35-1.04,5.51,2.16,5.56c2.01-0.06,3.5-1.17,4.01-2.23
		c0.02-0.06,0.32-0.83,0.2-2.69c0.48,0.05,1.06-0.13,1.29-0.32c0.36-0.29,0.84-1.26,0.82-1.12c-0.06,0.31,0.42,1.05,2.79,1.05
		c0.06,0,0.26-0.64,0.31-1.04c0.03-0.78-0.29-2.13-0.82-2.73c-0.17-0.19-0.41-0.3-0.64-0.3C72.26,111.15,72.12,111.2,72.02,111.29z
		 M67.06,107.28c-0.93,0.39-4.1,1.56-4.92,1.91c-0.05,0.02-0.08,0.03-0.1,0.1c-0.03,0.1-0.13,0.42-0.18,0.59
		c-0.02,0.07,0.04,0.07,0.1,0.04c0.11-0.05,0.26-0.13,0.38-0.18c0.64-0.27,3.66-1.4,4.49-1.73c0.05-0.02,0.1-0.05,0.12-0.11
		c0.05-0.12,0.13-0.39,0.17-0.55C67.16,107.27,67.12,107.25,67.06,107.28z M38.9,116.76c-0.93,0.39-4.1,1.56-4.92,1.91
		c-0.05,0.02-0.08,0.03-0.1,0.1c-0.03,0.1-0.13,0.42-0.18,0.59c-0.02,0.07,0.04,0.07,0.1,0.04c0.11-0.05,0.26-0.13,0.38-0.18
		c0.64-0.27,3.66-1.41,4.49-1.73c0.05-0.02,0.1-0.05,0.12-0.11c0.05-0.11,0.13-0.39,0.17-0.55C39,116.76,38.96,116.74,38.9,116.76z
		 M36.99,110.68l-0.23,0.77c-0.06,0.24-0.04,0.27,0.01,0.49c0.1,0.39,0.18,0.76,0.23,1.18c0.03,0.16,0,0.15-0.15,0.16
		c-0.44,0.03-1.18-0.12-1.64-0.42c0.11-0.34,0.18-0.73,0.26-1.15c0.07-0.25-0.2-0.38-0.28-0.08c-0.2,0.81-0.49,1.61-1.26,1.92
		c-0.13,0.05-1.26,0.65-1.7-0.19c-0.2-0.38-0.41-0.81-0.61-1.15c-0.12-0.21-0.22-0.19-0.26,0.04l-0.11,0.91
		c-0.03,0.22-0.04,0.19,0.08,0.39c0.7,1.23,0.95,2.43,0.97,3.11c-1.31,2.05-4.38,2.49-5.69,1.55c-0.94-0.67-1.34-2.04-0.49-3.8
		c0.11-0.24-0.13-0.41-0.28-0.12c-1.31,2.73-0.79,4.51,0.39,5.22c1.9,1.15,5.04,0.33,6.11-1.57c0.46-0.82,0.45-1.85,0.31-2.8
		c1.05-0.01,1.77-0.6,2.1-1.26c0.35,0.52,0.99,0.75,1.84,0.72c0.34-0.03,0.48-0.04,0.64-0.46c0.46-1.23,0.23-2.62-0.01-3.46
		c-0.04-0.13-0.06-0.17-0.11-0.16C37.08,110.52,37.02,110.58,36.99,110.68z M56.65,104.52c-0.04,0.01-0.07,0.07-0.09,0.16
		l-0.16,1.01c-0.04,0.29-0.03,0.32,0.01,0.56c0.12,0.67,0.27,1.33,0.4,1.98c0.3,1.46,0.6,2.86,0.86,4.21
		c0.21,1.08,0.35,2.19,0.42,3.17c0.01,0.19,0.11,0.17,0.15,0.03c0.15-0.55,0.2-1.12,0.18-1.72c-0.01-0.59-0.21-1.78-0.4-2.72
		c-0.22-1.18-0.5-2.47-0.72-3.54c-0.21-1.01-0.42-2.02-0.55-2.99C56.73,104.55,56.68,104.51,56.65,104.52z M49.01,109.53
		c-0.17,0.28-0.4,0.69-0.53,0.94c-0.05,0.1-0.05,0.18,0.06,0.24c0.22,0.12,0.61,0.33,0.89,0.48c0.12,0.06,0.19,0.05,0.24-0.03
		c0.15-0.25,0.38-0.64,0.52-0.88c0.05-0.09,0.07-0.16-0.02-0.21c-0.26-0.16-0.69-0.42-0.95-0.57
		C49.11,109.43,49.06,109.45,49.01,109.53z M50.16,105.71l-0.23,0.43c-0.02,0.05-0.05,0.08-0.03,0.13c0.07,0.17,0.12,0.37,0.12,0.48
		c-0.27,0.26-0.56,0.3-0.77,0.13c-0.14-0.11-0.19-0.32-0.17-0.59c0.01-0.2,0.03-0.27-0.14-0.13c-0.23,0.18-0.16,0.16-0.18,0.27
		c-0.08,0.65-0.36,0.94-0.85,0.97c-0.31,0.02-0.54-0.2-0.32-0.82c0.05-0.13-0.05-0.27-0.18,0c-0.47,0.93-0.18,1.45,0.29,1.52
		c0.39,0.06,0.85-0.16,1.09-0.75c0.18,0.3,0.55,0.39,0.88,0.3c0.42-0.11,0.51-0.3,0.63-0.65c0.12-0.33,0.12-0.77-0.04-1.29
		C50.23,105.62,50.18,105.66,50.16,105.71z M52.99,103.63c-0.21,0.37-0.54,0.92-0.57,1.11c-0.03,0.2,0.3,0.68,0.55,0.89
		c0.08,1.79,0.45,3.34,0.71,4.91c0.23,1.28,0.4,2.32,0.59,3.66c-0.04,0.19-0.09,0.36-0.31,0.34c-0.54-0.05-1.1-0.1-1.53-0.37
		c0.1-0.21,0.17-0.46,0.18-0.8c0-0.34-0.22-0.19-0.27-0.04c-0.2,0.68-0.65,0.95-1.4,1.27c-1.53,0.57-3.14,0.95-4.85,1.09
		c-1.53,0.12-3.32-0.13-4.13-0.65c-0.48-0.32-0.82-0.55-1.1-1.36c-0.63-2.19-0.44-4.43-0.72-6.7c-0.1-0.85-0.11-2.08-0.41-3.04
		c-0.07-0.22-0.44,1.03-0.42,1.29c0.08,0.57,0.16,1.32,0.22,1.88c0.22,2.38,0.23,4.2,0.47,5.85c0.14,0.99,0.25,1.97,0.95,2.8
		c0.46,0.56,1.63,1.02,2.79,1.12c0.87,0.11,2.44,0.05,3.4-0.1c1.34-0.2,2.74-0.54,4.02-1.13c0.52-0.27,0.7-0.42,0.95-0.67
		c0.32,0.31,1.55,0.81,1.99,0.76c0.15-0.03,0.62-1.26,0.61-2.22c-0.03-1.15-0.21-2.07-0.42-3.37c-0.18-1-0.29-1.57-0.73-4.24
		c1.28-1.29,0.17-0.84-0.38-2.27C53.12,103.58,53.04,103.55,52.99,103.63z M51.57,102.3c-0.93,0.39-5.12,1.74-5.93,2.09
		c-0.05,0.02-0.08,0.03-0.1,0.1c-0.03,0.1-0.18,0.48-0.22,0.65c-0.02,0.07,0.04,0.07,0.1,0.04c0.11-0.05,0.3-0.15,0.43-0.2
		c0.68-0.24,4.63-1.57,5.46-1.89c0.05-0.02,0.1-0.05,0.12-0.11c0.05-0.12,0.17-0.45,0.22-0.61C51.66,102.3,51.62,102.28,51.57,102.3
		z M58.38,101.44c0.08,0.08,0.17,0.19,0.16,0.3c-0.13,0.29-0.95,0.58-1.26,0.66c-0.06,0.01-0.38,0.08-0.35-0.02
		c0.19-0.3,0.37-0.62,0.64-0.87C57.82,101.3,58.1,101.2,58.38,101.44z M57.59,100.91c-0.36,0.37-0.85,1.05-1.06,1.49
		c-0.16-0.01-0.46-0.17-0.6-0.24c-0.19-0.09-0.32,0.1-0.41,0.25c-0.19,0.29-0.33,0.58-0.44,0.9l-0.11,0.31
		c0,0.13,0.06,0.17,0.16,0.07c0.22-0.22,0.39-0.82,0.52-0.74c0.75,0.43,1.71,0.28,2.43-0.22c0.56-0.4,0.99-1.01,0.83-1.69
		c-0.06-0.24-0.33-0.48-0.59-0.49C58.04,100.53,57.79,100.7,57.59,100.91z M266.95,139.41c0.64,0.25,0.82,1.02,1,1.54
		c-0.85-0.11-2.19-0.56-2.1-0.71c0.31-0.39,0.61-0.85,0.95-0.85C266.85,139.39,266.9,139.39,266.95,139.41z M266.71,138.26
		c-0.88,0.8-1.22,1.78-1.46,2.2c-0.39,0.59-0.97,1.3-2.27,0.76c-0.13-0.31-0.59-1.21-0.71-1.32c-0.24-0.31-0.37,1-0.18,1.33
		c0.49,0.84,0.83,1.61,0.86,3.17c-0.33,0.6-1.42,1.44-2.88,1.65c-2.18,0.31-2.82-0.64-3.07-1c-0.65-1.1-0.07-2.38,0.05-3.09
		c-0.01-0.15-0.1-0.13-0.15-0.05c-1.32,2.33-1.05,5.48,2.18,5.53c2.35-0.08,4-1.54,4.21-2.72c0.09-0.75,0.08-1.21,0.06-2.07
		c1.7-0.23,1.45-0.8,2.11-1.53c-0.06,0.31,0.43,1.05,2.81,1.05c0.06,0,0.26-0.64,0.31-1.04c0.03-0.78-0.29-2.12-0.82-2.72
		c-0.17-0.19-0.42-0.3-0.65-0.29C266.95,138.12,266.82,138.16,266.71,138.26z M258.17,138.14c-0.17,0.28-0.4,0.69-0.53,0.94
		c-0.05,0.1-0.05,0.18,0.06,0.24c0.22,0.12,0.61,0.33,0.89,0.48c0.12,0.06,0.18,0.05,0.24-0.03c0.15-0.25,0.38-0.63,0.52-0.88
		c0.05-0.09,0.07-0.16-0.02-0.21c-0.26-0.16-0.69-0.42-0.95-0.57C258.26,138.04,258.22,138.06,258.17,138.14z M268.04,132.45
		c-0.93,0.39-4.1,1.56-4.92,1.91c-0.05,0.02-0.08,0.03-0.1,0.1c-0.03,0.1-0.13,0.42-0.18,0.59c-0.02,0.07,0.04,0.07,0.1,0.04
		c0.11-0.05,0.26-0.13,0.38-0.18c0.64-0.27,3.66-1.41,4.49-1.73c0.05-0.02,0.1-0.05,0.12-0.11c0.05-0.12,0.13-0.39,0.17-0.55
		C268.13,132.44,268.1,132.42,268.04,132.45z M252.27,144.23c-0.16,0.24-0.35,0.59-0.54,0.88c-0.27-0.18-0.62-0.39-0.86-0.55
		c-0.13-0.08-0.18-0.07-0.26,0.05c-0.14,0.21-0.35,0.54-0.5,0.8c-0.05,0.1-0.04,0.18,0.1,0.26c0.26,0.15,0.66,0.38,0.91,0.51
		c0.08,0.04,0.14,0.01,0.2-0.07c0.13-0.18,0.28-0.45,0.49-0.79c0.36,0.21,0.65,0.4,0.94,0.54c0.08,0.04,0.12,0.03,0.18-0.04
		c0.14-0.18,0.4-0.58,0.5-0.78c0.07-0.14,0.05-0.19-0.07-0.27c-0.19-0.12-0.65-0.41-0.88-0.56
		C252.36,144.14,252.32,144.15,252.27,144.23z M240.74,140.78c0.35,0.29,0.57,0.67,0.79,1.13c-0.61,0-1.65-0.07-1.74-0.3
		c-0.02-0.05-0.02-0.35,0.39-0.79C240.42,140.56,240.52,140.6,240.74,140.78z M246.98,139.54c-0.02,0.16-0.71,0.72-1.12,0.93
		c-0.43-0.26-1.08-0.69-1.11-0.81c0.08-0.41,0.97-1.28,1.34-1.29C246.59,138.33,246.94,139.13,246.98,139.54z M245.76,137.26
		c-0.44,0.35-1.22,1.03-1.44,2.13c-0.18,1.13,0.08,1.28,0.34,1.62c-0.82,0.36-1.59,0.64-2.44,0.79c-0.23-0.77-0.42-1.41-1.06-2.11
		c-0.55-0.55-0.77-0.44-1.16-0.01c-0.56,0.69-0.71,1.27-0.68,2.26c0.05,0.75,0.38,1.02,0.66,1.11c0.61,0.18,1.44,0.09,1.8,0.02
		c-1.47,3.41-4.4,4.16-7.65,3.31c-0.2-0.03-0.32,0.29-0.15,0.37c4.04,1.45,7.13,0.95,8.4-3.76c1.16-0.23,2.24-0.75,3.24-1.23
		c0.71,0.5,1.32,1.02,2.41,1.15c2.25,0.17,4.54-0.53,4.99-1.12c0.04-0.09,0.49-1.06,0.2-2.26c-0.18-0.77-0.48-1.25-1.09-1.94
		c-0.24-0.3-0.4,1.24-0.28,1.37c0.51,0.52,0.82,1.24,1.03,1.78c-0.88,0.56-1.96,0.87-3.09,0.92c-0.96,0.03-2.04,0.11-3.09-0.6
		c0.44-0.62,0.53-0.72,0.66-1.38c0.1-0.65,0.05-1.58-0.25-2.11C246.68,136.85,246.22,136.91,245.76,137.26z M245.81,133.83
		c-0.16,0.24-0.35,0.59-0.54,0.88c-0.27-0.18-0.62-0.39-0.86-0.55c-0.13-0.09-0.18-0.08-0.26,0.05c-0.14,0.21-0.35,0.54-0.5,0.8
		c-0.05,0.09-0.04,0.18,0.1,0.26c0.26,0.15,0.66,0.38,0.9,0.51c0.08,0.04,0.14,0.01,0.2-0.07c0.13-0.18,0.28-0.45,0.49-0.79
		c0.36,0.21,0.65,0.4,0.94,0.54c0.08,0.04,0.12,0.03,0.18-0.04c0.14-0.18,0.39-0.58,0.5-0.78c0.07-0.14,0.05-0.19-0.07-0.27
		c-0.19-0.12-0.65-0.41-0.88-0.56C245.91,133.74,245.86,133.76,245.81,133.83z M254.01,132.31c-0.93,0.39-4.1,1.56-4.92,1.91
		c-0.05,0.02-0.08,0.03-0.1,0.1c-0.03,0.1-0.13,0.42-0.18,0.59c-0.02,0.07,0.04,0.07,0.1,0.04c0.11-0.05,0.26-0.13,0.39-0.18
		c0.64-0.27,3.66-1.4,4.49-1.73c0.05-0.02,0.1-0.05,0.12-0.11c0.05-0.11,0.13-0.39,0.17-0.55
		C254.1,132.31,254.06,132.29,254.01,132.31z M234.9,130.67c-0.05,0.01-0.1,0.08-0.13,0.15c-0.13,0.29-0.29,0.58-0.42,0.86
		c-0.06,0.11-0.01,0.27,0.02,0.37c0.11,0.24,0.24,0.51,0.39,0.75c0.17,0.99,0.46,2.69,0.62,3.59c0.34,1.81,0.77,3.67,0.84,5.64
		c-0.92,1.6-3.38,2.25-4.71,1.77c-1.26-0.46-1.85-1.7-0.95-3.81c0.16-0.34-0.06-0.5-0.25-0.13c-1.01,2.02-0.96,3.54-0.26,4.41
		c1.27,1.61,4.79,1.16,6.18-1c0.3-0.57,0.5-1.35,0.51-2.04c0.01-0.73-0.09-1.51-0.24-2.32c-0.28-1.55-0.67-3.66-0.94-5.11
		c-0.04-0.21-0.08-0.4-0.11-0.61l0.44-0.61c0.06-0.08,0.15-0.28,0-0.45c-0.43-0.49-0.68-0.88-0.81-1.28
		C235.01,130.69,234.95,130.66,234.9,130.67z M245.04,129.57c0.1,0.12,0.26,0.37,0.29,0.8c0,0.12-0.02,0.3-0.03,0.31
		c-0.01,0.01-0.24-0.09-0.28-0.11c-0.08-0.04-0.31-0.13-0.71-0.28c-0.16-0.03,0-0.28,0-0.28c0.06-0.11,0.16-0.25,0.27-0.36l0.15-0.1
		C244.83,129.51,244.98,129.47,245.04,129.57z M244.95,128.81c-0.46,0.08-1,0.72-1.23,1.45c-0.1,0.33-0.04,0.52,0.14,0.63
		c0.26,0.16,0.64,0.29,1.09,0.41c-0.52,0.87-2.2,2-2.51,2.18c-0.36,0.21-0.3,0.44,0.15,0.24c1.69-0.76,2.53-1.57,2.9-2.29
		c0.12,0.02,0.22,0.06,0.34,0.09c0.2,0.06,0.16,0.08,0.26-0.24c0.05-0.15,0.09-0.26,0.1-0.33l-0.51-0.17l0.05-0.18
		c0.06-0.58-0.09-1.06-0.14-1.21C245.46,128.93,245.23,128.77,244.95,128.81z M234.6,127.06c0.11,0.12,0.26,0.37,0.29,0.8
		c0,0.12-0.02,0.3-0.03,0.31c-0.01,0.01-0.24-0.09-0.28-0.11c-0.08-0.04-0.31-0.13-0.71-0.28c-0.16-0.03,0-0.28,0-0.28
		c0.06-0.11,0.16-0.25,0.27-0.36l0.15-0.1C234.39,127,234.54,126.96,234.6,127.06z M234.51,126.31c-0.46,0.08-1,0.72-1.23,1.45
		c-0.1,0.33-0.03,0.52,0.14,0.63c0.26,0.16,0.64,0.29,1.09,0.41c-0.52,0.87-2.2,2-2.51,2.18c-0.37,0.21-0.3,0.44,0.15,0.24
		c1.69-0.76,2.53-1.57,2.9-2.29c0.12,0.02,0.22,0.06,0.34,0.09c0.2,0.05,0.16,0.08,0.27-0.24c0.05-0.15,0.08-0.26,0.1-0.33
		l-0.51-0.17l0.05-0.18c0.06-0.58-0.09-1.06-0.14-1.21C235.02,126.42,234.79,126.26,234.51,126.31z M223.24,140.02
		c-0.14,0.26-0.09,0.64,0.16,0.81c0.21,0.15,0.56,0.3,0.95,0.5c-0.17,0.08-0.63,0.4-0.79,0.57c-0.07,0.18-0.15,0.49-0.19,0.67
		c-0.02,0.07,0.04,0.14,0.11,0.08c0.41-0.3,1.03-0.69,1.69-0.99c0.6-0.28,1.08-0.46,1.54-0.53c0.07-0.02,0.38-0.7,0.43-0.8
		c0.06-0.13,0-0.16-0.09-0.14c-0.52,0.15-0.92,0.28-1.56,0.28c-0.79,0-1.46-0.54-1.46-0.78c0-0.18,0.53-0.59,0.74-0.58
		c0.61,0.04,0.65,0.57,0.81,0.56c0.2-0.01,0.53-0.74,0.53-0.93c0.01-0.21-0.45-0.66-0.85-0.65
		C224.6,138.11,223.61,139.3,223.24,140.02z M211,136.81c-0.17,0.28-0.4,0.69-0.53,0.94c-0.05,0.1-0.05,0.17,0.06,0.23
		c0.22,0.12,0.61,0.33,0.89,0.48c0.11,0.06,0.18,0.05,0.24-0.03c0.15-0.25,0.38-0.64,0.52-0.88c0.05-0.09,0.07-0.16-0.02-0.21
		c-0.26-0.16-0.69-0.42-0.95-0.57C211.09,136.71,211.05,136.73,211,136.81z M226.65,132.75c-0.93,0.39-3.52,1.42-4.34,1.77
		c-0.05,0.02-0.08,0.03-0.1,0.1c-0.03,0.1-0.13,0.42-0.18,0.59c-0.02,0.07,0.04,0.07,0.1,0.05c0.11-0.05,0.26-0.13,0.38-0.18
		c0.64-0.27,3.08-1.27,3.91-1.6c0.05-0.02,0.1-0.05,0.12-0.11c0.05-0.11,0.13-0.39,0.17-0.55
		C226.75,132.75,226.71,132.73,226.65,132.75z M212.17,132.78l-0.23,0.43c-0.03,0.05-0.05,0.08-0.03,0.13
		c0.07,0.17,0.12,0.37,0.12,0.48c-0.27,0.26-0.56,0.3-0.77,0.13c-0.13-0.11-0.19-0.32-0.17-0.59c0.01-0.2,0.03-0.27-0.14-0.13
		c-0.23,0.18-0.17,0.16-0.18,0.27c-0.08,0.65-0.36,0.93-0.85,0.97c-0.31,0.02-0.54-0.2-0.32-0.82c0.05-0.13-0.05-0.27-0.18,0
		c-0.47,0.93-0.18,1.45,0.29,1.52c0.39,0.06,0.85-0.16,1.09-0.75c0.18,0.3,0.55,0.39,0.88,0.3c0.42-0.11,0.51-0.3,0.63-0.65
		c0.12-0.33,0.12-0.77-0.04-1.29C212.24,132.69,212.19,132.74,212.17,132.78z M218.28,132.1c-0.93,0.39-3.52,1.42-4.34,1.77
		c-0.05,0.02-0.08,0.03-0.1,0.1c-0.03,0.1-0.13,0.42-0.18,0.59c-0.02,0.07,0.05,0.07,0.1,0.04c0.11-0.05,0.26-0.13,0.38-0.18
		c0.64-0.27,3.08-1.27,3.91-1.6c0.05-0.02,0.1-0.05,0.12-0.11c0.05-0.12,0.13-0.39,0.17-0.55
		C218.37,132.1,218.33,132.07,218.28,132.1z M218.56,141.13c-0.72,0.02-1.49-0.21-2.06-0.46
		C217.1,139.18,218.06,139.61,218.56,141.13z M204.29,132.34c0.73,3.34,0.54,6.57,1,8.74c0.23,1.15,0.54,1.83,1.53,2.35
		c1.21,0.59,3.86,0.73,6.09-0.74c0.9,0.42,1.15,0.55,1.7,0.59c0.58-0.06,0.95-0.83,1.39-1.53c0.47,0.59,2.43,0.88,2.95,0.61
		c0.23-0.13,0.26-0.74,0.27-1.17c0.01-1.48-0.55-2.21-0.98-2.57c-0.54-0.44-0.99-0.06-1.16,0.13c-0.84,0.99-1,2.14-1.78,2.96
		c-0.67,0.7-1.49,0.44-2.09,0.26c0.18-0.37,0.33-0.73,0.37-1.2c-0.01-0.46-0.25-0.1-0.26,0.01c-0.44,1.96-5.45,2.33-6.67,1.05
		c-1.8-1.79-0.68-6-1.84-10.61C204.69,130.8,204.33,131.37,204.29,132.34z M219.53,129.64c-0.04,0.01-0.08,0.07-0.1,0.16l-0.2,0.99
		c-0.06,0.28-0.04,0.31,0,0.55c0.12,0.66,0.28,1.48,0.41,2.13c0.32,1.55,0.85,4.26,1.13,5.69c0.2,1.07,0.34,2.16,0.38,3.12
		c0.01,0.18,0.11,0.17,0.16,0.03c0.17-0.53,0.24-1.09,0.24-1.68c0-0.58-0.19-1.75-0.38-2.68c-0.26-1.29-0.75-3.86-1-5.03
		c-0.21-0.99-0.43-2.17-0.55-3.13C219.61,129.66,219.57,129.63,219.53,129.64z M212.94,129.51c-0.93,0.39-4.68,1.66-5.5,2.01
		c-0.05,0.02-0.08,0.03-0.1,0.1c-0.03,0.1-0.13,0.42-0.18,0.59c-0.02,0.07,0.04,0.07,0.1,0.05c0.11-0.05,0.26-0.13,0.38-0.18
		c0.64-0.27,4.25-1.51,5.07-1.84c0.05-0.02,0.1-0.05,0.12-0.11c0.05-0.12,0.13-0.39,0.17-0.55
		C213.03,129.51,212.99,129.48,212.94,129.51z M203.62,146.11c-0.93,0.39-3.52,1.42-4.34,1.77c-0.05,0.02-0.08,0.03-0.1,0.1
		c-0.03,0.1-0.13,0.42-0.18,0.59c-0.02,0.07,0.04,0.07,0.1,0.04c0.11-0.05,0.26-0.13,0.38-0.18c0.64-0.27,3.08-1.27,3.91-1.6
		c0.05-0.02,0.1-0.05,0.12-0.11c0.05-0.11,0.13-0.39,0.17-0.55C203.71,146.11,203.67,146.09,203.62,146.11z M189.71,144.22
		c-0.93,0.39-4.1,1.56-4.92,1.91c-0.05,0.02-0.08,0.03-0.1,0.1c-0.03,0.1-0.13,0.42-0.18,0.59c-0.02,0.07,0.04,0.07,0.1,0.04
		c0.11-0.05,0.26-0.13,0.38-0.18c0.64-0.27,3.66-1.4,4.49-1.73c0.05-0.02,0.1-0.05,0.12-0.11c0.05-0.11,0.13-0.39,0.17-0.55
		C189.81,144.22,189.77,144.2,189.71,144.22z M200.51,144.18c-0.17,0.28-0.4,0.69-0.53,0.94c-0.05,0.1-0.05,0.18,0.06,0.24
		c0.22,0.12,0.61,0.33,0.89,0.48c0.12,0.06,0.19,0.05,0.24-0.03c0.15-0.25,0.38-0.64,0.52-0.88c0.05-0.09,0.07-0.16-0.02-0.21
		c-0.26-0.16-0.69-0.42-0.96-0.57C200.61,144.08,200.56,144.1,200.51,144.18z M188.48,140.72c-0.86,0.22-1.98,0.35-2.58,0.22
		c-0.07-0.01-0.09-0.03-0.03-0.11c0.43-0.57,1.72-1.16,2.64-1.5C188.49,139.77,188.47,140.24,188.48,140.72z M194.01,136.43
		c-0.07,0.29-0.08,0.26-0.04,0.57c0.12,0.81,0.38,1.59,0.66,2.35c0.23,0.61,0.51,1.21,0.79,1.79c0.09,0.2,0.15,0.25-0.03,0.35
		c-0.5,0.3-1.93-0.39-2.37-1.43c-0.28-0.67-0.54-2.65-0.7-3.86c-0.04-0.3-0.1-0.18-0.23,0.16c-0.03,0.08-0.07,0.17-0.11,0.28
		c-0.08,0.25-0.08,0.43-0.04,0.7c0.05,0.41,0.14,1.09,0.23,1.72c0.08,0.53,0.18,1.17,0.35,1.75c-0.43,0.8-1.16,1.31-1.85,1.35
		c-0.86,0.06-1.56-0.46-1.62-1.84c-0.03-0.63-0.05-1.41-0.08-2.69c-0.01-0.32-0.08-0.31-0.16-0.12c-0.06,0.13-0.14,0.32-0.22,0.55
		c-0.04,0.12-0.04,0.25-0.04,0.35c-0.52,0.2-1.36,0.47-2.08,1.04c-0.67,0.52-1.05,1.24-1.42,2.23c-0.06,0.16-0.06,0.31,0.12,0.37
		c0.49,0.15,1.13,0.18,1.69,0.11c0.74-0.1,1.12-0.25,1.68-0.81c0.06,0.6,0.18,1.13,0.45,1.46c0.55,0.7,1.4,0.74,2.18,0.41
		c0.75-0.32,1.33-1.01,1.62-1.75c0.07,0.14,0.14,0.27,0.23,0.38c0.3,0.37,0.69,0.69,1.22,0.91c0.49,0.2,0.99,0.2,1.3-0.23
		c0.57-0.81,0.41-2.15-0.03-3.14c-0.5-1.14-0.85-2.38-1.11-3.57c-0.03-0.14-0.06-0.19-0.09-0.19
		C194.22,135.63,194.12,135.96,194.01,136.43z M192.9,132l-0.23,0.43c-0.03,0.05-0.05,0.08-0.03,0.13c0.07,0.17,0.12,0.37,0.12,0.48
		c-0.27,0.26-0.56,0.3-0.77,0.13c-0.13-0.11-0.19-0.32-0.17-0.59c0.01-0.2,0.03-0.27-0.14-0.13c-0.23,0.18-0.16,0.16-0.18,0.27
		c-0.08,0.65-0.36,0.94-0.85,0.97c-0.31,0.02-0.54-0.2-0.32-0.82c0.05-0.13-0.05-0.27-0.18,0c-0.47,0.93-0.18,1.45,0.29,1.52
		c0.39,0.06,0.85-0.16,1.09-0.75c0.18,0.3,0.55,0.39,0.88,0.3c0.42-0.11,0.51-0.31,0.64-0.65c0.12-0.33,0.12-0.77-0.04-1.29
		C192.96,131.91,192.91,131.95,192.9,132z M197.26,131.15c-0.09,0.26-0.18,0.52-0.27,0.78c-0.09,0.25-0.06,0.28,0.01,0.56
		c0.28,1.07,0.46,3.06,0.61,4.62c0.13,1.4,0.3,2.91,0.47,3.86c0.25,1.44,0.6,2.16,1.67,2.12c0.58,0.01,1.14-0.14,1.55-0.3
		c0.32-0.12,0.45-0.32,0.58-0.59c0.24-0.5,0.32-1.1,0.26-1.68c-0.08-0.87-0.48-1.72-1.23-2.29c-0.15-0.11-0.21-0.09-0.24,0.07
		c-0.05,0.28-0.11,0.65-0.16,0.94c-0.02,0.1-0.06,0.21,0.06,0.31c0.48,0.4,0.93,0.97,1.09,1.66c-0.32,0.3-0.99,0.51-1.81,0.53
		c-0.61,0.01-0.99-0.33-1.23-1.57c-0.15-0.78-0.26-1.69-0.37-2.63c-0.24-2.14-0.41-4.96-0.75-6.36
		C197.41,130.77,197.37,130.84,197.26,131.15z M193.81,128.57c-0.93,0.39-5.12,1.74-5.93,2.09c-0.05,0.02-0.08,0.03-0.1,0.1
		c-0.03,0.1-0.18,0.48-0.22,0.65c-0.02,0.07,0.04,0.07,0.1,0.04c0.11-0.05,0.3-0.15,0.43-0.2c0.68-0.23,4.63-1.57,5.46-1.89
		c0.05-0.02,0.1-0.05,0.12-0.11c0.05-0.11,0.17-0.45,0.22-0.61C193.91,128.57,193.87,128.55,193.81,128.57z M198.74,128.13
		c0.08,0.08,0.17,0.19,0.16,0.3c-0.13,0.29-0.95,0.57-1.26,0.66c-0.06,0.01-0.38,0.08-0.35-0.02c0.19-0.3,0.37-0.62,0.64-0.87
		C198.19,127.99,198.46,127.89,198.74,128.13z M197.95,127.6c-0.36,0.37-0.85,1.05-1.07,1.49c-0.16-0.01-0.46-0.17-0.6-0.24
		c-0.19-0.09-0.32,0.1-0.41,0.25c-0.19,0.29-0.33,0.58-0.44,0.9l-0.11,0.31c0,0.13,0.06,0.17,0.16,0.06
		c0.22-0.22,0.39-0.82,0.52-0.74c0.75,0.43,1.71,0.28,2.43-0.22c0.56-0.4,0.99-1.01,0.83-1.69c-0.06-0.24-0.33-0.48-0.59-0.49
		C198.4,127.22,198.16,127.39,197.95,127.6z M181.13,140.75c-0.35,0.51-0.83,0.73-1.37,0.22c-0.19-0.18-0.18-0.24-0.1-0.44
		c0.18-0.36,0.43-0.52,0.6-0.53C180.5,139.99,180.92,140.45,181.13,140.75z M179.73,138.97c-0.33,0.36-0.61,1.16-0.63,1.91
		c-0.04,0.84,0.41,1.68,1.21,1.7c0.49,0.01,0.94-0.44,1.2-1.08c0.17,1.03-0.69,2.57-1.89,3.53c-1.41,1.07-2.75,1.2-4.73,1.11
		c-0.32-0.04-0.47,0.28-0.09,0.37c1.77,0.41,4.18,0.47,5.44-0.66c1.04-0.93,1.66-2.37,1.76-4c0.05-1.02-0.27-2.19-1.12-2.93
		C180.42,138.54,180.08,138.57,179.73,138.97z M182.52,133.97c-0.93,0.39-4.1,1.56-4.92,1.91c-0.05,0.02-0.08,0.03-0.1,0.1
		c-0.03,0.1-0.13,0.42-0.18,0.59c-0.02,0.07,0.04,0.07,0.1,0.04c0.11-0.05,0.26-0.13,0.38-0.18c0.64-0.27,3.66-1.41,4.49-1.73
		c0.05-0.02,0.1-0.05,0.12-0.11c0.05-0.11,0.13-0.39,0.17-0.55C182.62,133.97,182.58,133.95,182.52,133.97z M175.53,147.81
		c-0.93,0.39-3.52,1.42-4.34,1.77c-0.05,0.02-0.08,0.03-0.1,0.1c-0.03,0.1-0.13,0.42-0.18,0.59c-0.02,0.07,0.04,0.07,0.1,0.04
		c0.11-0.05,0.26-0.13,0.38-0.18c0.64-0.27,3.08-1.27,3.91-1.6c0.05-0.02,0.1-0.05,0.12-0.11c0.05-0.12,0.13-0.39,0.17-0.55
		C175.63,147.81,175.59,147.78,175.53,147.81z M165.05,144.74c-0.16,0.24-0.35,0.59-0.54,0.88c-0.27-0.18-0.62-0.39-0.86-0.55
		c-0.13-0.08-0.18-0.07-0.26,0.05c-0.14,0.21-0.35,0.54-0.5,0.8c-0.05,0.1-0.04,0.18,0.1,0.26c0.26,0.15,0.66,0.38,0.9,0.51
		c0.08,0.04,0.14,0.02,0.2-0.06c0.13-0.18,0.28-0.45,0.49-0.79c0.36,0.21,0.65,0.4,0.94,0.54c0.08,0.04,0.12,0.03,0.18-0.04
		c0.14-0.18,0.39-0.58,0.5-0.78c0.07-0.14,0.05-0.19-0.07-0.27c-0.19-0.12-0.65-0.41-0.88-0.56
		C165.15,144.65,165.1,144.67,165.05,144.74z M172.8,144.7c-0.17,0.28-0.4,0.69-0.53,0.94c-0.05,0.1-0.05,0.18,0.06,0.24
		c0.22,0.12,0.61,0.33,0.89,0.48c0.12,0.06,0.19,0.05,0.24-0.03c0.15-0.25,0.38-0.64,0.52-0.88c0.05-0.09,0.07-0.16-0.02-0.21
		c-0.26-0.16-0.69-0.42-0.95-0.57C172.89,144.6,172.85,144.62,172.8,144.7z M155.61,143.34c-0.93,0.39-4.1,1.56-4.92,1.91
		c-0.05,0.02-0.08,0.03-0.1,0.1c-0.03,0.1-0.13,0.42-0.18,0.59c-0.02,0.07,0.04,0.07,0.1,0.05c0.11-0.05,0.26-0.13,0.38-0.18
		c0.64-0.27,3.66-1.41,4.49-1.73c0.05-0.02,0.1-0.05,0.12-0.11c0.05-0.12,0.13-0.39,0.17-0.55
		C155.7,143.34,155.66,143.32,155.61,143.34z M153.21,139.73c0.37,0.1,0.68,0.53,0.91,1.08c0.04,0.09,0.08,0.14-0.04,0.14
		c-0.71-0.07-1.46-0.14-2.04-0.35c-0.04-0.02-0.04-0.03-0.01-0.07c0.24-0.36,0.6-0.81,1.01-0.83
		C153.1,139.7,153.15,139.71,153.21,139.73z M153.2,138.38c-0.39,0.05-0.64,0.35-0.88,0.64c-0.49,0.6-0.76,1.34-0.89,2.23
		c-0.05,0.45-0.1,0.59-0.39,0.89c-0.88,0.92-2.99,2.08-4.21,2.74c-0.23,0.13-0.3,0.31,0.04,0.23c2.07-0.44,4.22-1.25,4.86-3.21
		c0.76,0.18,1.67,0.35,2.59,0.39c0.31,0,0.33,0,0.41-0.26c0.09-0.34,0.15-0.64,0.15-0.88c-0.01-0.44-0.24-1.32-0.49-1.87
		c-0.21-0.45-0.5-0.86-1-0.91C153.31,138.37,153.26,138.37,153.2,138.38z M164.88,134.16c-0.93,0.39-3.52,1.42-4.34,1.77
		c-0.05,0.02-0.08,0.03-0.1,0.1c-0.03,0.1-0.13,0.42-0.18,0.59c-0.02,0.07,0.04,0.07,0.1,0.04c0.11-0.05,0.26-0.13,0.39-0.18
		c0.64-0.27,3.08-1.27,3.91-1.6c0.05-0.02,0.1-0.05,0.12-0.11c0.05-0.11,0.13-0.39,0.17-0.55
		C164.98,134.16,164.94,134.13,164.88,134.16z M156.59,134.26c-0.03,0.08-0.09,0.2-0.12,0.28c-0.04,0.14,0.04,0.24,0.11,0.13
		c0.09-0.13,0.19-0.25,0.32-0.33c0.31-0.19,0.65-0.26,0.99-0.23c0.31,0.03,0.89,0.25,0.89,0.28c0,0.07-1.35,0.73-1.56,0.87
		c-0.09,0.06-0.2,0.16-0.18,0.27c0.02,0.08,0.15,0.1,0.25,0.06c0.53-0.19,0.72-0.18,1.15-0.36c0.58-0.25,0.75-0.55,0.85-0.58
		c0.04-0.01,0.09-0.01,0.14-0.05c0.17-0.16,0.31-0.57,0.32-0.71c-0.02-0.11-0.4-0.15-0.52-0.17c-0.38-0.09-0.75-0.29-1.14-0.32
		C157.48,133.33,156.91,133.61,156.59,134.26z M169.8,131.7c-0.1,0.25-0.17,0.51-0.27,0.76c-0.1,0.25-0.07,0.27,0,0.55
		c0.26,1.06,0.51,3.05,0.64,4.57c0.12,1.38,0.32,2.85,0.46,3.79c0.23,1.52,0.54,2.12,1.64,2.11c0.68-0.01,1.4-0.17,1.87-0.45
		c0.33-0.19,0.44-0.4,0.54-0.7c0.37-1.29-0.01-2.78-0.9-3.46c-0.15-0.11-0.22-0.09-0.25,0.06c-0.06,0.28-0.12,0.64-0.18,0.92
		c-0.02,0.1-0.07,0.21,0.06,0.31c0.49,0.4,0.84,0.95,0.91,1.51c-0.34,0.29-1.08,0.56-1.92,0.54c-0.7-0.02-1.01-0.39-1.24-1.6
		c-0.15-0.77-0.24-1.66-0.34-2.58c-0.21-2.1-0.51-4.84-0.78-6.28C169.98,131.33,169.91,131.4,169.8,131.7z M159.78,140.6
		c0.27,0.22,0.5,0.69,0.7,1.15c-0.63,0.01-1.19-0.09-1.54-0.4c-0.13-0.12-0.13-0.18-0.07-0.31c0.09-0.19,0.28-0.41,0.46-0.5
		c0.05-0.02,0.1-0.03,0.14-0.04c0.03-0.01,0.05-0.02,0.08-0.01C159.63,140.49,159.71,140.54,159.78,140.6z M165.91,130.53
		c-0.15,0.29-0.31,0.56-0.46,0.85c-0.06,0.1-0.01,0.28,0.03,0.37c0.09,0.22,0.19,0.43,0.31,0.64c0.15,0.86,0.29,1.7,0.43,2.53
		c0.32,1.82,0.67,3.75,0.93,5.52c0.15,1.42-1.23,0.42-2.43-0.02c-0.27-0.1-0.54-0.27-1.14,0.17c-0.65,0.48-1.43,0.91-2.29,1.1
		c-0.28-1.19-0.78-2.61-1.59-2.56c-0.86,0.05-1.84,2.11-1.3,3.21c0.2,0.42,0.62,0.64,1.11,0.68c0.36,0.03,0.74,0.05,1.14,0.02
		c-1.01,2.98-4.53,4.1-7.06,3.54c-0.41-0.09-0.67,0.25-0.11,0.39c4.71,1.2,6.87,0.09,7.65-4c1.32-0.29,1.95-0.85,2.47-1.27
		c0.38-0.31,0.64-0.21,1.05,0.02c0.8,0.44,1.33,0.77,1.75,0.78c0.92,0.04,1.22-1.39,1.28-2.43c0.04-0.74-0.16-1.57-0.34-2.62
		c-0.27-1.54-0.54-3.08-0.79-4.54c0-0.01,0-0.02,0-0.03c0.15-0.19,0.29-0.4,0.44-0.59c0.05-0.07,0.15-0.27,0-0.45
		c-0.43-0.49-0.65-0.87-0.78-1.28c-0.05-0.16-0.11-0.22-0.16-0.2C165.98,130.38,165.95,130.46,165.91,130.53z M171.51,128.67
		c0.08,0.08,0.17,0.19,0.16,0.3c-0.13,0.29-0.95,0.58-1.26,0.66c-0.06,0.01-0.38,0.08-0.36-0.02c0.19-0.3,0.37-0.62,0.64-0.87
		C170.95,128.53,171.23,128.43,171.51,128.67z M170.72,128.14c-0.36,0.37-0.85,1.05-1.07,1.49c-0.16-0.01-0.46-0.17-0.6-0.24
		c-0.19-0.09-0.32,0.1-0.41,0.25c-0.18,0.29-0.33,0.58-0.44,0.9l-0.11,0.31c0,0.13,0.06,0.17,0.16,0.06
		c0.22-0.22,0.39-0.82,0.52-0.74c0.75,0.43,1.71,0.28,2.43-0.22c0.56-0.4,0.99-1.01,0.83-1.69c-0.06-0.24-0.33-0.47-0.59-0.49
		C171.17,127.76,170.93,127.93,170.72,128.14z M164.05,128.42c-0.03,0.08-0.09,0.2-0.12,0.28c-0.04,0.14,0.04,0.24,0.11,0.13
		c0.09-0.13,0.19-0.25,0.32-0.33c0.31-0.19,0.65-0.26,0.99-0.23c0.31,0.03,0.89,0.25,0.89,0.28c0,0.07-1.35,0.73-1.56,0.87
		c-0.09,0.06-0.2,0.16-0.18,0.27c0.02,0.08,0.15,0.1,0.25,0.06c0.53-0.19,0.72-0.18,1.15-0.36c0.58-0.25,0.75-0.55,0.85-0.59
		c0.04-0.01,0.09-0.01,0.14-0.05c0.17-0.16,0.31-0.57,0.32-0.71c-0.02-0.11-0.41-0.15-0.52-0.17c-0.38-0.09-0.75-0.29-1.14-0.32
		C164.94,127.5,164.37,127.77,164.05,128.42z M123.16,147.02c-0.93,0.39-3.52,1.42-4.34,1.77c-0.05,0.02-0.08,0.03-0.1,0.1
		c-0.03,0.1-0.13,0.42-0.18,0.59c-0.02,0.07,0.04,0.07,0.1,0.05c0.11-0.05,0.26-0.13,0.39-0.18c0.64-0.27,3.08-1.27,3.91-1.6
		c0.05-0.02,0.1-0.05,0.12-0.11c0.05-0.11,0.13-0.39,0.17-0.55C123.26,147.02,123.22,147,123.16,147.02z M134.12,142.77
		c-0.93,0.39-4.1,1.56-4.92,1.91c-0.05,0.02-0.08,0.03-0.1,0.1c-0.03,0.1-0.13,0.42-0.18,0.59c-0.02,0.07,0.04,0.07,0.1,0.04
		c0.11-0.05,0.26-0.13,0.38-0.18c0.64-0.27,3.66-1.41,4.49-1.73c0.05-0.02,0.1-0.05,0.12-0.11c0.05-0.11,0.13-0.39,0.17-0.55
		C134.21,142.77,134.17,142.75,134.12,142.77z M127.44,139.63c-0.17,0.28,0.11,0.42,0.36,0.21c1.15-1.03,2.74-0.09,4.4,0.58
		c-1.09,0.4-2.4,0.98-4.14,1.25c-1.02,0.16-2.19,0.23-3.55,0.08c-1.03-0.13-2.43-0.59-2.69-1.61c-0.11-0.44-0.16-0.3-0.26-0.04
		c-0.45,1.19-0.11,1.89,0.71,2.32c-0.54,1.27-1.25,2.26-2.11,2.81c-1.36,0.83-2.85,0.91-5.08,0.12c-0.14-0.03-0.22,0.07-0.25,0.13
		c-0.03,0.05-0.02,0.21,0.11,0.27c1.5,0.6,3.68,1.74,5.73,0.44c1.11-0.71,1.73-2.26,2.01-3.61c0.6,0.21,1.24,0.38,1.97,0.46
		c2.34,0.2,4.94-0.37,7.21-1.42c0.78-0.37,1.54-0.59,2.29-0.63c0.68-0.04,1.35,0.08,1.94,0.27c0.13,0.04,0.72-1.38,0.6-1.36
		c-1.01,0.16-1.52,0.1-2.46,0.01c-1.75-0.2-2.87-1.05-4.05-1.75C129.73,137.96,128.61,137.47,127.44,139.63z M129.1,134.61
		c-0.17,0.28-0.4,0.69-0.53,0.94c-0.05,0.1-0.05,0.17,0.06,0.24c0.22,0.12,0.61,0.33,0.89,0.48c0.11,0.06,0.18,0.05,0.24-0.03
		c0.15-0.25,0.38-0.64,0.52-0.88c0.05-0.09,0.07-0.16-0.02-0.21c-0.26-0.16-0.69-0.42-0.95-0.57
		C129.2,134.51,129.15,134.53,129.1,134.61z M138.07,132.65c-0.09,0.19-0.05,0.39,0.13,0.53c0.14,0.1,0.41,0.28,0.67,0.41
		c-0.11,0.05-0.37,0.15-0.52,0.26c-0.04,0.12-0.09,0.31-0.11,0.44c-0.01,0.04,0.03,0.09,0.07,0.06c0.46-0.27,1.84-0.62,2.44-0.76
		c0.04-0.01,0.23-0.44,0.26-0.51c0.04-0.08,0-0.11-0.06-0.09c-0.34,0.09-0.67,0.15-1.09,0.14c-0.52-0.01-1.31-0.57-1.31-0.68
		c0.01-0.11,0.62-0.37,0.76-0.36c0.4,0.04,0.46,0.44,0.57,0.44c0.13,0,0.33-0.48,0.33-0.6c0-0.14-0.33-0.5-0.59-0.5
		C139.19,131.44,138.29,132.19,138.07,132.65z M144.93,130.5l-0.19,0.99c-0.06,0.28-0.04,0.31,0,0.55c0.11,0.66,0.27,1.31,0.39,1.95
		c0.32,1.55,0.71,3.5,0.99,4.93c0.2,1.07,0.34,2.16,0.38,3.12c0.01,0.18,0.11,0.17,0.16,0.03c0.17-0.53,0.24-1.09,0.24-1.68
		c0-0.58-0.19-1.75-0.38-2.68c-0.26-1.29-0.61-3.1-0.85-4.27c-0.21-0.99-0.41-1.99-0.53-2.95c-0.01-0.11-0.06-0.15-0.1-0.14
		C144.99,130.36,144.95,130.42,144.93,130.5z M141.83,141.55c-0.66,0.13-1.23,0.21-1.9,0.31c0.69-0.61,0.87-0.91,1.3-1.44
		C141.52,140.85,141.63,141.03,141.83,141.55z M141.73,129.9c-0.2,0.37-0.32,0.57-0.6,1.12c-0.02,0.1,0.16,0.68,0.51,1.23
		c0.11,1.25,0.24,2.49,0.26,3.78c0,1.65-0.21,2.25-0.65,3.24c-0.9-1.32-1.65-2.42-2.8-3.67c-1.22-1.26-2.49-2.6-4.16-3.52
		c-0.17-0.12-0.29-0.05-0.27,0.09c0.15,1.02,0.34,2.37,0.92,2.66c0.31,0.16,1.25,0.42,1.62,0.47c0.03,0.01,0.07-0.08,0.13-0.21
		c0.93,0.9,1.5,1.42,2.21,2.22c0.72,0.83,1.27,1.52,2.04,2.59c-0.58,0.79-1.14,1.41-2.12,2.19l-0.64,0.14
		c-0.09,0.01-0.1,1.38,0.01,1.37c1.99-0.37,3.99-0.71,3.99-0.78c0.16-1.33,0.22-1.18-0.62-2.98c0.37-0.95,0.68-1.85,0.88-3.29
		c0.07-0.62,0.12-1.64-0.09-3.92c0.4-0.61,0.5-0.88,0.52-1.04c-0.05-0.3-0.63-0.28-0.91-1.66
		C141.9,129.74,141.78,129.82,141.73,129.9z M139.16,129.31c-0.94,0.35-2.45,0.88-3.28,1.19c-0.05,0.02-0.08,0.03-0.11,0.1
		c-0.04,0.09-0.15,0.41-0.2,0.58c-0.02,0.07,0.04,0.07,0.1,0.05c0.11-0.04,0.26-0.12,0.39-0.17c0.65-0.24,2-0.74,2.84-1.04
		c0.05-0.02,0.1-0.04,0.13-0.1c0.05-0.11,0.15-0.38,0.2-0.54C139.26,129.32,139.22,129.29,139.16,129.31z M139.95,127.71
		c-0.03,0.08-0.09,0.2-0.12,0.28c-0.04,0.14,0.04,0.24,0.11,0.13c0.08-0.13,0.19-0.25,0.32-0.33c0.31-0.19,0.65-0.26,0.99-0.23
		c0.31,0.03,0.89,0.25,0.89,0.28c0,0.07-1.35,0.73-1.56,0.87c-0.09,0.06-0.2,0.16-0.18,0.27c0.02,0.08,0.15,0.1,0.25,0.06
		c0.53-0.19,0.72-0.18,1.15-0.36c0.58-0.25,0.75-0.55,0.85-0.58c0.04-0.01,0.09-0.01,0.14-0.05c0.17-0.15,0.31-0.57,0.32-0.71
		c-0.02-0.11-0.4-0.15-0.52-0.17c-0.38-0.09-0.75-0.29-1.14-0.32C140.84,126.79,140.27,127.06,139.95,127.71z M146.73,127.62
		c0.08,0.08,0.17,0.19,0.16,0.3c-0.13,0.29-0.95,0.58-1.26,0.66c-0.06,0.01-0.38,0.08-0.35-0.01c0.19-0.3,0.37-0.62,0.64-0.87
		C146.18,127.48,146.46,127.38,146.73,127.62z M145.95,127.09c-0.36,0.37-0.85,1.05-1.07,1.49c-0.16-0.01-0.46-0.17-0.6-0.24
		c-0.19-0.09-0.32,0.1-0.41,0.25c-0.18,0.29-0.33,0.58-0.44,0.9l-0.11,0.31c0,0.14,0.06,0.17,0.16,0.06
		c0.22-0.22,0.39-0.81,0.52-0.74c0.75,0.43,1.71,0.28,2.43-0.22c0.56-0.4,0.99-1.01,0.83-1.69c-0.06-0.24-0.33-0.47-0.59-0.49
		C146.39,126.72,146.15,126.88,145.95,127.09z M114.43,140.38c-0.35,0.51-0.83,0.73-1.37,0.22c-0.19-0.18-0.18-0.24-0.1-0.44
		c0.18-0.36,0.43-0.52,0.6-0.53C113.8,139.61,114.22,140.07,114.43,140.38z M113.03,138.59c-0.33,0.36-0.61,1.16-0.63,1.91
		c-0.04,0.84,0.41,1.68,1.21,1.7c0.49,0.01,0.94-0.44,1.2-1.08c0.17,1.03-0.69,2.57-1.88,3.53c-1.41,1.07-2.75,1.2-4.73,1.11
		c-0.32-0.04-0.47,0.28-0.09,0.37c1.77,0.4,4.18,0.47,5.44-0.66c1.04-0.93,1.66-2.37,1.76-4c0.05-1.02-0.27-2.19-1.12-2.93
		C113.72,138.16,113.39,138.19,113.03,138.59z M115.47,133.05c-0.93,0.39-4.1,1.56-4.92,1.91c-0.05,0.02-0.08,0.03-0.1,0.1
		c-0.03,0.1-0.13,0.42-0.18,0.59c-0.02,0.07,0.04,0.07,0.1,0.05c0.11-0.05,0.26-0.13,0.39-0.18c0.64-0.27,3.66-1.41,4.49-1.73
		c0.05-0.02,0.1-0.05,0.12-0.11c0.05-0.11,0.13-0.39,0.17-0.55C115.56,133.04,115.53,133.02,115.47,133.05z M108.99,131.73
		c-0.93,0.39-4.1,1.56-4.92,1.91c-0.05,0.02-0.08,0.03-0.1,0.1c-0.03,0.1-0.13,0.42-0.18,0.59c-0.02,0.07,0.04,0.07,0.1,0.04
		c0.11-0.05,0.26-0.13,0.38-0.18c0.64-0.27,3.66-1.41,4.49-1.73c0.05-0.02,0.1-0.05,0.12-0.11c0.05-0.11,0.13-0.39,0.17-0.55
		C109.08,131.73,109.04,131.7,108.99,131.73z M108.51,140.94c-0.72-0.06-1.52-0.15-2.04-0.52
		C107.38,138.82,108.21,139.75,108.51,140.94z M101.28,131.18c-0.07,0.28-0.13,0.58-0.17,0.92c-0.01,0.05,0,0.1,0,0.15
		c0.36,2.95,0.57,6.2,1.07,9.12c0.19,0.89,0.22,1.82,1.2,2c0.74,0.11,1.81-0.05,2.35-0.67c0.23-0.29,0.37-0.73,0.43-1.05
		c0.44,0.41,1.58,0.65,2.65,0.67c0.29,0.01,0.33-0.05,0.41-0.43c0.06-0.34,0.09-0.65,0.04-0.98c-0.08-0.61-0.4-1.53-0.77-2.14
		c-0.54-0.84-1.19-0.72-1.75,0.09c-0.67,1-0.54,2.21-1.19,2.79c-0.47,0.38-1.27,0.51-1.75,0.44c-0.93-0.14-1.03-0.76-1.23-2.22
		c-0.37-2.41-0.62-5.83-0.99-8.55C101.52,130.79,101.37,130.83,101.28,131.18z M87.19,141.81c-0.93-0.12-1.83-0.58-2.02-0.81
		c-0.29-0.27,0.82-0.78,0.96-0.81C86.4,140.12,86.68,141.01,87.19,141.81z M99.08,140.71c0.08,0.18,0.04,0.46-0.18,0.44
		c-0.35-0.04-1.22-0.3-1.82-0.48c0.41-0.83,0.43-0.7,0.34-1.84C98.22,139.26,98.91,140.31,99.08,140.71z M96.72,139.08
		c0.59,0.81,0.18,1.12-0.52,1.35c-0.93-0.06-1.07-0.09-0.96-0.68c0.04-0.28,0.34-1.13,0.83-1.13
		C96.26,138.61,96.48,138.74,96.72,139.08z M95.22,136.3c-0.01,0-0.02,0-0.02,0c-0.05,0.01-0.35,0.01-0.38,0.49
		c-0.1,1.3,0.33,1.05,0.47,1.28c-0.35,0.47-0.47,1.02-0.56,1.52c-0.13,0.71-0.16,0.99,0.22,1.34c-2.54,0.95-4.1,1.09-5.54,0.75
		c-2.14-0.57-2.46-2.16-3.03-2.33c-0.33-0.1-1.49,0.91-1.7,1.28c-0.59,0.32-0.91,0.62-1.18,1.09c-0.32,0.52-0.49,1.1-0.53,1.65
		c-0.07,1.34,0.38,3.16,0.57,4.57c0.36,2.67,0.46,3.01,0.62,4.26c0.05,0.67,0.35-0.59,0.27-1.7c-0.1-1.35-0.98-6.21-1.01-7.43
		c-0.07-0.8,1.16-1.14,1.39-1.23c0.49,1.13,2.61,1.3,3.3,1.34c0.07,0,0.03-0.41,0.03-0.63c1.3,0.81,4.8,0.72,8.15-1.13
		c0.84,0.33,1.69,0.52,2.26,0.68c0.34,0.08,0.57,0.14,0.66-0.07c0.46-1.01,0.42-1.84-0.02-2.59c-0.51-0.98-2.61-2.59-3.36-2.98
		c-0.09-0.05-0.33-0.16-0.57-0.16C95.24,136.3,95.23,136.3,95.22,136.3z M95.32,131.38c0.11,0.12,0.26,0.37,0.29,0.8
		c0,0.12-0.02,0.3-0.03,0.31c-0.01,0.01-0.24-0.09-0.28-0.11c-0.08-0.04-0.31-0.13-0.71-0.28c-0.16-0.03,0-0.28,0-0.28
		c0.06-0.11,0.16-0.25,0.27-0.37l0.15-0.1C95.1,131.32,95.25,131.28,95.32,131.38z M95.23,130.63c-0.46,0.08-1,0.72-1.23,1.45
		c-0.1,0.33-0.04,0.52,0.14,0.63c0.26,0.16,0.64,0.29,1.09,0.41c-0.52,0.87-2.2,2-2.51,2.18c-0.36,0.21-0.3,0.44,0.16,0.24
		c1.69-0.76,2.52-1.57,2.9-2.29c0.12,0.02,0.22,0.06,0.34,0.09c0.2,0.05,0.16,0.08,0.26-0.24c0.05-0.15,0.09-0.26,0.1-0.33
		l-0.51-0.17l0.05-0.18c0.06-0.58-0.09-1.06-0.14-1.21C95.73,130.74,95.5,130.58,95.23,130.63z M81.12,146.53
		c-0.93,0.39-4.1,1.56-4.92,1.91c-0.05,0.02-0.08,0.03-0.1,0.1c-0.03,0.1-0.13,0.42-0.18,0.59c-0.02,0.07,0.04,0.07,0.1,0.04
		c0.11-0.05,0.26-0.13,0.38-0.18c0.64-0.27,3.66-1.41,4.49-1.73c0.05-0.02,0.1-0.05,0.12-0.11c0.05-0.11,0.13-0.39,0.17-0.55
		C81.21,146.53,81.17,146.5,81.12,146.53z M49.17,144.5c-0.15,0.24-0.35,0.59-0.54,0.88c-0.27-0.18-0.62-0.4-0.86-0.55
		c-0.13-0.08-0.18-0.08-0.26,0.05c-0.14,0.22-0.35,0.54-0.5,0.8c-0.05,0.09-0.04,0.18,0.1,0.26c0.26,0.15,0.66,0.38,0.9,0.51
		c0.08,0.04,0.14,0.02,0.2-0.07c0.13-0.18,0.28-0.45,0.49-0.79c0.36,0.21,0.65,0.4,0.94,0.54c0.08,0.04,0.12,0.03,0.18-0.04
		c0.14-0.18,0.4-0.58,0.5-0.78c0.07-0.14,0.05-0.19-0.07-0.27c-0.19-0.12-0.65-0.41-0.88-0.56
		C49.26,144.41,49.22,144.42,49.17,144.5z M57.49,144.4c-0.93,0.39-3.52,1.42-4.34,1.77c-0.05,0.02-0.08,0.03-0.1,0.1
		c-0.03,0.1-0.13,0.42-0.18,0.59c-0.02,0.07,0.04,0.07,0.1,0.04c0.11-0.05,0.26-0.13,0.38-0.18c0.64-0.27,3.08-1.27,3.91-1.6
		c0.05-0.02,0.1-0.05,0.12-0.11c0.05-0.12,0.13-0.39,0.17-0.55C57.59,144.4,57.55,144.38,57.49,144.4z M78.69,144.13
		c-0.17,0.28-0.4,0.69-0.53,0.94c-0.05,0.1-0.05,0.17,0.06,0.23c0.22,0.12,0.61,0.33,0.89,0.48c0.12,0.06,0.19,0.05,0.24-0.03
		c0.15-0.25,0.38-0.64,0.52-0.88c0.05-0.09,0.07-0.16-0.02-0.21c-0.26-0.16-0.69-0.42-0.95-0.57
		C78.79,144.03,78.74,144.05,78.69,144.13z M64.54,142.96c-0.93,0.39-3.52,1.42-4.34,1.77c-0.05,0.02-0.08,0.03-0.1,0.1
		c-0.03,0.1-0.13,0.42-0.18,0.59c-0.02,0.07,0.04,0.07,0.1,0.04c0.11-0.05,0.26-0.13,0.38-0.18c0.64-0.27,3.08-1.27,3.91-1.6
		c0.05-0.02,0.1-0.05,0.12-0.11c0.05-0.11,0.13-0.39,0.17-0.55C64.64,142.95,64.6,142.93,64.54,142.96z M68.74,142.09
		c-0.93-0.03-1.58-0.26-1.6-0.38c-0.03-0.11,0.38-0.77,0.75-0.77C68.17,140.96,68.4,141.22,68.74,142.09z M73.05,140.06
		c0.23,0.03,0.55,0.92,1.08,1.69c-0.78-0.11-2.11-0.5-2.12-0.9c0-0.23,0.65-0.78,0.98-0.8C73.01,140.05,73.04,140.05,73.05,140.06z
		 M78.83,139.06c0.51,0.5,0.84,0.99,1.06,1.79c-0.77,0.56-1.66,0.65-2.82,0.73c-1.05,0.03-1.55-0.1-2.35-0.7
		c-0.33-0.25-0.8-0.87-1.01-1.22c-0.36-0.62-0.57-0.43-0.76-0.32c-1.01,0.69-1.1,1.61-2.09,2.26c-0.49,0.28-0.95,0.35-1.41,0.43
		c-0.23-0.71-0.33-1.45-0.92-2.13c-0.18-0.22-0.65-0.41-1.08-0.02c-0.5,0.48-0.71,1.12-0.78,1.83c-0.1,0.76,0.1,1.31,0.74,1.51
		c0.45,0.14,1.04,0.17,1.61,0.12c-1.97,3.46-4.67,3.45-7.54,3.02c-0.22-0.02-0.3,0.2-0.12,0.27c2.5,0.86,4.53,0.93,5.99,0.04
		c0.99-0.61,2.01-1.82,2.25-3.42c0.56-0.17,1.21-0.34,1.61-0.71c0.26-0.24,0.29-0.67,0.6-1.11c0.01,0.4-0.05,0.65,0.39,1.04
		c0.41,0.34,1.53,0.51,2.66,0.76c0.13,0.03,0.09-0.3,0.11-0.77c0.92,0.49,1.79,0.45,2.72,0.37c0.85-0.12,1.93-0.39,2.29-0.8
		c0.04-0.05,0.34-0.77,0.27-1.86c-0.03-1.14-0.6-1.78-1.2-2.42C78.96,137.64,78.77,138.97,78.83,139.06z M62.45,140.64
		c-0.44,0.03-1.83-0.32-2.25-0.64C61.21,138.87,61.95,138.93,62.45,140.64z M48.41,137.39c-0.39,1.88-1.44,1.83-1.96,1.62
		c-0.2-0.32-0.39-0.69-0.58-1.03c-0.24-0.37-0.32,0.86-0.25,1.19c0.66,1.38,0.86,2.03,0.86,2.67c-0.01,1.01-1.6,2-3.07,2.3
		c-1.19,0.24-2.14,0.11-2.84-0.65c-0.99-1.08-0.28-2.62-0.19-3.51c0.03-0.37-0.19-0.11-0.32,0.17c-0.58,1.35-0.67,2.45-0.51,3.32
		c0.26,1.13,1.02,1.82,2.12,2.01c1.21,0.18,2.89,0.05,4.45-1.47c0.9-0.88,0.78-2.32,0.77-3.54c0.43-0.05,1.3-0.09,1.74-1.9
		c0.54,1.74,0.47,4.27,2.46,4.8c1.15,0.26,3.85,0.52,5.55-1.33c1.61,1.49,2.53,0.91,3.18-0.87c0.99,0.83,2.61,0.84,2.93,0.79
		c0.36-0.08,0.46-0.55,0.46-1.02c0-0.93-0.46-2.11-0.87-2.67c-0.45-0.61-1.06-0.5-1.37-0.17c-0.91,1.02-1.1,2.14-1.89,3.12
		c-0.58,0.7-1.45,0.4-2.17,0.25c0.13-0.42,0.18-0.81,0.1-1.22c-0.06-0.23-0.24-0.04-0.29,0.08c-0.63,1.85-3.7,2.18-5.2,1.78
		c-2.54-0.7-1.73-3.44-2.68-4.95C48.74,137.03,48.52,137.03,48.41,137.39z M54.74,136.77c-0.17,0.28-0.4,0.69-0.53,0.94
		c-0.05,0.1-0.05,0.18,0.06,0.23c0.22,0.12,0.61,0.33,0.89,0.48c0.12,0.06,0.19,0.05,0.24-0.03c0.15-0.25,0.38-0.64,0.52-0.88
		c0.05-0.09,0.07-0.16-0.02-0.21c-0.26-0.16-0.69-0.42-0.95-0.57C54.84,136.67,54.79,136.69,54.74,136.77z M42.52,135.83
		c-0.17,0.28-0.4,0.69-0.53,0.94c-0.05,0.1-0.05,0.17,0.06,0.23c0.22,0.12,0.61,0.33,0.89,0.48c0.11,0.06,0.18,0.05,0.24-0.03
		c0.15-0.25,0.38-0.64,0.52-0.88c0.05-0.09,0.07-0.16-0.02-0.21c-0.26-0.16-0.69-0.42-0.95-0.57
		C42.61,135.73,42.57,135.75,42.52,135.83z M66.16,136.55c-0.09,0.19-0.06,0.39,0.13,0.53c0.14,0.1,0.41,0.28,0.67,0.41
		c-0.11,0.05-0.37,0.15-0.52,0.26c-0.04,0.12-0.09,0.31-0.11,0.43c-0.01,0.04,0.03,0.09,0.07,0.06c0.46-0.27,1.84-0.62,2.44-0.76
		c0.04-0.01,0.23-0.44,0.26-0.51c0.04-0.08,0-0.11-0.06-0.09c-0.34,0.09-0.67,0.15-1.09,0.14c-0.52-0.01-1.31-0.57-1.31-0.68
		c0.01-0.11,0.62-0.37,0.76-0.36c0.4,0.04,0.46,0.44,0.57,0.44c0.13,0,0.33-0.48,0.33-0.6c0-0.14-0.33-0.5-0.59-0.5
		C67.28,135.33,66.38,136.08,66.16,136.55z M73.39,133.14c0.11,0.12,0.26,0.37,0.29,0.8c0,0.12-0.02,0.3-0.03,0.31
		c-0.01,0.01-0.24-0.09-0.28-0.11c-0.08-0.04-0.31-0.13-0.71-0.28c-0.16-0.03,0-0.28,0-0.28c0.06-0.11,0.16-0.25,0.27-0.36l0.15-0.1
		C73.17,133.08,73.32,133.04,73.39,133.14z M73.3,132.38c-0.46,0.08-1.01,0.72-1.23,1.45c-0.1,0.33-0.04,0.52,0.14,0.63
		c0.26,0.16,0.64,0.29,1.09,0.4c-0.52,0.87-2.2,2-2.51,2.18c-0.36,0.21-0.3,0.44,0.16,0.24c1.69-0.76,2.52-1.57,2.9-2.29
		c0.12,0.02,0.22,0.06,0.34,0.09c0.2,0.05,0.16,0.08,0.27-0.24c0.05-0.15,0.09-0.26,0.1-0.33l-0.51-0.17l0.05-0.18
		c0.06-0.58-0.09-1.06-0.14-1.21C73.8,132.5,73.58,132.34,73.3,132.38z M45.67,131.92c-0.93,0.39-4.68,1.66-5.5,2.01
		c-0.05,0.02-0.08,0.03-0.1,0.1c-0.03,0.1-0.13,0.42-0.18,0.59c-0.02,0.07,0.04,0.07,0.1,0.04c0.11-0.05,0.26-0.13,0.39-0.18
		c0.64-0.27,4.24-1.51,5.07-1.84c0.05-0.02,0.1-0.05,0.12-0.11c0.05-0.12,0.13-0.39,0.17-0.55
		C45.76,131.91,45.72,131.89,45.67,131.92z M65.69,132.56c-0.03,0.08-0.09,0.2-0.12,0.28c-0.04,0.14,0.04,0.24,0.11,0.13
		c0.08-0.13,0.19-0.25,0.32-0.33c0.31-0.19,0.65-0.26,0.99-0.23c0.31,0.03,0.89,0.25,0.89,0.28c0,0.07-1.35,0.73-1.56,0.87
		c-0.09,0.06-0.2,0.16-0.18,0.27c0.02,0.08,0.15,0.1,0.25,0.06c0.53-0.19,0.72-0.18,1.15-0.36c0.58-0.25,0.75-0.55,0.85-0.58
		c0.04-0.01,0.09-0.01,0.14-0.05c0.17-0.15,0.31-0.57,0.32-0.71c-0.02-0.11-0.4-0.15-0.52-0.17c-0.38-0.09-0.75-0.29-1.14-0.32
		C66.58,131.64,66.01,131.92,65.69,132.56z M200.52,153.03c-0.93,0.39-4.1,1.56-4.92,1.91c-0.05,0.02-0.08,0.03-0.1,0.1
		c-0.03,0.1-0.13,0.42-0.18,0.59c-0.02,0.07,0.04,0.07,0.1,0.04c0.11-0.05,0.26-0.13,0.38-0.18c0.64-0.27,3.66-1.4,4.49-1.73
		c0.05-0.02,0.1-0.05,0.12-0.11c0.05-0.12,0.13-0.39,0.17-0.55C200.61,153.03,200.57,153,200.52,153.03z"/>
</g>
</svg>
