<?xml version="1.0" encoding="iso-8859-1"?>
<!-- Generator: Adobe Illustrator 25.2.1, SVG Export Plug-In . SVG Version: 6.00 Build 0)  -->
<svg version="1.1" xmlns="http://www.w3.org/2000/svg" xmlns:xlink="http://www.w3.org/1999/xlink" x="0px" y="0px"
	 viewBox="0 0 293.23 484.99" enable-background="new 0 0 293.23 484.99" xml:space="preserve">
<g id="Ornaments">
</g>
<g id="Header__x26__Marks__x26__Page_No.">
</g>
<g id="Aya_No.">
</g>
<g id="Quran_Text">
	<path fill-rule="evenodd" clip-rule="evenodd" d="M255,171.6c-0.93,0.39-3.52,1.42-4.34,1.77c-0.05,0.02-0.08,0.03-0.1,0.1
		c-0.03,0.1-0.13,0.42-0.18,0.59c-0.02,0.07,0.04,0.07,0.1,0.04c0.11-0.05,0.26-0.13,0.38-0.18c0.64-0.27,3.08-1.27,3.91-1.6
		c0.05-0.02,0.1-0.05,0.12-0.11c0.05-0.11,0.13-0.39,0.17-0.55C255.09,171.6,255.05,171.58,255,171.6z M267.98,170.95
		c-0.16,0.24-0.35,0.59-0.54,0.88c-0.27-0.18-0.62-0.39-0.86-0.55c-0.13-0.08-0.18-0.07-0.26,0.05c-0.14,0.21-0.35,0.54-0.5,0.8
		c-0.05,0.1-0.04,0.18,0.1,0.26c0.26,0.15,0.66,0.38,0.91,0.51c0.08,0.04,0.14,0.02,0.2-0.07c0.13-0.18,0.28-0.45,0.49-0.79
		c0.36,0.21,0.65,0.4,0.94,0.54c0.08,0.04,0.12,0.03,0.18-0.04c0.14-0.18,0.39-0.58,0.5-0.78c0.07-0.14,0.05-0.19-0.07-0.27
		c-0.19-0.12-0.65-0.41-0.88-0.56C268.07,170.86,268.03,170.88,267.98,170.95z M235.51,164.56c-0.12,0.4-0.21,0.74-0.28,1.12
		c0.66,0.93,1.18,1.97,1.37,3.32c-0.68,1.33-2.37,1.98-3.78,1.99c-1.26,0.02-2.54-0.62-2.54-2.04c0-0.68,0.24-1.43,0.56-2.03
		c0.05-0.09,0.06-0.21,0.01-0.25c-0.06-0.05-0.16-0.01-0.24,0.1c-0.55,0.76-0.89,1.81-0.89,2.75c0.02,1.9,1.59,2.75,3.32,2.68
		c1.5-0.06,3-0.92,3.61-2.22c0.25-0.54,0.32-1.23,0.32-1.8c-0.01-1.32-0.45-2.6-1.3-3.67C235.6,164.43,235.54,164.47,235.51,164.56z
		 M241.79,168.52c-0.42,0.1-1.37-0.03-1.53-0.42c0.09-0.28,0.39-0.63,0.6-0.66C241.32,167.36,241.75,168.12,241.79,168.52z
		 M244.64,163.86c-0.21,0.25-1.71,2.39,0.15,3.98c-0.48,0.21-1.54,0.54-2.05,0.6c-0.23-0.9-0.74-1.75-1.21-2.17
		c-0.25-0.22-0.52-0.28-0.77-0.15c-0.82,0.48-1.09,2.01-1,2.69c0.22,1.32,1.94,0.94,2.48,0.85c-0.76,1.61-2.68,4.12-6.32,3.39
		c-0.74-0.17-1.09,0.27-0.16,0.51c0.91,0.22,2.26,0.39,3.17,0.3c2.2-0.22,3.4-2.23,3.91-4.29c1.75-0.37,4.58-1.44,6.59-2.86
		c0.25-0.26,0.54-1.33,0.22-1.15c-0.51,0.28-2.2,1.44-3.03,1.52c-0.92,0.05-2.25-1.24-2.12-1.84c0.37-0.52,2.05-1.85,3.64-1.04
		c0.37,0.19,0.45-0.12,0.19-0.35c-0.56-0.49-1.37-0.78-2.12-0.74C245.6,163.13,245.04,163.36,244.64,163.86z M265.96,162.74
		c-0.23,0.07-0.5,0.2-0.78,0.48c-1.31,1.26-2.01,2.38-3.36,2.94c-1.48,0.61-2.04,0.54-2.59,1.9c-0.04,0.12,0.04,0.27,0.25,0.18
		c1.55-0.69,3.2,0.41,4.5,0.47c-1.19,0.43-6.65,2.69-8.59,0.31c-1.07-1.35-1.33-3.79-1.95-5.75c-0.31-0.8-0.38,0.93-0.31,1.34
		c0.21,0.88,0.44,1.74,0.68,2.59c-0.44,1.24-3.29,1.48-3.57,1.25c-0.09-0.06-0.22-0.55-0.36-0.04c-0.14,0.57-0.19,1.29,0.1,1.39
		c0.32,0.1,2.12,0.25,3.53-0.86c0.21-0.19,0.3-0.67,0.47-1.26c0.44,1.57,0.7,2.55,1.65,3.16c0.54,0.32,1.16,0.46,1.81,0.51
		c1.79,0.14,3.88-0.56,6.05-1.43c2-0.79,3.44-0.82,4.7-0.56c0.2,0.03,0.98-1.26,0.58-1.22c-2.39,0.26-4.47-0.4-6.56-0.99
		c1.84-1.17,2.24-2.42,3.22-2.98c0.74-0.41,0.84,0.51,0.97,1.34c0.08,0.54,0.25,0.45,0.41,0.03c0.38-1.18,0.03-2.03-0.18-2.45
		C266.4,162.71,266.18,162.67,265.96,162.74z M259.95,162.62c-0.17,0.28-0.4,0.69-0.53,0.94c-0.05,0.1-0.05,0.17,0.06,0.24
		c0.22,0.12,0.61,0.33,0.89,0.48c0.12,0.06,0.18,0.05,0.24-0.03c0.15-0.25,0.38-0.64,0.52-0.88c0.05-0.09,0.07-0.16-0.02-0.21
		c-0.26-0.16-0.69-0.42-0.95-0.57C260.05,162.52,260,162.54,259.95,162.62z M232.66,162.28c-0.17,0.28-0.4,0.69-0.53,0.94
		c-0.05,0.1-0.05,0.18,0.06,0.24c0.22,0.12,0.61,0.33,0.89,0.48c0.12,0.06,0.18,0.05,0.24-0.03c0.15-0.25,0.38-0.64,0.52-0.88
		c0.05-0.09,0.07-0.16-0.02-0.21c-0.26-0.16-0.69-0.42-0.96-0.57C232.76,162.19,232.71,162.2,232.66,162.28z M255.87,161.91
		c-0.09,0.18-0.24,0.57-0.24,0.68c0,0.06,0.17,0.25,0.36,0.52c0.61,0.86,0.93,1.8,0.75,3.07c-0.01,0.11-0.05,0.21,0.01,0.21
		c0.28-0.01,0.44-0.97,0.43-1.48c-0.02-1.23-0.52-2.21-1.14-2.98C255.97,161.85,255.92,161.82,255.87,161.91z M235.45,158.45
		c-0.93,0.39-4.1,1.56-4.92,1.91c-0.05,0.02-0.08,0.03-0.1,0.1c-0.03,0.1-0.13,0.42-0.18,0.59c-0.02,0.07,0.04,0.07,0.1,0.04
		c0.11-0.05,0.26-0.13,0.38-0.18c0.64-0.27,3.66-1.4,4.49-1.73c0.05-0.02,0.1-0.05,0.12-0.11c0.05-0.11,0.13-0.39,0.17-0.55
		C235.54,158.45,235.5,158.42,235.45,158.45z M262.99,157.61c-0.93,0.39-4.1,1.56-4.92,1.91c-0.05,0.02-0.08,0.03-0.1,0.1
		c-0.03,0.1-0.13,0.42-0.18,0.59c-0.02,0.07,0.04,0.07,0.1,0.04c0.11-0.05,0.26-0.13,0.38-0.18c0.64-0.27,3.66-1.4,4.49-1.73
		c0.05-0.02,0.1-0.05,0.12-0.11c0.05-0.11,0.13-0.39,0.17-0.55C263.08,157.61,263.05,157.59,262.99,157.61z M245.96,157.08
		c0.11,0.12,0.26,0.37,0.29,0.8c0,0.12-0.02,0.3-0.03,0.31c-0.01,0.01-0.24-0.09-0.28-0.11c-0.08-0.04-0.31-0.13-0.71-0.28
		c-0.16-0.03,0-0.28,0-0.28c0.06-0.11,0.16-0.25,0.27-0.37l0.15-0.1C245.74,157.01,245.89,156.98,245.96,157.08z M245.87,156.32
		c-0.46,0.08-1,0.72-1.22,1.45c-0.1,0.33-0.04,0.52,0.14,0.63c0.26,0.16,0.64,0.29,1.09,0.41c-0.52,0.87-2.2,2-2.51,2.18
		c-0.36,0.21-0.3,0.44,0.16,0.24c1.69-0.76,2.52-1.57,2.9-2.29c0.12,0.02,0.22,0.06,0.34,0.09c0.2,0.05,0.16,0.08,0.26-0.24
		c0.05-0.15,0.09-0.26,0.1-0.33l-0.51-0.17l0.05-0.18c0.06-0.58-0.09-1.06-0.14-1.21C246.37,156.44,246.15,156.28,245.87,156.32z
		 M266.45,156.9c0.11,0.12,0.26,0.37,0.29,0.8c0,0.13-0.02,0.3-0.03,0.31c-0.01,0.01-0.24-0.09-0.28-0.11
		c-0.08-0.04-0.31-0.13-0.71-0.28c-0.16-0.03,0-0.28,0-0.28c0.06-0.11,0.16-0.25,0.27-0.37l0.15-0.1
		C266.24,156.84,266.39,156.81,266.45,156.9z M266.36,156.15c-0.46,0.08-1,0.72-1.22,1.45c-0.1,0.33-0.04,0.52,0.14,0.63
		c0.26,0.16,0.64,0.29,1.09,0.41c-0.52,0.87-2.2,2-2.51,2.18c-0.36,0.21-0.3,0.44,0.16,0.24c1.69-0.76,2.52-1.57,2.9-2.29
		c0.12,0.02,0.22,0.06,0.34,0.09c0.2,0.05,0.16,0.08,0.26-0.24c0.05-0.15,0.09-0.26,0.1-0.33l-0.51-0.17l0.05-0.18
		c0.06-0.58-0.09-1.06-0.14-1.21C266.87,156.27,266.64,156.1,266.36,156.15z M216.46,168.23c-0.74,0.48-2.06,0.44-2.6,0.35
		c0.43-0.75,1.66-1.24,2.53-1.7L216.46,168.23z M221.68,163.3c-0.1,0.26-0.15,0.84-0.14,1.2c0.06,1.45,0.9,2.86,1.5,4.31
		c-0.17,0.57-1.47-0.04-2-0.64c-0.79-0.87-0.62-2.92-1.09-4.43c-0.23-0.69-0.35,0.99-0.31,1.42c0.15,1,0.27,2.17,0.48,3.12
		c-0.38,0.83-1.52,1.95-2.59,1.16c-0.8-0.62-0.52-2.81-0.75-4.39c-0.05-0.24-0.19,0-0.21,0.07c-0.07,0.33-0.12,0.72-0.14,1.09
		c-1.08,0.42-1.96,0.74-2.42,1.32c-0.48,0.59-0.73,1.27-0.83,1.77c-0.07,0.38-0.06,0.45,0.27,0.55c0.57,0.14,1.62,0.19,2.13-0.22
		c0.29-0.23,0.68-0.67,0.9-1c0.02,3.62,3.82,2.58,3.88,0.23c0.38,0.73,1.59,1.58,2.41,1.48c0.39-0.05,0.94-0.85,0.63-2.48
		c-0.31-1.64-1.38-2.79-1.46-4.49C221.93,163.19,221.76,163.09,221.68,163.3z M216.53,161.77c-0.93,0.39-3.52,1.42-4.34,1.77
		c-0.05,0.02-0.08,0.03-0.1,0.1c-0.03,0.1-0.13,0.42-0.18,0.59c-0.02,0.07,0.04,0.07,0.1,0.04c0.11-0.05,0.26-0.13,0.38-0.18
		c0.64-0.27,3.09-1.27,3.91-1.6c0.05-0.02,0.1-0.05,0.13-0.11c0.05-0.11,0.13-0.39,0.17-0.55
		C216.63,161.77,216.59,161.74,216.53,161.77z M220.65,159.42l-0.23,0.43c-0.03,0.05-0.05,0.08-0.03,0.13
		c0.07,0.17,0.12,0.37,0.12,0.48c-0.27,0.26-0.56,0.3-0.77,0.13c-0.14-0.11-0.19-0.32-0.17-0.59c0.01-0.2,0.03-0.27-0.14-0.13
		c-0.23,0.18-0.17,0.17-0.18,0.27c-0.08,0.65-0.36,0.94-0.85,0.97c-0.31,0.02-0.54-0.2-0.32-0.82c0.05-0.13-0.05-0.27-0.18,0
		c-0.47,0.93-0.18,1.45,0.29,1.52c0.39,0.06,0.85-0.16,1.09-0.75c0.18,0.3,0.55,0.39,0.88,0.3c0.42-0.11,0.51-0.3,0.63-0.65
		c0.12-0.33,0.12-0.77-0.04-1.29C220.71,159.33,220.67,159.37,220.65,159.42z M224.6,158.43l-0.19,0.99c-0.06,0.28-0.04,0.32,0,0.55
		c0.11,0.66,0.27,1.31,0.39,1.95c0.32,1.55,0.77,3.92,1.04,5.35c0.2,1.07,0.34,2.16,0.38,3.12c0.01,0.18,0.11,0.17,0.16,0.03
		c0.17-0.53,0.24-1.09,0.24-1.68c0-0.58-0.19-1.75-0.38-2.68c-0.26-1.29-0.67-3.53-0.91-4.7c-0.21-0.99-0.41-1.99-0.53-2.95
		c-0.01-0.11-0.06-0.15-0.1-0.14C224.66,158.28,224.62,158.34,224.6,158.43z M221.48,156.32c-0.93,0.39-4.1,1.56-4.92,1.91
		c-0.05,0.02-0.08,0.03-0.1,0.1c-0.03,0.1-0.13,0.42-0.18,0.59c-0.02,0.07,0.04,0.07,0.1,0.04c0.11-0.05,0.26-0.13,0.38-0.18
		c0.64-0.27,3.66-1.41,4.49-1.73c0.05-0.02,0.1-0.05,0.12-0.11c0.05-0.11,0.13-0.39,0.17-0.55
		C221.57,156.32,221.53,156.3,221.48,156.32z M226.11,155.51c0.08,0.08,0.17,0.19,0.16,0.3c-0.13,0.29-0.95,0.58-1.26,0.66
		c-0.06,0.01-0.38,0.08-0.36-0.02c0.19-0.3,0.37-0.62,0.64-0.87C225.55,155.37,225.83,155.27,226.11,155.51z M225.32,154.98
		c-0.36,0.37-0.85,1.05-1.06,1.49c-0.16-0.01-0.46-0.17-0.6-0.24c-0.19-0.09-0.32,0.1-0.41,0.25c-0.19,0.29-0.33,0.58-0.44,0.9
		l-0.11,0.31c0,0.14,0.06,0.17,0.16,0.06c0.22-0.22,0.39-0.82,0.53-0.74c0.75,0.43,1.71,0.28,2.43-0.22
		c0.56-0.4,0.99-1.01,0.83-1.69c-0.06-0.24-0.33-0.48-0.59-0.49C225.77,154.6,225.53,154.77,225.32,154.98z M209.33,167.55
		c-0.35,0.51-0.83,0.73-1.37,0.22c-0.19-0.18-0.18-0.24-0.1-0.44c0.18-0.36,0.43-0.52,0.6-0.53
		C208.7,166.79,209.12,167.25,209.33,167.55z M207.93,165.77c-0.33,0.36-0.61,1.16-0.63,1.91c-0.04,0.84,0.41,1.68,1.21,1.7
		c0.49,0.01,0.94-0.44,1.2-1.08c0.17,1.03-0.69,2.57-1.88,3.53c-1.41,1.07-2.75,1.2-4.73,1.11c-0.32-0.04-0.47,0.28-0.09,0.37
		c1.77,0.4,4.18,0.47,5.44-0.66c1.04-0.93,1.66-2.37,1.76-4c0.05-1.02-0.27-2.19-1.12-2.93
		C208.62,165.34,208.29,165.37,207.93,165.77z M210.16,160.37c-0.93,0.39-3.52,1.42-4.34,1.77c-0.05,0.02-0.08,0.03-0.1,0.1
		c-0.03,0.1-0.13,0.42-0.18,0.59c-0.02,0.07,0.04,0.07,0.1,0.04c0.11-0.05,0.26-0.13,0.38-0.18c0.64-0.27,3.08-1.27,3.91-1.6
		c0.05-0.02,0.1-0.05,0.12-0.11c0.05-0.12,0.13-0.39,0.17-0.55C210.25,160.37,210.21,160.35,210.16,160.37z M197.78,172.83
		c-0.93,0.39-3.52,1.42-4.34,1.77c-0.05,0.02-0.08,0.03-0.1,0.1c-0.03,0.1-0.13,0.42-0.18,0.59c-0.02,0.07,0.04,0.07,0.1,0.04
		c0.11-0.05,0.26-0.13,0.39-0.18c0.64-0.27,3.08-1.27,3.91-1.6c0.05-0.02,0.1-0.05,0.12-0.11c0.05-0.12,0.13-0.39,0.17-0.55
		C197.87,172.83,197.83,172.8,197.78,172.83z M190.83,171.38c-0.16,0.24-0.35,0.59-0.54,0.88c-0.27-0.18-0.62-0.39-0.86-0.55
		c-0.13-0.08-0.18-0.08-0.26,0.05c-0.14,0.21-0.35,0.54-0.5,0.8c-0.05,0.09-0.04,0.18,0.1,0.26c0.26,0.15,0.66,0.38,0.9,0.51
		c0.08,0.04,0.14,0.02,0.2-0.06c0.13-0.18,0.28-0.45,0.49-0.79c0.36,0.21,0.65,0.4,0.94,0.54c0.08,0.04,0.12,0.03,0.18-0.04
		c0.14-0.18,0.39-0.58,0.5-0.78c0.07-0.14,0.05-0.19-0.07-0.27c-0.19-0.12-0.65-0.41-0.88-0.56
		C190.92,171.3,190.88,171.31,190.83,171.38z M183.22,164.28c-0.17,0.28-0.4,0.69-0.53,0.94c-0.05,0.1-0.05,0.17,0.06,0.23
		c0.22,0.12,0.61,0.33,0.89,0.48c0.12,0.06,0.18,0.05,0.24-0.03c0.15-0.25,0.38-0.64,0.52-0.88c0.05-0.09,0.07-0.16-0.02-0.21
		c-0.26-0.16-0.69-0.42-0.95-0.57C183.32,164.18,183.27,164.2,183.22,164.28z M191,165.32c0.31,0.34,0.61,0.7,0.78,1.26
		c-0.86,0.75-3.21,1.35-4.71,0.74c-0.2-0.37-0.33-0.74-0.59-1.15c-0.14-0.19-0.28,0.14-0.21,1.21c0.31,0.96,0.83,1.52,0.91,3.08
		c-0.64,1.59-4.01,3.14-5.85,1.44c-0.86-0.82-0.49-1.93-0.03-3.39c0.06-0.2-0.09-0.47-0.33-0.06c-0.69,1.15-0.8,3.27-0.42,4.12
		c1.01,2.13,5.55,1.78,6.7-0.73c0.29-0.63,0.42-1.95,0.28-2.98c1.72,0.3,3.76-0.29,4.49-1.2c0.11-0.16,0.24-1.17,0.21-1.67
		c-0.04-0.78-0.35-1.4-0.95-1.92C191.08,163.88,190.96,164.87,191,165.32z M185.78,160.76c-0.93,0.39-4.1,1.56-4.92,1.91
		c-0.05,0.02-0.08,0.03-0.1,0.1c-0.03,0.1-0.13,0.42-0.18,0.59c-0.02,0.07,0.04,0.07,0.1,0.04c0.11-0.05,0.26-0.13,0.38-0.18
		c0.64-0.27,3.66-1.41,4.49-1.73c0.05-0.02,0.1-0.05,0.12-0.11c0.05-0.12,0.13-0.39,0.17-0.55
		C185.87,160.75,185.84,160.73,185.78,160.76z M195.66,160.51c-0.17,0.28-0.4,0.69-0.53,0.94c-0.05,0.1-0.05,0.18,0.06,0.23
		c0.22,0.12,0.61,0.33,0.89,0.48c0.11,0.06,0.18,0.05,0.24-0.03c0.15-0.25,0.38-0.64,0.52-0.88c0.05-0.09,0.07-0.16-0.02-0.21
		c-0.26-0.16-0.69-0.42-0.96-0.57C195.76,160.41,195.71,160.43,195.66,160.51z M202.44,159.1c-0.04,0.01-0.08,0.07-0.1,0.15
		l-0.2,0.99c-0.06,0.28-0.04,0.31,0,0.55c0.12,0.66,0.27,1.31,0.4,1.95c0.32,1.55,0.71,3.5,0.99,4.93c0.2,1.07,0.34,2.16,0.38,3.12
		c0.01,0.18,0.11,0.17,0.16,0.03c0.17-0.53,0.24-1.09,0.24-1.68c0-0.58-0.19-1.75-0.38-2.68c-0.26-1.29-0.61-3.1-0.85-4.27
		c-0.21-0.99-0.41-1.99-0.53-2.95C202.53,159.12,202.48,159.09,202.44,159.1z M198.82,159.12c-0.12,0.2-0.6,1.1-0.57,1.13
		c0.25,0.38,0.33,0.69,0.36,0.87c0.49,2.54,1.33,6.41,1.75,8.85c-0.03,0.63-0.63,0.76-0.96,0.69c-0.96-0.16-1.58-1.53-1.83-2.47
		c-0.27-0.98-0.65-2.58-0.83-4.11c-0.01-0.08-0.12-0.09-0.15,0c-0.12,0.39-0.22,1.04-0.24,1.32c0.06,0.55,0.33,1.76,0.57,2.84
		c0.01,0.8-2.01,1.45-3.14,1.47c-0.33,0.02-0.9,0-1.03-0.33c-0.09-0.22-0.21-0.11-0.24,0c-0.27,0.76-0.29,1.43,0.61,1.58
		c0.78,0.11,2.43-0.17,3.21-0.77c0.38-0.3,0.61-0.74,0.75-1.31c0.27,1.17,0.96,3.09,2.4,3.04c0.56-0.02,1.07-0.36,1.26-1.62
		c0.07-0.54,0.04-1.12-0.02-1.56c-0.27-2.1-1-4.93-1.36-7.14c-0.03-0.14,0.25-0.41,0.42-0.69c0.05-0.09,0.06-0.21-0.03-0.3
		c-0.45-0.49-0.59-0.83-0.81-1.5C198.91,159.01,198.88,159.04,198.82,159.12z M199.89,155.65l-0.23,0.43
		c-0.03,0.05-0.05,0.08-0.03,0.13c0.07,0.17,0.12,0.37,0.12,0.48c-0.27,0.26-0.56,0.3-0.77,0.13c-0.14-0.11-0.19-0.32-0.17-0.59
		c0.01-0.2,0.03-0.27-0.14-0.13c-0.23,0.18-0.17,0.17-0.18,0.27c-0.08,0.64-0.36,0.93-0.85,0.97c-0.31,0.02-0.54-0.2-0.33-0.82
		c0.05-0.13-0.05-0.27-0.18,0c-0.47,0.93-0.18,1.45,0.29,1.52c0.39,0.06,0.85-0.16,1.09-0.75c0.18,0.3,0.55,0.39,0.88,0.3
		c0.42-0.11,0.51-0.31,0.63-0.65c0.12-0.33,0.12-0.77-0.04-1.29C199.96,155.56,199.91,155.61,199.89,155.65z M204.02,156.44
		c0.08,0.08,0.17,0.19,0.16,0.3c-0.13,0.29-0.95,0.58-1.26,0.66c-0.06,0.01-0.38,0.08-0.36-0.02c0.19-0.3,0.37-0.62,0.64-0.87
		C203.47,156.3,203.75,156.2,204.02,156.44z M203.24,155.91c-0.36,0.37-0.85,1.05-1.06,1.49c-0.16-0.01-0.46-0.17-0.6-0.24
		c-0.19-0.09-0.32,0.1-0.41,0.25c-0.18,0.29-0.33,0.58-0.44,0.9l-0.11,0.31c0,0.13,0.06,0.17,0.16,0.07
		c0.22-0.22,0.39-0.82,0.52-0.74c0.75,0.43,1.71,0.28,2.43-0.22c0.56-0.4,0.99-1.01,0.83-1.69c-0.06-0.24-0.33-0.47-0.59-0.49
		C203.69,155.53,203.44,155.7,203.24,155.91z M200.52,153.03c-0.93,0.39-4.1,1.56-4.92,1.91c-0.05,0.02-0.08,0.03-0.1,0.1
		c-0.03,0.1-0.13,0.42-0.18,0.59c-0.02,0.07,0.04,0.07,0.1,0.04c0.11-0.05,0.26-0.13,0.38-0.18c0.64-0.27,3.66-1.4,4.49-1.73
		c0.05-0.02,0.1-0.05,0.12-0.11c0.05-0.12,0.13-0.39,0.17-0.55C200.61,153.03,200.57,153,200.52,153.03z M173.83,167.85
		c-0.13,0.26-0.09,0.64,0.16,0.81c0.21,0.15,0.56,0.3,0.95,0.49c-0.17,0.08-0.63,0.4-0.79,0.57c-0.07,0.18-0.15,0.49-0.19,0.67
		c-0.02,0.07,0.04,0.14,0.11,0.08c0.41-0.3,1.03-0.69,1.69-1c0.61-0.28,1.08-0.46,1.54-0.53c0.07-0.02,0.38-0.7,0.43-0.8
		c0.06-0.13,0-0.16-0.09-0.14c-0.52,0.15-0.92,0.28-1.56,0.28c-0.79,0-1.46-0.54-1.46-0.78c0-0.18,0.53-0.59,0.74-0.58
		c0.61,0.04,0.65,0.57,0.81,0.56c0.2-0.01,0.53-0.74,0.53-0.93c0.01-0.21-0.45-0.67-0.85-0.65
		C175.19,165.94,174.2,167.13,173.83,167.85z M156.46,169.79c-0.52,0.04-1.26,0.04-1.7-0.27c0.15-0.37,0.4-0.78,0.73-0.78
		C155.77,168.73,156.09,169,156.46,169.79z M168.26,168.03c-0.39-0.01-1.14-0.1-1.87-0.47c0.13-0.3,0.47-0.86,0.88-0.87
		C167.58,166.67,167.94,166.99,168.26,168.03z M167,165.59c-0.83,0.87-0.99,2.34-1.52,2.87c-0.54,0.47-3.06,1.47-4.67-0.19
		c-0.42-0.45-0.65-0.28-0.82-0.1c-0.77,0.8-1.73,1.25-2.61,1.46c-0.19-0.78-0.65-1.53-1.38-2.13c-0.43-0.33-0.79-0.07-0.95,0.09
		c-0.49,0.5-1.09,1.64-0.79,2.8c0.26,0.9,1.88,0.91,2.63,0.56c-1.03,2-2.81,4.06-6.96,3.27c-0.56-0.09-0.33,0.37-0.14,0.46
		c0.42,0.2,2.83,0.73,4.62,0.25c1.73-0.44,2.82-2.33,3.12-4.13c0.81-0.18,1.72-0.47,2.65-1.62c0.14-0.18,0.27,0.06,0.38,0.23
		c1.12,1.82,4.91,1.36,5.42-0.81c0.61,0.82,2.04,0.76,2.82,0.74c0.16,0,0.23-0.72,0.22-1.21c-0.02-0.75-0.27-1.65-0.91-2.49
		c-0.18-0.22-0.36-0.3-0.54-0.3C167.33,165.33,167.13,165.45,167,165.59z M158.49,162.62c-0.17,0.28-0.4,0.69-0.53,0.94
		c-0.05,0.1-0.05,0.17,0.06,0.23c0.22,0.12,0.61,0.33,0.89,0.48c0.12,0.06,0.18,0.05,0.24-0.03c0.15-0.25,0.38-0.64,0.52-0.88
		c0.05-0.09,0.07-0.16-0.02-0.21c-0.26-0.16-0.69-0.42-0.95-0.57C158.58,162.52,158.54,162.54,158.49,162.62z M168.21,160.86
		c-0.93,0.39-3.52,1.42-4.34,1.77c-0.05,0.02-0.08,0.03-0.1,0.1c-0.03,0.1-0.13,0.42-0.18,0.59c-0.02,0.07,0.04,0.07,0.1,0.05
		c0.11-0.05,0.26-0.13,0.38-0.18c0.64-0.27,3.09-1.27,3.91-1.6c0.05-0.02,0.1-0.05,0.12-0.11c0.05-0.12,0.13-0.39,0.17-0.55
		C168.31,160.86,168.27,160.84,168.21,160.86z M177.58,160.65c-0.93,0.39-3.52,1.42-4.34,1.77c-0.05,0.02-0.08,0.03-0.1,0.1
		c-0.03,0.1-0.13,0.42-0.18,0.59c-0.02,0.07,0.04,0.07,0.1,0.04c0.11-0.05,0.26-0.13,0.38-0.18c0.64-0.27,3.08-1.27,3.91-1.6
		c0.05-0.02,0.1-0.05,0.12-0.11c0.05-0.12,0.13-0.39,0.17-0.55C177.67,160.64,177.64,160.62,177.58,160.65z M150,158.69l-0.2,0.99
		c-0.06,0.28-0.04,0.31,0,0.55c0.11,0.66,0.27,1.31,0.39,1.95c0.32,1.55,0.71,3.5,0.99,4.93c0.2,1.07,0.34,2.16,0.38,3.12
		c0.01,0.18,0.11,0.17,0.16,0.03c0.17-0.53,0.24-1.09,0.24-1.68c0-0.58-0.19-1.75-0.38-2.68c-0.26-1.29-0.61-3.1-0.85-4.27
		c-0.21-0.99-0.41-1.99-0.53-2.95c-0.01-0.11-0.06-0.15-0.1-0.14C150.06,158.54,150.02,158.6,150,158.69z M170.1,158.42
		c-0.04,0.01-0.08,0.07-0.1,0.16l-0.2,0.99c-0.05,0.28-0.04,0.31,0,0.55c0.11,0.66,0.27,1.31,0.39,1.95
		c0.32,1.55,0.77,3.92,1.04,5.35c0.2,1.07,0.34,2.16,0.38,3.12c0.01,0.18,0.11,0.17,0.16,0.03c0.17-0.53,0.24-1.09,0.24-1.68
		c0-0.58-0.19-1.75-0.38-2.68c-0.26-1.29-0.67-3.53-0.91-4.7c-0.21-0.99-0.41-1.99-0.53-2.95
		C170.19,158.44,170.14,158.41,170.1,158.42z M158.27,158.43c0.11,0.12,0.26,0.37,0.29,0.8c0,0.12-0.02,0.3-0.03,0.31
		c-0.01,0.01-0.24-0.09-0.28-0.11c-0.08-0.04-0.31-0.13-0.71-0.28c-0.16-0.03,0-0.28,0-0.28c0.06-0.11,0.16-0.25,0.27-0.37l0.15-0.1
		C158.06,158.37,158.21,158.33,158.27,158.43z M158.18,157.67c-0.46,0.08-1,0.72-1.22,1.45c-0.1,0.33-0.04,0.52,0.14,0.63
		c0.26,0.16,0.64,0.29,1.09,0.41c-0.52,0.87-2.2,2-2.51,2.18c-0.36,0.21-0.3,0.44,0.16,0.24c1.69-0.76,2.52-1.57,2.9-2.29
		c0.12,0.02,0.22,0.06,0.34,0.09c0.2,0.05,0.16,0.08,0.27-0.24c0.05-0.15,0.09-0.26,0.1-0.33l-0.51-0.17l0.05-0.18
		c0.06-0.58-0.09-1.06-0.14-1.21C158.68,157.79,158.46,157.63,158.18,157.67z M150.61,156.4c-0.22,0.41-0.85,0.52-1.3,0.39
		c-0.27-0.08-0.36-0.32-0.24-0.56c0.25-0.5,0.52-0.67,0.77-0.67C150.26,155.55,150.6,156.06,150.61,156.4z M148.9,155.53
		c-0.7,1.62,0.14,2.21,0.82,2.19c1.09-0.03,1.48-1.1,1.2-2.18c-0.18-0.68-0.55-0.92-0.95-0.9
		C149.57,154.66,149.16,154.94,148.9,155.53z M146.6,167.7c-0.35,0.51-0.83,0.73-1.37,0.22c-0.19-0.18-0.18-0.24-0.1-0.44
		c0.18-0.36,0.43-0.52,0.6-0.53C145.98,166.94,146.4,167.4,146.6,167.7z M145.2,165.92c-0.33,0.36-0.61,1.16-0.63,1.91
		c-0.04,0.84,0.41,1.68,1.21,1.7c0.49,0.01,0.94-0.44,1.2-1.08c0.17,1.03-0.69,2.57-1.89,3.53c-1.41,1.07-2.75,1.2-4.73,1.11
		c-0.32-0.04-0.47,0.28-0.09,0.37c1.77,0.4,4.18,0.47,5.44-0.66c1.04-0.93,1.66-2.37,1.76-4c0.05-1.02-0.27-2.19-1.12-2.93
		C145.9,165.48,145.56,165.52,145.2,165.92z M147.23,160.34c-0.93,0.39-4.1,1.56-4.92,1.91c-0.05,0.02-0.08,0.03-0.1,0.1
		c-0.03,0.1-0.13,0.42-0.18,0.59c-0.02,0.07,0.04,0.07,0.1,0.05c0.11-0.05,0.26-0.13,0.38-0.18c0.64-0.27,3.66-1.41,4.49-1.73
		c0.05-0.02,0.1-0.05,0.12-0.11c0.05-0.12,0.13-0.39,0.17-0.55C147.33,160.34,147.29,160.31,147.23,160.34z M141.39,159.35
		c-0.93,0.39-4.1,1.56-4.92,1.91c-0.05,0.02-0.08,0.03-0.1,0.1c-0.03,0.1-0.13,0.42-0.18,0.59c-0.02,0.07,0.04,0.07,0.1,0.04
		c0.11-0.05,0.26-0.13,0.38-0.18c0.64-0.27,3.66-1.41,4.49-1.73c0.05-0.02,0.1-0.05,0.12-0.11c0.05-0.12,0.13-0.39,0.17-0.55
		C141.48,159.35,141.45,159.33,141.39,159.35z M141.04,168.57c-0.67,0.1-1.56-0.19-1.97-0.58
		C139.91,166.38,140.64,167.62,141.04,168.57z M133.34,159.09c-0.09,0.33-0.14,0.66-0.18,0.93c-0.01,0.05,0,0.11,0,0.16
		c0.36,2.95,0.65,5.81,1.16,8.74c0.17,0.89,0.28,1.74,1.29,1.99c0.76,0.17,1.89,0.03,2.44-0.59c0.23-0.29,0.44-0.91,0.62-1.68
		c-0.22,1.19,1.73,1.29,2.61,1.29c0.27,0,0.42-0.11,0.48-0.45c0.07-0.34,0.05-0.63,0-0.96c-0.09-0.62-0.42-1.57-0.79-2.12
		c-0.56-0.86-1.16-0.86-1.67,0.04c-0.33,0.57-0.56,1.17-0.78,1.7c-0.47,1.08-1.04,1.65-2.48,1.47c-0.93-0.14-1.1-0.76-1.32-2.21
		c-0.37-2.41-0.67-5.47-1.07-8.16C133.55,158.72,133.43,158.74,133.34,159.09z M129.23,170.61c-0.16,0.24-0.35,0.59-0.54,0.88
		c-0.27-0.18-0.62-0.39-0.86-0.55c-0.13-0.08-0.18-0.07-0.26,0.05c-0.14,0.21-0.35,0.54-0.5,0.8c-0.05,0.1-0.04,0.18,0.1,0.26
		c0.26,0.15,0.66,0.38,0.9,0.51c0.08,0.04,0.14,0.01,0.2-0.07c0.13-0.18,0.28-0.45,0.49-0.79c0.36,0.21,0.65,0.4,0.94,0.54
		c0.08,0.04,0.12,0.03,0.18-0.04c0.14-0.18,0.4-0.58,0.5-0.78c0.07-0.14,0.05-0.19-0.07-0.27c-0.19-0.12-0.65-0.41-0.88-0.56
		C129.33,170.52,129.28,170.53,129.23,170.61z M98.53,165.01c-0.06,0.29-0.14,0.66-0.19,0.95c-0.02,0.11-0.04,0.21,0.03,0.33
		c0.31,0.48,0.76,0.82,1.02,1.66c-2.5,3.49-9,4-13.1,2.7c-1.25-0.4-2.35-0.96-3.59-1.64c-0.33-0.18-0.3-0.03-0.17,0.15
		c0.88,1.23,2,2.08,3.17,2.57c4.1,1.69,11.82,0.81,13.75-2.68c0.24-0.43,0.44-1.15,0.46-1.69c0.03-0.99-0.53-1.67-1.13-2.39
		C98.67,164.82,98.57,164.85,98.53,165.01z M92.71,164.67c-0.17,0.28-0.4,0.69-0.53,0.94c-0.05,0.1-0.05,0.18,0.06,0.23
		c0.22,0.12,0.61,0.33,0.89,0.48c0.11,0.06,0.18,0.05,0.24-0.03c0.15-0.25,0.38-0.64,0.52-0.88c0.05-0.09,0.07-0.16-0.02-0.21
		c-0.26-0.16-0.69-0.42-0.95-0.57C92.81,164.57,92.76,164.59,92.71,164.67z M103.93,168.52c-0.75,0.03-1.29-0.01-1.64-0.2
		c0.12-0.47,0.34-0.82,0.64-0.82C103.19,167.52,103.52,167.8,103.93,168.52z M106.71,163.17c-1.42,1.41-1.9,3.26-0.02,4.52
		c-0.62,0.28-1.25,0.49-1.88,0.68c-0.26-0.73-0.78-1.62-1.35-2.05c-0.47-0.36-0.83-0.23-1.21,0.3c-0.65,0.95-0.52,2.34-0.24,2.78
		c0.49,0.75,1.84,0.36,2.41,0.26c-1.41,2.84-3.76,4.06-7.01,3.44c-0.47-0.09-0.95,0.12-0.1,0.48c0.61,0.24,3.21,0.73,4.77,0.18
		c1.16-0.45,2.6-2.17,2.91-4.24c2.16-0.65,5.17-2.06,6.66-3.47c0.25-0.44,0.35-1.31,0.11-1.14c-0.92,0.77-2.12,1.48-3.09,1.94
		c-1.61-0.1-2.35-1.08-2.52-1.84c0.36-0.92,2.79-2.1,3.67-1.34c0.38,0.31,0.48-0.22,0.21-0.42c-0.58-0.44-1.2-0.62-1.76-0.63
		C107.64,162.6,107.08,162.82,106.71,163.17z M121.73,161.93c-0.17,0.28-0.4,0.69-0.53,0.94c-0.05,0.1-0.05,0.18,0.06,0.24
		c0.22,0.12,0.61,0.33,0.89,0.48c0.11,0.06,0.18,0.05,0.24-0.03c0.15-0.25,0.38-0.63,0.52-0.88c0.05-0.09,0.07-0.16-0.02-0.21
		c-0.26-0.16-0.69-0.42-0.95-0.57C121.83,161.83,121.78,161.85,121.73,161.93z M126.36,162.5c-0.36,0.5-1.08,2.14-3.54,3.38
		c-0.72,0.35-1.51,0.79-1.72,1.1c-0.25,0.35-0.41,0.69-0.42,0.89c-0.01,0.13,0.08,0.21,0.19,0.18c1.02-0.33,2.56,0.13,4.44,0.23
		c-5.54,2.54-7.44,2.08-8.77,1.04c-0.62-0.49-0.94-1.36-1.26-2.32c-0.48-1.42-0.79-2.94-0.83-3.45c-0.03-0.24-0.21-0.15-0.28,0.28
		c-0.05,0.32-0.03,0.85-0.01,1.37c0.14,0.87,0.4,1.62,0.62,2.27c-0.57,1.3-3.39,1.68-3.68,1.42c-0.27-0.27-0.37-0.3-0.41-0.12
		c-0.04,0.14-0.12,1.37,0.42,1.5c0.5,0.1,2.39-0.08,3.6-1.15c0.16-0.15,0.23-0.57,0.34-0.85c0.4,1.03,0.44,2.15,1.92,2.83
		c1.53,0.69,4.41,0.36,8.8-1.92c0.98-0.51,2.63-1,4.05-0.75c0.33-0.18,0.79-1.54,0.47-1.42c-1.29,0.52-5.75,0.26-7.12-0.11
		c0.84-0.55,1.47-1.05,1.99-1.59c0.63-0.66,0.97-1.44,1.54-2c0.47-0.46,0.57-0.25,0.7,0c0.2,0.42,0.33,0.93,0.46,1.48
		c0.1,0.43,0.43-0.17,0.5-0.75c0.1-1.06-0.38-1.98-0.62-2.19C127.31,161.46,126.58,162.19,126.36,162.5z M94.65,161.3
		c-0.93,0.39-5.12,1.74-5.93,2.09c-0.05,0.02-0.08,0.03-0.1,0.1c-0.03,0.1-0.18,0.48-0.22,0.65c-0.02,0.07,0.04,0.07,0.1,0.05
		c0.11-0.05,0.3-0.15,0.43-0.2c0.68-0.24,4.63-1.57,5.46-1.9c0.05-0.02,0.1-0.05,0.12-0.11c0.05-0.12,0.17-0.45,0.22-0.61
		C94.74,161.3,94.7,161.27,94.65,161.3z M115.9,158.35c-0.93,0.39-3.52,1.42-4.34,1.77c-0.05,0.02-0.08,0.03-0.1,0.1
		c-0.03,0.1-0.13,0.42-0.18,0.59c-0.02,0.07,0.04,0.07,0.1,0.05c0.11-0.05,0.26-0.13,0.38-0.18c0.64-0.27,3.08-1.27,3.91-1.6
		c0.05-0.02,0.1-0.05,0.12-0.11c0.05-0.11,0.13-0.39,0.17-0.55C115.99,158.35,115.95,158.33,115.9,158.35z M119.96,159.19
		c-0.03,0.08-0.09,0.2-0.12,0.28c-0.04,0.14,0.04,0.24,0.11,0.13c0.08-0.13,0.19-0.25,0.32-0.33c0.31-0.19,0.65-0.26,0.99-0.23
		c0.31,0.03,0.89,0.25,0.89,0.28c0,0.07-1.35,0.73-1.56,0.87c-0.09,0.06-0.2,0.16-0.18,0.27c0.02,0.08,0.15,0.1,0.25,0.06
		c0.53-0.19,0.72-0.18,1.15-0.36c0.58-0.25,0.75-0.55,0.85-0.58c0.04-0.01,0.09-0.01,0.14-0.05c0.17-0.16,0.31-0.57,0.32-0.71
		c-0.02-0.11-0.4-0.15-0.52-0.17c-0.38-0.09-0.75-0.29-1.14-0.32C120.84,158.27,120.27,158.54,119.96,159.19z M129.36,157.32
		c-0.93,0.39-3.52,1.42-4.34,1.77c-0.05,0.02-0.08,0.03-0.1,0.1c-0.03,0.1-0.13,0.42-0.18,0.59c-0.02,0.07,0.04,0.07,0.1,0.05
		c0.11-0.05,0.26-0.13,0.39-0.18c0.64-0.27,3.08-1.27,3.91-1.6c0.05-0.02,0.1-0.05,0.12-0.11c0.05-0.11,0.13-0.39,0.17-0.55
		C129.45,157.32,129.41,157.29,129.36,157.32z M107.04,157.78c0.11,0.12,0.26,0.37,0.29,0.8c0,0.13-0.02,0.3-0.03,0.31
		c-0.01,0.01-0.24-0.09-0.28-0.11c-0.08-0.04-0.31-0.13-0.71-0.28c-0.16-0.03,0-0.28,0-0.28c0.06-0.11,0.16-0.25,0.27-0.36l0.15-0.1
		C106.82,157.71,106.97,157.68,107.04,157.78z M106.95,157.02c-0.46,0.08-1.01,0.72-1.23,1.45c-0.1,0.33-0.04,0.52,0.14,0.63
		c0.26,0.16,0.64,0.29,1.09,0.4c-0.52,0.87-2.2,2-2.51,2.18c-0.36,0.21-0.3,0.44,0.15,0.24c1.69-0.76,2.52-1.57,2.9-2.29
		c0.12,0.02,0.22,0.06,0.34,0.09c0.2,0.05,0.16,0.08,0.26-0.24c0.05-0.15,0.09-0.26,0.1-0.33l-0.51-0.17l0.05-0.18
		c0.06-0.58-0.09-1.06-0.14-1.21C107.45,157.14,107.22,156.97,106.95,157.02z M80.92,173.61c-0.94,0.35-2.45,0.88-3.28,1.19
		c-0.05,0.02-0.08,0.03-0.11,0.1c-0.04,0.09-0.15,0.41-0.2,0.58c-0.02,0.07,0.04,0.07,0.1,0.05c0.11-0.04,0.26-0.12,0.39-0.17
		c0.65-0.24,2-0.74,2.84-1.04c0.05-0.02,0.1-0.04,0.13-0.1c0.05-0.11,0.15-0.38,0.2-0.54C81.02,173.61,80.98,173.58,80.92,173.61z
		 M77.31,172.06c-0.09,0.19-0.05,0.39,0.13,0.53c0.14,0.1,0.41,0.28,0.67,0.41c-0.11,0.05-0.37,0.15-0.52,0.26
		c-0.04,0.12-0.09,0.31-0.11,0.43c-0.01,0.04,0.03,0.09,0.07,0.06c0.46-0.27,1.84-0.62,2.44-0.76c0.04-0.01,0.23-0.44,0.26-0.5
		c0.04-0.08,0-0.11-0.06-0.09c-0.34,0.09-0.67,0.15-1.1,0.14c-0.52-0.01-1.31-0.57-1.31-0.68c0-0.11,0.62-0.37,0.76-0.36
		c0.4,0.03,0.46,0.44,0.57,0.44c0.13,0,0.33-0.48,0.33-0.6c0-0.14-0.33-0.5-0.59-0.5C78.43,170.84,77.53,171.59,77.31,172.06z
		 M76.76,158.26c-0.04,0.01-0.08,0.07-0.1,0.16l-0.19,0.99c-0.06,0.28-0.04,0.31,0,0.55c0.11,0.66,0.27,1.31,0.39,1.95
		c0.32,1.55,0.71,3.5,0.99,4.93c0.2,1.07,0.34,2.16,0.38,3.12c0.01,0.18,0.11,0.17,0.16,0.03c0.17-0.53,0.24-1.09,0.24-1.68
		c0-0.58-0.19-1.75-0.38-2.68c-0.26-1.29-0.61-3.1-0.85-4.27c-0.21-0.99-0.41-1.99-0.53-2.95C76.85,158.28,76.8,158.25,76.76,158.26
		z M73.44,169.12c-0.59,0.15-1.24,0.33-1.87,0.42c0.47-0.41,1.08-1.05,1.34-1.46C73.1,168.43,73.28,168.79,73.44,169.12z
		 M73.02,157.69c-0.19,0.33-0.42,0.88-0.48,1.19c0.1,0.32,0.29,0.59,0.46,0.96c0.09,2.41,1.24,4.37-0.01,7.19
		c-1.5-2.69-4.9-5.72-7.01-7.01c-0.45-0.27-0.06,1.7,0.28,2.38c0.56,0.42,1.13,0.62,1.69,0.81c0.33,0.1,0.36-0.08,0.36-0.2
		c1.42,1.53,3.1,2.7,4.26,4.63c-0.4,0.67-0.91,1.39-1.7,1.99c-0.29,0.07-0.64,0.11-0.78,0.21c-0.05,0.05-0.15,0.81-0.11,1.14
		c0.02,0.13,0.02,0.11,0.16,0.09c1.07-0.11,2.95-0.51,3.57-0.69c0.12-0.04,0.18-0.1,0.21-0.26c0.1-0.57-0.15-1.87-0.62-2.56
		c1.42-3.24,0.64-5.49,0.37-7.72c0.15-0.22,0.3-0.41,0.32-0.56c-0.06-0.38-0.57-0.93-0.79-1.5c-0.04-0.11-0.09-0.15-0.13-0.15
		C73.06,157.64,73.04,157.66,73.02,157.69z M68.18,156.92c-0.64,0.65-1.83,1.13-2.76,1.11c-0.64-0.02-0.99-0.17-1.31-0.4
		c-0.08-0.06-0.16-0.05-0.22,0.03c-0.22,0.28-0.51,0.92-0.59,1.37c-0.02,0.08-0.03,0.19,0.01,0.21c0.04,0.02,0.1-0.01,0.13-0.07
		c0.08-0.22,0.19-0.6,0.38-0.81c0.03-0.03,0.08-0.01,0.11,0.01c0.4,0.27,1.01,0.42,1.63,0.39c0.87-0.04,2.44-0.57,2.69-1.75
		c0.01-0.06,0.02-0.11,0-0.12C68.24,156.87,68.21,156.88,68.18,156.92z M74.16,154.62l-0.23,0.43c-0.03,0.05-0.05,0.08-0.03,0.13
		c0.07,0.17,0.12,0.37,0.12,0.48c-0.27,0.26-0.56,0.3-0.77,0.13c-0.14-0.11-0.19-0.32-0.17-0.59c0.01-0.2,0.03-0.27-0.14-0.13
		c-0.23,0.18-0.17,0.17-0.18,0.27c-0.08,0.64-0.36,0.93-0.85,0.97c-0.31,0.02-0.54-0.2-0.32-0.82c0.05-0.13-0.05-0.27-0.18,0
		c-0.47,0.93-0.18,1.45,0.29,1.52c0.39,0.06,0.85-0.16,1.09-0.75c0.18,0.3,0.55,0.39,0.88,0.3c0.42-0.11,0.51-0.31,0.63-0.65
		c0.12-0.33,0.12-0.77-0.04-1.29C74.22,154.53,74.18,154.57,74.16,154.62z M74.96,152.01c-0.93,0.39-3.52,1.42-4.34,1.77
		c-0.05,0.02-0.08,0.03-0.1,0.1c-0.03,0.1-0.13,0.42-0.18,0.59c-0.02,0.07,0.04,0.07,0.1,0.04c0.11-0.05,0.26-0.13,0.38-0.18
		c0.64-0.27,3.08-1.27,3.91-1.6c0.05-0.02,0.1-0.05,0.12-0.11c0.05-0.12,0.13-0.39,0.17-0.55
		C75.05,152.01,75.02,151.99,74.96,152.01z M28.01,164.03c-0.03,0.08-0.09,0.2-0.12,0.28c-0.04,0.14,0.04,0.24,0.11,0.13
		c0.09-0.13,0.19-0.25,0.32-0.33c0.31-0.19,0.65-0.26,0.99-0.23c0.31,0.03,0.89,0.25,0.89,0.28c0,0.07-1.35,0.73-1.56,0.87
		c-0.09,0.06-0.2,0.16-0.18,0.27c0.02,0.08,0.15,0.1,0.25,0.06c0.53-0.19,0.72-0.18,1.15-0.36c0.58-0.25,0.75-0.55,0.85-0.58
		c0.04-0.01,0.09-0.01,0.14-0.05c0.17-0.16,0.31-0.57,0.32-0.71c-0.02-0.11-0.41-0.15-0.52-0.17c-0.38-0.09-0.75-0.29-1.14-0.32
		C28.9,163.1,28.33,163.38,28.01,164.03z M52.91,161.98c-0.17,0.28-0.4,0.69-0.53,0.94c-0.05,0.1-0.05,0.18,0.06,0.24
		c0.22,0.12,0.61,0.33,0.89,0.48c0.11,0.06,0.19,0.05,0.24-0.03c0.15-0.25,0.38-0.64,0.52-0.88c0.05-0.09,0.07-0.16-0.02-0.21
		c-0.26-0.16-0.69-0.42-0.95-0.57C53,161.88,52.96,161.89,52.91,161.98z M48.84,161.74c-0.93,0.39-5.12,1.74-5.93,2.09
		c-0.05,0.02-0.08,0.03-0.1,0.1c-0.03,0.1-0.18,0.48-0.22,0.65c-0.02,0.07,0.04,0.07,0.1,0.04c0.11-0.05,0.3-0.15,0.43-0.2
		c0.68-0.24,4.63-1.57,5.46-1.89c0.05-0.02,0.1-0.05,0.12-0.11c0.05-0.11,0.17-0.45,0.22-0.61
		C48.93,161.74,48.89,161.71,48.84,161.74z M31.53,169.55c-0.91-0.07-2.04-0.43-2.38-0.8c0.41-0.48,0.79-0.66,1.1-0.67
		C31.01,168.08,31.47,169.08,31.53,169.55z M54.58,167.47c-0.29,0.29-0.89,0.6-1.2,0.76c-0.41-0.23-0.68-0.52-0.93-0.84
		c0.47-0.94,0.86-1.09,1.2-1.09C54.2,166.3,54.55,167.17,54.58,167.47z M37.47,166.25c-0.1,0.19-0.3,0.25-0.49,0.19
		c-0.35-0.1-0.87-0.38-1.29-0.45c0.23-0.38,0.14-1.27,0.05-1.81C36.02,164.53,37.72,165.72,37.47,166.25z M35.44,165.33
		c-0.17,0.19-0.44,0.37-0.7,0.44c-0.43,0-1.1-0.03-1.35-0.22c0.16-0.58,0.43-1.15,0.58-1.35c0.05-0.06,0.15-0.11,0.27-0.11
		C34.57,164.1,35.07,164.37,35.44,165.33z M33.53,161.61c-0.7,0.03-0.61,1.81-0.04,1.9c-0.92,1.93-0.43,2.56-0.08,3.02
		c-1.41,0.77-1.79,0.87-2.39,0.79c-0.51-0.05-0.87-0.11-1.36,0.26c-1.07,0.84-0.97,1.77-0.71,2.37c-0.86,1.14-2.58,2.12-4.16,2.86
		c-0.39,0.19-0.42,0.47,0.21,0.35c1.06-0.24,2.13-0.61,2.89-1.11c0.69-0.46,1.13-0.98,1.42-1.77c0.41,0.35,1.87,0.64,2.33,0.6
		c0.15,0,0.47-0.53,0.46-0.91c-0.07-0.91-0.24-1.13-0.48-1.57c1-0.33,2.02-0.93,3.08-1.52c0.72,0.19,1.41,0.42,2.01,0.71
		c-0.24,1.01-0.19,2.07,0.3,2.68c0.71,0.89,3.15,1.16,5.65,0.38c1.48,0.07,3.11,0.36,4.28-0.75c-0.02,0.41,0.87,0.88,1.61,0.84
		c0.25-0.01,0.5-0.8,0.77-1.52c0.65,1.11,1.38,1.41,3.9,0.29c0.65,0.44,3.26,1.19,4.73,0.31c0.29-0.18,0.91-0.95,0.85-2.42
		c-0.04-0.81-0.52-1.91-1.53-2.69c-0.21-0.17-0.38,0.94-0.28,1.29c0.64,0.71,1.18,1.28,1.36,2.12c-0.47,0.79-2.21,1.13-3.82,0.52
		c0.48-0.29,0.84-2.19,0.13-3.18c-0.42-0.56-0.82-0.64-1.01-0.56c-1.34,0.54-2.1,2.85-1.43,3.8c-0.58,0.11-1.59,0.51-2.72-0.1
		c0.06-0.23,0.09-0.44,0.1-0.8c0-0.21-0.14-0.33-0.24-0.11c-0.3,0.72-0.27,1.13-0.64,1.78c-0.4-0.08-0.77-0.15-1.19-0.29
		c0.11-0.38,0.21-0.76,0.31-1.18c0.04-0.15-0.07-0.48-0.31-0.06c-0.89,1.64-1.94,1.6-3.25,1.78c0.34-0.38,0.58-1.3,0.58-1.67
		c0-0.32-0.14-0.31-0.24-0.03c-0.47,1.28-3.62,2.13-5.97,1.65c-1.47-0.34-1.84-1.36-1.53-1.98c0.89-0.01,0.87-2.09,0.61-2.7
		c-0.67-1.6-3.26-3.29-4.14-3.39C33.58,161.61,33.56,161.61,33.53,161.61L33.53,161.61z M56.36,161.58
		c-0.17,0.28-0.4,0.69-0.53,0.94c-0.05,0.1-0.05,0.17,0.06,0.23c0.22,0.12,0.61,0.33,0.89,0.48c0.11,0.06,0.18,0.05,0.24-0.03
		c0.15-0.25,0.38-0.64,0.52-0.88c0.05-0.09,0.07-0.16-0.02-0.21c-0.26-0.16-0.69-0.42-0.95-0.57
		C56.45,161.48,56.41,161.5,56.36,161.58z M59.95,158.33c-0.04,0.01-0.08,0.07-0.1,0.16l-0.2,0.99c-0.06,0.28-0.04,0.31,0,0.55
		c0.11,0.66,0.27,1.31,0.39,1.95c0.32,1.55,0.85,4.26,1.13,5.69c0.2,1.07,0.34,2.16,0.38,3.12c0.01,0.18,0.11,0.17,0.16,0.03
		c0.17-0.53,0.24-1.09,0.24-1.68c0-0.58-0.19-1.75-0.38-2.68c-0.26-1.29-0.75-3.86-1-5.03c-0.21-0.99-0.41-1.99-0.53-2.95
		C60.04,158.36,60,158.32,59.95,158.33z M34.55,156.49c0.1,0.12,0.26,0.37,0.29,0.8c0,0.12-0.02,0.3-0.03,0.31
		c-0.01,0.01-0.24-0.09-0.28-0.11c-0.08-0.04-0.31-0.13-0.71-0.28c-0.16-0.03,0-0.28,0-0.28c0.06-0.11,0.16-0.25,0.27-0.37l0.15-0.1
		C34.34,156.43,34.49,156.4,34.55,156.49z M34.46,155.74c-0.46,0.08-1,0.72-1.23,1.45c-0.1,0.33-0.03,0.52,0.14,0.63
		c0.26,0.16,0.64,0.29,1.09,0.41c-0.52,0.87-2.2,2-2.51,2.18c-0.36,0.21-0.3,0.44,0.16,0.24c1.69-0.76,2.52-1.57,2.9-2.29
		c0.12,0.02,0.22,0.06,0.34,0.09c0.2,0.05,0.16,0.08,0.26-0.24c0.05-0.15,0.09-0.26,0.1-0.33l-0.51-0.17l0.05-0.18
		c0.06-0.58-0.09-1.06-0.14-1.21C34.97,155.86,34.74,155.69,34.46,155.74z M53.07,156.16c0.1,0.12,0.26,0.37,0.28,0.8
		c0,0.13-0.02,0.3-0.03,0.31c-0.01,0.01-0.24-0.09-0.28-0.11c-0.08-0.04-0.31-0.13-0.71-0.28c-0.16-0.03,0-0.28,0-0.28
		c0.06-0.11,0.16-0.25,0.27-0.37l0.15-0.1C52.85,156.1,53,156.07,53.07,156.16z M52.98,155.41c-0.46,0.08-1,0.72-1.23,1.45
		c-0.1,0.33-0.04,0.52,0.14,0.63c0.26,0.16,0.64,0.29,1.09,0.41c-0.52,0.87-2.2,2-2.51,2.18c-0.36,0.21-0.3,0.44,0.15,0.24
		c1.69-0.76,2.52-1.57,2.9-2.29c0.12,0.02,0.22,0.06,0.34,0.09c0.2,0.05,0.16,0.08,0.26-0.24c0.05-0.15,0.09-0.26,0.1-0.33
		l-0.51-0.17l0.05-0.18c0.06-0.58-0.09-1.06-0.14-1.21C53.48,155.53,53.26,155.36,52.98,155.41z M58.29,156.21
		c-0.09,0.19-0.06,0.39,0.13,0.53c0.14,0.1,0.41,0.28,0.67,0.41c-0.11,0.05-0.37,0.15-0.52,0.26c-0.04,0.12-0.09,0.31-0.11,0.44
		c-0.01,0.04,0.03,0.09,0.07,0.06c0.46-0.27,1.84-0.62,2.44-0.76c0.04-0.01,0.23-0.44,0.26-0.51c0.04-0.08,0-0.11-0.06-0.09
		c-0.34,0.09-0.67,0.15-1.1,0.14c-0.52-0.01-1.31-0.57-1.31-0.68c0-0.11,0.62-0.37,0.76-0.36c0.4,0.04,0.46,0.44,0.57,0.44
		c0.13,0,0.33-0.48,0.33-0.6c0-0.14-0.33-0.5-0.59-0.5C59.41,154.99,58.51,155.74,58.29,156.21z M61.65,152.57
		c-0.93,0.39-4.1,1.56-4.92,1.91c-0.05,0.02-0.08,0.03-0.1,0.1c-0.03,0.1-0.13,0.42-0.18,0.59c-0.02,0.07,0.04,0.07,0.1,0.04
		c0.11-0.05,0.26-0.13,0.38-0.18c0.64-0.27,3.66-1.4,4.49-1.73c0.05-0.02,0.1-0.05,0.12-0.11c0.05-0.12,0.13-0.39,0.17-0.55
		C61.75,152.57,61.71,152.55,61.65,152.57z M268.17,194.85c-0.35,0.51-0.83,0.73-1.37,0.22c-0.19-0.18-0.18-0.24-0.1-0.44
		c0.18-0.36,0.43-0.52,0.6-0.53C267.54,194.09,267.96,194.55,268.17,194.85z M266.77,193.07c-0.33,0.36-0.61,1.16-0.63,1.91
		c-0.04,0.84,0.41,1.68,1.21,1.7c0.49,0.01,0.94-0.44,1.2-1.08c0.17,1.03-0.69,2.57-1.88,3.53c-1.41,1.07-2.75,1.2-4.73,1.11
		c-0.32-0.04-0.47,0.28-0.09,0.37c1.77,0.4,4.18,0.47,5.44-0.66c1.04-0.93,1.66-2.37,1.76-4c0.05-1.02-0.27-2.19-1.12-2.93
		C267.46,192.64,267.12,192.67,266.77,193.07z M269.3,187.22c-0.93,0.39-4.1,1.56-4.92,1.91c-0.05,0.02-0.08,0.03-0.1,0.1
		c-0.03,0.1-0.13,0.42-0.18,0.59c-0.02,0.07,0.04,0.07,0.1,0.04c0.11-0.05,0.26-0.13,0.38-0.18c0.64-0.27,3.67-1.4,4.49-1.73
		c0.05-0.02,0.1-0.05,0.12-0.11c0.05-0.11,0.13-0.39,0.17-0.55C269.39,187.22,269.36,187.19,269.3,187.22z M263.43,186.03
		c-0.93,0.39-4.68,1.66-5.5,2.01c-0.05,0.02-0.08,0.03-0.1,0.1c-0.03,0.1-0.13,0.42-0.18,0.59c-0.02,0.07,0.04,0.07,0.1,0.04
		c0.11-0.05,0.26-0.13,0.38-0.18c0.64-0.27,4.25-1.51,5.07-1.84c0.05-0.02,0.1-0.05,0.12-0.11c0.05-0.12,0.13-0.39,0.17-0.55
		C263.53,186.03,263.49,186,263.43,186.03z M262.44,194.87c-0.49,0.02-1.61-0.22-2.03-0.51
		C260.7,193.92,261.64,192.32,262.44,194.87z M255.06,186.36c0.52,3.41,0.57,7.88,1.35,10.09c0.19,0.45,0.4,0.66,0.69,0.78
		c0.7,0.25,2.08-0.12,2.49-0.57c0.23-0.26,0.33-0.54,0.54-1.08c0.41,0.4,2.51,0.74,2.83,0.64c0.17-0.05,0.31-0.69,0.28-1.2
		c-0.15-1.01-0.52-2.15-1.17-2.74c-0.26-0.22-0.56-0.23-0.85-0.02c-1.26,0.9-1.03,2.89-1.81,3.4c-0.94,0.57-2.09,0.5-2.45-0.07
		c-0.59-0.94-0.89-7.52-1.53-10.67C255.37,184.64,255.08,185.17,255.06,186.36z M252.5,198.59c-0.16,0.24-0.35,0.59-0.54,0.88
		c-0.27-0.18-0.62-0.39-0.86-0.55c-0.13-0.08-0.18-0.07-0.26,0.05c-0.14,0.21-0.35,0.54-0.5,0.8c-0.05,0.1-0.04,0.18,0.1,0.26
		c0.26,0.15,0.66,0.38,0.9,0.51c0.08,0.04,0.14,0.01,0.2-0.07c0.13-0.18,0.28-0.45,0.49-0.79c0.36,0.21,0.65,0.4,0.94,0.54
		c0.08,0.04,0.12,0.03,0.18-0.04c0.14-0.18,0.4-0.58,0.5-0.78c0.07-0.14,0.05-0.19-0.07-0.27c-0.19-0.12-0.65-0.41-0.88-0.56
		C252.59,198.5,252.55,198.51,252.5,198.59z M226.75,193.56c-0.35,0.51-0.83,0.73-1.37,0.22c-0.19-0.18-0.18-0.24-0.1-0.44
		c0.18-0.36,0.43-0.52,0.6-0.53C226.13,192.8,226.54,193.26,226.75,193.56z M225.35,191.78c-0.33,0.36-0.61,1.16-0.63,1.91
		c-0.04,0.84,0.41,1.68,1.21,1.7c0.49,0.01,0.94-0.44,1.2-1.08c0.17,1.04-0.69,2.57-1.88,3.53c-1.41,1.07-2.75,1.2-4.73,1.11
		c-0.32-0.04-0.47,0.28-0.09,0.37c1.77,0.41,4.18,0.47,5.44-0.66c1.04-0.93,1.66-2.37,1.76-4c0.05-1.02-0.27-2.19-1.12-2.93
		C226.05,191.35,225.71,191.38,225.35,191.78z M220.73,190.9c-0.12,0.4-0.21,0.74-0.28,1.12c0.66,0.93,1.18,1.97,1.37,3.32
		c-0.68,1.33-2.37,1.98-3.78,1.99c-1.26,0.02-2.54-0.62-2.54-2.04c0-0.68,0.24-1.44,0.56-2.03c0.05-0.09,0.06-0.21,0.01-0.25
		c-0.06-0.04-0.16-0.01-0.24,0.1c-0.55,0.76-0.89,1.81-0.89,2.75c0.02,1.9,1.59,2.75,3.32,2.68c1.5-0.06,3-0.91,3.61-2.22
		c0.25-0.54,0.32-1.23,0.32-1.8c-0.01-1.32-0.45-2.6-1.3-3.67C220.82,190.77,220.76,190.81,220.73,190.9z M250.55,191.4
		c0.63,0.99,1.3,2.05,1.59,3.28c-0.07,0.42-1.41,0.2-2.43-0.06c0.06-0.22,0.14-0.42,0.1-0.86c-0.04-0.33-0.23-0.25-0.28-0.12
		c-0.22,0.67-0.32,1.19-0.66,2c-0.41,0-0.93-0.21-1.24-0.41c0.18-0.34,0.42-0.9,0.37-1.29c-0.05-0.24-0.25-0.08-0.27-0.01
		c-0.59,1.65-2.27,1.98-3.11,1.96c0.25-0.48,0.5-1.26,0.53-1.7c0.03-0.46-0.2-0.24-0.24-0.14c-0.84,2.12-4.33,2.32-6,1.4
		c1.17-1.33,0.83-1.92,0.02-2.33c-1.25-0.57-2.65-0.32-3.21,0.35c-0.3,0.37-0.47,0.8-0.53,1.14c-0.04,0.18,0.05,0.29,0.25,0.21
		c0.79-0.34,1.31,0.02,1.8,0.43c-1.95,0.97-4.9,1.26-5.47-0.35c-0.09-0.26-0.19-0.16-0.25,0.01c-0.18,0.48-0.19,1.77,0.74,2.15
		c-0.92,2.84-3.57,4.73-7.09,3.39c-0.64-0.23-0.43,0.24-0.16,0.38c0.82,0.46,2.36,0.92,3.61,0.85c1.68-0.07,3.62-1.12,4.17-4.42
		c1.17,0.32,3.53,0.09,5.25-1.12c0.77,1.28,3.29,1.58,5.53,0.66c0.45,0.29,2.29,0.48,3.48-0.56c0.29,0.33,1.14,0.88,1.66,0.68
		c0.38-0.15,0.56-0.85,0.77-1.45c0.44,0.41,2.28,1.35,2.86,0.43c0.19-0.29,0.36-1.78,0.08-2.84c-0.32-1.12-1.18-2.62-1.55-2.94
		C250.64,189.94,250.51,191.15,250.55,191.4z M246.2,190.16c-0.16,0.24-0.35,0.59-0.54,0.88c-0.27-0.18-0.62-0.39-0.86-0.55
		c-0.13-0.08-0.18-0.07-0.26,0.05c-0.14,0.21-0.35,0.54-0.5,0.8c-0.05,0.09-0.04,0.18,0.1,0.26c0.26,0.15,0.66,0.38,0.9,0.51
		c0.08,0.04,0.14,0.02,0.2-0.07c0.13-0.18,0.28-0.45,0.49-0.79c0.36,0.21,0.65,0.4,0.94,0.54c0.08,0.04,0.12,0.03,0.18-0.04
		c0.14-0.18,0.39-0.58,0.5-0.78c0.07-0.14,0.05-0.19-0.07-0.27c-0.19-0.12-0.65-0.41-0.88-0.56
		C246.29,190.07,246.25,190.08,246.2,190.16z M217.56,189.6c-0.17,0.28-0.4,0.69-0.53,0.94c-0.05,0.1-0.05,0.17,0.06,0.23
		c0.22,0.12,0.61,0.33,0.89,0.48c0.12,0.06,0.19,0.05,0.24-0.03c0.15-0.25,0.38-0.64,0.52-0.88c0.05-0.09,0.07-0.16-0.02-0.21
		c-0.26-0.16-0.69-0.42-0.96-0.57C217.66,189.51,217.61,189.52,217.56,189.6z M244.83,188.09c-0.17,0.28-0.4,0.69-0.53,0.94
		c-0.05,0.1-0.05,0.17,0.06,0.23c0.22,0.12,0.61,0.33,0.89,0.48c0.12,0.06,0.18,0.05,0.24-0.03c0.15-0.25,0.38-0.64,0.52-0.88
		c0.05-0.09,0.07-0.16-0.02-0.21c-0.26-0.16-0.69-0.42-0.95-0.57C244.92,188,244.88,188.01,244.83,188.09z M232.03,186.26
		c0.11,0.12,0.26,0.37,0.29,0.8c0,0.13-0.02,0.3-0.03,0.31c-0.01,0.01-0.24-0.09-0.28-0.11c-0.08-0.04-0.31-0.13-0.71-0.28
		c-0.16-0.03,0-0.28,0-0.28c0.06-0.11,0.16-0.25,0.27-0.36l0.15-0.1C231.81,186.2,231.96,186.16,232.03,186.26z M231.94,185.51
		c-0.46,0.08-1,0.72-1.22,1.45c-0.1,0.33-0.04,0.52,0.14,0.63c0.26,0.16,0.64,0.29,1.09,0.4c-0.52,0.87-2.2,2-2.51,2.18
		c-0.36,0.21-0.3,0.44,0.16,0.24c1.69-0.76,2.52-1.57,2.9-2.29c0.12,0.02,0.22,0.06,0.34,0.09c0.2,0.05,0.16,0.08,0.26-0.24
		c0.05-0.15,0.09-0.26,0.1-0.33l-0.51-0.17l0.05-0.18c0.06-0.58-0.09-1.06-0.14-1.21C232.44,185.62,232.22,185.46,231.94,185.51z
		 M252.61,184.98c-0.93,0.39-3.52,1.42-4.34,1.77c-0.05,0.02-0.08,0.03-0.1,0.1c-0.03,0.1-0.13,0.42-0.18,0.59
		c-0.02,0.07,0.04,0.07,0.1,0.04c0.11-0.05,0.26-0.13,0.38-0.18c0.64-0.27,3.09-1.27,3.91-1.6c0.05-0.02,0.1-0.05,0.12-0.11
		c0.05-0.12,0.13-0.39,0.17-0.55C252.71,184.98,252.67,184.96,252.61,184.98z M237.06,185.64c0.1,0.12,0.26,0.37,0.29,0.8
		c0,0.12-0.02,0.3-0.03,0.31c-0.01,0.01-0.24-0.09-0.28-0.11c-0.08-0.04-0.31-0.13-0.71-0.28c-0.16-0.03,0-0.28,0-0.28
		c0.06-0.11,0.16-0.25,0.27-0.37l0.15-0.1C236.85,185.58,237,185.55,237.06,185.64z M236.97,184.89c-0.46,0.08-1,0.72-1.23,1.45
		c-0.1,0.33-0.04,0.52,0.14,0.63c0.26,0.16,0.64,0.29,1.09,0.41c-0.52,0.87-2.2,2-2.51,2.18c-0.36,0.21-0.3,0.44,0.16,0.24
		c1.69-0.76,2.53-1.57,2.9-2.29c0.12,0.02,0.22,0.06,0.34,0.09c0.2,0.05,0.16,0.08,0.26-0.24c0.05-0.15,0.09-0.26,0.1-0.33
		l-0.51-0.17l0.05-0.18c0.06-0.58-0.09-1.06-0.14-1.21C237.48,185.01,237.25,184.84,236.97,184.89z M220.24,184.78
		c-0.93,0.39-4.1,1.56-4.92,1.91c-0.05,0.02-0.08,0.03-0.1,0.1c-0.03,0.1-0.13,0.42-0.18,0.59c-0.02,0.07,0.04,0.07,0.1,0.05
		c0.11-0.05,0.26-0.13,0.38-0.18c0.64-0.27,3.67-1.41,4.49-1.73c0.05-0.02,0.1-0.05,0.12-0.11c0.05-0.11,0.13-0.39,0.17-0.55
		C220.33,184.78,220.29,184.75,220.24,184.78z M242.84,185.3c-0.03,0.08-0.09,0.2-0.12,0.28c-0.04,0.14,0.04,0.24,0.11,0.13
		c0.09-0.13,0.19-0.25,0.32-0.33c0.31-0.19,0.65-0.26,0.99-0.23c0.31,0.03,0.89,0.25,0.89,0.28c0,0.07-1.35,0.73-1.56,0.87
		c-0.09,0.06-0.2,0.16-0.18,0.27c0.02,0.08,0.15,0.1,0.25,0.06c0.53-0.19,0.72-0.18,1.15-0.36c0.58-0.25,0.75-0.55,0.85-0.58
		c0.04-0.01,0.09-0.01,0.14-0.05c0.17-0.16,0.3-0.57,0.32-0.71c-0.02-0.11-0.41-0.15-0.52-0.17c-0.38-0.09-0.75-0.29-1.14-0.32
		C243.73,184.38,243.16,184.66,242.84,185.3z"/>
</g>
</svg>
