<?xml version="1.0" encoding="iso-8859-1"?>
<!-- Generator: Adobe Illustrator 25.2.1, SVG Export Plug-In . SVG Version: 6.00 Build 0)  -->
<svg version="1.1" xmlns="http://www.w3.org/2000/svg" xmlns:xlink="http://www.w3.org/1999/xlink" x="0px" y="0px"
	 viewBox="0 0 293.23 484.99" enable-background="new 0 0 293.23 484.99" xml:space="preserve">
<g id="Ornaments">
</g>
<g id="Header__x26__Marks__x26__Page_No.">
</g>
<g id="Aya_No.">
</g>
<g id="Quran_Text">
	<path fill-rule="evenodd" clip-rule="evenodd" d="M269.14,66.22c-0.94,0.35-1.99,0.7-2.82,1.02c-0.05,0.02-0.08,0.03-0.11,0.1
		c-0.04,0.1-0.15,0.41-0.2,0.58c-0.02,0.07,0.04,0.07,0.1,0.05c0.11-0.04,0.26-0.12,0.39-0.17c0.65-0.24,1.55-0.56,2.38-0.86
		c0.05-0.02,0.1-0.04,0.13-0.1c0.05-0.11,0.15-0.38,0.2-0.54C269.23,66.23,269.2,66.2,269.14,66.22z M265.76,64.6
		c-0.09,0.19-0.05,0.39,0.13,0.53c0.14,0.1,0.41,0.28,0.67,0.41c-0.11,0.05-0.37,0.15-0.52,0.26c-0.04,0.12-0.09,0.31-0.11,0.44
		c-0.01,0.04,0.03,0.09,0.07,0.06c0.46-0.27,1.84-0.63,2.44-0.76c0.04-0.01,0.23-0.44,0.26-0.51c0.04-0.08,0-0.11-0.06-0.09
		c-0.34,0.09-0.67,0.15-1.09,0.14c-0.52-0.01-1.31-0.57-1.31-0.68c0-0.11,0.62-0.37,0.76-0.36c0.4,0.04,0.46,0.44,0.57,0.44
		c0.13,0,0.33-0.48,0.33-0.6c0-0.14-0.33-0.5-0.59-0.5C266.88,63.38,265.99,64.14,265.76,64.6z M262.86,57.08
		c-0.12,0.4-0.21,0.74-0.28,1.12c0.66,0.93,1.18,1.97,1.37,3.32c-0.68,1.33-2.37,1.98-3.78,1.99c-1.26,0.02-2.54-0.62-2.54-2.04
		c0-0.68,0.24-1.44,0.56-2.03c0.05-0.09,0.06-0.21,0.01-0.25c-0.06-0.05-0.16-0.01-0.24,0.1c-0.55,0.76-0.89,1.81-0.88,2.75
		c0.02,1.9,1.59,2.76,3.32,2.68c1.5-0.06,3-0.91,3.61-2.22c0.25-0.54,0.32-1.23,0.32-1.8c-0.01-1.32-0.45-2.6-1.3-3.67
		C262.95,56.95,262.88,56.99,262.86,57.08z M259.76,56.12c-0.17,0.28-0.4,0.69-0.53,0.94c-0.05,0.1-0.05,0.18,0.06,0.24
		c0.22,0.12,0.61,0.33,0.89,0.48c0.12,0.06,0.18,0.05,0.24-0.03c0.15-0.25,0.38-0.64,0.52-0.88c0.05-0.09,0.07-0.16-0.02-0.21
		c-0.26-0.16-0.69-0.42-0.95-0.57C259.86,56.02,259.81,56.04,259.76,56.12z M261.46,51.68l-0.23,0.43
		c-0.03,0.05-0.05,0.08-0.03,0.13c0.07,0.17,0.12,0.37,0.12,0.48c-0.27,0.26-0.56,0.3-0.77,0.13c-0.14-0.11-0.19-0.32-0.17-0.59
		c0.01-0.2,0.03-0.27-0.14-0.13c-0.22,0.18-0.17,0.17-0.18,0.27c-0.08,0.65-0.36,0.94-0.85,0.97c-0.31,0.02-0.54-0.2-0.32-0.82
		c0.05-0.13-0.05-0.27-0.18,0c-0.47,0.93-0.18,1.45,0.29,1.52c0.39,0.06,0.85-0.16,1.09-0.75c0.18,0.3,0.55,0.39,0.88,0.3
		c0.42-0.11,0.51-0.31,0.63-0.65c0.12-0.33,0.12-0.77-0.04-1.29C261.52,51.59,261.47,51.64,261.46,51.68z M265.11,51.36
		c-0.04,0.01-0.07,0.07-0.09,0.16l-0.16,1.01c-0.04,0.29-0.03,0.32,0.01,0.56c0.12,0.67,0.27,1.33,0.4,1.98
		c0.3,1.46,0.6,2.85,0.86,4.21c0.21,1.08,0.35,2.19,0.42,3.17c0.01,0.19,0.11,0.17,0.15,0.03c0.15-0.55,0.2-1.12,0.18-1.72
		c-0.01-0.59-0.21-1.78-0.4-2.72c-0.22-1.19-0.5-2.47-0.72-3.54c-0.21-1.01-0.42-2.02-0.55-2.99
		C265.19,51.38,265.15,51.35,265.11,51.36z M262.34,49.17c-0.93,0.39-4.1,1.56-4.92,1.91c-0.05,0.02-0.08,0.03-0.1,0.1
		c-0.03,0.1-0.13,0.42-0.18,0.59c-0.02,0.07,0.04,0.07,0.1,0.04c0.11-0.05,0.26-0.13,0.38-0.18c0.64-0.27,3.66-1.41,4.49-1.73
		c0.05-0.02,0.1-0.05,0.12-0.11c0.05-0.11,0.13-0.39,0.17-0.55C262.43,49.17,262.4,49.15,262.34,49.17z M249.04,64.7
		c-0.93,0.39-3.52,1.42-4.34,1.77c-0.05,0.02-0.08,0.03-0.1,0.1c-0.03,0.1-0.13,0.42-0.18,0.59c-0.02,0.07,0.04,0.07,0.1,0.04
		c0.11-0.05,0.26-0.13,0.38-0.18c0.64-0.27,3.08-1.27,3.91-1.6c0.05-0.02,0.1-0.05,0.12-0.11c0.05-0.12,0.13-0.39,0.17-0.55
		C249.14,64.7,249.1,64.68,249.04,64.7z M242.62,64.19c-0.16,0.24-0.35,0.59-0.54,0.88c-0.27-0.18-0.62-0.39-0.86-0.55
		c-0.13-0.08-0.18-0.07-0.26,0.05c-0.14,0.21-0.35,0.54-0.5,0.8c-0.05,0.1-0.04,0.18,0.1,0.26c0.26,0.15,0.66,0.38,0.91,0.51
		c0.08,0.04,0.14,0.01,0.2-0.07c0.13-0.18,0.28-0.45,0.49-0.79c0.36,0.21,0.65,0.4,0.94,0.54c0.08,0.04,0.12,0.03,0.18-0.04
		c0.14-0.18,0.4-0.58,0.5-0.78c0.07-0.14,0.05-0.19-0.07-0.27c-0.19-0.12-0.65-0.41-0.88-0.56
		C242.72,64.1,242.67,64.11,242.62,64.19z M235.86,56.36c-0.17,0.28-0.4,0.69-0.53,0.94c-0.05,0.1-0.05,0.18,0.06,0.23
		c0.22,0.12,0.61,0.33,0.89,0.48c0.12,0.06,0.18,0.05,0.24-0.03c0.15-0.25,0.38-0.64,0.52-0.88c0.05-0.09,0.07-0.16-0.02-0.21
		c-0.26-0.16-0.69-0.42-0.95-0.57C235.96,56.26,235.91,56.28,235.86,56.36z M241.24,57.19c0.24,0.37,0.51,0.67,0.66,1.1
		c-0.49,0.45-1.34,0.69-2.13,0.56c-0.19-0.3-0.4-0.93-0.52-1.03c-0.06-0.07-0.37,1.02-0.25,1.22c0.41,0.78,0.71,1.74,0.81,2.84
		c-0.32,0.57-1.37,1.37-2.79,1.57c-2.11,0.3-2.72-0.61-2.96-0.95c-0.63-1.05-0.01-2.27,0.1-2.94c-0.01-0.15-0.1-0.12-0.15-0.05
		c-1.27,2.22-1.07,5.22,2.05,5.27c2.27-0.01,3.8-1.18,4.01-2.16c0.09-0.43,0.25-1.33,0.02-2.56c0.94-0.1,1.69-0.27,2.2-0.98
		c0.51-1.28-0.16-2.66-0.83-3.21C241.37,55.77,241.2,57.12,241.24,57.19z M245.22,53.18c-0.17,0.28-0.4,0.69-0.53,0.94
		c-0.05,0.1-0.05,0.18,0.06,0.24c0.22,0.12,0.61,0.33,0.89,0.48c0.12,0.06,0.18,0.05,0.24-0.03c0.15-0.25,0.38-0.64,0.52-0.88
		c0.05-0.09,0.07-0.16-0.02-0.21c-0.26-0.16-0.69-0.42-0.96-0.57C245.32,53.08,245.27,53.1,245.22,53.18z M238.47,51.91
		c-0.93,0.39-4.1,1.56-4.92,1.91c-0.05,0.02-0.08,0.03-0.1,0.1c-0.03,0.1-0.13,0.42-0.18,0.59c-0.02,0.07,0.04,0.07,0.1,0.04
		c0.11-0.05,0.26-0.13,0.38-0.18c0.64-0.27,3.66-1.41,4.49-1.73c0.05-0.02,0.1-0.05,0.12-0.11c0.05-0.11,0.13-0.39,0.17-0.55
		C238.57,51.91,238.53,51.88,238.47,51.91z M252.54,51.21l-0.2,0.99c-0.06,0.28-0.04,0.31,0,0.55c0.11,0.66,0.26,1.31,0.39,1.95
		c0.32,1.55,0.71,3.5,0.99,4.93c0.2,1.07,0.34,2.16,0.38,3.12c0.01,0.18,0.11,0.17,0.16,0.03c0.17-0.53,0.24-1.09,0.24-1.68
		c0-0.58-0.19-1.75-0.38-2.68c-0.26-1.28-0.61-3.1-0.85-4.27c-0.21-0.99-0.41-1.99-0.53-2.95c-0.01-0.11-0.06-0.15-0.1-0.14
		C252.6,51.07,252.56,51.13,252.54,51.21z M249.11,50.3c-0.34,0.61-0.44,0.89-0.46,1.16c0.01,0.15,0.14,0.5,0.49,0.97
		c0.1,0.82,0.63,3.95,0.83,4.82c0.26,1.16,0.49,2.79,0.81,4.25c0.05,0.31-1.4,1.31-2.49-1.16c-0.71-1.76-0.9-3-1.3-3.99
		c-0.07-0.17-0.29,0.79-0.2,1.2c0.15,0.57,0.22,0.96,0.65,2.25c-0.9,1.41-3.31,1.33-3.75,1.11c-0.11-0.06-0.13-0.12-0.16-0.12
		c-0.03,0-0.05,0.07-0.08,0.13c-0.12,0.28-0.18,1,0.01,1.22c0.23,0.31,2.76,0.22,3.6-0.73c0.04-0.05,0.08-0.03,0.58-1.03
		c0.06,0.25,0.65,2.24,1.9,2.75c0.99,0.36,1.4-0.44,1.52-0.94c0.27-1.37-0.27-3.6-0.58-5.6c-0.19-1.11-0.66-3.41-0.78-4.11
		c0.29-0.58,0.39-0.8,0.38-0.91c-0.05-0.18-0.36-0.24-0.8-1.23C249.26,50.24,249.17,50.2,249.11,50.3z M254.47,48.58
		c0.08,0.08,0.17,0.19,0.16,0.3c-0.13,0.29-0.95,0.58-1.26,0.66c-0.06,0.01-0.38,0.08-0.36-0.02c0.19-0.3,0.37-0.62,0.64-0.87
		C253.91,48.44,254.19,48.34,254.47,48.58z M253.68,48.05c-0.36,0.37-0.85,1.05-1.06,1.49c-0.16-0.01-0.46-0.17-0.6-0.24
		c-0.19-0.09-0.32,0.1-0.41,0.25c-0.19,0.29-0.33,0.58-0.44,0.9l-0.11,0.31c0,0.13,0.06,0.17,0.16,0.06
		c0.22-0.22,0.39-0.82,0.52-0.74c0.75,0.43,1.71,0.28,2.43-0.22c0.56-0.4,0.99-1.01,0.83-1.69c-0.06-0.24-0.33-0.48-0.59-0.49
		C254.13,47.67,253.89,47.84,253.68,48.05z M250.39,46.98l-0.23,0.43c-0.02,0.05-0.05,0.08-0.03,0.13c0.07,0.17,0.12,0.37,0.12,0.48
		c-0.27,0.26-0.56,0.3-0.77,0.13c-0.14-0.11-0.19-0.32-0.17-0.59c0.01-0.2,0.03-0.27-0.14-0.13c-0.23,0.18-0.17,0.17-0.18,0.27
		c-0.08,0.65-0.36,0.94-0.85,0.97c-0.31,0.02-0.54-0.2-0.32-0.82c0.05-0.13-0.05-0.27-0.18,0c-0.47,0.93-0.18,1.45,0.29,1.52
		c0.39,0.06,0.85-0.16,1.09-0.75c0.18,0.3,0.55,0.39,0.88,0.3c0.42-0.11,0.51-0.3,0.63-0.65c0.12-0.33,0.12-0.77-0.04-1.29
		C250.46,46.89,250.41,46.94,250.39,46.98z M251.12,44.8c-0.93,0.39-4.1,1.56-4.92,1.91c-0.05,0.02-0.08,0.03-0.1,0.1
		c-0.03,0.1-0.13,0.42-0.18,0.59c-0.02,0.07,0.04,0.07,0.1,0.05c0.11-0.05,0.26-0.13,0.38-0.18c0.64-0.27,3.66-1.41,4.49-1.73
		c0.05-0.02,0.1-0.05,0.12-0.11c0.05-0.12,0.13-0.39,0.17-0.55C251.21,44.8,251.17,44.78,251.12,44.8z M198.77,58.38
		c-0.35,0.51-0.83,0.73-1.37,0.22c-0.19-0.18-0.18-0.24-0.1-0.44c0.18-0.35,0.43-0.52,0.6-0.53
		C198.15,57.62,198.57,58.08,198.77,58.38z M197.38,56.6c-0.33,0.36-0.61,1.16-0.63,1.91c-0.04,0.84,0.41,1.68,1.21,1.7
		c0.49,0.01,0.94-0.44,1.2-1.08c0.17,1.03-0.69,2.57-1.88,3.53c-1.41,1.07-2.75,1.2-4.73,1.12c-0.32-0.04-0.47,0.28-0.09,0.37
		c1.77,0.41,4.18,0.47,5.44-0.66c1.04-0.93,1.66-2.37,1.76-4c0.05-1.02-0.27-2.19-1.12-2.93C198.07,56.16,197.73,56.2,197.38,56.6z
		 M209.75,59.15c0.02,0.05-0.54,0.59-1.24,0.89c-0.41-0.27-0.88-0.75-0.88-0.8c-0.02-0.08,0.77-1.18,1.28-1.17
		C209.25,58.07,209.6,58.52,209.75,59.15z M219.52,53.74c-1.54,0.66-2.55,1.17-3.39,1.69c-1.23,0.81-2.44,2.01-2.89,3.06
		c-0.28,0.66-0.05,0.92,0.42,1.1c1.35,0.5,4.36,0.39,7.47,0.23c2.15-0.07,4.27-0.43,5.96-0.63c1.75-0.23,2.98-0.18,3.59,0.65
		c0.22,0.29,0.03,0.42-0.3,0.45c-1.58,0.1-2.91,0.35-5.22,0.61c-1.97,0.23-5.15,0.53-7.89,0.52c-2.02-0.02-3.5,0.16-5.6-0.23
		c-0.71-0.1-1.42-0.29-2.25-0.58c0.35-0.32,0.51-0.58,0.6-0.85c0.14-0.44,0.49-1.68-0.09-2.49c-0.35-0.49-0.86-0.85-1.54-0.18
		c-0.44,0.48-0.89,1.2-1.09,1.83c-0.2,0.57-0.1,0.79,0.08,1.49c-0.42,0.25-3.11,0.66-3.67-0.22c-0.23-0.35-0.41,0.85-0.26,1.21
		c0.16,0.45,0.61,0.5,1,0.61c-0.96,2.61-3.25,4.73-7.34,3.28c-0.28-0.11-0.45,0.15-0.22,0.28c1.43,0.74,3.75,1.5,5.61,0.45
		c1.04-0.59,1.9-1.84,2.44-3.98c1.03,0,2.26-0.31,3.35-0.69c1.57,1.27,5.48,1.32,8.39,1.24c2.81,0.01,9.49-0.58,13.88-1.24
		c0.3-0.03,0.86-1.63,0.89-1.83c0.19-0.88-0.56-1.52-1.52-1.64c-0.48-0.09-4.05,0.31-6.23,0.61c-3.19,0.41-10.61,0.58-9.61-0.5
		c0.19-0.25,1.05-1.1,2.32-1.79c0.74-0.4,1.86-0.92,2.6-1.18C219.11,54.98,219.75,53.66,219.52,53.74z M208.13,53.5
		c-0.17,0.28-0.4,0.69-0.53,0.94c-0.05,0.1-0.05,0.18,0.06,0.24c0.22,0.12,0.61,0.33,0.89,0.48c0.12,0.06,0.19,0.05,0.24-0.03
		c0.15-0.25,0.38-0.64,0.52-0.88c0.05-0.09,0.07-0.16-0.02-0.21c-0.26-0.16-0.69-0.42-0.96-0.57
		C208.23,53.4,208.18,53.42,208.13,53.5z M218.34,50.55c-0.93,0.39-4.1,1.56-4.92,1.91c-0.05,0.02-0.08,0.03-0.1,0.1
		c-0.03,0.1-0.13,0.42-0.18,0.59c-0.02,0.07,0.04,0.07,0.1,0.04c0.11-0.05,0.26-0.13,0.38-0.18c0.64-0.27,3.66-1.41,4.49-1.73
		c0.05-0.02,0.1-0.05,0.12-0.11c0.05-0.11,0.13-0.39,0.17-0.55C218.43,50.54,218.4,50.52,218.34,50.55z M202.92,50.56
		c0.11,0.12,0.26,0.37,0.29,0.8c0,0.12-0.02,0.3-0.03,0.31c-0.01,0.01-0.24-0.09-0.28-0.11c-0.08-0.04-0.31-0.13-0.71-0.28
		c-0.16-0.03,0-0.28,0-0.28c0.06-0.11,0.16-0.25,0.27-0.37l0.15-0.1C202.7,50.5,202.85,50.47,202.92,50.56z M202.83,49.81
		c-0.46,0.08-1,0.72-1.23,1.45c-0.1,0.33-0.04,0.52,0.14,0.63c0.26,0.16,0.64,0.29,1.09,0.41c-0.52,0.87-2.2,2-2.51,2.18
		c-0.36,0.21-0.3,0.44,0.16,0.24c1.69-0.76,2.52-1.57,2.9-2.29c0.12,0.02,0.22,0.06,0.34,0.09c0.2,0.06,0.16,0.08,0.27-0.24
		c0.05-0.15,0.09-0.26,0.1-0.33l-0.51-0.17l0.05-0.18c0.06-0.58-0.09-1.06-0.14-1.21C203.33,49.93,203.1,49.76,202.83,49.81z
		 M193.41,49.77l-0.19,0.99c-0.06,0.28-0.04,0.31,0,0.55c0.12,0.66,0.27,1.31,0.39,1.95c0.32,1.55,0.77,3.92,1.04,5.35
		c0.2,1.07,0.34,2.16,0.38,3.12c0.01,0.18,0.11,0.17,0.16,0.03c0.17-0.53,0.24-1.09,0.24-1.68c0-0.58-0.19-1.75-0.38-2.68
		c-0.26-1.29-0.67-3.53-0.91-4.7c-0.21-0.99-0.41-1.99-0.53-2.95c-0.01-0.11-0.06-0.15-0.1-0.14
		C193.47,49.62,193.43,49.68,193.41,49.77z M210.06,49.33c-0.93,0.39-3.52,1.42-4.34,1.77c-0.05,0.02-0.08,0.03-0.1,0.1
		c-0.03,0.1-0.13,0.42-0.18,0.59c-0.02,0.07,0.04,0.07,0.1,0.04c0.11-0.05,0.26-0.13,0.38-0.18c0.64-0.27,3.08-1.27,3.91-1.6
		c0.05-0.02,0.1-0.05,0.12-0.11c0.05-0.12,0.13-0.39,0.17-0.55C210.15,49.33,210.12,49.31,210.06,49.33z M194.05,47.57
		c-0.22,0.41-0.85,0.52-1.3,0.38c-0.27-0.08-0.36-0.32-0.24-0.56c0.25-0.5,0.52-0.68,0.77-0.68
		C193.7,46.72,194.05,47.23,194.05,47.57z M192.34,46.7c-0.7,1.62,0.14,2.21,0.82,2.19c1.09-0.03,1.48-1.1,1.2-2.18
		c-0.18-0.68-0.55-0.92-0.95-0.9C193.02,45.83,192.6,46.11,192.34,46.7z M171.29,60.11c-0.14,0.26-0.09,0.64,0.16,0.81
		c0.21,0.15,0.56,0.3,0.95,0.49c-0.17,0.08-0.63,0.4-0.79,0.57c-0.07,0.18-0.14,0.49-0.19,0.67c-0.02,0.07,0.04,0.14,0.11,0.08
		c0.41-0.3,1.03-0.69,1.69-1c0.6-0.28,1.08-0.46,1.54-0.53c0.07-0.02,0.38-0.7,0.43-0.8c0.06-0.13,0-0.16-0.09-0.14
		c-0.52,0.15-0.92,0.28-1.56,0.28c-0.79,0-1.46-0.55-1.46-0.78c0-0.18,0.53-0.59,0.74-0.58c0.61,0.04,0.65,0.57,0.81,0.56
		c0.2-0.01,0.53-0.74,0.53-0.93c0.01-0.21-0.45-0.66-0.85-0.65C172.65,58.2,171.65,59.39,171.29,60.11z M181.97,61.1
		c-0.94,0.08-1.36-0.11-1.53-0.2c-0.28-0.2,0.2-0.8,0.46-0.89c0.01,0,0.04-0.01,0.09-0.01C181.16,59.99,181.48,60.1,181.97,61.1z
		 M190.22,58.64c0.08,0.31,0.2,0.83,0.16,1.45c-0.56,0.06-1.07-0.08-1.53-0.33c0.11-0.35,0.27-0.79,0.28-1.16
		c0.01-0.2-0.14-0.38-0.25-0.14c-0.28,0.7-0.34,1.07-0.76,1.53c-0.29,0.32-1.24,0.65-2.37,0.71c0.27-0.47,0.57-0.86,0.65-1.82
		c0.01-0.11-0.07-0.17-0.18,0.03c-0.25,0.48-0.41,0.94-1,1.37c-0.51,0.35-1.37,0.64-2.48,0.76c-0.12-0.37-0.35-1.04-0.72-1.67
		c-0.27-0.4-0.66-0.9-1.24-0.6c-0.3,0.16-1.09,1.15-0.97,2.68c0.15,1.21,1.9,0.93,2.59,0.85c-0.66,1.41-1.63,2.47-2.86,3.11
		c-1.17,0.57-2.82,0.69-4.84,0.21c-0.12-0.04-0.38,0.14-0.05,0.31c1.15,0.5,3.6,1.21,5.35,0.41c1.32-0.55,2.36-1.92,2.89-4.11
		c0.43-0.07,1.31-0.29,1.74-0.52c0.67,0.29,2.76,0.19,3.73-0.9c0.6,0.5,1.53,0.63,1.99,0.43c0.08-0.06,0.31-0.45,0.46-1.2
		c0.14-0.67,0.17-1.6-0.16-2.73C190.55,57.06,190.19,58.48,190.22,58.64z M172.76,54.02c0.11,0.12,0.26,0.37,0.29,0.8
		c0,0.12-0.02,0.3-0.03,0.31c-0.01,0.01-0.24-0.09-0.28-0.11c-0.08-0.04-0.31-0.13-0.71-0.28c-0.16-0.03,0-0.28,0-0.28
		c0.06-0.11,0.16-0.25,0.27-0.36l0.15-0.1C172.55,53.96,172.7,53.92,172.76,54.02z M172.67,53.26c-0.46,0.08-1,0.72-1.22,1.45
		c-0.1,0.33-0.04,0.52,0.14,0.63c0.26,0.16,0.64,0.29,1.09,0.41c-0.52,0.87-2.2,2-2.51,2.18c-0.36,0.21-0.3,0.44,0.16,0.24
		c1.69-0.76,2.52-1.57,2.9-2.29c0.12,0.02,0.22,0.06,0.34,0.09c0.2,0.05,0.16,0.08,0.26-0.24c0.05-0.15,0.09-0.26,0.1-0.33
		l-0.51-0.17l0.05-0.18c0.06-0.58-0.09-1.06-0.14-1.21C173.18,53.38,172.95,53.22,172.67,53.26z M183.25,52.65
		c-0.93,0.39-3.52,1.42-4.34,1.77c-0.05,0.02-0.08,0.03-0.1,0.1c-0.03,0.1-0.13,0.42-0.18,0.59c-0.02,0.07,0.04,0.07,0.1,0.04
		c0.11-0.05,0.26-0.13,0.38-0.18c0.64-0.27,3.09-1.27,3.91-1.6c0.05-0.02,0.1-0.05,0.12-0.11c0.05-0.12,0.13-0.39,0.17-0.55
		C183.35,52.65,183.31,52.63,183.25,52.65z M189.17,52.62c-0.93,0.39-3.52,1.42-4.34,1.77c-0.05,0.02-0.08,0.03-0.1,0.1
		c-0.03,0.1-0.13,0.42-0.18,0.59c-0.02,0.07,0.04,0.07,0.1,0.04c0.11-0.05,0.26-0.13,0.38-0.18c0.64-0.27,3.08-1.27,3.91-1.6
		c0.05-0.02,0.1-0.05,0.12-0.11c0.05-0.12,0.13-0.39,0.17-0.55C189.26,52.62,189.22,52.59,189.17,52.62z M171.86,52.21
		c-0.81,0.51-1.52,1.47-1.73,2.47c-0.06,0.3-0.09,0.55,0.02,0.82c0.13,0.34,0.35,0.58,0.53,0.72c0.13,0.11,0.14,0.01,0.24-0.3
		c0.1-0.31,0.1-0.28-0.04-0.4c-0.12-0.13-0.25-0.25-0.36-0.4c-0.07-0.1-0.11-0.21-0.08-0.33c0.25-0.89,0.8-1.76,1.82-2.16
		c1.22-0.48,1.98,0.05,1.82,0.9c-0.03,0.13,0,0.25,0.12,0.04C174.82,52.5,173.83,50.96,171.86,52.21z M175.92,51.07l-0.2,0.99
		c-0.05,0.28-0.04,0.32,0,0.55c0.11,0.66,0.27,1.31,0.39,1.95c0.32,1.55,0.71,3.5,0.99,4.93c0.2,1.07,0.34,2.16,0.38,3.12
		c0.01,0.18,0.11,0.17,0.16,0.03c0.17-0.53,0.24-1.09,0.24-1.68c0-0.58-0.19-1.75-0.38-2.68c-0.26-1.29-0.61-3.1-0.85-4.27
		c-0.21-0.99-0.41-1.99-0.53-2.95c-0.01-0.11-0.06-0.15-0.1-0.14C175.97,50.92,175.93,50.98,175.92,51.07z M178.48,48.08
		c-0.64,0.65-1.83,1.13-2.76,1.11c-0.64-0.02-0.99-0.17-1.31-0.4c-0.08-0.06-0.16-0.05-0.22,0.03c-0.22,0.28-0.51,0.92-0.59,1.37
		c-0.02,0.08-0.03,0.19,0.01,0.21c0.04,0.02,0.1-0.01,0.13-0.07c0.08-0.22,0.19-0.6,0.38-0.81c0.03-0.03,0.08-0.01,0.11,0.01
		c0.4,0.27,1.01,0.42,1.63,0.39c0.87-0.04,2.44-0.57,2.69-1.75c0.01-0.06,0.02-0.11,0-0.12C178.54,48.02,178.52,48.04,178.48,48.08z
		 M153.68,66.34c-0.93,0.39-3.52,1.42-4.34,1.77c-0.05,0.02-0.08,0.03-0.1,0.1c-0.03,0.1-0.13,0.42-0.18,0.59
		c-0.02,0.07,0.04,0.07,0.1,0.04c0.11-0.05,0.26-0.13,0.39-0.18c0.64-0.27,3.08-1.27,3.91-1.6c0.05-0.02,0.1-0.05,0.12-0.11
		c0.05-0.12,0.13-0.39,0.17-0.55C153.77,66.34,153.73,66.32,153.68,66.34z M157.13,64.18c-0.16,0.24-0.35,0.59-0.54,0.88
		c-0.27-0.18-0.62-0.39-0.86-0.55c-0.13-0.08-0.18-0.07-0.26,0.05c-0.14,0.21-0.35,0.54-0.5,0.8c-0.05,0.1-0.04,0.18,0.1,0.26
		c0.26,0.15,0.66,0.38,0.9,0.51c0.08,0.04,0.14,0.01,0.2-0.07c0.13-0.18,0.28-0.45,0.49-0.79c0.36,0.21,0.65,0.4,0.94,0.54
		c0.08,0.04,0.12,0.03,0.18-0.04c0.14-0.18,0.4-0.58,0.5-0.78c0.07-0.14,0.05-0.19-0.07-0.27c-0.19-0.12-0.65-0.41-0.88-0.56
		C157.23,64.09,157.18,64.11,157.13,64.18z M141.88,55.47c-0.03,0.08-0.09,0.2-0.12,0.28c-0.04,0.14,0.04,0.24,0.11,0.13
		c0.09-0.13,0.19-0.25,0.32-0.33c0.31-0.19,0.65-0.26,0.99-0.23c0.31,0.03,0.89,0.25,0.89,0.28c0,0.07-1.35,0.73-1.56,0.87
		c-0.09,0.06-0.2,0.16-0.18,0.27c0.02,0.08,0.15,0.1,0.25,0.06c0.53-0.19,0.72-0.18,1.15-0.36c0.58-0.25,0.75-0.55,0.85-0.59
		c0.04-0.01,0.09-0.01,0.14-0.05c0.17-0.16,0.31-0.57,0.32-0.71c-0.02-0.11-0.41-0.15-0.52-0.17c-0.38-0.09-0.75-0.29-1.14-0.32
		C142.77,54.55,142.2,54.82,141.88,55.47z M153.94,54.98c-0.03,0.08-0.09,0.2-0.12,0.28c-0.04,0.14,0.04,0.24,0.11,0.13
		c0.08-0.13,0.19-0.25,0.32-0.33c0.31-0.19,0.65-0.26,0.99-0.23c0.31,0.03,0.89,0.25,0.89,0.28c0,0.07-1.35,0.73-1.56,0.87
		c-0.09,0.06-0.2,0.16-0.18,0.27c0.02,0.08,0.15,0.1,0.25,0.06c0.53-0.19,0.72-0.18,1.15-0.36c0.58-0.25,0.75-0.55,0.85-0.58
		c0.04-0.01,0.09-0.01,0.14-0.05c0.17-0.16,0.31-0.57,0.32-0.71c-0.02-0.11-0.41-0.15-0.52-0.17c-0.38-0.09-0.75-0.29-1.14-0.32
		C154.83,54.06,154.26,54.34,153.94,54.98z M165.09,51.82c-0.93,0.39-3.03,1.23-3.85,1.58c-0.05,0.02-0.08,0.03-0.1,0.1
		c-0.03,0.1-0.13,0.42-0.18,0.59c-0.02,0.07,0.04,0.07,0.1,0.04c0.11-0.05,0.26-0.13,0.38-0.18c0.64-0.27,2.6-1.07,3.42-1.4
		c0.05-0.02,0.1-0.05,0.12-0.11c0.05-0.12,0.13-0.39,0.17-0.55C165.18,51.82,165.14,51.8,165.09,51.82z M152.7,63.66
		c-0.46,1.55-2.19,0.17-2.49-0.65C151.62,63.06,152.5,63.34,152.7,63.66z M143.36,59.76c0.1,0.01,0.56,0.95,0.85,1.43
		c-0.9-0.11-1.69-0.3-1.9-0.6c-0.14-0.23,0.78-0.82,1.01-0.83C143.34,59.76,143.35,59.76,143.36,59.76z M151.13,58.45
		c0.2,0.11,0.33,0.38,0.34,0.52c-0.2,0.47-1.22,1.35-1.75,1.58c0.19-0.83,0.47-1.84,0.75-2.1
		C150.67,58.31,150.95,58.35,151.13,58.45z M158.47,53.63c0.34,1.91,0.55,3.46,0.79,5.19c0.15,1.12,0.15,1.31,0.19,1.9
		c-0.27,0.44-0.41,0.54-0.83,0.47c-0.36-0.05-0.75-0.14-1.56-0.57c0.19-0.31,0.23-0.44,0.29-0.7c0.04-0.19-0.1-0.28-0.23-0.16
		c-0.77,0.73-1.66,1.13-3.49,1.46c-1.47,0.26-2.57,0.44-3.84,0.41c0.83-0.57,1.86-1.59,2.02-2.31c0.12-0.62,0.15-1.42-0.33-1.96
		c-0.17-0.21-0.9-0.5-1.26,0.32c-0.46,1.03-0.7,1.97-0.88,3.02c-1.09,0.48-2.66,0.74-4.15-0.02c-0.82-0.4-1.01-0.83-1.42-1.42
		c-0.19-0.3-0.4-0.37-0.72-0.15c-0.36,0.24-0.83,0.72-1.14,1.3c-0.1,0.25,0.08,0.95,0.33,1.4c-1.1,1.44-2.4,1.9-4.3,3.02
		c-0.18,0.09-0.18,0.3,0.03,0.26c1.83-0.49,4.21-1.18,4.62-2.98c0.77,0.27,1.56,0.34,2.38,0.45c0.09,0.01,0.14-0.13,0.23-0.57
		c0.97,0.26,1.86,0.67,3.6,0.12c-0.08,0.65-0.12,0.7-0.09,0.7c0.31,0.06,0.49,0.07,0.79,0.11c0.21,0.65,0.48,1.18,0.93,1.72
		c0.58,0.78,1.95,1.54,2.51,0.38c0.26-0.51,0.4-1.71,0.19-2.11c-0.12-0.24-0.3-0.33-0.52-0.51c1.42-0.26,3.18-0.54,3.96-1.33
		c0.67,0.55,1.44,1.31,2.28,1.23c0.45-0.07,0.93-1.16,0.98-2.06c0.29,0.81,0.64,1.55,1.36,1.78c0.52,0.15,1.28,0.15,2.09-0.03
		c1.41-0.34,2.5-1.06,3.58-1.97c0.19-0.17,0.47-1.36,0.29-1.21c-0.73,0.6-1.43,1.29-2.98,1.78c-0.81-0.27-1.88-0.96-1.82-2.29
		c0.3-0.28,0.74-0.66,1.58-0.9c0.51-0.14,1.39-0.19,2.15,0.28c0.09,0.05,0.17,0.04,0.22-0.01c0.05-0.05,0.05-0.13-0.03-0.22
		c-0.28-0.27-1.17-1.41-2.64-0.97c-0.81,0.23-1.24,0.92-1.52,1.45c-0.58,1.14-0.78,1.75,0.32,3.05c-2.02,0.22-2.34-1.85-2.73-3.74
		c-0.31-1.74-0.44-2.8-0.89-5.33C158.71,51.28,158.38,52.78,158.47,53.63z M161.21,48.51c-0.93,0.39-4.1,1.56-4.92,1.91
		c-0.05,0.02-0.08,0.03-0.1,0.1c-0.03,0.1-0.13,0.42-0.18,0.59c-0.02,0.07,0.04,0.07,0.1,0.04c0.11-0.05,0.26-0.13,0.38-0.18
		c0.64-0.27,3.66-1.41,4.49-1.73c0.05-0.02,0.1-0.05,0.12-0.11c0.05-0.12,0.13-0.39,0.17-0.55
		C161.3,48.51,161.27,48.49,161.21,48.51z M133.39,61c-0.14,0.26-0.09,0.64,0.16,0.81c0.21,0.15,0.56,0.3,0.95,0.5
		c-0.17,0.08-0.63,0.4-0.79,0.57c-0.07,0.18-0.15,0.49-0.19,0.67c-0.02,0.07,0.04,0.14,0.11,0.08c0.41-0.3,1.03-0.69,1.69-0.99
		c0.6-0.28,1.08-0.46,1.54-0.53c0.07-0.02,0.38-0.7,0.43-0.8c0.06-0.13,0-0.16-0.09-0.14c-0.52,0.15-0.92,0.28-1.56,0.28
		c-0.79,0-1.46-0.55-1.46-0.78c0-0.18,0.53-0.59,0.74-0.57c0.61,0.04,0.65,0.57,0.81,0.56c0.2-0.01,0.53-0.74,0.53-0.93
		c0.01-0.21-0.45-0.66-0.85-0.65C134.75,59.08,133.76,60.28,133.39,61z M114.76,57.41l0.01,0.84c0.01,0.26,0,0.26,0.19,0.45
		c0.32,0.31,0.62,0.69,0.88,1.14c0.1,0.17,0.1,0.2,0.05,0.37c-0.34,1-0.92,1.88-1.64,2.45c-1.2,0.95-2.53,1.06-4.51,0.88
		c-0.42-0.02-0.45,0.34-0.06,0.41c2.29,0.48,4.29,0.59,5.5-0.71c0.72-0.75,1.16-1.84,1.19-2.95c0.03-1.1-0.31-2.05-1.29-2.99
		C114.91,57.16,114.76,57.14,114.76,57.41z M105.54,63.73c-0.58,1.4-2.43-0.37-2.58-0.84c0.03-0.01,0.08-0.01,0.14-0.02
		C103.7,62.85,105.7,63.12,105.54,63.73z M94.78,60.05c0.38,0.35,0.37,0.62,1.06,1.44c-1.21-0.16-1.91-0.52-1.99-0.57
		c-0.23-0.13,0.08-0.98,0.54-1.03C94.5,59.89,94.65,59.95,94.78,60.05z M104.63,58.9c-0.48,0.92-1.63,1.47-1.85,1.58
		c0.1-0.32,0.52-2.02,1.02-2.34c0.04-0.02,0.09-0.03,0.13-0.03C104.31,58.08,104.81,58.58,104.63,58.9z M109.84,57.33
		c0.6,0.51,0.99,1.17,1.21,1.6c0.1,0.21,0.1,0.23-0.06,0.36c-1.81,1.41-6.96,2.23-7.79,2.2c1.09-0.86,1.69-1.17,1.93-2.8
		c0.17-1.3-0.8-2.34-1.34-1.72c-0.59,0.71-1.16,2.43-1.37,3.7c-1.16,0.66-4.61,1.03-6.16-0.13c-0.25-0.19-0.88-0.88-1.07-1.15
		c-0.35-0.46-0.56-0.36-0.88-0.13c-0.48,0.32-0.82,1.06-0.87,1.16c-0.25,0.58-0.14,1.31,0.35,1.93c-0.57,0.9-3.74,3.01-3.89,3.12
		c-0.09,0.08-0.02,0.22,0.19,0.18c1.41-0.28,3.82-1.54,4.07-3.17c0.58,0.18,2.23,0.35,2.59,0.36c0.06,0.01,0.12-0.21,0.24-0.6
		c0.99,0.44,3.62,0.22,4.13,0.14c-0.07,0.29-0.1,0.37-0.05,0.38c0.3,0.03,0.83,0.03,1.31,0.06c1.24,3.16,2.75,2.9,3.22,2.46
		c0.63-0.6,0.69-2.47-0.04-2.95c1.14-0.12,5.21-1.06,5.82-2.31c0.81-2.15-0.74-3.59-1.34-4.06
		C109.9,55.88,109.72,57.22,109.84,57.33z M121.18,57.14c0.24,0.9,0.57,1.8,0.9,2.67c-0.86,0.93-2.51,1.57-3.5,1.31
		c-0.29-0.09-0.36-0.47-0.46-0.25c0,0-0.32,0.88,0.06,1.35c0.44,0.43,2.65,0.14,3.73-1.07c0.13-0.17,0.29-0.59,0.4-0.91
		c0.42,1.24,1,2.22,2.17,2.65c1.34,0.41,3.3,0.02,4.07-1.09c0.18-0.34,0.61-2.43-0.97-3.58c-0.19-0.14-0.26,1.17-0.17,1.26
		c0.34,0.42,0.64,0.66,0.89,1.42c-0.65,0.53-1.51,0.9-2.74,0.89c-0.39-0.02-1.88-0.06-2.57-1.66c-0.65-1.36-0.9-2.17-1.56-4.09
		C121.28,55.6,121.14,56.94,121.18,57.14z M136.44,54.24c-0.93,0.39-3.52,1.42-4.34,1.77c-0.05,0.02-0.08,0.03-0.1,0.1
		c-0.03,0.1-0.13,0.42-0.18,0.59c-0.02,0.07,0.04,0.07,0.1,0.04c0.11-0.05,0.26-0.13,0.39-0.18c0.64-0.27,3.08-1.27,3.91-1.6
		c0.05-0.02,0.1-0.05,0.12-0.11c0.05-0.12,0.13-0.39,0.17-0.55C136.54,54.24,136.5,54.22,136.44,54.24z M126.07,54.12
		c-0.17,0.28-0.4,0.69-0.53,0.94c-0.05,0.1-0.05,0.18,0.06,0.23c0.22,0.12,0.61,0.33,0.89,0.48c0.12,0.06,0.18,0.05,0.24-0.03
		c0.15-0.25,0.38-0.64,0.52-0.88c0.05-0.09,0.07-0.16-0.02-0.21c-0.26-0.16-0.69-0.42-0.95-0.57
		C126.17,54.02,126.12,54.04,126.07,54.12z M109.54,52.71c-0.16,0.24-0.35,0.59-0.54,0.88c-0.27-0.18-0.62-0.39-0.86-0.55
		c-0.13-0.08-0.18-0.07-0.26,0.05c-0.14,0.21-0.35,0.54-0.5,0.8c-0.05,0.1-0.04,0.18,0.1,0.26c0.26,0.15,0.66,0.38,0.9,0.51
		c0.08,0.04,0.14,0.01,0.2-0.07c0.13-0.18,0.28-0.45,0.49-0.79c0.36,0.21,0.65,0.4,0.94,0.54c0.08,0.04,0.12,0.03,0.18-0.04
		c0.14-0.18,0.39-0.58,0.5-0.78c0.07-0.14,0.05-0.19-0.06-0.27c-0.19-0.12-0.65-0.41-0.88-0.56
		C109.64,52.63,109.59,52.64,109.54,52.71z M120.22,52.67c-0.17,0.28-0.4,0.69-0.53,0.94c-0.05,0.1-0.05,0.18,0.06,0.23
		c0.22,0.12,0.61,0.33,0.89,0.48c0.11,0.06,0.18,0.05,0.24-0.03c0.15-0.25,0.38-0.64,0.52-0.88c0.05-0.09,0.07-0.16-0.02-0.21
		c-0.26-0.16-0.69-0.42-0.95-0.57C120.31,52.58,120.27,52.59,120.22,52.67z M93.74,53.41c-0.03,0.08-0.09,0.2-0.12,0.28
		c-0.04,0.14,0.04,0.24,0.11,0.13c0.09-0.13,0.19-0.25,0.32-0.33c0.31-0.19,0.65-0.26,0.99-0.23c0.31,0.03,0.89,0.25,0.89,0.28
		c0,0.07-1.35,0.73-1.56,0.87c-0.09,0.06-0.2,0.16-0.18,0.27c0.02,0.08,0.15,0.1,0.25,0.06c0.53-0.19,0.72-0.18,1.15-0.36
		c0.58-0.25,0.75-0.55,0.85-0.58c0.04-0.01,0.09-0.01,0.14-0.05c0.17-0.16,0.31-0.57,0.32-0.71c-0.02-0.11-0.41-0.15-0.52-0.17
		c-0.38-0.09-0.75-0.29-1.14-0.32C94.62,52.49,94.05,52.77,93.74,53.41z M129.33,51.2c-0.04,0.01-0.08,0.07-0.1,0.16l-0.19,0.99
		c-0.06,0.28-0.04,0.31,0,0.55c0.11,0.66,0.27,1.31,0.39,1.95c0.32,1.55,0.77,3.92,1.04,5.35c0.2,1.07,0.34,2.16,0.38,3.12
		c0.01,0.18,0.11,0.17,0.16,0.03c0.17-0.53,0.24-1.09,0.24-1.68c0-0.58-0.19-1.75-0.38-2.68c-0.26-1.28-0.67-3.53-0.91-4.7
		c-0.21-0.99-0.41-1.99-0.53-2.95C129.42,51.22,129.38,51.19,129.33,51.2z M112.71,50.89c-0.03,0.08-0.09,0.2-0.12,0.28
		c-0.04,0.14,0.04,0.24,0.11,0.13c0.09-0.13,0.19-0.25,0.32-0.33c0.31-0.19,0.65-0.26,0.99-0.23c0.31,0.03,0.89,0.25,0.89,0.28
		c0,0.07-1.35,0.73-1.56,0.87c-0.09,0.06-0.2,0.16-0.18,0.27c0.02,0.08,0.15,0.1,0.25,0.06c0.53-0.19,0.72-0.18,1.15-0.36
		c0.58-0.25,0.75-0.55,0.85-0.58c0.04-0.01,0.09-0.01,0.14-0.05c0.17-0.15,0.31-0.57,0.32-0.71c-0.02-0.11-0.41-0.15-0.52-0.17
		c-0.38-0.09-0.75-0.29-1.14-0.32C113.6,49.97,113.03,50.25,112.71,50.89z M102.67,50.19c0.11,0.12,0.26,0.37,0.29,0.8
		c0,0.12-0.02,0.3-0.03,0.31c-0.01,0.01-0.24-0.09-0.28-0.11c-0.08-0.04-0.31-0.13-0.71-0.28c-0.16-0.03,0-0.28,0-0.28
		c0.06-0.11,0.16-0.25,0.27-0.37l0.15-0.1C102.45,50.13,102.6,50.1,102.67,50.19z M102.58,49.44c-0.46,0.08-1.01,0.72-1.23,1.45
		c-0.1,0.33-0.04,0.52,0.14,0.63c0.26,0.16,0.64,0.29,1.09,0.4c-0.52,0.87-2.2,2-2.51,2.18c-0.36,0.21-0.3,0.44,0.16,0.24
		c1.69-0.76,2.52-1.57,2.9-2.29c0.12,0.02,0.22,0.06,0.34,0.09c0.2,0.05,0.16,0.08,0.27-0.24c0.05-0.15,0.09-0.26,0.1-0.33
		l-0.51-0.17l0.05-0.18c0.06-0.58-0.09-1.06-0.14-1.21C103.08,49.56,102.86,49.39,102.58,49.44z M122,49.33
		c-0.93,0.39-3.52,1.42-4.34,1.77c-0.05,0.02-0.08,0.03-0.1,0.1c-0.03,0.1-0.13,0.42-0.18,0.59c-0.02,0.07,0.04,0.07,0.1,0.04
		c0.11-0.05,0.26-0.13,0.38-0.18c0.64-0.27,3.08-1.27,3.91-1.6c0.05-0.02,0.1-0.05,0.12-0.11c0.05-0.11,0.13-0.39,0.17-0.55
		C122.09,49.33,122.05,49.31,122,49.33z M110.96,48.9c-0.93,0.39-4.1,1.56-4.92,1.91c-0.05,0.02-0.08,0.03-0.1,0.1
		c-0.03,0.1-0.13,0.42-0.18,0.59c-0.02,0.07,0.04,0.07,0.1,0.04c0.11-0.05,0.26-0.13,0.38-0.18c0.64-0.27,3.66-1.4,4.49-1.73
		c0.05-0.02,0.1-0.05,0.12-0.11c0.05-0.12,0.13-0.39,0.17-0.55C111.06,48.9,111.02,48.88,110.96,48.9z M127.93,48.75
		c-0.09,0.19-0.06,0.39,0.13,0.53c0.14,0.1,0.41,0.28,0.67,0.41c-0.11,0.05-0.37,0.15-0.52,0.26c-0.04,0.12-0.09,0.31-0.11,0.44
		c-0.01,0.04,0.03,0.09,0.07,0.06c0.46-0.27,1.84-0.62,2.44-0.76c0.04-0.01,0.23-0.44,0.26-0.51c0.04-0.08,0-0.11-0.06-0.09
		c-0.34,0.09-0.67,0.15-1.09,0.14c-0.52-0.01-1.31-0.57-1.31-0.68c0-0.11,0.62-0.37,0.76-0.36c0.4,0.03,0.46,0.44,0.57,0.44
		c0.13,0,0.33-0.48,0.33-0.6c0-0.14-0.33-0.5-0.59-0.5C129.05,47.53,128.15,48.29,127.93,48.75z M131.29,45.04
		c-0.93,0.39-4.1,1.56-4.92,1.91c-0.05,0.02-0.08,0.03-0.1,0.1c-0.03,0.1-0.13,0.42-0.18,0.59c-0.02,0.07,0.04,0.07,0.1,0.04
		c0.11-0.05,0.26-0.13,0.38-0.18c0.64-0.27,3.66-1.41,4.49-1.73c0.05-0.02,0.1-0.05,0.12-0.11c0.05-0.12,0.13-0.39,0.17-0.55
		C131.38,45.04,131.35,45.01,131.29,45.04z M84.94,59.25c0.37,0.1,0.68,0.53,0.91,1.08c0.04,0.09,0.08,0.14-0.04,0.14
		c-0.71-0.07-1.46-0.14-2.04-0.35c-0.04-0.02-0.04-0.03-0.01-0.07c0.24-0.36,0.6-0.81,1.01-0.83
		C84.82,59.22,84.88,59.23,84.94,59.25z M84.92,57.9c-0.39,0.05-0.64,0.35-0.88,0.64c-0.49,0.6-0.76,1.34-0.89,2.23
		c-0.05,0.45-0.1,0.59-0.39,0.89c-0.88,0.92-2.99,2.08-4.21,2.74c-0.23,0.13-0.3,0.31,0.04,0.23c2.07-0.44,4.22-1.25,4.86-3.21
		c0.76,0.18,1.67,0.35,2.59,0.39c0.31,0,0.33,0,0.41-0.26c0.09-0.34,0.15-0.64,0.15-0.88c-0.01-0.44-0.24-1.32-0.49-1.87
		c-0.21-0.45-0.5-0.86-1-0.91C85.04,57.89,84.98,57.89,84.92,57.9z M82.37,54.29c-0.03,0.08-0.09,0.2-0.12,0.28
		c-0.04,0.14,0.04,0.24,0.11,0.13c0.08-0.13,0.19-0.25,0.32-0.33c0.31-0.19,0.65-0.26,0.99-0.23c0.31,0.03,0.89,0.25,0.89,0.28
		c0,0.07-1.35,0.73-1.56,0.87c-0.09,0.06-0.2,0.16-0.18,0.27c0.02,0.08,0.15,0.1,0.25,0.06c0.53-0.19,0.72-0.18,1.15-0.36
		c0.58-0.25,0.75-0.55,0.85-0.58c0.04-0.01,0.09-0.01,0.14-0.05c0.17-0.16,0.31-0.57,0.32-0.71c-0.02-0.11-0.4-0.15-0.52-0.17
		c-0.38-0.09-0.75-0.29-1.14-0.32C83.26,53.37,82.69,53.65,82.37,54.29z M87.22,50.72l-0.19,0.99c-0.06,0.28-0.04,0.31,0,0.55
		c0.11,0.66,0.27,1.31,0.39,1.95c0.32,1.55,0.85,4.26,1.13,5.69c0.2,1.07,0.34,2.16,0.38,3.12c0.01,0.18,0.11,0.17,0.16,0.03
		c0.17-0.53,0.24-1.09,0.24-1.68c0-0.58-0.19-1.75-0.38-2.68c-0.26-1.29-0.75-3.86-1-5.03c-0.21-0.99-0.41-1.99-0.53-2.95
		c-0.01-0.11-0.06-0.15-0.1-0.13C87.27,50.58,87.24,50.64,87.22,50.72z M85.76,48.18c-0.09,0.19-0.05,0.39,0.13,0.53
		c0.14,0.1,0.41,0.28,0.67,0.41c-0.11,0.05-0.37,0.15-0.52,0.26c-0.04,0.12-0.09,0.31-0.11,0.44c-0.01,0.04,0.03,0.09,0.07,0.06
		c0.46-0.27,1.84-0.63,2.44-0.76c0.04-0.01,0.23-0.44,0.26-0.51c0.04-0.08,0-0.11-0.06-0.09c-0.34,0.09-0.67,0.15-1.09,0.14
		c-0.52-0.01-1.31-0.57-1.31-0.68c0.01-0.11,0.62-0.37,0.76-0.36c0.4,0.04,0.46,0.44,0.57,0.44c0.13,0,0.33-0.48,0.33-0.6
		c0-0.14-0.33-0.5-0.59-0.5C86.88,46.96,85.98,47.72,85.76,48.18z M88.71,44.68c-0.93,0.39-3.52,1.42-4.34,1.77
		c-0.05,0.02-0.08,0.03-0.1,0.1c-0.03,0.1-0.13,0.42-0.18,0.59c-0.02,0.07,0.04,0.07,0.1,0.04c0.11-0.05,0.26-0.13,0.38-0.18
		c0.64-0.27,3.08-1.27,3.91-1.6c0.05-0.02,0.1-0.05,0.12-0.11c0.05-0.12,0.13-0.39,0.17-0.55C88.8,44.68,88.76,44.66,88.71,44.68z
		 M71.55,55.48c-0.03,0.08-0.09,0.2-0.12,0.28c-0.04,0.14,0.04,0.24,0.11,0.13c0.08-0.13,0.19-0.25,0.32-0.33
		c0.31-0.19,0.65-0.26,0.99-0.23c0.31,0.03,0.89,0.25,0.89,0.28c0,0.07-1.35,0.73-1.56,0.87c-0.09,0.06-0.2,0.16-0.18,0.27
		c0.02,0.08,0.15,0.1,0.25,0.06c0.53-0.19,0.72-0.18,1.15-0.36c0.58-0.25,0.75-0.55,0.85-0.58c0.04-0.01,0.09-0.01,0.14-0.05
		c0.17-0.15,0.31-0.57,0.32-0.71c-0.02-0.11-0.4-0.15-0.52-0.17c-0.38-0.09-0.75-0.29-1.14-0.32
		C72.43,54.56,71.86,54.84,71.55,55.48z M74.76,61.8c-0.77-0.07-2.67-0.49-2.35-1.03c0.15-0.27,0.45-0.45,0.8-0.43
		C73.69,60.37,74.29,60.77,74.76,61.8z M75.99,49.4c-0.27,0.54-0.43,0.81-0.53,1.07c-0.01,0.03-0.01,0.03,0,0.06
		c0.17,0.4,0.22,0.48,0.46,0.95c0.18,1.11,0.31,2.42,0.47,3.38c0.15,1.07,0.5,3.19,0.65,4c-0.12,0.92-1.64,1.18-3.19,0.68
		c-0.8-0.31-1.41,0.29-1.48,0.37c-0.5,0.49-0.5,2.11-0.28,2.4c-0.56,0.77-1.35,1.09-2.16,1.61c-1,0.59-1.65,0.95-2.37,1.28
		c-0.36,0.17-0.06,0.28,0.3,0.2c2.29-0.5,4.15-1.32,4.62-2.89c1.17,0.44,1.63,0.59,2.43,0.57c0.26-0.03,0.27,0.02,0.39-0.6
		c0.07-0.47-0.04-1.03-0.15-1.53c1.26,0.22,2.17-0.38,2.37-1.66c0.08-0.43,0.06-1.21-0.18-2.71c-0.17-1.28-0.61-3.54-0.81-4.98
		c0.75-0.99,0.57-0.28-0.36-2.17C76.1,49.29,76.04,49.3,75.99,49.4z M78.06,46.46c-0.93,0.39-4.1,1.56-4.92,1.91
		c-0.05,0.02-0.08,0.03-0.1,0.1c-0.03,0.1-0.13,0.42-0.18,0.59c-0.02,0.07,0.04,0.07,0.1,0.04c0.11-0.05,0.26-0.13,0.38-0.18
		c0.64-0.27,3.66-1.41,4.49-1.73c0.05-0.02,0.1-0.05,0.12-0.11c0.05-0.11,0.13-0.39,0.17-0.55C78.15,46.45,78.11,46.43,78.06,46.46z
		 M55.16,63.8c-0.93,0.39-3.52,1.42-4.34,1.77c-0.05,0.02-0.08,0.03-0.1,0.1c-0.03,0.1-0.13,0.42-0.18,0.59
		c-0.02,0.07,0.04,0.07,0.1,0.04c0.11-0.05,0.26-0.13,0.38-0.18c0.64-0.27,3.08-1.27,3.91-1.6c0.05-0.02,0.1-0.05,0.12-0.11
		c0.05-0.12,0.13-0.39,0.17-0.55C55.25,63.8,55.21,63.77,55.16,63.8z M46.3,58.07l0.01,0.84c0.01,0.26,0,0.26,0.19,0.45
		c0.32,0.31,0.62,0.69,0.88,1.14c0.1,0.18,0.1,0.2,0.05,0.37c-0.34,1-0.92,1.88-1.64,2.45c-1.2,0.95-2.53,1.06-4.51,0.88
		c-0.42-0.02-0.45,0.34-0.06,0.41c2.29,0.48,4.29,0.59,5.5-0.71c0.72-0.74,1.16-1.84,1.19-2.94c0.03-1.1-0.31-2.05-1.29-2.99
		C46.45,57.82,46.3,57.79,46.3,58.07z M62.2,56c-0.17,0.28-0.4,0.69-0.53,0.94c-0.05,0.1-0.05,0.17,0.06,0.23
		c0.22,0.12,0.61,0.33,0.89,0.48c0.12,0.06,0.19,0.05,0.24-0.03c0.15-0.25,0.38-0.64,0.52-0.88c0.05-0.09,0.07-0.16-0.02-0.21
		c-0.26-0.16-0.69-0.42-0.95-0.57C62.29,55.9,62.25,55.92,62.2,56z M30.7,61.43c-0.95-0.09-1.64-0.42-1.83-0.65
		c-0.27-0.33,0.57-0.86,0.7-0.89c0.01,0,0.02,0,0.03,0C29.88,59.87,30.24,60.68,30.7,61.43z M42.34,60.29
		c0.07,0.21-0.07,0.38-0.28,0.3c-0.39-0.15-0.97-0.38-1.49-0.49c0.21-0.55,0.18-0.98,0.21-1.55C42.03,59.61,42.28,60.14,42.34,60.29
		z M39.52,58.38c0.28,0.15,0.79,0.51,0.88,1.31c0,0.06-0.32,0.22-0.61,0.31c-0.44-0.02-1.14,0.01-1.21-0.14
		c-0.06-0.12-0.19-0.76,0.44-1.42c0.09-0.09,0.17-0.13,0.25-0.13C39.35,58.3,39.43,58.33,39.52,58.38z M38.31,57.27
		c0.02,0.12,0.08,0.13,0.33,0.25c-0.58,0.89-0.8,2.42-0.44,3.08c-1.08,0.58-3.79,1.04-5.32,0.7c-2.11-0.56-2.42-2.13-2.99-2.29
		c-0.38-0.14-1.4,1.21-1.47,1.51c-0.14,0.56,0.18,1.44,0.36,1.6c-0.85,1.45-4.89,3.06-3.97,2.96c1.74-0.17,3.77-0.74,4.35-2.75
		c0.45,0.29,1.75,0.41,2.43,0.46c0.05-0.14,0.1-0.4,0.16-0.56c1.28,0.8,4.56,0.64,7.87-1.18c0.81,0.19,1.22,0.27,1.93,0.58
		c0.6,0.23,0.91,0.4,1.19-0.57c0.31-1.08-0.16-2.02-0.98-2.96c-0.42-0.46-1.39-1.66-3.12-2.28c-0.03-0.01-0.06-0.01-0.09-0.01
		C38.17,55.83,38.31,56.98,38.31,57.27z M53.28,57.16c0.25,0.94,0.56,1.75,0.83,2.6c-0.26,0.63-0.96,0.96-1.73,1.25
		c-0.75,0.24-1.77,0.56-2.2,0.12c-0.05-0.04-0.09-0.19-0.17,0c-0.04,0.06-0.19,0.53,0.11,1.2c0.13,0.24,0.34,0.41,1.83,0.02
		c0.73-0.23,1.45-0.45,2.13-1.25c0.07-0.11,0.18-0.5,0.25-0.81c0.34,0.79,0.58,1.74,1.26,2.22c0.69,0.49,1.87,0.8,3.98,0.5
		c1.5-0.2,3.46-0.83,4.57-1.68c0.73,0.3,1.68,0.87,2.35,0.73c0.18-0.05,0.52-0.32,0.64-1.72c0.05-1.07-0.2-1.83-0.4-2.33
		c-0.14-0.3-0.51,1.04-0.41,1.31c0.16,0.45,0.33,0.86,0.31,1.46c0,0.17-1.26,0.11-2.03-0.09c0.2-0.38,0.32-0.72,0.32-1.27
		c0.01-0.12-0.08-0.1-0.13,0c-0.26,0.52-0.79,1.12-1.98,1.59c-1.25,0.49-2.35,0.84-3.74,0.91c-1.23,0.03-2.96,0.17-3.9-1.4
		c-0.69-1.23-1.21-3.03-1.72-4.69C53.31,55.48,53.18,56.79,53.28,57.16z M27.95,54.8c-0.03,0.08-0.09,0.2-0.12,0.28
		c-0.04,0.14,0.04,0.24,0.11,0.13c0.08-0.13,0.19-0.25,0.32-0.33c0.31-0.19,0.65-0.26,0.99-0.23c0.31,0.03,0.89,0.25,0.89,0.28
		c0,0.07-1.35,0.73-1.56,0.87c-0.09,0.06-0.2,0.16-0.18,0.27c0.02,0.08,0.15,0.1,0.25,0.06c0.53-0.19,0.72-0.18,1.15-0.36
		c0.58-0.25,0.75-0.55,0.85-0.58c0.04-0.01,0.09-0.01,0.14-0.05c0.17-0.16,0.31-0.57,0.32-0.71c-0.02-0.11-0.4-0.15-0.52-0.17
		c-0.38-0.09-0.75-0.29-1.14-0.32C28.83,53.88,28.26,54.16,27.95,54.8z M66.64,53.64c-0.16,0.24-0.35,0.59-0.54,0.88
		c-0.27-0.18-0.62-0.4-0.86-0.55c-0.13-0.08-0.18-0.07-0.26,0.05c-0.14,0.22-0.35,0.54-0.5,0.8c-0.05,0.1-0.04,0.18,0.1,0.26
		c0.26,0.15,0.66,0.38,0.9,0.51c0.08,0.04,0.14,0.02,0.2-0.06c0.13-0.18,0.28-0.45,0.49-0.79c0.36,0.21,0.65,0.4,0.94,0.54
		c0.08,0.04,0.12,0.03,0.18-0.04c0.14-0.18,0.39-0.58,0.5-0.78c0.07-0.14,0.05-0.19-0.07-0.27c-0.19-0.12-0.65-0.41-0.88-0.56
		C66.73,53.56,66.69,53.57,66.64,53.64z M44.59,54.13c-0.03,0.08-0.09,0.2-0.12,0.28c-0.04,0.14,0.03,0.24,0.11,0.13
		c0.09-0.13,0.19-0.25,0.32-0.33c0.31-0.19,0.65-0.26,0.99-0.23c0.31,0.03,0.89,0.25,0.89,0.28c0,0.07-1.35,0.73-1.56,0.87
		c-0.09,0.06-0.2,0.16-0.18,0.27c0.02,0.08,0.15,0.1,0.25,0.06c0.53-0.19,0.72-0.18,1.15-0.36c0.58-0.25,0.75-0.55,0.85-0.58
		c0.04-0.01,0.09-0.01,0.14-0.05c0.17-0.16,0.31-0.57,0.32-0.71c-0.02-0.11-0.4-0.15-0.52-0.17c-0.38-0.09-0.75-0.29-1.14-0.32
		C45.47,53.21,44.9,53.49,44.59,54.13z M52.6,52.48c-0.17,0.28-0.4,0.69-0.53,0.94c-0.05,0.1-0.05,0.17,0.06,0.24
		c0.22,0.12,0.61,0.33,0.89,0.48c0.11,0.06,0.18,0.05,0.24-0.03c0.15-0.25,0.38-0.64,0.52-0.88c0.05-0.09,0.07-0.16-0.02-0.21
		c-0.26-0.16-0.69-0.42-0.95-0.57C52.7,52.38,52.65,52.4,52.6,52.48z M38.99,50.61c0.1,0.12,0.26,0.37,0.29,0.8
		c0,0.12-0.02,0.3-0.03,0.31c-0.01,0.01-0.24-0.09-0.28-0.11c-0.08-0.04-0.31-0.13-0.71-0.28c-0.16-0.03,0-0.28,0-0.28
		c0.06-0.11,0.16-0.25,0.27-0.37l0.15-0.1C38.77,50.55,38.92,50.51,38.99,50.61z M38.9,49.86c-0.46,0.08-1,0.72-1.23,1.45
		c-0.1,0.33-0.03,0.52,0.14,0.63c0.26,0.16,0.64,0.29,1.09,0.41c-0.52,0.87-2.2,2-2.51,2.18c-0.36,0.21-0.3,0.44,0.15,0.24
		c1.69-0.76,2.52-1.57,2.9-2.29c0.12,0.02,0.22,0.06,0.34,0.09c0.2,0.05,0.16,0.08,0.26-0.24c0.05-0.15,0.09-0.26,0.1-0.33
		l-0.51-0.17l0.05-0.18c0.06-0.58-0.09-1.06-0.14-1.21C39.4,49.97,39.17,49.81,38.9,49.86z M65.68,48.92
		c0.11,0.12,0.26,0.37,0.29,0.8c0,0.13-0.02,0.3-0.03,0.31c-0.01,0.01-0.24-0.09-0.28-0.11c-0.08-0.04-0.31-0.13-0.71-0.28
		c-0.16-0.03,0-0.28,0-0.28c0.06-0.11,0.16-0.25,0.27-0.36l0.15-0.1C65.47,48.86,65.62,48.83,65.68,48.92z M65.59,48.17
		c-0.46,0.08-1,0.72-1.23,1.45c-0.1,0.33-0.04,0.52,0.14,0.63c0.26,0.16,0.64,0.29,1.09,0.41c-0.52,0.87-2.2,2-2.51,2.18
		c-0.36,0.21-0.3,0.44,0.15,0.24c1.69-0.76,2.52-1.57,2.9-2.29c0.12,0.02,0.22,0.06,0.34,0.09c0.2,0.06,0.16,0.08,0.26-0.24
		c0.05-0.15,0.09-0.26,0.1-0.33l-0.51-0.17l0.05-0.18c0.06-0.58-0.09-1.06-0.14-1.21C66.09,48.29,65.87,48.12,65.59,48.17z
		 M267.1,88.08c-0.62,0.12-1.15,0.2-1.78,0.29c0.65-0.57,0.81-0.85,1.21-1.34C266.81,87.43,266.92,87.6,267.1,88.08z M267.01,77.21
		c-0.19,0.35-0.3,0.53-0.56,1.05c-0.02,0.09,0.15,0.64,0.47,1.15c0.1,1.17,0.22,2.33,0.24,3.53c0,1.54-0.2,2.1-0.61,3.02
		c-0.84-1.23-1.54-2.25-2.61-3.43c-1.14-1.18-2.33-2.43-3.88-3.28c-0.16-0.11-0.27-0.04-0.25,0.09c0.14,0.95,0.32,2.21,0.86,2.48
		c0.29,0.15,1.17,0.39,1.51,0.44c0.03,0.01,0.07-0.07,0.12-0.2c0.87,0.84,1.4,1.32,2.06,2.07c0.68,0.77,1.18,1.42,1.9,2.41
		c-0.54,0.74-1.06,1.31-1.98,2.04l-0.59,0.13c-0.09,0.01-0.1,1.29,0.01,1.27c1.86-0.34,3.72-0.67,3.73-0.73
		c0.15-1.24,0.2-1.1-0.58-2.78c0.34-0.89,0.63-1.73,0.82-3.07c0.07-0.58,0.11-1.53-0.08-3.66c0.38-0.57,0.47-0.82,0.49-0.97
		c-0.05-0.28-0.58-0.26-0.85-1.55C267.16,77.06,267.05,77.14,267.01,77.21z M268.8,74.54c-0.93,0.39-4.1,1.56-4.92,1.91
		c-0.05,0.02-0.08,0.03-0.1,0.1c-0.03,0.1-0.13,0.42-0.18,0.59c-0.02,0.07,0.04,0.07,0.1,0.04c0.11-0.05,0.26-0.13,0.38-0.18
		c0.64-0.27,3.66-1.41,4.49-1.73c0.05-0.02,0.1-0.05,0.12-0.11c0.05-0.11,0.13-0.39,0.17-0.55C268.9,74.54,268.86,74.52,268.8,74.54
		z M258,91.48c-0.16,0.24-0.35,0.59-0.54,0.88c-0.27-0.18-0.62-0.39-0.86-0.55c-0.13-0.08-0.18-0.07-0.26,0.05
		c-0.14,0.21-0.35,0.54-0.5,0.8c-0.05,0.1-0.04,0.18,0.1,0.26c0.26,0.15,0.66,0.38,0.9,0.51c0.08,0.04,0.14,0.01,0.2-0.07
		c0.13-0.18,0.28-0.45,0.49-0.79c0.36,0.21,0.65,0.4,0.94,0.54c0.08,0.04,0.12,0.03,0.18-0.04c0.14-0.18,0.4-0.58,0.5-0.78
		c0.07-0.14,0.05-0.19-0.07-0.27c-0.19-0.12-0.65-0.41-0.88-0.56C258.09,91.39,258.05,91.4,258,91.48z M250.21,89.58
		c-0.93,0.39-3.52,1.42-4.34,1.77c-0.05,0.02-0.08,0.03-0.1,0.1c-0.03,0.1-0.13,0.42-0.18,0.59c-0.02,0.07,0.04,0.07,0.1,0.04
		c0.11-0.05,0.26-0.13,0.38-0.18c0.64-0.27,3.08-1.27,3.91-1.6c0.05-0.02,0.1-0.05,0.12-0.11c0.05-0.12,0.13-0.39,0.17-0.55
		C250.3,89.58,250.26,89.55,250.21,89.58z M238.88,89.11c-0.73,0.19-1.73-0.27-1.7-0.42c0.01-0.14,0.44-0.87,0.71-0.89
		C238.33,87.79,238.81,88.76,238.88,89.11z M248.17,87.82c-0.97-0.11-2.02-0.61-2.02-0.65c-0.03-0.05,0.5-0.69,0.8-0.81
		C247.7,86.14,248.03,87.32,248.17,87.82z M246.92,85.38c-0.42,0.4-0.7,0.91-1.02,1.41c-0.43,0.72-0.85,1.39-1.35,1.78
		c-0.48,0.33-1.58-0.35-2.26-0.69c-0.13-0.06-0.19-0.06-0.34,0.04c-0.74,0.56-1.32,0.8-2.42,1.05c-0.23-0.86-0.49-1.7-1.06-2.25
		c-0.33-0.33-0.68-0.21-0.86-0.01c-0.68,0.71-0.92,1.52-0.9,2.43c0.03,0.56,0.23,0.94,0.6,1.04c0.57,0.15,1.06,0.15,1.76,0.02
		c-0.54,1.09-1.34,2.11-2.21,2.6c-1.08,0.67-2.94,1-4.87,0.42c-0.2-0.04-0.31,0.25-0.11,0.35c1.71,0.63,4.28,1.03,5.62-0.01
		c0.96-0.8,1.66-1.9,2.16-3.52c0.52-0.17,1.24-0.34,2.12-0.96c0.22-0.15,0.3-0.13,0.51-0.05c0.28,0.1,0.95,0.5,1.27,0.68
		c0.35,0.17,0.7,0.11,0.99-0.19c0.4-0.41,0.64-0.75,1.01-1.41c0.7,0.82,1.94,0.89,2.9,0.99c0.05,0.01,0.3-0.82,0.29-0.89
		c0.03-0.69-0.25-1.82-0.57-2.55c-0.14-0.28-0.37-0.57-0.71-0.56C247.35,85.09,247.15,85.17,246.92,85.38z M233.18,84.63
		c-0.12,0.4-0.21,0.74-0.28,1.12c0.66,0.93,1.18,1.97,1.37,3.32c-0.68,1.33-2.37,1.98-3.78,1.99c-1.26,0.02-2.54-0.62-2.54-2.04
		c0-0.68,0.24-1.44,0.56-2.03c0.05-0.09,0.06-0.21,0.01-0.25c-0.06-0.04-0.16-0.01-0.24,0.1c-0.55,0.76-0.89,1.81-0.89,2.75
		c0.02,1.9,1.59,2.75,3.32,2.68c1.5-0.06,3-0.91,3.61-2.22c0.25-0.54,0.32-1.23,0.32-1.8c-0.01-1.32-0.45-2.6-1.3-3.68
		C233.26,84.5,233.2,84.54,233.18,84.63z M254.35,88.31c-0.65,0.07-1.62,0.03-1.67-0.2c0,0,0-0.87,0.55-0.94c0.01,0,0.03,0,0.04,0
		C253.73,87.14,254.19,88.02,254.35,88.31z M256.42,85.2c0.53,0.61,1.06,1.08,1.23,1.94c-0.04,0.1-1.19,0.87-2.63,1.08
		c-0.18-0.61-0.31-1.09-0.93-1.93c-0.36-0.46-0.65-0.48-0.87-0.38c-0.98,0.62-1.16,2.59-0.73,3.24c0.32,0.49,1.37,0.35,2.17,0.29
		c-0.59,1.11-1.3,2.24-2.73,2.94c-1.74,0.79-3.21,0.54-4.7,0.33c-0.25-0.04-0.4,0.18-0.05,0.31c1.43,0.38,3.12,0.9,4.73,0.46
		c1.74-0.57,2.78-2.25,3.25-4.1c0.82-0.22,1.73-0.44,2.57-1.23c0.08-0.22,1.18-2.04-1.09-4.28
		C256.54,83.83,256.37,85.14,256.42,85.2z M240.46,83.7c-0.17,0.28-0.4,0.69-0.53,0.94c-0.05,0.1-0.05,0.18,0.06,0.24
		c0.22,0.12,0.61,0.33,0.89,0.48c0.12,0.06,0.18,0.05,0.24-0.03c0.15-0.25,0.38-0.64,0.52-0.88c0.05-0.09,0.07-0.16-0.02-0.21
		c-0.26-0.16-0.69-0.42-0.95-0.57C240.56,83.6,240.51,83.62,240.46,83.7z M229.78,83.17c-0.17,0.28-0.4,0.69-0.53,0.94
		c-0.05,0.1-0.05,0.18,0.06,0.23c0.22,0.12,0.61,0.33,0.89,0.48c0.12,0.06,0.18,0.05,0.24-0.03c0.15-0.25,0.38-0.64,0.52-0.88
		c0.05-0.09,0.07-0.16-0.02-0.21c-0.26-0.16-0.69-0.42-0.95-0.57C229.87,83.07,229.83,83.09,229.78,83.17z M250.92,83.28
		c-0.09,0.19-0.05,0.39,0.13,0.53c0.14,0.1,0.41,0.28,0.67,0.41c-0.11,0.05-0.37,0.15-0.52,0.26c-0.04,0.12-0.09,0.31-0.11,0.44
		c-0.01,0.04,0.03,0.09,0.07,0.06c0.46-0.27,1.84-0.63,2.44-0.76c0.04-0.01,0.23-0.44,0.26-0.51c0.04-0.08,0-0.11-0.06-0.09
		c-0.34,0.09-0.67,0.15-1.09,0.14c-0.52-0.01-1.31-0.57-1.31-0.68c0.01-0.11,0.62-0.37,0.76-0.36c0.4,0.03,0.46,0.44,0.57,0.44
		c0.13,0,0.33-0.48,0.33-0.6c0-0.14-0.33-0.5-0.59-0.5C252.04,82.06,251.14,82.82,250.92,83.28z M232.58,79.31
		c-0.93,0.39-4.1,1.56-4.92,1.91c-0.05,0.02-0.08,0.03-0.1,0.1c-0.03,0.1-0.13,0.42-0.18,0.59c-0.02,0.07,0.04,0.07,0.1,0.04
		c0.11-0.05,0.26-0.13,0.38-0.18c0.64-0.27,3.66-1.4,4.49-1.73c0.05-0.02,0.1-0.05,0.12-0.11c0.05-0.12,0.13-0.39,0.17-0.55
		C232.67,79.31,232.63,79.29,232.58,79.31z M249.63,79.98c-0.04,0.08-0.09,0.2-0.12,0.28c-0.04,0.14,0.04,0.24,0.11,0.13
		c0.08-0.13,0.19-0.25,0.32-0.33c0.31-0.19,0.65-0.26,0.99-0.23c0.31,0.03,0.89,0.25,0.89,0.28c0,0.07-1.35,0.73-1.56,0.87
		c-0.09,0.06-0.21,0.16-0.18,0.27c0.02,0.08,0.15,0.1,0.25,0.06c0.53-0.19,0.72-0.18,1.15-0.36c0.58-0.25,0.75-0.55,0.85-0.58
		c0.04-0.01,0.09-0.01,0.14-0.05c0.17-0.16,0.31-0.57,0.32-0.71c-0.02-0.11-0.41-0.15-0.52-0.17c-0.38-0.09-0.75-0.29-1.14-0.32
		C250.51,79.06,249.94,79.33,249.63,79.98z M240.84,79.17c0.11,0.12,0.26,0.37,0.29,0.8c0,0.12-0.02,0.3-0.03,0.31
		c-0.01,0.01-0.24-0.09-0.28-0.11c-0.08-0.04-0.31-0.13-0.71-0.28c-0.16-0.03,0-0.28,0-0.28c0.06-0.11,0.16-0.25,0.27-0.37l0.15-0.1
		C240.63,79.11,240.78,79.07,240.84,79.17z M240.76,78.42c-0.46,0.08-1.01,0.72-1.23,1.45c-0.1,0.33-0.04,0.52,0.14,0.63
		c0.26,0.16,0.64,0.29,1.09,0.41c-0.52,0.87-2.2,2-2.51,2.18c-0.36,0.21-0.3,0.44,0.16,0.24c1.69-0.76,2.52-1.57,2.9-2.29
		c0.12,0.02,0.22,0.06,0.34,0.09c0.2,0.05,0.16,0.08,0.26-0.24c0.05-0.15,0.09-0.26,0.1-0.33l-0.51-0.17l0.05-0.18
		c0.06-0.58-0.09-1.06-0.14-1.21C241.26,78.53,241.03,78.37,240.76,78.42z M256.82,78.23c0.1,0.12,0.26,0.37,0.29,0.8
		c0,0.12-0.02,0.3-0.03,0.31c-0.01,0.01-0.24-0.09-0.28-0.11c-0.08-0.04-0.31-0.13-0.71-0.28c-0.16-0.03,0-0.28,0-0.28
		c0.06-0.11,0.16-0.25,0.27-0.37l0.15-0.1C256.61,78.17,256.76,78.14,256.82,78.23z M256.73,77.48c-0.46,0.08-1,0.72-1.23,1.45
		c-0.1,0.33-0.04,0.52,0.14,0.63c0.26,0.16,0.64,0.29,1.09,0.41c-0.52,0.87-2.2,2-2.51,2.18c-0.36,0.21-0.3,0.44,0.16,0.24
		c1.69-0.76,2.53-1.57,2.9-2.29c0.12,0.02,0.22,0.06,0.34,0.09c0.2,0.06,0.16,0.08,0.26-0.24c0.05-0.15,0.09-0.26,0.1-0.33
		l-0.51-0.17l0.05-0.18c0.06-0.58-0.09-1.06-0.14-1.21C257.24,77.6,257.01,77.43,256.73,77.48z"/>
</g>
</svg>
