<?xml version="1.0" encoding="iso-8859-1"?>
<!-- Generator: Adobe Illustrator 25.2.1, SVG Export Plug-In . SVG Version: 6.00 Build 0)  -->
<svg version="1.1" xmlns="http://www.w3.org/2000/svg" xmlns:xlink="http://www.w3.org/1999/xlink" x="0px" y="0px"
	 viewBox="0 0 293.23 484.99" enable-background="new 0 0 293.23 484.99" xml:space="preserve">
<g id="Ornaments">
</g>
<g id="Header__x26__Marks__x26__Page_No.">
</g>
<g id="Aya_No.">
</g>
<g id="Quran_Text">
	<path fill-rule="evenodd" clip-rule="evenodd" d="M58.58,329.18c-0.35,0.51-0.83,0.73-1.37,0.22c-0.19-0.18-0.18-0.24-0.1-0.44
		c0.18-0.36,0.43-0.52,0.6-0.53C57.95,328.42,58.37,328.88,58.58,329.18z M57.18,327.4c-0.33,0.36-0.61,1.16-0.63,1.91
		c-0.04,0.84,0.41,1.68,1.21,1.7c0.49,0.01,0.94-0.44,1.2-1.08c0.17,1.03-0.69,2.57-1.88,3.53c-1.41,1.07-2.75,1.2-4.73,1.12
		c-0.32-0.04-0.47,0.28-0.09,0.37c1.77,0.4,4.18,0.47,5.44-0.66c1.04-0.93,1.66-2.37,1.76-4c0.05-1.02-0.27-2.19-1.12-2.93
		C57.87,326.97,57.54,327,57.18,327.4z M60.08,321.99c-0.93,0.39-3.52,1.42-4.34,1.77c-0.05,0.02-0.08,0.03-0.1,0.1
		c-0.03,0.1-0.13,0.42-0.18,0.59c-0.02,0.07,0.04,0.07,0.1,0.04c0.11-0.05,0.26-0.13,0.38-0.18c0.64-0.27,3.08-1.27,3.91-1.6
		c0.05-0.02,0.1-0.05,0.12-0.11c0.05-0.12,0.13-0.39,0.17-0.55C60.17,321.99,60.13,321.96,60.08,321.99z M54.86,331.61
		c-0.94,0.35-1.99,0.7-2.82,1.02c-0.05,0.02-0.08,0.03-0.11,0.1c-0.04,0.09-0.15,0.41-0.2,0.58c-0.02,0.07,0.04,0.07,0.1,0.05
		c0.11-0.04,0.26-0.12,0.39-0.17c0.65-0.24,1.55-0.56,2.38-0.86c0.05-0.02,0.1-0.04,0.13-0.1c0.05-0.11,0.15-0.38,0.2-0.54
		C54.96,331.61,54.92,331.59,54.86,331.61z M51.76,329.88c-0.09,0.19-0.05,0.39,0.13,0.53c0.14,0.1,0.41,0.28,0.67,0.41
		c-0.11,0.05-0.37,0.15-0.52,0.26c-0.04,0.12-0.09,0.31-0.11,0.44c-0.01,0.04,0.03,0.09,0.07,0.06c0.46-0.27,1.84-0.62,2.44-0.76
		c0.04-0.01,0.23-0.44,0.26-0.51c0.04-0.08,0-0.11-0.06-0.09c-0.34,0.09-0.67,0.15-1.09,0.14c-0.52-0.01-1.31-0.57-1.31-0.68
		c0.01-0.11,0.62-0.37,0.76-0.36c0.4,0.04,0.46,0.44,0.56,0.44c0.13,0,0.33-0.48,0.33-0.6c0-0.14-0.33-0.5-0.59-0.5
		C52.88,328.66,51.98,329.41,51.76,329.88z M47.47,326.06c-0.04,0.24-0.12,0.97,0,0.98c0.08,0.01,0.42-0.15,0.73,0.01
		c0.71,0.36,1.42,1.65,1.69,2.7c-0.56,0.33-1.94,0.53-2.63,0.54c-0.21,0-0.61-0.04-0.72-0.23c-0.12-0.22-0.19-0.17-0.24,0.04
		c-0.06,0.27-0.11,0.62-0.12,0.85c-0.01,0.36,0.45,0.52,0.73,0.53c0.9,0.01,2.2-0.16,3-0.59c0.21-0.11,0.29-0.49,0.31-0.92
		c0.05-1.01-0.12-1.9-0.65-2.75c-0.46-0.75-1.1-1.42-1.75-1.44C47.65,325.78,47.51,325.86,47.47,326.06z M47.07,322.05
		c-0.17,0.28-0.4,0.69-0.53,0.94c-0.05,0.1-0.05,0.17,0.06,0.23c0.22,0.12,0.61,0.33,0.89,0.48c0.12,0.06,0.19,0.05,0.24-0.03
		c0.15-0.25,0.38-0.64,0.52-0.88c0.05-0.09,0.07-0.16-0.02-0.21c-0.26-0.16-0.69-0.42-0.95-0.57
		C47.17,321.95,47.12,321.97,47.07,322.05z M42.49,318.88c-0.04,0.01-0.08,0.07-0.1,0.16l-0.19,0.99c-0.06,0.28-0.04,0.32,0,0.55
		c0.11,0.66,0.27,1.31,0.39,1.95c0.32,1.55,0.85,4.26,1.13,5.69c0.2,1.07,0.34,2.16,0.38,3.12c0.01,0.18,0.11,0.17,0.16,0.03
		c0.17-0.53,0.24-1.09,0.24-1.68c0-0.58-0.19-1.75-0.38-2.68c-0.26-1.29-0.75-3.86-1-5.03c-0.21-0.99-0.41-1.99-0.53-2.95
		C42.58,318.9,42.54,318.87,42.49,318.88z M51.3,318.56c-0.05,0.31-0.1,0.61-0.15,0.92c-0.04,0.28-0.04,0.31,0.01,0.57
		c0.11,0.51,0.23,1.08,0.36,1.62c0.19,0.79,0.35,1.5,0.5,2.24c0.25,1.24,0.52,2.76,0.66,4.01c0.02,0.16,0.13,0.14,0.16,0
		c0.26-1.3,0.07-2.61-0.21-4.03c-0.14-0.72-0.33-1.49-0.48-2.15c-0.24-1.07-0.49-2.15-0.64-3.17c-0.02-0.14-0.08-0.2-0.12-0.19
		C51.36,318.38,51.32,318.46,51.3,318.56z M49.25,317.93c-0.93,0.39-3.52,1.42-4.34,1.77c-0.05,0.02-0.08,0.03-0.1,0.1
		c-0.03,0.1-0.13,0.42-0.18,0.59c-0.02,0.07,0.04,0.07,0.1,0.04c0.11-0.05,0.26-0.13,0.38-0.18c0.64-0.27,3.08-1.27,3.91-1.6
		c0.05-0.03,0.1-0.05,0.12-0.11c0.05-0.11,0.13-0.39,0.17-0.55C49.34,317.92,49.3,317.9,49.25,317.93z M35.36,323.07
		c-0.16,0.24-0.35,0.59-0.54,0.88c-0.27-0.18-0.62-0.39-0.86-0.55c-0.13-0.08-0.18-0.07-0.26,0.05c-0.14,0.21-0.35,0.54-0.5,0.8
		c-0.05,0.1-0.04,0.18,0.1,0.26c0.26,0.15,0.66,0.38,0.9,0.51c0.08,0.04,0.14,0.01,0.2-0.07c0.13-0.18,0.28-0.45,0.49-0.79
		c0.36,0.21,0.65,0.4,0.94,0.54c0.08,0.04,0.12,0.03,0.18-0.04c0.14-0.18,0.4-0.58,0.5-0.78c0.07-0.14,0.05-0.19-0.07-0.27
		c-0.19-0.12-0.65-0.41-0.88-0.56C35.45,322.98,35.41,322.99,35.36,323.07z M25.88,320.32l-0.19,0.99c-0.06,0.28-0.04,0.31,0,0.55
		c0.11,0.66,0.27,1.31,0.39,1.95c0.32,1.55,0.77,3.92,1.04,5.35c0.2,1.07,0.34,2.16,0.38,3.12c0.01,0.18,0.11,0.17,0.16,0.03
		c0.17-0.53,0.24-1.09,0.24-1.68c0-0.58-0.19-1.75-0.38-2.68c-0.26-1.29-0.67-3.53-0.91-4.7c-0.21-0.99-0.41-1.99-0.53-2.95
		c-0.01-0.11-0.06-0.15-0.1-0.13C25.93,320.18,25.89,320.24,25.88,320.32z M31.75,330.63c-0.58,0.22-1.63-0.05-1.49-0.43
		c0.18-0.49,0.38-0.69,0.58-0.7C31.15,329.5,31.47,329.97,31.75,330.63z M36.73,328.64c-0.24,0.36-1.06,0.86-1.22,0.95
		c-0.35-0.19-1.13-0.49-0.91-0.83c0.29-0.48,0.94-1.04,1.12-1.14C36.12,327.4,36.55,328.24,36.73,328.64z M38.25,319.39
		c-0.34,0.61-0.52,0.83-0.38,1.05c0.26,0.4,0.14,0.23,0.4,0.64c0.29,2.55,0.97,5.49,1.25,8.18c-0.16,1.25-1.83,1.12-2.99,0.67
		c0.38-0.32,0.65-0.79,0.71-1.23c0.06-0.49-0.08-1.32-0.44-1.94c-0.48-0.76-0.94-0.64-1.43-0.13c-0.8,0.76-1.12,1.59-1.22,2.22
		c-0.06,0.47-0.03,0.81,0.11,1.21c-0.37,0.33-1.81,0.5-1.81,0.5c-0.09-0.64-0.35-1.2-0.52-1.49c-0.71-1.32-1.26-0.9-1.56-0.48
		c-0.45,0.61-0.96,1.99-0.42,2.92c0.41,0.63,1.48,0.46,2.24,0.29c-0.78,1.59-2.39,4.28-7.22,3.19c-0.23-0.06-0.38,0.15-0.08,0.27
		c5.28,2.38,7.18-1.02,7.82-3.54c0.9-0.21,1.46-0.4,2.59-0.87c1.43,0.63,3.11,0.88,3.75,0.39c0.76-0.61,1.1-1.98,0.82-4.02
		c-0.19-1.25-0.52-3.34-1.01-5.9c0.77-0.85,0.52-0.51-0.13-1.86c-0.13-0.26-0.21-0.34-0.28-0.33
		C38.38,319.14,38.32,319.27,38.25,319.39z M33.71,318.49c0.1,0.12,0.26,0.37,0.28,0.8c0,0.12-0.02,0.3-0.03,0.31
		c-0.01,0.01-0.24-0.09-0.28-0.11c-0.08-0.04-0.31-0.13-0.71-0.28c-0.16-0.03,0-0.28,0-0.28c0.06-0.11,0.16-0.25,0.27-0.37l0.15-0.1
		C33.5,318.43,33.65,318.4,33.71,318.49z M33.62,317.74c-0.46,0.08-1,0.72-1.23,1.45c-0.1,0.33-0.04,0.52,0.14,0.63
		c0.26,0.16,0.64,0.29,1.09,0.41c-0.52,0.87-2.2,2-2.51,2.18c-0.36,0.21-0.3,0.44,0.15,0.24c1.69-0.76,2.52-1.57,2.9-2.29
		c0.12,0.02,0.22,0.06,0.34,0.09c0.2,0.05,0.16,0.08,0.26-0.24c0.05-0.15,0.09-0.26,0.1-0.33l-0.51-0.17l0.05-0.18
		c0.06-0.58-0.09-1.06-0.14-1.21C34.13,317.86,33.9,317.69,33.62,317.74z M26.45,317.95c-0.22,0.41-0.85,0.52-1.3,0.39
		c-0.27-0.08-0.36-0.32-0.24-0.56c0.25-0.5,0.52-0.68,0.77-0.68C26.1,317.1,26.45,317.61,26.45,317.95z M24.75,317.09
		c-0.7,1.62,0.14,2.21,0.82,2.19c1.09-0.03,1.48-1.1,1.2-2.18c-0.18-0.68-0.55-0.92-0.95-0.9C25.42,316.21,25,316.5,24.75,317.09z
		 M40.9,316c-0.93,0.39-3.52,1.42-4.34,1.77c-0.05,0.02-0.08,0.03-0.1,0.1c-0.03,0.1-0.13,0.42-0.18,0.59
		c-0.02,0.07,0.04,0.07,0.1,0.04c0.11-0.05,0.26-0.13,0.38-0.18c0.64-0.27,3.08-1.27,3.91-1.6c0.05-0.02,0.1-0.05,0.12-0.11
		c0.05-0.12,0.13-0.39,0.17-0.55C40.99,316,40.96,315.98,40.9,316z M262.4,360.54c-0.93,0.39-3.52,1.42-4.34,1.77
		c-0.05,0.02-0.08,0.03-0.1,0.1c-0.03,0.1-0.13,0.42-0.18,0.59c-0.02,0.07,0.04,0.07,0.1,0.04c0.11-0.04,0.26-0.13,0.38-0.18
		c0.64-0.27,3.08-1.27,3.91-1.6c0.05-0.02,0.1-0.05,0.12-0.11c0.05-0.11,0.13-0.39,0.17-0.55
		C262.49,360.54,262.46,360.52,262.4,360.54z M255.84,359.9c-0.16,0.24-0.35,0.59-0.54,0.88c-0.27-0.18-0.62-0.39-0.86-0.55
		c-0.13-0.08-0.18-0.08-0.26,0.05c-0.14,0.21-0.35,0.54-0.5,0.8c-0.05,0.1-0.04,0.18,0.1,0.26c0.26,0.15,0.66,0.38,0.91,0.51
		c0.08,0.04,0.14,0.01,0.2-0.07c0.13-0.18,0.28-0.45,0.49-0.79c0.36,0.21,0.65,0.4,0.94,0.54c0.08,0.04,0.12,0.03,0.18-0.04
		c0.14-0.18,0.39-0.58,0.5-0.78c0.07-0.14,0.05-0.19-0.07-0.27c-0.19-0.12-0.65-0.41-0.88-0.56
		C255.93,359.82,255.89,359.83,255.84,359.9z M255.3,353.85c0.35,0.38,0.51,0.79,0.67,1.28c-0.79,0.44-1.87,0.71-3.25,0.5
		c-0.21-0.49-0.73-1.74-0.85-1.03l-0.09,1.01c0.5,0.96,1.02,1.88,0.81,3.09c-0.31,0.98-3.25,2.34-5.03,1.52
		c-1.16-0.6-1.7-1.65-0.72-3.64c0.22-0.51-0.17-0.58-0.39-0.18c-0.12,0.19-0.29,0.6-0.4,0.88c-0.25,0.66-0.46,2.16-0.02,3.03
		c0.68,1.53,4.4,2.46,6.62-0.33c0.58-0.86,0.5-2.04,0.46-2.96c0.95,0,2.13-0.11,2.91-0.63c0,0,1.1-1.66-0.25-3.69
		C255.29,351.93,255.29,353.5,255.3,353.85z M248.67,352.38c-0.17,0.28-0.4,0.69-0.53,0.94c-0.05,0.1-0.05,0.17,0.06,0.24
		c0.22,0.12,0.61,0.33,0.89,0.48c0.12,0.06,0.18,0.05,0.24-0.03c0.15-0.25,0.38-0.63,0.52-0.88c0.05-0.09,0.07-0.16-0.02-0.21
		c-0.26-0.16-0.69-0.42-0.95-0.57C248.77,352.28,248.72,352.3,248.67,352.38z M259.19,349.31c-0.17,0.28-0.4,0.69-0.53,0.94
		c-0.05,0.1-0.05,0.17,0.06,0.24c0.22,0.12,0.61,0.33,0.89,0.48c0.12,0.06,0.18,0.05,0.24-0.03c0.15-0.25,0.38-0.64,0.52-0.88
		c0.05-0.09,0.07-0.16-0.02-0.21c-0.26-0.16-0.69-0.42-0.95-0.57C259.29,349.21,259.24,349.23,259.19,349.31z M251.39,348.14
		c-0.93,0.39-4.68,1.66-5.5,2.01c-0.05,0.02-0.08,0.03-0.1,0.1c-0.03,0.1-0.13,0.42-0.18,0.59c-0.02,0.07,0.04,0.07,0.1,0.04
		c0.11-0.05,0.26-0.13,0.38-0.18c0.64-0.27,4.25-1.51,5.07-1.84c0.05-0.02,0.1-0.05,0.12-0.11c0.05-0.12,0.13-0.39,0.17-0.55
		C251.48,348.14,251.45,348.12,251.39,348.14z M266.45,347.8l-0.16,1.01c-0.04,0.29-0.03,0.32,0.01,0.56
		c0.12,0.67,0.27,1.33,0.4,1.98c0.3,1.46,0.6,2.86,0.86,4.21c0.21,1.08,0.35,2.19,0.42,3.17c0.01,0.19,0.11,0.17,0.15,0.03
		c0.15-0.55,0.2-1.12,0.18-1.72c-0.01-0.59-0.21-1.78-0.4-2.72c-0.22-1.18-0.5-2.47-0.72-3.54c-0.21-1.01-0.42-2.02-0.55-2.99
		c-0.02-0.11-0.06-0.15-0.1-0.14C266.5,347.65,266.47,347.71,266.45,347.8z M262,347.72c-0.17,0.26,0.15,0.54,0.52,1.1
		c0.46,3.29,1.08,5.81,1.67,8.79c-0.15,0.51-1.1,0.83-1.87-0.16c-0.83-1.2-1.33-3.13-1.8-4.78c-0.12-0.44-0.37,0.17-0.3,1l0.68,2.37
		c-0.67,0.85-2.62,1.5-3.66,0.95c-0.44-0.32-0.34,0.77-0.28,1.11c0.13,0.5,3.59,0.59,4.14-1.46c0.46,0.99,0.48,1.62,1.2,2.17
		c1.05,0.78,1.9,0.77,2.22-0.89c0.18-1.39-0.22-3.09-0.88-6.41c0,0-0.36-2.03-0.5-2.73c0.8-1.06,0.08-0.8-0.47-2.03
		C262.52,346.36,262.24,347.35,262,347.72z M268.42,345.12c0.08,0.08,0.17,0.19,0.16,0.3c-0.13,0.29-0.95,0.57-1.26,0.66
		c-0.06,0.01-0.38,0.08-0.35-0.01c0.19-0.3,0.37-0.62,0.64-0.87C267.86,344.98,268.14,344.88,268.42,345.12z M267.63,344.59
		c-0.36,0.37-0.85,1.05-1.06,1.49c-0.16-0.01-0.46-0.17-0.6-0.24c-0.19-0.09-0.32,0.1-0.41,0.25c-0.19,0.29-0.33,0.58-0.44,0.9
		l-0.11,0.31c0,0.14,0.06,0.17,0.16,0.07c0.22-0.22,0.39-0.82,0.53-0.74c0.75,0.43,1.71,0.28,2.43-0.22
		c0.56-0.4,0.99-1.01,0.83-1.69c-0.06-0.24-0.33-0.47-0.59-0.49C268.08,344.21,267.84,344.38,267.63,344.59z M263.75,343.76
		l-0.23,0.43c-0.03,0.05-0.05,0.08-0.03,0.13c0.07,0.17,0.12,0.37,0.12,0.48c-0.27,0.26-0.56,0.3-0.77,0.13
		c-0.14-0.11-0.19-0.32-0.17-0.59c0.01-0.2,0.03-0.27-0.14-0.13c-0.23,0.18-0.17,0.17-0.18,0.27c-0.08,0.64-0.36,0.94-0.85,0.97
		c-0.31,0.02-0.54-0.2-0.32-0.82c0.05-0.13-0.05-0.27-0.18,0c-0.47,0.93-0.18,1.45,0.29,1.52c0.39,0.06,0.85-0.16,1.09-0.75
		c0.18,0.3,0.55,0.38,0.88,0.3c0.42-0.11,0.51-0.3,0.63-0.65c0.12-0.33,0.12-0.77-0.04-1.29
		C263.81,343.67,263.77,343.71,263.75,343.76z M264.23,340.76c-0.93,0.39-4.1,1.56-4.92,1.91c-0.05,0.02-0.08,0.03-0.1,0.1
		c-0.03,0.1-0.13,0.42-0.18,0.59c-0.02,0.07,0.04,0.07,0.1,0.04c0.11-0.05,0.26-0.13,0.38-0.18c0.64-0.27,3.66-1.41,4.49-1.73
		c0.05-0.02,0.1-0.05,0.12-0.11c0.05-0.12,0.13-0.39,0.17-0.55C264.33,340.75,264.29,340.73,264.23,340.76z M238.69,356.63
		c-0.14,0.26-0.09,0.64,0.16,0.81c0.21,0.15,0.56,0.3,0.95,0.5c-0.17,0.08-0.63,0.4-0.79,0.57c-0.07,0.18-0.15,0.49-0.19,0.67
		c-0.02,0.06,0.04,0.14,0.11,0.08c0.41-0.3,1.03-0.69,1.69-0.99c0.61-0.28,1.08-0.46,1.54-0.53c0.07-0.02,0.38-0.7,0.43-0.8
		c0.06-0.13,0-0.16-0.09-0.14c-0.52,0.15-0.92,0.28-1.56,0.28c-0.79,0-1.46-0.54-1.46-0.78c0-0.18,0.53-0.59,0.74-0.57
		c0.61,0.04,0.65,0.57,0.81,0.56c0.2-0.01,0.53-0.74,0.53-0.93c0.01-0.21-0.45-0.67-0.85-0.65
		C240.05,354.72,239.06,355.91,238.69,356.63z M222.18,356.5c0.34,0.29,0.7,0.82,0.71,1.14c-0.58,0.09-1.25-0.02-1.67-0.37
		c-0.08-0.07-0.04-0.16,0.01-0.26c0.16-0.33,0.44-0.63,0.7-0.63C222.01,356.38,222.11,356.44,222.18,356.5z M232.22,354.93
		c0.35,0.36,0.6,0.86,0.65,1.3c-0.64-0.03-1.27-0.22-1.88-0.56c-0.04-0.02-0.1-0.04-0.05-0.12c0.17-0.28,0.38-0.53,0.66-0.69
		c0.08-0.05,0.17-0.1,0.27-0.1C231.98,354.75,232.09,354.8,232.22,354.93z M231.61,353.79c-0.61,0.6-1.01,1.69-1.68,2.58
		c-0.66,0.87-1.54,1.13-2.98-0.08c-0.35-0.29-0.59-0.06-0.79,0.12c-0.62,0.57-1.41,0.82-2.19,1.04c-0.3,0.09-0.43-0.04-0.47-0.24
		c-0.16-0.81-0.41-1.44-0.83-1.88c-0.37-0.39-0.7-0.34-1-0.09c-0.65,0.55-1.17,1.5-1.02,2.58c0.2,1.4,1.91,1.06,2.73,1
		c-1.41,3.22-5.11,4.14-7.44,3.13c-0.58-0.25-0.68,0.29-0.21,0.43c1.2,0.34,2.38,0.8,3.71,0.69c2.66-0.23,3.8-1.99,4.44-4.19
		c0.04-0.13,0.13-0.25,0.3-0.31c0.74-0.26,1.47-0.56,2.16-1.2c0.16-0.15,0.29-0.07,0.41,0l1.23,0.86c0.3,0.21,0.89,0.32,1.49-0.35
		c0.37-0.4,0.63-0.91,0.86-1.19c0.01-0.01,0.02-0.04,0.05-0.02c0.51,0.46,1.09,0.89,2.61,0.84c0.15,0,0.29,0.02,0.39-0.26
		c0.17-0.49,0.31-0.95,0.22-1.37c-0.18-0.81-0.41-1.56-0.79-2.11c-0.18-0.25-0.37-0.37-0.57-0.35
		C232.05,353.43,231.84,353.57,231.61,353.79z M224.65,351.67c-0.17,0.28-0.4,0.69-0.53,0.94c-0.05,0.1-0.05,0.17,0.06,0.24
		c0.22,0.12,0.61,0.33,0.89,0.48c0.12,0.06,0.18,0.05,0.24-0.03c0.15-0.25,0.38-0.63,0.52-0.88c0.05-0.09,0.07-0.16-0.02-0.21
		c-0.26-0.16-0.69-0.42-0.95-0.57C224.74,351.57,224.7,351.59,224.65,351.67z M242.11,348.72c-0.93,0.39-3.52,1.42-4.34,1.77
		c-0.05,0.02-0.08,0.03-0.1,0.1c-0.03,0.1-0.13,0.42-0.18,0.59c-0.02,0.07,0.04,0.07,0.1,0.04c0.11-0.05,0.26-0.13,0.38-0.18
		c0.64-0.27,3.08-1.27,3.91-1.6c0.05-0.02,0.1-0.05,0.12-0.11c0.05-0.12,0.13-0.39,0.17-0.55
		C242.21,348.72,242.17,348.7,242.11,348.72z M233.08,348.09c-0.93,0.39-3.52,1.42-4.34,1.77c-0.05,0.02-0.08,0.03-0.1,0.1
		c-0.03,0.1-0.13,0.42-0.18,0.59c-0.02,0.07,0.04,0.07,0.1,0.04c0.11-0.05,0.26-0.13,0.38-0.18c0.64-0.27,3.08-1.27,3.91-1.6
		c0.05-0.02,0.1-0.05,0.12-0.11c0.05-0.11,0.13-0.39,0.17-0.55C233.18,348.09,233.14,348.07,233.08,348.09z M216.38,347.64
		l-0.2,0.99c-0.06,0.28-0.04,0.31,0,0.55c0.11,0.66,0.27,1.31,0.39,1.95c0.32,1.55,0.71,3.5,0.99,4.93c0.2,1.07,0.34,2.16,0.38,3.12
		c0.01,0.18,0.11,0.17,0.16,0.03c0.17-0.53,0.24-1.09,0.24-1.68c0-0.58-0.19-1.75-0.38-2.68c-0.26-1.29-0.61-3.1-0.85-4.27
		c-0.21-0.99-0.41-1.99-0.53-2.95c-0.01-0.11-0.06-0.15-0.1-0.14C216.44,347.49,216.4,347.55,216.38,347.64z M234.67,346.94
		l-0.2,0.99c-0.06,0.28-0.04,0.31,0,0.55c0.11,0.66,0.26,1.31,0.39,1.95c0.32,1.55,0.77,3.92,1.04,5.35
		c0.2,1.07,0.34,2.16,0.38,3.12c0.01,0.18,0.11,0.17,0.16,0.03c0.17-0.53,0.24-1.09,0.24-1.68c0-0.58-0.19-1.75-0.38-2.68
		c-0.26-1.29-0.67-3.53-0.91-4.7c-0.21-0.99-0.41-1.99-0.53-2.95c-0.01-0.11-0.06-0.15-0.1-0.13
		C234.72,346.8,234.69,346.86,234.67,346.94z M224.55,346.97c0.11,0.12,0.26,0.37,0.29,0.8c0,0.12-0.02,0.3-0.03,0.31
		c-0.01,0.01-0.24-0.09-0.28-0.11c-0.08-0.04-0.31-0.13-0.71-0.28c-0.16-0.03,0-0.28,0-0.28c0.06-0.11,0.16-0.25,0.27-0.37l0.15-0.1
		C224.33,346.9,224.48,346.87,224.55,346.97z M224.46,346.21c-0.46,0.08-1,0.72-1.22,1.45c-0.1,0.33-0.04,0.52,0.14,0.63
		c0.26,0.16,0.64,0.29,1.09,0.41c-0.52,0.87-2.2,2-2.51,2.18c-0.37,0.21-0.3,0.44,0.15,0.24c1.69-0.76,2.53-1.57,2.9-2.29
		c0.12,0.02,0.22,0.06,0.34,0.09c0.2,0.05,0.16,0.08,0.26-0.24c0.05-0.15,0.09-0.26,0.1-0.33l-0.51-0.17l0.05-0.18
		c0.06-0.58-0.09-1.06-0.14-1.21C224.96,346.33,224.74,346.17,224.46,346.21z M217.15,345.59c-0.22,0.41-0.85,0.52-1.3,0.38
		c-0.27-0.08-0.36-0.32-0.24-0.56c0.25-0.5,0.52-0.68,0.77-0.68C216.8,344.74,217.14,345.25,217.15,345.59z M215.44,344.73
		c-0.71,1.62,0.14,2.21,0.82,2.19c1.09-0.03,1.48-1.1,1.2-2.18c-0.18-0.68-0.55-0.92-0.95-0.9
		C216.11,343.85,215.7,344.14,215.44,344.73z M210.35,348.91c-0.16,0.24-0.35,0.59-0.54,0.88c-0.27-0.18-0.62-0.39-0.86-0.55
		c-0.13-0.08-0.18-0.08-0.26,0.05c-0.14,0.21-0.35,0.54-0.5,0.8c-0.05,0.09-0.04,0.18,0.1,0.26c0.26,0.15,0.66,0.38,0.9,0.51
		c0.08,0.04,0.14,0.01,0.2-0.07c0.13-0.18,0.28-0.45,0.49-0.79c0.36,0.21,0.65,0.4,0.94,0.54c0.08,0.04,0.12,0.03,0.18-0.04
		c0.14-0.18,0.39-0.58,0.5-0.78c0.07-0.14,0.05-0.19-0.07-0.27c-0.19-0.12-0.65-0.41-0.88-0.56
		C210.45,348.82,210.4,348.83,210.35,348.91z M199.42,348.49c-0.64,0.65-1.83,1.13-2.76,1.11c-0.64-0.02-0.99-0.17-1.31-0.4
		c-0.08-0.06-0.16-0.05-0.22,0.03c-0.22,0.28-0.51,0.92-0.59,1.37c-0.02,0.09-0.03,0.19,0.01,0.21c0.04,0.01,0.1-0.01,0.13-0.07
		c0.08-0.22,0.19-0.6,0.38-0.81c0.03-0.03,0.08-0.01,0.11,0.01c0.4,0.27,1.01,0.42,1.63,0.39c0.87-0.04,2.44-0.57,2.69-1.75
		c0.01-0.06,0.02-0.11,0-0.12C199.48,348.43,199.46,348.45,199.42,348.49z M211.26,354.1c-0.22,0.56-1.1,0.6-1.62,0.05
		c-0.04-0.04-0.06-0.09-0.03-0.18c0.16-0.5,0.41-0.7,0.68-0.71C210.69,353.25,211.11,353.64,211.26,354.1z M204.41,346.4
		c-0.09,0.16-0.15,0.42-0.2,0.7c-0.03,0.21-0.01,0.36,0.02,0.51c0.55,2.86,0.79,5.92,1.24,8.88c0.19,1.26,0.8,2.11,2.14,2.29
		c1,0.13,4.03-0.41,4.44-1.2c1.45-2.77-0.32-4.95-0.95-5.46c-0.42-0.35-0.83-0.42-1.22,0.05c-0.36,0.44-0.7,1.05-0.81,2.04
		c-0.08,0.73,0.09,1.37,0.92,1.65c0.86,0.28,1.36-0.23,1.68-1.07c0.19,0.15,0.36,0.7,0.45,1.21c0.05,0.26-0.11,0.42-0.27,0.54
		c-1.1,0.77-1.94,0.8-2.84,0.92c-1.97,0.28-2.82-0.62-3.1-2.19c-0.55-3.01-0.52-6.74-1.32-8.88c-0.02-0.06-0.05-0.08-0.08-0.08
		C204.47,346.32,204.43,346.34,204.41,346.4z M191.98,345.72c-0.04,0.01-0.08,0.07-0.1,0.16l-0.2,0.99c-0.06,0.28-0.04,0.31,0,0.55
		c0.11,0.66,0.27,1.31,0.39,1.95c0.32,1.55,0.85,4.26,1.13,5.69c0.2,1.07,0.34,2.16,0.38,3.12c0.01,0.18,0.11,0.17,0.16,0.03
		c0.17-0.53,0.24-1.09,0.24-1.68c0-0.58-0.19-1.75-0.38-2.68c-0.26-1.29-0.75-3.86-1-5.03c-0.21-0.99-0.41-1.99-0.53-2.95
		C192.07,345.75,192.02,345.71,191.98,345.72z M198.19,355.91c0.08,0.01,0.16,0.05,0.27,0.12c0.17,0.13,0.44,0.26,0.83,1.06
		c-0.53,0.06-1.25,0.03-1.63-0.32c-0.19-0.16-0.08-0.31-0.02-0.43c0.14-0.22,0.29-0.42,0.5-0.43c0.01,0,0.01,0,0.02,0
		C198.17,355.91,198.18,355.91,198.19,355.91z M200.49,345.17c-0.01,0-0.01,0-0.02,0.01c-0.01,0.01-0.02,0.01-0.03,0.03
		c-0.34,0.68-0.38,0.8-0.4,0.9c-0.05,0.16,0.01,0.37,0.17,0.6c0.05,0.06,0.08,0.19,0.1,0.3c0.54,2.91,1.39,5.89,1.91,8.84
		c-0.49,0.7-1.45,1-2.05,1.11c-0.29-0.86-0.71-1.71-1.11-2.1c-0.21-0.21-0.42-0.32-0.62-0.32c-0.07,0-0.13,0.01-0.2,0.03
		c-0.64,0.18-1.52,1.6-1.36,2.81c0.25,1.23,1.61,1.16,2.84,0.95c-1.06,2.57-3.45,3.83-7.54,3.39c-0.44-0.05-0.72,0.15-0.09,0.37
		c1.08,0.32,2.13,0.57,3.19,0.55c2.22-0.12,4.35-0.95,5.09-4.49c1.27-0.23,2.35-1.17,2.33-2.02c-0.06-3.06-1.05-6-1.63-8.7
		l0.38-0.76c0.03-0.07,0.05-0.13-0.03-0.23c-0.31-0.35-0.61-0.73-0.84-1.19c-0.03-0.05-0.05-0.07-0.08-0.07c0,0-0.01,0-0.01,0
		C200.5,345.17,200.49,345.17,200.49,345.17z M211.44,345.15c-0.93,0.39-3.52,1.42-4.34,1.77c-0.05,0.02-0.08,0.03-0.1,0.1
		c-0.03,0.1-0.13,0.42-0.18,0.59c-0.02,0.07,0.04,0.07,0.1,0.05c0.11-0.05,0.26-0.13,0.38-0.18c0.64-0.27,3.08-1.27,3.91-1.6
		c0.05-0.02,0.1-0.05,0.12-0.11c0.05-0.12,0.13-0.39,0.17-0.55C211.53,345.15,211.5,345.13,211.44,345.15z M192.52,343.67
		c-0.22,0.41-0.85,0.52-1.3,0.38c-0.27-0.08-0.36-0.32-0.24-0.56c0.25-0.5,0.52-0.67,0.77-0.67
		C192.17,342.82,192.51,343.33,192.52,343.67z M190.81,342.8c-0.7,1.62,0.14,2.21,0.82,2.19c1.09-0.03,1.48-1.1,1.2-2.18
		c-0.18-0.67-0.55-0.92-0.95-0.9C191.49,341.93,191.07,342.22,190.81,342.8z M200.64,341.31c0.1,0.12,0.26,0.37,0.29,0.8
		c0,0.12-0.02,0.3-0.03,0.31c-0.01,0.01-0.24-0.09-0.28-0.11c-0.08-0.04-0.31-0.13-0.71-0.28c-0.16-0.03,0-0.28,0-0.28
		c0.06-0.11,0.16-0.25,0.27-0.37l0.15-0.1C200.43,341.25,200.58,341.22,200.64,341.31z M200.55,340.56c-0.46,0.08-1,0.72-1.23,1.45
		c-0.1,0.33-0.03,0.52,0.14,0.63c0.26,0.16,0.64,0.29,1.09,0.41c-0.52,0.87-2.2,2-2.51,2.18c-0.37,0.21-0.3,0.44,0.15,0.24
		c1.69-0.76,2.53-1.57,2.9-2.29c0.12,0.02,0.22,0.06,0.34,0.09c0.2,0.06,0.16,0.08,0.26-0.24c0.05-0.15,0.09-0.26,0.1-0.33
		l-0.51-0.17l0.05-0.18c0.06-0.58-0.09-1.06-0.14-1.21C201.05,340.68,200.83,340.51,200.55,340.56z M185.47,356.35
		c-0.14,0.26-0.09,0.64,0.16,0.81c0.21,0.15,0.56,0.3,0.95,0.5c-0.17,0.08-0.63,0.4-0.79,0.57c-0.07,0.18-0.15,0.49-0.19,0.67
		c-0.02,0.07,0.04,0.14,0.11,0.08c0.41-0.3,1.03-0.69,1.69-1c0.61-0.28,1.08-0.46,1.54-0.53c0.07-0.02,0.38-0.7,0.43-0.8
		c0.06-0.13,0-0.16-0.09-0.14c-0.52,0.15-0.92,0.28-1.56,0.28c-0.79,0-1.46-0.54-1.46-0.78c0-0.18,0.53-0.59,0.74-0.58
		c0.61,0.04,0.65,0.57,0.81,0.56c0.2-0.01,0.53-0.74,0.53-0.93c0.01-0.21-0.45-0.66-0.85-0.65
		C186.84,354.44,185.84,355.64,185.47,356.35z M171.66,351.84c-0.17,0.28-0.4,0.69-0.53,0.95c-0.05,0.1-0.05,0.17,0.06,0.23
		c0.22,0.12,0.61,0.33,0.89,0.48c0.11,0.06,0.18,0.05,0.24-0.03c0.15-0.25,0.38-0.64,0.52-0.88c0.05-0.09,0.07-0.16-0.02-0.21
		c-0.26-0.16-0.69-0.42-0.95-0.57C171.76,351.74,171.71,351.76,171.66,351.84z M188.65,350.15c-0.93,0.39-3.52,1.42-4.34,1.77
		c-0.05,0.02-0.08,0.03-0.1,0.1c-0.03,0.1-0.13,0.42-0.18,0.59c-0.02,0.07,0.04,0.07,0.1,0.04c0.11-0.05,0.26-0.13,0.38-0.18
		c0.64-0.27,3.08-1.27,3.91-1.6c0.05-0.02,0.1-0.05,0.12-0.11c0.05-0.12,0.13-0.39,0.17-0.55
		C188.75,350.15,188.71,350.13,188.65,350.15z M180.03,348.37c-0.93,0.39-3.03,1.23-3.85,1.58c-0.05,0.02-0.08,0.03-0.1,0.1
		c-0.03,0.1-0.13,0.42-0.18,0.59c-0.02,0.07,0.04,0.07,0.1,0.04c0.11-0.04,0.26-0.13,0.38-0.18c0.64-0.27,2.6-1.07,3.42-1.4
		c0.05-0.03,0.1-0.05,0.12-0.11c0.05-0.12,0.13-0.39,0.17-0.55C180.12,348.37,180.08,348.35,180.03,348.37z M172.72,348.23
		l-0.23,0.43c-0.03,0.05-0.05,0.08-0.03,0.13c0.07,0.17,0.12,0.37,0.12,0.48c-0.27,0.26-0.56,0.3-0.77,0.13
		c-0.14-0.11-0.19-0.32-0.17-0.6c0.01-0.2,0.03-0.27-0.14-0.13c-0.23,0.18-0.17,0.17-0.18,0.27c-0.08,0.64-0.36,0.93-0.85,0.97
		c-0.31,0.02-0.54-0.2-0.32-0.82c0.05-0.13-0.05-0.27-0.18,0c-0.47,0.93-0.18,1.45,0.29,1.52c0.39,0.06,0.85-0.16,1.09-0.75
		c0.18,0.3,0.55,0.39,0.88,0.3c0.42-0.11,0.51-0.3,0.63-0.65c0.12-0.33,0.12-0.77-0.04-1.29
		C172.79,348.14,172.74,348.18,172.72,348.23z M179.82,356.02c-0.81-0.04-1.55-0.23-2.21-0.64c-0.05-0.03-0.02-0.09,0.03-0.16
		c0.37-0.52,0.72-0.81,1.04-0.8C179.1,354.44,179.48,354.93,179.82,356.02z M163.09,346.81l-0.15,0.57c-0.07,0.25-0.06,0.53,0,0.84
		c0.43,2.27,0.76,4.58,0.87,6.97c0.09,2.08,0.81,3.83,3.86,3.92c3.56,0.11,4.92-0.7,5.89-1.56c0.55,0.33,1.11,0.64,1.73,0.84
		c0.29,0.09,0.56,0.2,0.87-0.08c0.49-0.46,0.75-1.01,1.01-1.57c0.05-0.1,0.14-0.31,0.2-0.22c0.47,0.67,1.55,0.69,2.54,0.79
		c0.15,0.01,0.31,0.04,0.38-0.12c0.27-0.6,0.48-1.53-0.35-3.17c-0.57-1.12-1.21-1.18-1.87-0.32c-0.46,0.6-0.82,1.29-1.22,2.65
		c-0.27,0.94-1.14,1.28-2.61,0.62c-0.08-0.04-0.22-0.04-0.12-0.27c0.12-0.28,0.35-0.52,0.31-0.88c-0.07-0.65-0.28-0.29-0.35-0.12
		c-0.68,1.37-2.9,2.3-5.7,2.21c-1.75-0.06-3.79-0.03-4.03-3.37c-0.3-2.59-0.33-5.34-0.96-7.73c-0.03-0.1-0.1-0.22-0.18-0.2
		C163.17,346.62,163.13,346.67,163.09,346.81z M181.61,346.38l-0.2,0.99c-0.06,0.28-0.04,0.31,0,0.55c0.11,0.66,0.26,1.31,0.39,1.95
		c0.32,1.55,0.85,4.26,1.13,5.69c0.2,1.07,0.34,2.16,0.38,3.12c0.01,0.18,0.11,0.17,0.16,0.03c0.17-0.53,0.24-1.09,0.24-1.68
		c0-0.58-0.19-1.75-0.38-2.68c-0.26-1.29-0.75-3.86-1-5.03c-0.21-0.99-0.41-1.99-0.53-2.95c-0.01-0.11-0.06-0.15-0.1-0.13
		C181.67,346.23,181.63,346.29,181.61,346.38z M173.65,345.26c-0.93,0.39-5.12,1.74-5.93,2.09c-0.05,0.02-0.08,0.03-0.1,0.1
		c-0.03,0.1-0.18,0.48-0.22,0.65c-0.02,0.07,0.04,0.07,0.1,0.04c0.11-0.05,0.3-0.15,0.43-0.2c0.68-0.24,4.63-1.57,5.46-1.9
		c0.05-0.02,0.1-0.05,0.12-0.11c0.05-0.11,0.17-0.45,0.22-0.61C173.74,345.26,173.7,345.23,173.65,345.26z M160.24,356.87
		c-0.35,0.51-0.83,0.73-1.37,0.22c-0.18-0.18-0.18-0.24-0.1-0.44c0.18-0.36,0.43-0.52,0.6-0.53
		C159.62,356.1,160.04,356.57,160.24,356.87z M158.84,355.09c-0.33,0.36-0.61,1.16-0.63,1.91c-0.04,0.84,0.41,1.68,1.21,1.7
		c0.49,0.01,0.94-0.44,1.2-1.08c0.17,1.03-0.69,2.57-1.88,3.53c-1.41,1.07-2.75,1.2-4.73,1.11c-0.32-0.04-0.47,0.28-0.09,0.37
		c1.77,0.41,4.18,0.47,5.44-0.66c1.04-0.93,1.66-2.37,1.76-4c0.05-1.02-0.27-2.19-1.12-2.93
		C159.54,354.65,159.2,354.69,158.84,355.09z M160.71,348.35c-0.93,0.39-3.52,1.42-4.34,1.77c-0.05,0.02-0.08,0.03-0.1,0.1
		c-0.03,0.1-0.13,0.42-0.18,0.59c-0.02,0.07,0.04,0.07,0.1,0.04c0.11-0.04,0.26-0.13,0.38-0.18c0.64-0.27,3.09-1.27,3.91-1.6
		c0.05-0.02,0.1-0.05,0.12-0.11c0.05-0.11,0.13-0.39,0.17-0.55C160.81,348.35,160.77,348.33,160.71,348.35z M156.68,359.2
		c-0.94,0.35-1.99,0.7-2.82,1.02c-0.05,0.02-0.08,0.03-0.11,0.1c-0.04,0.09-0.15,0.41-0.2,0.58c-0.02,0.07,0.04,0.07,0.1,0.05
		c0.11-0.04,0.26-0.12,0.39-0.17c0.65-0.24,1.55-0.56,2.38-0.86c0.05-0.02,0.1-0.04,0.13-0.1c0.05-0.11,0.15-0.38,0.2-0.54
		C156.78,359.2,156.74,359.17,156.68,359.2z M153.35,357.44c-0.09,0.19-0.05,0.39,0.13,0.53c0.14,0.1,0.41,0.28,0.67,0.41
		c-0.11,0.05-0.37,0.15-0.52,0.26c-0.04,0.12-0.09,0.31-0.11,0.44c-0.01,0.04,0.03,0.09,0.07,0.06c0.46-0.27,1.84-0.62,2.44-0.76
		c0.04-0.01,0.23-0.44,0.26-0.51c0.04-0.08,0-0.11-0.06-0.09c-0.34,0.09-0.67,0.15-1.09,0.14c-0.52-0.01-1.31-0.57-1.31-0.68
		c0.01-0.11,0.62-0.37,0.76-0.36c0.4,0.03,0.46,0.44,0.56,0.44c0.13,0,0.33-0.48,0.33-0.6c0-0.14-0.33-0.5-0.59-0.5
		C154.47,356.22,153.58,356.98,153.35,357.44z M149.04,353.52c-0.04,0.24-0.12,0.97,0,0.98c0.08,0.01,0.42-0.15,0.73,0.01
		c0.71,0.36,1.42,1.65,1.69,2.7c-0.56,0.33-1.94,0.53-2.63,0.54c-0.21,0-0.61-0.04-0.72-0.23c-0.12-0.21-0.19-0.17-0.24,0.04
		c-0.06,0.27-0.11,0.62-0.12,0.85c-0.01,0.36,0.45,0.52,0.73,0.53c0.9,0.01,2.2-0.16,3.01-0.59c0.2-0.11,0.29-0.49,0.31-0.92
		c0.05-1.01-0.12-1.9-0.65-2.75c-0.46-0.75-1.1-1.42-1.75-1.44C149.22,353.24,149.08,353.32,149.04,353.52z M148.74,349.57
		c-0.17,0.28-0.4,0.69-0.53,0.94c-0.05,0.1-0.05,0.18,0.06,0.24c0.22,0.12,0.61,0.33,0.89,0.48c0.11,0.06,0.18,0.05,0.24-0.03
		c0.15-0.25,0.38-0.63,0.52-0.88c0.05-0.09,0.07-0.16-0.02-0.21c-0.26-0.16-0.69-0.42-0.95-0.57
		C148.84,349.47,148.79,349.49,148.74,349.57z M144.46,346.22c-0.04,0.01-0.08,0.07-0.1,0.15l-0.19,0.99
		c-0.06,0.28-0.04,0.31,0,0.55c0.11,0.66,0.27,1.31,0.39,1.95c0.32,1.55,0.77,3.92,1.04,5.35c0.2,1.07,0.34,2.16,0.38,3.12
		c0.01,0.18,0.11,0.17,0.16,0.03c0.17-0.53,0.24-1.09,0.24-1.68c0-0.58-0.19-1.75-0.38-2.68c-0.26-1.29-0.67-3.53-0.91-4.7
		c-0.21-0.99-0.41-1.99-0.53-2.95C144.55,346.25,144.5,346.21,144.46,346.22z M152.8,345.76c-0.02,0.07-0.1,0.61-0.15,0.92
		c-0.04,0.28-0.04,0.32,0.01,0.57c0.11,0.51,0.23,1.08,0.35,1.62c0.18,0.82,0.39,1.76,0.54,2.54c0.24,1.25,0.52,2.77,0.66,4.02
		c0.02,0.16,0.13,0.14,0.16,0c0.25-1.24,0.09-2.5-0.17-3.86c-0.16-0.85-0.38-1.87-0.55-2.63c-0.24-1.07-0.5-2.15-0.64-3.17
		c-0.02-0.12-0.05-0.18-0.1-0.17C152.87,345.6,152.82,345.67,152.8,345.76z M151.34,345.44c-0.93,0.39-4.1,1.56-4.92,1.91
		c-0.05,0.02-0.08,0.03-0.1,0.1c-0.03,0.1-0.13,0.42-0.18,0.59c-0.02,0.07,0.04,0.07,0.1,0.05c0.11-0.05,0.26-0.13,0.38-0.18
		c0.64-0.27,3.66-1.41,4.49-1.73c0.05-0.02,0.1-0.05,0.12-0.11c0.05-0.12,0.13-0.39,0.17-0.55
		C151.43,345.44,151.39,345.41,151.34,345.44z M136.74,350.48c-0.17,0.28-0.4,0.69-0.53,0.94c-0.05,0.1-0.05,0.17,0.06,0.24
		c0.22,0.12,0.61,0.33,0.89,0.48c0.12,0.06,0.19,0.05,0.24-0.03c0.15-0.25,0.38-0.63,0.52-0.88c0.05-0.09,0.07-0.16-0.02-0.21
		c-0.26-0.16-0.69-0.42-0.95-0.57C136.83,350.38,136.79,350.4,136.74,350.48z M127.68,350.9c-0.03,0.08-0.09,0.2-0.12,0.28
		c-0.04,0.14,0.04,0.24,0.11,0.13c0.08-0.13,0.19-0.25,0.32-0.33c0.31-0.19,0.65-0.26,0.99-0.23c0.31,0.03,0.89,0.25,0.89,0.28
		c0,0.07-1.35,0.73-1.56,0.87c-0.09,0.06-0.2,0.16-0.18,0.27c0.02,0.08,0.15,0.1,0.25,0.06c0.53-0.19,0.72-0.18,1.15-0.36
		c0.58-0.25,0.75-0.55,0.85-0.58c0.04-0.01,0.09-0.01,0.14-0.05c0.17-0.16,0.31-0.57,0.32-0.71c-0.02-0.11-0.4-0.15-0.52-0.17
		c-0.38-0.09-0.75-0.29-1.14-0.32C128.57,349.98,128,350.25,127.68,350.9z M124.32,347.55l-0.19,0.99c-0.06,0.28-0.04,0.31,0,0.55
		c0.11,0.66,0.27,1.31,0.39,1.95c0.32,1.55,0.71,3.5,0.99,4.93c0.2,1.07,0.34,2.16,0.38,3.12c0.01,0.18,0.11,0.17,0.16,0.03
		c0.17-0.53,0.24-1.09,0.24-1.68c0-0.58-0.19-1.75-0.38-2.68c-0.26-1.29-0.61-3.1-0.85-4.27c-0.21-0.99-0.41-1.99-0.53-2.95
		c-0.01-0.11-0.06-0.15-0.1-0.14C124.37,347.4,124.33,347.46,124.32,347.55z M130.98,357.14c-0.52,0.1-1.07,0.1-1.62-0.21
		c-0.1-0.06-0.06-0.2,0.01-0.33c0.18-0.36,0.4-0.51,0.62-0.53C130.42,356.05,130.83,356.55,130.98,357.14z M139.8,356.55
		c-1.57,0.86-3.35,1.41-4.47,0.82c0.5-0.93,1.33-1.4,1.87-1.45c0.05,0,0.11-0.01,0.17-0.01
		C138.19,355.89,138.99,356.31,139.8,356.55z M132.32,347.78c-0.12,0.38-0.14,0.74-0.07,1.09c0.42,2.21,0.76,4.4,1.19,6.6
		c0.17,0.9-1.18,1.38-1.62,1.51c-0.29-0.89-0.62-1.45-0.97-1.88c-0.31-0.39-0.7-0.54-1.23-0.07c-0.75,0.67-0.9,1.65-0.81,2.34
		c0.19,1.56,1.92,1,2.55,0.98c-1.93,3.54-4.3,3.39-6.71,2.97c-0.49-0.08-0.69,0.31-0.19,0.46c3.68,1.06,6,1,7.49-3.6
		c0.65-0.19,1.25-0.55,1.67-1.46c0.68,2.92,3.43,2.43,6.15,0.85c0.56-0.33,1.34-0.95,2.87-0.62c0.25-0.27,0.54-0.62,0.61-1.03
		c0.03-0.17-0.04-0.29-0.29-0.18c-0.41,0.17-1.01,0.11-1.55,0.05c-2.42-0.25-2.3-0.9-3.67-0.97c-1.25-0.06-2.12,0.88-2.7,2.37
		c-0.67-0.51-0.88-1.17-1.02-1.84c-0.55-2.64-0.89-5.29-1.33-7.93c-0.03-0.19-0.07-0.27-0.12-0.26
		C132.49,347.17,132.39,347.47,132.32,347.78z M139.29,346.9c-0.93,0.39-3.52,1.42-4.34,1.77c-0.05,0.02-0.08,0.03-0.1,0.1
		c-0.03,0.1-0.13,0.42-0.18,0.59c-0.02,0.07,0.04,0.07,0.1,0.05c0.11-0.05,0.26-0.13,0.38-0.18c0.64-0.27,3.08-1.27,3.91-1.6
		c0.05-0.02,0.1-0.05,0.12-0.11c0.05-0.11,0.13-0.39,0.17-0.55C139.38,346.9,139.35,346.87,139.29,346.9z M134.37,344.37
		c-0.93,0.39-3.52,1.42-4.34,1.77c-0.05,0.02-0.08,0.03-0.1,0.1c-0.03,0.1-0.13,0.42-0.18,0.59c-0.02,0.07,0.04,0.07,0.1,0.04
		c0.11-0.05,0.26-0.13,0.38-0.18c0.64-0.27,3.08-1.27,3.91-1.6c0.05-0.02,0.1-0.05,0.12-0.11c0.05-0.11,0.13-0.39,0.17-0.55
		C134.46,344.37,134.43,344.35,134.37,344.37z M124.95,345.27c-0.22,0.41-0.85,0.52-1.3,0.38c-0.27-0.08-0.36-0.32-0.24-0.56
		c0.25-0.5,0.52-0.67,0.77-0.67C124.59,344.42,124.94,344.92,124.95,345.27z M123.24,344.4c-0.7,1.62,0.14,2.21,0.82,2.19
		c1.09-0.03,1.48-1.1,1.2-2.18c-0.18-0.68-0.55-0.92-0.95-0.9C123.91,343.53,123.5,343.81,123.24,344.4z M122.43,361.73
		c-0.94,0.35-1.99,0.7-2.82,1.02c-0.05,0.02-0.08,0.03-0.11,0.1c-0.04,0.1-0.15,0.41-0.2,0.58c-0.02,0.07,0.04,0.07,0.1,0.05
		c0.11-0.04,0.26-0.12,0.39-0.17c0.65-0.24,1.55-0.56,2.38-0.86c0.05-0.02,0.1-0.04,0.13-0.1c0.05-0.11,0.14-0.38,0.2-0.54
		C122.52,361.74,122.49,361.71,122.43,361.73z M119.22,359.98c-0.09,0.19-0.06,0.39,0.13,0.53c0.14,0.1,0.41,0.28,0.67,0.41
		c-0.11,0.05-0.37,0.15-0.52,0.26c-0.04,0.12-0.09,0.31-0.11,0.43c-0.01,0.04,0.03,0.09,0.07,0.06c0.46-0.27,1.84-0.62,2.44-0.76
		c0.04-0.01,0.23-0.44,0.26-0.5c0.04-0.08,0-0.11-0.06-0.09c-0.34,0.09-0.67,0.15-1.09,0.14c-0.52-0.01-1.31-0.57-1.31-0.68
		c0.01-0.11,0.62-0.37,0.76-0.36c0.4,0.03,0.46,0.44,0.57,0.44c0.13,0,0.33-0.48,0.33-0.6c0-0.14-0.33-0.5-0.59-0.5
		C120.34,358.76,119.44,359.52,119.22,359.98z M111.6,349.98c-0.09,0.18-0.24,0.57-0.24,0.68c0,0.06,0.17,0.25,0.36,0.52
		c0.61,0.86,0.93,1.8,0.75,3.07c-0.02,0.11-0.05,0.21,0.01,0.21c0.28-0.01,0.44-0.97,0.43-1.48c-0.02-1.23-0.52-2.21-1.14-2.98
		C111.71,349.92,111.65,349.89,111.6,349.98z M118.94,347.21c-0.04,0.01-0.07,0.07-0.09,0.16c-0.05,0.34-0.11,0.68-0.16,1.01
		c-0.04,0.29-0.02,0.32,0.02,0.56c0.12,0.67,0.27,1.33,0.4,1.98c0.16,0.78,0.31,1.53,0.48,2.35c0.28,1.41,0.62,3.21,0.78,4.65
		c0.02,0.16,0.13,0.14,0.16,0c0.29-1.41,0.03-2.85-0.32-4.58c-0.23-1.13-0.43-2.08-0.62-3.01c-0.22-1.01-0.43-2.02-0.56-2.99
		C119.03,347.23,118.98,347.2,118.94,347.21z M115.15,346.64c-0.15,0.14-0.66,0.74-0.47,1.4c0.12,0.42,0.4,0.73,0.5,1.22
		c0.45,2.23,0.92,4.44,1.31,6.66c-0.03,0.5-1.27,0.73-1.81,0.82c-0.22,0.04-0.28,0.38-0.32,0.61c-0.08,0.39,0.06,0.46,0.31,0.52
		c0.24,0.06,0.65,0.01,0.97,0.03c0.34,0.03,1.19,0.23,1.54,0.4c0.07,0.04,0.1,0.09,0.05,0.13c-1.25,1.02-2.56,2.04-4.95,2.01
		c-1.43-0.02-2.58-1.13-2.6-2.37c-0.01-0.63,0.28-1.27,0.45-1.92c0.09-0.34-0.17-0.4-0.29-0.12c-0.37,0.88-0.6,1.77-0.64,2.69
		c-0.08,1.65,1.13,2.82,2.85,2.98c1.88,0.18,5.07-1.47,5.62-2.65c0.2-0.43,0.34-0.88,0.19-1.53c-0.14-0.62-0.8-0.52-1.21-0.65
		c-0.03-0.01-0.07-0.02-0.06-0.08c0.02-0.09,0.04-0.14,0.07-0.18c0.32-0.42,0.33-1.54,0.24-2l-1.06-5.48
		c-0.03-0.15,0.05-0.27,0.13-0.35c0.09-0.09,0.2-0.18,0.27-0.29c0.12-0.18,0.06-0.31-0.04-0.42c-0.34-0.42-0.74-0.86-0.86-1.38
		C115.32,346.62,115.22,346.58,115.15,346.64z M117.08,343.69c-0.93,0.39-3.52,1.42-4.34,1.77c-0.05,0.02-0.08,0.03-0.1,0.1
		c-0.03,0.1-0.13,0.42-0.18,0.59c-0.02,0.07,0.04,0.07,0.1,0.04c0.11-0.04,0.26-0.13,0.38-0.18c0.64-0.27,3.08-1.27,3.91-1.6
		c0.05-0.02,0.1-0.05,0.12-0.11c0.05-0.12,0.13-0.39,0.17-0.55C117.17,343.69,117.13,343.66,117.08,343.69z M80.63,360.83
		c-0.15,0.24-0.35,0.59-0.54,0.88c-0.27-0.18-0.62-0.39-0.86-0.55c-0.13-0.08-0.18-0.08-0.26,0.05c-0.14,0.21-0.35,0.54-0.5,0.8
		c-0.05,0.09-0.04,0.18,0.1,0.26c0.26,0.15,0.66,0.38,0.9,0.51c0.08,0.04,0.14,0.01,0.2-0.07c0.13-0.18,0.28-0.45,0.49-0.79
		c0.36,0.21,0.65,0.4,0.94,0.54c0.08,0.04,0.12,0.03,0.18-0.04c0.14-0.18,0.4-0.58,0.5-0.78c0.07-0.14,0.05-0.19-0.07-0.27
		c-0.19-0.12-0.65-0.41-0.88-0.56C80.73,360.74,80.68,360.75,80.63,360.83z M77.13,360.68c-0.93,0.39-3.52,1.42-4.34,1.77
		c-0.05,0.02-0.08,0.03-0.1,0.1c-0.03,0.1-0.13,0.42-0.18,0.59c-0.02,0.07,0.04,0.07,0.1,0.04c0.11-0.05,0.26-0.13,0.38-0.18
		c0.64-0.27,3.08-1.27,3.91-1.6c0.05-0.02,0.1-0.05,0.12-0.11c0.05-0.12,0.13-0.39,0.17-0.55
		C77.22,360.68,77.19,360.66,77.13,360.68z M88.58,360.48c-0.93,0.39-3.52,1.42-4.34,1.77c-0.05,0.02-0.08,0.03-0.1,0.1
		c-0.03,0.1-0.13,0.42-0.18,0.59c-0.02,0.07,0.04,0.07,0.1,0.04c0.11-0.05,0.26-0.13,0.38-0.18c0.64-0.27,3.08-1.27,3.91-1.6
		c0.05-0.02,0.1-0.05,0.12-0.11c0.05-0.12,0.13-0.39,0.17-0.55C88.68,360.48,88.64,360.45,88.58,360.48z M70.66,360.15
		c-0.93,0.39-3.52,1.42-4.34,1.77c-0.05,0.02-0.08,0.03-0.1,0.1c-0.03,0.1-0.13,0.42-0.18,0.59c-0.02,0.07,0.04,0.07,0.1,0.04
		c0.11-0.05,0.26-0.13,0.38-0.18c0.64-0.27,3.08-1.27,3.91-1.6c0.05-0.02,0.1-0.05,0.12-0.11c0.05-0.12,0.13-0.39,0.17-0.55
		C70.75,360.15,70.71,360.13,70.66,360.15z M94.51,360.14c-0.16,0.24-0.35,0.59-0.54,0.88c-0.27-0.18-0.62-0.39-0.86-0.55
		c-0.13-0.08-0.18-0.07-0.26,0.05c-0.14,0.21-0.35,0.54-0.5,0.8c-0.05,0.1-0.04,0.18,0.1,0.26c0.26,0.15,0.66,0.38,0.9,0.51
		c0.08,0.04,0.14,0.01,0.2-0.07c0.13-0.18,0.28-0.45,0.49-0.79c0.36,0.21,0.65,0.4,0.94,0.54c0.08,0.04,0.12,0.03,0.18-0.04
		c0.14-0.18,0.39-0.58,0.5-0.78c0.07-0.14,0.05-0.19-0.07-0.27c-0.19-0.12-0.65-0.41-0.88-0.56
		C94.61,360.06,94.56,360.07,94.51,360.14z M62.14,352.26c-0.03,0.08-0.09,0.2-0.12,0.28c-0.04,0.14,0.04,0.24,0.11,0.13
		c0.08-0.13,0.19-0.25,0.32-0.33c0.31-0.19,0.65-0.26,0.99-0.23c0.31,0.03,0.89,0.25,0.89,0.28c0,0.07-1.35,0.73-1.56,0.87
		c-0.09,0.06-0.2,0.16-0.18,0.27c0.02,0.08,0.15,0.1,0.25,0.06c0.53-0.19,0.72-0.18,1.15-0.36c0.58-0.25,0.75-0.55,0.85-0.58
		c0.04-0.01,0.09-0.01,0.14-0.05c0.17-0.16,0.31-0.57,0.32-0.71c-0.02-0.11-0.4-0.15-0.52-0.17c-0.38-0.09-0.75-0.29-1.14-0.32
		C63.02,351.34,62.45,351.61,62.14,352.26z M104.08,351.25c-0.16,0.24-0.35,0.59-0.54,0.88c-0.27-0.18-0.62-0.39-0.86-0.55
		c-0.13-0.08-0.18-0.07-0.26,0.05c-0.14,0.22-0.35,0.54-0.5,0.8c-0.05,0.09-0.04,0.18,0.1,0.26c0.26,0.15,0.66,0.38,0.9,0.51
		c0.08,0.04,0.14,0.02,0.2-0.07c0.13-0.18,0.28-0.45,0.49-0.79c0.36,0.21,0.65,0.4,0.94,0.54c0.08,0.04,0.12,0.03,0.18-0.04
		c0.14-0.18,0.39-0.58,0.5-0.78c0.07-0.14,0.05-0.19-0.07-0.27c-0.19-0.12-0.65-0.41-0.88-0.56
		C104.17,351.17,104.13,351.18,104.08,351.25z M90.25,351.04c-0.09,0.18-0.24,0.57-0.24,0.68c0,0.06,0.17,0.25,0.36,0.52
		c0.61,0.86,0.93,1.8,0.75,3.07c-0.02,0.11-0.05,0.21,0.01,0.21c0.28-0.01,0.44-0.97,0.43-1.48c-0.02-1.23-0.52-2.21-1.14-2.98
		C90.36,350.97,90.3,350.94,90.25,351.04z M75.68,353.02c-0.17,0.28-0.4,0.69-0.53,0.94c-0.05,0.1-0.05,0.17,0.06,0.24
		c0.22,0.12,0.61,0.33,0.89,0.48c0.11,0.06,0.18,0.05,0.24-0.03c0.15-0.25,0.38-0.63,0.52-0.88c0.05-0.09,0.07-0.16-0.02-0.21
		c-0.26-0.16-0.69-0.42-0.95-0.57C75.78,352.92,75.73,352.94,75.68,353.02z M102.91,349.38c-0.17,0.28-0.4,0.69-0.53,0.94
		c-0.05,0.1-0.05,0.17,0.06,0.24c0.22,0.12,0.61,0.33,0.89,0.48c0.12,0.06,0.18,0.05,0.24-0.03c0.15-0.25,0.38-0.64,0.52-0.88
		c0.05-0.09,0.07-0.16-0.02-0.21c-0.26-0.16-0.69-0.42-0.95-0.57C103,349.28,102.96,349.3,102.91,349.38z M96.49,347.4
		c-0.93,0.39-4.1,1.56-4.92,1.91c-0.05,0.02-0.08,0.03-0.1,0.1c-0.03,0.1-0.13,0.42-0.18,0.59c-0.02,0.07,0.04,0.07,0.1,0.04
		c0.11-0.05,0.26-0.13,0.38-0.18c0.64-0.27,3.66-1.41,4.49-1.73c0.05-0.02,0.1-0.05,0.12-0.11c0.05-0.11,0.13-0.39,0.17-0.55
		C96.59,347.4,96.55,347.37,96.49,347.4z M106.23,346.14c-0.93,0.39-4.68,1.66-5.5,2.01c-0.05,0.02-0.08,0.03-0.1,0.1
		c-0.03,0.1-0.13,0.41-0.18,0.59c-0.02,0.07,0.04,0.07,0.1,0.04c0.11-0.05,0.26-0.13,0.39-0.18c0.64-0.27,4.24-1.51,5.07-1.84
		c0.05-0.02,0.1-0.05,0.12-0.11c0.05-0.12,0.13-0.39,0.17-0.55C106.33,346.14,106.29,346.11,106.23,346.14z M64.4,357.04
		c0.37,0.26,1.08,0.97,0.92,1.07c-0.43,0.25-1.64-0.02-2.06-0.49c-0.12-0.12-0.01-0.21,0.06-0.29c0.18-0.23,0.37-0.46,0.64-0.46
		C64.08,356.87,64.23,356.92,64.4,357.04z M87.83,355.09c0.41,0.1,1.4,0.4,0.98,0.8c-1.52,1.48-3.68,1.58-4.89,1.56
		c1.12-0.9,2.02-2.45,3.45-2.43C87.52,355.03,87.67,355.05,87.83,355.09z M71.27,354.58c0.19,0.17,0.1,0.31,0.04,0.42
		c-0.16,0.26-0.38,0.23-0.58,0.16l-1.06-0.42c-0.12-0.04-0.07-0.17-0.04-0.37l0.15-1.1L71.27,354.58z M68.74,353.09
		c0.21,0.22,0.4,0.44,0.53,0.81c0.08,0.22-0.03,0.27-0.11,0.35c-0.22,0.22-0.37,0.22-0.45,0.21c-0.48,0-0.93-0.03-1.29-0.24
		c-0.08-0.05-0.04-0.13-0.01-0.2c0.1-0.25,0.4-1.16,0.89-1.17C68.43,352.85,68.58,352.92,68.74,353.09z M83.2,346.06
		c-0.04,0.01-0.08,0.07-0.12,0.14l-0.26,0.44c-0.3,0.51-0.16,0.94,0.25,1.42c0.44,2.54,1.37,5.01,1.33,7.64
		c0,0.23,0.05,0.51-0.11,0.65l-1.07,0.92c-0.22,0.18-0.45,0.22-0.71,0.16c-0.67-0.17-1.29-0.6-1.88-1.07c-0.16-0.13-0.27-0.21-0.4,0
		l-0.43,0.7c-0.55,0.92-1.26,0.66-1.97,0.51c-0.09-0.02-0.17-0.05-0.15-0.19c0.05-0.28,0.24-0.61,0.25-0.8
		c0.01-0.46-0.15-0.45-0.28-0.19c-0.1,0.2-0.23,0.4-0.46,0.62c-0.85,0.8-4.17,1.53-5.9,0.58c-0.65-0.36-0.61-0.74-0.54-1.25
		c0.7,0.15,0.9-0.36,1.01-1.25c0.15-1.11-0.17-1.58-0.59-1.97c-1.05-0.96-2.09-1.79-3.16-2.37c-0.32-0.17-0.67-0.14-0.67,0.32
		c0,0.34-0.06,0.69,0.13,1.03c0.04,0.06,0.06,0.1,0.03,0.15c-0.49,0.98-0.87,1.96-0.25,2.84c0.05,0.07,0.1,0.16,0.03,0.2
		c-1.6,0.99-1.69,0.68-2.76,0.59c-1.07-0.1-2,1.48-1.56,2.77c0.05,0.14,0.02,0.23-0.04,0.32c-0.85,1.37-3.26,2.29-4.09,2.55
		c-0.4,0.13-0.59,0.61,0.07,0.43c1.58-0.42,3.63-0.64,4.39-2.67c0.05-0.12,0.15-0.15,0.25-0.1c0.44,0.21,1.1,0.3,1.92,0.17
		c0.21-0.03,0.5-0.13,0.51-0.87c0.01-0.55-0.16-1.07-0.35-1.55c1.11,0,2.07-0.78,2.81-1.24c0.16-0.1,0.33-0.13,0.55-0.04l1.49,0.6
		c-0.18,1.02-0.33,2.05,0.3,2.47c1.99,1.29,5.29,0.33,6.37-0.51c0.09-0.07,0.14-0.05,0.2-0.01c0.33,0.23,0.6,0.48,1.07,0.67
		c0.49,0.19,0.82,0.12,1.11-0.32l0.63-0.97c0.06-0.1,0.16-0.21,0.29-0.02c0.64,0.89,1.43,1.14,2.44,1.2
		c2.49,0.16,5.26-0.22,8.01-0.46c1.17-0.1,2.52-0.62,3.15-1.33c0.07-0.08,0.17-0.22,0.27,0c0.62,1.79,3.32,1.87,5.49,0.98
		c0.07-0.03,0.14-0.06,0.22-0.03c0.69,0.23,2.83,0.33,3.65-1.17c0.27,0.5,0.72,0.9,1.42,0.91c0.23,0.01,0.51-0.01,0.72-0.36
		c0.57-0.97,0.53-2.1,0.35-3.22c-0.02-0.11-0.14-0.19-0.18-0.08l-0.35,1.03l0.1,1.15c0.04,0.48-0.98-0.03-1.29-0.2
		c-0.22-0.12-0.22-0.21-0.19-0.31c0.08-0.23,0.2-0.35,0.24-0.71c-0.01-0.68-0.26-0.25-0.3-0.13c-0.93,2.17-2.14,1.79-3.3,2.17
		c0.3-0.51,0.55-1.01,0.56-1.52c0.01-0.42-0.13-0.21-0.22-0.03c-0.77,1.52-2.32,1.71-3.75,1.71c-1.72,0-2.58-0.61-2.82-1.39
		c-0.12-0.38-0.3-0.08-0.39,0.03c-0.98,1.15-4.48,1.71-6.12,1.79c0.66-0.41,1.11-1.29,1.29-1.95c0.26-0.93,0.23-1.65-1.31-1.84
		c-1.5-0.19-2.37,1.13-3.4,2.09c0.54-2.35-0.5-4.99-0.95-7.37c-0.04-0.23-0.05-0.49,0.15-0.68c0.16-0.15,0.29-0.35,0.13-0.58
		c-0.23-0.35-0.52-0.68-0.73-1.08C83.29,346.08,83.24,346.05,83.2,346.06z M44.83,349.25c-0.64,0.65-1.83,1.13-2.76,1.11
		c-0.64-0.02-0.99-0.17-1.31-0.4c-0.08-0.06-0.16-0.04-0.22,0.03c-0.22,0.28-0.51,0.92-0.59,1.37c-0.02,0.08-0.03,0.19,0.01,0.21
		c0.04,0.02,0.1-0.01,0.13-0.07c0.08-0.22,0.19-0.6,0.38-0.81c0.03-0.02,0.08-0.01,0.11,0.01c0.4,0.27,1.01,0.42,1.63,0.39
		c0.87-0.04,2.44-0.57,2.69-1.75c0.01-0.06,0.02-0.11,0-0.12C44.89,349.19,44.86,349.21,44.83,349.25z M56.07,348.58
		c-0.16,0.24-0.35,0.59-0.54,0.88c-0.27-0.18-0.62-0.39-0.86-0.55c-0.13-0.08-0.18-0.08-0.26,0.05c-0.14,0.21-0.35,0.54-0.5,0.8
		c-0.05,0.1-0.04,0.18,0.1,0.26c0.26,0.15,0.66,0.38,0.9,0.51c0.08,0.04,0.14,0.01,0.2-0.07c0.13-0.18,0.28-0.45,0.49-0.79
		c0.36,0.21,0.65,0.4,0.94,0.54c0.08,0.04,0.12,0.03,0.18-0.04c0.14-0.18,0.4-0.58,0.5-0.78c0.07-0.14,0.05-0.19-0.07-0.27
		c-0.19-0.12-0.65-0.41-0.88-0.56C56.16,348.49,56.12,348.51,56.07,348.58z M56.89,354.17c-0.22,0.56-1.1,0.6-1.62,0.05
		c-0.04-0.04-0.06-0.09-0.03-0.18c0.16-0.5,0.41-0.7,0.68-0.71C56.33,353.32,56.74,353.71,56.89,354.17z M50.04,346.47
		c-0.09,0.16-0.15,0.42-0.19,0.7c-0.03,0.21-0.01,0.36,0.02,0.5c0.55,2.86,0.79,5.92,1.24,8.88c0.19,1.26,0.8,2.11,2.14,2.29
		c1,0.13,4.03-0.41,4.44-1.19c1.45-2.77-0.33-4.95-0.95-5.46c-0.42-0.35-0.83-0.42-1.22,0.05c-0.36,0.44-0.7,1.05-0.81,2.04
		c-0.08,0.73,0.09,1.37,0.92,1.65c0.86,0.28,1.36-0.23,1.68-1.07c0.19,0.15,0.36,0.71,0.44,1.21c0.05,0.26-0.11,0.43-0.27,0.54
		c-1.1,0.77-1.94,0.8-2.83,0.93c-1.97,0.28-2.82-0.62-3.1-2.19c-0.55-3.01-0.52-6.74-1.32-8.88c-0.02-0.06-0.05-0.08-0.08-0.08
		C50.1,346.38,50.07,346.41,50.04,346.47z M37.53,346.26l-0.16,1.01c-0.04,0.29-0.03,0.32,0.01,0.56c0.12,0.67,0.27,1.33,0.4,1.98
		c0.3,1.46,0.6,2.86,0.86,4.21c0.21,1.08,0.35,2.19,0.42,3.17c0.01,0.19,0.11,0.17,0.15,0.03c0.15-0.55,0.2-1.12,0.18-1.72
		c-0.01-0.59-0.21-1.78-0.4-2.72c-0.22-1.18-0.5-2.47-0.72-3.54c-0.21-1.01-0.42-2.02-0.55-2.99c-0.02-0.11-0.06-0.15-0.1-0.14
		C37.58,346.11,37.55,346.18,37.53,346.26z M43.67,355.9c0.08,0.01,0.16,0.05,0.27,0.12c0.17,0.13,0.44,0.26,0.83,1.06
		c-0.53,0.06-1.25,0.03-1.63-0.32c-0.19-0.16-0.08-0.31-0.02-0.43c0.14-0.22,0.29-0.42,0.51-0.43c0.01,0,0.01,0,0.02,0
		C43.65,355.9,43.66,355.9,43.67,355.9z M45.98,345.16C45.97,345.16,45.97,345.16,45.98,345.16c-0.02,0-0.02,0.01-0.03,0.01
		c-0.01,0.01-0.02,0.01-0.03,0.03c-0.34,0.68-0.38,0.8-0.4,0.9c-0.05,0.16,0.01,0.37,0.17,0.6c0.05,0.06,0.08,0.19,0.1,0.3
		c0.54,2.91,1.39,5.89,1.91,8.84c-0.49,0.7-1.45,1-2.05,1.11c-0.29-0.86-0.71-1.71-1.11-2.1c-0.21-0.21-0.42-0.32-0.62-0.32
		c-0.07,0-0.13,0.01-0.2,0.03c-0.64,0.18-1.52,1.6-1.36,2.81c0.25,1.23,1.61,1.16,2.84,0.95c-1.06,2.57-3.44,3.83-7.54,3.39
		c-0.44-0.05-0.73,0.15-0.09,0.37c1.08,0.32,2.13,0.57,3.19,0.55c2.23-0.12,4.35-0.95,5.09-4.49c1.27-0.22,2.35-1.17,2.33-2.02
		c-0.06-3.06-1.05-6-1.63-8.7l0.38-0.76c0.03-0.07,0.05-0.13-0.03-0.23c-0.31-0.35-0.61-0.73-0.84-1.19
		C46.04,345.18,46.01,345.16,45.98,345.16C45.98,345.16,45.98,345.16,45.98,345.16z M57.75,345.06c-0.93,0.39-4.1,1.56-4.92,1.91
		c-0.05,0.02-0.08,0.03-0.1,0.1c-0.03,0.1-0.13,0.42-0.18,0.59c-0.02,0.07,0.04,0.07,0.1,0.05c0.11-0.05,0.26-0.13,0.38-0.18
		c0.64-0.27,3.66-1.4,4.49-1.73c0.05-0.02,0.1-0.05,0.12-0.11c0.05-0.12,0.13-0.39,0.17-0.55C57.84,345.06,57.8,345.03,57.75,345.06
		z M38.19,343.95c-0.22,0.41-0.85,0.52-1.3,0.39c-0.27-0.08-0.36-0.32-0.24-0.56c0.25-0.5,0.52-0.68,0.77-0.68
		C37.84,343.1,38.18,343.61,38.19,343.95z M36.48,343.08c-0.7,1.62,0.14,2.21,0.82,2.19c1.09-0.03,1.48-1.1,1.2-2.18
		c-0.18-0.68-0.55-0.92-0.95-0.9C37.15,342.21,36.74,342.49,36.48,343.08z M45.72,341.39c0.1,0.12,0.26,0.37,0.29,0.8
		c0,0.12-0.02,0.3-0.03,0.31c-0.01,0.01-0.24-0.09-0.28-0.11c-0.08-0.04-0.31-0.13-0.71-0.28c-0.16-0.03,0-0.28,0-0.28
		c0.06-0.11,0.16-0.25,0.27-0.36l0.15-0.1C45.51,341.33,45.66,341.3,45.72,341.39z M45.63,340.64c-0.46,0.08-1.01,0.72-1.23,1.45
		c-0.1,0.33-0.04,0.52,0.14,0.63c0.26,0.16,0.64,0.29,1.09,0.41c-0.52,0.87-2.2,2-2.51,2.18c-0.36,0.21-0.3,0.44,0.15,0.24
		c1.69-0.76,2.52-1.57,2.9-2.29c0.12,0.02,0.22,0.06,0.34,0.09c0.2,0.05,0.16,0.08,0.26-0.24c0.05-0.15,0.09-0.26,0.1-0.33
		l-0.51-0.17l0.05-0.18c0.06-0.58-0.09-1.06-0.14-1.21C46.14,340.76,45.91,340.59,45.63,340.64z M35.33,361.33
		c-0.94,0.35-1.99,0.7-2.82,1.02c-0.05,0.02-0.08,0.03-0.11,0.1c-0.04,0.1-0.15,0.41-0.2,0.58c-0.02,0.07,0.04,0.07,0.1,0.05
		c0.11-0.04,0.26-0.12,0.39-0.17c0.65-0.24,1.55-0.56,2.38-0.86c0.05-0.02,0.1-0.04,0.13-0.1c0.05-0.11,0.15-0.38,0.2-0.54
		C35.42,361.33,35.38,361.31,35.33,361.33z M32.21,359.53c-0.09,0.19-0.06,0.39,0.13,0.53c0.14,0.1,0.41,0.28,0.67,0.41
		c-0.11,0.05-0.37,0.15-0.52,0.26c-0.04,0.12-0.09,0.31-0.11,0.44c-0.01,0.04,0.03,0.08,0.07,0.06c0.46-0.27,1.84-0.62,2.44-0.76
		c0.04-0.01,0.23-0.44,0.26-0.5c0.04-0.08,0-0.11-0.06-0.09c-0.34,0.09-0.67,0.15-1.09,0.14c-0.52-0.01-1.31-0.57-1.31-0.68
		c0.01-0.11,0.62-0.37,0.76-0.36c0.4,0.04,0.46,0.44,0.57,0.44c0.13,0,0.33-0.48,0.33-0.6c0-0.14-0.33-0.5-0.59-0.5
		C33.32,358.31,32.43,359.06,32.21,359.53z M29.09,350.57c-0.17,0.28-0.4,0.69-0.53,0.94c-0.05,0.1-0.05,0.17,0.06,0.24
		c0.22,0.12,0.61,0.33,0.89,0.48c0.12,0.06,0.18,0.05,0.24-0.03c0.15-0.25,0.38-0.64,0.52-0.88c0.05-0.09,0.07-0.16-0.02-0.21
		c-0.26-0.16-0.69-0.42-0.95-0.57C29.18,350.47,29.14,350.49,29.09,350.57z M31.91,346.81c-0.05,0.34-0.11,0.68-0.16,1.01
		c-0.04,0.29-0.02,0.32,0.02,0.56c0.12,0.67,0.27,1.33,0.4,1.98c0.16,0.78,0.31,1.53,0.48,2.35c0.28,1.41,0.62,3.21,0.78,4.65
		c0.02,0.16,0.13,0.14,0.16,0c0.29-1.41,0.03-2.85-0.32-4.58c-0.23-1.13-0.43-2.08-0.62-3.01c-0.22-1.01-0.43-2.02-0.57-2.99
		c-0.02-0.11-0.06-0.15-0.1-0.14C31.95,346.66,31.92,346.72,31.91,346.81z M30.2,346.66l-0.23,0.43c-0.02,0.05-0.05,0.08-0.03,0.13
		c0.07,0.17,0.12,0.37,0.12,0.48c-0.27,0.26-0.56,0.3-0.77,0.13c-0.14-0.11-0.19-0.32-0.17-0.59c0.01-0.2,0.03-0.27-0.14-0.13
		c-0.23,0.18-0.17,0.17-0.18,0.27c-0.08,0.65-0.36,0.94-0.85,0.97c-0.31,0.02-0.54-0.2-0.32-0.82c0.05-0.13-0.05-0.27-0.18,0
		c-0.47,0.93-0.18,1.45,0.29,1.52c0.39,0.06,0.85-0.16,1.09-0.75c0.18,0.3,0.55,0.38,0.88,0.3c0.42-0.11,0.51-0.3,0.63-0.65
		c0.12-0.33,0.12-0.77-0.04-1.29C30.27,346.57,30.22,346.61,30.2,346.66z M25.07,346.57c-0.06,0.32-0.19,0.67-0.14,1.14l0.88,8.47
		c0.1,0.94,0.45,1.65,1.07,1.85c1.53,0.52,2.99,0.33,4.33-0.44c0.39-0.23,0.49-0.9,0.53-1.65c0.05-1.15-0.43-2-1.22-2.67
		c-0.07-0.06-0.17-0.07-0.19,0.02c-0.1,0.35-0.13,0.71-0.16,1.06c-0.01,0.13,0.04,0.25,0.18,0.41c0.24,0.28,0.36,0.1,0.85,1.29
		c0.06,0.15-0.01,0.26-0.1,0.31c-1.4,0.7-2.52,0.61-3.56,0.42c-0.94-0.18-1.13-0.79-1.22-1.44c-0.41-2.88-0.47-5.81-0.97-8.66
		C25.29,346.35,25.11,346.38,25.07,346.57z M30.89,343.38c-0.93,0.39-3.52,1.42-4.34,1.77c-0.05,0.02-0.08,0.03-0.1,0.1
		c-0.03,0.1-0.13,0.42-0.18,0.59c-0.02,0.07,0.04,0.07,0.1,0.04c0.11-0.04,0.26-0.13,0.38-0.18c0.64-0.27,3.08-1.27,3.91-1.6
		c0.05-0.02,0.1-0.05,0.12-0.11c0.05-0.12,0.13-0.39,0.17-0.55C30.99,343.38,30.95,343.35,30.89,343.38z M245.23,381.79
		c-0.04,0.08-0.09,0.2-0.12,0.28c-0.04,0.14,0.04,0.24,0.11,0.13c0.08-0.13,0.19-0.25,0.32-0.33c0.31-0.19,0.65-0.26,0.99-0.23
		c0.31,0.03,0.89,0.25,0.89,0.28c0,0.07-1.35,0.73-1.56,0.87c-0.09,0.06-0.21,0.16-0.18,0.27c0.02,0.08,0.15,0.1,0.25,0.06
		c0.53-0.19,0.72-0.18,1.15-0.36c0.58-0.25,0.75-0.55,0.85-0.58c0.04-0.01,0.09-0.01,0.14-0.05c0.17-0.16,0.31-0.57,0.32-0.71
		c-0.02-0.11-0.4-0.15-0.51-0.17c-0.38-0.09-0.75-0.29-1.14-0.32C246.12,380.86,245.55,381.14,245.23,381.79z M262.56,375.15
		c-0.93,0.39-4.68,1.66-5.5,2.01c-0.05,0.02-0.08,0.03-0.1,0.1c-0.03,0.1-0.13,0.42-0.18,0.59c-0.02,0.07,0.04,0.07,0.1,0.04
		c0.11-0.04,0.26-0.13,0.38-0.18c0.64-0.27,4.25-1.51,5.07-1.84c0.05-0.02,0.1-0.05,0.12-0.11c0.05-0.11,0.13-0.39,0.17-0.55
		C262.65,375.14,262.62,375.12,262.56,375.15z M268.88,375.05c-0.93,0.39-4.1,1.56-4.92,1.91c-0.05,0.02-0.08,0.03-0.1,0.1
		c-0.03,0.1-0.13,0.42-0.18,0.59c-0.02,0.07,0.04,0.07,0.1,0.04c0.11-0.05,0.26-0.13,0.39-0.18c0.64-0.27,3.66-1.41,4.49-1.73
		c0.05-0.02,0.1-0.05,0.12-0.11c0.05-0.12,0.13-0.39,0.17-0.55C268.97,375.05,268.93,375.02,268.88,375.05z M249.8,385.86
		c-0.7-0.01-1.5,0.02-2.02-0.54c-0.05-0.06-0.06-0.13,0-0.24c0.24-0.43,0.5-0.59,0.75-0.59
		C249.13,384.51,249.69,385.45,249.8,385.86z M268.07,382.58c0.02,0.05,0.02,0.06,0,0.06c-0.63-0.06-1.29-0.07-1.81-0.44
		c-0.04-0.03-0.04-0.06,0-0.14c0.28-0.48,0.54-0.67,0.78-0.67C267.47,381.37,267.83,381.96,268.07,382.58z M257.48,369.95
		c-3.04,1.95-6.25,3.72-8.96,6c-0.31,0.26-0.74,0.95-0.89,1.87c-0.05,0.28-0.08,1.2,0.4,1.49c0.71,0.42,1.99,1.24,3.07,3.19
		c0.36,0.66-1.12,1.51-1.83,1.21c-1.25-0.52-2.25,1.17-1.85,2.64c-0.79,1.45-2.64,2.17-4.13,3.15c-0.28,0.19-0.41,0.56,0.24,0.35
		c1.81-0.59,3.72-1.16,4.22-3.12c0.52,0.38,1.2,0.4,1.87,0.41c0.34,0,0.73,0.02,0.75-0.53c0.02-0.57-0.12-1.08-0.23-1.61
		c1.05-0.36,1.87-0.85,1.06-3.9c1.62,0.95,3.05,2.32,4.47,3.72c1.51,1.48,4.37,0.88,6.28-0.51c1.13,1.4,3.11,1.74,3.96-0.96
		c0.34,0.49,1.41,0.66,2.58,0.58c0.1-0.01,0.16-0.04,0.21-0.24c0.26-1,0-2.01-0.55-2.97c-0.47-0.82-0.99-0.82-1.59-0.06
		c-0.58,0.74-0.7,1.92-1.14,2.55c-0.63,0.91-1.46,1.13-2.46,0.5c0.36-0.24,0.73-0.52,0.91-1.22c0.08-0.31-0.07-0.46-0.22-0.59
		c-1.37-1.13-3.71-0.89-4.1,1.06c-0.06,0.32,0.12,0.3,0.33,0.16c0.36-0.24,1.05,0.18,1.35,0.33c-0.85,0.61-3.87,1.62-5.17,0.32
		c-2.86-2.86-5.97-4.7-8.04-5.81c0.02-1.35,7.26-5.4,9.19-6.72c0.09-0.06,0.21-0.13,0.25-0.26l0.25-0.94
		c0.02-0.08-0.04-0.11-0.11-0.11C257.57,369.9,257.52,369.92,257.48,369.95z M249.42,370.17c0.11,0.12,0.26,0.37,0.29,0.8
		c0,0.12-0.02,0.3-0.03,0.31c-0.01,0.01-0.24-0.09-0.28-0.11c-0.08-0.04-0.31-0.13-0.71-0.28c-0.16-0.03,0-0.28,0-0.28
		c0.06-0.11,0.16-0.25,0.27-0.37l0.15-0.1C249.2,370.11,249.35,370.08,249.42,370.17z M249.33,369.42c-0.46,0.08-1,0.72-1.22,1.45
		c-0.1,0.33-0.04,0.52,0.14,0.63c0.26,0.16,0.64,0.29,1.09,0.41c-0.52,0.87-2.2,2-2.51,2.18c-0.36,0.21-0.3,0.44,0.16,0.24
		c1.69-0.76,2.52-1.57,2.9-2.29c0.12,0.02,0.21,0.06,0.34,0.09c0.2,0.05,0.16,0.08,0.26-0.24c0.05-0.15,0.09-0.26,0.1-0.33
		l-0.51-0.17l0.05-0.18c0.06-0.58-0.09-1.06-0.14-1.21C249.83,369.54,249.61,369.37,249.33,369.42z M242.59,387.63
		c-0.94,0.35-1.99,0.7-2.82,1.02c-0.05,0.02-0.08,0.03-0.11,0.1c-0.04,0.09-0.15,0.41-0.2,0.58c-0.02,0.07,0.04,0.07,0.1,0.05
		c0.11-0.04,0.26-0.12,0.39-0.17c0.65-0.24,1.55-0.56,2.38-0.86c0.05-0.02,0.1-0.04,0.13-0.1c0.05-0.11,0.15-0.38,0.2-0.54
		C242.68,387.64,242.65,387.61,242.59,387.63z M239.43,385.91c-0.09,0.19-0.05,0.39,0.13,0.53c0.14,0.1,0.41,0.28,0.67,0.41
		c-0.11,0.05-0.37,0.15-0.52,0.26c-0.04,0.12-0.09,0.31-0.11,0.44c-0.01,0.04,0.03,0.09,0.07,0.06c0.46-0.27,1.84-0.63,2.44-0.76
		c0.04-0.01,0.23-0.44,0.26-0.51c0.04-0.08,0-0.11-0.06-0.09c-0.34,0.09-0.67,0.15-1.09,0.14c-0.52-0.01-1.31-0.57-1.31-0.68
		c0.01-0.11,0.62-0.37,0.76-0.36c0.4,0.04,0.46,0.44,0.57,0.44c0.13,0,0.33-0.48,0.33-0.6c0-0.14-0.33-0.5-0.59-0.5
		C240.55,384.69,239.65,385.45,239.43,385.91z M234.57,378.12c-0.17,0.28-0.4,0.69-0.53,0.94c-0.05,0.1-0.05,0.18,0.06,0.24
		c0.22,0.12,0.61,0.33,0.89,0.48c0.12,0.06,0.18,0.05,0.24-0.03c0.15-0.25,0.38-0.64,0.52-0.88c0.05-0.09,0.07-0.16-0.02-0.21
		c-0.26-0.16-0.69-0.42-0.95-0.57C234.67,378.02,234.62,378.04,234.57,378.12z M231.3,376.52c-0.93,0.39-4.1,1.56-4.92,1.91
		c-0.05,0.02-0.08,0.03-0.1,0.1c-0.03,0.1-0.13,0.42-0.18,0.59c-0.02,0.07,0.04,0.07,0.1,0.04c0.11-0.05,0.26-0.13,0.38-0.18
		c0.64-0.27,3.66-1.41,4.49-1.73c0.05-0.02,0.1-0.05,0.12-0.11c0.05-0.12,0.13-0.39,0.17-0.55
		C231.4,376.52,231.36,376.5,231.3,376.52z M230.38,383.68c0.16,0.28,0.37,0.82,0.64,1.16c-0.68-0.1-1.79-0.35-1.99-0.84
		c0.09-0.12,0.19-0.26,0.49-0.47c0.05-0.04,0.21-0.13,0.39-0.13C230.08,383.4,230.25,383.46,230.38,383.68z M224.74,375.05
		l-0.19,0.95c-0.04,0.18-0.01,0.35,0.01,0.53c0.48,3.43,0.64,6.68,1.07,8.29c0.65,2.36,2.51,1.38,3.17,0.23
		c0.02,0.17,0.03,0.35,0.15,0.42c0.71,0.42,1.62,0.73,2.88,0.87c0.07,0.01,0.17,0.03,0.2-0.11l0.12-0.45
		c1.92,0.54,3.43,0.08,4.57-0.61c0.41-0.24,0.59-1.94,0.5-2.29c-0.24-0.9-0.7-1.56-1.25-2.09c-0.06-0.06-0.12-0.09-0.13,0.01
		l-0.2,1.17c-0.01,0.04,0.01,0.06,0.04,0.1c0.4,0.54,0.86,0.91,1.1,1.81c-1.43,0.9-3.24,1.05-4.48,0.56c-0.72-0.28-1.22-1-1.72-1.7
		c-0.17-0.24-0.4-0.27-0.72-0.06c-0.45,0.3-0.9,0.81-1.17,1.31c-0.82,1.53-2.34,1.33-2.63-0.32c-0.51-2.82-0.74-5.72-1.11-8.58
		c-0.02-0.13-0.06-0.17-0.1-0.17C224.8,374.92,224.75,374.99,224.74,375.05z M236.09,374.37l-0.23,0.43
		c-0.03,0.05-0.05,0.08-0.03,0.13c0.07,0.17,0.12,0.37,0.12,0.48c-0.27,0.26-0.56,0.3-0.77,0.13c-0.13-0.11-0.18-0.32-0.17-0.59
		c0.01-0.2,0.03-0.27-0.14-0.13c-0.23,0.18-0.17,0.17-0.18,0.27c-0.08,0.64-0.36,0.93-0.85,0.97c-0.31,0.02-0.54-0.2-0.32-0.82
		c0.05-0.13-0.05-0.27-0.18,0c-0.47,0.93-0.18,1.45,0.29,1.52c0.39,0.06,0.85-0.16,1.09-0.75c0.18,0.3,0.55,0.39,0.88,0.3
		c0.42-0.11,0.51-0.31,0.63-0.65c0.12-0.33,0.12-0.77-0.04-1.29C236.16,374.28,236.11,374.33,236.09,374.37z M238.86,373.08
		l-0.16,1.01c-0.04,0.29-0.03,0.32,0.01,0.56c0.12,0.67,0.27,1.33,0.4,1.98c0.3,1.46,0.6,2.86,0.86,4.21
		c0.21,1.08,0.35,2.19,0.42,3.17c0.01,0.19,0.11,0.17,0.15,0.03c0.15-0.55,0.2-1.12,0.18-1.72c-0.01-0.59-0.21-1.78-0.4-2.72
		c-0.22-1.18-0.5-2.47-0.72-3.54c-0.21-1.01-0.42-2.02-0.55-2.99c-0.02-0.11-0.06-0.15-0.1-0.14
		C238.91,372.93,238.87,372.99,238.86,373.08z M236.91,371.88c-0.93,0.39-4.68,1.66-5.5,2.01c-0.05,0.02-0.08,0.03-0.1,0.1
		c-0.03,0.1-0.13,0.42-0.18,0.59c-0.02,0.07,0.04,0.07,0.1,0.04c0.11-0.05,0.26-0.13,0.38-0.18c0.64-0.27,4.25-1.51,5.07-1.84
		c0.05-0.02,0.1-0.05,0.12-0.11c0.05-0.12,0.13-0.39,0.17-0.55C237,371.87,236.97,371.85,236.91,371.88z M208.63,381.33
		c-0.17,0.28-0.4,0.69-0.53,0.94c-0.05,0.1-0.05,0.17,0.06,0.24c0.22,0.12,0.61,0.33,0.89,0.48c0.12,0.06,0.18,0.05,0.24-0.03
		c0.15-0.25,0.38-0.64,0.52-0.88c0.05-0.09,0.07-0.16-0.02-0.21c-0.26-0.16-0.69-0.42-0.95-0.57
		C208.72,381.23,208.68,381.24,208.63,381.33z M218.67,379.28c-0.68,1.01-1.58,1.93-3.19,2.45c-0.71,0.23-0.98,0.82-1.28,1.4
		c-0.1,0.2,0.03,0.29,0.18,0.19c0.1-0.07,0.17-0.15,0.39-0.16c0.64-0.03,2.27,0.52,3.42,0.78c-1.65,0.6-4.2,1.43-5.57,0.6
		c-0.15-0.39-0.31-0.78-0.56-1.14c-0.11-0.17-0.18-0.09-0.19,0l-0.13,1.13c0.25,0.5,0.98,1.74,0.66,2.82
		c-0.51,0.96-1.96,1.84-3.85,1.83c-1.41-0.01-2.24-0.87-2.32-1.72c-0.08-0.86,0.25-1.62,0.43-2.4c0.08-0.36-0.15-0.42-0.31-0.1
		c-0.38,0.76-0.54,1.6-0.62,2.44c-0.2,2.28,1.17,2.89,2.67,2.98c2.36,0.14,4.27-1.45,4.4-2.86c0.04-0.46,0.11-1.16,0.1-1.58
		c1.86,0.28,3.46-0.38,5.07-0.96c1.4-0.5,2.75-0.85,4.12-0.59c0.09,0.02,0.07,0.17,0.16,0.07c0.28-0.28,0.53-0.59,0.71-1.03
		c0.11-0.28-0.15-0.16-0.3-0.15c-2.05,0.16-4.75-0.39-6.16-0.95c0.69-0.38,1.38-0.85,1.88-1.61c0.91-1.38,1.62-1.97,1.9,0.36
		c0.02,0.17,0.13,0.2,0.21,0.06c0.18-0.29,0.41-0.67,0.34-0.98l-0.2-0.99C220.37,377.9,219.58,377.92,218.67,379.28z M213.08,378.26
		c-0.03,0.08-0.09,0.2-0.12,0.28c-0.04,0.14,0.04,0.24,0.11,0.13c0.08-0.13,0.19-0.25,0.32-0.33c0.31-0.19,0.65-0.26,0.99-0.23
		c0.31,0.03,0.89,0.25,0.89,0.28c0,0.07-1.35,0.73-1.56,0.87c-0.09,0.06-0.2,0.16-0.18,0.27c0.02,0.08,0.15,0.1,0.25,0.06
		c0.53-0.19,0.72-0.18,1.15-0.36c0.58-0.25,0.75-0.55,0.85-0.58c0.04-0.01,0.09-0.01,0.14-0.05c0.17-0.16,0.31-0.57,0.32-0.71
		c-0.02-0.11-0.4-0.15-0.51-0.17c-0.38-0.09-0.75-0.29-1.14-0.32C213.96,377.34,213.39,377.61,213.08,378.26z M218.35,375.09
		c-0.17,0.28-0.4,0.69-0.53,0.94c-0.05,0.1-0.05,0.17,0.06,0.23c0.22,0.12,0.61,0.33,0.89,0.48c0.12,0.06,0.18,0.05,0.24-0.03
		c0.15-0.25,0.38-0.64,0.52-0.88c0.05-0.09,0.07-0.16-0.02-0.21c-0.26-0.16-0.69-0.42-0.95-0.57
		C218.45,374.99,218.4,375.01,218.35,375.09z M209.25,375.64c0.1,0.12,0.26,0.37,0.29,0.8c0,0.13-0.02,0.3-0.03,0.31
		c-0.01,0.01-0.24-0.09-0.28-0.11c-0.08-0.04-0.31-0.13-0.71-0.28c-0.16-0.03,0-0.28,0-0.28c0.06-0.11,0.16-0.25,0.27-0.36l0.15-0.1
		C209.04,375.58,209.19,375.55,209.25,375.64z M209.16,374.89c-0.46,0.08-1,0.72-1.23,1.45c-0.1,0.33-0.04,0.52,0.14,0.63
		c0.26,0.16,0.64,0.29,1.09,0.41c-0.52,0.87-2.2,2-2.51,2.18c-0.37,0.21-0.3,0.44,0.15,0.24c1.69-0.76,2.52-1.57,2.9-2.29
		c0.12,0.02,0.22,0.06,0.34,0.09c0.2,0.05,0.16,0.08,0.26-0.24c0.05-0.15,0.09-0.26,0.1-0.33l-0.51-0.17l0.05-0.18
		c0.06-0.58-0.09-1.06-0.14-1.21C209.67,375.01,209.44,374.84,209.16,374.89z M220.56,372.28c-0.93,0.39-4.1,1.56-4.92,1.91
		c-0.05,0.02-0.08,0.03-0.1,0.1c-0.03,0.1-0.13,0.42-0.18,0.59c-0.02,0.07,0.04,0.07,0.1,0.05c0.11-0.05,0.26-0.13,0.38-0.18
		c0.64-0.27,3.66-1.41,4.49-1.73c0.05-0.02,0.1-0.05,0.12-0.11c0.05-0.11,0.13-0.39,0.17-0.55
		C220.65,372.28,220.62,372.25,220.56,372.28z M174.21,390.66c-0.93,0.39-3.52,1.42-4.34,1.77c-0.05,0.02-0.08,0.03-0.1,0.1
		c-0.03,0.1-0.13,0.42-0.18,0.59c-0.02,0.07,0.04,0.07,0.1,0.04c0.11-0.04,0.26-0.13,0.39-0.18c0.64-0.27,3.08-1.27,3.91-1.6
		c0.05-0.02,0.1-0.05,0.12-0.11c0.05-0.11,0.13-0.39,0.17-0.55C174.31,390.66,174.27,390.63,174.21,390.66z M165.02,384.21
		c-0.13,0.26-0.09,0.64,0.16,0.81c0.21,0.15,0.56,0.3,0.95,0.5c-0.18,0.08-0.63,0.4-0.79,0.57c-0.07,0.18-0.15,0.49-0.19,0.67
		c-0.02,0.06,0.04,0.14,0.11,0.08c0.41-0.3,1.03-0.69,1.69-0.99c0.6-0.28,1.08-0.46,1.54-0.53c0.07-0.02,0.38-0.7,0.43-0.8
		c0.06-0.13,0-0.16-0.09-0.14c-0.52,0.15-0.92,0.28-1.56,0.28c-0.79,0-1.46-0.55-1.46-0.78c0-0.18,0.53-0.59,0.74-0.57
		c0.61,0.04,0.65,0.57,0.81,0.56c0.2-0.01,0.53-0.74,0.53-0.93c0.01-0.21-0.45-0.66-0.85-0.65
		C166.39,382.3,165.39,383.49,165.02,384.21z M180.56,387.84c-0.47,1.23-1.87,0.55-2.35-0.53
		C178.85,387.31,180.63,387.49,180.56,387.84z M202.16,383.92c0.11,0.31-2.28-0.47-1.83-0.76c0.32-0.33,0.6-0.5,0.85-0.5
		C201.6,382.65,201.92,383.09,202.16,383.92z M179.71,382.72c0.73,0.79-1.13,1.94-1.6,2.12c0.16-0.43,0.67-2.38,1.31-2.3
		C179.52,382.55,179.61,382.61,179.71,382.72z M179.55,381.13c-0.24,0.03-0.48,0.21-0.68,0.54c-0.5,0.87-0.85,2.17-1.25,3.32
		c-1.64,0.82-4.81,0.91-5.34-0.7c-0.14-0.42-0.3-0.09-0.31,0.01c-0.11,0.81-0.2,1.68,0.73,2.03c-1.42,3.4-4.33,3.44-6.89,2.8
		c-0.58-0.14-0.6,0.27-0.2,0.39c2.98,0.94,5.97,1.96,7.71-2.95c0.98,0.31,2.02,0.34,3.12,0.09c0.1-0.02,0.23-0.08,0.24,0.08
		c-0.02,0.39,0.18,0.48,0.49,0.45c0.31-0.03,0.43,0.08,0.45,0.22c0.24,1.9,2.21,3.17,3.03,1.98c0.38-0.55,0.61-1.96,0.07-2.69
		c1.38-0.25,2.75-0.56,3.96-1.53c-0.04,2.03,3.21,1.83,4.33,1.69c0.59-0.07,1.19-0.32,1.77-0.23c1.01,0.15,1.97,0.32,3.53-0.77
		c0.48,0.3,0.93,0.62,1.56,0.76c0.69,0.16,0.71-0.77,1.1-1.22c0.05-0.05,0.08-0.12,0.16-0.09c0.51,0.17,1.31,1.52,2.62-0.76
		c0.08-0.12,0.12-0.07,0.22,0c0.73,0.58,2.61,1.25,2.83,0.65c0.3-0.84-0.01-1.87-0.39-2.88c-0.6-1.59-1.48-1.07-1.98-0.15
		c-0.33,0.6-0.66,1.17-0.96,1.77c-0.4,0.79-0.88,0.79-1.43,0.7c-0.46-0.07-0.82-0.08-0.66-0.72c0.08-0.32-0.14-0.52-0.3-0.11
		l-0.45,1.22c-0.31,0.81-1.06,0.06-1.65-0.09l0.38-0.93c0.06-0.14-0.09-0.59-0.27-0.24c-0.83,1.62-2.16,1.73-3.48,1.89
		c-0.01-0.54,0.47-0.96,0.51-1.54c0.03-0.38-0.25-0.53-0.35-0.11c-0.35,1.41-2.28,1.68-3.61,1.68c-1.32,0-3.35-0.36-3.1-1.66
		c0.1-0.52-0.31-0.2-0.43-0.05c-1.03,1.26-4.93,1.87-5.94,1.83c0.89-0.72,1.73-1.54,1.66-3.42
		C180.33,381.48,179.95,381.09,179.55,381.13z M162.45,383.12c-0.35,0.51-0.83,0.73-1.37,0.22c-0.19-0.18-0.18-0.24-0.1-0.44
		c0.18-0.35,0.43-0.52,0.6-0.53C161.83,382.36,162.25,382.82,162.45,383.12z M161.05,381.34c-0.33,0.36-0.61,1.16-0.63,1.91
		c-0.04,0.84,0.41,1.68,1.21,1.7c0.49,0.01,0.94-0.44,1.2-1.08c0.17,1.04-0.69,2.57-1.89,3.53c-1.41,1.07-2.75,1.2-4.73,1.11
		c-0.32-0.04-0.47,0.28-0.09,0.37c1.77,0.41,4.18,0.47,5.44-0.66c1.04-0.93,1.66-2.37,1.76-4c0.05-1.02-0.27-2.19-1.12-2.93
		C161.75,380.91,161.41,380.94,161.05,381.34z M171.36,379.98c-0.17,0.28-0.4,0.69-0.53,0.94c-0.05,0.1-0.05,0.17,0.06,0.24
		c0.22,0.12,0.61,0.33,0.89,0.48c0.12,0.06,0.18,0.05,0.24-0.03c0.15-0.25,0.38-0.63,0.52-0.88c0.05-0.09,0.07-0.16-0.02-0.21
		c-0.26-0.16-0.69-0.42-0.96-0.57C171.46,379.88,171.41,379.89,171.36,379.98z M156.54,379.79c-0.12,0.4-0.21,0.74-0.28,1.12
		c0.66,0.93,1.18,1.97,1.37,3.32c-0.68,1.33-2.37,1.98-3.78,1.99c-1.26,0.02-2.54-0.62-2.54-2.04c0-0.68,0.24-1.43,0.56-2.03
		c0.05-0.09,0.06-0.21,0.01-0.25c-0.06-0.05-0.16-0.01-0.24,0.1c-0.56,0.76-0.89,1.81-0.89,2.75c0.02,1.9,1.59,2.75,3.32,2.68
		c1.5-0.06,3-0.92,3.61-2.22c0.25-0.54,0.32-1.23,0.32-1.8c-0.01-1.32-0.45-2.6-1.3-3.67C156.63,379.65,156.57,379.69,156.54,379.79
		z M184.26,379.27c-0.16,0.24-0.35,0.59-0.54,0.88c-0.27-0.18-0.62-0.39-0.86-0.55c-0.13-0.08-0.18-0.08-0.26,0.05
		c-0.14,0.21-0.35,0.54-0.5,0.8c-0.05,0.09-0.04,0.18,0.1,0.26c0.25,0.15,0.66,0.38,0.9,0.51c0.08,0.04,0.14,0.02,0.2-0.06
		c0.13-0.18,0.28-0.45,0.49-0.79c0.36,0.21,0.65,0.4,0.94,0.54c0.08,0.04,0.12,0.03,0.18-0.04c0.14-0.18,0.4-0.58,0.5-0.78
		c0.07-0.14,0.05-0.19-0.07-0.27c-0.19-0.12-0.65-0.41-0.88-0.56C184.35,379.18,184.3,379.2,184.26,379.27z M153.66,378.67
		c-0.17,0.28-0.4,0.69-0.53,0.95c-0.05,0.1-0.05,0.17,0.06,0.23c0.22,0.12,0.61,0.33,0.89,0.48c0.12,0.06,0.19,0.05,0.24-0.03
		c0.15-0.25,0.38-0.64,0.52-0.88c0.05-0.09,0.07-0.16-0.02-0.21c-0.26-0.16-0.69-0.42-0.95-0.57
		C153.76,378.57,153.71,378.59,153.66,378.67z M193.52,378.05c-0.03,0.08-0.09,0.2-0.12,0.28c-0.04,0.14,0.04,0.24,0.11,0.13
		c0.09-0.13,0.19-0.25,0.32-0.33c0.31-0.19,0.65-0.26,0.99-0.23c0.31,0.03,0.89,0.25,0.89,0.28c0,0.07-1.35,0.73-1.56,0.87
		c-0.09,0.06-0.21,0.16-0.18,0.27c0.02,0.08,0.15,0.1,0.25,0.06c0.53-0.19,0.72-0.18,1.15-0.36c0.58-0.25,0.75-0.55,0.85-0.58
		c0.04-0.01,0.09-0.01,0.14-0.05c0.17-0.16,0.3-0.57,0.32-0.71c-0.02-0.11-0.41-0.15-0.52-0.17c-0.38-0.09-0.75-0.29-1.14-0.32
		C194.4,377.12,193.83,377.4,193.52,378.05z M176.63,377.27c-0.03,0.08-0.09,0.2-0.12,0.28c-0.04,0.14,0.04,0.24,0.11,0.13
		c0.09-0.13,0.19-0.25,0.32-0.33c0.31-0.19,0.65-0.26,0.99-0.23c0.31,0.03,0.89,0.25,0.89,0.28c0,0.07-1.35,0.73-1.56,0.87
		c-0.09,0.06-0.2,0.16-0.18,0.27c0.02,0.08,0.15,0.1,0.25,0.06c0.53-0.19,0.72-0.18,1.15-0.36c0.58-0.25,0.75-0.55,0.85-0.58
		c0.04-0.01,0.09-0.01,0.14-0.05c0.17-0.16,0.3-0.57,0.32-0.71c-0.02-0.11-0.41-0.15-0.52-0.17c-0.38-0.09-0.75-0.29-1.14-0.32
		C177.52,376.35,176.95,376.62,176.63,377.27z M166.9,376.08c0.1,0.12,0.26,0.37,0.29,0.8c0,0.12-0.02,0.3-0.03,0.31
		c-0.01,0.01-0.24-0.09-0.28-0.11c-0.08-0.04-0.31-0.13-0.71-0.28c-0.16-0.03,0-0.28,0-0.28c0.06-0.11,0.16-0.25,0.27-0.37l0.15-0.1
		C166.69,376.02,166.84,375.98,166.9,376.08z M166.81,375.33c-0.46,0.08-1,0.72-1.23,1.45c-0.1,0.33-0.04,0.52,0.14,0.63
		c0.26,0.16,0.64,0.29,1.09,0.41c-0.52,0.87-2.2,2-2.51,2.18c-0.36,0.21-0.3,0.44,0.15,0.24c1.69-0.76,2.52-1.57,2.9-2.29
		c0.12,0.02,0.22,0.06,0.34,0.09c0.2,0.05,0.16,0.08,0.26-0.24c0.05-0.15,0.09-0.26,0.1-0.33l-0.51-0.17l0.05-0.18
		c0.06-0.58-0.09-1.06-0.14-1.21C167.31,375.44,167.09,375.28,166.81,375.33z M186.74,375.07c-0.93,0.39-4.68,1.66-5.5,2.01
		c-0.05,0.02-0.08,0.03-0.1,0.1c-0.03,0.1-0.13,0.42-0.18,0.59c-0.02,0.07,0.04,0.07,0.1,0.04c0.11-0.05,0.26-0.13,0.38-0.18
		c0.64-0.27,4.25-1.51,5.07-1.84c0.05-0.02,0.1-0.05,0.12-0.11c0.05-0.12,0.13-0.39,0.17-0.55
		C186.83,375.06,186.79,375.04,186.74,375.07z M156.53,374.83c-0.93,0.39-4.1,1.56-4.92,1.91c-0.05,0.02-0.08,0.03-0.1,0.1
		c-0.03,0.1-0.13,0.42-0.18,0.59c-0.02,0.07,0.04,0.07,0.1,0.04c0.11-0.05,0.26-0.13,0.39-0.18c0.64-0.27,3.66-1.41,4.49-1.73
		c0.05-0.02,0.1-0.05,0.12-0.11c0.05-0.12,0.13-0.39,0.17-0.55C156.62,374.83,156.58,374.8,156.53,374.83z M201.44,375.48
		c0.1,0.12,0.26,0.37,0.29,0.8c0,0.12-0.02,0.3-0.03,0.31c-0.01,0.01-0.24-0.09-0.28-0.11c-0.08-0.04-0.31-0.13-0.71-0.28
		c-0.16-0.03,0-0.28,0-0.28c0.06-0.11,0.16-0.25,0.27-0.37l0.15-0.1C201.23,375.41,201.38,375.38,201.44,375.48z M201.35,374.72
		c-0.46,0.08-1,0.72-1.23,1.45c-0.1,0.33-0.04,0.52,0.14,0.63c0.26,0.16,0.64,0.29,1.09,0.4c-0.52,0.87-2.2,2-2.51,2.18
		c-0.36,0.21-0.3,0.44,0.16,0.24c1.69-0.76,2.52-1.57,2.9-2.29c0.12,0.02,0.22,0.06,0.34,0.09c0.2,0.05,0.16,0.08,0.26-0.24
		c0.05-0.15,0.09-0.26,0.1-0.33l-0.51-0.17l0.05-0.18c0.06-0.58-0.09-1.06-0.14-1.21C201.86,374.84,201.63,374.68,201.35,374.72z"/>
</g>
</svg>
