<?xml version="1.0" encoding="iso-8859-1"?>
<!-- Generator: Adobe Illustrator 25.2.1, SVG Export Plug-In . SVG Version: 6.00 Build 0)  -->
<svg version="1.1" xmlns="http://www.w3.org/2000/svg" xmlns:xlink="http://www.w3.org/1999/xlink" x="0px" y="0px"
	 viewBox="0 0 293.23 484.99" enable-background="new 0 0 293.23 484.99" xml:space="preserve">
<g id="Ornaments">
</g>
<g id="Header__x26__Marks__x26__Page_No.">
</g>
<g id="Aya_No.">
</g>
<g id="Quran_Text">
	<path fill-rule="evenodd" clip-rule="evenodd" d="M147.44,416.47c-0.94,0.35-1.99,0.7-2.82,1.02c-0.05,0.02-0.08,0.03-0.11,0.1
		c-0.04,0.1-0.15,0.41-0.2,0.58c-0.02,0.07,0.04,0.07,0.1,0.05c0.11-0.04,0.26-0.12,0.39-0.17c0.65-0.24,1.55-0.56,2.38-0.86
		c0.05-0.02,0.1-0.04,0.13-0.1c0.05-0.11,0.15-0.38,0.2-0.54C147.54,416.47,147.5,416.45,147.44,416.47z M144.27,414.63
		c-0.09,0.19-0.06,0.39,0.13,0.53c0.14,0.1,0.41,0.28,0.67,0.41c-0.11,0.05-0.37,0.15-0.52,0.26c-0.04,0.12-0.09,0.31-0.11,0.43
		c-0.01,0.04,0.03,0.09,0.07,0.06c0.46-0.27,1.84-0.62,2.44-0.76c0.04-0.01,0.23-0.44,0.26-0.51c0.04-0.08,0-0.11-0.06-0.09
		c-0.34,0.09-0.67,0.15-1.09,0.14c-0.52-0.01-1.31-0.57-1.31-0.68c0.01-0.11,0.62-0.37,0.76-0.36c0.4,0.04,0.46,0.44,0.56,0.44
		c0.13,0,0.33-0.48,0.33-0.6c0-0.14-0.33-0.5-0.59-0.5C145.39,413.41,144.5,414.17,144.27,414.63z M156.99,409.18
		c-0.35,0.51-0.83,0.73-1.37,0.22c-0.19-0.18-0.18-0.24-0.1-0.44c0.18-0.35,0.43-0.52,0.6-0.53
		C156.37,408.42,156.79,408.88,156.99,409.18z M155.6,407.4c-0.33,0.36-0.61,1.16-0.63,1.91c-0.04,0.84,0.41,1.68,1.21,1.7
		c0.49,0,0.94-0.44,1.2-1.08c0.17,1.04-0.69,2.57-1.89,3.53c-1.41,1.07-2.75,1.2-4.73,1.11c-0.32-0.04-0.47,0.28-0.09,0.37
		c1.77,0.41,4.18,0.47,5.44-0.66c1.04-0.93,1.66-2.37,1.76-4c0.05-1.02-0.27-2.19-1.12-2.93C156.29,406.97,155.95,407,155.6,407.4z
		 M133.96,405.18c-0.42,0.48-0.95,1.45-0.97,2.12c-0.01,0.23,0.06,0.45,0.19,0.58c0.14,0.15,0.39,0.15,0.59,0.17
		c0.31,0.03,0.62,0.04,0.8,0.16c0.08,0.06,0.09,0.07,0,0.16c-0.71,0.6-1.51,0.79-2.53,0.57c-0.36-0.07-0.47,0.26-0.09,0.42
		c0.84,0.36,2.03,0.52,2.75-0.24c0.36-0.35,0.77-1.31,0.47-1.77c-0.19-0.31-0.64-0.31-1.1-0.34c-0.2-0.01-0.4-0.02-0.51-0.22
		c-0.08-0.17,0-0.35,0.12-0.51c0.09-0.13,0.21-0.24,0.3-0.3c0.09-0.06,0.14-0.07,0.24,0c0.05,0.03,0.1,0.09,0.16,0.17
		c0.07,0.11,0.15,0.11,0.2,0l0.32-0.7c0.05-0.15,0.09-0.25-0.05-0.36c-0.06-0.05-0.11-0.09-0.16-0.13
		c-0.08-0.05-0.16-0.12-0.24-0.13C134.27,404.82,134.07,405.04,133.96,405.18z M156.33,404.39c-0.22,0.41-0.85,0.52-1.3,0.38
		c-0.27-0.08-0.36-0.32-0.24-0.56c0.25-0.5,0.52-0.67,0.77-0.67C155.98,403.54,156.33,404.05,156.33,404.39z M154.63,403.53
		c-0.7,1.62,0.14,2.21,0.82,2.19c1.09-0.03,1.48-1.1,1.2-2.18c-0.18-0.67-0.55-0.92-0.95-0.9
		C155.3,402.65,154.88,402.94,154.63,403.53z M147.89,405.34c-0.09,0.18-0.24,0.57-0.24,0.68c0,0.05,0.17,0.25,0.36,0.52
		c0.61,0.85,0.93,1.79,0.75,3.07c-0.02,0.11-0.05,0.21,0.01,0.21c0.28-0.01,0.44-0.97,0.43-1.48c-0.02-1.23-0.52-2.21-1.14-2.98
		C147.99,405.28,147.94,405.25,147.89,405.34z M150.05,403.04c-0.64,0.65-1.83,1.13-2.76,1.11c-0.64-0.02-0.99-0.17-1.31-0.4
		c-0.08-0.06-0.16-0.04-0.22,0.03c-0.22,0.28-0.51,0.92-0.59,1.37c-0.02,0.08-0.03,0.19,0.01,0.21c0.04,0.01,0.1-0.01,0.13-0.07
		c0.08-0.22,0.19-0.6,0.38-0.81c0.03-0.03,0.08-0.01,0.11,0.01c0.4,0.27,1.01,0.42,1.63,0.39c0.87-0.04,2.44-0.57,2.69-1.75
		c0.01-0.06,0.02-0.11,0-0.12C150.12,402.98,150.09,403,150.05,403.04z M158.92,401.79c-0.04,0.01-0.07,0.07-0.09,0.16
		c-0.05,0.34-0.11,0.68-0.16,1.01c-0.04,0.29-0.02,0.32,0.02,0.56c0.12,0.67,0.27,1.33,0.4,1.98c0.16,0.78,0.31,1.53,0.48,2.35
		c0.28,1.41,0.62,3.21,0.78,4.65c0.02,0.16,0.13,0.14,0.16,0c0.29-1.41,0.03-2.85-0.32-4.58c-0.23-1.13-0.43-2.08-0.62-3.01
		c-0.22-1.01-0.43-2.02-0.56-2.99C159,401.81,158.96,401.78,158.92,401.79z M136.81,401.09c-0.93,0.39-5.12,1.74-5.93,2.09
		c-0.05,0.02-0.08,0.03-0.1,0.1c-0.03,0.1-0.18,0.48-0.22,0.65c-0.02,0.07,0.04,0.07,0.1,0.04c0.11-0.05,0.3-0.15,0.43-0.2
		c0.68-0.24,4.63-1.57,5.46-1.89c0.05-0.03,0.1-0.05,0.12-0.11c0.05-0.12,0.17-0.45,0.22-0.61
		C136.91,401.09,136.87,401.06,136.81,401.09z M150.88,400.24l-0.38,0.78c-0.38,0.72,0.14,0.84,0.29,1.52
		c0.56,2.48,1.09,5.09,1.65,7.66c-0.84,0.99-4.46,1.46-6.13-0.08c-0.33-0.3-0.58-0.01-0.71,0.18c-0.68,0.93-1.48,1.15-2.35,1.26
		c-0.93,0.12-1.74-0.13-2.04-1.23c-0.69-2.56-1.02-5.32-1.52-7.98c-0.05-0.3-0.25-0.21-0.29,0.04c-0.06,0.41-0.19,0.77-0.11,1.23
		l1.05,5.46c-1.17,1.9-5.64,2.57-7.17,2.66c-3.73,0.16-5.66-0.45-6.88-1.38c-0.29-0.23-0.55-0.02-0.33,0.29
		c1.58,2.17,3.95,2.39,6.11,2.4c2.88,0.01,7.86-1.43,8.43-3.07c0.2,1.35,0.62,2.71,1.9,2.79c1.19,0.08,2.76-0.18,3.6-1.78
		c1.24,1.89,4.86,1.54,6.26,0.62c0.59-0.39,0.76-1.45,0.66-2.47c-0.41-2.2-0.86-4.4-1.36-6.58c-0.04-0.17,0.01-0.26,0.11-0.34
		c0.36-0.33,0.28-0.5,0.18-0.67c-0.25-0.41-0.65-0.69-0.68-1.27C151.14,400.07,150.96,400.06,150.88,400.24z M157.33,399.77
		c-0.09,0.19-0.06,0.39,0.13,0.53c0.14,0.1,0.41,0.28,0.67,0.41c-0.11,0.05-0.37,0.15-0.52,0.26c-0.04,0.12-0.09,0.31-0.11,0.43
		c-0.01,0.04,0.02,0.09,0.07,0.06c0.46-0.27,1.84-0.62,2.44-0.76c0.04-0.01,0.23-0.44,0.26-0.5c0.04-0.09,0-0.11-0.06-0.09
		c-0.34,0.09-0.67,0.15-1.09,0.14c-0.52-0.01-1.31-0.57-1.31-0.68c0-0.11,0.62-0.37,0.76-0.36c0.4,0.03,0.46,0.44,0.56,0.44
		c0.13,0,0.33-0.48,0.33-0.6c0-0.14-0.33-0.5-0.59-0.5C158.45,398.55,157.55,399.3,157.33,399.77z M153.34,396.89
		c-0.93,0.39-3.52,1.42-4.34,1.77c-0.05,0.02-0.08,0.03-0.1,0.1c-0.03,0.1-0.13,0.42-0.18,0.59c-0.02,0.07,0.04,0.07,0.1,0.04
		c0.11-0.04,0.26-0.13,0.38-0.18c0.64-0.27,3.08-1.27,3.91-1.6c0.05-0.03,0.1-0.05,0.12-0.11c0.05-0.12,0.13-0.39,0.17-0.55
		C153.43,396.89,153.4,396.87,153.34,396.89z M158.46,395.03c0.1,0.12,0.26,0.37,0.29,0.8c0,0.12-0.02,0.3-0.03,0.31
		c-0.01,0.01-0.24-0.09-0.28-0.11c-0.08-0.04-0.31-0.13-0.71-0.28c-0.16-0.03,0-0.28,0-0.28c0.06-0.11,0.16-0.25,0.27-0.37l0.15-0.1
		C158.24,394.97,158.39,394.94,158.46,395.03z M158.37,394.28c-0.46,0.08-1,0.72-1.23,1.45c-0.1,0.33-0.03,0.52,0.14,0.63
		c0.26,0.16,0.64,0.29,1.09,0.4c-0.52,0.87-2.2,2-2.51,2.18c-0.36,0.21-0.3,0.44,0.16,0.24c1.69-0.76,2.52-1.57,2.9-2.29
		c0.12,0.02,0.22,0.06,0.34,0.09c0.2,0.05,0.16,0.08,0.26-0.24c0.05-0.15,0.09-0.26,0.1-0.33l-0.51-0.17l0.05-0.18
		c0.06-0.58-0.09-1.06-0.14-1.21C158.87,394.4,158.64,394.23,158.37,394.28z M116.88,413.97c-0.93,0.39-3.52,1.42-4.34,1.77
		c-0.05,0.02-0.08,0.03-0.1,0.1c-0.03,0.1-0.13,0.42-0.18,0.59c-0.02,0.07,0.04,0.07,0.1,0.05c0.11-0.05,0.26-0.13,0.38-0.18
		c0.64-0.27,3.09-1.27,3.91-1.6c0.05-0.02,0.1-0.05,0.12-0.11c0.05-0.12,0.13-0.39,0.17-0.55
		C116.97,413.97,116.94,413.95,116.88,413.97z M109.58,412.82c-0.16,0.24-0.35,0.59-0.54,0.88c-0.27-0.18-0.62-0.39-0.86-0.55
		c-0.13-0.08-0.18-0.07-0.26,0.05c-0.14,0.21-0.35,0.54-0.5,0.8c-0.05,0.09-0.04,0.18,0.1,0.26c0.26,0.15,0.66,0.38,0.9,0.51
		c0.08,0.04,0.14,0.01,0.2-0.07c0.13-0.18,0.28-0.45,0.49-0.79c0.36,0.21,0.65,0.4,0.94,0.54c0.08,0.04,0.12,0.03,0.18-0.04
		c0.14-0.18,0.39-0.58,0.5-0.78c0.07-0.14,0.05-0.19-0.06-0.27c-0.19-0.12-0.65-0.41-0.88-0.56
		C109.67,412.74,109.63,412.75,109.58,412.82z M102.05,406.69c-0.17,0.28-0.4,0.69-0.53,0.94c-0.05,0.1-0.05,0.17,0.06,0.23
		c0.22,0.12,0.61,0.33,0.89,0.48c0.12,0.06,0.19,0.05,0.24-0.03c0.15-0.25,0.38-0.64,0.52-0.88c0.05-0.09,0.07-0.16-0.02-0.21
		c-0.26-0.16-0.69-0.42-0.95-0.57C102.15,406.6,102.1,406.61,102.05,406.69z M109.27,406.62l-0.11,0.99c0,0.04,0,0.08,0.04,0.15
		c0.24,0.35,0.62,0.62,0.66,1.13c-0.81,0.67-2.85,1.21-4.18,0.64l-0.47-0.95c-0.07-0.15-0.19-0.15-0.2,0l-0.05,0.95
		c0.34,0.93,0.82,1.81,0.82,2.87c-0.74,1.32-1.92,1.89-3.27,1.96c-2.1,0.1-2.93-1.29-2.04-3.62c0.11-0.3-0.14-0.52-0.29-0.09
		c-1.03,3.07-0.42,4.99,2.12,4.88c2.05-0.09,4.24-1.07,3.76-4.61c1.2,0.07,2.36,0.25,3.9-0.96c0.21-0.16,0.27-0.88,0.31-1.19
		c0.12-0.98-0.31-1.58-0.82-2.11C109.37,406.55,109.28,406.52,109.27,406.62z M104.81,402.83c-0.93,0.39-4.1,1.56-4.92,1.91
		c-0.05,0.02-0.08,0.03-0.1,0.1c-0.03,0.1-0.13,0.42-0.18,0.59c-0.02,0.07,0.04,0.07,0.1,0.04c0.11-0.04,0.26-0.13,0.38-0.18
		c0.64-0.27,3.66-1.41,4.49-1.73c0.05-0.02,0.1-0.05,0.12-0.11c0.05-0.12,0.13-0.39,0.17-0.55
		C104.9,402.83,104.87,402.8,104.81,402.83z M113.75,401.86c-0.17,0.28-0.4,0.69-0.53,0.94c-0.05,0.1-0.05,0.17,0.06,0.23
		c0.22,0.12,0.61,0.33,0.89,0.48c0.11,0.06,0.18,0.05,0.24-0.03c0.15-0.25,0.38-0.64,0.52-0.88c0.05-0.09,0.07-0.16-0.02-0.21
		c-0.26-0.16-0.69-0.42-0.95-0.57C113.85,401.76,113.8,401.78,113.75,401.86z M120.95,401.41c-0.04,0.01-0.07,0.07-0.09,0.16
		c-0.05,0.34-0.11,0.68-0.16,1.01c-0.04,0.29-0.02,0.32,0.03,0.56c0.12,0.67,0.27,1.33,0.4,1.98c0.16,0.78,0.31,1.53,0.48,2.35
		c0.28,1.41,0.62,3.21,0.78,4.65c0.02,0.16,0.13,0.14,0.16,0c0.29-1.41,0.03-2.85-0.32-4.58c-0.23-1.13-0.43-2.08-0.62-3.01
		c-0.22-1.01-0.43-2.02-0.57-2.99C121.04,401.43,120.99,401.4,120.95,401.41z M117.3,400.37c-0.01,0-0.01,0.01-0.02,0.01
		c-0.01,0.01-0.02,0.01-0.03,0.03c-0.35,0.7-0.39,0.82-0.41,0.92c-0.05,0.17,0.01,0.38,0.17,0.62c0.05,0.06,0.09,0.19,0.1,0.31
		c0.55,2.98,1.43,6.03,1.96,9.05c-0.99,0.88-2.58-0.34-3.09-2c-0.55-1.55-0.86-2.7-1.09-3.94c-0.02-0.12-0.12-0.12-0.14-0.06
		c-0.13,0.43-0.2,1.1-0.09,1.61c0.23,0.87,0.46,1.64,0.69,2.62c-0.41,0.9-1.5,1.48-3.2,1.62c-0.78-0.07-0.83-0.28-0.88-0.68
		c-0.04-0.28-0.27,0.01-0.31,0.44c-0.12,1.54,0.72,1.49,1.25,1.46c1.03-0.09,1.87-0.47,2.29-0.76c0.91-0.62,0.81-1.43,1.09-1.55
		c0.36,0.88,0.92,2.71,2.56,2.79c1.02-0.02,1.4-0.64,1.35-1.63c0-2.25-1.01-5.76-1.6-8.55l0.39-0.78c0.03-0.07,0.05-0.13-0.03-0.24
		c-0.32-0.36-0.63-0.75-0.86-1.22c-0.03-0.05-0.06-0.07-0.08-0.07C117.32,400.37,117.3,400.37,117.3,400.37z M122.6,398.75
		c0.08,0.08,0.17,0.19,0.16,0.3c-0.13,0.29-0.95,0.58-1.26,0.66c-0.06,0.01-0.38,0.08-0.36-0.02c0.19-0.3,0.37-0.62,0.64-0.87
		C122.05,398.61,122.33,398.51,122.6,398.75z M121.81,398.22c-0.36,0.37-0.85,1.05-1.06,1.49c-0.16-0.01-0.46-0.17-0.6-0.24
		c-0.19-0.09-0.32,0.1-0.41,0.25c-0.19,0.29-0.33,0.58-0.44,0.9l-0.11,0.31c0,0.13,0.06,0.17,0.16,0.07
		c0.22-0.22,0.39-0.82,0.52-0.74c0.75,0.43,1.71,0.28,2.43-0.22c0.56-0.4,0.99-1.01,0.83-1.69c-0.06-0.24-0.33-0.47-0.59-0.49
		C122.26,397.84,122.02,398.01,121.81,398.22z M118.3,397.5l-0.23,0.43c-0.03,0.05-0.05,0.08-0.03,0.13
		c0.07,0.17,0.12,0.37,0.12,0.48c-0.27,0.26-0.56,0.3-0.77,0.13c-0.14-0.11-0.19-0.32-0.17-0.59c0.01-0.2,0.03-0.27-0.14-0.13
		c-0.23,0.18-0.17,0.16-0.18,0.27c-0.08,0.64-0.36,0.93-0.85,0.97c-0.31,0.02-0.54-0.2-0.32-0.82c0.05-0.13-0.05-0.27-0.18,0
		c-0.47,0.93-0.18,1.45,0.29,1.52c0.39,0.06,0.85-0.16,1.09-0.75c0.18,0.3,0.55,0.39,0.88,0.3c0.42-0.11,0.51-0.3,0.63-0.65
		c0.12-0.33,0.12-0.77-0.04-1.29C118.36,397.41,118.32,397.46,118.3,397.5z M119.03,394.99c-0.93,0.39-4.68,1.66-5.5,2.01
		c-0.05,0.02-0.08,0.03-0.1,0.1c-0.03,0.1-0.13,0.42-0.18,0.59c-0.02,0.07,0.04,0.07,0.1,0.04c0.11-0.04,0.26-0.13,0.38-0.18
		c0.64-0.27,4.25-1.51,5.07-1.84c0.05-0.02,0.1-0.05,0.12-0.11c0.05-0.11,0.13-0.39,0.17-0.55
		C119.12,394.98,119.09,394.96,119.03,394.99z M75.73,407.54c0,1.29-1.57,1.85-2.46,1.51c-0.2-0.07-0.24-0.09-0.25,0.11
		c-0.02,0.44-0.03,0.87,0.67,1.19c-0.76,2.91-3.17,4.25-6.06,2.94c-0.37-0.17-0.73,0.13-0.21,0.37c3.3,1.54,5.88,1.68,6.83-3.26
		c0.65-0.21,1.21-0.56,1.65-1.13c0.12,1.16,0.29,2.3,1.49,3.03c2.45,1.5,7.34,0.58,8.85-0.03c2.52,0.19,3.6-0.31,4.22-1.04
		c0.03-0.03,0.04-0.07,0.15,0c0.39,0.24,0.74,0.5,1.22,0.68c0.55,0.2,0.99,0.13,1.21-0.41c0.45-1.07,0.37-2.44,0.16-3.28
		c-0.07-0.3-0.27-0.25-0.32-0.05l-0.23,1.02l0.19,1.41c-0.22,0.38-1.26-0.2-1.79-0.37c0.1-0.4,0.29-0.67,0.28-1.21
		c-0.01-0.25-0.23-0.37-0.33-0.06c-0.48,1.91-1.84,2.05-3.18,2.23c0.38-0.54,0.52-1.09,0.57-1.65c0.03-0.36-0.31-0.44-0.42-0.03
		c-0.54,2.03-4.67,2.28-6.85,2.31c-4.01,0.07-4.74-1.81-5.01-4.28C76.06,407.09,75.73,407.23,75.73,407.54z M66.83,408.22
		c-0.35,0.51-0.83,0.73-1.37,0.22c-0.19-0.18-0.18-0.24-0.1-0.44c0.18-0.36,0.43-0.52,0.6-0.53
		C66.2,407.46,66.62,407.92,66.83,408.22z M65.43,406.44c-0.33,0.36-0.61,1.16-0.63,1.91c-0.04,0.84,0.41,1.68,1.21,1.7
		c0.49,0.01,0.94-0.44,1.2-1.08c0.17,1.03-0.69,2.57-1.89,3.53c-1.41,1.07-2.75,1.2-4.73,1.11c-0.32-0.04-0.47,0.28-0.09,0.37
		c1.77,0.41,4.18,0.47,5.44-0.66c1.04-0.93,1.66-2.37,1.76-4c0.05-1.02-0.27-2.19-1.12-2.93C66.13,406,65.79,406.04,65.43,406.44z
		 M90.79,404.99c-0.16,0.24-0.35,0.59-0.54,0.88c-0.27-0.18-0.62-0.39-0.86-0.55c-0.13-0.09-0.18-0.07-0.26,0.05
		c-0.14,0.21-0.35,0.54-0.5,0.8c-0.05,0.1-0.04,0.18,0.1,0.26c0.26,0.15,0.66,0.38,0.9,0.51c0.08,0.04,0.14,0.01,0.2-0.07
		c0.13-0.18,0.28-0.45,0.49-0.79c0.36,0.21,0.65,0.4,0.94,0.54c0.08,0.04,0.12,0.03,0.18-0.04c0.14-0.18,0.39-0.58,0.5-0.78
		c0.07-0.14,0.05-0.19-0.07-0.27c-0.19-0.12-0.65-0.41-0.88-0.56C90.88,404.9,90.84,404.91,90.79,404.99z M72.83,403.48
		c-0.93,0.39-3.03,1.23-3.85,1.58c-0.05,0.03-0.08,0.03-0.1,0.1c-0.03,0.1-0.13,0.42-0.18,0.59c-0.02,0.07,0.04,0.07,0.1,0.04
		c0.11-0.05,0.26-0.13,0.38-0.18c0.64-0.27,2.6-1.07,3.42-1.4c0.05-0.03,0.1-0.05,0.12-0.11c0.05-0.12,0.13-0.39,0.17-0.55
		C72.92,403.48,72.88,403.45,72.83,403.48z M75.95,403.31c-0.16,0.24-0.35,0.59-0.54,0.88c-0.27-0.18-0.62-0.39-0.86-0.55
		c-0.13-0.08-0.18-0.07-0.26,0.05c-0.14,0.21-0.35,0.54-0.5,0.8c-0.05,0.1-0.04,0.18,0.1,0.26c0.26,0.15,0.66,0.38,0.9,0.51
		c0.08,0.04,0.14,0.02,0.2-0.07c0.13-0.18,0.28-0.45,0.49-0.79c0.36,0.21,0.65,0.4,0.94,0.54c0.08,0.04,0.12,0.03,0.18-0.04
		c0.14-0.18,0.39-0.58,0.5-0.78c0.07-0.14,0.05-0.19-0.07-0.27c-0.19-0.12-0.65-0.41-0.88-0.56C76.04,403.22,76,403.23,75.95,403.31
		z M89.33,403.18c-0.17,0.28-0.4,0.69-0.53,0.94c-0.05,0.1-0.05,0.17,0.06,0.24c0.22,0.12,0.61,0.33,0.89,0.48
		c0.11,0.06,0.18,0.05,0.24-0.03c0.15-0.25,0.38-0.64,0.52-0.88c0.05-0.09,0.07-0.16-0.02-0.21c-0.26-0.16-0.69-0.42-0.95-0.57
		C89.42,403.08,89.38,403.1,89.33,403.18z M95.04,401.42c-0.04,0.01-0.07,0.07-0.09,0.16l-0.16,1.01c-0.04,0.29-0.03,0.32,0.01,0.56
		c0.12,0.67,0.27,1.33,0.4,1.98c0.3,1.46,0.6,2.86,0.86,4.21c0.21,1.08,0.35,2.19,0.42,3.17c0.01,0.19,0.11,0.17,0.15,0.03
		c0.15-0.55,0.2-1.12,0.18-1.72c-0.01-0.59-0.21-1.78-0.4-2.72c-0.22-1.18-0.5-2.47-0.72-3.54c-0.21-1.01-0.42-2.02-0.55-2.99
		C95.12,401.45,95.08,401.41,95.04,401.42z M61.26,400.45c-0.04,0.01-0.07,0.07-0.09,0.16l-0.16,1.01
		c-0.04,0.29-0.03,0.32,0.01,0.56c0.12,0.67,0.27,1.33,0.4,1.98c0.3,1.46,0.6,2.85,0.86,4.21c0.21,1.08,0.35,2.19,0.42,3.17
		c0.01,0.19,0.11,0.17,0.15,0.03c0.15-0.55,0.2-1.12,0.18-1.72c-0.01-0.59-0.21-1.78-0.4-2.72c-0.22-1.18-0.5-2.47-0.72-3.54
		c-0.21-1.01-0.42-2.02-0.55-2.99C61.34,400.48,61.3,400.44,61.26,400.45z M87.76,400.69c-0.03,0.08-0.09,0.2-0.12,0.28
		c-0.04,0.14,0.04,0.24,0.11,0.13c0.08-0.13,0.19-0.25,0.32-0.33c0.31-0.19,0.65-0.26,0.99-0.23c0.31,0.03,0.89,0.25,0.89,0.28
		c0,0.07-1.35,0.73-1.56,0.87c-0.09,0.06-0.2,0.16-0.18,0.27c0.02,0.08,0.15,0.1,0.25,0.06c0.53-0.19,0.72-0.18,1.15-0.36
		c0.58-0.25,0.75-0.55,0.85-0.58c0.04-0.01,0.09-0.01,0.14-0.05c0.17-0.16,0.31-0.57,0.32-0.71c-0.02-0.11-0.41-0.15-0.52-0.17
		c-0.38-0.09-0.75-0.29-1.14-0.32C88.64,399.77,88.07,400.04,87.76,400.69z M66.5,400.53c0.11,0.12,0.26,0.37,0.29,0.8
		c0,0.12-0.02,0.3-0.03,0.31c-0.01,0.01-0.24-0.09-0.28-0.11c-0.08-0.04-0.31-0.13-0.71-0.28c-0.16-0.03,0-0.28,0-0.28
		c0.06-0.11,0.16-0.25,0.27-0.37l0.15-0.1C66.28,400.47,66.43,400.44,66.5,400.53z M66.41,399.78c-0.46,0.08-1,0.72-1.23,1.45
		c-0.1,0.33-0.04,0.52,0.14,0.63c0.26,0.16,0.64,0.29,1.09,0.41c-0.52,0.87-2.2,2-2.51,2.18c-0.36,0.21-0.3,0.44,0.15,0.24
		c1.69-0.76,2.52-1.57,2.9-2.29c0.12,0.02,0.22,0.06,0.34,0.09c0.2,0.05,0.16,0.08,0.26-0.24c0.05-0.15,0.09-0.26,0.1-0.33
		l-0.51-0.17l0.05-0.18c0.06-0.58-0.09-1.06-0.14-1.21C66.91,399.9,66.69,399.73,66.41,399.78z M77.36,399.32
		c-0.93,0.39-3.52,1.42-4.34,1.77c-0.05,0.02-0.08,0.03-0.1,0.1c-0.03,0.1-0.13,0.42-0.18,0.59c-0.02,0.07,0.04,0.07,0.1,0.04
		c0.11-0.04,0.26-0.13,0.39-0.18c0.64-0.27,3.08-1.27,3.91-1.6c0.05-0.02,0.1-0.05,0.13-0.11c0.05-0.11,0.13-0.39,0.17-0.55
		C77.45,399.32,77.42,399.3,77.36,399.32z M96.53,398.93c0.08,0.08,0.17,0.19,0.16,0.3c-0.13,0.29-0.95,0.58-1.26,0.66
		c-0.06,0.01-0.38,0.08-0.36-0.02c0.19-0.3,0.37-0.62,0.64-0.87C95.98,398.79,96.26,398.69,96.53,398.93z M95.75,398.4
		c-0.36,0.37-0.85,1.05-1.07,1.49c-0.16-0.01-0.46-0.17-0.6-0.24c-0.19-0.09-0.32,0.1-0.41,0.25c-0.18,0.29-0.33,0.58-0.44,0.9
		l-0.11,0.31c0,0.14,0.06,0.17,0.16,0.07c0.22-0.22,0.39-0.82,0.52-0.74c0.75,0.43,1.71,0.28,2.43-0.22
		c0.56-0.4,0.99-1.01,0.83-1.69c-0.06-0.24-0.33-0.47-0.59-0.49C96.2,398.02,95.95,398.19,95.75,398.4z M61.74,398.4
		c-0.22,0.41-0.85,0.52-1.3,0.38c-0.27-0.08-0.36-0.32-0.24-0.56c0.25-0.5,0.52-0.67,0.77-0.67
		C61.38,397.55,61.73,398.06,61.74,398.4z M60.03,397.53c-0.7,1.62,0.14,2.21,0.82,2.19c1.09-0.03,1.48-1.1,1.2-2.18
		c-0.18-0.67-0.55-0.92-0.95-0.9C60.7,396.66,60.28,396.95,60.03,397.53z M27.97,403.76c-0.15,0.24-0.35,0.59-0.54,0.88
		c-0.27-0.18-0.62-0.39-0.86-0.55c-0.13-0.08-0.18-0.07-0.26,0.05c-0.14,0.21-0.35,0.54-0.5,0.8c-0.05,0.09-0.04,0.18,0.1,0.26
		c0.26,0.15,0.66,0.38,0.9,0.51c0.08,0.04,0.14,0.01,0.2-0.07c0.13-0.18,0.28-0.45,0.49-0.79c0.36,0.21,0.65,0.4,0.94,0.54
		c0.08,0.04,0.12,0.03,0.18-0.04c0.14-0.18,0.4-0.58,0.5-0.78c0.07-0.14,0.05-0.19-0.07-0.27c-0.19-0.12-0.65-0.41-0.88-0.56
		C28.06,403.68,28.02,403.69,27.97,403.76z M33.82,404.91c-0.09,0.18-0.24,0.57-0.24,0.68c0,0.06,0.17,0.25,0.36,0.52
		c0.61,0.86,0.93,1.8,0.75,3.07c-0.02,0.11-0.05,0.21,0.01,0.21c0.28-0.01,0.44-0.97,0.43-1.48c-0.02-1.23-0.52-2.21-1.14-2.98
		C33.93,404.85,33.87,404.82,33.82,404.91z M46.14,405.19c-0.17,0.28-0.4,0.69-0.53,0.94c-0.05,0.1-0.05,0.17,0.06,0.24
		c0.22,0.12,0.61,0.33,0.89,0.48c0.12,0.06,0.19,0.05,0.24-0.03c0.15-0.25,0.38-0.64,0.52-0.88c0.05-0.09,0.07-0.16-0.02-0.21
		c-0.26-0.16-0.69-0.42-0.95-0.57C46.23,405.09,46.19,405.11,46.14,405.19z M47.75,401.35l-0.23,0.43
		c-0.03,0.05-0.05,0.08-0.03,0.13c0.07,0.17,0.12,0.37,0.12,0.48c-0.27,0.26-0.56,0.3-0.77,0.13c-0.14-0.11-0.19-0.32-0.17-0.59
		c0.01-0.2,0.03-0.27-0.14-0.13c-0.23,0.18-0.17,0.17-0.18,0.27c-0.08,0.64-0.36,0.94-0.85,0.97c-0.31,0.02-0.54-0.2-0.32-0.82
		c0.05-0.13-0.05-0.27-0.18,0c-0.47,0.93-0.18,1.45,0.29,1.52c0.39,0.06,0.85-0.16,1.09-0.75c0.18,0.3,0.55,0.38,0.88,0.3
		c0.42-0.11,0.51-0.31,0.63-0.65c0.12-0.33,0.12-0.77-0.04-1.29C47.81,401.25,47.77,401.3,47.75,401.35z M56.5,400.98
		c-0.04,0.01-0.08,0.07-0.1,0.16l-0.2,0.99c-0.06,0.28-0.04,0.31,0,0.55c0.11,0.66,0.27,1.31,0.39,1.95
		c0.32,1.55,0.71,3.5,0.99,4.93c0.2,1.07,0.34,2.16,0.38,3.12c0.01,0.18,0.11,0.17,0.16,0.03c0.17-0.53,0.24-1.09,0.24-1.68
		c0-0.58-0.19-1.75-0.38-2.68c-0.26-1.29-0.61-3.1-0.85-4.27c-0.21-0.99-0.41-1.99-0.53-2.95C56.59,401.01,56.55,400.98,56.5,400.98
		z M28.99,410.57c-0.73,0.03-1.51,0.27-2.19,0.2c-0.16,0.01-0.11-0.05-0.08-0.1c0.5-0.69,1.86-1.02,2-1.34L28.99,410.57z
		 M49.25,408.62c0.25,0.01,0.96,0.23,1.42,0.49c0.07,0.04,0.07,0.06-0.02,0.17c-1.11,1.45-3.13,1.8-5.07,1.92
		c0.4-0.21,1.58-1.74,2.64-2.42c0.21-0.14,0.42-0.17,0.61-0.18C48.98,408.6,49.12,408.61,49.25,408.62z M52.87,399.99
		c-0.53,0.86-0.57,1.47-0.02,2.08c0.2,2.38,0.86,4.73,1.21,7.15c-0.97,0.96-2.77,1.33-3.63,1.54c1.1-1.42,0.99-2.63,0.48-3.11
		c-0.36-0.34-1.02-0.31-1.42-0.34c-0.57-0.05-0.96,0.17-1.32,0.52l-3.53,3.37c-0.68-0.11-1.36-0.25-1.97-1.05
		c-0.17-0.22-0.33-0.28-0.55,0.02c-0.53,0.71-1.18,1.04-1.92,1c-1.3-0.07-1.62-1.19-1.87-2.31c-0.5-2.23-0.88-4.47-1.16-6.7
		c-0.03-0.24-0.24-0.29-0.3-0.05c-0.14,0.49-0.24,0.99-0.16,1.52c0.35,2.16,0.8,4.28,1,6.51c0.07,0.77-2.02,1.07-2.33,1.12
		c-1.3,0.22-2.51-0.02-2.88-1.06c-0.74-2.29-1.05-4.89-1.48-7.41c-0.04-0.24-0.22-0.32-0.29-0.02c-0.1,0.39-0.17,0.78-0.12,1.19
		c0.34,2.46,0.87,4.91,1.23,7.4c0.15,1-1.36,1.5-2.05-0.2c-0.46-1.15-0.68-2.66-0.86-3.95c-0.07-0.48-0.23-0.21-0.26,0.01
		c-0.06,0.45-0.06,0.9-0.05,1.35c-1.14,0.51-2.25,1.08-2.66,2.97c-0.04,0.19-0.15,0.41,0.18,0.47c1.19,0.22,2.22-0.04,2.93-1.05
		c0.33,1.37,0.77,2.6,2.12,2.6c0.6,0,0.99-0.61,1.1-1.92c1.23,1.93,4.82,0.51,5.16,0.31c0.46-0.26,0.43-0.94,0.64-1.42
		c0.6,2.41,2.95,2.35,4.16,0.72c0.07-0.1,0.21-0.25,0.31,0.01c0.15,0.38,0.32,0.71,0.64,0.83l-0.5,1.73
		c-0.11,0.38,0.2,0.52,0.35,0.02c0.17-0.54,0.35-1.05,0.56-1.55c3.4,0.48,8.59-0.47,9.95-1.5c0.74-0.56,1.13-1.57,0.92-2.96
		c-0.29-1.96-1.05-5.27-1.04-5.78c0.33-0.21,0.55-0.52,0.35-0.8c-0.28-0.4-0.6-0.76-0.67-1.25c-0.01-0.1-0.06-0.16-0.13-0.15
		C52.99,399.86,52.93,399.9,52.87,399.99z M28.75,398.73c-0.93,0.39-3.03,1.23-3.85,1.58c-0.05,0.02-0.08,0.03-0.1,0.1
		c-0.03,0.1-0.13,0.42-0.18,0.59c-0.02,0.07,0.04,0.07,0.1,0.04c0.11-0.04,0.26-0.13,0.39-0.18c0.64-0.27,2.6-1.07,3.42-1.4
		c0.05-0.02,0.1-0.05,0.12-0.11c0.05-0.11,0.13-0.39,0.17-0.55C28.84,398.73,28.8,398.7,28.75,398.73z M33.59,398.64
		c-0.93,0.39-3.52,1.42-4.34,1.77c-0.05,0.02-0.08,0.03-0.1,0.1c-0.03,0.1-0.13,0.42-0.18,0.59c-0.02,0.07,0.04,0.07,0.1,0.04
		c0.11-0.05,0.26-0.13,0.38-0.18c0.64-0.27,3.08-1.27,3.91-1.6c0.05-0.02,0.1-0.05,0.12-0.11c0.05-0.11,0.13-0.39,0.17-0.55
		C33.69,398.64,33.65,398.61,33.59,398.64z M39.89,398.63c-0.93,0.39-3.52,1.42-4.34,1.77c-0.05,0.02-0.08,0.03-0.1,0.1
		c-0.03,0.1-0.13,0.42-0.18,0.59c-0.02,0.07,0.04,0.07,0.1,0.04c0.11-0.04,0.26-0.13,0.39-0.18c0.64-0.27,3.08-1.27,3.91-1.6
		c0.05-0.03,0.1-0.05,0.12-0.11c0.05-0.12,0.13-0.39,0.17-0.55C39.98,398.63,39.95,398.6,39.89,398.63z M48.76,398.57
		c-0.93,0.39-4.68,1.66-5.5,2.01c-0.05,0.02-0.08,0.03-0.1,0.1c-0.03,0.1-0.13,0.42-0.18,0.59c-0.02,0.07,0.04,0.07,0.1,0.04
		c0.11-0.05,0.26-0.13,0.38-0.18c0.64-0.27,4.24-1.51,5.07-1.84c0.05-0.02,0.1-0.05,0.12-0.11c0.05-0.12,0.13-0.39,0.17-0.55
		C48.85,398.57,48.81,398.55,48.76,398.57z M58.25,398.06c0.08,0.08,0.17,0.19,0.16,0.3c-0.13,0.29-0.95,0.58-1.26,0.66
		c-0.06,0.01-0.38,0.08-0.35-0.01c0.19-0.3,0.37-0.62,0.64-0.87C57.7,397.91,57.98,397.81,58.25,398.06z M57.46,397.52
		c-0.36,0.37-0.85,1.05-1.06,1.49c-0.16-0.01-0.46-0.17-0.6-0.25c-0.19-0.09-0.32,0.1-0.41,0.25c-0.19,0.29-0.33,0.58-0.44,0.9
		l-0.11,0.31c0,0.14,0.06,0.17,0.16,0.07c0.22-0.22,0.39-0.82,0.52-0.74c0.75,0.43,1.71,0.28,2.43-0.22
		c0.56-0.4,0.99-1.01,0.83-1.69c-0.06-0.24-0.33-0.48-0.59-0.49C57.91,397.15,57.67,397.31,57.46,397.52z M268.89,441.17
		c-0.93,0.39-3.52,1.42-4.34,1.77c-0.05,0.02-0.08,0.03-0.1,0.1c-0.03,0.1-0.13,0.42-0.18,0.59c-0.02,0.07,0.04,0.07,0.1,0.04
		c0.11-0.04,0.26-0.13,0.39-0.18c0.64-0.27,3.08-1.27,3.91-1.6c0.05-0.02,0.1-0.05,0.12-0.11c0.05-0.12,0.13-0.39,0.17-0.55
		C268.98,441.17,268.95,441.15,268.89,441.17z M265.92,439.24c-0.17,0.28-0.4,0.69-0.53,0.94c-0.05,0.1-0.05,0.18,0.06,0.24
		c0.22,0.12,0.61,0.33,0.89,0.48c0.12,0.06,0.18,0.05,0.24-0.03c0.15-0.25,0.38-0.63,0.52-0.88c0.05-0.09,0.07-0.16-0.02-0.21
		c-0.26-0.16-0.69-0.42-0.95-0.57C266.01,439.14,265.97,439.16,265.92,439.24z M239.59,432.11c-1.03,0.44-2.22,2.03-2.64,3.24
		c-0.45,1.36-0.12,1.94,0.57,2.34c0.88,0.5,2.39,0.04,2.83,0.28c0.09,0.04,0.1,0.04,0.04,0.12c-1.12,1.19-3.04,1.9-4.49,1.97
		c-2.03,0.11-3.56-1.36-2.18-4.54c0.1-0.26-0.1-0.44-0.28-0.09c-1.43,2.78-0.76,4.85,0.64,5.56c1.75,0.88,5.05-0.3,6.49-1.91
		c0.17-0.2,0.33-0.39,0.42-0.72c0.18-0.56,0.09-1.12-0.18-1.4c-0.31-0.3-0.93-0.14-1.49-0.13c-0.86,0.03-1.62-0.1-1.93-0.56
		c-0.2-0.27-0.2-0.48-0.03-0.79c0.35-0.73,1.3-1.78,2.01-2.09c0.49-0.2,0.96-0.11,1.37,0.69c0.09,0.21,0.25,0.16,0.29-0.02
		l0.15-0.71c0.03-0.21-0.01-0.28-0.1-0.48c-0.32-0.65-0.67-0.9-1.08-0.87C239.88,432.01,239.74,432.05,239.59,432.11z
		 M234.18,428.85c-0.09,0.18-0.24,0.57-0.24,0.68c0,0.06,0.17,0.25,0.36,0.52c0.61,0.86,0.93,1.8,0.75,3.07
		c-0.02,0.11-0.05,0.21,0.01,0.21c0.28-0.01,0.44-0.97,0.43-1.48c-0.02-1.23-0.52-2.21-1.14-2.98
		C234.29,428.78,234.23,428.75,234.18,428.85z M247.96,427.91c-0.93,0.39-4.1,1.56-4.92,1.91c-0.05,0.02-0.08,0.03-0.1,0.1
		c-0.03,0.1-0.13,0.42-0.18,0.59c-0.02,0.07,0.04,0.07,0.1,0.05c0.11-0.05,0.26-0.13,0.38-0.18c0.64-0.27,3.66-1.41,4.49-1.73
		c0.05-0.02,0.1-0.05,0.12-0.11c0.05-0.11,0.13-0.39,0.17-0.55C248.05,427.91,248.02,427.89,247.96,427.91z M262.58,427.11
		c-0.08,0.25-0.16,0.49-0.25,0.74c-0.08,0.24-0.05,0.26,0.02,0.52c0.29,1,0.49,2.55,0.67,4c0.16,1.24,0.35,2.66,0.54,3.66
		c0.26,1.36,0.36,1.93,1.45,1.94c0.53-0.03,1.04-0.14,1.45-0.31c0.42-0.18,0.5-0.39,0.63-0.74c0.46-1.43,0.07-2.59-0.87-3.42
		c-0.14-0.11-0.21-0.1-0.24,0.05c-0.07,0.27-0.13,0.55-0.2,0.83c-0.02,0.1-0.07,0.21,0.04,0.31c0.41,0.38,0.82,0.89,0.99,1.6
		c-0.56,0.39-1.69,0.42-2.01,0.37c-0.3-0.04-0.47-0.29-0.59-0.76c-0.19-0.73-0.35-1.88-0.53-3.17c-0.29-2-0.51-4.3-0.88-5.6
		C262.71,426.76,262.67,426.82,262.58,427.11z M256.85,439.65c-0.7,1.47-2.31,0.22-2.72-0.49
		C255.29,439.16,256.41,439.2,256.85,439.65z M255.69,434.65c0.05,0.06,0.09,0.13,0.03,0.29c-0.33,0.9-1.05,1.26-1.66,1.76
		c0.08-0.61,0.18-1.27,0.73-2.09c0.1-0.14,0.21-0.32,0.38-0.33C255.3,434.29,255.47,434.38,255.69,434.65z M258.52,426.9l-0.41,0.85
		c-0.16,0.33,0.21,0.78,0.53,1.14c0.21,2.1,0.88,4.61,1.23,6.98c-0.77,1.34-5.11,1.85-5.54,1.84c0.96-0.67,1.84-1.43,1.8-3.59
		c-0.02-1.26-0.97-1.48-1.46-0.6c-0.56,1-0.82,2.25-1.15,3.44c-2.73,1.34-5.15,0.82-5.84-0.73c-0.63-1.43-1.2-2.89-1.43-4.36
		c-0.05-0.31-0.24-0.14-0.24-0.01c0.02,0.48-0.02,0.84,0.06,1.65l0.76,2.16c-0.14,0.83-1.01,1.08-1.83,1.34
		c-0.54,0.17-1.39,0.43-1.74-0.09c-0.19-0.28-0.24-0.1-0.26,0.07c-0.08,0.5,0.1,1.64,1.11,1.47c0.84-0.14,1.66-0.33,2.45-0.92
		c0.39-0.29,0.42-0.76,0.53-1.19c0.91,3.56,3.87,2.57,5.27,2.3c0.05,0.27,0.09,0.56,0.45,0.54l0.62-0.03
		c0.39,0.73,1.28,2.57,2.67,2.45c0.9-0.08,1.3-0.71,1.15-2.44c-0.03-0.29-0.14-0.51-0.34-0.72c1.11-0.15,2.3-0.62,2.82-1.13
		c0.52-0.52,0.73-1.98,0.6-2.63l-1.09-5.56c-0.03-0.16,0.04-0.25,0.15-0.34c0.25-0.19,0.26-0.47,0.12-0.74
		c-0.23-0.45-0.57-0.65-0.77-1.16c-0.03-0.07-0.06-0.1-0.1-0.1C258.59,426.8,258.55,426.84,258.52,426.9z M254.44,426.93
		c0.11,0.12,0.26,0.37,0.29,0.8c0,0.12-0.02,0.3-0.03,0.31c-0.01,0.01-0.24-0.09-0.28-0.11c-0.08-0.04-0.31-0.13-0.71-0.28
		c-0.16-0.03,0-0.28,0-0.28c0.06-0.11,0.16-0.25,0.27-0.37l0.15-0.1C254.23,426.87,254.38,426.84,254.44,426.93z M254.36,426.18
		c-0.46,0.08-1,0.72-1.23,1.45c-0.1,0.33-0.04,0.52,0.14,0.63c0.26,0.16,0.64,0.29,1.09,0.41c-0.52,0.87-2.2,2-2.51,2.18
		c-0.37,0.21-0.3,0.44,0.15,0.24c1.69-0.76,2.52-1.57,2.9-2.29c0.12,0.02,0.21,0.06,0.34,0.09c0.2,0.05,0.16,0.08,0.26-0.24
		c0.05-0.15,0.09-0.26,0.1-0.33l-0.51-0.17l0.05-0.18c0.06-0.58-0.09-1.06-0.14-1.21C254.86,426.3,254.63,426.13,254.36,426.18z
		 M256.42,424.73c-0.04,0.08-0.09,0.2-0.12,0.28c-0.04,0.14,0.04,0.24,0.11,0.13c0.09-0.13,0.19-0.25,0.32-0.33
		c0.31-0.19,0.65-0.26,0.99-0.23c0.31,0.03,0.89,0.25,0.89,0.28c0,0.07-1.35,0.73-1.56,0.87c-0.09,0.06-0.2,0.16-0.18,0.27
		c0.02,0.08,0.15,0.1,0.25,0.06c0.53-0.19,0.72-0.18,1.15-0.36c0.58-0.25,0.75-0.55,0.85-0.58c0.04-0.01,0.09-0.01,0.14-0.05
		c0.17-0.16,0.31-0.57,0.32-0.71c-0.02-0.11-0.41-0.15-0.52-0.17c-0.38-0.09-0.75-0.29-1.14-0.32
		C257.31,423.8,256.74,424.08,256.42,424.73z M264.25,423.97c0.08,0.08,0.17,0.19,0.16,0.3c-0.13,0.29-0.95,0.58-1.26,0.66
		c-0.06,0.01-0.38,0.08-0.35-0.01c0.19-0.3,0.37-0.62,0.64-0.87C263.7,423.83,263.98,423.73,264.25,423.97z M263.46,423.44
		c-0.36,0.37-0.85,1.05-1.06,1.49c-0.16-0.01-0.46-0.17-0.6-0.24c-0.19-0.09-0.32,0.1-0.41,0.25c-0.18,0.29-0.33,0.58-0.44,0.9
		l-0.11,0.31c0,0.13,0.06,0.17,0.16,0.07c0.22-0.22,0.39-0.82,0.52-0.74c0.75,0.43,1.71,0.28,2.43-0.22
		c0.56-0.4,0.99-1.01,0.83-1.69c-0.06-0.25-0.33-0.47-0.59-0.49C263.91,423.06,263.67,423.23,263.46,423.44z M226.86,429.5
		c-0.17,0.28-0.4,0.69-0.53,0.94c-0.05,0.1-0.05,0.18,0.06,0.24c0.22,0.12,0.61,0.33,0.89,0.48c0.12,0.06,0.18,0.05,0.24-0.03
		c0.15-0.25,0.38-0.64,0.52-0.88c0.05-0.09,0.07-0.16-0.02-0.21c-0.26-0.16-0.69-0.42-0.96-0.57
		C226.96,429.4,226.91,429.42,226.86,429.5z M221.74,436.44c0.09,0.35,0.24,0.67,0.47,0.92c-0.61-0.12-1.29-0.16-1.7-0.52
		c-0.1-0.09-0.02-0.23,0.04-0.32c0.11-0.17,0.46-0.56,0.77-0.56C221.49,435.97,221.65,436.09,221.74,436.44z M228.67,434.1
		c0.14,0.17,0.18,0.22,0.08,0.3c-0.54,0.45-0.97,0.4-1.39-0.03c0.13-0.51,0.31-0.79,0.57-0.79
		C228.12,433.57,228.37,433.74,228.67,434.1z M215.16,427.23c-0.15,0.54-0.25,1.09-0.14,1.65c0.54,2.61,0.72,6.37,1.4,8.91
		c0.49,1.82,2.97,1.6,3.7,0.16c0.03-0.06,0.03-0.18,0.13-0.03c0.44,0.67,1.79,0.72,2.79,1.05c0.56,0.19,0.49-0.27,0.52-0.66
		c1.6,0.62,4.06,0.22,5.74-0.59c0.52-0.25,0.74-0.81,0.81-1.47c0.15-1.44-0.45-2.66-1.33-3.61c-0.51-0.55-1.03-0.68-1.42,0.03
		c-0.33,0.59-0.62,1.56-0.43,2.37c0.35,1.49,2,1.14,2.32,0.04c0.21,0.28,0.34,0.62,0.45,0.99c-0.65,0.89-2.53,1.15-3.93,1.25
		c-2.02,0.13-3.22-0.67-3.93-1.95c-0.14-0.26-0.36-0.25-0.66-0.06c-1.3,0.83-0.93,2.6-2.84,2.55c-1.35-0.04-1.58-1.36-1.71-2.08
		c-0.5-2.83-0.57-5.77-1.25-8.53c-0.03-0.11-0.06-0.15-0.09-0.15C215.21,427.09,215.17,427.17,215.16,427.23z M222.32,426.57
		c-0.93,0.39-4.1,1.56-4.92,1.91c-0.05,0.02-0.08,0.03-0.1,0.1c-0.03,0.1-0.13,0.42-0.18,0.59c-0.02,0.07,0.04,0.07,0.1,0.05
		c0.11-0.05,0.26-0.13,0.38-0.18c0.64-0.27,3.66-1.4,4.49-1.73c0.05-0.03,0.1-0.05,0.12-0.11c0.05-0.12,0.13-0.39,0.17-0.55
		C222.41,426.56,222.37,426.54,222.32,426.57z M229.17,426.22c-0.93,0.39-4.1,1.56-4.92,1.91c-0.05,0.02-0.08,0.03-0.1,0.1
		c-0.03,0.1-0.13,0.42-0.18,0.59c-0.02,0.07,0.04,0.07,0.1,0.04c0.11-0.05,0.26-0.13,0.38-0.18c0.64-0.27,3.66-1.41,4.49-1.73
		c0.05-0.02,0.1-0.05,0.12-0.11c0.05-0.11,0.13-0.39,0.17-0.55C229.27,426.22,229.23,426.19,229.17,426.22z M206.46,441.63
		c-0.93,0.39-3.52,1.42-4.34,1.77c-0.05,0.02-0.08,0.03-0.1,0.1c-0.03,0.1-0.13,0.42-0.18,0.59c-0.02,0.07,0.04,0.07,0.1,0.04
		c0.11-0.04,0.26-0.13,0.39-0.18c0.64-0.27,3.08-1.27,3.91-1.6c0.05-0.03,0.1-0.05,0.12-0.11c0.05-0.12,0.13-0.39,0.17-0.55
		C206.55,441.63,206.51,441.6,206.46,441.63z M203.77,439.27c-0.17,0.28-0.4,0.69-0.53,0.94c-0.05,0.1-0.05,0.17,0.06,0.23
		c0.22,0.12,0.61,0.33,0.89,0.48c0.12,0.06,0.18,0.05,0.24-0.03c0.15-0.25,0.38-0.63,0.52-0.88c0.05-0.09,0.07-0.16-0.02-0.21
		c-0.26-0.16-0.69-0.42-0.95-0.57C203.87,439.17,203.82,439.19,203.77,439.27z M211.69,434.21l0.01,0.84c0.01,0.26,0,0.26,0.19,0.45
		c0.32,0.31,0.62,0.69,0.88,1.14c0.1,0.18,0.1,0.2,0.05,0.37c-0.33,1-0.92,1.88-1.64,2.45c-1.2,0.95-2.53,1.06-4.51,0.88
		c-0.42-0.02-0.45,0.34-0.06,0.41c2.29,0.48,4.29,0.59,5.5-0.71c0.72-0.74,1.16-1.84,1.19-2.94c0.03-1.1-0.31-2.05-1.29-2.99
		C211.84,433.96,211.69,433.94,211.69,434.21z M204.82,433.57l-0.05,1.17c0.29,0.43,0.59,0.85,0.78,1.42c-0.39,0.57-2.8,1.11-3.81,1
		c-0.76-0.09-0.75-0.49-0.72-1.13c0.43-0.02,0.86-0.12,1.29-0.03c0.2,0.04,0.23,0.22,0.3,0.05l0.49-1.11
		c0.08-0.17,0.16-0.25-0.4-0.17c-2.6,0.41-4.09-0.36-5.79-0.82c-1.68-0.45-2.17,0.5-2.42,1.52c-0.11,0.44,0.16,0.23,0.29,0.13
		c1.35-1,2.7-0.31,4.04,0.06c-1.33,0.49-2.89,2.03-4.98,1.11c0.06-0.32,0.12-0.64,0.13-0.96c0.01-0.3-0.24-0.29-0.28-0.07
		c-0.31,1.54-4.58,2.78-6.85,2.59c-2.43-0.21-2.99-1.35-2.57-2.95c0.1-0.38-0.17-0.19-0.23-0.05c-0.95,2.21-0.5,4.18,3.09,4.24
		c2.23,0.04,5.57-0.93,6.38-2.18c0.02-0.04,0.03-0.1,0.12-0.02c0.26,0.2,0.32,0.33,0.84,0.64c0.37,0.22,0.81,0.28,1.65-0.01
		c1.88-0.66,3.56-2.01,4.69-1.98c-0.08,0.92-0.12,2.34,0.69,2.4c1.43,0.11,3.52-0.45,4.1-0.99c0.36-0.34,0.43-1.5,0.37-1.97
		c-0.12-0.95-0.65-1.74-0.9-1.96C204.92,433.4,204.82,433.48,204.82,433.57z M189.43,433.35c-0.16,0.24-0.35,0.59-0.54,0.88
		c-0.27-0.18-0.62-0.39-0.86-0.55c-0.13-0.08-0.18-0.08-0.26,0.05c-0.14,0.21-0.35,0.54-0.5,0.8c-0.05,0.1-0.04,0.18,0.1,0.26
		c0.26,0.15,0.66,0.38,0.9,0.51c0.08,0.04,0.14,0.01,0.2-0.07c0.13-0.18,0.28-0.45,0.49-0.79c0.36,0.21,0.65,0.4,0.94,0.54
		c0.08,0.04,0.12,0.03,0.18-0.04c0.14-0.18,0.4-0.58,0.5-0.78c0.07-0.14,0.05-0.19-0.07-0.27c-0.19-0.12-0.65-0.41-0.88-0.56
		C189.53,433.26,189.48,433.27,189.43,433.35z M212.49,428.2c-0.93,0.39-3.52,1.42-4.34,1.77c-0.05,0.02-0.08,0.03-0.1,0.1
		c-0.03,0.1-0.13,0.42-0.18,0.59c-0.02,0.07,0.04,0.07,0.1,0.05c0.11-0.05,0.26-0.13,0.38-0.18c0.64-0.27,3.08-1.27,3.91-1.6
		c0.05-0.02,0.1-0.05,0.12-0.11c0.05-0.12,0.13-0.39,0.17-0.55C212.59,428.2,212.55,428.18,212.49,428.2z M200.08,427.49
		c-0.93,0.39-4.68,1.66-5.5,2.01c-0.05,0.02-0.08,0.03-0.1,0.1c-0.03,0.1-0.13,0.42-0.18,0.59c-0.02,0.07,0.04,0.07,0.1,0.04
		c0.11-0.04,0.26-0.13,0.38-0.18c0.64-0.27,4.25-1.51,5.07-1.84c0.05-0.02,0.1-0.05,0.12-0.11c0.05-0.11,0.13-0.39,0.17-0.55
		C200.17,427.49,200.14,427.47,200.08,427.49z M182,439.47c-0.93,0.39-3.52,1.42-4.34,1.77c-0.05,0.02-0.08,0.03-0.1,0.1
		c-0.03,0.1-0.13,0.42-0.18,0.59c-0.02,0.07,0.04,0.07,0.1,0.04c0.11-0.05,0.26-0.13,0.38-0.18c0.64-0.27,3.08-1.27,3.91-1.6
		c0.05-0.02,0.1-0.05,0.12-0.11c0.05-0.12,0.13-0.39,0.17-0.55C182.09,439.47,182.05,439.44,182,439.47z M171.47,439.15
		c-0.17,0.28-0.4,0.69-0.53,0.94c-0.05,0.1-0.05,0.17,0.06,0.24c0.22,0.12,0.61,0.33,0.89,0.48c0.12,0.06,0.19,0.05,0.24-0.03
		c0.15-0.25,0.38-0.63,0.52-0.88c0.05-0.09,0.07-0.16-0.02-0.21c-0.26-0.16-0.69-0.42-0.95-0.57
		C171.57,439.05,171.52,439.06,171.47,439.15z M179.11,432.29l-0.09,1.07l-0.01,0.07c0,0.06,0,0.09,0.03,0.12
		c0.54,0.55,0.92,1.2,1.16,1.93c-0.57,0.63-4.22,1.78-4.8,1.01c-0.1-0.14,0.03-0.49,0.1-0.74c0.28-0.08,0.56-0.22,1.03-0.03
		c0.16,0.06,0.23,0.04,0.27-0.04l0.45-0.96c0.05-0.12,0.1-0.37-0.28-0.27c-0.71,0.19-1.49,0.19-2.27,0.17
		c-3.04-0.1-3.8-0.88-4.65-1.01c-0.92-0.14-1.73,0.83-1.96,1.73c-0.07,0.27,0.03,0.26,0.26,0.11c1.67-1.09,3.11-0.17,4.61,0.04
		c-2.16,1.25-4.29,1.71-6.43,1.67c-2.81-0.05-3.99-1.03-4.35-2.38c-0.11-0.38-0.34-0.2-0.38,0c-0.19,0.82-0.24,1.63,0.57,2.39
		c-1.88,3.61-5.42,3.38-6.95,2.72c-0.48-0.2-0.77,0.17-0.21,0.38c3.3,1.28,6.36,1.41,7.52-2.81c2.15,1.36,4.67,1.06,7.17,0.41
		c2.41-0.63,3.57-2,5.24-2.05c-0.38,1.55-0.02,2.24,0.72,2.22c1.49-0.03,2.92-0.39,4.23-1.19c0.15-0.09,0.26-0.23,0.34-0.41
		c0.1-0.22,0.2-0.56,0.21-0.99c0.02-1.36-0.48-2.4-1.29-3.21C179.27,432.15,179.13,432.08,179.11,432.29z M152.33,439.47
		c-0.26,1.5-2.02,0.55-2.64-0.64c0.25,0.02,0.52,0,0.8,0v0C151.1,438.83,151.74,438.89,152.33,439.47z M143.02,435.93
		c0.26,0.47,0.67,0.88,0.85,1.35c-0.71-0.17-1.44-0.3-2-0.65c-0.12-0.07-0.11-0.11-0.03-0.24c0.15-0.26,0.5-0.7,0.82-0.72
		C142.78,435.66,142.91,435.73,143.02,435.93z M151.79,434.63c0.02,0.07,0.03,0.12-0.01,0.19c-0.87,1.22-1.49,1.49-1.93,1.72
		c0.13-0.58,0.45-1.73,1.03-2.37c0.07-0.07,0.16-0.15,0.26-0.15C151.39,434.04,151.72,434.36,151.79,434.63z M156.17,431.92
		l-0.25,1.31c0.54,0.52,1.13,1.06,1.34,1.97c-1,1.24-4.99,1.92-6.55,2.09c0.85-0.7,1.52-1.66,1.63-3.15
		c0.06-0.86-0.84-2.38-1.64-0.9c-0.65,1.19-0.98,2.33-1.16,3.45c-0.82,0.36-1.71,0.45-2.67,0.4c-1.61-0.09-2.79-0.79-3.63-2.11
		c-0.19-0.31-0.46-0.3-0.79,0c-0.8,0.73-1.36,1.4-0.89,2.77c-0.24,0.87-3.35,2.64-4.6,3.3c-0.4,0.21-0.19,0.29,0.04,0.23
		c2.38-0.59,4.54-1.32,4.93-3.19c0.74,0.33,1.52,0.51,2.35,0.61c0.59,0.08,0.4-0.48,0.44-0.85c0.63,0.46,1.65,0.44,2.55,0.57
		c0.05,0.16,0.03,0.41,0.22,0.41l1.72-0.02c0.11,1.48,1.58,2.85,2.39,2.8c0.83-0.05,1.18-0.61,1.13-2.79
		c-0.01-0.23-0.15-0.38-0.22-0.56c0.83-0.15,4.51-0.91,4.97-2.08c0.77-2.01-0.14-3.26-1.14-4.23c-0.05-0.05-0.09-0.07-0.12-0.07
		C156.19,431.87,156.17,431.89,156.17,431.92z M164.98,430.77c-0.09,0.18-0.24,0.57-0.24,0.68c0,0.06,0.17,0.25,0.36,0.52
		c0.61,0.86,0.93,1.8,0.74,3.07c-0.02,0.11-0.05,0.21,0.01,0.21c0.28-0.01,0.44-0.97,0.43-1.48c-0.02-1.23-0.52-2.21-1.14-2.98
		C165.09,430.71,165.03,430.68,164.98,430.77z M178.43,429.38c-0.16,0.24-0.35,0.59-0.54,0.88c-0.27-0.18-0.62-0.39-0.86-0.55
		c-0.13-0.08-0.18-0.08-0.26,0.05c-0.14,0.21-0.35,0.54-0.5,0.8c-0.05,0.09-0.04,0.18,0.1,0.26c0.26,0.15,0.66,0.38,0.91,0.51
		c0.08,0.04,0.14,0.01,0.2-0.07c0.13-0.18,0.28-0.45,0.49-0.79c0.36,0.21,0.65,0.4,0.94,0.54c0.08,0.04,0.12,0.03,0.18-0.04
		c0.14-0.18,0.4-0.58,0.5-0.78c0.07-0.14,0.05-0.19-0.07-0.27c-0.19-0.12-0.65-0.41-0.88-0.56
		C178.52,429.3,178.48,429.31,178.43,429.38z M155.8,428.62c-0.16,0.24-0.35,0.59-0.54,0.88c-0.27-0.18-0.62-0.39-0.86-0.55
		c-0.13-0.09-0.18-0.08-0.26,0.05c-0.14,0.21-0.35,0.54-0.5,0.8c-0.05,0.09-0.04,0.18,0.1,0.26c0.26,0.15,0.66,0.38,0.9,0.51
		c0.08,0.04,0.14,0.02,0.2-0.06c0.13-0.18,0.28-0.45,0.49-0.79c0.36,0.21,0.65,0.4,0.94,0.54c0.08,0.04,0.12,0.03,0.18-0.04
		c0.14-0.18,0.39-0.58,0.5-0.78c0.07-0.14,0.05-0.19-0.07-0.27c-0.19-0.12-0.65-0.41-0.88-0.56
		C155.9,428.54,155.85,428.55,155.8,428.62z M141.34,429.05c-0.03,0.08-0.09,0.2-0.12,0.28c-0.04,0.14,0.04,0.24,0.11,0.13
		c0.08-0.13,0.19-0.25,0.32-0.33c0.31-0.19,0.65-0.26,0.99-0.23c0.31,0.03,0.89,0.25,0.89,0.28c0,0.07-1.35,0.73-1.56,0.87
		c-0.09,0.06-0.2,0.16-0.18,0.27c0.02,0.08,0.15,0.1,0.25,0.06c0.53-0.19,0.72-0.18,1.15-0.36c0.58-0.25,0.75-0.55,0.85-0.58
		c0.04-0.01,0.09-0.01,0.14-0.05c0.17-0.16,0.31-0.57,0.32-0.71c-0.02-0.11-0.41-0.15-0.52-0.17c-0.38-0.09-0.75-0.29-1.14-0.32
		C142.22,428.13,141.65,428.41,141.34,429.05z M173.83,427.04c-0.93,0.39-4.68,1.66-5.5,2.01c-0.05,0.02-0.08,0.03-0.1,0.1
		c-0.03,0.1-0.13,0.42-0.18,0.59c-0.02,0.07,0.04,0.07,0.1,0.04c0.11-0.05,0.26-0.13,0.39-0.18c0.64-0.27,4.24-1.51,5.07-1.84
		c0.05-0.02,0.1-0.05,0.12-0.11c0.05-0.12,0.13-0.39,0.17-0.55C173.93,427.04,173.89,427.02,173.83,427.04z M163.94,426.66
		c-0.93,0.39-3.52,1.42-4.34,1.77c-0.05,0.02-0.08,0.03-0.1,0.1c-0.03,0.1-0.13,0.42-0.18,0.59c-0.02,0.07,0.04,0.07,0.1,0.04
		c0.11-0.05,0.26-0.13,0.39-0.18c0.64-0.27,3.08-1.27,3.91-1.6c0.05-0.02,0.1-0.05,0.12-0.11c0.05-0.12,0.13-0.39,0.17-0.55
		C164.03,426.65,164,426.63,163.94,426.66z M149.85,426.27c0.11,0.12,0.26,0.37,0.29,0.8c0,0.12-0.02,0.3-0.03,0.31
		c-0.01,0.01-0.24-0.09-0.28-0.11c-0.08-0.04-0.31-0.13-0.71-0.28c-0.16-0.03,0-0.28,0-0.28c0.06-0.11,0.16-0.25,0.27-0.36l0.15-0.1
		C149.64,426.21,149.79,426.18,149.85,426.27z M149.76,425.52c-0.46,0.08-1,0.72-1.22,1.45c-0.1,0.33-0.04,0.52,0.14,0.63
		c0.26,0.16,0.64,0.29,1.09,0.41c-0.52,0.87-2.2,2-2.51,2.18c-0.36,0.21-0.3,0.44,0.15,0.24c1.69-0.76,2.52-1.57,2.9-2.29
		c0.12,0.02,0.22,0.06,0.34,0.09c0.2,0.05,0.16,0.08,0.26-0.24c0.05-0.15,0.09-0.26,0.1-0.33l-0.51-0.17l0.05-0.18
		c0.06-0.58-0.09-1.06-0.14-1.21C150.27,425.64,150.04,425.47,149.76,425.52z M178.83,425.46l-0.23,0.43
		c-0.03,0.05-0.05,0.08-0.03,0.13c0.07,0.17,0.12,0.37,0.12,0.48c-0.27,0.26-0.56,0.3-0.77,0.13c-0.14-0.11-0.19-0.32-0.17-0.59
		c0.01-0.2,0.03-0.27-0.14-0.13c-0.22,0.18-0.16,0.16-0.18,0.27c-0.08,0.64-0.36,0.93-0.85,0.97c-0.31,0.02-0.54-0.2-0.32-0.82
		c0.05-0.13-0.05-0.27-0.18,0c-0.47,0.93-0.18,1.45,0.29,1.52c0.39,0.06,0.85-0.16,1.09-0.75c0.18,0.3,0.55,0.38,0.88,0.3
		c0.42-0.11,0.51-0.3,0.63-0.65c0.12-0.33,0.12-0.77-0.04-1.29C178.9,425.37,178.85,425.42,178.83,425.46z M155.85,423.21
		c0.1,0.12,0.26,0.37,0.29,0.8c0,0.13-0.02,0.3-0.03,0.31c-0.01,0.01-0.24-0.09-0.28-0.11c-0.08-0.04-0.31-0.13-0.71-0.28
		c-0.16-0.03,0-0.28,0-0.28c0.06-0.11,0.16-0.25,0.27-0.37l0.15-0.1C155.64,423.15,155.79,423.12,155.85,423.21z M155.76,422.46
		c-0.46,0.08-1,0.72-1.23,1.45c-0.1,0.33-0.04,0.52,0.14,0.63c0.26,0.16,0.64,0.29,1.09,0.41c-0.52,0.87-2.2,2-2.51,2.18
		c-0.36,0.21-0.3,0.44,0.15,0.24c1.69-0.76,2.53-1.57,2.9-2.29c0.12,0.03,0.22,0.06,0.34,0.09c0.2,0.05,0.16,0.08,0.27-0.24
		c0.05-0.15,0.09-0.26,0.1-0.33l-0.51-0.17l0.05-0.18c0.06-0.58-0.09-1.06-0.14-1.21C156.27,422.58,156.04,422.41,155.76,422.46z
		 M134.79,435.73c-0.35,0.51-0.83,0.73-1.37,0.22c-0.19-0.18-0.18-0.24-0.1-0.44c0.18-0.36,0.43-0.52,0.6-0.53
		C134.17,434.97,134.59,435.43,134.79,435.73z M133.4,433.95c-0.33,0.36-0.61,1.16-0.63,1.91c-0.04,0.84,0.41,1.68,1.21,1.7
		c0.49,0.01,0.94-0.44,1.2-1.08c0.17,1.03-0.69,2.57-1.88,3.53c-1.41,1.07-2.75,1.2-4.73,1.11c-0.32-0.04-0.47,0.28-0.09,0.37
		c1.77,0.41,4.18,0.47,5.44-0.66c1.04-0.93,1.66-2.37,1.76-4c0.05-1.02-0.27-2.19-1.12-2.93
		C134.09,433.51,133.75,433.55,133.4,433.95z M136.36,428.71c-0.93,0.39-4.68,1.66-5.5,2.01c-0.05,0.02-0.08,0.03-0.1,0.1
		c-0.03,0.1-0.13,0.42-0.18,0.59c-0.02,0.07,0.04,0.07,0.1,0.04c0.11-0.04,0.26-0.13,0.38-0.18c0.64-0.27,4.24-1.51,5.07-1.84
		c0.05-0.02,0.1-0.05,0.12-0.11c0.05-0.12,0.13-0.39,0.17-0.55C136.45,428.71,136.42,428.68,136.36,428.71z M130.85,427.53
		c-0.93,0.39-4.68,1.66-5.5,2.01c-0.05,0.02-0.08,0.03-0.1,0.1c-0.03,0.1-0.13,0.42-0.18,0.59c-0.02,0.07,0.04,0.07,0.1,0.04
		c0.11-0.05,0.26-0.13,0.38-0.18c0.64-0.27,4.25-1.51,5.07-1.84c0.05-0.02,0.1-0.05,0.12-0.11c0.05-0.12,0.13-0.39,0.17-0.55
		C130.95,427.53,130.91,427.51,130.85,427.53z M129.65,436.32c-0.49,0.02-1.61-0.22-2.03-0.51
		C127.91,435.37,128.85,433.77,129.65,436.32z M122.27,427.81c0.52,3.41,0.57,7.88,1.35,10.09c0.19,0.45,0.4,0.66,0.69,0.78
		c0.7,0.25,2.08-0.12,2.49-0.57c0.23-0.26,0.33-0.54,0.54-1.08v0c0.41,0.4,2.52,0.74,2.83,0.64c0.17-0.05,0.31-0.69,0.28-1.2
		c-0.15-1.01-0.52-2.15-1.17-2.74c-0.26-0.22-0.56-0.23-0.85-0.02c-1.26,0.9-1.03,2.89-1.81,3.4c-0.94,0.57-2.09,0.5-2.45-0.07
		c-0.59-0.94-0.89-7.52-1.53-10.67C122.58,426.09,122.29,426.61,122.27,427.81z M94.83,436.55c0.03,0.05,0.07,0.1-0.01,0.11
		c-0.52,0.06-1.04,0.03-1.47-0.26c0.12-0.36,0.28-0.81,0.58-0.8C94.14,435.6,94.44,435.85,94.83,436.55z M96.46,432.09l-0.14,1.11
		c-0.01,0.07,0.02,0.13,0.09,0.19c0.49,0.52,0.97,1.04,1.26,1.95c-0.51,0.56-1.51,0.89-1.95,1.09c-0.3-0.61-0.62-1.16-0.96-1.63
		c-0.52-0.7-0.89-0.79-1.46,0.09c-0.38,0.6-0.53,1.31-0.46,2.17c0.08,0.91,1.45,0.98,2.71,0.7c-1.2,2.88-3.85,4.02-7.26,3.31
		c-0.38-0.08-0.58,0.26-0.19,0.36c3.55,0.92,7.11,1.04,7.95-3.87c0.7-0.32,1.81-0.65,1.96-1.39c0.46-2.19-0.88-3.56-1.38-4.1
		c-0.03-0.03-0.07-0.05-0.1-0.05C96.5,432.01,96.47,432.03,96.46,432.09z M95.17,429.15c-0.17,0.28-0.4,0.69-0.53,0.94
		c-0.05,0.1-0.05,0.17,0.06,0.24c0.22,0.12,0.61,0.33,0.89,0.48c0.12,0.06,0.18,0.05,0.24-0.03c0.15-0.25,0.38-0.63,0.52-0.88
		c0.05-0.09,0.07-0.16-0.02-0.21c-0.26-0.16-0.69-0.42-0.95-0.57C95.27,429.06,95.22,429.07,95.17,429.15z M99.34,427.4
		c-0.16,0.43-0.3,0.84-0.2,1.6l0.84,6.43c0.33,2.54,0.81,3.51,2.9,3.68c4.32,0.37,14.45-1.62,16.68-1.63c0.23,0,0.27,0.08,0.36-0.12
		c0.24-0.52,0.54-1.16,0.64-1.72c0.36-2.04-3.57-1.47-4.17-1.4c-3.71,0.42-10,1.49-11.65,0.55c-0.11-0.06-0.08-0.14,0-0.21
		c0.91-0.83,2.82-2.43,4.8-3.15c0.15-0.06,0.31-0.08,0.35-0.15c0.18-0.31,0.26-0.63,0.35-0.95c0.06-0.21-0.2-0.13-0.3-0.09
		c-2.01,0.77-4.78,2.37-5.86,4.97c-0.36,0.87,0.28,0.99,0.89,1.05c3.92,0.42,8.09-0.67,12.23-0.89c0.6-0.03,1.66-0.22,2.75,0.89
		c-2.94,0-12.04,2.16-16.95,1.59c-1.33-0.16-2.16-0.74-2.35-2.18c-0.39-2.89-0.73-6-1.1-8.21C99.49,427.17,99.38,427.3,99.34,427.4z
		 M109.42,427.15c-0.93,0.39-4.68,1.66-5.5,2.01c-0.05,0.02-0.08,0.03-0.1,0.1c-0.03,0.1-0.13,0.42-0.18,0.59
		c-0.02,0.07,0.04,0.07,0.1,0.04c0.11-0.05,0.26-0.13,0.38-0.18c0.64-0.27,4.25-1.51,5.07-1.84c0.05-0.03,0.1-0.05,0.12-0.11
		c0.05-0.12,0.13-0.39,0.17-0.55C109.51,427.15,109.48,427.13,109.42,427.15z M88.7,427.04c-0.04,0.01-0.08,0.07-0.1,0.16
		l-0.19,0.99c-0.06,0.28-0.04,0.31,0,0.55c0.11,0.66,0.27,1.31,0.39,1.95c0.32,1.55,0.71,3.5,0.99,4.93
		c0.2,1.07,0.34,2.16,0.38,3.12c0.01,0.18,0.11,0.17,0.16,0.03c0.17-0.53,0.24-1.09,0.24-1.68c0-0.58-0.19-1.75-0.38-2.68
		c-0.26-1.29-0.61-3.1-0.85-4.27c-0.21-0.99-0.41-1.99-0.53-2.95C88.79,427.07,88.74,427.03,88.7,427.04z M95.48,424.61
		c0.11,0.12,0.26,0.37,0.29,0.8c0,0.12-0.02,0.3-0.03,0.31c-0.01,0.01-0.24-0.09-0.28-0.11c-0.08-0.04-0.31-0.13-0.71-0.28
		c-0.16-0.03,0-0.28,0-0.28c0.06-0.11,0.16-0.25,0.27-0.37l0.15-0.1C95.26,424.55,95.41,424.52,95.48,424.61z M95.39,423.86
		c-0.46,0.08-1,0.72-1.23,1.45c-0.1,0.33-0.04,0.52,0.14,0.63c0.26,0.16,0.64,0.29,1.09,0.41c-0.52,0.87-2.2,2-2.51,2.18
		c-0.36,0.21-0.3,0.44,0.15,0.24c1.69-0.76,2.52-1.57,2.9-2.29c0.12,0.02,0.22,0.06,0.34,0.09c0.2,0.05,0.16,0.08,0.26-0.24
		c0.05-0.15,0.09-0.26,0.1-0.33l-0.51-0.17l0.05-0.18c0.06-0.58-0.09-1.06-0.14-1.21C95.89,423.98,95.66,423.81,95.39,423.86z
		 M89.3,424.83c-0.22,0.41-0.85,0.52-1.3,0.38c-0.27-0.08-0.36-0.32-0.24-0.56c0.25-0.5,0.52-0.68,0.77-0.68
		C88.95,423.98,89.29,424.49,89.3,424.83z M87.59,423.97c-0.7,1.62,0.14,2.21,0.82,2.19c1.09-0.03,1.48-1.1,1.2-2.18
		c-0.18-0.67-0.55-0.92-0.95-0.9C88.26,423.09,87.85,423.38,87.59,423.97z M63.87,439.94c-0.93,0.39-3.52,1.42-4.34,1.77
		c-0.05,0.02-0.08,0.03-0.1,0.1c-0.03,0.1-0.13,0.42-0.18,0.59c-0.02,0.07,0.04,0.07,0.1,0.05c0.11-0.05,0.26-0.13,0.38-0.18
		c0.64-0.27,3.08-1.27,3.91-1.6c0.05-0.02,0.1-0.05,0.13-0.11c0.05-0.12,0.13-0.39,0.17-0.55
		C63.96,439.94,63.93,439.92,63.87,439.94z M56.84,439.27c-0.16,0.24-0.35,0.59-0.54,0.88c-0.27-0.18-0.62-0.4-0.86-0.55
		c-0.13-0.08-0.18-0.08-0.26,0.05c-0.14,0.21-0.35,0.54-0.5,0.8c-0.05,0.09-0.04,0.18,0.1,0.26c0.26,0.15,0.66,0.38,0.9,0.51
		c0.08,0.04,0.14,0.02,0.2-0.07c0.13-0.18,0.28-0.45,0.49-0.79c0.36,0.21,0.65,0.4,0.94,0.54c0.08,0.04,0.12,0.03,0.18-0.04
		c0.14-0.18,0.39-0.58,0.5-0.78c0.07-0.14,0.05-0.19-0.07-0.27c-0.19-0.12-0.65-0.41-0.88-0.56
		C56.94,439.18,56.89,439.2,56.84,439.27z M47.03,434.17c-0.17,0.28-0.4,0.69-0.53,0.94c-0.05,0.1-0.05,0.17,0.06,0.24
		c0.22,0.12,0.61,0.33,0.89,0.48c0.11,0.06,0.18,0.05,0.24-0.03c0.15-0.25,0.38-0.64,0.52-0.88c0.05-0.09,0.07-0.16-0.02-0.21
		c-0.26-0.16-0.69-0.42-0.95-0.57C47.13,434.07,47.08,434.09,47.03,434.17z M56.44,432.88l-0.16,1.13c0.14,0.28,0.32,0.49,0.42,0.87
		c-0.51,0.32-1.08,0.59-2.11,0.38l-0.41-0.76c-0.12-0.22-0.27-0.11-0.29,0.01l-0.1,0.61c-0.05,0.27-0.02,0.52,0.17,0.83
		c0.46,0.74,0.72,1.56-0.05,2.39c-1.4,1.51-3.68,2.33-6.94,2.47c-3.21,0.14-5.51-0.97-7.55-2.44c-0.53-0.38-0.58,0.08-0.31,0.35
		c2.85,2.89,5.66,4.06,10.51,2.99c1.49-0.33,5.33-1.45,5.21-5.09c1.02-0.03,1.72-0.22,2.01-0.62c0.27-0.38,0.69-1.92-0.14-3.12
		C56.57,432.7,56.46,432.74,56.44,432.88z M78.74,439.23c-0.02,0.51-0.26,0.75-0.96,0.73c-0.72-0.01-1.45-0.86-1.64-1.18
		C77.02,438.85,77.96,438.62,78.74,439.23z M85.24,435.56c-0.71-0.09-1.36-0.26-1.83-0.65c0.31-0.51,0.58-0.72,0.82-0.72
		C84.65,434.18,84.99,434.83,85.24,435.56z M77.8,434.77c-0.46,0.75-1.09,1.17-1.74,1.54c0.21-0.76,0.36-1.52,0.79-2.26
		c0.03-0.06,0.08-0.08,0.14-0.08C77.31,433.96,77.92,434.61,77.8,434.77z M61.59,432.23c-0.34,1.44,0.34,2.36,0.63,3.47
		c-0.35,1.38-3.57,2.03-3.71,1.37c-0.07-0.31-0.22-0.14-0.24,0.01c-0.06,0.65-0.15,1.35,0.38,1.43c1.13,0.17,2.09-0.18,2.96-0.74
		c0.58-0.37,0.71-1.15,0.81-1.49c0.5,1.19,0.86,2.5,2.46,2.67c1.33,0.14,2.04-0.52,2.61-1.42c0.09-0.14,0.17-0.27,0.33,0.01
		c1.08,1.85,5.42,0.92,6.86,0.62l0.04,0.41c0.02,0.15,0.09,0.28,0.24,0.26l0.56-0.06c0.17,0.66,1.18,2.5,2.44,2.5
		c0.99,0,1.24-0.68,1.2-2.35c-0.01-0.32-0.2-0.49-0.22-0.71c1.74-0.35,3.5-0.69,3.99-2.3c0.47,0.7,1.42,0.82,2.41,0.91
		c0.31,0.03,0.39-0.02,0.46-0.17c0.33-0.8,0.13-1.84-0.38-2.95c-0.46-1-1.01-1.12-1.64-0.35c-0.82,1.02-0.71,1.83-1.47,2.5
		c-1.04,0.92-3.77,1.34-6.06,1.55c1.12-0.65,1.83-1.51,1.97-2.76c0.2-1.77-1.08-2.7-1.65-1.38c-0.47,1.11-0.72,2.22-1,3.33
		c-1.52,0.7-5.51,1.57-7.46-0.11c-0.32-0.28-0.56-0.4-0.91,0.17c-0.8,1.32-2.92,1.47-3.78,0.1c-0.9-1.43-1.56-4.08-1.59-4.5
		c-0.01-0.14-0.06-0.21-0.12-0.2C61.67,432.07,61.61,432.13,61.59,432.23z M66.78,431.44c-0.16,0.24-0.35,0.59-0.54,0.88
		c-0.27-0.18-0.62-0.39-0.86-0.55c-0.13-0.08-0.18-0.08-0.26,0.05c-0.14,0.21-0.35,0.54-0.5,0.8c-0.05,0.09-0.04,0.18,0.1,0.26
		c0.26,0.15,0.66,0.38,0.9,0.51c0.08,0.04,0.14,0.01,0.2-0.07c0.13-0.18,0.28-0.45,0.49-0.79c0.36,0.21,0.65,0.4,0.94,0.54
		c0.08,0.04,0.12,0.03,0.18-0.04c0.14-0.18,0.39-0.58,0.5-0.78c0.07-0.14,0.05-0.19-0.07-0.27c-0.19-0.12-0.65-0.41-0.88-0.56
		C66.87,431.35,66.83,431.37,66.78,431.44z M49.8,430.64c-0.93,0.39-5.12,1.74-5.93,2.09c-0.05,0.02-0.08,0.03-0.1,0.1
		c-0.03,0.1-0.18,0.48-0.22,0.65c-0.02,0.07,0.04,0.07,0.1,0.04c0.11-0.05,0.3-0.15,0.43-0.2c0.68-0.24,4.63-1.57,5.46-1.9
		c0.05-0.02,0.1-0.05,0.12-0.11c0.05-0.11,0.17-0.45,0.22-0.61C49.89,430.64,49.86,430.61,49.8,430.64z M75.27,429.08
		c-0.03,0.08-0.09,0.2-0.12,0.28c-0.04,0.14,0.04,0.24,0.11,0.13c0.08-0.13,0.19-0.25,0.32-0.33c0.31-0.19,0.65-0.26,0.99-0.23
		c0.31,0.03,0.89,0.25,0.89,0.28c0,0.07-1.35,0.73-1.56,0.87c-0.09,0.06-0.2,0.16-0.18,0.27c0.02,0.08,0.15,0.1,0.25,0.06
		c0.53-0.19,0.72-0.18,1.15-0.36c0.58-0.25,0.75-0.55,0.85-0.58c0.04-0.01,0.09-0.01,0.14-0.05c0.17-0.16,0.31-0.57,0.32-0.71
		c-0.02-0.11-0.41-0.15-0.52-0.17c-0.38-0.09-0.75-0.29-1.14-0.32C76.15,428.15,75.58,428.43,75.27,429.08z M68.81,426.8
		c-0.93,0.39-5.12,1.74-5.93,2.09c-0.05,0.02-0.08,0.03-0.1,0.1c-0.03,0.1-0.18,0.48-0.22,0.65c-0.02,0.07,0.04,0.07,0.1,0.05
		c0.11-0.05,0.3-0.15,0.43-0.2c0.68-0.24,4.63-1.57,5.46-1.89c0.05-0.02,0.1-0.05,0.12-0.11c0.05-0.12,0.17-0.45,0.22-0.61
		C68.9,426.8,68.86,426.78,68.81,426.8z M84.06,426.11c0.1,0.12,0.26,0.37,0.28,0.8c0,0.13-0.02,0.3-0.03,0.31
		c-0.01,0.01-0.24-0.09-0.28-0.11c-0.08-0.04-0.31-0.13-0.71-0.28c-0.16-0.03,0-0.28,0-0.28c0.06-0.11,0.16-0.25,0.27-0.36l0.15-0.1
		C83.84,426.05,83.99,426.02,84.06,426.11z M83.97,425.36c-0.46,0.08-1.01,0.72-1.23,1.45c-0.1,0.33-0.03,0.52,0.14,0.63
		c0.26,0.16,0.64,0.29,1.09,0.41c-0.52,0.87-2.2,2-2.51,2.18c-0.36,0.21-0.3,0.44,0.16,0.24c1.69-0.76,2.52-1.57,2.9-2.29
		c0.12,0.02,0.22,0.06,0.34,0.09c0.2,0.05,0.16,0.08,0.26-0.24c0.05-0.15,0.09-0.26,0.1-0.33l-0.51-0.17l0.05-0.18
		c0.06-0.58-0.09-1.06-0.14-1.21C84.47,425.48,84.24,425.31,83.97,425.36z"/>
</g>
</svg>
