<?xml version="1.0" encoding="iso-8859-1"?>
<!-- Generator: Adobe Illustrator 25.2.1, SVG Export Plug-In . SVG Version: 6.00 Build 0)  -->
<svg version="1.1" xmlns="http://www.w3.org/2000/svg" xmlns:xlink="http://www.w3.org/1999/xlink" x="0px" y="0px"
	 viewBox="0 0 293.23 484.99" enable-background="new 0 0 293.23 484.99" xml:space="preserve">
<g id="Ornaments">
</g>
<g id="Header__x26__Marks__x26__Page_No.">
</g>
<g id="Aya_No.">
</g>
<g id="Quran_Text">
	<path fill-rule="evenodd" clip-rule="evenodd" d="M196.35,200.77c-0.93,0.39-3.52,1.42-4.34,1.77c-0.05,0.02-0.08,0.03-0.1,0.1
		c-0.03,0.1-0.13,0.42-0.18,0.59c-0.02,0.07,0.04,0.07,0.1,0.04c0.11-0.05,0.26-0.13,0.38-0.18c0.64-0.27,3.09-1.27,3.91-1.6
		c0.05-0.02,0.1-0.05,0.12-0.11c0.05-0.12,0.13-0.39,0.17-0.55C196.45,200.77,196.41,200.75,196.35,200.77z M194.44,192.87
		c-0.52,0.93-1.62,0.38-1.68,0.04c-0.03-0.21,0.37-0.92,0.67-0.91C193.82,192.01,194.15,192.48,194.44,192.87z M193.53,190.68
		c-0.14,0.02-0.27,0.11-0.42,0.25c-0.76,0.68-1.11,2.53-0.54,3.23c0.39,0.48,0.89,0.5,1.27,0.43c0.34-0.07,0.69-0.41,0.95-1.03
		c0.45,0.72,0.29,1.3-0.24,1.76c-0.53,0.41-1.13,0.58-1.68,0.64c-0.08,0.01-0.08,0.02-0.1,0.08c-0.08,0.28-0.11,0.41-0.18,0.66
		c-0.04,0.14-0.04,0.15,0.1,0.15c1.06-0.05,2.85,0.31,2.73,0.51c-1.21,1.19-2.71,1.85-4.09,1.94c-2.24,0.15-4.09-1.36-2.63-4.52
		c0.12-0.31-0.07-0.55-0.26-0.23c-1.99,3.95-0.21,5.95,2.19,6.08c1.7,0.09,3.7-0.77,4.99-2.28c0.3-0.49,0.44-1.03,0.4-1.45
		c-0.06-0.54-0.36-0.76-1.2-0.85c0.71-1.01,0.96-2.1,0.5-3.34c-0.36-0.88-0.74-1.37-1.33-1.86
		C193.81,190.7,193.67,190.66,193.53,190.68z M191.97,187.54c-0.17,0.28-0.4,0.69-0.53,0.94c-0.05,0.1-0.05,0.18,0.06,0.23
		c0.22,0.12,0.61,0.33,0.89,0.48c0.12,0.06,0.18,0.05,0.24-0.03c0.15-0.25,0.38-0.64,0.52-0.88c0.05-0.09,0.07-0.16-0.02-0.21
		c-0.26-0.16-0.69-0.42-0.95-0.57C192.07,187.44,192.02,187.46,191.97,187.54z M172.26,202.77c-0.93,0.39-3.03,1.23-3.85,1.58
		c-0.05,0.02-0.08,0.03-0.1,0.1c-0.03,0.1-0.13,0.42-0.18,0.59c-0.02,0.07,0.04,0.07,0.1,0.05c0.11-0.05,0.26-0.13,0.38-0.18
		c0.64-0.27,2.6-1.07,3.42-1.4c0.05-0.02,0.1-0.05,0.12-0.11c0.05-0.12,0.13-0.39,0.17-0.55
		C172.36,202.77,172.32,202.75,172.26,202.77z M167.38,201.79c-0.93,0.39-3.52,1.42-4.34,1.77c-0.05,0.02-0.08,0.03-0.1,0.1
		c-0.03,0.1-0.13,0.42-0.18,0.59c-0.02,0.07,0.04,0.07,0.1,0.04c0.11-0.05,0.26-0.13,0.38-0.18c0.64-0.27,3.08-1.27,3.91-1.6
		c0.05-0.02,0.1-0.05,0.12-0.11c0.05-0.11,0.13-0.39,0.17-0.55C167.48,201.79,167.44,201.77,167.38,201.79z M170.01,197.89
		c-0.17,0.28-0.4,0.69-0.53,0.94c-0.05,0.1-0.05,0.18,0.06,0.24c0.22,0.12,0.61,0.33,0.89,0.48c0.12,0.06,0.18,0.05,0.24-0.03
		c0.15-0.25,0.38-0.64,0.52-0.88c0.05-0.09,0.07-0.16-0.02-0.21c-0.26-0.16-0.69-0.42-0.96-0.57
		C170.1,197.79,170.06,197.81,170.01,197.89z M166.4,198.37c-0.36,0.5-1.14,0.49-1.79,0.08c-0.37-0.23-0.72-0.56-0.89-0.97
		C164.89,197.54,166.22,197.7,166.4,198.37z M156.25,194.32c0.24,0.55,0.53,1,0.88,1.35c-0.7-0.13-1.45-0.29-1.93-0.58
		c-0.15-0.09-0.13-0.13-0.04-0.26c0.17-0.24,0.41-0.43,0.66-0.61c0.08-0.06,0.16-0.11,0.23-0.09
		C156.12,194.15,156.2,194.21,156.25,194.32z M165.25,192.78c0.23,0.04,0.41,0.31,0.5,0.68c-0.37,0.73-1.07,1.28-1.96,1.65
		c0.22-0.87,0.58-1.67,1.03-2.14c0.12-0.12,0.22-0.19,0.32-0.2C165.18,192.76,165.22,192.78,165.25,192.78z M170.04,191.32
		c-0.1,0.29-0.18,0.64-0.27,0.93c-0.03,0.1-0.09,0.2,0.03,0.32c0.42,0.45,0.91,1.07,1.07,1.85c-0.97,1-4.1,1.65-6.77,1.65
		c0.74-0.39,1.34-0.91,1.65-1.53c0.27-0.56,0.47-1.31,0.49-1.92c0.03-0.94-0.4-1.11-0.69-1.14c-0.43-0.05-0.92,0.51-1.26,1.2
		c-0.39,0.79-0.69,1.68-0.89,2.56c-0.92,0.31-2.01,0.44-3.11,0.35c-1.81-0.14-2.96-0.78-3.72-1.98c-0.28-0.44-0.6-0.27-0.85-0.07
		c-0.37,0.3-0.92,0.99-1.02,1.34c-0.1,0.38-0.1,1.28,0.47,1.61c-1.03,1.11-2.83,2.26-4.41,3.1c-0.18,0.1-0.38,0.32,0.04,0.23
		c1.12-0.25,2.45-0.63,3.36-1.26c0.63-0.43,1.23-1.08,1.41-1.92c0.55,0.19,1.33,0.32,1.99,0.42c0.33,0.05,0.34,0.04,0.39-0.28
		l0.08-0.49c1.34,0.51,3.08,0.7,4.67,0.31c-0.07,0.72-0.06,0.8,0.32,0.81c0.09,0,0.19,0.01,0.28,0.01c0.21,1.23,1,2.54,2.25,2.61
		c0.4,0.02,0.78-0.13,0.99-0.47c0.45-0.73,0.46-1.89,0.14-2.56c0,0,0-0.01,0-0.01c1.9-0.23,3.42-0.78,3.98-1.35
		c0.29-0.3,0.46-0.53,0.6-0.89c0.4-1.11,0.12-2.54-0.93-3.48c-0.05-0.05-0.12-0.08-0.16-0.08
		C170.1,191.22,170.07,191.24,170.04,191.32z M183.05,187.87c-0.16,0.24-0.35,0.59-0.54,0.88c-0.27-0.18-0.62-0.39-0.86-0.55
		c-0.13-0.08-0.18-0.07-0.26,0.05c-0.14,0.21-0.35,0.54-0.5,0.8c-0.05,0.1-0.04,0.18,0.1,0.26c0.26,0.15,0.66,0.38,0.9,0.51
		c0.08,0.04,0.14,0.01,0.2-0.07c0.13-0.18,0.28-0.45,0.49-0.79c0.36,0.21,0.65,0.4,0.94,0.54c0.08,0.04,0.12,0.03,0.18-0.04
		c0.14-0.18,0.39-0.58,0.5-0.78c0.07-0.14,0.05-0.19-0.07-0.27c-0.19-0.12-0.65-0.41-0.88-0.56
		C183.15,187.78,183.1,187.79,183.05,187.87z M175.58,195.17c0.26,0.19,0.52,0.61,0.74,1.04c-0.58,0.06-1.12-0.01-1.46-0.27
		c-0.14-0.1-0.14-0.16-0.08-0.28c0.07-0.19,0.24-0.41,0.4-0.5c0.04-0.02,0.08-0.04,0.12-0.06
		C175.41,195.06,175.48,195.1,175.58,195.17z M183.06,193.08c0.24,0.14,0.49,0.41,0.71,0.74c-0.21,0.24-0.48,0.37-0.77,0.36
		c-0.25,0-0.48-0.11-0.65-0.32c-0.11-0.12-0.1-0.16-0.04-0.3c0.06-0.17,0.15-0.32,0.25-0.45c0.08-0.08,0.16-0.11,0.24-0.11
		C182.89,193,182.97,193.03,183.06,193.08z M178.47,186.76l-0.25,0.8c-0.06,0.22-0.06,0.23-0.02,0.43c0.31,2.41,0.44,3.21,0.67,4.76
		c0.13,0.94,0.26,1.68,0.39,2.31c-0.35,0.4-1.5,0.95-2.2,1c-0.34-1.1-0.91-2.38-1.67-2.28c-0.8,0.1-1.66,2.16-0.99,3.12
		c0.52,0.75,1.46,0.61,2.24,0.46c-1.42,3.4-4.29,3.89-6.67,3.44c-0.4-0.07-0.64,0.25-0.08,0.39c4.04,1.11,6.04,0.49,7.17-3.94
		c0.62-0.17,1.85-0.6,2.4-1.32c0.15,0.55,0.33,0.96,0.51,1.25c1,1.61,3.82,0.65,4.37-0.19c1.01-1.54,0.64-4.24-1.14-5.23
		c-0.37-0.2-0.53-0.07-0.76,0.21c-0.52,0.66-0.96,2.22-0.41,2.94c0.36,0.47,0.84,0.56,1.23,0.45c0.39-0.12,0.7-0.5,0.89-0.91
		c0.18,0.4,0.31,0.8,0.32,1.15c-0.41,0.76-3.09,1.92-4.06,0.36c-0.18-0.29-0.44-0.95-0.65-2.03c-0.16-0.83-0.32-1.85-0.48-2.91
		c-0.23-1.53-0.42-2.68-0.65-4.27c-0.02-0.12-0.04-0.18-0.07-0.18C178.53,186.6,178.5,186.66,178.47,186.76z M178.15,182.82
		c0.11,0.12,0.26,0.37,0.29,0.8c0,0.13-0.02,0.3-0.03,0.31c-0.01,0.01-0.24-0.09-0.28-0.11c-0.08-0.04-0.31-0.13-0.71-0.28
		c-0.16-0.03,0-0.28,0-0.28c0.06-0.11,0.16-0.25,0.27-0.37l0.15-0.1C177.93,182.76,178.08,182.73,178.15,182.82z M178.06,182.07
		c-0.46,0.08-1,0.72-1.23,1.45c-0.1,0.33-0.04,0.52,0.14,0.63c0.26,0.16,0.64,0.29,1.09,0.41c-0.52,0.87-2.2,2-2.51,2.18
		c-0.37,0.21-0.3,0.44,0.15,0.24c1.69-0.76,2.53-1.57,2.9-2.29c0.12,0.02,0.22,0.06,0.34,0.09c0.2,0.05,0.16,0.08,0.27-0.24
		c0.05-0.15,0.08-0.26,0.1-0.33l-0.51-0.17l0.05-0.18c0.06-0.58-0.09-1.06-0.14-1.21C178.56,182.19,178.33,182.02,178.06,182.07z
		 M183.39,182.54c0.11,0.12,0.26,0.37,0.29,0.8c0,0.12-0.02,0.3-0.03,0.31c-0.01,0.01-0.24-0.09-0.28-0.11
		c-0.08-0.04-0.31-0.13-0.71-0.28c-0.16-0.03,0-0.28,0-0.28c0.06-0.11,0.16-0.25,0.27-0.36l0.15-0.1
		C183.18,182.48,183.33,182.44,183.39,182.54z M183.31,181.79c-0.46,0.08-1.01,0.72-1.23,1.45c-0.1,0.33-0.04,0.52,0.14,0.63
		c0.26,0.16,0.64,0.29,1.09,0.4c-0.52,0.87-2.2,2-2.51,2.18c-0.36,0.21-0.3,0.44,0.16,0.24c1.69-0.76,2.52-1.57,2.9-2.29
		c0.12,0.02,0.22,0.06,0.34,0.09c0.2,0.05,0.16,0.08,0.26-0.24c0.05-0.15,0.09-0.26,0.1-0.33l-0.51-0.17l0.05-0.18
		c0.06-0.58-0.09-1.06-0.14-1.21C183.81,181.91,183.58,181.74,183.31,181.79z M148.62,195.01c-0.59-0.08-1.63-0.32-1.92-0.7
		c0.18-0.42,0.49-0.78,0.84-0.8C147.91,193.5,148.31,193.88,148.62,195.01z M147.24,192.44c-0.86,0.91-1.09,2.47-1.59,2.78
		c-1.55,0.91-4.41,0.69-4.83-0.26c-0.1-0.23-0.17-0.56-0.29-0.22c-0.51,1.67,0.44,1.94,0.84,2.06c-1.12,2.43-2.62,4.17-7,3.33
		c-0.77-0.17-0.54,0.24-0.24,0.39c1.31,0.59,2.98,0.75,4.02,0.69c1.45-0.08,3.16-1.29,3.74-4.28c1.08,0.25,3.04,0.26,3.97-0.61
		c0.2-0.19,0.39-0.85,0.51-1.36c-0.03,0.42,0,0.53,0.11,0.67c0.35,0.42,1.84,0.95,2.71,0.64c0.2-0.07,0.22-0.84,0.16-1.32
		c-0.15-0.88-0.51-2.15-1.14-2.65c-0.13-0.1-0.27-0.15-0.41-0.15C147.62,192.16,147.43,192.25,147.24,192.44z M137.13,193.81
		c0.05,0.08,0.08,0.08,0.01,0.14c-1.22,1.02-3.64,1.69-5.19,1.56c0.61-0.41,2.29-2.32,3.43-2.52c0.07-0.01,0.14-0.01,0.22-0.01
		C136.13,193,136.85,193.36,137.13,193.81z M135.06,192.01c-0.69,0.47-2.79,2.45-3.79,3.42c-0.15-0.01-0.69,0.02-0.88-0.5
		c-0.1-0.28-0.31-0.7-0.49-1.09c-0.15-0.33-0.26-0.3-0.34,0l-0.2,0.84c-0.04,0.2-0.05,0.15,0.1,0.49c0.78,1.76,0.89,2.16,0.82,3
		c-0.61,1.36-3.81,2.77-5.64,1.26c-0.9-0.74-0.93-2.05-0.12-3.73c0.12-0.23-0.05-0.46-0.24-0.08c-1.27,2.26-1.16,3.71-0.43,4.7
		c1.11,1.48,3.9,1.54,5.8-0.04c0.97-0.81,1.2-2.38,1.17-3.51c0.03,0.01,0.06,0.02,0.09,0.03c1.38,0.23,3.97-0.2,5.55-1.17
		c0.29-0.18,0.45-0.28,0.64-0.53c0.25-0.33,0.52-0.78,0.68-1.24c0.21-0.59,0.22-1.17-0.25-1.57
		C136.78,191.6,135.89,191.44,135.06,192.01z M132.26,189.36c-0.17,0.28-0.4,0.69-0.53,0.94c-0.05,0.1-0.05,0.17,0.06,0.23
		c0.22,0.12,0.61,0.33,0.89,0.48c0.12,0.06,0.19,0.05,0.24-0.03c0.15-0.25,0.38-0.64,0.52-0.88c0.05-0.09,0.07-0.16-0.02-0.21
		c-0.26-0.16-0.69-0.42-0.95-0.57C132.36,189.27,132.31,189.28,132.26,189.36z M142.64,188.16c-0.93,0.39-3.52,1.42-4.34,1.77
		c-0.05,0.02-0.08,0.03-0.1,0.1c-0.03,0.1-0.13,0.42-0.18,0.59c-0.02,0.07,0.04,0.07,0.1,0.04c0.11-0.05,0.26-0.13,0.38-0.18
		c0.64-0.27,3.08-1.27,3.91-1.6c0.05-0.02,0.1-0.05,0.12-0.11c0.05-0.12,0.13-0.39,0.17-0.55
		C142.74,188.16,142.7,188.14,142.64,188.16z M148.26,187.64l-0.23,0.43c-0.03,0.05-0.05,0.08-0.03,0.13
		c0.07,0.17,0.12,0.37,0.12,0.48c-0.27,0.26-0.56,0.3-0.77,0.13c-0.14-0.11-0.19-0.32-0.17-0.59c0.01-0.2,0.03-0.27-0.14-0.13
		c-0.23,0.18-0.17,0.16-0.18,0.27c-0.08,0.65-0.36,0.94-0.85,0.97c-0.31,0.02-0.54-0.2-0.32-0.82c0.05-0.13-0.05-0.27-0.18,0
		c-0.47,0.93-0.18,1.45,0.29,1.52c0.39,0.06,0.85-0.16,1.09-0.75c0.18,0.3,0.55,0.38,0.88,0.3c0.42-0.11,0.51-0.3,0.63-0.65
		c0.12-0.33,0.12-0.77-0.04-1.29C148.32,187.55,148.27,187.59,148.26,187.64z M149.34,184.48c-0.93,0.39-4.68,1.66-5.5,2.01
		c-0.05,0.02-0.08,0.03-0.1,0.1c-0.03,0.1-0.13,0.42-0.18,0.59c-0.02,0.07,0.04,0.07,0.1,0.04c0.11-0.05,0.26-0.13,0.39-0.18
		c0.64-0.27,4.25-1.51,5.07-1.84c0.05-0.02,0.1-0.05,0.12-0.11c0.05-0.12,0.13-0.39,0.17-0.55
		C149.43,184.48,149.39,184.45,149.34,184.48z M130.11,185.15c0.01,0.07,0.01,0.14,0.01,0.21v0.04l-0.01,0.09l-0.12-0.02
		c-0.2-0.04-0.55-0.14-0.86-0.32c-0.02-0.02-0.01-0.07,0-0.11l0.15-0.19c0.15-0.12,0.3-0.21,0.43-0.23
		C129.91,184.6,130.08,184.73,130.11,185.15z M129.74,183.85c-0.42,0.09-0.89,0.71-1.07,1.41c-0.08,0.32-0.01,0.5,0.16,0.6
		c0.25,0.15,0.59,0.26,1.01,0.35c-0.45,0.84-1.94,1.96-2.22,2.14c-0.33,0.21-0.26,0.43,0.15,0.22c1.5-0.76,2.23-1.54,2.55-2.22
		c0.12-0.22,0.21-0.79,0.21-0.79c0.04-0.57-0.12-1.04-0.17-1.18C130.2,183.95,129.99,183.79,129.74,183.85z M132.65,185.17
		c0,0.07,0.01,0.14,0.01,0.21l0,0.05l-0.01,0.09l-0.15-0.03c-0.2-0.05-0.53-0.15-0.82-0.31c-0.02-0.02-0.01-0.07,0.01-0.11
		l0.15-0.19c0.14-0.12,0.3-0.21,0.43-0.23C132.46,184.61,132.62,184.74,132.65,185.17z M132.32,183.85
		c-0.42,0.09-0.89,0.71-1.07,1.41c-0.08,0.32-0.01,0.5,0.16,0.6c0.25,0.15,0.59,0.26,1.01,0.35c-0.45,0.84-1.94,1.96-2.22,2.14
		c-0.33,0.21-0.26,0.43,0.15,0.22c1.52-0.77,2.26-1.56,2.57-2.25c0.11,0.02,0.2,0.05,0.31,0.08c0.19,0.05,0.14,0.07,0.23-0.24
		c0.15-0.51,0.13-0.48-0.22-0.57c-0.05-0.01-0.09-0.02-0.14-0.03c0.05-0.57-0.12-1.04-0.17-1.18
		C132.78,183.95,132.57,183.79,132.32,183.85z M101.02,191.76c-0.04,0.24-0.12,0.97,0,0.98c0.08,0.01,0.42-0.15,0.73,0.01
		c0.71,0.36,1.42,1.65,1.69,2.7c-0.56,0.33-1.94,0.53-2.63,0.54c-0.21,0-0.61-0.04-0.72-0.23c-0.12-0.22-0.19-0.17-0.24,0.04
		c-0.06,0.27-0.11,0.62-0.12,0.85c-0.01,0.36,0.45,0.52,0.73,0.53c0.9,0.01,2.2-0.16,3-0.59c0.2-0.11,0.29-0.49,0.31-0.92
		c0.05-1.01-0.12-1.9-0.65-2.75c-0.46-0.75-1.1-1.42-1.75-1.44C101.2,191.48,101.05,191.56,101.02,191.76z M83.1,195.79
		c-0.49,0.01-1.84-0.57-2.12-0.97c0.44-0.45,0.74-0.62,0.97-0.62C82.42,194.22,82.59,194.99,83.1,195.79z M96.77,195.32
		c-0.17,0.32-1.24-0.16-1.81-0.31c0.18-0.48,0.17-1.34,0.16-1.7C95.75,193.85,96.99,194.9,96.77,195.32z M94.66,194.23
		c-0.15,0.15-0.62,0.46-1.04,0.63c-0.43-0.04-0.79-0.12-1.01-0.21c-0.35-0.15,0.49-1.52,0.89-1.58
		C94.02,193.02,94.53,193.94,94.66,194.23z M92.63,190.99c-0.16,0.3-0.2,1.43,0.12,1.36c-0.89,1.37-0.92,2.99-0.47,2.93
		c-1.7,0.53-5.53,0.93-7.5,0.19c-1.1-0.44-1.51-1.18-2.25-2.12c-0.43-0.49-1.71,1.03-1.8,1.17c-0.09,0.15-0.25,1.33,0.18,1.73
		c-0.65,1.33-3.87,2.64-4.32,2.84c-0.47,0.21-0.23,0.33,0.08,0.28c1.26-0.2,3.91-0.49,4.65-2.82c0.76,0.54,1.92,0.73,2.42,0.72
		c0.25-0.01,0.21-0.45,0.21-0.72c2.98,1.5,7.28,0.49,10.11-0.58c0.95,0.16,2.26,1.1,2.81,0.52c0.21-0.22,0.71-1.44-0.09-2.84
		c-0.52-0.97-2.59-2.74-3.43-2.88c-0.07-0.01-0.14-0.02-0.21-0.02C92.94,190.73,92.74,190.8,92.63,190.99z M119.9,192.25
		c-0.3,0.37-1.2,0.68-1.65-0.13c0.13-0.58,0.37-0.86,0.65-0.86C119.22,191.26,119.59,191.6,119.9,192.25z M118.61,189.98
		c-0.74,0.65-0.88,2.06-0.84,2.77c0.11,1.34,1.94,1.89,2.56,0.27l0.43,1.05c-1.76,1.47-6.26,2.01-8.15,1.36
		c-0.41-0.14-0.99-0.46-1.3-1.13c-0.13-0.34-0.23-0.27-0.28-0.07c-0.13,0.56-0.25,1.74,0.74,2.24c-1.57,4.03-5.1,3.83-7.04,3.21
		c-0.38-0.13-0.73,0.14-0.16,0.43c0.92,0.46,3.07,0.94,4.12,0.81c1.36-0.16,3.07-1.55,3.56-4.24c2.44,0.87,7.41,0.12,8.71-1.44
		c0.3-0.41,0.23-1.89,0.12-2.57c-0.13-0.86-0.82-2.01-1.66-2.68c-0.15-0.12-0.3-0.16-0.43-0.16
		C118.81,189.85,118.68,189.92,118.61,189.98z M110.88,189.47c-0.17,0.28-0.4,0.69-0.53,0.94c-0.05,0.1-0.05,0.17,0.06,0.23
		c0.22,0.12,0.61,0.33,0.89,0.48c0.11,0.06,0.18,0.05,0.24-0.03c0.15-0.25,0.38-0.63,0.52-0.88c0.05-0.09,0.07-0.16-0.02-0.21
		c-0.26-0.16-0.69-0.42-0.95-0.57C110.98,189.37,110.93,189.39,110.88,189.47z M82.25,187.07c0.1,0.12,0.26,0.37,0.28,0.8
		c0,0.12-0.02,0.3-0.03,0.31c-0.01,0.01-0.24-0.09-0.28-0.11c-0.08-0.04-0.31-0.13-0.71-0.28c-0.16-0.03,0-0.28,0-0.28
		c0.06-0.11,0.16-0.25,0.27-0.37l0.15-0.1C82.04,187.01,82.19,186.97,82.25,187.07z M82.16,186.32c-0.46,0.08-1,0.72-1.23,1.45
		c-0.1,0.33-0.04,0.52,0.14,0.63c0.26,0.16,0.64,0.29,1.09,0.4c-0.52,0.87-2.2,2-2.51,2.18c-0.36,0.21-0.3,0.44,0.16,0.24
		c1.69-0.76,2.52-1.57,2.9-2.29c0.12,0.02,0.22,0.06,0.34,0.09c0.2,0.05,0.16,0.08,0.27-0.24c0.05-0.15,0.09-0.26,0.1-0.33
		l-0.51-0.17l0.05-0.18c0.06-0.58-0.09-1.06-0.14-1.21C82.67,186.43,82.44,186.27,82.16,186.32z M118.06,186.39
		c-0.17,0.28-0.4,0.69-0.53,0.94c-0.05,0.1-0.05,0.18,0.06,0.23c0.22,0.12,0.61,0.33,0.89,0.48c0.11,0.06,0.18,0.05,0.24-0.03
		c0.15-0.25,0.38-0.64,0.52-0.88c0.05-0.09,0.07-0.16-0.02-0.21c-0.26-0.16-0.69-0.42-0.95-0.57
		C118.15,186.29,118.11,186.31,118.06,186.39z M103.49,185.48c-0.93,0.39-4.1,1.56-4.92,1.91c-0.05,0.02-0.08,0.03-0.1,0.1
		c-0.03,0.1-0.13,0.42-0.18,0.59c-0.02,0.07,0.04,0.07,0.1,0.04c0.11-0.05,0.26-0.13,0.38-0.18c0.64-0.27,3.66-1.4,4.49-1.73
		c0.05-0.02,0.1-0.05,0.12-0.11c0.05-0.11,0.13-0.39,0.17-0.55C103.58,185.47,103.55,185.45,103.49,185.48z M105.51,185.02
		l-0.19,0.99c-0.06,0.28-0.04,0.31,0,0.55c0.11,0.66,0.27,1.31,0.39,1.95c0.32,1.55,0.71,3.5,0.99,4.93
		c0.2,1.07,0.34,2.16,0.38,3.12c0.01,0.18,0.11,0.17,0.16,0.03c0.17-0.53,0.24-1.09,0.24-1.68c0-0.58-0.19-1.75-0.38-2.68
		c-0.26-1.29-0.61-3.1-0.85-4.27c-0.21-0.99-0.41-1.99-0.53-2.95c-0.01-0.11-0.06-0.15-0.1-0.14
		C105.57,184.87,105.53,184.93,105.51,185.02z M93.44,185.21c0.11,0.12,0.26,0.37,0.29,0.8c0,0.12-0.02,0.3-0.03,0.31
		c-0.01,0.01-0.24-0.09-0.28-0.11c-0.08-0.04-0.31-0.13-0.71-0.28c-0.16-0.03,0-0.28,0-0.28c0.06-0.11,0.16-0.25,0.27-0.37l0.15-0.1
		C93.23,185.15,93.38,185.11,93.44,185.21z M93.35,184.45c-0.46,0.08-1,0.72-1.23,1.45c-0.1,0.33-0.04,0.52,0.14,0.63
		c0.26,0.16,0.64,0.29,1.09,0.4c-0.52,0.87-2.2,2-2.51,2.18c-0.36,0.21-0.3,0.44,0.15,0.24c1.69-0.76,2.52-1.57,2.9-2.29
		c0.12,0.02,0.22,0.06,0.34,0.09c0.2,0.05,0.16,0.08,0.26-0.24c0.05-0.15,0.09-0.26,0.1-0.33l-0.51-0.17l0.05-0.18
		c0.06-0.58-0.09-1.06-0.14-1.21C93.85,184.57,93.63,184.41,93.35,184.45z M112.58,183.92c-0.93,0.39-4.1,1.56-4.92,1.91
		c-0.05,0.02-0.08,0.03-0.1,0.1c-0.03,0.1-0.13,0.42-0.18,0.59c-0.02,0.07,0.04,0.07,0.1,0.05c0.11-0.05,0.26-0.13,0.38-0.18
		c0.64-0.27,3.66-1.41,4.49-1.73c0.05-0.02,0.1-0.05,0.12-0.11c0.05-0.12,0.13-0.39,0.17-0.55
		C112.67,183.91,112.64,183.89,112.58,183.92z M120.1,183.11c-0.93,0.39-4.1,1.56-4.92,1.91c-0.05,0.02-0.08,0.03-0.1,0.1
		c-0.03,0.1-0.13,0.42-0.18,0.59c-0.02,0.07,0.04,0.07,0.1,0.04c0.11-0.05,0.26-0.13,0.38-0.18c0.64-0.27,3.66-1.41,4.49-1.73
		c0.05-0.02,0.1-0.05,0.12-0.11c0.05-0.12,0.13-0.39,0.17-0.55C120.19,183.11,120.16,183.08,120.1,183.11z M65.01,194.62
		c-0.74,0.48-2.06,0.44-2.6,0.35c0.43-0.75,1.66-1.24,2.53-1.7L65.01,194.62z M70.23,189.69c-0.1,0.26-0.15,0.84-0.14,1.2
		c0.06,1.45,0.9,2.86,1.5,4.31c-0.17,0.57-1.47-0.04-2-0.64c-0.79-0.87-0.62-2.92-1.09-4.43c-0.23-0.69-0.35,0.99-0.31,1.42
		c0.15,1,0.27,2.17,0.48,3.12c-0.38,0.83-1.52,1.94-2.59,1.16c-0.8-0.62-0.52-2.81-0.75-4.39c-0.05-0.24-0.19,0-0.21,0.07
		c-0.07,0.33-0.12,0.72-0.14,1.09c-1.08,0.42-1.96,0.74-2.42,1.32c-0.48,0.59-0.73,1.27-0.82,1.77c-0.07,0.38-0.06,0.45,0.27,0.55
		c0.57,0.14,1.62,0.19,2.13-0.22c0.29-0.23,0.68-0.67,0.9-1c0.02,3.62,3.82,2.58,3.88,0.23c0.38,0.73,1.59,1.58,2.41,1.48
		c0.39-0.05,0.94-0.85,0.63-2.48c-0.31-1.64-1.38-2.79-1.46-4.49C70.49,189.58,70.31,189.48,70.23,189.69z M63.34,186.81
		c0.1,0.12,0.26,0.37,0.29,0.8c0,0.12-0.02,0.3-0.03,0.31c-0.01,0.01-0.24-0.09-0.28-0.11c-0.08-0.04-0.31-0.13-0.71-0.28
		c-0.16-0.03,0-0.28,0-0.28c0.06-0.11,0.16-0.25,0.27-0.37l0.15-0.1C63.13,186.75,63.28,186.72,63.34,186.81z M63.25,186.06
		c-0.46,0.08-1,0.72-1.23,1.45c-0.1,0.33-0.04,0.52,0.14,0.63c0.26,0.16,0.64,0.29,1.09,0.41c-0.52,0.87-2.2,2-2.51,2.18
		c-0.36,0.21-0.3,0.44,0.16,0.24c1.69-0.76,2.52-1.57,2.9-2.29c0.12,0.02,0.22,0.06,0.34,0.09c0.2,0.05,0.16,0.08,0.27-0.24
		c0.05-0.15,0.09-0.26,0.1-0.33L64,188.02l0.05-0.18c0.06-0.58-0.09-1.06-0.14-1.21C63.76,186.18,63.53,186.01,63.25,186.06z
		 M69.24,185.79l-0.23,0.43c-0.02,0.05-0.05,0.08-0.03,0.13c0.07,0.17,0.12,0.37,0.12,0.48c-0.27,0.26-0.56,0.3-0.77,0.13
		c-0.14-0.11-0.19-0.32-0.17-0.59c0.01-0.2,0.03-0.27-0.14-0.13c-0.23,0.18-0.16,0.17-0.18,0.27c-0.08,0.65-0.36,0.94-0.85,0.97
		c-0.31,0.02-0.54-0.2-0.32-0.82c0.05-0.13-0.05-0.27-0.18,0c-0.47,0.93-0.18,1.45,0.29,1.52c0.39,0.06,0.85-0.16,1.09-0.75
		c0.18,0.3,0.55,0.39,0.88,0.3c0.42-0.11,0.51-0.3,0.63-0.65c0.12-0.33,0.12-0.77-0.04-1.29C69.31,185.7,69.26,185.74,69.24,185.79z
		 M72.94,184.49l-0.2,0.99c-0.06,0.28-0.04,0.31,0,0.55c0.11,0.66,0.27,1.31,0.39,1.95c0.32,1.55,0.85,4.26,1.13,5.69
		c0.2,1.07,0.34,2.16,0.38,3.12c0.01,0.18,0.11,0.17,0.16,0.03c0.17-0.53,0.24-1.09,0.24-1.69c0-0.58-0.19-1.75-0.38-2.68
		c-0.26-1.29-0.75-3.86-1-5.03c-0.21-0.99-0.41-1.99-0.53-2.95c-0.01-0.11-0.06-0.15-0.1-0.13C73,184.34,72.96,184.4,72.94,184.49z
		 M70.4,182.43c-0.93,0.39-4.68,1.66-5.5,2.01c-0.05,0.02-0.08,0.03-0.1,0.1c-0.03,0.1-0.13,0.42-0.18,0.59
		c-0.02,0.07,0.04,0.07,0.1,0.04c0.11-0.05,0.26-0.13,0.38-0.18c0.64-0.27,4.24-1.51,5.07-1.84c0.05-0.02,0.1-0.05,0.12-0.11
		c0.05-0.12,0.13-0.39,0.17-0.55C70.49,182.43,70.46,182.4,70.4,182.43z M74.9,181.62c0.08,0.08,0.17,0.19,0.16,0.3
		c-0.13,0.29-0.95,0.58-1.26,0.66c-0.06,0.01-0.38,0.08-0.35-0.02c0.19-0.3,0.37-0.62,0.64-0.87
		C74.35,181.48,74.63,181.38,74.9,181.62z M74.12,181.09c-0.36,0.37-0.85,1.05-1.06,1.49c-0.16-0.01-0.46-0.17-0.6-0.24
		c-0.19-0.09-0.32,0.1-0.41,0.25c-0.18,0.29-0.33,0.58-0.44,0.9l-0.11,0.31c0,0.13,0.06,0.17,0.16,0.07
		c0.22-0.22,0.39-0.82,0.52-0.74c0.75,0.43,1.71,0.28,2.43-0.22c0.56-0.4,0.99-1.01,0.83-1.69c-0.06-0.24-0.33-0.47-0.59-0.49
		C74.56,180.71,74.32,180.88,74.12,181.09z M56.77,194.16c-0.59-0.08-1.63-0.32-1.92-0.7c0.17-0.42,0.49-0.78,0.84-0.8
		C56.06,192.65,56.46,193.03,56.77,194.16z M55.38,191.59c-0.86,0.91-1.09,2.47-1.59,2.78c-1.55,0.91-4.41,0.69-4.83-0.26
		c-0.1-0.23-0.17-0.56-0.29-0.22c-0.51,1.67,0.44,1.94,0.84,2.07c-1.12,2.43-2.62,4.17-7,3.33c-0.76-0.17-0.54,0.24-0.24,0.39
		c1.31,0.59,2.98,0.75,4.02,0.69c1.45-0.08,3.16-1.29,3.74-4.28c1.08,0.25,3.04,0.26,3.97-0.61c0.2-0.19,0.39-0.85,0.51-1.36
		c-0.02,0.42,0,0.53,0.12,0.67c0.35,0.42,1.84,0.95,2.71,0.64c0.2-0.07,0.22-0.84,0.16-1.31c-0.15-0.88-0.51-2.15-1.14-2.65
		c-0.13-0.1-0.27-0.15-0.41-0.15C55.77,191.31,55.57,191.39,55.38,191.59z M39.46,189.91c-0.17,0.28-0.4,0.69-0.53,0.94
		c-0.05,0.1-0.05,0.18,0.06,0.23c0.22,0.12,0.61,0.33,0.89,0.48c0.12,0.06,0.19,0.05,0.24-0.03c0.15-0.25,0.38-0.64,0.52-0.88
		c0.05-0.09,0.07-0.16-0.02-0.21c-0.26-0.16-0.69-0.42-0.95-0.57C39.56,189.81,39.51,189.83,39.46,189.91z M44.33,194.68
		c-1.61,1.41-3.59,1.64-5.42,1.64c0.78-0.69,1.5-1.41,2.35-2.07C42.12,193.59,43.32,193.78,44.33,194.68z M25.11,187.82
		c0.39,2.35,0.29,5.34,0.75,7.35c0.26,1.1,0.56,1.81,2.09,2.39c1.85,0.68,6.62,0.21,8.16-1.66c0.1,0.22,0.31,0.65,0.54,0.86
		c-0.37,0.73-0.61,1.38-0.88,2.08c-0.23,0.57,0.21,0.26,0.36,0.1c0.35-0.37,0.49-1,0.98-1.83c1.47,0.71,5.55,0.52,7.28-1.35
		c0.51-0.55,0.8-1.6,0.39-2.37c-0.21-0.4-1.4-1.16-2.38-0.82c-1.47,0.54-2.82,2.39-4.36,3.59c-0.49-0.09-1.07-0.39-1.63-0.69
		c0.19-0.27,0.31-0.53,0.37-0.88c0.04-0.23-0.24-0.21-0.44,0c-1.57,2.01-6.44,2.37-8.18,1.73c-0.9-0.34-1.47-0.94-1.69-2
		c-0.41-1.85-0.07-4.58-0.79-7.62C25.5,186.01,25.11,187.02,25.11,187.82z M41.75,186.37c-0.93,0.39-3.52,1.42-4.34,1.77
		c-0.05,0.02-0.08,0.03-0.1,0.1c-0.03,0.1-0.13,0.42-0.18,0.59c-0.02,0.07,0.04,0.07,0.1,0.04c0.11-0.05,0.26-0.13,0.39-0.18
		c0.64-0.27,3.08-1.27,3.91-1.6c0.05-0.02,0.1-0.05,0.12-0.11c0.05-0.12,0.13-0.39,0.17-0.55C41.84,186.36,41.8,186.34,41.75,186.37
		z M50.73,186.25c-0.93,0.39-4.68,1.66-5.5,2.01c-0.05,0.02-0.08,0.03-0.1,0.1c-0.03,0.1-0.13,0.42-0.18,0.59
		c-0.02,0.07,0.04,0.07,0.1,0.05c0.11-0.05,0.26-0.13,0.38-0.18c0.64-0.27,4.25-1.51,5.07-1.84c0.05-0.02,0.1-0.05,0.12-0.11
		c0.05-0.12,0.13-0.39,0.17-0.55C50.83,186.25,50.79,186.23,50.73,186.25z M56.85,186.1c-0.93,0.39-4.1,1.56-4.92,1.91
		c-0.05,0.02-0.08,0.03-0.1,0.1c-0.03,0.1-0.13,0.42-0.18,0.59c-0.02,0.07,0.04,0.07,0.1,0.04c0.11-0.05,0.26-0.13,0.38-0.18
		c0.64-0.27,3.66-1.41,4.49-1.73c0.05-0.02,0.1-0.05,0.12-0.11c0.05-0.12,0.13-0.39,0.17-0.55C56.94,186.1,56.9,186.07,56.85,186.1z
		 M38.98,185.66c-0.93,0.39-3.52,1.42-4.34,1.77c-0.05,0.02-0.08,0.03-0.1,0.1c-0.03,0.1-0.13,0.42-0.18,0.59
		c-0.02,0.07,0.04,0.07,0.1,0.04c0.11-0.05,0.26-0.13,0.38-0.18c0.64-0.27,3.08-1.27,3.91-1.6c0.05-0.02,0.1-0.05,0.12-0.11
		c0.05-0.11,0.13-0.39,0.17-0.55C39.08,185.66,39.04,185.64,38.98,185.66z M31.35,182c-0.19,0.27-0.58,0.42-1.02,0.53
		c-0.32,0.09-0.71,0.14-1.04,0.11c0.32-0.42,0.71-0.77,1.14-0.95C30.8,181.53,31.1,181.59,31.35,182z M26.6,179.85
		c-0.07,0.15-0.12,0.2-0.19,0.32c-0.02,0.04-0.02,0.09-0.02,0.09c0.15,0.95,0.22,1.71,0.28,2.3c-0.02,0.13-0.08,0.24-0.26,0.34
		c-0.53,0.34-1.07,0.87-1.11,1.59c0,0.51,0.52,0.57,1.26,0.51c1.8-0.14,3.49-0.45,5.09-0.61c0.08-0.12,0.15-0.23,0.25-0.41
		c0.03-0.05,0.02-0.08-0.02-0.08c-1.62,0.11-3.43,0.46-5.15,0.57c-0.32,0.02-0.63,0.01-0.94-0.08c-0.12-0.03-0.19-0.14-0.19-0.18
		c0-0.08,0.03-0.14,0.09-0.18c0.29-0.25,0.73-0.52,0.97-0.85c0.09-0.13,0.12-0.2,0.18-0.32c0.3,0.79,1.13,0.65,1.46-0.03
		c0.33,0.32,0.8,0.48,1.28,0.44c0.47-0.03,0.99-0.21,1.39-0.42c0.4-0.23,0.71-0.61,0.68-1.08c-0.02-0.42-0.44-0.84-0.97-0.78
		c-0.55,0.06-1.3,1.02-1.7,1.59c-0.2-0.04-0.35-0.17-0.49-0.41c-0.09-0.13-0.15-0.03-0.19,0.03c-0.22,0.4-0.44,0.54-0.71,0.57
		c-0.32,0.03-0.52-0.13-0.6-0.49c-0.12-0.5-0.26-1.65-0.34-2.45C26.67,179.82,26.62,179.8,26.6,179.85z M266.87,221.51
		c-0.35,0.51-0.83,0.73-1.37,0.22c-0.18-0.18-0.18-0.24-0.1-0.44c0.18-0.36,0.43-0.52,0.6-0.53
		C266.25,220.75,266.66,221.21,266.87,221.51z M265.47,219.73c-0.33,0.36-0.61,1.16-0.63,1.91c-0.04,0.84,0.41,1.68,1.21,1.7
		c0.49,0,0.94-0.44,1.2-1.08c0.17,1.03-0.69,2.57-1.88,3.53c-1.41,1.07-2.75,1.2-4.73,1.11c-0.32-0.04-0.47,0.28-0.09,0.37
		c1.77,0.4,4.18,0.47,5.44-0.66c1.04-0.93,1.66-2.37,1.76-4c0.05-1.02-0.27-2.19-1.12-2.93
		C266.17,219.3,265.83,219.33,265.47,219.73z M268.39,214.36c-0.93,0.39-3.52,1.42-4.34,1.77c-0.05,0.02-0.08,0.03-0.1,0.1
		c-0.03,0.1-0.13,0.42-0.18,0.59c-0.02,0.07,0.04,0.07,0.1,0.04c0.11-0.05,0.26-0.13,0.38-0.18c0.64-0.27,3.08-1.27,3.91-1.6
		c0.05-0.02,0.1-0.05,0.12-0.11c0.05-0.11,0.13-0.39,0.17-0.55C268.48,214.36,268.45,214.34,268.39,214.36z M244.89,215.26
		c-0.04,0.08-0.09,0.2-0.12,0.28c-0.04,0.14,0.04,0.24,0.11,0.13c0.09-0.13,0.19-0.25,0.32-0.33c0.31-0.19,0.65-0.26,0.99-0.23
		c0.31,0.03,0.89,0.25,0.89,0.28c0,0.07-1.35,0.73-1.56,0.87c-0.09,0.06-0.21,0.16-0.18,0.27c0.02,0.08,0.15,0.1,0.25,0.06
		c0.53-0.19,0.72-0.18,1.15-0.36c0.58-0.25,0.75-0.55,0.85-0.58c0.04-0.01,0.09-0.01,0.14-0.05c0.17-0.16,0.31-0.57,0.32-0.71
		c-0.02-0.11-0.41-0.15-0.52-0.17c-0.38-0.09-0.75-0.29-1.14-0.32C245.77,214.34,245.2,214.61,244.89,215.26z M253.96,212.77
		c0.1,0.12,0.26,0.37,0.29,0.8c0,0.12-0.02,0.3-0.03,0.31c-0.01,0.01-0.24-0.09-0.28-0.11c-0.08-0.04-0.31-0.13-0.71-0.28
		c-0.16-0.03,0-0.28,0-0.28c0.06-0.11,0.16-0.25,0.27-0.36l0.15-0.1C253.75,212.71,253.9,212.67,253.96,212.77z M253.88,212.01
		c-0.46,0.08-1,0.72-1.23,1.45c-0.1,0.33-0.04,0.52,0.14,0.63c0.26,0.16,0.64,0.29,1.09,0.4c-0.52,0.87-2.2,2-2.51,2.18
		c-0.36,0.21-0.3,0.44,0.16,0.24c1.69-0.76,2.53-1.57,2.9-2.29c0.12,0.02,0.22,0.06,0.34,0.09c0.2,0.05,0.16,0.08,0.26-0.24
		c0.05-0.15,0.09-0.26,0.1-0.33l-0.51-0.17l0.05-0.18c0.06-0.58-0.09-1.06-0.14-1.21C254.38,212.13,254.15,211.97,253.88,212.01z
		 M256.58,224.86c-0.65,1.64-2.05,0.33-2.59-0.55C254.79,224.36,255.89,224.33,256.58,224.86z M246.98,222.61
		c-0.63-0.11-1.55-0.37-1.95-0.72c0.39-0.6,0.68-0.85,0.92-0.85C246.35,221.05,246.62,221.73,246.98,222.61z M255.82,220.18
		c-0.43,0.83-1.49,1.49-2.08,1.81c0.14-0.45,0.78-2.35,1.36-2.5C255.25,219.45,255.67,219.65,255.82,220.18z M259.85,211.87
		c-0.17,0.28-0.44,0.88-0.49,1.06c0.1,0.38,0.23,0.69,0.42,1.09c0.11,2.51,0.99,4.5,1.15,6.88c-0.49,1.17-4.68,2.05-6.61,1.89
		c0.9-0.56,2.14-1.73,2-3.36c-0.11-1.44-1.05-1.41-1.37-1.07c-0.88,0.95-1.41,2.91-1.67,3.85c-1.49,0.55-3.75,0.79-5.22-0.04
		c-1.17-0.66-1.66-2.46-2.29-1.97c-1.6,1.31-1.26,2.36-0.94,2.92c-1.1,1.45-2.83,2.21-4.47,3.08c-0.47,0.25-0.35,0.48,0.14,0.37
		c1.42-0.36,3.81-0.92,4.72-3.14c0.7,0.37,2.17,0.64,2.49,0.56c0.11-0.02,0.16-0.31,0.22-0.55c1.46,0.83,3.46,0.44,4.43,0.25
		c-0.04,0.28-0.08,0.43-0.11,0.65c0.26,0,0.81-0.03,1.1-0.03c0.84,2.3,2.23,2.99,2.96,2.58c0.83-0.48,0.93-2.56,0.39-3.13
		c1.44-0.25,3.05-0.46,4.01-1.46c0.46-0.49,0.75-1.56,0.7-2.88c-0.06-1.32-0.54-3.34-0.94-5.22c0.17-0.26,0.29-0.44,0.39-0.71
		c-0.22-0.4-0.55-0.97-0.75-1.53c-0.03-0.09-0.07-0.18-0.14-0.18C259.94,211.77,259.89,211.8,259.85,211.87z M262.3,209.26
		c-0.93,0.39-4.1,1.56-4.92,1.91c-0.05,0.02-0.08,0.03-0.1,0.1c-0.03,0.1-0.13,0.42-0.18,0.59c-0.02,0.07,0.04,0.07,0.1,0.05
		c0.11-0.05,0.26-0.13,0.39-0.18c0.64-0.27,3.66-1.41,4.49-1.73c0.05-0.02,0.1-0.05,0.12-0.11c0.05-0.12,0.13-0.39,0.17-0.55
		C262.39,209.25,262.36,209.23,262.3,209.26z M220.45,225.69c-0.17,0.28-0.4,0.69-0.53,0.94c-0.05,0.1-0.05,0.17,0.06,0.23
		c0.22,0.12,0.61,0.33,0.89,0.48c0.11,0.06,0.18,0.05,0.24-0.03c0.15-0.25,0.38-0.64,0.52-0.88c0.05-0.09,0.07-0.16-0.02-0.21
		c-0.26-0.16-0.69-0.42-0.95-0.57C220.55,225.59,220.5,225.6,220.45,225.69z M223.94,218.97c-0.08,0.32-0.17,0.63-0.25,0.95
		c-0.03,0.11-0.09,0.23,0.04,0.36c0.36,0.36,0.86,0.86,1.07,1.41c-0.63,0.57-3.6,1.41-5.86,1.41c-2.94,0-4.81-1-3.71-3.59
		c0.1-0.24-0.07-0.35-0.21-0.08c-0.77,1.39-0.85,2.59-0.5,3.35c0.52,1.11,1.99,1.54,3.68,1.57c1.99,0.04,4.5-0.37,5.9-1.07
		c0.33-0.16,0.61-0.38,0.78-0.61c0.33-0.46,0.49-1.04,0.52-1.69c-0.07-0.85-0.46-1.48-1.17-2.06
		C224.01,218.75,223.97,218.86,223.94,218.97z M232.28,218.36c0.15,0.86,0.41,1.64,0.68,2.46c-0.49,1.23-3.52,1.88-3.68,1.31
		c-0.07-0.27-0.21-0.36-0.29-0.12c-0.21,0.7-0.24,1.41,0.27,1.61c0.82,0.3,2.54-0.34,3.25-1.04c0.27-0.28,0.48-0.7,0.67-1.13
		c0.48,1.68,1.22,2.56,2.25,2.64c1.38,0.11,4.37-0.71,5.75-2.49c0.4-0.55,0.33-1.24,0.11-1.05c-0.92,0.86-2.49,1.86-3.2,1.9
		c-0.69,0.04-1.7-0.53-1.9-1.94c0.1-0.5,1.85-2.14,3.68-1.25c0.48,0.26,0.38-0.07,0.19-0.3c-0.55-0.65-2.2-1.61-3.55-0.16
		c-1.12,1.24-1.34,3.1-0.44,3.97c-1.06,0.01-1.72-0.59-2.17-1.51c-0.58-1.25-0.93-2.66-1.28-4.32
		C232.5,216.42,232.24,217.65,232.28,218.36z M231.14,213.85c-0.17,0.28-0.4,0.69-0.53,0.94c-0.05,0.1-0.05,0.17,0.06,0.23
		c0.22,0.12,0.61,0.33,0.89,0.48c0.12,0.06,0.18,0.05,0.24-0.03c0.15-0.25,0.38-0.64,0.52-0.88c0.05-0.09,0.07-0.16-0.02-0.21
		c-0.26-0.16-0.69-0.42-0.96-0.57C231.23,213.75,231.19,213.77,231.14,213.85z M220.09,213.94c0.1,0.12,0.26,0.37,0.29,0.8
		c0,0.12-0.02,0.3-0.03,0.31c-0.01,0.01-0.24-0.09-0.28-0.11c-0.08-0.04-0.31-0.13-0.71-0.28c-0.16-0.03,0-0.28,0-0.28
		c0.06-0.11,0.16-0.25,0.27-0.37l0.15-0.1C219.88,213.87,220.03,213.84,220.09,213.94z M220,213.18c-0.46,0.08-1,0.72-1.23,1.45
		c-0.1,0.33-0.04,0.52,0.14,0.63c0.26,0.16,0.64,0.29,1.09,0.4c-0.52,0.87-2.2,2-2.51,2.18c-0.36,0.21-0.3,0.44,0.15,0.24
		c1.69-0.76,2.53-1.57,2.9-2.29c0.12,0.02,0.22,0.06,0.34,0.09c0.2,0.05,0.16,0.08,0.26-0.24c0.05-0.15,0.09-0.26,0.1-0.33
		l-0.51-0.17l0.05-0.18c0.06-0.58-0.09-1.06-0.14-1.21C220.51,213.3,220.28,213.14,220,213.18z M239.89,212.49
		c-0.93,0.39-4.1,1.56-4.92,1.91c-0.05,0.02-0.08,0.03-0.1,0.1c-0.03,0.1-0.13,0.42-0.18,0.59c-0.02,0.07,0.04,0.07,0.1,0.04
		c0.11-0.05,0.26-0.13,0.39-0.18c0.64-0.27,3.66-1.41,4.49-1.73c0.05-0.02,0.1-0.05,0.12-0.11c0.05-0.12,0.13-0.39,0.17-0.55
		C239.98,212.49,239.94,212.47,239.89,212.49z M225.61,212.06l-0.19,0.99c-0.06,0.28-0.04,0.31,0,0.55
		c0.11,0.66,0.26,1.31,0.39,1.95c0.32,1.55,0.77,3.92,1.04,5.35c0.2,1.07,0.34,2.16,0.38,3.12c0.01,0.18,0.11,0.17,0.16,0.03
		c0.17-0.53,0.24-1.09,0.24-1.69c0-0.58-0.19-1.75-0.38-2.68c-0.26-1.29-0.67-3.53-0.91-4.7c-0.21-0.99-0.41-1.99-0.53-2.95
		c-0.01-0.11-0.06-0.15-0.1-0.14C225.66,211.91,225.62,211.97,225.61,212.06z M219.19,212.13c-0.81,0.51-1.52,1.47-1.73,2.47
		c-0.06,0.3-0.09,0.55,0.02,0.82c0.13,0.34,0.35,0.58,0.53,0.72c0.13,0.11,0.14,0.01,0.24-0.3c0.1-0.31,0.1-0.28-0.04-0.4
		c-0.12-0.13-0.25-0.25-0.36-0.4c-0.07-0.1-0.11-0.21-0.08-0.33c0.25-0.89,0.8-1.76,1.82-2.16c1.22-0.48,1.98,0.05,1.82,0.9
		c-0.03,0.13,0,0.25,0.12,0.04C222.15,212.42,221.16,210.88,219.19,212.13z M232.96,210.91c-0.93,0.39-3.03,1.23-3.85,1.58
		c-0.05,0.02-0.08,0.03-0.1,0.1c-0.03,0.1-0.13,0.42-0.18,0.59c-0.02,0.07,0.04,0.07,0.1,0.04c0.11-0.05,0.26-0.13,0.38-0.18
		c0.64-0.27,2.6-1.07,3.42-1.4c0.05-0.02,0.1-0.05,0.12-0.11c0.05-0.12,0.13-0.39,0.17-0.55
		C233.05,210.91,233.02,210.89,232.96,210.91z M210.02,226.31c-0.93,0.39-3.52,1.42-4.34,1.77c-0.05,0.02-0.08,0.03-0.1,0.1
		c-0.03,0.1-0.13,0.42-0.18,0.59c-0.02,0.07,0.04,0.07,0.1,0.04c0.11-0.05,0.26-0.13,0.38-0.18c0.64-0.27,3.08-1.27,3.91-1.6
		c0.05-0.02,0.1-0.05,0.12-0.11c0.05-0.11,0.13-0.39,0.17-0.55C210.11,226.31,210.08,226.29,210.02,226.31z M203.65,225.01
		c-0.16,0.24-0.35,0.59-0.54,0.88c-0.27-0.18-0.62-0.39-0.86-0.55c-0.13-0.08-0.18-0.07-0.26,0.05c-0.14,0.21-0.35,0.54-0.5,0.8
		c-0.05,0.09-0.04,0.18,0.1,0.26c0.26,0.15,0.66,0.38,0.91,0.51c0.08,0.04,0.14,0.01,0.2-0.07c0.13-0.18,0.28-0.45,0.49-0.79
		c0.36,0.21,0.65,0.4,0.94,0.54c0.08,0.04,0.12,0.03,0.18-0.04c0.14-0.18,0.4-0.58,0.5-0.78c0.07-0.14,0.05-0.19-0.07-0.27
		c-0.19-0.12-0.65-0.41-0.88-0.56C203.75,224.92,203.7,224.93,203.65,225.01z M191.92,212.51c-0.21,0.21-0.37,0.56-0.36,1.1
		c0,0.07,0.03,0.09,0.09,0.02c0.19-0.29,0.32-0.43,0.5-0.46c0.21-0.03,0.43,0.08,0.66,0.31c-0.76,0.07-1.11,0.3-1.35,0.68
		c-0.17,0.26-0.25,0.6-0.28,0.9c-0.06,0.55,0.14,1.06,0.27,1.54c0.27,0.97,0.52,1.9,0.62,2.8c0.01,0.12,0.08,0.1,0.1,0.02
		c0.23-0.85,0.03-1.66-0.32-2.95c-0.05-0.2-0.1-0.38-0.15-0.56c-0.13-0.5-0.22-0.86-0.16-1.1c0.18-0.3,0.53-0.4,0.96-0.5
		c0.32-0.06,0.66-0.09,0.95-0.09c0.13,0,0.12,0,0.13-0.1c0.02-0.15,0.03-0.29,0.04-0.44c0.02-0.16,0.01-0.15-0.1-0.29
		c-0.29-0.33-0.61-0.74-0.9-0.93C192.34,212.3,192.13,212.31,191.92,212.51z M195.59,212.96c0.1,0.12,0.26,0.37,0.29,0.8
		c0,0.12-0.02,0.3-0.03,0.31c-0.01,0.01-0.24-0.09-0.28-0.11c-0.08-0.04-0.31-0.13-0.71-0.28c-0.16-0.03,0-0.28,0-0.28
		c0.06-0.11,0.16-0.25,0.27-0.37l0.15-0.1C195.38,212.9,195.53,212.86,195.59,212.96z M195.5,212.21c-0.46,0.08-1,0.72-1.23,1.45
		c-0.1,0.33-0.04,0.52,0.14,0.63c0.26,0.16,0.64,0.29,1.09,0.41c-0.52,0.87-2.2,2-2.51,2.18c-0.36,0.21-0.3,0.44,0.16,0.24
		c1.69-0.76,2.52-1.57,2.9-2.29c0.12,0.02,0.22,0.06,0.34,0.09c0.2,0.05,0.16,0.08,0.26-0.24c0.05-0.15,0.09-0.26,0.1-0.33
		l-0.51-0.17l0.05-0.18c0.06-0.58-0.09-1.06-0.14-1.21C196.01,212.33,195.78,212.16,195.5,212.21z M210.01,211.63l-0.2,0.99
		c-0.06,0.28-0.04,0.31,0,0.55c0.11,0.66,0.26,1.31,0.39,1.95c0.32,1.55,0.77,3.92,1.04,5.35c0.2,1.07,0.34,2.16,0.38,3.12
		c0.01,0.18,0.11,0.17,0.16,0.03c0.17-0.53,0.24-1.09,0.24-1.68c0-0.58-0.19-1.75-0.38-2.68c-0.26-1.29-0.67-3.53-0.91-4.7
		c-0.21-0.99-0.41-1.99-0.53-2.95c-0.01-0.11-0.06-0.15-0.1-0.14C210.07,211.48,210.03,211.54,210.01,211.63z M195.54,221.1
		c0.22,0.05,0.44,0.75,0.7,1.38c-0.45-0.11-1.34-0.36-1.81-0.64C194.73,221.47,195.25,221.03,195.54,221.1z M206.31,211.04
		c-0.19,0.21-0.55,0.92-0.56,1.07c0.12,0.25,0.39,0.78,0.53,1.02c0.22,2.58,0.86,5.55,1.45,8.67c-0.01,0.25-0.39,0.69-2.11,0.27
		c0.09-0.27,0.18-0.55,0.19-0.82c0.02-0.53-0.3-0.43-0.32-0.2c-0.2,1.39-5.11,2.57-7.76,1.34c-0.85-0.41-1.22-1.23-1.83-1.87
		c-0.43-0.43-1.15,0.19-1.86,1.05c-1.38,0.68-1.6,2.44-1.58,2.94c0.13,2.37,0.81,5.44,0.97,8.13c0.06,0.86,0.52,1.63,0.55,0.04
		c-0.02-2.7-1.12-6.48-0.96-9.15c0.22-0.24,0.7-0.63,1.23-0.72c0.33,0.95,2.5,1.11,2.84,1.12c0.1-0.01,0.16-0.2,0.22-0.46
		c1.47,1.06,6.03,1.03,7.92-0.76c0.75,0.68,1.87,0.75,2.29,0.58c0.39-0.16,0.63-1.41,0.63-1.68c-0.02-2.68-0.67-5.56-1.12-8.39
		c0.22-0.26,0.44-0.53,0.59-0.8c-0.17-0.17-0.79-0.49-1.08-1.33C206.48,210.91,206.38,210.96,206.31,211.04z M208.52,209.28
		c-0.09,0.19-0.06,0.39,0.13,0.53c0.14,0.1,0.41,0.28,0.67,0.41c-0.11,0.05-0.37,0.15-0.52,0.26c-0.04,0.12-0.09,0.31-0.11,0.43
		c-0.01,0.04,0.03,0.09,0.07,0.06c0.46-0.27,1.84-0.62,2.43-0.76c0.04-0.01,0.23-0.44,0.26-0.5c0.04-0.08,0-0.11-0.06-0.09
		c-0.34,0.09-0.67,0.15-1.09,0.14c-0.52-0.01-1.31-0.57-1.31-0.68c0-0.11,0.62-0.37,0.76-0.36c0.4,0.03,0.46,0.44,0.57,0.44
		c0.13,0,0.33-0.48,0.33-0.6c0-0.14-0.33-0.5-0.59-0.5C209.64,208.07,208.74,208.82,208.52,209.28z M211.93,205.76
		c-0.93,0.39-4.1,1.56-4.92,1.91c-0.05,0.02-0.08,0.03-0.1,0.1c-0.03,0.1-0.13,0.42-0.18,0.59c-0.02,0.07,0.04,0.07,0.1,0.04
		c0.11-0.05,0.26-0.13,0.38-0.18c0.64-0.27,3.66-1.4,4.49-1.73c0.05-0.02,0.1-0.05,0.12-0.11c0.05-0.12,0.13-0.39,0.17-0.55
		C212.02,205.76,211.98,205.74,211.93,205.76z M191.29,226.68c-0.93,0.39-3.52,1.42-4.34,1.77c-0.05,0.02-0.08,0.03-0.1,0.1
		c-0.03,0.1-0.13,0.42-0.18,0.59c-0.02,0.07,0.04,0.07,0.1,0.04c0.11-0.05,0.26-0.13,0.38-0.18c0.64-0.27,3.08-1.27,3.91-1.6
		c0.05-0.02,0.1-0.05,0.12-0.11c0.05-0.11,0.13-0.39,0.17-0.55C191.38,226.68,191.34,226.66,191.29,226.68z M187.77,224.46
		c-0.17,0.28-0.4,0.69-0.53,0.94c-0.05,0.1-0.05,0.17,0.06,0.24c0.22,0.12,0.61,0.33,0.89,0.48c0.11,0.06,0.18,0.05,0.24-0.03
		c0.15-0.25,0.38-0.63,0.52-0.88c0.05-0.09,0.07-0.16-0.02-0.21c-0.26-0.16-0.69-0.42-0.95-0.57
		C187.87,224.36,187.82,224.38,187.77,224.46z M184.78,213.79c-0.93,0.39-4.68,1.66-5.5,2.01c-0.05,0.02-0.08,0.03-0.1,0.1
		c-0.03,0.1-0.13,0.42-0.18,0.59c-0.02,0.07,0.04,0.07,0.1,0.05c0.11-0.05,0.26-0.13,0.38-0.18c0.64-0.27,4.25-1.51,5.07-1.84
		c0.05-0.02,0.1-0.05,0.12-0.11c0.05-0.12,0.13-0.39,0.17-0.55C184.87,213.79,184.83,213.76,184.78,213.79z M182.44,220.92
		c0.21,0.58,0.52,1.05,0.84,1.42c-0.71-0.17-1.46-0.4-1.92-0.7c-0.14-0.11-0.15-0.16-0.05-0.28c0.26-0.28,0.72-0.59,0.84-0.62
		c0.03-0.02,0.05-0.01,0.08-0.01C182.32,220.72,182.39,220.78,182.44,220.92z M176.53,212.05c-0.1,0.24-0.19,0.5-0.27,0.74
		c-0.08,0.23-0.06,0.25,0.02,0.52c0.24,1.02,0.33,2.46,0.49,3.91c0.17,1.63,0.36,3.26,0.5,4.14c0.18,1.08,0.46,1.74,0.92,2.12
		c0.68,0.54,1.95,0.43,2.69-1.1c0.09,0.29,0.27,0.56,0.62,0.73c0.81,0.4,1.49,0.54,2.08,0.65c0.34,0.06,0.37,0.06,0.43-0.26
		l0.09-0.45c2.05,0.73,4.05-0.01,4.44-0.19c0.46-0.22,0.56-0.26,0.78-0.69c0.18-0.34,0.26-0.81,0.23-1.49
		c-0.11-1.14-0.78-1.89-1.27-2.29c-0.09-0.08-0.13-0.11-0.18-0.1c-0.05,0.02-0.08,0.08-0.09,0.12c-0.05,0.23-0.13,0.77-0.15,1.1
		c0,0.05,0,0.06,0.03,0.09c0.25,0.22,1.11,1.22,1.22,1.76c-0.62,0.56-2.98,1.22-4.72,0.47c-0.74-0.32-1.23-0.97-1.6-1.6
		c-0.25-0.44-0.61-0.32-0.85-0.12c-0.34,0.26-0.79,0.84-1.11,1.38c-0.4,0.68-1.04,1.39-1.99,0.99c-1.02-0.45-1.21-2.57-1.44-4.85
		c-0.2-2.01-0.35-4.22-0.64-5.53c-0.06-0.2-0.07-0.29-0.1-0.29C176.61,211.82,176.58,211.91,176.53,212.05z M148.28,221.74
		c-0.52,0.09-1.25,0.16-1.51-0.32c0-0.36,0.37-0.55,0.54-0.59C147.69,220.74,148.05,221.24,148.28,221.74z M149.77,217.34
		c-0.04,0.28-0.07,0.61-0.08,0.91c0,0.07,0,0.23,0.06,0.34c0.36,0.53,0.86,0.92,1.14,1.9c-0.35,0.48-1.19,0.89-1.9,1.11
		c-0.17-0.69-0.4-1.26-0.86-1.8c-0.34-0.41-0.82-0.54-1.21-0.09c-0.62,0.7-0.91,1.77-0.72,2.49c0.2,0.75,0.67,1.21,2.34,0.79
		c-1.55,3.11-4.34,3.83-7.34,3.18c-0.48-0.09-0.68,0.15-0.11,0.41c0.78,0.34,3.41,0.84,4.94,0.32c1.37-0.49,2.6-1.77,3.18-4.15
		c0.69-0.3,1.42-0.72,1.71-1.06c0.55-0.68,0.44-1.53,0.33-2.23c-0.13-0.85-0.58-1.52-1.17-2.15
		C149.88,217.09,149.79,217.2,149.77,217.34z M148.43,214.53c-0.17,0.28-0.4,0.69-0.53,0.94c-0.05,0.1-0.05,0.18,0.06,0.24
		c0.22,0.12,0.61,0.33,0.89,0.48c0.11,0.06,0.18,0.05,0.24-0.03c0.15-0.25,0.38-0.64,0.52-0.88c0.05-0.09,0.07-0.16-0.02-0.21
		c-0.26-0.16-0.69-0.42-0.95-0.57C148.53,214.43,148.48,214.45,148.43,214.53z M141.74,212.75c-0.04,0.01-0.07,0.07-0.09,0.16
		c-0.05,0.34-0.11,0.68-0.16,1.01c-0.04,0.29-0.02,0.32,0.03,0.56c0.12,0.67,0.27,1.33,0.4,1.98c0.16,0.78,0.31,1.53,0.48,2.35
		c0.28,1.41,0.62,3.21,0.78,4.65c0.02,0.16,0.13,0.14,0.16,0c0.29-1.41,0.03-2.85-0.32-4.58c-0.23-1.13-0.43-2.08-0.62-3.01
		c-0.22-1.01-0.43-2.02-0.56-2.99C141.83,212.77,141.78,212.74,141.74,212.75z M161.77,212.67c-0.93,0.39-4.68,1.66-5.5,2.01
		c-0.05,0.02-0.08,0.03-0.1,0.1c-0.03,0.1-0.13,0.42-0.18,0.59c-0.02,0.07,0.04,0.07,0.1,0.04c0.11-0.05,0.26-0.13,0.38-0.18
		c0.64-0.27,4.24-1.51,5.07-1.84c0.05-0.02,0.1-0.05,0.12-0.11c0.05-0.11,0.13-0.39,0.17-0.55
		C161.86,212.67,161.82,212.64,161.77,212.67z M152.44,213.84c0.8,3.16,0.67,8.27,1.78,9.59c0.61,0.75,1.94,1,2.89,1.01
		c5.51,0.03,11.01-0.94,16.52-1.82c0.48-0.32,0.96-1.65,0.92-2.09c-0.36-1.62-2.34-1.41-3.27-1.34c-4.58,0.39-12.53,1.75-13.61,0.53
		c0.1-0.55,2.38-2.3,4.67-3.01c0.37-0.34,0.65-1.21,0.35-1.14c-1.35,0.25-3.5,1.61-4.52,2.65c-0.35,0.37-1.02,1.18-1.21,2.06
		c-0.17,0.92,0.99,1.02,1.48,1.08c4.8,0.52,10.15-1.14,13.9-0.99c0.73,0.05,1.36,0.35,1.57,1c-6.3,0.89-13.17,2.08-17.15,1.67
		c-2.43-0.23-2.59-1.92-2.76-2.98c-0.41-2.56-0.41-5.35-1.04-7.37C152.85,212.36,152.5,212.82,152.44,213.84z M148.68,210.12
		c0.11,0.12,0.26,0.37,0.29,0.8c0,0.12-0.02,0.3-0.03,0.31c-0.01,0.01-0.24-0.09-0.28-0.11c-0.08-0.04-0.31-0.13-0.71-0.28
		c-0.16-0.03,0-0.28,0-0.28c0.06-0.11,0.16-0.25,0.27-0.36l0.15-0.1C148.47,210.05,148.62,210.02,148.68,210.12z M148.6,209.36
		c-0.46,0.08-1,0.72-1.22,1.45c-0.1,0.33-0.04,0.52,0.14,0.63c0.26,0.16,0.64,0.29,1.09,0.4c-0.52,0.87-2.2,2-2.51,2.18
		c-0.36,0.21-0.3,0.44,0.15,0.24c1.69-0.76,2.52-1.57,2.9-2.29c0.12,0.02,0.22,0.06,0.34,0.09c0.2,0.05,0.16,0.08,0.26-0.24
		c0.05-0.15,0.09-0.26,0.1-0.33l-0.51-0.17l0.05-0.18c0.06-0.58-0.09-1.06-0.14-1.21C149.1,209.48,148.87,209.32,148.6,209.36z
		 M142.27,210.67c-0.22,0.41-0.85,0.52-1.3,0.38c-0.27-0.08-0.36-0.32-0.24-0.56c0.25-0.5,0.52-0.67,0.77-0.67
		C141.92,209.81,142.26,210.32,142.27,210.67z M140.56,209.8c-0.7,1.62,0.14,2.21,0.82,2.19c1.09-0.03,1.48-1.1,1.2-2.18
		c-0.18-0.68-0.55-0.92-0.95-0.9C141.24,208.92,140.82,209.21,140.56,209.8z M124.23,225.5c-0.93,0.39-3.52,1.42-4.34,1.77
		c-0.05,0.02-0.08,0.03-0.1,0.1c-0.03,0.1-0.13,0.42-0.18,0.59c-0.02,0.07,0.04,0.07,0.1,0.04c0.11-0.05,0.26-0.13,0.39-0.18
		c0.64-0.27,3.08-1.27,3.91-1.6c0.05-0.02,0.1-0.05,0.12-0.11c0.05-0.12,0.13-0.39,0.17-0.55
		C124.32,225.5,124.28,225.48,124.23,225.5z M116.08,224.11c-0.17,0.28-0.4,0.69-0.53,0.94c-0.05,0.1-0.05,0.18,0.06,0.24
		c0.22,0.12,0.61,0.33,0.89,0.48c0.11,0.06,0.19,0.05,0.24-0.03c0.15-0.25,0.38-0.64,0.52-0.88c0.05-0.09,0.07-0.16-0.02-0.21
		c-0.26-0.16-0.69-0.42-0.95-0.57C116.17,224.01,116.13,224.03,116.08,224.11z M138.08,223.84c-0.16,0.24-0.35,0.59-0.54,0.88
		c-0.27-0.18-0.62-0.39-0.86-0.55c-0.13-0.08-0.18-0.07-0.26,0.05c-0.14,0.21-0.35,0.54-0.5,0.8c-0.05,0.1-0.04,0.18,0.1,0.26
		c0.26,0.15,0.66,0.38,0.9,0.51c0.08,0.04,0.14,0.01,0.2-0.07c0.13-0.18,0.28-0.45,0.49-0.79c0.36,0.21,0.65,0.4,0.94,0.54
		c0.08,0.04,0.12,0.03,0.18-0.04c0.14-0.18,0.4-0.58,0.5-0.78c0.07-0.14,0.05-0.19-0.07-0.27c-0.19-0.12-0.65-0.41-0.88-0.56
		C138.18,223.76,138.13,223.77,138.08,223.84z M101.73,218.32c-0.17,0.28-0.4,0.69-0.53,0.94c-0.05,0.1-0.05,0.18,0.06,0.24
		c0.22,0.12,0.61,0.33,0.89,0.48c0.12,0.06,0.19,0.05,0.24-0.03c0.15-0.25,0.38-0.64,0.52-0.88c0.05-0.09,0.07-0.16-0.02-0.21
		c-0.26-0.16-0.69-0.42-0.95-0.57C101.83,218.23,101.78,218.24,101.73,218.32z M108.75,217.32c-0.06,0.29-0.11,0.66-0.15,0.95
		c-0.02,0.1-0.06,0.23,0.04,0.32c0.35,0.35,0.8,0.9,1.11,1.6c-2.17,3.28-9.24,4.15-13.54,2.79c-1.3-0.41-2.55-1.13-3.82-2.1
		c-0.31-0.23-0.4-0.05-0.19,0.22c0.83,1.05,1.75,2.16,2.83,2.71c3.89,1.98,12.08,1.21,14.6-2.28c0.42-0.59,0.54-1.24,0.55-1.88
		c0.03-0.99-0.71-1.78-1.19-2.37c-0.06-0.07-0.1-0.1-0.15-0.09C108.8,217.2,108.77,217.24,108.75,217.32z M113.6,219.07
		c0.26,0.2,0.49,0.63,0.71,1.06c-0.59,0.05-1.12-0.03-1.45-0.31c-0.13-0.1-0.15-0.16-0.1-0.28c0.08-0.2,0.26-0.4,0.43-0.49
		c0.05-0.02,0.08-0.03,0.12-0.05c0.03,0,0.05-0.02,0.07-0.02C113.45,218.97,113.52,219.02,113.6,219.07z M116.17,215.64
		c-0.05,0.02-0.08,0.07-0.1,0.15c-0.03,0.31-0.08,0.63-0.13,0.92c0,0.12-0.05,0.23,0.1,0.35c0.54,0.45,1.07,1.07,1.29,1.95
		c-0.44,0.38-1.35,0.79-2.28,1.01c-0.31-1.12-0.86-2.41-1.6-2.33c-0.81,0.08-1.63,2.08-1.07,3.08c0.2,0.4,0.61,0.58,1.07,0.61
		c0.36,0.02,0.76-0.03,1.14-0.1c-1.52,3.51-4.49,3.96-6.93,3.43c-0.41-0.08-0.66,0.23-0.1,0.4c4.14,1.24,6.22,0.63,7.49-3.93
		c0.54-0.1,1.91-0.58,2.39-1.24c0.31-0.41,0.3-1.24,0.3-1.48c0-1.04-0.46-2.1-1.4-2.74C116.26,215.66,116.21,215.62,116.17,215.64z
		 M104.32,214.61c-0.93,0.39-5.12,1.74-5.93,2.09c-0.05,0.02-0.08,0.03-0.1,0.1c-0.03,0.1-0.18,0.48-0.22,0.65
		c-0.02,0.07,0.04,0.07,0.1,0.04c0.11-0.05,0.3-0.15,0.43-0.2c0.68-0.24,4.63-1.57,5.46-1.89c0.05-0.02,0.1-0.05,0.12-0.11
		c0.05-0.11,0.17-0.45,0.22-0.61C104.41,214.61,104.38,214.58,104.32,214.61z M138.41,214.52c-0.93,0.39-3.52,1.42-4.34,1.77
		c-0.05,0.02-0.08,0.03-0.1,0.1c-0.03,0.1-0.13,0.42-0.18,0.59c-0.02,0.07,0.04,0.07,0.1,0.04c0.11-0.05,0.26-0.13,0.38-0.18
		c0.64-0.27,3.08-1.27,3.91-1.6c0.05-0.02,0.1-0.05,0.12-0.11c0.05-0.11,0.13-0.39,0.17-0.55
		C138.5,214.52,138.46,214.49,138.41,214.52z M120.76,213.84c-0.17,0.28-0.4,0.69-0.53,0.94c-0.05,0.1-0.05,0.17,0.06,0.23
		c0.22,0.12,0.61,0.33,0.89,0.48c0.12,0.06,0.18,0.05,0.24-0.03c0.15-0.25,0.38-0.63,0.52-0.88c0.05-0.09,0.07-0.16-0.02-0.21
		c-0.26-0.16-0.69-0.42-0.95-0.57C120.86,213.75,120.81,213.76,120.76,213.84z M115,211.32c0.1,0.12,0.26,0.37,0.28,0.8
		c0,0.12-0.02,0.3-0.03,0.31c-0.01,0.01-0.24-0.09-0.28-0.11c-0.08-0.04-0.31-0.13-0.71-0.28c-0.16-0.03,0-0.28,0-0.28
		c0.06-0.11,0.16-0.25,0.27-0.36l0.15-0.1C114.78,211.26,114.93,211.23,115,211.32z M114.91,210.57c-0.46,0.08-1,0.72-1.23,1.45
		c-0.1,0.33-0.04,0.52,0.14,0.63c0.26,0.16,0.64,0.29,1.09,0.41c-0.52,0.87-2.2,2-2.51,2.18c-0.36,0.21-0.3,0.44,0.15,0.24
		c1.69-0.76,2.52-1.57,2.9-2.29c0.12,0.02,0.22,0.06,0.34,0.09c0.2,0.06,0.16,0.08,0.26-0.24c0.05-0.15,0.09-0.26,0.1-0.33
		l-0.51-0.17l0.05-0.18c0.06-0.58-0.09-1.06-0.14-1.21C115.41,210.69,115.18,210.52,114.91,210.57z M123.51,210.09
		c-0.03,0.08-0.09,0.2-0.12,0.28c-0.04,0.14,0.04,0.24,0.11,0.13c0.08-0.13,0.19-0.25,0.32-0.33c0.31-0.19,0.65-0.26,0.99-0.23
		c0.31,0.03,0.89,0.25,0.89,0.28c0,0.07-1.35,0.73-1.56,0.87c-0.09,0.06-0.2,0.16-0.18,0.27c0.02,0.08,0.15,0.1,0.25,0.06
		c0.53-0.19,0.72-0.18,1.15-0.36c0.58-0.25,0.75-0.55,0.85-0.58c0.04-0.01,0.09-0.01,0.14-0.05c0.17-0.15,0.31-0.57,0.32-0.71
		c-0.02-0.11-0.4-0.15-0.52-0.17c-0.38-0.09-0.75-0.29-1.14-0.32C124.39,209.17,123.82,209.44,123.51,210.09z M133.23,207.63
		c-1.46,0.97-2.92,1.9-4.76,3.18c-1.24,0.84-3.05,2.07-4.22,3.36c-0.23,0.25-0.4,0.35-0.51,0.86c-0.12,0.57-0.15,1.24-0.09,1.86
		c0.02,0.26,0.08,0.34,0.25,0.46c1.66,1.24,3.79,2.46,4.68,4.3c-0.57,0.87-1.95,1.3-2.85,1.18c-1.33-0.18-1.79-1.21-2.41-2.79
		c-0.4-1.01-0.77-2.1-1.01-3.02c-0.08-0.26-0.15-0.25-0.18,0.02c-0.03,0.29-0.06,0.58-0.11,0.89c-0.02,0.17-0.03,0.2,0.02,0.34
		c0.2,0.66,0.44,1.41,0.72,2.18c-0.12,0.48-0.4,0.77-0.89,1.06c-0.48,0.28-1.55,0.55-2.27,0.52c-0.74-0.03-0.63-0.29-0.77-0.38
		c-0.15-0.08-0.21,0.15-0.23,0.21c-0.06,0.37-0.09,0.72-0.02,1.09c0.06,0.28,0.23,0.37,0.54,0.38c1,0.05,2.24-0.21,3.02-0.74
		c0.23-0.15,0.34-0.28,0.48-0.54c0.17-0.34,0.28-0.68,0.37-0.98c0.18,0.52,0.38,1.03,0.61,1.47c0.55,1.07,1.17,1.55,2.16,1.66
		c1.12,0.12,2.46-0.44,2.92-1.3c0.46-0.84,0.28-2.16-0.54-3.45c1.37,0.91,2.65,2.87,4.1,3.5c1.98,0.86,5.31-0.26,6.27-0.84
		c0.37-0.21,0.35-0.48,0.44-0.87c0.29-1.18-0.06-2.56-1.15-3.38c-0.14-0.12-0.23-0.11-0.25,0.05c-0.06,0.29-0.11,0.61-0.15,0.91
		c-0.02,0.11-0.08,0.2,0.05,0.31c0.48,0.4,0.95,0.97,1.14,1.75c-0.57,0.43-4.19,1.67-6.31,0.66c-0.55-0.28-1.17-0.74-1.73-1.27
		c-1.92-1.86-4.63-3.41-6.58-4.13c0.18-0.57,0.44-0.92,1.24-1.63c0.98-0.87,2.33-1.83,3.64-2.72c1.72-1.2,3.01-2.06,4.2-2.84
		c0.18-0.11,0.18-0.14,0.23-0.35c0.05-0.25,0.06-0.57,0.12-0.83c0.03-0.14,0.03-0.18,0-0.2
		C133.37,207.54,133.31,207.57,133.23,207.63z"/>
</g>
</svg>
