<?xml version="1.0" encoding="iso-8859-1"?>
<!-- Generator: Adobe Illustrator 25.2.1, SVG Export Plug-In . SVG Version: 6.00 Build 0)  -->
<svg version="1.1" xmlns="http://www.w3.org/2000/svg" xmlns:xlink="http://www.w3.org/1999/xlink" x="0px" y="0px"
	 viewBox="0 0 293.23 484.99" enable-background="new 0 0 293.23 484.99" xml:space="preserve">
<g id="Ornaments">
</g>
<g id="Header__x26__Marks__x26__Page_No.">
</g>
<g id="Aya_No.">
</g>
<g id="Quran_Text">
	<path fill-rule="evenodd" clip-rule="evenodd" d="M124.63,382.94c-0.73,0.42-1.47,0.52-2.21,0.35c0.41-0.6,1.36-1.01,2.17-1.53
		C124.57,382.18,124.57,382.58,124.63,382.94z M130.33,378.7c-0.02,0.01-0.03,0.01-0.03,0.03l-0.22,0.89
		c-0.03,1.02,1.22,3.64,1.34,3.88c0.1,0.2-0.13,0.34-0.22,0.33c-1.14-0.12-1.45-0.48-1.85-0.93c-0.63-0.75-0.55-2.54-0.86-3.71
		c-0.07-0.13-0.18-0.1-0.2-0.02l-0.22,0.97c0.11,0.93,0.38,2.3,0.29,2.68c-0.43,1.72-2.55,2.23-3.05,0.8
		c-0.42-1.25-0.17-2.81-0.47-3.52c-0.06-0.13-0.11-0.14-0.14-0.04l-0.17,0.67l-0.01,0.25c-1.19,0.79-2.58,1.41-2.76,3.09
		c-0.03,0.11-0.02,0.25,0.17,0.29c0.22,0.03,0.44,0.06,0.76,0.08c1.28,0.1,1.52-0.47,2-1.05c0.06,1.1,0.38,1.91,1.24,2.12
		c1.28,0.27,2.26-0.56,2.81-2.04c0.25,1.09,2.03,1.62,2.38,1.49c0.96-0.44,0.71-2.26,0.59-2.52c-0.5-1.13-1.14-3.02-1.2-3.56
		C130.45,378.73,130.37,378.69,130.33,378.7z M129.11,375.16l-0.23,0.43c-0.03,0.05-0.05,0.08-0.03,0.13
		c0.07,0.17,0.12,0.37,0.12,0.48c-0.27,0.26-0.56,0.3-0.77,0.13c-0.14-0.11-0.19-0.32-0.17-0.59c0.01-0.2,0.03-0.27-0.14-0.13
		c-0.23,0.18-0.17,0.16-0.18,0.27c-0.08,0.65-0.36,0.94-0.85,0.97c-0.31,0.02-0.54-0.2-0.32-0.82c0.05-0.13-0.05-0.27-0.18,0
		c-0.47,0.93-0.18,1.45,0.29,1.52c0.39,0.06,0.85-0.16,1.09-0.75c0.18,0.3,0.55,0.38,0.88,0.3c0.42-0.11,0.51-0.3,0.63-0.65
		c0.11-0.33,0.12-0.77-0.04-1.29C129.18,375.07,129.13,375.12,129.11,375.16z M123.38,375.32c0.11,0.12,0.26,0.37,0.29,0.8
		c0,0.12-0.02,0.3-0.03,0.31c-0.01,0.01-0.24-0.09-0.28-0.11c-0.08-0.04-0.31-0.13-0.71-0.28c-0.16-0.03,0-0.28,0-0.28
		c0.06-0.11,0.16-0.25,0.27-0.37l0.15-0.1C123.17,375.26,123.32,375.22,123.38,375.32z M123.29,374.57
		c-0.46,0.08-1.01,0.72-1.23,1.45c-0.1,0.33-0.04,0.52,0.14,0.63c0.26,0.16,0.64,0.29,1.09,0.41c-0.52,0.87-2.2,2-2.51,2.18
		c-0.36,0.21-0.3,0.44,0.15,0.24c1.69-0.76,2.52-1.57,2.9-2.29c0.12,0.02,0.22,0.06,0.34,0.09c0.2,0.05,0.16,0.08,0.26-0.24
		c0.05-0.15,0.09-0.26,0.1-0.33l-0.51-0.17l0.05-0.18c0.06-0.58-0.09-1.06-0.14-1.21C123.8,374.68,123.57,374.52,123.29,374.57z
		 M132.38,373.83c-0.04,0.01-0.07,0.07-0.09,0.16l-0.16,1.01c-0.04,0.29-0.03,0.32,0.01,0.56c0.12,0.67,0.27,1.33,0.4,1.98
		c0.3,1.46,0.6,2.86,0.86,4.21c0.21,1.08,0.35,2.19,0.41,3.17c0.01,0.19,0.11,0.17,0.15,0.03c0.15-0.55,0.2-1.12,0.18-1.72
		c-0.01-0.59-0.21-1.78-0.4-2.72c-0.22-1.18-0.5-2.47-0.72-3.54c-0.21-1.01-0.42-2.02-0.55-3
		C132.46,373.85,132.42,373.82,132.38,373.83z M129.71,371.58c-0.93,0.39-3.52,1.42-4.34,1.77c-0.05,0.02-0.08,0.03-0.1,0.1
		c-0.03,0.1-0.13,0.42-0.18,0.59c-0.02,0.07,0.04,0.07,0.1,0.04c0.11-0.05,0.26-0.13,0.39-0.18c0.64-0.27,3.08-1.27,3.91-1.6
		c0.05-0.02,0.1-0.05,0.12-0.11c0.05-0.12,0.13-0.39,0.17-0.55C129.81,371.57,129.77,371.55,129.71,371.58z M133.94,371.2
		c0.08,0.08,0.17,0.19,0.16,0.3c-0.13,0.29-0.95,0.58-1.26,0.66c-0.06,0.01-0.38,0.08-0.35-0.02c0.19-0.3,0.37-0.62,0.64-0.87
		C133.38,371.06,133.66,370.96,133.94,371.2z M133.15,370.67c-0.36,0.37-0.85,1.05-1.07,1.49c-0.16-0.01-0.46-0.17-0.6-0.24
		c-0.19-0.09-0.32,0.1-0.41,0.25c-0.19,0.29-0.33,0.58-0.44,0.9l-0.11,0.31c0,0.13,0.06,0.17,0.16,0.07
		c0.22-0.22,0.39-0.82,0.52-0.74c0.75,0.43,1.71,0.28,2.43-0.22c0.56-0.4,0.99-1.01,0.83-1.69c-0.06-0.25-0.33-0.47-0.59-0.49
		C133.6,370.29,133.35,370.46,133.15,370.67z M93.34,390.29c-0.93,0.39-3.52,1.42-4.34,1.77c-0.05,0.02-0.08,0.03-0.1,0.1
		c-0.03,0.1-0.13,0.42-0.18,0.59c-0.02,0.07,0.04,0.07,0.1,0.05c0.11-0.05,0.26-0.13,0.38-0.18c0.64-0.27,3.08-1.27,3.91-1.6
		c0.05-0.02,0.1-0.05,0.12-0.11c0.05-0.11,0.13-0.39,0.17-0.55C93.44,390.29,93.4,390.27,93.34,390.29z M119.76,386.74
		c-0.15,0.24-0.35,0.59-0.54,0.88c-0.27-0.18-0.62-0.39-0.86-0.55c-0.13-0.08-0.18-0.08-0.26,0.05c-0.14,0.21-0.35,0.54-0.5,0.8
		c-0.05,0.1-0.04,0.18,0.1,0.26c0.26,0.15,0.66,0.38,0.9,0.51c0.08,0.04,0.14,0.01,0.2-0.07c0.13-0.18,0.28-0.45,0.49-0.79
		c0.36,0.21,0.65,0.4,0.94,0.54c0.08,0.04,0.12,0.03,0.18-0.04c0.14-0.18,0.4-0.58,0.5-0.78c0.07-0.14,0.05-0.19-0.07-0.27
		c-0.19-0.12-0.65-0.41-0.88-0.56C119.85,386.66,119.81,386.67,119.76,386.74z M99.54,387.01c-0.7,1.18-2.12-0.12-2.5-0.58
		C97.89,386.52,98.81,386.35,99.54,387.01z M98.64,382.46c-0.46,0.88-1.08,1.1-1.66,1.47c0.19-0.67,0.3-1.37,0.71-1.97
		c0.1-0.15,0.2-0.21,0.31-0.21C98.25,381.74,98.51,382.13,98.64,382.46z M117.84,379.44l-0.09,1.13c0,0.04,0.01,0.07,0.04,0.13
		c0.5,0.82,1.65,2.21,1.49,2.59c-0.33,0.52-2.14,0.07-2.57,0.08l0.14-0.86c0.04-0.24-0.23-0.43-0.31-0.15
		c-0.19,0.65-0.32,1.31-0.55,1.97c-0.53-0.13-0.99-0.3-1.3-0.52l0.46-1.11c0.11-0.37-0.12-0.33-0.25-0.12l-0.53,0.89
		c-0.55,0.92-1.67,0.66-2.59,0.96c0.33-0.5,0.61-1.02,0.61-1.63c0-0.41-0.26-0.25-0.29-0.07c-0.25,2.11-6.76,2.77-7.69,0.41
		c-0.09-0.22-0.22-0.16-0.32,0c-1.15,1.86-6.17,2.05-7.01,1.91c0.84-0.48,1.69-1.02,2-2.61c0.29-1.51-0.69-2.22-1.05-2.01
		c-0.65,0.38-1.14,2.34-1.44,3.68c-1.02,0.5-4.04,0.93-4.84-0.47c-0.12-0.2-0.17-0.18-0.25-0.02c-0.24,0.56-0.02,1.08,0.23,1.58
		l0.48,0.25c-1.33,4.11-4.39,3.61-6.46,3c-0.6-0.18-0.45,0.24-0.17,0.36c3.45,1.51,6.29,1.55,7.09-3.2
		c0.99,0.22,2.01,0.12,3.02,0.04c0.03,0.63,0.14,0.86,0.61,0.79c0.6,1.3,1.46,2.35,2.66,2.36c1.24,0.01,1.3-2.19,0.85-2.87
		c1.84-0.21,3.49-0.6,4.29-1.8c0.48,2.19,4.68,1.76,5.99,1.4c0.26-0.06,0.37-0.01,0.51,0.01c1.06,0.11,2.75-0.04,3.54-0.85
		c0.07-0.07,0.08-0.08,0.13-0.01c0.28,0.42,1.52,1.26,1.78,0.65l0.54-1.28c1.22,0.56,2.58,1.31,2.94,0.13
		c0.22-0.72,0.2-2.16-0.06-2.58l-1.33-2.09c-0.08-0.12-0.14-0.17-0.19-0.17C117.87,379.35,117.85,379.39,117.84,379.44z
		 M90.76,379.16c-0.17,0.28-0.4,0.69-0.53,0.94c-0.05,0.1-0.05,0.18,0.06,0.24c0.22,0.12,0.61,0.33,0.89,0.48
		c0.11,0.06,0.18,0.05,0.24-0.03c0.15-0.25,0.38-0.64,0.52-0.88c0.05-0.09,0.07-0.16-0.02-0.21c-0.26-0.16-0.69-0.42-0.95-0.57
		C90.86,379.06,90.81,379.08,90.76,379.16z M87.28,378.81c-0.96,0.41-2.1,1.89-2.51,3.03c-0.43,1.28-0.14,1.83,0.5,2.21
		c0.82,0.48,2.24,0.07,2.66,0.32c0.07,0.04,0.07,0.04,0.01,0.1c-1.08,1.12-2.97,1.92-4.32,1.96c-1.9,0.07-3.43-1.41-2.1-4.38
		c0.1-0.25-0.07-0.41-0.26-0.09c-1.38,2.59-0.77,4.59,0.53,5.28c1.92,0.97,4.82-0.25,6.26-1.85c0.17-0.21,0.33-0.37,0.43-0.67
		c0.17-0.53,0.13-1.04-0.13-1.3c-0.27-0.29-0.86-0.16-1.38-0.16c-0.8,0.01-1.52-0.12-1.79-0.56c-0.17-0.25-0.17-0.46-0.01-0.75
		c0.34-0.69,1.24-1.66,1.91-1.95c0.46-0.19,0.89-0.09,1.25,0.69c0.1,0.19,0.24,0.16,0.29-0.03l0.14-0.66c0.03-0.21,0-0.28-0.07-0.46
		C88.3,378.74,87.84,378.59,87.28,378.81z M112.41,379.34c-0.03,0.09-0.09,0.2-0.12,0.28c-0.04,0.14,0.04,0.24,0.11,0.13
		c0.08-0.13,0.19-0.25,0.32-0.33c0.31-0.19,0.65-0.26,0.99-0.23c0.31,0.03,0.89,0.25,0.89,0.28c0,0.07-1.35,0.73-1.56,0.87
		c-0.09,0.06-0.2,0.16-0.18,0.27c0.02,0.08,0.15,0.1,0.25,0.06c0.53-0.19,0.72-0.18,1.15-0.36c0.58-0.25,0.75-0.55,0.85-0.58
		c0.04-0.01,0.09-0.01,0.14-0.05c0.17-0.16,0.31-0.57,0.32-0.71c-0.02-0.11-0.4-0.15-0.52-0.17c-0.38-0.09-0.75-0.29-1.14-0.32
		C113.29,378.42,112.73,378.69,112.41,379.34z M103.35,378.4c-0.16,0.24-0.35,0.59-0.54,0.88c-0.27-0.18-0.62-0.39-0.86-0.55
		c-0.13-0.08-0.18-0.07-0.26,0.05c-0.14,0.21-0.35,0.54-0.5,0.8c-0.05,0.09-0.04,0.18,0.1,0.26c0.26,0.15,0.66,0.38,0.9,0.51
		c0.08,0.04,0.14,0.01,0.2-0.07c0.13-0.18,0.28-0.45,0.49-0.79c0.36,0.21,0.65,0.4,0.94,0.54c0.08,0.04,0.12,0.03,0.18-0.04
		c0.14-0.18,0.39-0.58,0.5-0.78c0.07-0.14,0.05-0.19-0.07-0.27c-0.19-0.12-0.65-0.41-0.88-0.56
		C103.45,378.31,103.4,378.32,103.35,378.4z M82.1,378.31c-0.09,0.19-0.05,0.39,0.13,0.53c0.14,0.1,0.41,0.28,0.67,0.41
		c-0.11,0.05-0.37,0.15-0.52,0.26c-0.04,0.12-0.09,0.31-0.11,0.44c-0.01,0.04,0.02,0.08,0.07,0.06c0.46-0.27,1.84-0.62,2.44-0.76
		c0.04-0.01,0.23-0.44,0.26-0.5c0.04-0.08,0-0.11-0.06-0.09c-0.34,0.09-0.67,0.15-1.09,0.14c-0.52-0.01-1.31-0.57-1.31-0.68
		c0.01-0.11,0.62-0.37,0.76-0.36c0.4,0.04,0.46,0.44,0.56,0.44c0.13,0,0.33-0.48,0.33-0.6c0-0.13-0.33-0.5-0.59-0.5
		C83.22,377.1,82.32,377.85,82.1,378.31z M95.16,376.45c-0.03,0.08-0.09,0.2-0.12,0.28c-0.04,0.14,0.04,0.24,0.11,0.13
		c0.08-0.13,0.19-0.25,0.32-0.33c0.31-0.19,0.65-0.26,0.99-0.23c0.31,0.03,0.89,0.25,0.89,0.28c0,0.07-1.35,0.73-1.56,0.87
		c-0.09,0.06-0.2,0.16-0.18,0.27c0.02,0.08,0.15,0.1,0.25,0.06c0.53-0.19,0.72-0.18,1.15-0.36c0.58-0.25,0.75-0.55,0.85-0.58
		c0.04-0.01,0.09-0.01,0.14-0.05c0.17-0.16,0.31-0.57,0.32-0.71c-0.02-0.11-0.41-0.15-0.52-0.17c-0.38-0.09-0.75-0.29-1.14-0.32
		C96.05,375.53,95.48,375.81,95.16,376.45z M120.13,374.45c-0.93,0.39-4.1,1.56-4.92,1.91c-0.05,0.02-0.08,0.03-0.1,0.1
		c-0.03,0.1-0.13,0.42-0.18,0.59c-0.02,0.07,0.04,0.07,0.1,0.04c0.11-0.05,0.26-0.13,0.39-0.18c0.64-0.27,3.66-1.4,4.49-1.73
		c0.05-0.02,0.1-0.05,0.12-0.11c0.05-0.12,0.13-0.39,0.17-0.55C120.22,374.44,120.18,374.42,120.13,374.45z M105.1,374.41
		c-0.93,0.39-4.1,1.56-4.92,1.91c-0.05,0.02-0.08,0.03-0.1,0.1c-0.03,0.1-0.13,0.42-0.18,0.59c-0.02,0.07,0.04,0.07,0.1,0.04
		c0.11-0.05,0.26-0.13,0.39-0.18c0.64-0.27,3.66-1.41,4.49-1.73c0.05-0.02,0.1-0.05,0.12-0.11c0.05-0.12,0.13-0.39,0.17-0.55
		C105.19,374.41,105.15,374.38,105.1,374.41z M83.11,372.5c0.1,0.12,0.26,0.37,0.28,0.8c0,0.12-0.02,0.3-0.03,0.31
		c-0.01,0.01-0.24-0.09-0.28-0.11c-0.08-0.04-0.31-0.13-0.71-0.28c-0.16-0.03,0-0.28,0-0.28c0.06-0.11,0.16-0.25,0.27-0.37l0.15-0.1
		C82.9,372.44,83.05,372.41,83.11,372.5z M83.03,371.75c-0.46,0.08-1,0.72-1.22,1.45c-0.1,0.33-0.04,0.52,0.14,0.63
		c0.26,0.16,0.64,0.29,1.09,0.41c-0.52,0.87-2.2,2-2.51,2.18c-0.36,0.21-0.3,0.44,0.16,0.24c1.69-0.76,2.52-1.57,2.9-2.29
		c0.12,0.02,0.22,0.06,0.34,0.09c0.2,0.05,0.16,0.08,0.26-0.24c0.05-0.15,0.09-0.26,0.1-0.33l-0.51-0.17l0.05-0.18
		c0.06-0.58-0.09-1.06-0.14-1.21C83.53,371.87,83.3,371.7,83.03,371.75z M74.62,389.32c-0.93,0.39-3.52,1.42-4.34,1.77
		c-0.05,0.02-0.08,0.03-0.1,0.1c-0.03,0.1-0.13,0.42-0.18,0.59c-0.02,0.07,0.04,0.07,0.1,0.04c0.11-0.05,0.26-0.13,0.39-0.18
		c0.64-0.27,3.08-1.27,3.91-1.6c0.05-0.02,0.1-0.05,0.12-0.11c0.05-0.12,0.13-0.39,0.17-0.55
		C74.72,389.32,74.68,389.29,74.62,389.32z M80.78,388.85c-0.93,0.39-3.52,1.42-4.34,1.77c-0.05,0.02-0.08,0.03-0.1,0.1
		c-0.03,0.1-0.13,0.42-0.18,0.59c-0.02,0.07,0.04,0.07,0.1,0.04c0.11-0.05,0.26-0.13,0.39-0.18c0.64-0.27,3.08-1.27,3.91-1.6
		c0.05-0.02,0.1-0.05,0.12-0.11c0.05-0.12,0.13-0.39,0.17-0.55C80.87,388.85,80.84,388.82,80.78,388.85z M76.92,385.32
		c-0.17,0.28-0.4,0.69-0.53,0.94c-0.05,0.1-0.05,0.17,0.06,0.24c0.22,0.12,0.61,0.33,0.89,0.48c0.11,0.06,0.18,0.05,0.24-0.03
		c0.15-0.25,0.38-0.63,0.52-0.88c0.05-0.09,0.07-0.16-0.02-0.21c-0.26-0.16-0.69-0.42-0.95-0.57
		C77.02,385.22,76.97,385.24,76.92,385.32z M72.91,386.44c-0.25,1.43-1.92,0.52-2.51-0.61c0.24,0.01,0.5,0,0.76,0
		C71.74,385.83,72.35,385.89,72.91,386.44z M64.04,383.07c0.24,0.45,0.64,0.84,0.81,1.28c-0.67-0.16-1.37-0.29-1.91-0.62
		c-0.11-0.07-0.1-0.11-0.03-0.23c0.14-0.24,0.47-0.67,0.78-0.68C63.82,382.82,63.94,382.88,64.04,383.07z M72.39,381.84
		c0.02,0.06,0.03,0.12-0.01,0.18c-0.83,1.16-1.42,1.42-1.84,1.64c0.13-0.55,0.43-1.64,0.98-2.25c0.06-0.07,0.15-0.14,0.25-0.14
		C72.02,381.27,72.32,381.57,72.39,381.84z M76.56,379.25l-0.24,1.25c0.51,0.49,1.07,1.01,1.28,1.88c-0.95,1.18-4.75,1.83-6.24,1.99
		c0.81-0.66,1.45-1.58,1.55-2.99c0.06-0.82-0.8-2.27-1.56-0.86c-0.61,1.13-0.93,2.21-1.1,3.29c-0.78,0.34-1.63,0.43-2.54,0.38
		c-1.53-0.09-2.66-0.75-3.45-2.01c-0.18-0.29-0.44-0.28-0.75,0c-0.76,0.69-1.3,1.33-0.84,2.63c-0.23,0.83-3.19,2.52-4.38,3.14
		c-0.38,0.2-0.18,0.28,0.04,0.22c2.26-0.56,4.32-1.25,4.69-3.03c0.7,0.31,1.45,0.48,2.24,0.58c0.56,0.07,0.38-0.45,0.42-0.81
		c0.6,0.44,1.57,0.42,2.42,0.54c0.05,0.15,0.03,0.4,0.21,0.39l1.64-0.02c0.11,1.41,1.5,2.71,2.28,2.67
		c0.79-0.05,1.12-0.58,1.07-2.66c-0.01-0.21-0.14-0.36-0.21-0.53c0.79-0.14,4.3-0.86,4.73-1.98c0.74-1.91-0.14-3.11-1.08-4.03
		c-0.05-0.04-0.09-0.07-0.12-0.07C76.58,379.21,76.57,379.22,76.56,379.25z M62.56,377.84c-0.03,0.08-0.09,0.2-0.12,0.28
		c-0.04,0.14,0.03,0.24,0.11,0.13c0.08-0.13,0.19-0.25,0.32-0.33c0.31-0.19,0.65-0.26,0.99-0.23c0.31,0.03,0.89,0.25,0.89,0.28
		c0,0.07-1.35,0.73-1.56,0.87c-0.09,0.06-0.2,0.16-0.18,0.27c0.02,0.08,0.15,0.1,0.25,0.06c0.53-0.19,0.72-0.18,1.15-0.36
		c0.58-0.25,0.75-0.55,0.85-0.58c0.04-0.01,0.09-0.01,0.14-0.05c0.17-0.16,0.31-0.57,0.32-0.71c-0.02-0.11-0.4-0.15-0.52-0.17
		c-0.38-0.09-0.75-0.29-1.14-0.32C63.45,376.92,62.88,377.19,62.56,377.84z M57.27,383.02c-0.35,0.51-0.83,0.73-1.37,0.22
		c-0.19-0.18-0.18-0.24-0.1-0.44c0.18-0.36,0.43-0.52,0.6-0.53C56.64,382.26,57.06,382.72,57.27,383.02z M55.87,381.24
		c-0.33,0.36-0.61,1.16-0.63,1.91c-0.04,0.84,0.41,1.68,1.21,1.7c0.49,0,0.94-0.44,1.2-1.08c0.17,1.04-0.69,2.57-1.88,3.53
		c-1.41,1.07-2.75,1.2-4.73,1.12c-0.32-0.04-0.47,0.28-0.09,0.37c1.77,0.4,4.18,0.47,5.44-0.66c1.04-0.93,1.66-2.37,1.76-4
		c0.05-1.02-0.27-2.19-1.12-2.93C56.57,380.8,56.23,380.84,55.87,381.24z M58.54,376.24c-0.93,0.39-4.1,1.56-4.92,1.91
		c-0.05,0.02-0.08,0.03-0.1,0.1c-0.03,0.1-0.13,0.42-0.18,0.59c-0.02,0.07,0.04,0.07,0.1,0.04c0.11-0.05,0.26-0.13,0.38-0.18
		c0.64-0.27,3.66-1.41,4.49-1.73c0.05-0.03,0.1-0.05,0.12-0.11c0.05-0.12,0.13-0.39,0.17-0.55
		C58.63,376.24,58.6,376.21,58.54,376.24z M51.59,385.58c-0.15,0.24-0.35,0.59-0.54,0.88c-0.27-0.18-0.62-0.39-0.86-0.55
		c-0.13-0.08-0.18-0.07-0.26,0.05c-0.14,0.21-0.35,0.54-0.5,0.8c-0.05,0.09-0.04,0.18,0.1,0.26c0.26,0.15,0.66,0.38,0.9,0.51
		c0.08,0.04,0.14,0.02,0.2-0.07c0.13-0.18,0.28-0.45,0.49-0.79c0.36,0.21,0.65,0.4,0.94,0.54c0.08,0.04,0.12,0.03,0.18-0.04
		c0.14-0.18,0.4-0.58,0.5-0.78c0.07-0.14,0.05-0.19-0.07-0.27c-0.19-0.12-0.65-0.41-0.88-0.56
		C51.69,385.49,51.64,385.5,51.59,385.58z M44.25,382.91c0.23,0.4,0.53,0.85,0.72,1.33c-0.68-0.15-1.33-0.35-1.92-0.61
		c-0.14-0.06-0.09-0.15,0-0.23c0.24-0.24,0.48-0.41,0.73-0.57c0.1-0.07,0.17-0.14,0.25-0.14C44.09,382.68,44.16,382.74,44.25,382.91
		z M38.44,379.68l-0.03,1.52l0.47,1.91c-0.42,1.04-2.75,1.27-3.16,0.81c-0.28-0.32-0.41-0.16-0.4,0.02l0.03,0.91
		c0,0.03-0.01,0.08,0.16,0.19c1.04,0.67,2.47,0.03,2.8-0.14c0.33-0.17,0.55-0.23,0.74-1.14c0.41,1.26,0.96,2.31,2,2.34
		c0.85,0.03,1.41-0.58,1.65-1.74c0.19,0.53,0.83,0.96,2.52,1.22c0.48,0.07,0.51-0.03,0.52-0.58c3.08,0.88,4.88,0.16,6.51-0.82
		c0.08-0.05,0.12-0.11,0.16-0.3c0.41-1.61-0.09-2.84-1.01-3.87c-0.2-0.23-0.3-0.06-0.31,0.07l-0.1,1.08c0.49,0.55,0.94,1.13,1.1,1.9
		c-1.53,1.11-4.64,1.53-6.13,0.64c-0.59-0.35-1.03-1.11-1.51-1.79c-0.12-0.17-0.28-0.36-0.64-0.05c-0.76,0.64-0.9,0.76-1.19,1.68
		c-0.49,1.71-2.16,1.74-2.83,0.26c-0.46-1.01-0.88-2.71-1.13-4.15c-0.02-0.1-0.08-0.17-0.13-0.17
		C38.47,379.51,38.44,379.56,38.44,379.68z M26.62,378.97c-0.03,0.08-0.09,0.2-0.12,0.28c-0.04,0.14,0.04,0.24,0.11,0.13
		c0.08-0.13,0.19-0.25,0.32-0.33c0.31-0.19,0.65-0.26,0.99-0.23c0.31,0.03,0.89,0.25,0.89,0.28c0,0.07-1.35,0.73-1.56,0.87
		c-0.09,0.06-0.2,0.16-0.18,0.27c0.02,0.08,0.15,0.1,0.25,0.06c0.53-0.19,0.72-0.18,1.15-0.36c0.58-0.25,0.75-0.55,0.85-0.58
		c0.04-0.01,0.09-0.01,0.14-0.05c0.17-0.16,0.31-0.57,0.32-0.71c-0.02-0.11-0.41-0.15-0.52-0.17c-0.38-0.09-0.75-0.29-1.14-0.32
		C27.5,378.05,26.93,378.32,26.62,378.97z M30.71,384.07c-0.65-0.05-1.27,0.17-1.99-0.33c-0.04-0.03-0.06-0.05,0.01-0.15
		c0.23-0.32,0.48-0.44,0.71-0.44C30.01,383.15,30.51,383.82,30.71,384.07z M34.86,380.74c0.14,0.16-0.11,0.67-0.29,0.59l-1.42-0.54
		c0.39-0.47,0.09-1.11,0.07-1.68C33.8,379.6,34.37,380.09,34.86,380.74z M32.97,380.35l-0.44,0.37l-1.21-0.01
		c-0.13,0-0.12-0.09-0.11-0.15c0.07-0.34,0.07-0.71,0.26-1c0.11-0.17,0.24-0.24,0.39-0.24C32.3,379.3,32.83,379.92,32.97,380.35z
		 M31.18,377.22l0.09,1.22c-0.2,0.46-0.31,1.01-0.38,1.63c-0.06,0.54-0.07,1.06,0.4,1.53c-0.4,0.4-0.83,0.49-1.24,0.68
		c-0.29-0.06-0.58-0.09-0.96,0.03c-0.65,0.21-1.3,1.76-0.22,2.69c-0.54,0.91-2,1.85-3.57,2.83c-0.39,0.24-1.05,0.61,0.33,0.23
		c2.15-0.74,3.37-1.62,3.59-2.8c0.13,0.04,2,0.2,2.13-0.22c0.23-0.77-0.15-1.79-0.79-2.35c0.74-0.22,1.31-0.65,1.91-1.07
		c0.57,0.03,1.17,0.36,1.77,0.61c0.24,0.1,0.48,0.3,0.76-0.07c0.35-0.47,0.32-1.24,0.29-1.78c-0.05-0.84-1.53-2.63-3.74-3.39
		c-0.08-0.03-0.14-0.04-0.2-0.04C31.22,376.94,31.17,377.02,31.18,377.22z M39.71,375.21l-0.23,0.43c-0.03,0.05-0.05,0.08-0.03,0.13
		c0.07,0.17,0.12,0.37,0.12,0.48c-0.27,0.26-0.56,0.3-0.77,0.13c-0.14-0.11-0.19-0.32-0.17-0.59c0.01-0.2,0.03-0.27-0.14-0.13
		c-0.23,0.18-0.16,0.16-0.18,0.27c-0.08,0.64-0.36,0.93-0.85,0.97c-0.31,0.02-0.54-0.2-0.32-0.82c0.05-0.13-0.05-0.27-0.18,0
		c-0.47,0.93-0.18,1.45,0.29,1.52c0.39,0.06,0.85-0.16,1.09-0.75c0.18,0.3,0.55,0.39,0.88,0.3c0.42-0.11,0.51-0.3,0.63-0.65
		c0.12-0.33,0.12-0.77-0.04-1.29C39.77,375.12,39.72,375.17,39.71,375.21z M53.15,374.75c-0.93,0.39-3.52,1.42-4.34,1.77
		c-0.05,0.02-0.08,0.03-0.1,0.1c-0.03,0.1-0.13,0.42-0.18,0.59c-0.02,0.07,0.04,0.07,0.1,0.04c0.11-0.05,0.26-0.13,0.39-0.18
		c0.64-0.27,3.08-1.27,3.91-1.6c0.05-0.02,0.1-0.05,0.12-0.11c0.05-0.12,0.13-0.39,0.17-0.55
		C53.24,374.74,53.21,374.72,53.15,374.75z M44.7,374.95c0.1,0.12,0.26,0.37,0.29,0.8c0,0.12-0.02,0.3-0.03,0.31
		c-0.01,0.01-0.24-0.09-0.28-0.11c-0.08-0.04-0.31-0.13-0.71-0.28c-0.16-0.03,0-0.28,0-0.28c0.06-0.11,0.16-0.25,0.27-0.37l0.15-0.1
		C44.48,374.89,44.63,374.86,44.7,374.95z M44.61,374.2c-0.46,0.08-1.01,0.72-1.23,1.45c-0.1,0.33-0.04,0.52,0.14,0.63
		c0.26,0.16,0.64,0.29,1.09,0.41c-0.52,0.87-2.2,2-2.51,2.18c-0.36,0.21-0.3,0.44,0.15,0.24c1.69-0.76,2.52-1.57,2.9-2.29
		c0.12,0.02,0.22,0.06,0.34,0.09c0.2,0.05,0.16,0.08,0.26-0.24c0.05-0.15,0.09-0.26,0.1-0.33l-0.51-0.17l0.05-0.18
		c0.06-0.58-0.09-1.06-0.14-1.21C45.11,374.32,44.88,374.15,44.61,374.2z M32.21,371.81c0.1,0.12,0.26,0.37,0.29,0.8
		c0,0.12-0.02,0.3-0.03,0.31c-0.01,0.01-0.24-0.09-0.28-0.11c-0.08-0.04-0.31-0.13-0.71-0.28c-0.16-0.03,0-0.28,0-0.28
		c0.06-0.11,0.16-0.25,0.27-0.37l0.15-0.1C31.99,371.75,32.14,371.72,32.21,371.81z M32.12,371.06c-0.46,0.08-1.01,0.72-1.23,1.45
		c-0.1,0.33-0.04,0.52,0.14,0.63c0.26,0.16,0.64,0.29,1.09,0.41c-0.52,0.87-2.2,2-2.51,2.18c-0.36,0.21-0.3,0.44,0.16,0.24
		c1.69-0.76,2.52-1.57,2.9-2.29c0.12,0.02,0.22,0.06,0.34,0.09c0.2,0.05,0.16,0.08,0.26-0.24c0.05-0.15,0.09-0.26,0.1-0.33
		l-0.51-0.17l0.05-0.18c0.06-0.58-0.09-1.06-0.14-1.21C32.62,371.18,32.39,371.01,32.12,371.06z M38.24,370.84
		c0.11,0.12,0.26,0.37,0.29,0.8c0,0.12-0.02,0.3-0.03,0.31c-0.01,0.01-0.24-0.09-0.28-0.11c-0.08-0.04-0.31-0.13-0.71-0.28
		c-0.16-0.03,0-0.28,0-0.28c0.06-0.11,0.16-0.25,0.27-0.37l0.15-0.1C38.02,370.78,38.17,370.74,38.24,370.84z M38.15,370.09
		c-0.46,0.08-1,0.72-1.23,1.45c-0.1,0.33-0.03,0.52,0.14,0.63c0.26,0.16,0.64,0.29,1.09,0.41c-0.52,0.87-2.2,2-2.51,2.18
		c-0.36,0.21-0.3,0.44,0.15,0.24c1.69-0.76,2.52-1.57,2.9-2.29c0.12,0.02,0.22,0.06,0.34,0.09c0.2,0.05,0.16,0.08,0.26-0.24
		c0.05-0.15,0.09-0.26,0.1-0.33l-0.51-0.17l0.05-0.18c0.06-0.58-0.09-1.06-0.14-1.21C38.65,370.2,38.42,370.04,38.15,370.09z
		 M268.62,415.77c-0.93,0.39-3.52,1.42-4.34,1.77c-0.05,0.02-0.08,0.03-0.1,0.1c-0.03,0.1-0.13,0.42-0.18,0.59
		c-0.02,0.07,0.04,0.07,0.1,0.04c0.11-0.05,0.26-0.13,0.38-0.18c0.64-0.27,3.08-1.27,3.91-1.6c0.05-0.03,0.1-0.05,0.12-0.11
		c0.05-0.12,0.13-0.39,0.17-0.55C268.72,415.77,268.68,415.74,268.62,415.77z M267.13,407.77c-0.52,0.93-1.62,0.38-1.68,0.04
		c-0.03-0.21,0.37-0.92,0.67-0.91C266.5,406.92,266.83,407.38,267.13,407.77z M266.22,405.58c-0.14,0.02-0.27,0.11-0.42,0.25
		c-0.76,0.68-1.11,2.53-0.54,3.23c0.39,0.48,0.89,0.5,1.27,0.43c0.34-0.07,0.69-0.41,0.95-1.03c0.45,0.72,0.29,1.3-0.24,1.76
		c-0.53,0.41-1.13,0.58-1.68,0.64c-0.08,0.01-0.08,0.02-0.1,0.08c-0.08,0.28-0.11,0.41-0.18,0.66c-0.04,0.14-0.04,0.15,0.1,0.15
		c1.06-0.05,2.85,0.31,2.73,0.51c-1.21,1.19-2.71,1.85-4.09,1.94c-2.24,0.15-4.09-1.36-2.63-4.52c0.12-0.31-0.07-0.55-0.26-0.23
		c-1.99,3.95-0.21,5.95,2.19,6.08c1.7,0.09,3.7-0.77,4.99-2.28c0.3-0.49,0.44-1.03,0.4-1.45c-0.06-0.54-0.36-0.76-1.2-0.85
		c0.71-1.01,0.96-2.1,0.5-3.34c-0.36-0.88-0.74-1.37-1.33-1.86C266.5,405.6,266.36,405.56,266.22,405.58z M265.1,402.75
		c-0.17,0.28-0.4,0.69-0.53,0.94c-0.05,0.1-0.05,0.18,0.06,0.24c0.22,0.12,0.61,0.33,0.89,0.48c0.12,0.06,0.18,0.05,0.24-0.03
		c0.15-0.25,0.38-0.63,0.52-0.88c0.05-0.09,0.07-0.16-0.02-0.21c-0.26-0.16-0.69-0.42-0.95-0.57
		C265.2,402.65,265.15,402.67,265.1,402.75z M236.38,413.84c-0.93,0.39-3.52,1.42-4.34,1.77c-0.05,0.02-0.08,0.03-0.1,0.1
		c-0.03,0.1-0.13,0.42-0.18,0.59c-0.02,0.07,0.04,0.07,0.1,0.04c0.11-0.04,0.26-0.13,0.38-0.18c0.64-0.27,3.08-1.27,3.91-1.6
		c0.05-0.02,0.1-0.05,0.12-0.11c0.05-0.11,0.13-0.39,0.17-0.55C236.47,413.84,236.43,413.82,236.38,413.84z M229.92,413.68
		c-0.93,0.39-4.1,1.56-4.92,1.91c-0.05,0.02-0.08,0.03-0.1,0.1c-0.03,0.1-0.13,0.42-0.18,0.59c-0.02,0.07,0.04,0.07,0.1,0.04
		c0.11-0.05,0.26-0.13,0.38-0.18c0.64-0.27,3.66-1.41,4.49-1.73c0.05-0.02,0.1-0.05,0.12-0.11c0.05-0.12,0.13-0.39,0.17-0.55
		C230.01,413.68,229.97,413.66,229.92,413.68z M242.79,413.73c-0.16,0.24-0.35,0.59-0.54,0.88c-0.27-0.18-0.62-0.39-0.86-0.55
		c-0.13-0.08-0.18-0.07-0.26,0.05c-0.14,0.21-0.35,0.54-0.5,0.8c-0.05,0.1-0.04,0.18,0.1,0.26c0.26,0.15,0.66,0.38,0.91,0.51
		c0.08,0.04,0.14,0.01,0.2-0.07c0.13-0.18,0.28-0.45,0.49-0.79c0.36,0.21,0.65,0.4,0.94,0.54c0.08,0.04,0.12,0.03,0.18-0.04
		c0.14-0.18,0.39-0.58,0.5-0.78c0.07-0.14,0.05-0.19-0.07-0.27c-0.19-0.12-0.65-0.41-0.88-0.56
		C242.88,413.64,242.84,413.65,242.79,413.73z M237.64,405.3c-0.09,0.18-0.24,0.57-0.24,0.68c0,0.06,0.17,0.25,0.36,0.52
		c0.61,0.86,0.93,1.8,0.75,3.07c-0.02,0.11-0.05,0.21,0.01,0.21c0.28-0.02,0.44-0.97,0.43-1.48c-0.02-1.23-0.52-2.21-1.14-2.98
		C237.74,405.23,237.68,405.2,237.64,405.3z M232.71,405.11c-0.17,0.28-0.4,0.69-0.53,0.94c-0.05,0.1-0.05,0.17,0.06,0.24
		c0.22,0.12,0.61,0.33,0.89,0.48c0.12,0.06,0.18,0.05,0.24-0.03c0.15-0.25,0.38-0.64,0.52-0.88c0.05-0.09,0.07-0.16-0.02-0.21
		c-0.26-0.16-0.69-0.42-0.95-0.57C232.81,405.01,232.77,405.03,232.71,405.11z M246.56,404.75c-0.17,0.28-0.4,0.69-0.53,0.94
		c-0.05,0.1-0.05,0.17,0.06,0.24c0.22,0.12,0.61,0.33,0.89,0.48c0.12,0.06,0.18,0.05,0.24-0.03c0.15-0.25,0.38-0.64,0.52-0.88
		c0.05-0.09,0.07-0.16-0.02-0.21c-0.26-0.16-0.69-0.42-0.95-0.57C246.66,404.65,246.61,404.67,246.56,404.75z M220.77,403.88
		c-0.03,0.08-0.09,0.2-0.12,0.28c-0.04,0.14,0.04,0.24,0.11,0.13c0.08-0.13,0.19-0.25,0.32-0.33c0.31-0.19,0.65-0.26,0.99-0.23
		c0.31,0.03,0.89,0.25,0.89,0.28c0,0.07-1.35,0.73-1.56,0.87c-0.09,0.06-0.2,0.16-0.18,0.27c0.02,0.08,0.15,0.1,0.25,0.06
		c0.53-0.19,0.72-0.18,1.15-0.36c0.58-0.25,0.75-0.55,0.85-0.58c0.04-0.01,0.09-0.01,0.14-0.05c0.17-0.16,0.31-0.57,0.32-0.71
		c-0.02-0.11-0.4-0.15-0.51-0.17c-0.38-0.09-0.75-0.29-1.14-0.32C221.66,402.95,221.09,403.23,220.77,403.88z M244.17,402.61
		c-0.93,0.39-3.52,1.42-4.34,1.77c-0.05,0.02-0.08,0.03-0.1,0.1c-0.03,0.1-0.13,0.42-0.18,0.59c-0.02,0.07,0.04,0.07,0.1,0.05
		c0.11-0.05,0.26-0.13,0.38-0.18c0.64-0.27,3.08-1.27,3.91-1.6c0.05-0.02,0.1-0.05,0.12-0.11c0.05-0.12,0.13-0.39,0.17-0.55
		C244.27,402.61,244.23,402.59,244.17,402.61z M245.31,401.7c-0.04,0.08-0.09,0.2-0.12,0.28c-0.04,0.14,0.04,0.24,0.11,0.13
		c0.08-0.13,0.19-0.25,0.32-0.33c0.31-0.19,0.65-0.26,0.99-0.23c0.31,0.03,0.89,0.25,0.89,0.28c0,0.07-1.35,0.73-1.56,0.87
		c-0.09,0.06-0.2,0.16-0.18,0.27c0.02,0.08,0.15,0.1,0.25,0.06c0.53-0.19,0.72-0.18,1.15-0.36c0.58-0.25,0.75-0.55,0.85-0.58
		c0.04-0.01,0.09-0.01,0.14-0.05c0.17-0.15,0.31-0.57,0.32-0.71c-0.02-0.11-0.41-0.15-0.52-0.17c-0.38-0.09-0.75-0.29-1.14-0.32
		C246.2,400.78,245.63,401.06,245.31,401.7z M256.42,401.37c0.11,0.12,0.26,0.37,0.29,0.8c0,0.12-0.02,0.3-0.03,0.31
		c-0.01,0.01-0.24-0.09-0.28-0.11c-0.08-0.04-0.31-0.13-0.71-0.28c-0.16-0.03,0-0.28,0-0.28c0.06-0.11,0.16-0.25,0.27-0.37l0.15-0.1
		C256.2,401.3,256.35,401.27,256.42,401.37z M256.33,400.61c-0.46,0.08-1,0.72-1.22,1.45c-0.1,0.33-0.04,0.52,0.14,0.63
		c0.26,0.16,0.64,0.29,1.09,0.4c-0.52,0.87-2.2,2-2.51,2.18c-0.36,0.21-0.3,0.44,0.16,0.24c1.69-0.76,2.52-1.57,2.9-2.29
		c0.12,0.02,0.22,0.06,0.34,0.09c0.2,0.05,0.16,0.08,0.27-0.24c0.05-0.15,0.09-0.26,0.1-0.33l-0.51-0.17l0.05-0.18
		c0.06-0.58-0.09-1.06-0.14-1.21C256.83,400.73,256.61,400.57,256.33,400.61z M225.78,411.19c-0.66-0.05-1.27,0.18-1.99-0.33
		c-0.04-0.03-0.06-0.05,0.01-0.15c0.23-0.32,0.48-0.44,0.72-0.44C225.07,410.27,225.58,410.94,225.78,411.19z M257.16,409.3
		c0.12,0.08,0.09,0.16,0.03,0.21c-1.14,0.96-2.76,1.55-4.99,1.74c1.18-0.8,2.17-2.43,3.55-2.45
		C256.18,408.79,256.64,408.93,257.16,409.3z M229.93,407.85c0.14,0.16-0.11,0.67-0.29,0.59l-1.43-0.54
		c0.39-0.47,0.09-1.11,0.07-1.69C228.87,406.7,229.45,407.2,229.93,407.85z M228.04,407.46l-0.44,0.37l-1.21-0.01
		c-0.13,0-0.12-0.09-0.11-0.15c0.07-0.34,0.07-0.71,0.26-1.01c0.11-0.17,0.25-0.24,0.39-0.24
		C227.37,406.41,227.9,407.02,228.04,407.46z M251.31,399.62l-0.44,0.8c-0.27,0.51,0.34,0.75,0.4,1.5c0.33,2.84,1.26,5.1,1,8.5
		c-0.29,0.27-0.6,0.56-1.01,0.95c-0.96,0.05-1.84-0.15-2.66-0.58c1.52-1.47,0.83-2.24-1.08-2.51c-1.17-0.17-1.95,0.46-2.3,1.56
		c-0.06,0.19,0.03,0.38,0.26,0.16c0.47-0.44,1.07,0.2,1.39,0.38c-0.9,0.49-1.73,1.1-3.15,0.53c0.19-0.33,0.37-0.65,0.36-0.96
		c-0.01-0.45-0.25-0.36-0.34-0.12c-0.42,1.18-3.47,1.51-4.76,1.54c-1.44,0.02-2.98,0.01-3.83-1.22c-0.27-0.39-0.44-0.54-0.84-0.01
		c-0.9,1.2-2.37,1.29-3.43,1.18c-1.71-0.17-1.59-1.12-1.56-2c0.25,0.1,0.46,0.31,0.74-0.06c0.35-0.47,0.33-1.25,0.29-1.79
		c-0.05-0.84-1.54-2.63-3.75-3.4c-0.08-0.03-0.14-0.04-0.2-0.04c-0.12,0-0.18,0.08-0.16,0.27l0.09,1.22
		c-0.2,0.46-0.31,1.01-0.38,1.63c-0.06,0.54-0.07,1.06,0.4,1.53c-0.4,0.4-0.83,0.49-1.25,0.68c-0.29-0.06-0.58-0.09-0.96,0.03
		c-0.66,0.21-1.3,1.77-0.22,2.7c-0.54,0.92-2,1.86-3.58,2.83c-0.39,0.24-1.05,0.61,0.34,0.23c2.16-0.74,3.38-1.62,3.6-2.81
		c0.13,0.04,2.01,0.2,2.13-0.22c0.23-0.78-0.15-1.79-0.8-2.35c0.74-0.22,1.32-0.66,1.91-1.07c0.46,0.02,0.93,0.24,1.41,0.44
		c-0.55,2.95,0.83,3.47,1.96,3.44c1.29-0.04,2.54-0.29,3.74-1.69c0.03-0.03,0.08-0.09,0.12,0c0.09,0.21,0.17,0.43,0.28,0.59
		c1.05,1.52,6.47,1.09,8.2,0c1.84,1.59,2.76,0.29,4.31-0.39c2.11,2.74,7.62,0.83,9.27-0.18c0.6-0.37,0.79-1.12,0.95-1.84
		c0.22-0.95-0.36-1.48-1.16-1.57c-1.75-0.2-2.72,1.6-4.02,2.53c0.17-0.8,0.33-1.87,0.26-2.4c-0.23-1.87-0.57-3.71-0.91-5.55
		c-0.03-0.23,0-0.35,0.24-0.54c0.19-0.15,0.32-0.52,0.04-0.81c-0.29-0.29-0.53-0.61-0.69-1.09c-0.03-0.09-0.08-0.13-0.12-0.14
		C251.38,399.54,251.34,399.56,251.31,399.62z M181.52,404.58c0.26,0.15,0.69,0.41,0.95,0.57c0.09,0.05,0.07,0.12,0.02,0.21
		c-0.14,0.24-0.37,0.63-0.52,0.88c-0.05,0.08-0.12,0.09-0.24,0.03c-0.28-0.15-0.67-0.36-0.89-0.48c-0.11-0.06-0.11-0.13-0.06-0.24
		c0.13-0.25,0.36-0.67,0.53-0.94C181.37,404.54,181.41,404.52,181.52,404.58z M211.13,402.78c0.4,0.03,0.76,0.23,1.14,0.32
		c0.11,0.03,0.5,0.06,0.51,0.17c-0.01,0.14-0.15,0.55-0.32,0.71c-0.05,0.05-0.1,0.04-0.14,0.05c-0.1,0.03-0.27,0.34-0.85,0.59
		c-0.43,0.18-0.62,0.17-1.15,0.36c-0.11,0.04-0.24,0.02-0.25-0.06c-0.02-0.1,0.09-0.21,0.18-0.27c0.21-0.13,1.55-0.8,1.56-0.87
		c0-0.03-0.58-0.25-0.89-0.28c-0.34-0.03-0.67,0.04-0.99,0.23c-0.13,0.08-0.24,0.21-0.32,0.33c-0.07,0.11-0.15,0.01-0.11-0.13
		c0.03-0.08,0.08-0.2,0.12-0.28C209.95,403.01,210.52,402.74,211.13,402.78z M183.87,400.96c-0.04,0.16-0.12,0.44-0.17,0.55
		c-0.02,0.06-0.07,0.08-0.12,0.11c-0.82,0.33-3.85,1.47-4.49,1.73c-0.13,0.05-0.27,0.14-0.38,0.18c-0.06,0.02-0.12,0.03-0.1-0.04
		c0.05-0.17,0.15-0.49,0.18-0.59c0.02-0.07,0.05-0.08,0.1-0.1c0.82-0.35,3.99-1.52,4.92-1.91
		C183.85,400.86,183.89,400.89,183.87,400.96z M218.82,402.68c-0.05,0.17-0.12,0.44-0.17,0.55c-0.03,0.06-0.07,0.08-0.12,0.11
		c-0.82,0.33-3.27,1.33-3.91,1.6c-0.13,0.05-0.27,0.14-0.38,0.18c-0.06,0.02-0.12,0.02-0.1-0.05c0.04-0.17,0.14-0.49,0.18-0.59
		c0.02-0.07,0.05-0.08,0.1-0.1c0.82-0.35,3.41-1.38,4.34-1.77C218.8,402.58,218.84,402.61,218.82,402.68z M206.13,402.41
		c-0.05,0.16-0.12,0.44-0.17,0.55c-0.02,0.06-0.07,0.08-0.12,0.11c-0.82,0.33-4.43,1.57-5.07,1.84c-0.13,0.05-0.27,0.14-0.38,0.18
		c-0.06,0.02-0.12,0.03-0.1-0.05c0.04-0.17,0.14-0.49,0.18-0.59c0.02-0.07,0.05-0.08,0.1-0.1c0.82-0.35,4.57-1.62,5.5-2.01
		C206.11,402.32,206.15,402.35,206.13,402.41z M203.65,410.08c0.22,0.36,0.4,0.73,0.65,1.11c-0.71-0.07-1.4-0.21-1.97-0.66
		c0.28-0.21,0.49-0.41,0.67-0.59c0.09-0.09,0.19-0.16,0.29-0.16C203.4,409.78,203.52,409.87,203.65,410.08z M189.92,408.7
		c0.34,0.29,0.7,0.82,0.71,1.14c-0.58,0.08-1.25-0.02-1.67-0.37c-0.08-0.07-0.04-0.16,0.01-0.26c0.16-0.33,0.44-0.63,0.7-0.63
		C189.75,408.59,189.85,408.64,189.92,408.7z M197.77,408.88c0.04,0.1-0.19,0.35-0.35,0.34c-0.31-0.01-1.18-0.44-1.65-0.55
		c0.14-0.39,0.26-0.93,0.23-1.44C196.3,407.34,197.53,408.31,197.77,408.88z M194.58,406.84c0.51,0.04,0.9,0.61,1.04,1.28
		c-0.08,0.11-0.46,0.41-0.55,0.42c-0.26,0.02-1.37-0.09-1.33-0.53c0.08-0.69,0.5-1.13,0.78-1.17c0.01,0,0.02,0,0.03,0
		C194.57,406.84,194.58,406.84,194.58,406.84z M193.85,405.14c-0.12,0.3-0.18,0.9-0.17,1.05c0.01,0.13,0.1,0.22,0.23,0.3
		c-0.26,0.4-0.49,1.28-0.5,1.7c-0.01,0.38,0.11,0.73,0.29,0.98c-0.65,0.27-1.1,0.45-1.96,0.6c-0.4,0.03-0.38-0.03-0.42-0.21
		c-0.16-0.81-0.5-1.58-0.92-2.02c-0.36-0.39-0.7-0.34-0.99-0.09c-0.65,0.55-1.17,1.5-1.02,2.58c0.2,1.4,1.69,0.98,2.51,0.92
		c-1.41,3.22-4.65,4.22-6.98,3.21c-0.58-0.25-0.68,0.29-0.2,0.43c1.2,0.34,2.13,0.8,3.46,0.69c2.66-0.23,3.55-1.99,4.2-4.19
		c0.04-0.12,0.02-0.24,0.17-0.31c1.03-0.21,2.54-0.7,3.52-1.21c0.34-0.01,1.2,0.4,1.9,0.63c-0.68,3.78,4.19,2.71,5.12,1.17
		c0.54,1.21,2.16,1.09,2.72,1.15c0.45,0.05,0.42-0.19,0.42-0.56c2.23,1.23,5.49,0.24,7.26-1.04c1.59,1.89,3.84,1.07,5.07,0.4
		c0.66-0.38,0.61-0.93,0.67-1.44c0.17-1.37-0.66-2.36-1.22-2.99c-0.09-0.11-0.19-0.05-0.2,0.08l-0.11,0.91
		c-0.02,0.2,0.05,0.31,0.13,0.41c0.39,0.4,0.74,0.88,1,1.55c-0.46,0.72-3.27,1.59-4.49,0.48c1.84-1.55,0.13-2.56-1.03-2.5
		c-1.11,0.06-1.9,0.43-2.14,1.7c-0.07,0.38,0.08,0.33,0.24,0.18c0.34-0.31,1.17-0.1,1.38,0.46c-1.26,0.76-2.6,1.03-3.99,1.07
		c-2.23,0.06-3.14-0.89-3.89-2c-0.19-0.29-0.55-0.5-0.9-0.05c-1.31,1.67-2.26,2.41-3.97,2.38c-1.31-0.03-1.86-0.62-1.8-1.29
		c0.1,0,0.2-0.04,0.28-0.12c0.32-0.29,0.54-1.06,0.58-1.42c0.04-0.41-0.06-0.74-0.26-1.09c-0.35-0.61-2.4-2.05-3.33-2.56
		c-0.15-0.08-0.28-0.13-0.4-0.12C194.01,404.94,193.91,405,193.85,405.14z M217.94,413.19c0.23,0.15,0.69,0.44,0.88,0.56
		c0.12,0.08,0.14,0.13,0.06,0.27c-0.11,0.2-0.36,0.6-0.5,0.78c-0.06,0.07-0.1,0.08-0.18,0.04c-0.28-0.14-0.58-0.33-0.94-0.54
		c-0.21,0.34-0.36,0.61-0.49,0.79c-0.06,0.08-0.12,0.11-0.2,0.07c-0.24-0.13-0.65-0.36-0.91-0.51c-0.14-0.08-0.15-0.16-0.1-0.26
		c0.15-0.27,0.36-0.59,0.5-0.8c0.08-0.12,0.13-0.13,0.26-0.05c0.24,0.16,0.59,0.37,0.86,0.55c0.19-0.29,0.38-0.64,0.54-0.88
		C217.79,413.13,217.83,413.12,217.94,413.19z M194.17,400.1c0.11,0.12,0.26,0.37,0.29,0.8c0,0.12-0.02,0.3-0.03,0.31
		c-0.01,0.01-0.24-0.09-0.28-0.11c-0.08-0.04-0.31-0.13-0.71-0.28c-0.16-0.03,0-0.28,0-0.28c0.06-0.11,0.16-0.25,0.27-0.36l0.15-0.1
		C193.96,400.03,194.11,400,194.17,400.1z M194.08,399.34c-0.46,0.08-1,0.72-1.22,1.45c-0.1,0.33-0.04,0.52,0.14,0.63
		c0.26,0.16,0.64,0.29,1.09,0.41c-0.52,0.87-2.2,2-2.51,2.18c-0.36,0.21-0.3,0.44,0.16,0.24c1.69-0.76,2.52-1.57,2.9-2.29
		c0.12,0.02,0.22,0.06,0.34,0.09c0.2,0.05,0.16,0.08,0.27-0.24c0.05-0.15,0.09-0.26,0.1-0.33l-0.51-0.17l0.05-0.18
		c0.06-0.58-0.09-1.06-0.14-1.21C194.59,399.46,194.36,399.3,194.08,399.34z M184.56,405.92c0.85,1.07,1.29,2.35,1.3,3.67
		c0.01,0.57-0.06,1.26-0.32,1.8c-0.61,1.3-2.11,2.15-3.61,2.22c-1.73,0.07-3.3-0.78-3.32-2.68c-0.01-0.94,0.33-1.99,0.89-2.75
		c0.08-0.11,0.19-0.15,0.24-0.1c0.05,0.04,0.04,0.16-0.01,0.25c-0.33,0.59-0.56,1.35-0.56,2.03c0,1.42,1.29,2.05,2.54,2.04
		c1.41-0.02,3.09-0.67,3.78-1.99c-0.2-1.35-0.72-2.38-1.37-3.32c0.06-0.38,0.16-0.71,0.28-1.12
		C184.43,405.86,184.49,405.83,184.56,405.92z"/>
</g>
</svg>
