<?xml version="1.0" encoding="iso-8859-1"?>
<!-- Generator: Adobe Illustrator 25.2.1, SVG Export Plug-In . SVG Version: 6.00 Build 0)  -->
<svg version="1.1" xmlns="http://www.w3.org/2000/svg" xmlns:xlink="http://www.w3.org/1999/xlink" x="0px" y="0px"
	 viewBox="0 0 293.23 484.99" enable-background="new 0 0 293.23 484.99" xml:space="preserve">
<g id="Ornaments">
</g>
<g id="Header__x26__Marks__x26__Page_No.">
</g>
<g id="Aya_No.">
</g>
<g id="Quran_Text">
	<path fill-rule="evenodd" clip-rule="evenodd" d="M59.51,239.76l-0.16,1.01c-0.04,0.29-0.03,0.32,0.01,0.56
		c0.12,0.67,0.27,1.33,0.4,1.98c0.3,1.46,0.6,2.86,0.86,4.21c0.21,1.08,0.35,2.19,0.42,3.17c0.01,0.19,0.11,0.17,0.15,0.03
		c0.15-0.55,0.2-1.12,0.18-1.72c-0.01-0.59-0.21-1.78-0.4-2.72c-0.22-1.18-0.5-2.47-0.72-3.54c-0.21-1.01-0.42-2.02-0.55-2.99
		c-0.02-0.11-0.06-0.15-0.1-0.14C59.56,239.61,59.53,239.67,59.51,239.76z M56.31,249.45c-0.53,0.09-1.12,0.2-1.58,0.26
		c0.34-0.36,0.82-0.82,1.03-1.12C55.76,248.58,56.17,249.2,56.31,249.45z M55.66,238.55c-0.18,0.2-0.48,0.79-0.47,1.18
		c0,0.09,0.22,0.45,0.5,0.89c-0.08,0.77,1.41,5.22,0.09,7c-1.86-2.92-4.48-4.8-7.03-6.19c-0.48-0.29-0.06,1.69,0.08,2.15
		c0.08,0.18,2.24,0.92,2.23,0.47c1.91,1.08,3.18,2.53,4.38,4.09c-0.06,0.08-0.02,0.03-0.27,0.33c-0.26,0.3-0.65,0.68-1.42,1.41
		c-0.34,0.1-0.54,0.15-0.97,0.27c-0.09,0.02-0.21,0.12-0.22,0.27l-0.05,0.63c-0.01,0.23,0.03,0.33,0.24,0.31
		c1.83-0.21,2.84-0.44,3.96-0.65c0.15-0.03,0.17-0.22,0.21-0.41c0.16-0.96-0.4-1.5-0.82-2.25c1.24-1.82,0.78-5.46,0.34-7.14
		c1.09-0.98-0.1-1.17-0.47-2.28C55.88,238.35,55.78,238.41,55.66,238.55z M51.07,237.82c-0.64,0.65-1.83,1.13-2.76,1.11
		c-0.64-0.02-0.99-0.17-1.31-0.4c-0.08-0.06-0.16-0.05-0.22,0.03c-0.22,0.28-0.51,0.92-0.59,1.37c-0.02,0.08-0.03,0.19,0.01,0.21
		c0.04,0.02,0.1-0.01,0.13-0.07c0.08-0.22,0.19-0.6,0.38-0.81c0.03-0.03,0.08-0.01,0.11,0.01c0.4,0.27,1.01,0.42,1.63,0.39
		c0.87-0.04,2.44-0.57,2.69-1.75c0.01-0.06,0.02-0.11,0-0.12C51.13,237.76,51.1,237.78,51.07,237.82z M58.04,237.38
		c-0.09,0.19-0.06,0.39,0.13,0.53c0.14,0.1,0.41,0.28,0.67,0.41c-0.11,0.05-0.37,0.15-0.52,0.26c-0.04,0.12-0.09,0.31-0.11,0.44
		c-0.01,0.04,0.03,0.09,0.07,0.06c0.46-0.27,1.84-0.62,2.43-0.76c0.04-0.01,0.23-0.44,0.26-0.51c0.04-0.08,0-0.11-0.06-0.09
		c-0.34,0.09-0.67,0.15-1.09,0.14c-0.52-0.01-1.31-0.57-1.31-0.68c0.01-0.11,0.62-0.37,0.76-0.36c0.4,0.03,0.46,0.44,0.57,0.44
		c0.13,0,0.33-0.48,0.33-0.6c0-0.14-0.33-0.5-0.59-0.5C59.16,236.17,58.26,236.92,58.04,237.38z M60.84,234.14
		c-0.93,0.39-3.03,1.23-3.85,1.58c-0.05,0.02-0.08,0.03-0.1,0.1c-0.03,0.1-0.13,0.42-0.18,0.59c-0.02,0.07,0.04,0.07,0.1,0.05
		c0.11-0.05,0.26-0.13,0.38-0.18c0.64-0.27,2.6-1.07,3.42-1.4c0.05-0.02,0.1-0.05,0.12-0.11c0.05-0.12,0.13-0.39,0.17-0.55
		C60.94,234.14,60.9,234.12,60.84,234.14z M56.89,233.89c-0.93,0.39-3.52,1.42-4.34,1.77c-0.05,0.02-0.08,0.03-0.1,0.1
		c-0.03,0.1-0.13,0.42-0.18,0.59c-0.02,0.07,0.04,0.07,0.1,0.04c0.11-0.05,0.26-0.13,0.38-0.18c0.64-0.27,3.08-1.27,3.91-1.6
		c0.05-0.02,0.1-0.05,0.12-0.11c0.05-0.12,0.13-0.39,0.17-0.55C56.98,233.89,56.95,233.86,56.89,233.89z M47.95,254.94
		c-0.94,0.35-1.99,0.7-2.82,1.02c-0.05,0.02-0.08,0.03-0.11,0.1c-0.04,0.09-0.15,0.41-0.2,0.58c-0.02,0.07,0.04,0.07,0.1,0.05
		c0.11-0.04,0.26-0.12,0.39-0.17c0.65-0.24,1.55-0.56,2.38-0.86c0.05-0.02,0.1-0.04,0.13-0.1c0.05-0.11,0.15-0.38,0.2-0.54
		C48.04,254.94,48,254.91,47.95,254.94z M44.79,253.16c-0.09,0.19-0.05,0.39,0.13,0.53c0.14,0.1,0.41,0.28,0.67,0.41
		c-0.11,0.05-0.37,0.15-0.52,0.26c-0.04,0.12-0.09,0.31-0.11,0.43c-0.01,0.04,0.03,0.09,0.07,0.06c0.46-0.27,1.84-0.62,2.44-0.76
		c0.04-0.01,0.23-0.44,0.26-0.5c0.04-0.08,0-0.11-0.06-0.09c-0.34,0.09-0.67,0.15-1.09,0.14c-0.52-0.01-1.31-0.57-1.31-0.68
		c0.01-0.11,0.62-0.37,0.76-0.36c0.4,0.04,0.46,0.44,0.57,0.44c0.13,0,0.33-0.48,0.33-0.6c0-0.14-0.33-0.5-0.59-0.5
		C45.91,251.94,45.01,252.7,44.79,253.16z M39.4,251.63c-0.2,0.35-0.95,1.46-2.48-0.72C39,250.99,39.61,251.28,39.4,251.63z
		 M30.58,248.05c0.21,0.36,0.31,0.92,0.7,1.37c-0.89-0.02-1.88-0.6-1.72-0.87c0.02-0.06,0.39-0.66,0.72-0.69
		C30.39,247.84,30.49,247.89,30.58,248.05z M37.98,246.33c0.28,0.03,0.54,0.29,0.53,0.61c-0.09,0.53-0.7,1.14-1.85,1.71
		c0.17-0.45,0.59-1.67,0.85-2.08C37.63,246.37,37.81,246.31,37.98,246.33z M41.7,244.76c-0.23,0.07-0.31,1.19-0.19,1.33
		c0.69,0.79,0.81,0.69,1.04,1.69c-1.01,1.36-4.68,1.76-5.35,1.77c0.88-0.66,1.92-1.87,1.85-3.15c-0.28-1.82-1.22-2.07-1.91-0.36
		c-0.46,1.02-0.69,2.24-0.93,2.77c-0.86,0.62-4.07,0.89-4.94-0.79c-0.67-1.29-0.93-1.25-1.52-0.5c-0.35,0.51-1.09,1.31-0.32,2.61
		c-0.63,1.5-5.47,3.04-3.73,2.96c1.34-0.03,3.48-1.01,4.24-2.66c0.64,0.25,1.59,0.48,2.11,0.45c0.16-0.02,0.19-0.26,0.23-0.68
		c0.39,0.12,1.68,0.45,2.77,0.2c0.06,0.24-0.01,0.49,0.2,0.5c0.3,0.02,0.48,0,0.99-0.03c0.63,1.95,2.63,3.65,3.38,2.04
		c0.32-0.76,0.59-1.92-0.07-2.65c1.23-0.28,2.53-0.55,3.15-1.58c0.58-1.11,0.41-2.63-0.91-3.88
		C41.77,244.76,41.73,244.75,41.7,244.76z M29.16,242.91c-0.03,0.08-0.09,0.2-0.12,0.28c-0.04,0.14,0.04,0.24,0.11,0.13
		c0.09-0.13,0.19-0.25,0.32-0.33c0.31-0.19,0.65-0.26,0.99-0.23c0.31,0.03,0.89,0.25,0.89,0.28c0,0.07-1.35,0.73-1.56,0.87
		c-0.09,0.06-0.2,0.16-0.18,0.27c0.02,0.08,0.15,0.1,0.25,0.06c0.53-0.19,0.72-0.18,1.15-0.36c0.58-0.25,0.75-0.55,0.85-0.58
		c0.04-0.01,0.09-0.01,0.14-0.05c0.17-0.16,0.31-0.57,0.32-0.71c-0.02-0.11-0.41-0.15-0.52-0.17c-0.38-0.09-0.75-0.29-1.14-0.32
		C30.05,241.99,29.48,242.26,29.16,242.91z M40.32,241.75c-0.17,0.28-0.4,0.69-0.53,0.94c-0.05,0.1-0.05,0.18,0.06,0.24
		c0.22,0.12,0.61,0.33,0.89,0.48c0.12,0.06,0.18,0.05,0.24-0.03c0.15-0.25,0.38-0.64,0.52-0.88c0.05-0.09,0.07-0.16-0.02-0.21
		c-0.26-0.16-0.69-0.42-0.96-0.57C40.41,241.65,40.37,241.67,40.32,241.75z M36.03,240.77c0.1,0.12,0.26,0.37,0.28,0.8
		c0,0.12-0.02,0.3-0.03,0.31c-0.01,0.01-0.24-0.09-0.28-0.11c-0.08-0.04-0.31-0.13-0.71-0.28c-0.16-0.03,0-0.28,0-0.28
		c0.06-0.11,0.16-0.25,0.27-0.36l0.15-0.1C35.81,240.71,35.96,240.68,36.03,240.77z M35.94,240.02c-0.46,0.08-1,0.72-1.23,1.45
		c-0.1,0.33-0.04,0.52,0.14,0.63c0.26,0.16,0.64,0.29,1.09,0.41c-0.52,0.87-2.2,2-2.51,2.18c-0.36,0.21-0.3,0.44,0.16,0.24
		c1.69-0.76,2.52-1.57,2.9-2.29c0.12,0.02,0.22,0.06,0.34,0.09c0.2,0.06,0.16,0.08,0.27-0.24c0.05-0.15,0.09-0.26,0.1-0.33
		l-0.51-0.17l0.05-0.18c0.06-0.58-0.09-1.06-0.14-1.21C36.44,240.14,36.21,239.97,35.94,240.02z M44.14,239.03
		c-0.04,0.01-0.08,0.07-0.1,0.16l-0.19,0.99c-0.06,0.28-0.04,0.32,0,0.55c0.11,0.66,0.26,1.31,0.39,1.95
		c0.32,1.55,0.77,3.92,1.04,5.35c0.2,1.07,0.34,2.16,0.38,3.12c0.01,0.18,0.11,0.17,0.16,0.03c0.17-0.53,0.24-1.09,0.24-1.68
		c0-0.58-0.19-1.75-0.38-2.68c-0.26-1.28-0.67-3.53-0.91-4.7c-0.21-0.99-0.41-1.99-0.53-2.95
		C44.23,239.06,44.18,239.02,44.14,239.03z M41.55,238.51l-0.23,0.43c-0.03,0.05-0.05,0.08-0.03,0.13c0.07,0.17,0.12,0.37,0.12,0.48
		c-0.27,0.26-0.56,0.3-0.77,0.13c-0.14-0.11-0.19-0.32-0.17-0.59c0.01-0.2,0.03-0.27-0.14-0.13c-0.23,0.18-0.16,0.17-0.18,0.27
		c-0.08,0.64-0.36,0.94-0.85,0.97c-0.31,0.02-0.54-0.2-0.32-0.82c0.05-0.13-0.05-0.27-0.18,0c-0.47,0.93-0.18,1.45,0.29,1.52
		c0.39,0.06,0.85-0.16,1.09-0.75c0.18,0.3,0.55,0.38,0.88,0.3c0.42-0.11,0.51-0.3,0.63-0.65c0.12-0.33,0.12-0.77-0.04-1.29
		C41.61,238.42,41.56,238.46,41.55,238.51z M42.73,235.46c-0.93,0.39-4.1,1.56-4.92,1.91c-0.05,0.02-0.08,0.03-0.1,0.1
		c-0.03,0.1-0.13,0.42-0.18,0.59c-0.02,0.07,0.04,0.07,0.1,0.04c0.11-0.05,0.26-0.13,0.39-0.18c0.64-0.27,3.66-1.4,4.49-1.73
		c0.05-0.02,0.1-0.05,0.12-0.11c0.05-0.12,0.13-0.39,0.17-0.55C42.82,235.46,42.79,235.44,42.73,235.46z M258.07,274.98
		c0.1,0.33,0.45,1.06,0.45,1.06c-1.05-0.21-1.19-0.4-1.75-0.78c0.56-0.45,0.78-0.65,1-0.66
		C257.9,274.59,257.94,274.66,258.07,274.98z M268.79,275.7c-0.14,0.24-0.81-0.18-1.5-0.45c0.15-0.33,0.19-1.34,0.06-1.68
		C268.17,274.68,268.98,275.24,268.79,275.7z M267.06,274.69c-0.24,0.2-0.4,0.28-0.69,0.39c-0.49,0.04-0.85-0.02-1.14-0.44
		c0.3-0.89,0.61-1.2,0.88-1.21C266.66,273.41,267.1,274.64,267.06,274.69z M265.47,272.67c-0.5,0.9-0.75,2.07-0.45,2.9
		c-1.04,0.51-2.82,0.76-4.58,0.39c-1.18-0.23-1.62-1.01-2.02-1.61c-0.21-0.34-0.32-1.28-2.02,0.63c-1.32,0.94-1.53,2.13-1.48,3.11
		l0.99,7.7c0.04,0.38,0.25,0.48,0.28,0.03c0.22-3.22-0.74-5.55-0.83-8.77c0.17-0.33,0.66-0.65,1.19-0.84
		c0.52,0.83,1.66,1.11,2.54,1.2c0.41,0.05,0.33,0,0.4-0.57c2.36,0.91,5.14,0.16,6.46-0.48c0.43-0.2,0.58-0.31,0.78-0.38
		c0.36,0.08,0.64,0.26,1.65,0.7c0.79,0.32,0.82-1.38,0.78-1.72c-0.05-0.95-2.4-3.47-3.41-3.74
		C265.26,271.18,265.32,272.59,265.47,272.67z M258.07,266.77c0.11,0.12,0.26,0.37,0.29,0.8c0,0.12-0.02,0.3-0.03,0.31
		c-0.01,0.01-0.24-0.09-0.28-0.11c-0.08-0.04-0.31-0.13-0.71-0.28c-0.16-0.03,0-0.28,0-0.28c0.06-0.11,0.16-0.25,0.27-0.36l0.15-0.1
		C257.85,266.71,258,266.68,258.07,266.77z M257.98,266.02c-0.46,0.08-1,0.72-1.23,1.45c-0.1,0.33-0.04,0.52,0.14,0.63
		c0.26,0.16,0.64,0.29,1.09,0.41c-0.52,0.87-2.2,2-2.51,2.18c-0.37,0.21-0.3,0.44,0.15,0.24c1.69-0.76,2.53-1.57,2.9-2.29
		c0.12,0.02,0.22,0.06,0.34,0.09c0.2,0.05,0.16,0.08,0.26-0.24c0.05-0.15,0.09-0.26,0.1-0.33l-0.51-0.17l0.05-0.18
		c0.06-0.58-0.09-1.06-0.14-1.21C258.48,266.14,258.25,265.97,257.98,266.02z M266.26,265.9c0.11,0.12,0.26,0.37,0.29,0.8
		c0,0.12-0.02,0.3-0.03,0.31c-0.01,0.01-0.24-0.09-0.28-0.11c-0.08-0.04-0.31-0.13-0.71-0.28c-0.16-0.03,0-0.28,0-0.28
		c0.06-0.11,0.16-0.25,0.27-0.37l0.15-0.1C266.05,265.84,266.2,265.81,266.26,265.9z M266.17,265.15c-0.46,0.08-1,0.72-1.22,1.45
		c-0.1,0.33-0.04,0.52,0.14,0.63c0.26,0.16,0.64,0.29,1.09,0.41c-0.52,0.87-2.2,2-2.51,2.18c-0.36,0.21-0.3,0.44,0.15,0.24
		c1.69-0.76,2.53-1.57,2.9-2.29c0.12,0.02,0.22,0.06,0.34,0.09c0.2,0.05,0.16,0.08,0.26-0.24c0.05-0.15,0.09-0.26,0.1-0.33
		l-0.51-0.17l0.05-0.18c0.06-0.58-0.09-1.06-0.14-1.21C266.67,265.27,266.45,265.1,266.17,265.15z M236,279.44
		c-0.93,0.39-4.1,1.56-4.92,1.91c-0.05,0.02-0.08,0.03-0.1,0.1c-0.03,0.1-0.13,0.42-0.18,0.59c-0.02,0.07,0.04,0.07,0.1,0.04
		c0.11-0.05,0.26-0.13,0.38-0.18c0.64-0.27,3.66-1.4,4.49-1.73c0.05-0.02,0.1-0.05,0.12-0.11c0.05-0.12,0.13-0.39,0.17-0.55
		C236.1,279.44,236.06,279.42,236,279.44z M216.01,274.19c-0.35,0.51-0.83,0.73-1.37,0.22c-0.19-0.18-0.18-0.24-0.1-0.44
		c0.18-0.35,0.42-0.52,0.6-0.53C215.39,273.42,215.81,273.88,216.01,274.19z M214.62,272.4c-0.33,0.36-0.61,1.16-0.63,1.91
		c-0.04,0.84,0.41,1.68,1.21,1.7c0.49,0.01,0.94-0.44,1.2-1.08c0.17,1.04-0.69,2.57-1.88,3.53c-1.41,1.07-2.76,1.2-4.73,1.12
		c-0.32-0.04-0.47,0.28-0.09,0.37c1.77,0.4,4.18,0.47,5.44-0.66c1.04-0.93,1.66-2.37,1.76-4c0.05-1.02-0.27-2.19-1.12-2.93
		C215.31,271.97,214.97,272,214.62,272.4z M210.48,270.81c-0.12,0.4-0.21,0.74-0.28,1.12c0.66,0.93,1.18,1.97,1.37,3.32
		c-0.68,1.33-2.37,1.98-3.78,1.99c-1.26,0.02-2.54-0.62-2.54-2.04c0-0.68,0.24-1.44,0.56-2.03c0.05-0.09,0.06-0.21,0.01-0.25
		c-0.06-0.05-0.16-0.01-0.24,0.1c-0.55,0.76-0.89,1.81-0.89,2.75c0.02,1.9,1.59,2.75,3.32,2.68c1.5-0.06,3-0.91,3.61-2.22
		c0.25-0.54,0.32-1.23,0.32-1.8c-0.01-1.32-0.45-2.6-1.3-3.67C210.57,270.68,210.51,270.71,210.48,270.81z M237.12,269.53
		c-0.17,0.28-0.4,0.69-0.53,0.94c-0.05,0.1-0.05,0.17,0.06,0.24c0.22,0.12,0.61,0.33,0.89,0.48c0.12,0.06,0.18,0.05,0.24-0.03
		c0.15-0.25,0.38-0.63,0.52-0.88c0.05-0.09,0.07-0.16-0.02-0.21c-0.26-0.16-0.69-0.42-0.95-0.57
		C237.21,269.44,237.17,269.45,237.12,269.53z M207.07,268.96c-0.17,0.28-0.4,0.69-0.53,0.94c-0.05,0.1-0.05,0.17,0.06,0.23
		c0.22,0.12,0.61,0.33,0.89,0.48c0.12,0.06,0.18,0.05,0.24-0.03c0.15-0.25,0.38-0.64,0.52-0.88c0.05-0.09,0.07-0.16-0.02-0.21
		c-0.26-0.16-0.69-0.42-0.96-0.57C207.17,268.86,207.12,268.88,207.07,268.96z M244.43,267.53c0.11,0.12,0.26,0.37,0.29,0.8
		c0,0.12-0.02,0.3-0.03,0.31c-0.01,0.01-0.24-0.09-0.28-0.11c-0.08-0.04-0.31-0.13-0.71-0.28c-0.16-0.03,0-0.28,0-0.28
		c0.06-0.11,0.16-0.25,0.27-0.36l0.15-0.1C244.21,267.47,244.36,267.44,244.43,267.53z M244.34,266.78c-0.46,0.08-1,0.72-1.22,1.45
		c-0.1,0.33-0.04,0.52,0.14,0.63c0.26,0.16,0.64,0.29,1.09,0.4c-0.52,0.87-2.2,2-2.51,2.18c-0.36,0.21-0.3,0.44,0.15,0.24
		c1.69-0.76,2.53-1.57,2.9-2.29c0.12,0.02,0.22,0.06,0.34,0.09c0.2,0.05,0.16,0.08,0.26-0.24c0.05-0.15,0.09-0.26,0.1-0.33
		l-0.51-0.17l0.05-0.18c0.06-0.58-0.09-1.06-0.14-1.21C244.84,266.9,244.61,266.73,244.34,266.78z M250.58,266.06
		c-0.04,0.01-0.07,0.07-0.09,0.16l-0.16,1.01c-0.04,0.29-0.03,0.32,0.01,0.56c0.12,0.67,0.27,1.33,0.4,1.98
		c0.3,1.46,0.6,2.85,0.86,4.21c0.21,1.08,0.35,2.19,0.42,3.17c0.01,0.19,0.11,0.17,0.15,0.02c0.15-0.55,0.2-1.12,0.18-1.72
		c-0.01-0.59-0.21-1.78-0.4-2.72c-0.22-1.18-0.5-2.47-0.72-3.54c-0.21-1.01-0.42-2.02-0.55-2.99
		C250.66,266.08,250.62,266.05,250.58,266.06z M235.72,266.55c-0.04,0.09-0.09,0.2-0.12,0.28c-0.04,0.14,0.04,0.24,0.11,0.13
		c0.08-0.13,0.19-0.25,0.32-0.33c0.31-0.19,0.65-0.26,0.99-0.23c0.31,0.03,0.89,0.25,0.89,0.28c0,0.07-1.35,0.73-1.56,0.87
		c-0.09,0.06-0.2,0.16-0.18,0.27c0.02,0.08,0.15,0.1,0.25,0.06c0.53-0.19,0.72-0.18,1.15-0.36c0.58-0.25,0.75-0.55,0.85-0.59
		c0.04-0.01,0.09-0.01,0.14-0.05c0.17-0.16,0.3-0.57,0.32-0.71c-0.02-0.11-0.41-0.15-0.52-0.17c-0.38-0.09-0.75-0.29-1.14-0.32
		C236.6,265.62,236.04,265.9,235.72,266.55z M244.8,276.21c-0.59,0-1.9-0.27-1.65-0.67c0.05-0.1,0.34-0.54,0.69-0.56
		C244.22,274.96,244.26,275.45,244.8,276.21z M239.33,275.21c-0.49,0.44-0.57,0.49-1.2,0.8c-0.56-0.29-0.76-0.43-1.01-0.63
		c-0.17-0.12,0.52-0.81,0.91-1.13c0.17-0.14,0.32-0.2,0.45-0.21C238.92,274.01,239.11,274.74,239.33,275.21z M247.03,265.43
		c-0.1,0.01-0.17,0.3-0.44,0.79c-0.3,0.49,0.13,0.73,0.39,1.12c0.09,2.04,1.06,5.38,1.37,7.99c-0.34,0.42-1.42,0.58-2.32,0.37
		c-0.67-0.18-1.08-0.58-1.47-1.19c-0.31-0.53-0.54-0.47-0.89-0.23c-0.5,0.36-0.75,1.11-1.3,1.89c-0.5,0.69-1.88,1.02-3.26,0.27
		c0.49-0.51,1.07-1.78,0.2-3.24c-0.6-1.02-1.17-0.27-1.59,0.11c-0.8,0.8-1.43,2.15-0.74,3.16c-0.51,0.24-1.53,0.64-2.41-0.09
		c0.09-0.28,0.16-0.5,0.18-0.8c0.01-0.39-0.25-0.24-0.31-0.09c-0.25,0.51-0.32,1.74-0.9,1.69c-0.46-0.07-0.63-0.13-0.98-0.33
		c0.21-0.29,0.51-0.91,0.56-1.19c0.02-0.2-0.17-0.34-0.37,0.01c-0.66,1.36-1.34,1.46-3.02,1.69c0.26-0.55,0.57-1.1,0.62-1.7
		c0-0.34-0.17-0.38-0.31-0.05c-0.23,0.45-0.24,0.89-1.27,1.37c-5.15,1.74-5.39-2.28-6.27-6.45c-0.11-0.71-0.39,0.42-0.25,1.71
		c0.21,0.77,0.41,1.51,0.59,2.44c-0.37,1.27-3.8,1.95-3.93,1.17c-0.03-0.18-0.13-0.26-0.2-0.11c-0.06,0.16-0.27,0.7-0.02,1.41
		c0.27,0.51,2.93,0.11,3.81-0.8c0.25-0.26,0.37-0.57,0.52-1.04c0.58,1.07,0.63,4.04,5.1,3c0.91,0.02,3.09,0.11,3.9-0.79
		c0.11,0.39,0.46,0.68,0.99,0.78c0.52,0.07,0.79-0.01,1.29-1.16c0.55,0.29,1.67,0.74,2.18,0.62c0.64-0.15,0.75-0.24,1.46-0.56
		c2.29,1.28,3.99,1.17,4.88-0.7c0.17,0.83,1.22,0.93,2.67,1.08c0.2,0.01,0.21-0.58,0.25-0.72c0.62,0.16,1.4,0.29,2.18-0.01
		c0.32-0.13,1.01-0.53,0.84-2.78c-0.02-0.28-1.11-5.71-1.24-6.54c0.99-0.97,0.38-0.95-0.27-1.9
		C247.14,265.5,247.08,265.42,247.03,265.43L247.03,265.43z M209.65,265.04c-0.93,0.39-4.1,1.56-4.92,1.91
		c-0.05,0.02-0.08,0.03-0.1,0.1c-0.03,0.1-0.13,0.42-0.18,0.59c-0.02,0.07,0.04,0.07,0.1,0.05c0.11-0.05,0.26-0.13,0.38-0.18
		c0.64-0.27,3.67-1.41,4.49-1.73c0.05-0.02,0.1-0.05,0.12-0.11c0.05-0.11,0.13-0.39,0.17-0.55
		C209.74,265.04,209.7,265.02,209.65,265.04z M221.85,264.93c0.11,0.12,0.26,0.37,0.29,0.8c0,0.12-0.02,0.3-0.03,0.31
		c-0.01,0.01-0.24-0.09-0.28-0.11c-0.08-0.04-0.31-0.13-0.71-0.28c-0.16-0.03,0-0.28,0-0.28c0.06-0.11,0.16-0.25,0.27-0.36l0.15-0.1
		C221.63,264.87,221.78,264.84,221.85,264.93z M221.76,264.18c-0.46,0.08-1,0.72-1.22,1.45c-0.1,0.33-0.04,0.52,0.14,0.63
		c0.26,0.16,0.64,0.29,1.09,0.4c-0.52,0.87-2.2,2-2.51,2.18c-0.36,0.21-0.3,0.44,0.16,0.24c1.69-0.76,2.52-1.57,2.9-2.29
		c0.12,0.02,0.22,0.06,0.34,0.09c0.2,0.05,0.16,0.08,0.26-0.24c0.05-0.15,0.09-0.26,0.1-0.33l-0.51-0.17l0.05-0.18
		c0.06-0.58-0.09-1.06-0.14-1.21C222.26,264.3,222.03,264.13,221.76,264.18z M252.3,263.47c0.08,0.08,0.17,0.19,0.16,0.3
		c-0.13,0.29-0.95,0.58-1.26,0.66c-0.06,0.01-0.38,0.08-0.36-0.02c0.19-0.3,0.37-0.62,0.64-0.87
		C251.75,263.33,252.02,263.23,252.3,263.47z M251.51,262.94c-0.36,0.37-0.85,1.05-1.06,1.49c-0.16-0.01-0.46-0.17-0.6-0.24
		c-0.19-0.09-0.32,0.1-0.41,0.25c-0.19,0.29-0.33,0.58-0.44,0.9l-0.11,0.31c0,0.13,0.06,0.17,0.16,0.06
		c0.22-0.22,0.39-0.82,0.53-0.74c0.75,0.43,1.71,0.28,2.43-0.22c0.56-0.4,0.99-1.01,0.83-1.69c-0.06-0.24-0.33-0.47-0.59-0.49
		C251.96,262.57,251.72,262.73,251.51,262.94z M245.22,263.25c-0.03,0.08-0.09,0.2-0.12,0.28c-0.04,0.14,0.04,0.24,0.11,0.13
		c0.09-0.13,0.19-0.25,0.32-0.33c0.31-0.19,0.65-0.26,0.99-0.23c0.31,0.03,0.89,0.25,0.89,0.28c0,0.07-1.35,0.73-1.56,0.87
		c-0.09,0.06-0.2,0.16-0.18,0.27c0.02,0.08,0.15,0.1,0.25,0.06c0.53-0.19,0.72-0.18,1.15-0.36c0.58-0.25,0.75-0.55,0.85-0.58
		c0.04-0.01,0.09-0.01,0.14-0.05c0.17-0.16,0.31-0.57,0.32-0.71c-0.02-0.11-0.4-0.15-0.51-0.17c-0.38-0.09-0.75-0.29-1.14-0.32
		C246.11,262.33,245.54,262.6,245.22,263.25z M200.74,274.02c-0.35,0.51-0.83,0.73-1.37,0.21c-0.19-0.18-0.18-0.24-0.1-0.44
		c0.18-0.36,0.42-0.52,0.6-0.53C200.12,273.26,200.54,273.72,200.74,274.02z M199.35,272.24c-0.33,0.36-0.61,1.16-0.63,1.91
		c-0.04,0.84,0.41,1.68,1.21,1.7c0.49,0,0.93-0.44,1.2-1.08c0.17,1.03-0.69,2.57-1.88,3.53c-1.41,1.07-2.76,1.2-4.73,1.11
		c-0.32-0.04-0.47,0.28-0.09,0.37c1.77,0.41,4.18,0.47,5.44-0.66c1.04-0.93,1.66-2.37,1.76-4c0.05-1.02-0.27-2.19-1.12-2.93
		C200.04,271.81,199.7,271.84,199.35,272.24z M201.98,265.89c-0.93,0.39-3.52,1.42-4.34,1.77c-0.05,0.02-0.08,0.03-0.1,0.1
		c-0.03,0.1-0.13,0.42-0.18,0.59c-0.02,0.07,0.04,0.07,0.1,0.04c0.11-0.05,0.26-0.13,0.38-0.18c0.64-0.27,3.08-1.27,3.91-1.6
		c0.05-0.02,0.1-0.05,0.12-0.11c0.05-0.12,0.13-0.39,0.17-0.55C202.07,265.89,202.03,265.86,201.98,265.89z M181.23,278.43
		c-0.93,0.39-3.52,1.42-4.34,1.77c-0.05,0.02-0.08,0.03-0.1,0.1c-0.03,0.1-0.13,0.42-0.18,0.59c-0.02,0.07,0.04,0.07,0.1,0.04
		c0.11-0.05,0.26-0.13,0.38-0.18c0.64-0.27,3.08-1.27,3.91-1.6c0.05-0.02,0.1-0.05,0.12-0.11c0.05-0.12,0.13-0.39,0.17-0.55
		C181.32,278.43,181.29,278.4,181.23,278.43z M166.07,272.19c-0.17,0.28-0.4,0.69-0.53,0.94c-0.05,0.1-0.05,0.17,0.06,0.24
		c0.22,0.12,0.61,0.33,0.89,0.48c0.12,0.06,0.18,0.05,0.24-0.03c0.15-0.25,0.38-0.63,0.52-0.88c0.05-0.09,0.07-0.16-0.02-0.21
		c-0.26-0.16-0.69-0.42-0.95-0.57C166.17,272.09,166.12,272.11,166.07,272.19z M191.13,267.32c-0.09,0.18-0.24,0.57-0.24,0.68
		c0,0.06,0.17,0.25,0.36,0.52c0.61,0.86,0.93,1.8,0.75,3.07c-0.02,0.11-0.05,0.21,0.01,0.21c0.28-0.01,0.44-0.97,0.43-1.48
		c-0.02-1.23-0.52-2.21-1.14-2.98C191.24,267.25,191.18,267.22,191.13,267.32z M193.68,265.72c-0.42,0.82-0.41,1.12,0.07,1.77
		c0.49,2.8,1.2,4.75,1.61,7.78c-1.14,1.16-4.48,1.54-4.62,0.53c0.46-0.02,0.98-0.93,1.09-1.83c0.07-1.05-1.01-1.78-2.52-1.66
		c-6.37,0.69-15.92,1.52-15.6,0.14c0.08-0.56,3.23-2.78,4.76-3.14c0.63-0.84,0.66-1.25,0.28-1.2c-0.55,0.02-3.53,1.62-4.66,2.98
		c-1.27,1.57-1.57,2.74-0.39,3.01c5.88,0.93,12.98-0.75,15.92-0.62c0.51,0.05,1.22,0.45,1.43,0.98c-6.72,0.5-15.99,2.87-20.73,0.84
		c-0.21-0.59-0.34-0.88-0.53-1.39c-0.29-0.68-0.57,0.04-0.45,1.25c0.49,0.87,0.9,2.22,0.76,3.32c-1.42,2.81-7.63,2.87-5.85-1.65
		c0.28-0.67-0.14-0.74-0.41-0.11c-0.43,0.92-0.66,2.52-0.39,3.28c0.97,2.49,5.53,2.25,6.92-0.69c0.3-0.72,0.37-1.39,0.33-2.39
		c7.63,1.25,15.31-1.08,19.76-1.16c-0.88,2.95,3.78,1.87,5.04,0.62c0.21-0.24,0.28-0.48,0.27-1.91c-0.04-1.48-1.2-5.51-1.31-6.85
		c1.03-1-0.06-0.92-0.32-1.9C193.98,265.25,193.86,265.4,193.68,265.72z M196.25,262.8c-0.93,0.39-3.52,1.42-4.34,1.77
		c-0.05,0.02-0.08,0.03-0.1,0.1c-0.03,0.1-0.13,0.42-0.18,0.59c-0.02,0.07,0.04,0.07,0.1,0.05c0.11-0.05,0.26-0.13,0.38-0.18
		c0.64-0.27,3.08-1.27,3.91-1.6c0.05-0.02,0.1-0.05,0.12-0.11c0.05-0.12,0.13-0.39,0.17-0.55
		C196.34,262.79,196.3,262.77,196.25,262.8z M160.12,276.16c-0.54,0.07-1.18,0.18-1.46,0.2c0.45-0.54,0.6-0.82,0.83-1.37
		C159.7,275.37,159.87,275.63,160.12,276.16z M159.81,264.75c-0.39,0.55-0.44,0.76-0.36,1.03c0.1,0.33,0.15,0.5,0.33,0.78
		c0.33,2.61,0.6,5.22-0.27,7.25c-0.42-0.69-0.83-1.39-1.35-2.04c-2.05-2.53-3.92-3.86-5.34-4.59c-0.37-0.18,0,1.46,0.18,2.16
		c0.65,0.42,1.3,0.88,1.82,0.87c0.13-0.01,0.19-0.14,0.19-0.37c1.98,1.55,3.17,3.04,4.25,4.68c-0.39,0.75-0.62,1.12-1.26,1.96
		c-0.38,0.05-0.48,0.07-0.95,0.14c-0.09,0.01-0.13,0.84-0.14,1.08c0,0.1,0.02,0.17,0.18,0.17c0.76-0.07,2.9-0.3,3.42-0.43
		c0.57-1.47-0.32-2.2-0.65-3.13c1.16-2.68,0.83-5.39,0.68-7.44c0.37-0.27,0.68-0.73,0.33-1.13c-0.18-0.22-0.42-0.3-0.65-1.13
		c-0.04-0.12-0.09-0.16-0.13-0.16C159.96,264.46,159.86,264.68,159.81,264.75z M160.82,261.53l-0.23,0.43
		c-0.03,0.05-0.05,0.08-0.03,0.13c0.07,0.17,0.12,0.37,0.12,0.48c-0.27,0.26-0.56,0.3-0.77,0.13c-0.14-0.11-0.18-0.32-0.17-0.59
		c0.01-0.2,0.03-0.27-0.14-0.13c-0.23,0.18-0.16,0.16-0.18,0.27c-0.08,0.64-0.36,0.93-0.85,0.97c-0.31,0.02-0.54-0.2-0.32-0.82
		c0.05-0.13-0.05-0.27-0.18,0c-0.47,0.93-0.18,1.45,0.29,1.52c0.39,0.06,0.85-0.16,1.09-0.75c0.18,0.3,0.55,0.38,0.88,0.3
		c0.42-0.11,0.51-0.3,0.63-0.65c0.12-0.33,0.12-0.77-0.04-1.29C160.89,261.44,160.84,261.48,160.82,261.53z M161.5,258.99
		c-0.93,0.39-4.1,1.56-4.92,1.91c-0.05,0.02-0.08,0.03-0.1,0.1c-0.03,0.1-0.13,0.42-0.18,0.59c-0.02,0.07,0.04,0.07,0.1,0.04
		c0.11-0.04,0.26-0.13,0.38-0.18c0.64-0.27,3.66-1.41,4.49-1.73c0.05-0.03,0.1-0.05,0.12-0.11c0.05-0.12,0.13-0.39,0.17-0.55
		C161.6,258.98,161.56,258.96,161.5,258.99z M150.98,278.44c-0.16,0.24-0.35,0.59-0.54,0.88c-0.27-0.18-0.62-0.39-0.86-0.55
		c-0.13-0.08-0.18-0.07-0.26,0.05c-0.14,0.21-0.35,0.54-0.5,0.8c-0.05,0.1-0.04,0.18,0.1,0.26c0.26,0.15,0.66,0.38,0.9,0.51
		c0.08,0.04,0.14,0.01,0.2-0.07c0.13-0.18,0.28-0.45,0.49-0.79c0.36,0.21,0.65,0.4,0.94,0.54c0.08,0.04,0.12,0.03,0.18-0.04
		c0.14-0.18,0.4-0.58,0.5-0.78c0.07-0.14,0.05-0.19-0.07-0.27c-0.19-0.12-0.65-0.41-0.88-0.56
		C151.08,278.35,151.03,278.36,150.98,278.44z M110.98,272.2c-0.17,0.28-0.4,0.69-0.53,0.94c-0.05,0.1-0.05,0.17,0.06,0.24
		c0.22,0.12,0.61,0.33,0.89,0.48c0.12,0.06,0.19,0.05,0.24-0.03c0.15-0.25,0.38-0.64,0.52-0.88c0.05-0.09,0.07-0.16-0.02-0.21
		c-0.26-0.16-0.69-0.42-0.95-0.57C111.07,272.1,111.03,272.12,110.98,272.2z M123.41,273.42c-0.35,0.51-0.83,0.73-1.37,0.22
		c-0.19-0.18-0.18-0.24-0.1-0.44c0.18-0.36,0.43-0.52,0.6-0.53C122.79,272.66,123.21,273.12,123.41,273.42z M122.02,271.64
		c-0.33,0.36-0.61,1.16-0.63,1.91c-0.04,0.84,0.41,1.68,1.21,1.7c0.49,0.01,0.94-0.44,1.2-1.08c0.17,1.03-0.69,2.57-1.89,3.53
		c-1.41,1.07-2.75,1.2-4.73,1.11c-0.32-0.04-0.47,0.28-0.09,0.37c1.77,0.41,4.18,0.47,5.44-0.66c1.04-0.93,1.66-2.37,1.76-4
		c0.05-1.02-0.27-2.19-1.12-2.93C122.71,271.2,122.37,271.24,122.02,271.64z M118.05,271.33c-0.06,0.29-0.13,0.61-0.18,0.9
		c-0.02,0.11-0.05,0.22,0.03,0.34c0.28,0.38,0.88,0.85,1.13,1.74c-1.98,2.51-9.02,3.93-13.47,2.41c-1.32-0.45-2.08-0.77-3.36-1.63
		c-0.33-0.22-0.41-0.06-0.2,0.21c0.85,1.08,1.4,1.65,2.46,2.25c3.9,2.19,12.29,1.03,14.46-1.93c0.47-0.64,0.64-1.32,0.63-1.98
		c-0.01-0.99-0.65-1.78-1.26-2.36C118.17,271.15,118.08,271.17,118.05,271.33z M149.08,272.19c0.6,0.62,1.4,2.18,1.58,3.02
		c-0.32,0.44-1.5,0.31-2.13-0.21c0.03-0.14,0.06-0.36,0.06-0.53c0-0.28-0.24-0.32-0.35,0.01c-0.5,1.48-0.41,2.08-1.93,1.18
		c0.2-0.38,0.21-0.36,0.49-0.91c0.27-0.64-0.17-0.5-0.32-0.18c-0.9,1.54-2.51,1.74-3.36,1.67c0.54-0.87,0.56-0.93,0.78-1.68
		c0.12-0.56-0.25-0.4-0.33-0.08c-0.67,1.94-4.64,2.34-6.54,1.15c2.7-1.71-1.37-3.86-3.3-1.85c-0.4,0.44-0.57,1.38-0.21,1.08
		c0.48-0.43,1.54,0.08,1.89,0.5c-2.78,1.2-5.64,0.76-6-0.68c-0.14-0.48-0.32-0.08-0.37,0.11c-0.06,0.4-0.22,1.35,0.7,2.07
		c-1.55,3.23-3.6,4.14-6.73,2.91c-0.57-0.28-0.75,0.15-0.23,0.41c3.42,1.96,6.42,1.02,7.49-3.08c2.82,0.56,4.64-0.15,5.77-0.81
		c1.8,1.98,4.99,1.02,6.07,0.71c1.26,0.73,3.19-0.08,3.7-0.62c-0.02,0.61,0.93,0.87,1.38,0.87c0.38-0.01,0.67-0.56,1.04-1.35
		c0.53,0.73,1.9,1.15,2.4,0.48c0.84-1.11,0.58-3.18-1.28-5.54C148.96,270.28,148.78,271.91,149.08,272.19z M144.88,269.96
		c-0.15,0.24-0.35,0.59-0.54,0.88c-0.27-0.18-0.62-0.39-0.86-0.55c-0.13-0.08-0.18-0.07-0.26,0.05c-0.14,0.21-0.35,0.54-0.5,0.8
		c-0.05,0.09-0.04,0.18,0.1,0.26c0.26,0.15,0.66,0.38,0.9,0.51c0.08,0.04,0.14,0.01,0.2-0.07c0.13-0.18,0.28-0.45,0.49-0.79
		c0.36,0.21,0.65,0.4,0.94,0.54c0.08,0.04,0.12,0.03,0.18-0.04c0.14-0.18,0.4-0.58,0.5-0.78c0.07-0.14,0.05-0.19-0.07-0.27
		c-0.19-0.12-0.65-0.41-0.88-0.56C144.98,269.87,144.93,269.89,144.88,269.96z M113.9,268.03c-0.93,0.39-5.12,1.74-5.93,2.09
		c-0.05,0.02-0.08,0.03-0.1,0.1c-0.03,0.1-0.18,0.48-0.22,0.65c-0.02,0.07,0.04,0.07,0.1,0.04c0.11-0.05,0.3-0.15,0.43-0.2
		c0.68-0.24,4.63-1.57,5.46-1.89c0.05-0.02,0.1-0.05,0.12-0.11c0.05-0.12,0.17-0.45,0.22-0.61
		C113.99,268.03,113.96,268,113.9,268.03z M143.53,267.92c-0.17,0.28-0.4,0.69-0.53,0.95c-0.05,0.1-0.05,0.17,0.06,0.23
		c0.22,0.12,0.61,0.33,0.89,0.48c0.12,0.06,0.19,0.05,0.24-0.03c0.15-0.25,0.38-0.64,0.52-0.88c0.05-0.09,0.07-0.16-0.02-0.21
		c-0.26-0.16-0.69-0.42-0.95-0.57C143.62,267.82,143.58,267.84,143.53,267.92z M129.7,266.7c0.1,0.12,0.26,0.37,0.29,0.8
		c0,0.12-0.02,0.3-0.03,0.31c-0.01,0.01-0.24-0.09-0.28-0.11c-0.08-0.04-0.31-0.13-0.71-0.28c-0.16-0.03,0-0.28,0-0.28
		c0.06-0.11,0.16-0.25,0.27-0.37l0.15-0.1C129.49,266.64,129.64,266.61,129.7,266.7z M129.62,265.95c-0.46,0.08-1,0.72-1.23,1.45
		c-0.1,0.33-0.04,0.52,0.14,0.63c0.26,0.16,0.64,0.29,1.09,0.41c-0.52,0.87-2.2,2-2.51,2.18c-0.36,0.21-0.3,0.44,0.15,0.24
		c1.69-0.76,2.52-1.57,2.9-2.29c0.12,0.02,0.22,0.06,0.34,0.09c0.2,0.06,0.16,0.08,0.27-0.24c0.05-0.15,0.09-0.26,0.1-0.33
		l-0.51-0.17l0.05-0.18c0.06-0.58-0.09-1.06-0.14-1.21C130.12,266.07,129.89,265.9,129.62,265.95z M135.8,266.22
		c0.1,0.12,0.26,0.37,0.29,0.8c0,0.13-0.02,0.3-0.03,0.31c-0.01,0.01-0.24-0.09-0.28-0.11c-0.08-0.04-0.31-0.13-0.71-0.28
		c-0.16-0.03,0-0.28,0-0.28c0.06-0.11,0.16-0.25,0.27-0.37l0.15-0.1C135.58,266.15,135.73,266.12,135.8,266.22z M135.71,265.46
		c-0.46,0.08-1,0.72-1.23,1.45c-0.1,0.33-0.04,0.52,0.14,0.63c0.26,0.16,0.64,0.29,1.09,0.41c-0.52,0.87-2.2,2-2.51,2.18
		c-0.36,0.21-0.3,0.44,0.16,0.24c1.69-0.76,2.52-1.57,2.9-2.29c0.12,0.02,0.22,0.06,0.34,0.09c0.2,0.05,0.16,0.08,0.26-0.24
		c0.05-0.15,0.09-0.26,0.1-0.33l-0.51-0.17l0.05-0.18c0.06-0.58-0.09-1.06-0.14-1.21C136.21,265.58,135.99,265.42,135.71,265.46z
		 M141.73,265.38c-0.03,0.08-0.09,0.2-0.12,0.28c-0.04,0.14,0.04,0.24,0.11,0.13c0.09-0.13,0.19-0.25,0.32-0.33
		c0.31-0.19,0.65-0.26,0.99-0.23c0.31,0.03,0.89,0.25,0.89,0.28c0,0.07-1.35,0.73-1.56,0.87c-0.09,0.06-0.2,0.16-0.18,0.27
		c0.02,0.08,0.15,0.1,0.25,0.06c0.53-0.19,0.72-0.18,1.15-0.36c0.58-0.25,0.75-0.55,0.85-0.59c0.04-0.01,0.09-0.01,0.14-0.05
		c0.17-0.16,0.31-0.57,0.32-0.71c-0.02-0.11-0.41-0.15-0.52-0.17c-0.38-0.09-0.75-0.29-1.14-0.32
		C142.62,264.46,142.05,264.73,141.73,265.38z M150.41,264.47c-0.93,0.39-3.52,1.42-4.34,1.77c-0.05,0.02-0.08,0.03-0.1,0.1
		c-0.03,0.1-0.13,0.42-0.18,0.59c-0.02,0.07,0.04,0.07,0.1,0.05c0.11-0.05,0.26-0.13,0.39-0.18c0.64-0.27,3.08-1.27,3.91-1.6
		c0.05-0.02,0.1-0.05,0.12-0.11c0.05-0.12,0.13-0.39,0.17-0.55C150.5,264.47,150.46,264.45,150.41,264.47z"/>
</g>
</svg>
