<?xml version="1.0" encoding="iso-8859-1"?>
<!-- Generator: Adobe Illustrator 25.2.1, SVG Export Plug-In . SVG Version: 6.00 Build 0)  -->
<svg version="1.1" xmlns="http://www.w3.org/2000/svg" xmlns:xlink="http://www.w3.org/1999/xlink" x="0px" y="0px"
	 viewBox="0 0 293.23 484.99" enable-background="new 0 0 293.23 484.99" xml:space="preserve">
<g id="Ornaments">
</g>
<g id="Header__x26__Marks__x26__Page_No.">
</g>
<g id="Aya_No.">
</g>
<g id="Quran_Text">
	<path fill-rule="evenodd" clip-rule="evenodd" d="M82.8,275.03c-0.35,0.51-0.83,0.73-1.37,0.22c-0.19-0.18-0.18-0.24-0.1-0.44
		c0.18-0.36,0.43-0.52,0.6-0.53C82.17,274.27,82.59,274.73,82.8,275.03z M81.4,273.25c-0.33,0.36-0.61,1.16-0.63,1.91
		c-0.04,0.84,0.41,1.68,1.21,1.7c0.49,0.01,0.93-0.44,1.2-1.08c0.17,1.03-0.69,2.57-1.88,3.53c-1.41,1.07-2.75,1.2-4.73,1.11
		c-0.32-0.04-0.47,0.28-0.09,0.37c1.77,0.41,4.18,0.47,5.44-0.66c1.04-0.93,1.66-2.37,1.76-4c0.05-1.02-0.27-2.19-1.12-2.93
		C82.1,272.81,81.76,272.85,81.4,273.25z M84.48,267.83c-0.93,0.39-3.52,1.42-4.34,1.77c-0.05,0.02-0.08,0.03-0.1,0.1
		c-0.03,0.1-0.13,0.42-0.18,0.59c-0.02,0.07,0.04,0.07,0.1,0.04c0.11-0.05,0.26-0.13,0.38-0.18c0.64-0.27,3.08-1.27,3.91-1.6
		c0.05-0.02,0.1-0.05,0.12-0.11c0.05-0.12,0.13-0.39,0.17-0.55C84.57,267.83,84.54,267.81,84.48,267.83z M78.84,277.28
		c-0.94,0.35-1.99,0.7-2.82,1.02c-0.05,0.02-0.08,0.03-0.11,0.1c-0.04,0.1-0.15,0.41-0.2,0.58c-0.02,0.07,0.04,0.07,0.1,0.05
		c0.11-0.04,0.26-0.12,0.39-0.17c0.65-0.24,1.55-0.56,2.38-0.86c0.05-0.02,0.1-0.04,0.13-0.1c0.05-0.11,0.15-0.38,0.2-0.54
		C78.94,277.28,78.9,277.26,78.84,277.28z M75.67,275.66c-0.09,0.19-0.05,0.39,0.13,0.53c0.14,0.1,0.41,0.28,0.67,0.41
		c-0.11,0.05-0.37,0.15-0.52,0.26c-0.04,0.12-0.09,0.31-0.11,0.44c-0.01,0.04,0.03,0.08,0.07,0.06c0.46-0.27,1.84-0.62,2.44-0.76
		c0.04-0.01,0.23-0.44,0.26-0.51c0.04-0.08,0-0.11-0.06-0.09c-0.34,0.09-0.67,0.15-1.09,0.14c-0.52-0.01-1.31-0.57-1.31-0.68
		c0.01-0.11,0.62-0.37,0.76-0.36c0.4,0.04,0.46,0.44,0.57,0.44c0.13,0,0.33-0.48,0.33-0.6c0-0.14-0.33-0.5-0.59-0.5
		C76.79,274.44,75.9,275.19,75.67,275.66z M71.37,272.25c-0.04,0.24-0.12,0.97,0,0.98c0.08,0.01,0.42-0.15,0.73,0.01
		c0.71,0.36,1.42,1.65,1.69,2.7c-0.56,0.33-1.94,0.53-2.63,0.54c-0.21,0-0.61-0.04-0.72-0.23c-0.12-0.22-0.19-0.17-0.24,0.04
		c-0.06,0.27-0.11,0.62-0.12,0.85c-0.01,0.36,0.45,0.52,0.73,0.53c0.9,0.01,2.2-0.16,3-0.59c0.21-0.11,0.29-0.49,0.31-0.92
		c0.05-1.01-0.12-1.9-0.65-2.75c-0.46-0.75-1.1-1.42-1.75-1.44C71.55,271.97,71.41,272.04,71.37,272.25z M71.23,268.17
		c-0.17,0.28-0.4,0.69-0.53,0.94c-0.05,0.1-0.05,0.17,0.06,0.24c0.22,0.12,0.61,0.33,0.89,0.48c0.11,0.06,0.18,0.05,0.24-0.03
		c0.15-0.25,0.38-0.64,0.52-0.88c0.05-0.09,0.07-0.16-0.02-0.21c-0.26-0.16-0.69-0.42-0.95-0.57
		C71.33,268.07,71.28,268.09,71.23,268.17z M66.46,264.93c-0.04,0.01-0.08,0.07-0.1,0.16l-0.19,0.99c-0.06,0.28-0.04,0.31,0,0.55
		c0.11,0.66,0.26,1.31,0.39,1.95c0.32,1.55,0.77,3.92,1.04,5.35c0.2,1.07,0.34,2.16,0.38,3.12c0.01,0.18,0.11,0.17,0.16,0.03
		c0.17-0.53,0.24-1.09,0.24-1.68c0-0.58-0.19-1.75-0.38-2.68c-0.26-1.29-0.67-3.53-0.91-4.7c-0.21-0.99-0.41-1.99-0.53-2.95
		C66.55,264.96,66.5,264.92,66.46,264.93z M73.25,263.75c-0.93,0.39-3.52,1.42-4.34,1.77c-0.05,0.02-0.08,0.03-0.1,0.1
		c-0.03,0.1-0.13,0.42-0.18,0.59c-0.02,0.07,0.04,0.07,0.1,0.04c0.11-0.05,0.26-0.13,0.39-0.18c0.64-0.27,3.08-1.27,3.91-1.6
		c0.05-0.03,0.1-0.05,0.12-0.11c0.05-0.11,0.13-0.39,0.17-0.55C73.35,263.75,73.31,263.73,73.25,263.75z M75.19,263.21
		c-0.05,0.34-0.11,0.68-0.16,1.01c-0.04,0.29-0.02,0.32,0.02,0.56c0.12,0.67,0.27,1.33,0.4,1.98c0.16,0.78,0.31,1.53,0.48,2.35
		c0.28,1.41,0.62,3.21,0.78,4.65c0.02,0.16,0.13,0.14,0.16,0c0.29-1.41,0.03-2.85-0.32-4.58c-0.23-1.13-0.43-2.08-0.62-3.01
		c-0.22-1.01-0.43-2.02-0.56-2.99c-0.02-0.11-0.06-0.15-0.1-0.14C75.23,263.06,75.2,263.12,75.19,263.21z M56.83,278.85
		c-0.16,0.24-0.35,0.59-0.54,0.88c-0.27-0.18-0.62-0.39-0.86-0.55c-0.13-0.09-0.18-0.08-0.26,0.05c-0.14,0.21-0.35,0.54-0.5,0.8
		c-0.05,0.09-0.04,0.18,0.1,0.26c0.26,0.15,0.66,0.38,0.9,0.51c0.08,0.04,0.14,0.01,0.2-0.07c0.13-0.18,0.28-0.45,0.49-0.79
		c0.36,0.21,0.65,0.4,0.94,0.54c0.08,0.04,0.12,0.03,0.18-0.04c0.14-0.18,0.39-0.58,0.5-0.78c0.07-0.14,0.05-0.19-0.07-0.27
		c-0.19-0.12-0.65-0.41-0.88-0.56C56.93,278.77,56.88,278.78,56.83,278.85z M65.91,278.07c-0.93,0.39-4.1,1.56-4.92,1.91
		c-0.05,0.02-0.08,0.03-0.1,0.1c-0.03,0.1-0.13,0.42-0.18,0.59c-0.02,0.07,0.04,0.07,0.1,0.04c0.11-0.04,0.26-0.13,0.38-0.18
		c0.64-0.27,3.66-1.4,4.49-1.73c0.05-0.03,0.1-0.05,0.12-0.11c0.05-0.12,0.13-0.39,0.17-0.55C66,278.07,65.96,278.04,65.91,278.07z
		 M63.69,272.73c-0.35,0.36-0.66,0.96-1.66,0c0.21-0.6,0.43-0.81,0.65-0.82C63.06,271.89,63.43,272.45,63.69,272.73z M50.11,269.05
		c0.38,3.12,1.07,5.94,1.32,9.25c-0.35,1.97-4.31,3.08-5.38,0.93c-0.53-1.26-0.08-1.79,0.14-2.86c0.06-0.57-0.2-0.34-0.32-0.07
		c-0.33,0.75-1.13,3.6,0.33,4.8c0.68,0.61,4.29,1.14,5.43-1.72c0.26-0.79,0.34-2.08,0.15-3.39c0.7,1.41,2.75,2.39,4.66,0.38
		c0.29-0.34,0.38-0.34,0.61-0.06c1.66,2.02,6.75,0.89,7.67-1.08c0.3-0.58,0.52-2.62-1.33-4.38c-0.28-0.25-0.78-0.55-1.23,0.19
		c-0.64,1.02-0.75,2.32-0.44,2.75c0.74,0.97,1.97,1.02,2.3-0.38c0.28,0.47,0.31,0.56,0.46,1.09c-0.7,1.29-4.95,2.57-7.21,0.75
		c-0.37-0.32-0.59-0.34-1,0.09c-0.47,0.54-2.5,1.95-4.1-0.35c-0.59-0.78-1.6-5.83-1.66-7.23c-0.03-0.19-0.06-0.26-0.1-0.26
		C50.25,267.51,50.03,268.7,50.11,269.05z M62.86,267.23c-0.16,0.24-0.35,0.59-0.54,0.88c-0.27-0.18-0.62-0.39-0.86-0.55
		c-0.13-0.08-0.18-0.07-0.26,0.05c-0.14,0.21-0.35,0.54-0.5,0.8c-0.05,0.1-0.04,0.18,0.1,0.26c0.26,0.15,0.66,0.38,0.9,0.51
		c0.08,0.04,0.14,0.01,0.2-0.07c0.13-0.18,0.28-0.45,0.49-0.79c0.36,0.21,0.65,0.4,0.94,0.54c0.08,0.04,0.12,0.03,0.18-0.04
		c0.14-0.18,0.4-0.58,0.5-0.78c0.07-0.14,0.05-0.19-0.07-0.27c-0.19-0.12-0.65-0.41-0.88-0.56
		C62.96,267.15,62.91,267.16,62.86,267.23z M51.97,263.96c-0.93,0.39-3.52,1.42-4.34,1.77c-0.05,0.02-0.08,0.03-0.1,0.1
		c-0.03,0.1-0.13,0.42-0.18,0.59c-0.02,0.07,0.04,0.07,0.1,0.04c0.11-0.05,0.26-0.13,0.38-0.18c0.64-0.27,3.08-1.27,3.91-1.6
		c0.05-0.02,0.1-0.05,0.12-0.11c0.05-0.12,0.13-0.39,0.17-0.55C52.07,263.95,52.03,263.93,51.97,263.96z M28.78,268.87
		c-0.03,0.08-0.09,0.2-0.12,0.28c-0.04,0.14,0.04,0.24,0.11,0.13c0.08-0.13,0.19-0.25,0.32-0.33c0.31-0.19,0.65-0.26,0.99-0.23
		c0.31,0.03,0.89,0.25,0.89,0.28c0,0.07-1.35,0.73-1.56,0.87c-0.09,0.06-0.2,0.16-0.18,0.27c0.02,0.08,0.15,0.1,0.25,0.06
		c0.53-0.19,0.72-0.18,1.15-0.36c0.58-0.25,0.75-0.55,0.85-0.58c0.04-0.01,0.09-0.01,0.14-0.05c0.17-0.16,0.31-0.57,0.32-0.71
		c-0.02-0.11-0.4-0.15-0.52-0.17c-0.38-0.09-0.75-0.29-1.14-0.32C29.67,267.95,29.1,268.23,28.78,268.87z M37.84,266.94
		c0.1,0.12,0.26,0.37,0.28,0.8c0,0.12-0.02,0.3-0.03,0.31c-0.01,0.01-0.24-0.09-0.28-0.11c-0.08-0.04-0.31-0.13-0.71-0.28
		c-0.16-0.03,0-0.28,0-0.28c0.06-0.11,0.16-0.25,0.27-0.37l0.15-0.1C37.63,266.88,37.78,266.85,37.84,266.94z M37.75,266.19
		c-0.46,0.08-1,0.72-1.23,1.45c-0.1,0.33-0.04,0.52,0.14,0.63c0.26,0.16,0.64,0.29,1.09,0.41c-0.52,0.87-2.2,2-2.51,2.18
		c-0.36,0.21-0.3,0.44,0.16,0.24c1.69-0.76,2.52-1.57,2.9-2.29c0.12,0.02,0.22,0.06,0.34,0.09c0.2,0.05,0.16,0.08,0.26-0.24
		c0.05-0.15,0.09-0.26,0.1-0.33l-0.51-0.17l0.05-0.18c0.06-0.58-0.09-1.06-0.14-1.21C38.26,266.31,38.03,266.14,37.75,266.19z
		 M40.4,278.42c0.02,0.36-0.84,1.84-2.68-0.58c0.24-0.02,0.46-0.02,0.66-0.02C39.78,277.82,40.25,278.25,40.4,278.42z M30.9,275.89
		c-1.27-0.34-1.32-0.4-1.79-0.71c-0.17-0.12,0.09-0.62,0.68-0.98c0.04-0.03,0.09-0.04,0.12-0.04
		C30.29,274.15,30.4,275.13,30.9,275.89z M39.59,273.48c-0.27,0.63-0.98,1.36-1.97,1.88c0.47-1.83,0.91-2.55,1.32-2.53
		C39.17,272.84,39.38,273.08,39.59,273.48z M42.46,265.28c-0.55,1.1-0.49,1.18,0,2.01c0.33,2.49,0.98,4.74,1.33,7.09
		c-0.53,1.17-3.87,1.68-5.85,1.94c2.63-1.7,2.11-3.92,1.81-4.37c-0.76-1-1.3-0.01-1.34,0.06c-0.65,1.21-0.9,2.32-1.24,3.57
		c-3.31,1.18-5.46,0.24-6.49-1.47c-0.79-1.5-1.71-0.08-1.99,0.41c-0.21,0.44-0.38,1.15,0.31,1.88c-0.6,1.09-2.8,2.35-4.29,3.12
		c-0.27,0.15-0.06,0.27,0.27,0.19c1.55-0.39,4.14-1.31,4.43-3.08c0.6,0.35,1.9,0.63,2.27,0.68c0.24,0.04,0.2-0.17,0.25-0.56
		c1.53,0.77,3.27,0.54,4.21,0.36c0.03,0.67,0.03,0.67,1.05,0.79c0.53,2.08,2.15,2.66,2.66,2.48c1.19-0.46,1.17-2.56,0.61-3.28
		c1.13-0.28,2.56-0.67,3.25-1.32c1.32-1.31-0.29-5.83-0.56-8.14c1.07-0.99,0.3-0.81-0.4-2.26
		C42.65,265.21,42.52,265.16,42.46,265.28z M44.9,262.51c-0.93,0.39-3.52,1.42-4.34,1.77c-0.05,0.02-0.08,0.03-0.1,0.1
		c-0.03,0.1-0.13,0.42-0.18,0.59c-0.02,0.07,0.04,0.07,0.1,0.04c0.11-0.05,0.26-0.13,0.38-0.18c0.64-0.27,3.08-1.27,3.91-1.6
		c0.05-0.02,0.1-0.05,0.12-0.11c0.05-0.11,0.13-0.39,0.17-0.55C45,262.51,44.96,262.49,44.9,262.51z M260.8,305.54
		c-0.93,0.39-4.1,1.56-4.92,1.91c-0.05,0.02-0.08,0.03-0.1,0.1c-0.03,0.1-0.13,0.42-0.18,0.59c-0.02,0.07,0.04,0.07,0.1,0.04
		c0.11-0.05,0.26-0.13,0.38-0.18c0.64-0.27,3.66-1.4,4.49-1.73c0.05-0.02,0.1-0.05,0.12-0.11c0.05-0.12,0.13-0.39,0.17-0.55
		C260.9,305.54,260.86,305.51,260.8,305.54z M264.89,302.6c-0.14,0.26-0.09,0.64,0.16,0.81c0.21,0.15,0.56,0.3,0.95,0.5
		c-0.17,0.08-0.63,0.4-0.79,0.57c-0.07,0.18-0.15,0.49-0.19,0.67c-0.02,0.06,0.04,0.14,0.11,0.08c0.41-0.3,1.03-0.69,1.69-1
		c0.61-0.28,1.08-0.46,1.54-0.53c0.07-0.02,0.38-0.7,0.43-0.8c0.06-0.13,0-0.16-0.09-0.14c-0.52,0.15-0.92,0.28-1.56,0.28
		c-0.79,0-1.46-0.54-1.46-0.78c0-0.18,0.53-0.59,0.74-0.57c0.61,0.04,0.65,0.57,0.81,0.56c0.2-0.01,0.53-0.74,0.53-0.93
		c0.01-0.21-0.45-0.67-0.85-0.65C266.25,300.69,265.26,301.89,264.89,302.6z M248.41,302.45c0.28,0.21,0.51,0.67,0.71,1.14
		c-0.62,0.04-1.18-0.06-1.54-0.36c-0.13-0.12-0.14-0.17-0.08-0.31c0.09-0.2,0.27-0.41,0.46-0.51c0.05-0.03,0.1-0.04,0.14-0.05
		C248.23,302.33,248.32,302.38,248.41,302.45z M257.77,300.91c0.43,0.1,0.7,0.71,0.82,1.31c-0.75-0.14-1.34-0.38-1.78-0.63
		c0.3-0.43,0.59-0.68,0.84-0.69C257.68,300.9,257.73,300.9,257.77,300.91z M257.86,299.6c-0.08,0.01-0.15,0.04-0.23,0.09
		c-0.34,0.2-0.63,0.65-0.9,1.11c-0.44,0.74-0.87,1.55-1.12,1.83c-0.59,0.68-0.89,0.52-1.29,0.3l-1.03-0.56
		c-0.28-0.15-0.56-0.11-0.8,0.07c-0.75,0.54-1.59,0.87-2.55,1.04c-0.3-1.19-0.83-2.58-1.63-2.52c-0.86,0.07-1.82,2.17-1.26,3.28
		c0.21,0.41,0.64,0.62,1.14,0.66c0.4,0.03,0.82,0.02,1.25-0.05c-1.77,3.45-4.91,3.82-7.49,3.23c-0.45-0.1-0.72,0.24-0.12,0.43
		c4.38,1.39,6.67,0.84,8.14-3.77c0.77-0.2,1.58-0.57,2.51-1.23c0.31-0.22,0.49-0.12,0.64-0.02l1.04,0.69
		c0.48,0.32,0.96,0.15,1.39-0.38c0.32-0.4,0.53-0.79,0.72-1.19c0.36,0.47,1.08,0.77,2.51,0.96c0.15,0.02,0.3,0.05,0.35-0.14
		c0.08-0.28,0.12-0.47,0.16-0.71c0.04-0.25,0.06-0.34,0.01-0.68c-0.11-0.83-0.34-1.81-0.83-2.23
		C258.3,299.65,258.09,299.55,257.86,299.6z M251.09,297.77c-0.17,0.28-0.4,0.69-0.53,0.94c-0.05,0.1-0.05,0.17,0.06,0.24
		c0.22,0.12,0.61,0.33,0.89,0.48c0.11,0.06,0.18,0.05,0.24-0.03c0.15-0.25,0.38-0.63,0.52-0.88c0.05-0.09,0.07-0.16-0.02-0.21
		c-0.26-0.16-0.69-0.42-0.95-0.57C251.19,297.67,251.14,297.69,251.09,297.77z M268.62,296.21c-0.93,0.39-3.52,1.42-4.34,1.77
		c-0.05,0.02-0.08,0.03-0.1,0.1c-0.03,0.1-0.13,0.42-0.18,0.59c-0.02,0.07,0.04,0.07,0.1,0.04c0.11-0.04,0.26-0.13,0.38-0.18
		c0.64-0.27,3.08-1.27,3.91-1.6c0.05-0.02,0.1-0.05,0.12-0.11c0.05-0.12,0.13-0.39,0.17-0.55
		C268.72,296.21,268.68,296.19,268.62,296.21z M260.73,293.18c-0.04,0.01-0.08,0.07-0.1,0.16l-0.19,0.99
		c-0.06,0.28-0.04,0.31,0,0.55c0.11,0.66,0.27,1.31,0.39,1.95c0.32,1.55,0.71,3.5,0.99,4.93c0.2,1.07,0.34,2.16,0.38,3.12
		c0.01,0.18,0.11,0.17,0.16,0.03c0.17-0.53,0.24-1.09,0.24-1.68c0-0.58-0.19-1.75-0.38-2.68c-0.26-1.29-0.61-3.1-0.85-4.27
		c-0.21-0.99-0.41-1.99-0.53-2.95C260.82,293.2,260.77,293.17,260.73,293.18z M243.02,293.15l-0.2,0.99c-0.05,0.28-0.04,0.31,0,0.55
		c0.11,0.66,0.27,1.31,0.39,1.95c0.32,1.55,0.71,3.5,0.99,4.93c0.2,1.07,0.34,2.16,0.38,3.12c0.01,0.18,0.11,0.17,0.16,0.03
		c0.17-0.53,0.24-1.09,0.24-1.68c0-0.58-0.19-1.75-0.38-2.68c-0.26-1.29-0.61-3.1-0.85-4.27c-0.21-0.99-0.41-1.99-0.53-2.95
		c-0.01-0.11-0.06-0.15-0.1-0.13C243.07,293,243.03,293.06,243.02,293.15z M251.47,293.2c0.11,0.12,0.26,0.37,0.29,0.8
		c0,0.12-0.02,0.3-0.03,0.31c-0.01,0.01-0.24-0.09-0.28-0.11c-0.08-0.04-0.31-0.13-0.71-0.28c-0.16-0.03,0-0.28,0-0.28
		c0.06-0.11,0.16-0.25,0.27-0.36l0.15-0.1C251.26,293.14,251.41,293.1,251.47,293.2z M251.39,292.44c-0.46,0.08-1,0.72-1.22,1.45
		c-0.1,0.33-0.04,0.52,0.14,0.63c0.26,0.16,0.64,0.29,1.09,0.41c-0.52,0.87-2.2,2-2.51,2.18c-0.36,0.21-0.3,0.44,0.16,0.24
		c1.69-0.76,2.52-1.57,2.9-2.29c0.12,0.02,0.22,0.06,0.34,0.09c0.2,0.05,0.16,0.08,0.26-0.24c0.05-0.15,0.09-0.26,0.1-0.33
		l-0.51-0.17l0.05-0.18c0.06-0.58-0.09-1.06-0.14-1.21C251.89,292.56,251.66,292.4,251.39,292.44z M243.57,291.09
		c-0.22,0.41-0.85,0.52-1.3,0.38c-0.27-0.08-0.36-0.32-0.24-0.56c0.25-0.5,0.52-0.67,0.77-0.67
		C243.22,290.24,243.56,290.75,243.57,291.09z M241.86,290.22c-0.71,1.62,0.14,2.21,0.82,2.19c1.09-0.03,1.48-1.1,1.2-2.18
		c-0.18-0.67-0.55-0.92-0.95-0.9C242.53,289.35,242.12,289.63,241.86,290.22z M220.08,293.63c-0.93,0.39-4.68,1.66-5.5,2.01
		c-0.05,0.02-0.08,0.03-0.1,0.1c-0.03,0.1-0.13,0.42-0.18,0.59c-0.02,0.07,0.04,0.07,0.1,0.04c0.11-0.04,0.26-0.13,0.38-0.18
		c0.64-0.27,4.25-1.51,5.07-1.84c0.05-0.02,0.1-0.05,0.12-0.11c0.05-0.11,0.13-0.39,0.17-0.55
		C220.17,293.63,220.13,293.61,220.08,293.63z M218.86,303.91c-0.75,0-2.21-0.44-2.06-0.72c0.33-0.53,0.58-0.73,0.8-0.74
		C218.05,302.44,218.36,303.26,218.86,303.91z M211.32,294.31c0.56,2.47,0.8,7.7,1.18,9.33c0.24,1.28,1.99,3,3.91,0.62
		c0.33,0.53,1,1.14,3.09,1.06c0.38-0.02,0.29-0.23,0.35-0.7c5.25,1.37,13.73-0.51,20.86-1.25c1.92-2.51,0.43-3.55-1.63-3.56
		c-3.74,0.01-13.07,2.12-15.53,0.4c0.83-1.26,2.92-2.72,4.63-3.12c0.44-0.59,0.69-1.27,0.41-1.25c-1.05,0.09-3.87,1.51-5.48,4.2
		c-0.36,0.6-0.61,1.47,0.59,1.75c3.38,0.76,9.75-0.32,14.56-0.73c1.21-0.09,2.14,0.19,2.66,1.11c-5.38,0.45-12.36,2.01-18.66,1.56
		c-1.88-0.21-2.54-0.38-3.88-1.99c-0.47-0.56-1.05-0.03-2.02,1.35c-1.12,1.68-3.26,1.72-3.59-1.79c-0.22-2.71-0.44-5.35-0.99-8.02
		c-0.03-0.13-0.06-0.18-0.11-0.18C211.56,293.13,211.38,293.68,211.32,294.31z M228.48,292.86c-0.93,0.39-5.12,1.74-5.93,2.09
		c-0.05,0.02-0.08,0.03-0.1,0.1c-0.03,0.1-0.18,0.48-0.22,0.65c-0.02,0.07,0.04,0.07,0.1,0.04c0.11-0.05,0.3-0.15,0.43-0.2
		c0.68-0.24,4.63-1.57,5.46-1.89c0.05-0.02,0.1-0.05,0.12-0.11c0.05-0.12,0.17-0.45,0.22-0.61
		C228.58,292.86,228.54,292.84,228.48,292.86z M214.13,290.36c-0.64,0.65-1.83,1.13-2.76,1.11c-0.64-0.02-0.99-0.17-1.31-0.4
		c-0.08-0.06-0.16-0.05-0.22,0.03c-0.22,0.28-0.51,0.92-0.59,1.37c-0.02,0.08-0.03,0.19,0.01,0.21c0.04,0.02,0.1-0.01,0.13-0.07
		c0.08-0.22,0.19-0.6,0.38-0.81c0.03-0.03,0.08-0.01,0.11,0.01c0.4,0.27,1.01,0.42,1.63,0.39c0.87-0.04,2.44-0.57,2.69-1.75
		c0.01-0.06,0.02-0.11,0-0.12C214.19,290.3,214.17,290.32,214.13,290.36z M205.23,303.16c-0.14,0.26-0.09,0.64,0.16,0.81
		c0.21,0.15,0.56,0.3,0.95,0.49c-0.17,0.08-0.63,0.4-0.79,0.57c-0.07,0.18-0.15,0.49-0.19,0.67c-0.02,0.07,0.04,0.14,0.11,0.08
		c0.41-0.3,1.03-0.69,1.69-1c0.61-0.28,1.08-0.46,1.54-0.53c0.07-0.02,0.38-0.7,0.43-0.8c0.06-0.13,0-0.16-0.09-0.14
		c-0.52,0.15-0.92,0.28-1.56,0.28c-0.79,0-1.46-0.55-1.46-0.78c0-0.18,0.53-0.59,0.74-0.57c0.61,0.04,0.65,0.57,0.81,0.56
		c0.2-0.01,0.53-0.74,0.53-0.93c0.01-0.21-0.45-0.66-0.85-0.65C206.59,301.25,205.59,302.45,205.23,303.16z M199.88,302.27
		c-0.86-0.04-1.44-0.22-2-0.6c0.32-0.57,0.65-0.83,0.95-0.84C199.27,300.82,199.66,301.35,199.88,302.27z M198.3,300.02
		c-0.58,0.68-0.76,1.36-1.21,2.03c-0.63,0.85-1.27,0.88-2.09,0.57l-0.72-1.36c-0.21-0.29-0.25,0.37-0.32,1.21
		c0.75,1.1,1.03,2.11,0.97,3.14c-0.77,1.75-3.83,2.85-5.87,1.32c-0.91-0.78-0.68-1.73-0.13-3.12c0.17-0.43-0.11-0.66-0.33-0.19
		c-0.78,1.6-0.73,3.06-0.59,3.45c0.79,2.49,6.33,2.7,7.29-1.16c0.11-0.55,0.08-1.1,0.09-1.87c0.23-0.05,1.21,0.14,2.02-1.49
		c0.37,0.98,1.99,1.05,2.85,1.04c0.58-1,0.16-3.05-0.49-3.77c-0.22-0.23-0.42-0.33-0.61-0.33
		C198.87,299.47,198.6,299.68,198.3,300.02z M190.59,299.07c-0.17,0.28-0.4,0.69-0.53,0.95c-0.05,0.1-0.05,0.17,0.06,0.23
		c0.22,0.12,0.61,0.33,0.89,0.48c0.12,0.06,0.18,0.05,0.24-0.03c0.15-0.25,0.38-0.64,0.52-0.88c0.05-0.09,0.07-0.16-0.02-0.21
		c-0.26-0.16-0.69-0.42-0.95-0.57C190.68,298.97,190.64,298.98,190.59,299.07z M208.25,296.46c-0.93,0.39-3.03,1.23-3.85,1.58
		c-0.05,0.02-0.08,0.03-0.1,0.1c-0.03,0.1-0.13,0.42-0.18,0.59c-0.02,0.07,0.04,0.07,0.1,0.04c0.11-0.05,0.26-0.13,0.38-0.18
		c0.64-0.27,2.6-1.07,3.42-1.4c0.05-0.02,0.1-0.05,0.12-0.11c0.05-0.12,0.13-0.39,0.17-0.55
		C208.34,296.45,208.3,296.43,208.25,296.46z M199.78,294.72c-0.93,0.39-4.1,1.56-4.92,1.91c-0.05,0.02-0.08,0.03-0.1,0.1
		c-0.03,0.1-0.13,0.42-0.18,0.59c-0.02,0.07,0.04,0.07,0.1,0.04c0.11-0.04,0.26-0.13,0.38-0.18c0.64-0.27,3.66-1.41,4.49-1.73
		c0.05-0.02,0.1-0.05,0.12-0.11c0.05-0.12,0.13-0.39,0.17-0.55C199.87,294.72,199.83,294.69,199.78,294.72z M193.31,294.42
		c-0.93,0.39-4.1,1.56-4.92,1.91c-0.05,0.02-0.08,0.03-0.1,0.1c-0.03,0.1-0.13,0.42-0.18,0.59c-0.02,0.07,0.04,0.07,0.1,0.05
		c0.11-0.05,0.26-0.13,0.38-0.18c0.64-0.27,3.66-1.41,4.49-1.73c0.05-0.02,0.1-0.05,0.12-0.11c0.05-0.11,0.13-0.39,0.17-0.55
		C193.41,294.42,193.37,294.39,193.31,294.42z M201.55,293.11l-0.19,0.99c-0.06,0.28-0.04,0.31,0,0.55
		c0.11,0.66,0.27,1.31,0.39,1.95c0.32,1.55,0.85,4.26,1.13,5.69c0.2,1.07,0.34,2.16,0.38,3.12c0.01,0.18,0.11,0.17,0.16,0.03
		c0.17-0.53,0.24-1.09,0.24-1.68c0-0.58-0.19-1.75-0.38-2.68c-0.26-1.29-0.75-3.86-1-5.03c-0.21-0.99-0.41-1.99-0.53-2.95
		c-0.01-0.11-0.06-0.14-0.1-0.13C201.6,292.96,201.56,293.02,201.55,293.11z M168.54,299.52l-0.25,0.76c-0.07,0.24-0.05,0.27,0,0.49
		c0.09,0.4,0.16,0.77,0.2,1.18c0.02,0.16-0.01,0.15-0.15,0.16c-0.44,0.01-1.18-0.15-1.63-0.46c0.11-0.33,0.2-0.72,0.29-1.14
		c0.08-0.25-0.19-0.39-0.28-0.09c-0.22,0.81-0.53,1.59-1.31,1.89c-0.13,0.05-1.27,0.62-1.69-0.24c-0.19-0.39-0.39-0.82-0.58-1.17
		c-0.11-0.21-0.22-0.19-0.26,0.03l-0.13,0.9c-0.04,0.22-0.04,0.19,0.07,0.39c0.66,1.24,0.84,2.36,0.84,3.04
		c-0.96,1.41-2.59,1.96-3.89,1.78c-2.83-0.39-2.46-2.71-1.82-4.24c0.12-0.23-0.12-0.41-0.28-0.13c-1.36,2.36-1.24,5.25,1.87,5.64
		c1.59,0.19,3.37-0.58,4.07-1.77c0.48-0.8,0.62-1.74,0.51-2.69c1.05,0.02,1.78-0.55,2.14-1.2c0.33,0.53,0.97,0.78,1.82,0.77
		c0.34-0.02,0.48-0.03,0.65-0.44c0.49-1.22,0.3-2.62,0.08-3.46c-0.04-0.13-0.06-0.17-0.1-0.16
		C168.63,299.37,168.57,299.42,168.54,299.52z M175.78,298.36c-0.17,0.28-0.4,0.69-0.53,0.94c-0.05,0.1-0.05,0.17,0.06,0.23
		c0.22,0.12,0.61,0.33,0.89,0.48c0.11,0.06,0.18,0.05,0.24-0.03c0.15-0.25,0.38-0.64,0.52-0.88c0.05-0.09,0.07-0.16-0.02-0.21
		c-0.26-0.16-0.69-0.42-0.95-0.57C175.88,298.26,175.83,298.28,175.78,298.36z M177.14,294.43l-0.23,0.43
		c-0.03,0.05-0.05,0.08-0.03,0.13c0.07,0.17,0.12,0.37,0.12,0.48c-0.27,0.26-0.56,0.3-0.77,0.13c-0.14-0.11-0.19-0.32-0.17-0.59
		c0.01-0.2,0.03-0.27-0.14-0.13c-0.22,0.18-0.16,0.17-0.18,0.27c-0.08,0.65-0.36,0.94-0.85,0.97c-0.31,0.02-0.54-0.2-0.32-0.82
		c0.05-0.13-0.05-0.27-0.18,0c-0.47,0.93-0.18,1.45,0.29,1.52c0.39,0.06,0.85-0.16,1.09-0.75c0.18,0.3,0.55,0.38,0.88,0.3
		c0.42-0.11,0.51-0.3,0.63-0.65c0.12-0.33,0.12-0.77-0.04-1.29C177.21,294.33,177.16,294.38,177.14,294.43z M183.38,292.77
		c-0.04,0.01-0.08,0.07-0.1,0.16l-0.2,0.99c-0.05,0.28-0.04,0.31,0,0.55c0.11,0.66,0.27,1.31,0.39,1.95
		c0.32,1.55,0.71,3.5,0.99,4.93c0.2,1.07,0.34,2.16,0.38,3.12c0.01,0.18,0.11,0.17,0.16,0.03c0.17-0.53,0.24-1.09,0.24-1.68
		c0-0.58-0.19-1.75-0.38-2.68c-0.26-1.29-0.61-3.1-0.85-4.27c-0.21-0.99-0.41-1.99-0.53-2.95
		C183.47,292.79,183.42,292.76,183.38,292.77z M166.64,293.51c0.1,0.12,0.26,0.37,0.29,0.8c0,0.12-0.02,0.3-0.03,0.31
		c-0.01,0.01-0.24-0.09-0.28-0.11c-0.08-0.04-0.31-0.13-0.71-0.28c-0.16-0.03,0-0.28,0-0.28c0.06-0.11,0.16-0.25,0.27-0.37l0.15-0.1
		C166.43,293.44,166.58,293.41,166.64,293.51z M166.55,292.75c-0.46,0.08-1,0.72-1.23,1.45c-0.1,0.33-0.03,0.52,0.14,0.63
		c0.26,0.16,0.64,0.29,1.09,0.41c-0.52,0.87-2.2,2-2.51,2.18c-0.36,0.21-0.3,0.44,0.16,0.24c1.69-0.76,2.52-1.57,2.9-2.29
		c0.12,0.03,0.22,0.06,0.34,0.09c0.2,0.05,0.16,0.08,0.26-0.24c0.05-0.15,0.09-0.26,0.1-0.33l-0.51-0.17l0.05-0.18
		c0.06-0.58-0.09-1.06-0.14-1.21C167.06,292.87,166.83,292.71,166.55,292.75z M179.32,292.67c-0.39,0.69-0.47,0.77,0.13,1.64
		c0.26,2.69,1.11,5.69,1.4,8.81c0.02,0.16-0.24,0.98-1.88,0.05c-0.38-0.23-0.5-0.27-1.06,0.11c-1.97,1.29-5.29,1.65-5.73-1.52
		c-0.34-3.27-0.3-5.14-1.03-8.54c-0.12-0.5-0.39,0.26-0.46,0.92c0.53,2.58,0.76,6.41,0.9,8.12c0.11,2.82,2.53,4.46,6.4,2.08
		c0.36-0.22,0.29-0.17,0.68,0.06c2.54,1.46,2.89-1.19,2.55-3.24c-0.15-1.46-1.03-5.73-1.06-6.5c1.51-0.95,0.24-0.97-0.17-1.83
		C179.64,292.06,179.6,292.18,179.32,292.67z M177.71,291.46c-0.93,0.39-4.1,1.56-4.92,1.91c-0.05,0.02-0.08,0.03-0.1,0.1
		c-0.03,0.1-0.13,0.42-0.18,0.59c-0.02,0.07,0.04,0.07,0.1,0.04c0.11-0.04,0.26-0.13,0.38-0.18c0.64-0.27,3.66-1.41,4.49-1.73
		c0.05-0.03,0.1-0.05,0.12-0.11c0.05-0.12,0.13-0.39,0.17-0.55C177.8,291.46,177.77,291.43,177.71,291.46z M184.96,290.17
		c0.08,0.08,0.17,0.19,0.16,0.3c-0.13,0.29-0.95,0.58-1.26,0.66c-0.06,0.01-0.38,0.08-0.35-0.02c0.19-0.3,0.37-0.62,0.64-0.87
		C184.41,290.03,184.69,289.93,184.96,290.17z M184.18,289.64c-0.36,0.37-0.85,1.05-1.06,1.49c-0.16-0.01-0.46-0.17-0.6-0.24
		c-0.19-0.09-0.32,0.1-0.41,0.25c-0.18,0.29-0.33,0.58-0.44,0.9l-0.11,0.31c0,0.14,0.06,0.17,0.16,0.07
		c0.22-0.22,0.39-0.82,0.52-0.74c0.75,0.43,1.71,0.28,2.43-0.22c0.56-0.4,0.99-1.01,0.83-1.69c-0.06-0.24-0.33-0.47-0.59-0.49
		C184.63,289.27,184.38,289.43,184.18,289.64z M142.42,295.19c-0.64,0.65-1.83,1.13-2.76,1.11c-0.64-0.02-0.99-0.17-1.31-0.4
		c-0.08-0.06-0.16-0.05-0.22,0.03c-0.22,0.28-0.51,0.92-0.59,1.37c-0.02,0.08-0.03,0.19,0.01,0.21c0.04,0.01,0.1-0.01,0.13-0.07
		c0.08-0.21,0.19-0.6,0.38-0.81c0.03-0.03,0.08-0.01,0.11,0.01c0.4,0.27,1.01,0.42,1.64,0.39c0.87-0.04,2.44-0.57,2.69-1.75
		c0.01-0.06,0.02-0.1,0-0.12C142.49,295.13,142.46,295.15,142.42,295.19z M152.22,294.97c-0.16,0.24-0.35,0.59-0.54,0.88
		c-0.27-0.18-0.62-0.39-0.86-0.55c-0.13-0.08-0.18-0.07-0.26,0.05c-0.14,0.22-0.35,0.54-0.5,0.8c-0.05,0.1-0.04,0.18,0.1,0.26
		c0.26,0.15,0.66,0.38,0.9,0.51c0.08,0.04,0.14,0.02,0.2-0.07c0.13-0.18,0.28-0.45,0.49-0.79c0.36,0.21,0.65,0.4,0.94,0.54
		c0.08,0.04,0.12,0.03,0.18-0.04c0.14-0.18,0.39-0.58,0.5-0.78c0.07-0.14,0.05-0.19-0.07-0.27c-0.19-0.12-0.65-0.41-0.88-0.56
		C152.31,294.88,152.27,294.89,152.22,294.97z M152.87,300.76c-0.5,0.55-1.04,0.69-1.48-0.1
		C151.69,299.26,152.49,299.94,152.87,300.76z M147.46,294.33c0.62,3.17,0.47,5.95,1.01,9.01c0.37,2.43,3.48,2.05,5.11,0.65
		c0.85-2.12,0.3-3.89-0.95-5.28c-0.38-0.4-0.77-0.37-1.08,0.1c-0.59,0.89-0.87,2.28-0.49,3.05c0.98,1.59,2.04,0.11,2.14-0.46
		c0.22,0.41,0.27,0.52,0.39,1.26c-0.8,1.17-4.35,2.12-4.65-0.34c-0.41-3-0.48-6.11-1.03-9.3c-0.03-0.11-0.06-0.17-0.1-0.17
		C147.63,292.85,147.45,293.96,147.46,294.33z M142.19,302.82c-0.75,0.05-1.01,0.06-1.49-0.37c0.18-0.58,0.38-0.78,0.58-0.78
		C141.75,301.67,142.19,302.82,142.19,302.82z M143.15,292.43L143.15,292.43c-0.2,0.53-0.19,0.79,0.34,1.44
		c-0.03,1.01,1.12,6.15,1.38,7.86c-1.05,0.81-1.53,0.87-1.9,0.94c-0.65-2.09-1.37-2.87-1.95-2.22c-0.54,0.7-0.83,1.39-0.87,2.41
		c0,0.61,0.41,1.82,2.54,1.21c-1.63,3.76-4.53,3.82-7.24,3.22c-0.16-0.04-0.43,0.22-0.06,0.4c1.18,0.48,3.48,0.78,4.24,0.67
		c1.8-0.27,2.96-2.09,3.58-4.43c0.25-0.06,1.25-0.5,1.59-0.9c0.67-0.68,0.45-2.32,0.39-2.76c-0.15-1.11-1-4.86-1.12-6.11
		c0.42-0.26,0.79-0.87,0.56-1.05c-0.42-0.34-0.73-0.89-0.86-1.24C143.46,291.29,143.28,292.14,143.15,292.43z M134.76,291.67
		c-0.04,0.01-0.08,0.07-0.1,0.16l-0.2,0.99c-0.06,0.28-0.04,0.31,0,0.55c0.11,0.66,0.27,1.31,0.39,1.95
		c0.32,1.55,0.92,4.78,1.19,6.21c0.2,1.07,0.34,2.16,0.38,3.12c0.01,0.18,0.11,0.17,0.16,0.03c0.17-0.53,0.24-1.09,0.24-1.68
		c0-0.58-0.19-1.75-0.38-2.68c-0.26-1.29-0.81-4.39-1.06-5.56c-0.21-0.99-0.41-1.99-0.53-2.95
		C134.85,291.69,134.8,291.66,134.76,291.67z M153.74,291.38c-0.93,0.39-3.52,1.42-4.34,1.77c-0.05,0.02-0.08,0.03-0.1,0.1
		c-0.03,0.1-0.13,0.42-0.18,0.59c-0.02,0.07,0.04,0.07,0.1,0.04c0.11-0.05,0.26-0.13,0.38-0.18c0.64-0.27,3.08-1.27,3.91-1.6
		c0.05-0.02,0.1-0.05,0.12-0.11c0.05-0.12,0.13-0.39,0.17-0.55C153.83,291.38,153.79,291.35,153.74,291.38z M135.52,289.77
		c-0.22,0.41-0.85,0.52-1.3,0.38c-0.27-0.08-0.36-0.32-0.24-0.56c0.25-0.5,0.52-0.67,0.77-0.67
		C135.17,288.92,135.52,289.42,135.52,289.77z M133.81,288.9c-0.7,1.62,0.14,2.21,0.82,2.19c1.09-0.03,1.48-1.1,1.2-2.18
		c-0.18-0.68-0.55-0.92-0.95-0.9C134.49,288.03,134.07,288.31,133.81,288.9z M143.31,287.84c0.11,0.12,0.26,0.37,0.29,0.8
		c0,0.12-0.02,0.3-0.03,0.31c-0.01,0.01-0.24-0.09-0.28-0.11c-0.08-0.04-0.31-0.13-0.71-0.28c-0.16-0.03,0-0.28,0-0.28
		c0.06-0.11,0.16-0.25,0.27-0.37l0.15-0.1C143.09,287.78,143.24,287.74,143.31,287.84z M143.22,287.09c-0.46,0.08-1,0.72-1.23,1.45
		c-0.1,0.33-0.04,0.52,0.14,0.63c0.26,0.16,0.64,0.29,1.09,0.41c-0.52,0.87-2.2,2-2.51,2.18c-0.36,0.21-0.3,0.44,0.15,0.24
		c1.69-0.76,2.52-1.57,2.9-2.29c0.12,0.02,0.22,0.06,0.34,0.09c0.2,0.06,0.16,0.08,0.26-0.24c0.05-0.15,0.09-0.26,0.1-0.33
		l-0.51-0.17l0.05-0.18c0.06-0.58-0.09-1.06-0.14-1.21C143.72,287.2,143.49,287.04,143.22,287.09z M120.68,304.19
		c-0.93,0.39-3.52,1.42-4.34,1.77c-0.05,0.02-0.08,0.03-0.1,0.1c-0.03,0.1-0.13,0.42-0.18,0.59c-0.02,0.07,0.04,0.07,0.1,0.05
		c0.11-0.05,0.26-0.13,0.38-0.18c0.64-0.27,3.08-1.27,3.91-1.6c0.05-0.02,0.1-0.05,0.12-0.11c0.05-0.12,0.13-0.39,0.17-0.55
		C120.78,304.19,120.74,304.17,120.68,304.19z M118.2,302.35c-0.78-0.04-1.3-0.21-1.81-0.58c0.29-0.54,0.59-0.79,0.86-0.8
		C117.65,300.96,118,301.47,118.2,302.35z M116.77,300.2c-0.53,0.65-0.69,1.3-1.1,1.93c-0.57,0.81-1.15,0.84-1.9,0.55l-0.66-1.3
		c-0.19-0.28-0.22,0.35-0.29,1.16c0.68,1.05,0.93,2.02,0.88,3c-0.7,1.67-3.47,2.73-5.32,1.26c-0.83-0.74-0.62-1.66-0.11-2.97
		c0.15-0.41-0.1-0.63-0.3-0.18c-0.71,1.53-0.66,2.92-0.53,3.29c0.71,2.38,5.73,2.58,6.6-1.11c0.1-0.52,0.07-1.05,0.08-1.79
		c0.21-0.05,1.1,0.14,1.83-1.42c0.34,0.93,1.8,1.01,2.58,0.99c0.53-0.96,0.15-2.91-0.45-3.61c-0.2-0.22-0.38-0.31-0.56-0.32
		C117.29,299.68,117.04,299.87,116.77,300.2z M110.32,299.23c-0.17,0.28-0.4,0.69-0.53,0.95c-0.05,0.1-0.05,0.17,0.06,0.23
		c0.22,0.12,0.61,0.33,0.89,0.48c0.11,0.06,0.18,0.05,0.24-0.03c0.15-0.25,0.38-0.63,0.52-0.88c0.05-0.09,0.07-0.16-0.02-0.21
		c-0.26-0.16-0.69-0.42-0.95-0.57C110.42,299.13,110.37,299.15,110.32,299.23z M124.3,303.24c-0.57,0.13-1.14,0.12-1.66-0.19
		c0.28-0.64,0.5-0.9,0.71-0.9C123.64,302.15,123.91,302.62,124.3,303.24z M126.43,300.12c0.61,0.56,0.94,0.95,1.32,1.95
		c-0.35,0.31-1.67,1.03-2.64,1.11c-0.34-1.01-0.62-1.45-0.91-1.88c-0.98-1.41-2.07,0.55-1.93,2.29c0.13,1.18,1.28,1.03,2.4,0.88
		c-1.2,2.59-3.58,4.07-7.46,3.25c-0.32-0.06-0.47,0.26,0.01,0.39c4.15,1.38,6.88,0.49,8.07-3.71c1.04-0.2,2.5-0.99,2.73-1.54
		c0.5-1.25-0.03-2.69-0.85-3.62c-0.23-0.26-0.38-0.42-0.48-0.42C126.52,298.81,126.48,299.19,126.43,300.12z M120.92,297.93
		c-0.09,0.19-0.06,0.39,0.13,0.53c0.14,0.1,0.41,0.28,0.67,0.41c-0.11,0.05-0.37,0.15-0.52,0.26c-0.04,0.12-0.09,0.31-0.11,0.43
		c-0.01,0.04,0.03,0.09,0.07,0.06c0.46-0.27,1.84-0.63,2.44-0.76c0.04-0.01,0.23-0.44,0.26-0.5c0.04-0.08,0-0.11-0.06-0.09
		c-0.34,0.09-0.67,0.15-1.09,0.14c-0.52-0.01-1.31-0.57-1.31-0.68c0.01-0.11,0.62-0.37,0.76-0.36c0.4,0.04,0.46,0.44,0.56,0.44
		c0.13,0,0.33-0.48,0.33-0.6c0-0.13-0.33-0.5-0.59-0.5C122.04,296.71,121.14,297.46,120.92,297.93z M125.27,295.83
		c-0.17,0.28-0.4,0.69-0.53,0.94c-0.05,0.1-0.05,0.17,0.06,0.24c0.22,0.12,0.61,0.33,0.89,0.48c0.12,0.06,0.18,0.05,0.24-0.03
		c0.15-0.25,0.38-0.63,0.52-0.88c0.05-0.09,0.07-0.16-0.02-0.21c-0.26-0.16-0.69-0.42-0.95-0.57
		C125.37,295.73,125.32,295.75,125.27,295.83z M110.6,294.54c0.11,0.12,0.26,0.37,0.29,0.8c0,0.12-0.02,0.3-0.03,0.31
		c-0.01,0.01-0.24-0.09-0.28-0.11c-0.08-0.04-0.31-0.13-0.71-0.28c-0.16-0.03,0-0.28,0-0.28c0.06-0.11,0.16-0.25,0.27-0.36l0.15-0.1
		C110.38,294.48,110.53,294.45,110.6,294.54z M110.51,293.79c-0.46,0.08-1,0.72-1.23,1.45c-0.1,0.33-0.04,0.52,0.14,0.63
		c0.26,0.16,0.64,0.29,1.09,0.41c-0.52,0.87-2.2,2-2.51,2.18c-0.36,0.21-0.3,0.44,0.16,0.24c1.69-0.76,2.52-1.57,2.9-2.29
		c0.12,0.02,0.22,0.06,0.34,0.09c0.2,0.05,0.16,0.08,0.26-0.24c0.05-0.15,0.09-0.26,0.1-0.33l-0.51-0.17l0.05-0.18
		c0.06-0.58-0.09-1.06-0.14-1.21C111.01,293.91,110.79,293.74,110.51,293.79z M119.38,293.37c-0.03,0.09-0.09,0.2-0.12,0.28
		c-0.04,0.14,0.04,0.24,0.11,0.13c0.09-0.13,0.19-0.25,0.32-0.33c0.31-0.19,0.65-0.26,0.99-0.23c0.31,0.03,0.89,0.25,0.89,0.28
		c0,0.07-1.35,0.73-1.56,0.87c-0.09,0.06-0.2,0.16-0.18,0.27c0.02,0.08,0.15,0.1,0.25,0.06c0.53-0.19,0.72-0.18,1.15-0.36
		c0.58-0.25,0.75-0.55,0.85-0.59c0.04-0.01,0.09-0.01,0.14-0.05c0.17-0.15,0.31-0.57,0.32-0.71c-0.02-0.11-0.41-0.15-0.52-0.17
		c-0.38-0.09-0.75-0.29-1.14-0.32C120.27,292.45,119.7,292.73,119.38,293.37z M129.77,292.51l-0.19,0.99
		c-0.06,0.28-0.04,0.31,0,0.55c0.11,0.66,0.26,1.31,0.39,1.95c0.32,1.55,0.92,4.78,1.19,6.21c0.2,1.07,0.34,2.16,0.38,3.12
		c0.01,0.18,0.11,0.17,0.16,0.03c0.17-0.53,0.24-1.09,0.24-1.68c0-0.58-0.19-1.75-0.38-2.68c-0.26-1.29-0.81-4.39-1.06-5.56
		c-0.21-0.99-0.41-1.99-0.53-2.95c-0.01-0.11-0.06-0.15-0.1-0.14C129.82,292.37,129.79,292.43,129.77,292.51z M125.99,291.1
		c0.1,0.12,0.26,0.37,0.29,0.8c0,0.12-0.02,0.3-0.03,0.31c-0.01,0.01-0.24-0.09-0.28-0.11c-0.08-0.04-0.31-0.13-0.71-0.28
		c-0.16-0.03,0-0.28,0-0.28c0.06-0.11,0.16-0.25,0.27-0.37l0.15-0.1C125.78,291.04,125.93,291.01,125.99,291.1z M125.91,290.35
		c-0.46,0.08-1.01,0.72-1.23,1.45c-0.1,0.33-0.04,0.52,0.14,0.63c0.26,0.16,0.64,0.29,1.09,0.41c-0.52,0.87-2.2,2-2.51,2.18
		c-0.36,0.21-0.3,0.44,0.16,0.24c1.69-0.76,2.52-1.57,2.9-2.29c0.12,0.02,0.22,0.06,0.34,0.09c0.2,0.05,0.16,0.08,0.27-0.24
		c0.05-0.15,0.09-0.26,0.1-0.33l-0.51-0.17l0.05-0.18c0.06-0.58-0.09-1.06-0.14-1.21C126.41,290.47,126.18,290.3,125.91,290.35z
		 M128.16,290.1c-0.09,0.19-0.06,0.39,0.13,0.53c0.14,0.1,0.41,0.28,0.67,0.41c-0.11,0.05-0.37,0.15-0.52,0.26
		c-0.04,0.12-0.09,0.31-0.11,0.43c-0.01,0.04,0.03,0.09,0.07,0.06c0.46-0.27,1.84-0.62,2.44-0.76c0.04-0.01,0.23-0.44,0.26-0.5
		c0.04-0.08,0-0.11-0.06-0.09c-0.34,0.09-0.67,0.15-1.09,0.14c-0.52-0.01-1.31-0.57-1.31-0.68c0.01-0.11,0.62-0.37,0.76-0.36
		c0.4,0.04,0.46,0.44,0.57,0.44c0.13,0,0.33-0.48,0.33-0.6c0-0.14-0.33-0.5-0.59-0.5C129.28,288.88,128.38,289.64,128.16,290.1z
		 M131.28,286.64c-0.93,0.39-3.52,1.42-4.34,1.77c-0.05,0.02-0.08,0.03-0.1,0.1c-0.03,0.1-0.13,0.42-0.18,0.59
		c-0.02,0.07,0.04,0.07,0.1,0.04c0.11-0.05,0.26-0.13,0.38-0.18c0.64-0.27,3.08-1.27,3.91-1.6c0.05-0.02,0.1-0.05,0.12-0.11
		c0.05-0.12,0.13-0.39,0.17-0.55C131.37,286.64,131.33,286.62,131.28,286.64z M97.31,295.72c-0.93,0.39-4.1,1.56-4.92,1.91
		c-0.05,0.02-0.08,0.03-0.1,0.1c-0.03,0.1-0.13,0.42-0.18,0.59c-0.02,0.07,0.04,0.07,0.1,0.04c0.11-0.04,0.26-0.13,0.38-0.18
		c0.64-0.27,3.66-1.41,4.49-1.73c0.05-0.02,0.1-0.05,0.12-0.11c0.05-0.11,0.13-0.39,0.17-0.55C97.4,295.72,97.36,295.7,97.31,295.72
		z M92.5,290.96c-0.64,0.65-1.83,1.13-2.76,1.11c-0.64-0.02-0.99-0.17-1.31-0.4c-0.08-0.06-0.16-0.05-0.22,0.03
		c-0.22,0.28-0.51,0.92-0.59,1.37c-0.02,0.08-0.03,0.19,0.01,0.21c0.04,0.02,0.1-0.01,0.13-0.07c0.08-0.22,0.19-0.6,0.38-0.81
		c0.03-0.03,0.08-0.01,0.11,0.01c0.4,0.27,1.01,0.42,1.63,0.39c0.87-0.04,2.44-0.57,2.69-1.75c0.01-0.06,0.02-0.11,0-0.12
		C92.56,290.91,92.54,290.92,92.5,290.96z M102.88,290.09c-0.93,0.39-4.1,1.56-4.92,1.91c-0.05,0.02-0.08,0.03-0.1,0.1
		c-0.03,0.1-0.13,0.42-0.18,0.59c-0.02,0.07,0.04,0.07,0.1,0.04c0.11-0.04,0.26-0.13,0.39-0.18c0.64-0.27,3.66-1.41,4.49-1.73
		c0.05-0.02,0.1-0.05,0.12-0.11c0.05-0.12,0.13-0.39,0.17-0.55C102.97,290.09,102.93,290.07,102.88,290.09z M97.17,303.85
		c-0.74-0.14-2.03-0.42-1.78-0.72c0.36-0.48,0.65-0.71,0.84-0.7C96.64,302.45,96.76,303.33,97.17,303.85z M109.04,288.16
		c-2.72,1.79-5.39,3.22-8.12,5.08c-1.83,1.15-2.11,4.02-1.69,4.5c0.25,0.31,0.92,0.57,1.22,0.66c0.09,0.03,0.08,0.02,0.21-0.35
		c1.19,1.16,2.61,2.27,3.28,4.69c-2.03,1.38-5.49,1.55-6.86-0.43c-0.63-0.91-0.84-0.75-1.2-0.43c-0.62,0.6-0.8,1.08-0.99,1.42
		c-0.61,1.08-1.75,1.2-2.52,0.94c-1.1-0.44-1.15-1.89-1.3-2.86c-0.39-2.58-0.54-4.8-1.01-7.41c-0.19-0.76-0.34,0.49-0.41,1.01
		c0.54,2.8,0.87,7.51,1.34,9.13c0.75,2.29,3.41,1.54,4.05,0c0.25,0.51,0.81,0.91,2.69,1.13c0.48,0.04,0.36-0.06,0.42-0.64
		c1.66,0.67,5.42,0.4,6.1-1.18c0.19-0.55,0.14-1.4-0.03-1.96c-0.34-1.13-1.58-3.79-4.66-5.61c0.62-1.6,7.04-4.95,9.25-6.41
		C109.07,289.26,109.71,287.77,109.04,288.16z M83.36,302.77c-0.14,0.26-0.09,0.64,0.16,0.81c0.21,0.15,0.56,0.3,0.95,0.5
		c-0.17,0.08-0.63,0.4-0.79,0.57c-0.07,0.18-0.15,0.49-0.19,0.67c-0.02,0.06,0.04,0.14,0.11,0.08c0.41-0.3,1.03-0.69,1.69-1
		c0.6-0.28,1.08-0.46,1.54-0.53c0.07-0.02,0.38-0.7,0.43-0.8c0.06-0.13,0-0.16-0.09-0.14c-0.52,0.15-0.92,0.28-1.56,0.28
		c-0.79,0-1.46-0.54-1.46-0.78c0-0.18,0.53-0.59,0.74-0.58c0.61,0.04,0.65,0.57,0.81,0.56c0.19-0.01,0.53-0.74,0.53-0.93
		c0.01-0.21-0.45-0.66-0.85-0.65C84.72,300.86,83.73,302.05,83.36,302.77z M77.6,302.04c-0.86-0.04-1.45-0.21-2.01-0.58
		c0.32-0.54,0.65-0.8,0.96-0.8C76.99,300.64,77.38,301.15,77.6,302.04z M76.01,299.88c-0.59,0.65-0.77,1.31-1.22,1.94
		c-0.64,0.81-1.28,0.84-2.11,0.55l-0.73-1.31c-0.21-0.28-0.25,0.35-0.32,1.17c0.75,1.06,1.03,2.03,0.97,3.02
		c-0.77,1.68-3.86,2.74-5.91,1.27c-0.92-0.75-0.69-1.66-0.13-2.99c0.17-0.41-0.11-0.63-0.33-0.18c-0.78,1.54-0.73,2.93-0.59,3.31
		c0.79,2.39,6.37,2.59,7.33-1.11c0.11-0.53,0.08-1.05,0.09-1.8c0.23-0.05,1.22,0.14,2.03-1.43c0.38,0.94,2,1.01,2.87,1
		c0.58-0.96,0.16-2.93-0.5-3.62c-0.22-0.22-0.42-0.32-0.62-0.32C76.58,299.35,76.31,299.55,76.01,299.88z M68.68,298.91
		c-0.17,0.28-0.4,0.69-0.53,0.94c-0.05,0.1-0.05,0.17,0.06,0.24c0.22,0.12,0.61,0.33,0.89,0.48c0.11,0.06,0.18,0.05,0.24-0.03
		c0.15-0.25,0.38-0.64,0.52-0.88c0.05-0.09,0.07-0.16-0.02-0.21c-0.26-0.16-0.69-0.42-0.95-0.57
		C68.78,298.81,68.73,298.83,68.68,298.91z M86.14,296.59c-0.93,0.39-3.03,1.23-3.85,1.58c-0.05,0.02-0.08,0.03-0.1,0.1
		c-0.03,0.1-0.13,0.42-0.18,0.59c-0.02,0.07,0.04,0.07,0.1,0.04c0.11-0.05,0.26-0.13,0.38-0.18c0.64-0.27,2.6-1.07,3.42-1.4
		c0.05-0.02,0.1-0.05,0.12-0.11c0.05-0.12,0.13-0.39,0.17-0.55C86.24,296.59,86.2,296.57,86.14,296.59z M77.84,295.18
		c-0.93,0.39-3.52,1.42-4.34,1.77c-0.05,0.02-0.08,0.03-0.1,0.1c-0.03,0.1-0.13,0.42-0.18,0.59c-0.02,0.07,0.04,0.07,0.1,0.04
		c0.11-0.05,0.26-0.13,0.38-0.18c0.64-0.27,3.08-1.27,3.91-1.6c0.05-0.02,0.1-0.05,0.12-0.11c0.05-0.12,0.13-0.39,0.17-0.55
		C77.93,295.17,77.89,295.15,77.84,295.18z M71.57,295c-0.93,0.39-4.1,1.56-4.92,1.91c-0.05,0.02-0.08,0.03-0.1,0.1
		c-0.03,0.1-0.13,0.42-0.18,0.59c-0.02,0.07,0.04,0.07,0.1,0.04c0.11-0.05,0.26-0.13,0.38-0.18c0.64-0.27,3.66-1.41,4.49-1.73
		c0.05-0.02,0.1-0.05,0.12-0.11c0.05-0.12,0.13-0.39,0.17-0.55C71.66,295,71.62,294.98,71.57,295z M79.38,292.86l-0.19,0.99
		c-0.06,0.28-0.04,0.31,0,0.55c0.11,0.66,0.27,1.31,0.39,1.95c0.32,1.55,0.85,4.26,1.13,5.69c0.2,1.07,0.34,2.16,0.38,3.12
		c0.01,0.18,0.11,0.17,0.16,0.03c0.17-0.53,0.24-1.09,0.24-1.68c0-0.58-0.19-1.75-0.38-2.68c-0.26-1.29-0.75-3.86-1-5.03
		c-0.21-0.99-0.41-1.99-0.53-2.95c-0.01-0.11-0.06-0.15-0.1-0.13C79.43,292.71,79.39,292.77,79.38,292.86z M25.79,302.35
		c-0.14,0.26-0.09,0.64,0.16,0.81c0.21,0.15,0.56,0.3,0.95,0.49c-0.17,0.08-0.63,0.4-0.79,0.57c-0.07,0.18-0.15,0.49-0.19,0.67
		c-0.02,0.07,0.04,0.14,0.11,0.08c0.41-0.3,1.03-0.69,1.69-1c0.6-0.28,1.08-0.46,1.54-0.53c0.07-0.02,0.38-0.7,0.43-0.8
		c0.06-0.13,0-0.16-0.09-0.14c-0.52,0.15-0.92,0.28-1.56,0.28c-0.79,0-1.46-0.54-1.46-0.78c0-0.18,0.53-0.59,0.74-0.57
		c0.61,0.04,0.65,0.57,0.81,0.56c0.19-0.01,0.53-0.74,0.53-0.93c0.01-0.21-0.45-0.66-0.85-0.65
		C27.15,300.44,26.16,301.64,25.79,302.35z M26.79,295.07c0.1,0.12,0.26,0.37,0.28,0.8c0,0.12-0.02,0.3-0.03,0.31
		c-0.01,0.01-0.24-0.09-0.28-0.11c-0.08-0.04-0.31-0.13-0.71-0.28c-0.16-0.03,0-0.28,0-0.28c0.06-0.11,0.16-0.25,0.27-0.37l0.15-0.1
		C26.58,295.01,26.73,294.98,26.79,295.07z M26.7,294.32c-0.46,0.08-1.01,0.72-1.23,1.45c-0.1,0.33-0.04,0.52,0.14,0.63
		c0.26,0.16,0.64,0.29,1.09,0.4c-0.52,0.87-2.2,2-2.51,2.18c-0.36,0.21-0.3,0.44,0.16,0.24c1.69-0.76,2.52-1.57,2.9-2.29
		c0.12,0.02,0.22,0.06,0.34,0.09c0.2,0.05,0.16,0.08,0.26-0.24c0.05-0.15,0.09-0.26,0.1-0.33l-0.51-0.17l0.05-0.18
		c0.06-0.58-0.09-1.06-0.14-1.21C27.21,294.44,26.98,294.27,26.7,294.32z M54.64,296.28l-0.23,0.43c-0.03,0.05-0.05,0.08-0.03,0.13
		c0.07,0.17,0.12,0.37,0.12,0.48c-0.27,0.26-0.56,0.3-0.77,0.13c-0.14-0.11-0.19-0.32-0.17-0.59c0.01-0.2,0.03-0.27-0.14-0.13
		c-0.23,0.18-0.17,0.17-0.18,0.27c-0.08,0.64-0.36,0.93-0.85,0.97c-0.31,0.02-0.54-0.2-0.32-0.82c0.05-0.13-0.05-0.27-0.18,0
		c-0.47,0.93-0.18,1.45,0.29,1.52c0.39,0.06,0.85-0.16,1.09-0.75c0.18,0.3,0.55,0.38,0.88,0.3c0.42-0.11,0.51-0.3,0.63-0.65
		c0.12-0.33,0.12-0.77-0.04-1.29C54.71,296.19,54.66,296.24,54.64,296.28z M44.05,296.25c-0.17,0.28-0.4,0.69-0.53,0.95
		c-0.05,0.1-0.05,0.17,0.06,0.23c0.22,0.12,0.61,0.33,0.89,0.48c0.11,0.06,0.18,0.05,0.24-0.03c0.15-0.25,0.38-0.64,0.52-0.88
		c0.05-0.09,0.07-0.16-0.02-0.21c-0.26-0.16-0.69-0.42-0.95-0.57C44.15,296.15,44.1,296.17,44.05,296.25z M39.56,294.01
		c-0.93,0.39-4.68,1.66-5.5,2.01c-0.05,0.02-0.08,0.03-0.1,0.1c-0.03,0.1-0.13,0.42-0.18,0.59c-0.02,0.07,0.05,0.07,0.1,0.04
		c0.11-0.05,0.26-0.13,0.38-0.18c0.64-0.27,4.24-1.51,5.07-1.84c0.05-0.02,0.1-0.05,0.12-0.11c0.05-0.11,0.13-0.39,0.17-0.55
		C39.66,294,39.62,293.98,39.56,294.01z M46.42,293.31c-0.93,0.39-4.1,1.56-4.92,1.91c-0.05,0.02-0.08,0.03-0.1,0.1
		c-0.03,0.1-0.13,0.42-0.18,0.59c-0.02,0.07,0.04,0.07,0.1,0.04c0.11-0.05,0.26-0.13,0.38-0.18c0.64-0.27,3.66-1.41,4.49-1.73
		c0.05-0.03,0.1-0.05,0.12-0.11c0.05-0.12,0.13-0.39,0.17-0.55C46.52,293.31,46.48,293.28,46.42,293.31z M60.94,292.95
		c-0.04,0.01-0.08,0.07-0.1,0.16l-0.2,0.99c-0.06,0.28-0.04,0.31,0,0.55c0.11,0.66,0.27,1.31,0.39,1.95
		c0.32,1.55,0.77,3.92,1.04,5.35c0.2,1.07,0.34,2.16,0.38,3.12c0.01,0.18,0.11,0.17,0.16,0.03c0.17-0.53,0.24-1.09,0.24-1.68
		c0-0.58-0.19-1.75-0.38-2.68c-0.26-1.29-0.67-3.53-0.91-4.7c-0.21-0.99-0.41-1.99-0.53-2.95
		C61.03,292.98,60.98,292.94,60.94,292.95z M39.98,306.39c-0.79,1.23-2.08,0.14-2.61-0.6C38.8,305.82,39.74,305.92,39.98,306.39z
		 M38.84,301.84c-0.36,0.67-1.1,1.31-1.7,1.6c0.44-1.77,0.82-2.32,1.13-2.33C38.53,301.1,38.73,301.5,38.84,301.84z M45.69,301.84
		c-0.4,0.69-1.24,1.01-1.22,0.99c-0.34-0.19-0.64-0.43-0.92-0.69c0.65-0.99,1.07-1.32,1.37-1.32
		C45.33,300.83,45.5,301.44,45.69,301.84z M57.33,293.01c-0.62,0.88-0.42,0.94,0,1.87c0.21,2.74,1.13,5.08,1.36,7.71
		c-0.08,0.68-1.48,0.3-1.94,0.02c0.08-0.26,0.13-0.49,0.16-0.76c0.01-0.21-0.18-0.35-0.28-0.11c-0.3,0.73-0.31,1.13-0.85,1.93
		c-0.45,0-0.85-0.07-1.3-0.3c0.17-0.38,0.38-0.75,0.45-1.17c0.05-0.25-0.14-0.42-0.3-0.12c-0.28,0.69-0.54,1.07-1.1,1.4
		c-0.59,0.32-1.25,0.46-2.29,0.42c0.27-0.52,0.47-1.02,0.57-1.58c0.06-0.36-0.15-0.62-0.31-0.16c-0.19,0.53-0.49,1.06-1.03,1.33
		c-1.21,0.6-3.58,0.73-5.07-0.12c0.57-0.83,1.33-1.95,0.36-3.42c-0.47-0.71-1.05-0.46-1.45-0.05c-0.6,0.71-1.78,1.9-0.99,3.39
		c-1.81,0.63-3.89,0.91-5.79,1.06c1.07-0.7,1.77-1.83,1.76-2.8c-0.11-1.92-0.87-1.8-1.13-1.63c-0.65,0.48-1.2,2.43-1.53,3.84
		c0.01,0.02-4.49,1.79-5.26-1.2c-0.3-1.46-0.4-4.35-0.81-7.58c-0.1-0.85-0.3-0.83-0.41-0.53c-0.07,0.24-0.11,0.67-0.18,1.1
		c0.45,2.27,0.5,4.9,0.78,7.2c0.11,0.86,0.4,3.61,5.03,2.5c0.07-0.02,0.09,0.01,0.1,0.33c0.01,0.28,0.21,0.23,0.84,0.23
		c0.27,0.87,1.13,2.5,2.55,2.46c0.85-0.01,1.68-1.47,0.82-3.09c1.26-0.3,2.23-0.36,3.48-0.87c0.61-0.25,0.57-0.24,1.1,0.1
		c1.11,0.64,3.1,1.19,5.28,0.49c0.64,0.05,2.76,0.42,4.05-0.77c-0.05,0.47,0.84,0.8,1.46,0.75c0.28-0.01,0.71-0.89,0.98-1.37
		c0.58,0.66,1.31,0.85,1.87,0.7c0.68-0.18,0.93-1.58,0.85-3c-0.1-1.29-0.97-4.2-1.22-6.03c1.15-0.96,0.15-0.96-0.2-2.2
		c-0.04-0.19-0.09-0.26-0.15-0.25C57.51,292.72,57.43,292.85,57.33,293.01z M52.89,292.13c0.1,0.12,0.26,0.37,0.29,0.8
		c0,0.12-0.02,0.3-0.03,0.31c-0.01,0.01-0.24-0.09-0.28-0.11c-0.08-0.04-0.31-0.13-0.71-0.28c-0.16-0.03,0-0.28,0-0.28
		c0.06-0.11,0.16-0.25,0.27-0.37l0.15-0.1C52.68,292.07,52.83,292.03,52.89,292.13z M52.8,291.37c-0.46,0.08-1.01,0.72-1.23,1.45
		c-0.1,0.33-0.04,0.52,0.14,0.63c0.26,0.16,0.64,0.29,1.09,0.41c-0.52,0.87-2.2,2-2.51,2.18c-0.36,0.21-0.3,0.44,0.15,0.24
		c1.69-0.76,2.52-1.57,2.9-2.29c0.12,0.02,0.22,0.06,0.34,0.09c0.2,0.06,0.16,0.08,0.26-0.24c0.05-0.15,0.09-0.26,0.1-0.33
		l-0.51-0.17l0.05-0.18c0.06-0.58-0.09-1.06-0.14-1.21C53.31,291.49,53.08,291.33,52.8,291.37z M33.22,291.22
		c-0.64,0.65-1.83,1.13-2.76,1.11c-0.64-0.02-0.99-0.17-1.31-0.4c-0.08-0.06-0.16-0.04-0.22,0.03c-0.22,0.28-0.51,0.92-0.59,1.37
		c-0.02,0.08-0.03,0.19,0.01,0.21c0.04,0.01,0.1-0.01,0.13-0.07c0.09-0.22,0.19-0.6,0.38-0.81c0.03-0.03,0.08-0.01,0.11,0.01
		c0.4,0.27,1.01,0.42,1.63,0.39c0.87-0.04,2.44-0.57,2.69-1.75c0.01-0.06,0.02-0.11,0-0.12C33.28,291.16,33.25,291.18,33.22,291.22z
		 M62.48,290.41c0.08,0.08,0.17,0.19,0.16,0.3c-0.13,0.29-0.95,0.58-1.26,0.66c-0.06,0.01-0.38,0.08-0.35-0.02
		c0.19-0.3,0.37-0.62,0.64-0.87C61.92,290.27,62.2,290.17,62.48,290.41z M61.69,289.88c-0.36,0.37-0.85,1.05-1.06,1.49
		c-0.16-0.01-0.46-0.17-0.6-0.24c-0.19-0.09-0.32,0.1-0.41,0.25c-0.18,0.29-0.33,0.58-0.44,0.9l-0.11,0.31
		c0,0.13,0.06,0.17,0.16,0.07c0.22-0.22,0.39-0.82,0.52-0.74c0.75,0.43,1.71,0.28,2.43-0.22c0.56-0.4,0.99-1.01,0.83-1.69
		c-0.06-0.24-0.33-0.47-0.59-0.49C62.14,289.5,61.9,289.67,61.69,289.88z M29.21,286.97c-0.17,0.28-0.63,0.3-0.78,0.05
		c0-0.15,0.15-0.34,0.27-0.37C28.83,286.63,29.21,286.84,29.21,286.97z M27.22,285.13c-0.09,0.13-0.15,0.25-0.21,0.38
		C27,285.52,27,285.55,27,285.6c0.1,0.83,0.32,2.05,0.38,2.46c-0.26,0.39-1.02,0.74-1.32,1.5c-0.07,0.17-0.12,0.36-0.13,0.55
		c0.07,0.63,1.37,0.53,1.72,0.49c0.79-0.09,2.33-0.42,3.34-0.51c0.09-0.15,0.16-0.24,0.26-0.41c0.02-0.06,0.01-0.07-0.04-0.06
		c-0.88,0.06-2.37,0.41-3.45,0.5c-0.18,0.01-1.09,0.06-1.4-0.14c-0.07-0.04-0.11-0.07-0.11-0.14c0-0.07,0.11-0.17,0.16-0.22
		c0.35-0.37,0.87-0.79,1.05-1.2c0.22,0.4,0.67,0.56,1.11,0.53c0.63-0.05,1.25-0.45,1.23-1.26c-0.01-0.52-0.38-1.61-1.01-1.58
		c-0.46,0.02-0.68,0.84-0.64,1.24c0.04,0.25,0.42,0.45,0.7,0.42c0.24-0.03,0.44-0.29,0.53-0.5c0.05,0.12,0.2,0.57,0.18,0.69
		c-0.31,0.51-1.73,0.7-1.88-0.12c-0.17-0.9-0.31-1.83-0.42-2.69C27.26,285.09,27.24,285.09,27.22,285.13z M28.85,284.77l-0.26,0.36
		l-0.4-0.26c-0.02-0.01-0.03-0.01-0.05,0.02l-0.23,0.36c-0.02,0.03,0,0.04,0.01,0.06l0.39,0.25c0.02,0.01,0.05,0.03,0.06,0.01
		l0.23-0.36l0.4,0.26c0.02,0.01,0.05,0.01,0.06-0.02l0.23-0.36c0.02-0.03,0.02-0.03,0-0.05l-0.41-0.28
		C28.86,284.74,28.86,284.75,28.85,284.77z M266.93,320.43c-0.05,0.34-0.11,0.68-0.16,1.01c-0.04,0.29-0.02,0.32,0.03,0.56
		c0.12,0.67,0.27,1.33,0.4,1.98c0.16,0.78,0.31,1.53,0.48,2.35c0.28,1.41,0.62,3.21,0.78,4.65c0.02,0.16,0.13,0.14,0.16,0
		c0.29-1.41,0.03-2.85-0.32-4.58c-0.23-1.13-0.43-2.08-0.62-3.01c-0.22-1.01-0.43-2.02-0.56-2.99c-0.02-0.11-0.06-0.15-0.1-0.14
		C266.98,320.28,266.95,320.34,266.93,320.43z M264.04,330.08c-0.5,0.08-1.06,0.19-1.5,0.25c0.32-0.35,0.78-0.79,0.97-1.08
		C263.51,329.25,263.9,329.85,264.04,330.08z M263.41,319.61c-0.17,0.19-0.46,0.76-0.45,1.13c0,0.08,0.2,0.43,0.47,0.85
		c-0.07,0.74,1.34,5.01,0.09,6.72c-1.76-2.81-4.25-4.61-6.66-5.94c-0.46-0.28-0.06,1.62,0.07,2.07c0.08,0.18,2.13,0.88,2.12,0.45
		c1.81,1.04,3.01,2.43,4.15,3.93c-0.05,0.08-0.02,0.03-0.26,0.32c-0.24,0.29-0.62,0.66-1.34,1.35c-0.32,0.1-0.52,0.15-0.92,0.26
		c-0.08,0.02-0.2,0.11-0.21,0.26l-0.05,0.61c-0.01,0.22,0.03,0.32,0.22,0.3c1.73-0.2,2.7-0.42,3.76-0.63
		c0.14-0.03,0.16-0.21,0.19-0.39c0.15-0.93-0.38-1.44-0.77-2.17c1.17-1.74,0.74-5.24,0.32-6.86c1.03-0.95-0.1-1.13-0.45-2.19
		C263.63,319.42,263.53,319.48,263.41,319.61z M258.85,318.58c-0.64,0.65-1.83,1.13-2.76,1.11c-0.64-0.02-0.99-0.17-1.31-0.4
		c-0.08-0.06-0.16-0.04-0.22,0.03c-0.22,0.28-0.51,0.92-0.59,1.37c-0.02,0.08-0.04,0.19,0.01,0.21c0.04,0.02,0.1-0.01,0.13-0.07
		c0.08-0.22,0.19-0.6,0.38-0.81c0.03-0.03,0.08-0.01,0.11,0.01c0.4,0.27,1.01,0.42,1.63,0.39c0.87-0.04,2.44-0.57,2.69-1.75
		c0.01-0.06,0.02-0.1,0-0.12C258.91,318.52,258.89,318.54,258.85,318.58z M265.45,318.64c-0.09,0.19-0.06,0.39,0.13,0.53
		c0.14,0.1,0.41,0.28,0.67,0.41c-0.11,0.05-0.37,0.15-0.52,0.26c-0.04,0.12-0.09,0.31-0.11,0.44c-0.01,0.04,0.03,0.09,0.07,0.06
		c0.46-0.27,1.84-0.62,2.44-0.76c0.04-0.01,0.23-0.44,0.26-0.5c0.04-0.08,0-0.11-0.06-0.09c-0.34,0.09-0.67,0.15-1.09,0.14
		c-0.52-0.01-1.31-0.57-1.31-0.68c0.01-0.11,0.62-0.37,0.76-0.36c0.4,0.04,0.46,0.44,0.57,0.44c0.13,0,0.33-0.48,0.33-0.6
		c0-0.13-0.33-0.5-0.59-0.5C266.57,317.42,265.67,318.17,265.45,318.64z M264.26,315.96c-0.93,0.39-3.03,1.23-3.85,1.58
		c-0.05,0.02-0.08,0.03-0.1,0.1c-0.03,0.1-0.13,0.42-0.18,0.59c-0.02,0.07,0.04,0.07,0.1,0.04c0.11-0.05,0.26-0.13,0.39-0.18
		c0.64-0.27,2.6-1.07,3.42-1.4c0.05-0.02,0.1-0.05,0.12-0.11c0.05-0.11,0.13-0.39,0.17-0.55
		C264.36,315.96,264.32,315.93,264.26,315.96z M268.72,315.16c-0.93,0.39-3.03,1.23-3.85,1.58c-0.05,0.02-0.08,0.03-0.1,0.1
		c-0.03,0.1-0.13,0.42-0.18,0.59c-0.02,0.07,0.04,0.07,0.1,0.04c0.11-0.04,0.26-0.13,0.38-0.18c0.64-0.27,2.6-1.07,3.42-1.4
		c0.05-0.02,0.1-0.05,0.12-0.11c0.05-0.12,0.13-0.39,0.17-0.55C268.82,315.16,268.78,315.14,268.72,315.16z M255.51,335.06
		c-0.94,0.35-1.99,0.7-2.82,1.02c-0.05,0.02-0.08,0.03-0.11,0.1c-0.04,0.09-0.15,0.41-0.2,0.58c-0.02,0.07,0.04,0.07,0.1,0.05
		c0.11-0.04,0.26-0.12,0.39-0.17c0.65-0.24,1.55-0.56,2.38-0.86c0.05-0.02,0.1-0.04,0.13-0.1c0.05-0.11,0.14-0.38,0.2-0.54
		C255.61,335.06,255.57,335.03,255.51,335.06z M252.28,333.39c-0.09,0.19-0.05,0.39,0.13,0.53c0.14,0.1,0.41,0.28,0.67,0.41
		c-0.11,0.05-0.37,0.15-0.52,0.26c-0.04,0.12-0.09,0.31-0.11,0.44c-0.01,0.04,0.03,0.08,0.07,0.06c0.46-0.27,1.84-0.62,2.43-0.76
		c0.04-0.01,0.23-0.44,0.26-0.51c0.04-0.08,0-0.11-0.06-0.09c-0.34,0.09-0.67,0.15-1.09,0.14c-0.52-0.01-1.31-0.57-1.31-0.68
		c0-0.11,0.62-0.37,0.76-0.36c0.4,0.04,0.46,0.44,0.57,0.44c0.13,0,0.33-0.48,0.33-0.6c0-0.14-0.33-0.5-0.59-0.5
		C253.4,332.17,252.5,332.92,252.28,333.39z M245.14,332.04c-0.35,0.5-1.12,0.51-1.77,0.11c-0.37-0.22-0.74-0.54-0.92-0.95
		C243.62,331.24,244.96,331.38,245.14,332.04z M234.93,328.19c0.25,0.55,0.54,0.99,0.9,1.35c-0.7-0.12-1.46-0.27-1.95-0.55
		c-0.15-0.08-0.14-0.13-0.05-0.26c0.16-0.24,0.42-0.43,0.67-0.62c0.08-0.06,0.16-0.1,0.23-0.09
		C234.81,328.02,234.88,328.07,234.93,328.19z M244.41,327.14c-0.36,0.74-1.05,1.31-1.93,1.7c0.21-0.88,0.55-1.68,0.99-2.16
		c0.11-0.12,0.22-0.19,0.33-0.2c0.04-0.01,0.07-0.01,0.11,0C244.13,326.52,244.31,326.78,244.41,327.14z M248.7,324.8
		c-0.08,0.29-0.14,0.65-0.21,0.95c-0.02,0.11-0.08,0.21,0.04,0.33c0.45,0.41,1,0.99,1.21,1.77c-0.9,1.07-3.74,1.77-6.88,1.97h-0.04
		c0.73-0.4,1.32-0.93,1.62-1.56c0.26-0.57,0.43-1.31,0.44-1.92c0.01-0.94-0.4-1.1-0.7-1.13c-0.43-0.04-0.91,0.52-1.24,1.22
		c-0.37,0.8-0.67,1.7-0.85,2.58c-0.92,0.33-2,0.47-3.1,0.4c-1.81-0.1-2.97-0.72-3.75-1.9c-0.29-0.44-0.62-0.27-0.87-0.06
		c-0.36,0.31-0.89,1.01-0.98,1.36c-0.1,0.38-0.08,1.28,0.49,1.6c-1.01,1.13-2.79,2.32-4.35,3.18c-0.18,0.1-0.38,0.33,0.04,0.23
		c1.12-0.27,2.44-0.68,3.34-1.32c0.62-0.44,1.21-1.09,1.38-1.94c0.56,0.18,1.32,0.29,1.99,0.38c0.33,0.04,0.35,0.03,0.39-0.3
		l0.07-0.47c1.35,0.48,3.1,0.63,4.68,0.21c-0.05,0.72-0.05,0.8,0.33,0.8c0.09,0,0.19,0.01,0.28,0.02c0.24,1.22,1.06,2.5,2.3,2.55
		c0.4,0.02,0.77-0.13,0.98-0.48c0.44-0.74,0.42-1.91,0.08-2.57c1.95-0.36,3.68-0.99,4.22-1.61c0.27-0.32,0.43-0.57,0.53-0.94
		c0.32-1.14-0.07-2.53-1.19-3.39c-0.06-0.04-0.12-0.07-0.16-0.07C248.75,324.68,248.72,324.72,248.7,324.8z M233.51,322.95
		c-0.04,0.09-0.09,0.2-0.12,0.28c-0.04,0.14,0.04,0.24,0.11,0.13c0.08-0.13,0.19-0.25,0.32-0.33c0.31-0.19,0.65-0.26,0.99-0.23
		c0.31,0.03,0.89,0.25,0.89,0.28c0,0.07-1.35,0.73-1.56,0.87c-0.09,0.06-0.21,0.16-0.18,0.27c0.02,0.08,0.15,0.1,0.25,0.06
		c0.53-0.19,0.72-0.18,1.15-0.36c0.58-0.25,0.75-0.55,0.85-0.58c0.04-0.01,0.09-0.01,0.14-0.05c0.17-0.16,0.31-0.57,0.32-0.71
		c-0.02-0.11-0.4-0.15-0.51-0.17c-0.38-0.09-0.75-0.29-1.14-0.32C234.39,322.03,233.82,322.31,233.51,322.95z M246.73,322.13
		c-0.17,0.28-0.4,0.69-0.53,0.94c-0.05,0.1-0.05,0.17,0.06,0.23c0.22,0.12,0.61,0.33,0.89,0.48c0.12,0.06,0.18,0.05,0.24-0.03
		c0.15-0.25,0.38-0.64,0.52-0.88c0.05-0.09,0.07-0.16-0.02-0.21c-0.26-0.16-0.69-0.42-0.95-0.57
		C246.82,322.03,246.78,322.04,246.73,322.13z M241.74,320.7c0.11,0.12,0.26,0.37,0.29,0.8c0,0.12-0.02,0.3-0.03,0.31
		c-0.01,0.01-0.24-0.09-0.28-0.11c-0.08-0.04-0.31-0.13-0.71-0.28c-0.16-0.03,0-0.28,0-0.28c0.06-0.11,0.16-0.25,0.27-0.36l0.15-0.1
		C241.52,320.64,241.67,320.6,241.74,320.7z M241.65,319.94c-0.46,0.08-1,0.72-1.22,1.45c-0.1,0.33-0.04,0.52,0.14,0.63
		c0.26,0.16,0.64,0.29,1.09,0.4c-0.52,0.87-2.2,2-2.51,2.18c-0.36,0.21-0.3,0.44,0.15,0.24c1.69-0.76,2.53-1.57,2.9-2.29
		c0.12,0.02,0.22,0.06,0.34,0.09c0.2,0.05,0.16,0.08,0.26-0.24c0.05-0.15,0.09-0.26,0.1-0.33l-0.51-0.17l0.05-0.18
		c0.06-0.58-0.09-1.06-0.14-1.21C242.15,320.06,241.93,319.9,241.65,319.94z M251.65,319.41c-0.04,0.01-0.08,0.07-0.1,0.16
		l-0.19,0.99c-0.06,0.28-0.04,0.31,0,0.55c0.11,0.66,0.26,1.31,0.39,1.95c0.32,1.55,0.77,3.92,1.04,5.35
		c0.2,1.07,0.34,2.16,0.38,3.12c0.01,0.18,0.11,0.17,0.16,0.03c0.17-0.53,0.24-1.09,0.24-1.68c0-0.58-0.19-1.75-0.38-2.68
		c-0.26-1.29-0.67-3.53-0.91-4.7c-0.21-0.99-0.41-1.99-0.53-2.95C251.74,319.43,251.69,319.4,251.65,319.41z M248.38,318.98
		l-0.23,0.43c-0.03,0.05-0.05,0.08-0.03,0.13c0.07,0.17,0.12,0.37,0.12,0.48c-0.27,0.26-0.56,0.3-0.77,0.13
		c-0.13-0.11-0.19-0.32-0.17-0.59c0.01-0.2,0.03-0.27-0.14-0.13c-0.23,0.18-0.17,0.16-0.18,0.27c-0.08,0.64-0.36,0.93-0.85,0.97
		c-0.31,0.02-0.54-0.2-0.32-0.82c0.05-0.13-0.05-0.27-0.18,0c-0.47,0.93-0.18,1.45,0.29,1.52c0.39,0.06,0.85-0.16,1.09-0.75
		c0.18,0.3,0.55,0.39,0.88,0.3c0.42-0.11,0.51-0.3,0.63-0.65c0.12-0.33,0.12-0.77-0.04-1.29
		C248.45,318.89,248.4,318.93,248.38,318.98z M249.28,315.95c-0.93,0.39-4.1,1.56-4.92,1.91c-0.05,0.02-0.08,0.03-0.1,0.1
		c-0.03,0.1-0.13,0.42-0.18,0.59c-0.02,0.07,0.04,0.07,0.1,0.04c0.11-0.04,0.26-0.13,0.38-0.18c0.64-0.27,3.66-1.41,4.49-1.73
		c0.05-0.02,0.1-0.05,0.12-0.11c0.05-0.11,0.13-0.39,0.17-0.55C249.37,315.95,249.34,315.92,249.28,315.95z M218.01,330
		c-0.61-0.17-2.02-0.26-1.72-0.64c0.5-0.58,0.76-0.81,0.92-0.81C217.49,328.54,217.47,329.26,218.01,330z M227.93,328.89
		c0.1,0.52-0.5,0.51-2.02-0.06c0.29-0.3,0.35-1.05,0.22-1.59C226.18,327.23,227.61,328.28,227.93,328.89z M225.78,328.1
		c-0.26,0.27-0.59,0.47-0.91,0.59c-0.57,0.03-1.21-0.04-1.31-0.4c0.17-0.98,0.53-1.46,0.96-1.47
		C224.92,326.82,225.38,327.25,225.78,328.1z M223.56,324.97c-0.01,0.22-0.11,1.26,0.17,1.37c-0.43,0.6-0.79,2.93-0.26,2.96
		c-0.69,0.44-2.63,0.77-4.06,0.28c-0.88-0.29-1.23-0.76-1.83-1.58c-0.4-0.52-0.74-0.1-1.5,0.83c-0.31,0.4-0.57,0.71-0.12,1.78
		c-0.79,1.1-2.54,2-4.31,2.64c-0.34,0.12-0.48,0.38-0.12,0.3c1.9-0.48,3.95-0.61,4.82-2.74c0.65,0.24,1.4,0.36,2.43,0.48
		c0.22,0.02,0.24-0.29,0.32-0.59c1.81,0.59,3.64,0.19,5.91-0.98c0.75,0.18,1.16,0.31,2.34,0.66c0.78,0.21,1.21-1.48,0.78-2.45
		c-0.43-0.93-2.26-2.34-3.82-3.14c-0.21-0.1-0.37-0.14-0.48-0.13C223.64,324.64,223.57,324.77,223.56,324.97z M217.14,321.3
		c0.11,0.12,0.26,0.37,0.29,0.8c0,0.12-0.02,0.3-0.03,0.31c-0.01,0.01-0.24-0.09-0.28-0.11c-0.08-0.04-0.31-0.13-0.71-0.28
		c-0.16-0.03,0-0.28,0-0.28c0.06-0.11,0.16-0.25,0.27-0.37l0.15-0.1C216.92,321.24,217.07,321.21,217.14,321.3z M217.05,320.55
		c-0.46,0.08-1,0.72-1.23,1.45c-0.1,0.33-0.04,0.52,0.14,0.63c0.26,0.16,0.64,0.29,1.09,0.41c-0.52,0.87-2.2,2-2.51,2.18
		c-0.37,0.21-0.3,0.44,0.15,0.24c1.69-0.76,2.52-1.57,2.9-2.29c0.12,0.02,0.22,0.06,0.34,0.09c0.2,0.06,0.16,0.08,0.26-0.24
		c0.05-0.15,0.09-0.26,0.1-0.33l-0.51-0.17l0.05-0.18c0.06-0.58-0.09-1.06-0.14-1.21C217.55,320.67,217.33,320.5,217.05,320.55z
		 M224.18,319.58c0.11,0.12,0.26,0.37,0.29,0.8c0,0.12-0.02,0.3-0.03,0.31c-0.01,0.01-0.24-0.09-0.28-0.11
		c-0.08-0.04-0.31-0.13-0.71-0.28c-0.16-0.03,0-0.28,0-0.28c0.06-0.11,0.16-0.25,0.27-0.37l0.15-0.1
		C223.97,319.52,224.12,319.48,224.18,319.58z M224.09,318.82c-0.46,0.08-1,0.72-1.23,1.45c-0.1,0.33-0.04,0.52,0.14,0.63
		c0.26,0.16,0.64,0.29,1.09,0.4c-0.52,0.87-2.2,2-2.51,2.18c-0.37,0.21-0.3,0.44,0.15,0.24c1.69-0.76,2.53-1.57,2.9-2.29
		c0.12,0.02,0.22,0.06,0.34,0.09c0.2,0.05,0.16,0.08,0.27-0.24c0.05-0.15,0.08-0.26,0.1-0.33l-0.51-0.17l0.05-0.18
		c0.06-0.58-0.09-1.06-0.14-1.21C224.6,318.94,224.37,318.78,224.09,318.82z M174.7,329.72c-0.14,0.26-0.09,0.64,0.16,0.81
		c0.21,0.15,0.56,0.3,0.95,0.49c-0.17,0.08-0.63,0.4-0.79,0.57c-0.07,0.18-0.14,0.49-0.19,0.67c-0.02,0.07,0.04,0.14,0.11,0.08
		c0.41-0.3,1.03-0.69,1.69-1c0.61-0.28,1.08-0.46,1.54-0.53c0.07-0.02,0.38-0.7,0.43-0.8c0.07-0.13,0-0.16-0.09-0.14
		c-0.52,0.15-0.92,0.28-1.56,0.28c-0.79,0-1.46-0.54-1.46-0.78c0-0.18,0.53-0.59,0.74-0.58c0.61,0.04,0.65,0.57,0.81,0.56
		c0.2-0.01,0.53-0.74,0.53-0.93c0.01-0.21-0.45-0.66-0.85-0.65C176.07,327.81,175.07,329.01,174.7,329.72z M176.09,322.17
		c0.1,0.12,0.26,0.37,0.28,0.8c0,0.12-0.02,0.3-0.03,0.31c-0.01,0.01-0.24-0.09-0.28-0.11c-0.08-0.04-0.31-0.13-0.71-0.28
		c-0.16-0.03,0-0.28,0-0.28c0.06-0.11,0.16-0.25,0.27-0.37l0.15-0.1C175.87,322.1,176.02,322.07,176.09,322.17z M176,321.41
		c-0.46,0.08-1.01,0.72-1.23,1.45c-0.1,0.33-0.04,0.52,0.14,0.63c0.26,0.16,0.64,0.29,1.09,0.41c-0.52,0.87-2.2,2-2.51,2.18
		c-0.36,0.21-0.3,0.44,0.16,0.24c1.69-0.76,2.52-1.57,2.9-2.29c0.12,0.02,0.22,0.06,0.34,0.09c0.2,0.05,0.16,0.08,0.27-0.24
		c0.05-0.15,0.09-0.26,0.1-0.33l-0.51-0.17l0.05-0.18c0.06-0.58-0.09-1.06-0.14-1.21C176.5,321.53,176.28,321.36,176,321.41z
		 M192.77,322.94c-0.17,0.28-0.4,0.69-0.53,0.94c-0.05,0.1-0.05,0.17,0.06,0.24c0.22,0.12,0.61,0.33,0.89,0.48
		c0.12,0.06,0.18,0.05,0.24-0.03c0.15-0.25,0.38-0.64,0.52-0.88c0.05-0.09,0.07-0.16-0.02-0.21c-0.26-0.16-0.69-0.42-0.95-0.57
		C192.86,322.85,192.82,322.86,192.77,322.94z M202.91,322.59l-0.23,0.43c-0.03,0.05-0.05,0.08-0.03,0.13
		c0.07,0.17,0.12,0.37,0.12,0.48c-0.27,0.26-0.56,0.3-0.77,0.13c-0.14-0.11-0.19-0.32-0.17-0.59c0.01-0.2,0.03-0.27-0.14-0.13
		c-0.23,0.18-0.17,0.17-0.18,0.27c-0.08,0.64-0.36,0.93-0.85,0.97c-0.31,0.02-0.54-0.2-0.32-0.82c0.05-0.13-0.05-0.27-0.18,0
		c-0.47,0.93-0.18,1.45,0.29,1.52c0.39,0.06,0.85-0.16,1.09-0.75c0.18,0.3,0.55,0.39,0.88,0.3c0.42-0.11,0.51-0.31,0.63-0.65
		c0.12-0.33,0.12-0.77-0.04-1.29C202.98,322.5,202.93,322.55,202.91,322.59z M189.02,320.15c-0.93,0.39-4.68,1.66-5.5,2.01
		c-0.05,0.02-0.08,0.03-0.1,0.1c-0.03,0.1-0.13,0.42-0.18,0.59c-0.02,0.07,0.04,0.07,0.1,0.04c0.11-0.05,0.26-0.13,0.38-0.18
		c0.64-0.27,4.25-1.51,5.07-1.84c0.05-0.03,0.1-0.05,0.12-0.11c0.05-0.12,0.13-0.39,0.17-0.55
		C189.11,320.15,189.07,320.12,189.02,320.15z M195.11,319.97c-0.93,0.39-4.68,1.66-5.5,2.01c-0.05,0.02-0.08,0.03-0.1,0.1
		c-0.03,0.1-0.13,0.42-0.18,0.59c-0.02,0.07,0.04,0.07,0.1,0.04c0.11-0.05,0.26-0.13,0.38-0.18c0.64-0.27,4.25-1.51,5.07-1.84
		c0.05-0.03,0.1-0.05,0.12-0.11c0.05-0.12,0.13-0.39,0.17-0.55C195.21,319.97,195.17,319.94,195.11,319.97z M209.19,319.46
		l-0.2,0.99c-0.05,0.28-0.04,0.31,0,0.55c0.11,0.66,0.27,1.31,0.39,1.95c0.32,1.55,0.71,3.5,0.99,4.93c0.2,1.07,0.34,2.16,0.38,3.12
		c0.01,0.18,0.11,0.17,0.16,0.03c0.17-0.53,0.24-1.09,0.24-1.68c0-0.58-0.19-1.75-0.38-2.68c-0.26-1.29-0.61-3.1-0.85-4.27
		c-0.21-0.99-0.41-1.99-0.53-2.95c-0.01-0.11-0.06-0.15-0.1-0.13C209.25,319.31,209.21,319.37,209.19,319.46z M188.92,332.79
		c-0.77,1.25-2.03,0.14-2.55-0.6C187.76,332.21,188.68,332.31,188.92,332.79z M187.81,328.19c-0.35,0.67-1.07,1.33-1.66,1.62
		c0.42-1.79,0.8-2.35,1.1-2.36C187.51,327.43,187.7,327.84,187.81,328.19z M194.49,328.19c-0.39,0.7-1.21,1.02-1.19,1
		c-0.33-0.2-0.62-0.44-0.9-0.7c0.63-1,1.05-1.33,1.34-1.33C194.14,327.16,194.31,327.78,194.49,328.19z M205.85,319.25
		c-0.6,0.88-0.41,0.95,0,1.9c0.21,2.77,1.1,5.13,1.33,7.79c-0.08,0.68-1.45,0.3-1.89,0.02c0.08-0.26,0.13-0.49,0.15-0.77
		c0.01-0.22-0.17-0.36-0.27-0.12c-0.29,0.74-0.3,1.14-0.83,1.95c-0.44,0-0.83-0.08-1.27-0.31c0.16-0.39,0.38-0.76,0.44-1.18
		c0.05-0.25-0.14-0.42-0.29-0.12c-0.28,0.7-0.53,1.08-1.08,1.42c-0.58,0.32-1.22,0.46-2.23,0.43c0.27-0.53,0.46-1.04,0.56-1.6
		c0.06-0.36-0.14-0.63-0.3-0.16c-0.19,0.54-0.48,1.07-1.01,1.34c-1.18,0.61-3.49,0.74-4.95-0.12c0.55-0.84,1.3-1.98,0.35-3.46
		c-0.46-0.72-1.03-0.46-1.41-0.05c-0.59,0.72-1.74,1.92-0.96,3.43c-1.77,0.64-3.8,0.92-5.65,1.07c1.04-0.71,1.73-1.85,1.71-2.83
		c-0.11-1.95-0.85-1.82-1.1-1.65c-0.63,0.49-1.17,2.46-1.49,3.89c0.01,0.02-4.39,1.81-5.13-1.21c-0.29-1.48-0.39-4.4-0.79-7.66
		c-0.09-0.86-0.29-0.84-0.4-0.53c-0.07,0.25-0.11,0.68-0.18,1.11c0.44,2.29,0.49,4.96,0.76,7.28c0.11,0.87,0.39,3.65,4.91,2.52
		c0.07-0.02,0.09,0.01,0.1,0.33c0.01,0.28,0.21,0.24,0.82,0.23c0.27,0.88,1.1,2.53,2.49,2.48c0.83-0.01,1.64-1.48,0.8-3.12
		c1.23-0.31,2.17-0.36,3.4-0.88c0.6-0.25,0.55-0.24,1.07,0.1c1.08,0.65,3.03,1.21,5.16,0.49c0.63,0.05,2.69,0.43,3.95-0.78
		c-0.05,0.47,0.82,0.81,1.43,0.76c0.27-0.01,0.69-0.9,0.95-1.39c0.57,0.67,1.27,0.86,1.83,0.7c0.67-0.19,0.9-1.6,0.83-3.03
		c-0.1-1.31-0.95-4.24-1.19-6.09c1.12-0.97,0.15-0.97-0.2-2.22c-0.04-0.19-0.09-0.26-0.15-0.26
		C206.03,318.96,205.95,319.09,205.85,319.25z M182.1,317.72c-0.64,0.65-1.83,1.13-2.76,1.11c-0.64-0.02-0.99-0.17-1.31-0.4
		c-0.08-0.06-0.16-0.05-0.22,0.03c-0.22,0.28-0.51,0.92-0.59,1.37c-0.02,0.08-0.03,0.19,0.01,0.21c0.04,0.01,0.1-0.01,0.13-0.07
		c0.09-0.22,0.19-0.6,0.38-0.81c0.03-0.03,0.08-0.01,0.11,0.01c0.4,0.27,1.01,0.42,1.63,0.39c0.87-0.04,2.44-0.57,2.69-1.75
		c0.01-0.06,0.02-0.11,0-0.12C182.16,317.66,182.14,317.68,182.1,317.72z M201.21,318.17c0.1,0.12,0.26,0.37,0.29,0.8
		c0,0.12-0.02,0.3-0.03,0.31c-0.01,0.01-0.24-0.09-0.28-0.11c-0.08-0.04-0.31-0.13-0.71-0.28c-0.16-0.03,0-0.28,0-0.28
		c0.06-0.11,0.16-0.25,0.27-0.37l0.15-0.1C200.99,318.11,201.14,318.08,201.21,318.17z M201.12,317.42c-0.46,0.08-1,0.72-1.23,1.45
		c-0.1,0.33-0.04,0.52,0.14,0.63c0.26,0.16,0.64,0.29,1.09,0.41c-0.52,0.87-2.2,2-2.51,2.18c-0.36,0.21-0.3,0.44,0.16,0.24
		c1.69-0.76,2.53-1.57,2.9-2.29c0.12,0.02,0.22,0.06,0.34,0.09c0.2,0.06,0.16,0.08,0.26-0.24c0.05-0.15,0.09-0.26,0.1-0.33
		l-0.51-0.17l0.05-0.18c0.06-0.58-0.09-1.06-0.14-1.21C201.62,317.54,201.39,317.37,201.12,317.42z M211.55,316.98
		c0.08,0.08,0.17,0.19,0.16,0.3c-0.13,0.29-0.95,0.58-1.26,0.66c-0.06,0.01-0.38,0.08-0.35-0.02c0.19-0.3,0.37-0.62,0.64-0.87
		C211,316.84,211.28,316.74,211.55,316.98z M210.77,316.45c-0.36,0.37-0.85,1.05-1.07,1.49c-0.16-0.01-0.46-0.17-0.6-0.24
		c-0.19-0.09-0.32,0.1-0.41,0.25c-0.18,0.29-0.32,0.58-0.44,0.9l-0.11,0.31c0,0.13,0.06,0.17,0.16,0.07
		c0.22-0.22,0.39-0.82,0.52-0.74c0.75,0.43,1.71,0.28,2.43-0.22c0.56-0.4,0.99-1.01,0.83-1.69c-0.06-0.25-0.33-0.47-0.59-0.49
		C211.22,316.08,210.97,316.24,210.77,316.45z M170.56,328.23c-0.35,0.51-0.83,0.73-1.37,0.22c-0.19-0.18-0.18-0.24-0.1-0.44
		c0.18-0.36,0.43-0.52,0.6-0.53C169.93,327.46,170.35,327.92,170.56,328.23z M169.16,326.44c-0.33,0.36-0.61,1.16-0.63,1.91
		c-0.04,0.84,0.41,1.68,1.21,1.7c0.49,0.01,0.93-0.44,1.2-1.08c0.17,1.03-0.69,2.57-1.88,3.53c-1.41,1.07-2.75,1.2-4.73,1.12
		c-0.32-0.04-0.47,0.28-0.09,0.37c1.77,0.4,4.18,0.47,5.44-0.66c1.04-0.93,1.66-2.37,1.76-4c0.05-1.02-0.27-2.19-1.12-2.93
		C169.85,326.01,169.51,326.04,169.16,326.44z M171.31,321.26c-0.93,0.39-3.52,1.42-4.34,1.77c-0.05,0.02-0.08,0.03-0.1,0.1
		c-0.03,0.1-0.13,0.42-0.18,0.59c-0.02,0.07,0.04,0.07,0.1,0.04c0.11-0.05,0.26-0.13,0.38-0.18c0.64-0.27,3.08-1.27,3.91-1.6
		c0.05-0.02,0.1-0.05,0.12-0.11c0.05-0.12,0.13-0.39,0.17-0.55C171.41,321.26,171.37,321.24,171.31,321.26z M148.91,332.78
		c-0.93,0.39-3.52,1.42-4.34,1.77c-0.05,0.02-0.08,0.03-0.1,0.1c-0.03,0.1-0.13,0.42-0.18,0.59c-0.02,0.07,0.04,0.07,0.1,0.04
		c0.11-0.05,0.26-0.13,0.38-0.18c0.64-0.27,3.08-1.27,3.91-1.6c0.05-0.03,0.1-0.05,0.12-0.11c0.05-0.12,0.13-0.39,0.17-0.55
		C149,332.78,148.97,332.75,148.91,332.78z M135.29,326.37c-0.17,0.28-0.4,0.69-0.53,0.94c-0.05,0.1-0.05,0.17,0.06,0.23
		c0.22,0.12,0.61,0.33,0.89,0.48c0.11,0.06,0.18,0.05,0.24-0.03c0.15-0.25,0.38-0.63,0.52-0.88c0.05-0.09,0.07-0.16-0.02-0.21
		c-0.26-0.16-0.69-0.42-0.95-0.57C135.38,326.28,135.34,326.29,135.29,326.37z M159.66,320.88c-0.09,0.18-0.24,0.57-0.24,0.68
		c0,0.06,0.17,0.25,0.36,0.52c0.61,0.86,0.93,1.8,0.74,3.07c-0.02,0.11-0.05,0.21,0.01,0.21c0.28-0.01,0.44-0.97,0.43-1.48
		c-0.02-1.23-0.52-2.21-1.14-2.98C159.77,320.82,159.71,320.78,159.66,320.88z M162.72,319.83c-0.39,0.71-0.63,1.22-0.04,1.87
		c0.29,1.69,1.23,4.88,1.62,7.74c-1.6,1.21-4.49,1.49-4.64,0.45c0.13,0.01,0.12,0,0.27,0c1.93-2.28,0.11-3.38-0.92-3.42
		c-3.13-0.09-15.29,2.12-16.36,0.13c1.15-1.23,3.22-2.7,4.77-3.06c0.64-0.81,0.61-1.29,0.48-1.25c-1.67,0.44-5.33,2.66-5.9,4.9
		c-0.12,0.57,0.13,0.91,0.83,1.05c7.71,1.38,16.18-2.2,17.14,0.36c-6.9,0.75-17.54,2.75-20.64,0.78c-0.29-0.68-0.4-0.92-0.62-1.45
		c-0.27-0.57-0.44,1.19-0.34,1.35c0.4,1.04,0.77,1.53,0.84,3.17c-0.94,2.05-4.21,2.56-5.54,1.5c-0.87-0.8-0.85-1.47-0.32-3.13
		c0.15-0.43-0.13-0.66-0.32-0.12c-0.36,0.92-0.68,2-0.58,3.06c0.43,2.66,5.33,2.58,6.82-0.02c0.51-1.04,0.47-1.75,0.44-2.72
		c6.6,1.13,13.53-0.79,19.72-1.15c-0.17,0.89-0.05,1.38,0.32,1.64c1,0.65,4.05-0.32,4.55-0.86c1.31-1.55-0.71-6.93-0.94-8.84
		c1.14-1.03-0.16-0.76-0.37-1.96C162.92,319.57,162.82,319.66,162.72,319.83z M165.63,316.56c-0.93,0.39-3.52,1.42-4.34,1.77
		c-0.05,0.02-0.08,0.03-0.1,0.1c-0.03,0.1-0.13,0.42-0.18,0.59c-0.02,0.07,0.04,0.07,0.1,0.04c0.11-0.05,0.26-0.13,0.38-0.18
		c0.64-0.27,3.09-1.27,3.91-1.6c0.05-0.03,0.1-0.05,0.12-0.11c0.05-0.11,0.13-0.39,0.17-0.55
		C165.72,316.56,165.68,316.53,165.63,316.56z M130,330.08c-0.54,0.07-1.28,0.23-1.56,0.25c0.43-0.5,0.7-0.93,0.94-1.41
		C129.57,329.29,129.74,329.55,130,330.08z M129.69,318.75c-0.39,0.55-0.43,0.75-0.36,1.02c0.1,0.33,0.15,0.5,0.32,0.77
		c0.32,2.59,0.59,5.18-0.27,7.2c-0.41-0.69-0.81-1.38-1.33-2.02c-2.02-2.52-3.85-3.83-5.25-4.56c-0.28-0.12,0,1.46,0.18,2.15
		c0.64,0.41,1.28,0.87,1.79,0.86c0.12-0.01,0.19-0.14,0.19-0.37c1.95,1.54,3.12,3.02,4.18,4.65c-0.34,0.73-0.67,1.22-1.24,1.95
		c-0.37,0.05-0.47,0.07-0.93,0.14c-0.09,0.01-0.13,0.83-0.14,1.07c0,0.1,0.01,0.17,0.17,0.17c0.75-0.07,2.85-0.29,3.36-0.43
		c0.56-1.46-0.31-2.19-0.64-3.11c1.14-2.66,0.82-5.35,0.67-7.39c0.36-0.27,0.67-0.73,0.33-1.12c-0.18-0.22-0.41-0.3-0.64-1.12
		c-0.04-0.12-0.09-0.16-0.13-0.16C129.84,318.46,129.74,318.68,129.69,318.75z M130.6,315.41l-0.23,0.43
		c-0.03,0.05-0.05,0.08-0.03,0.13c0.07,0.17,0.12,0.37,0.12,0.48c-0.27,0.26-0.56,0.3-0.77,0.13c-0.14-0.11-0.19-0.32-0.17-0.59
		c0.01-0.2,0.03-0.27-0.14-0.13c-0.23,0.18-0.16,0.17-0.18,0.27c-0.08,0.64-0.36,0.93-0.85,0.97c-0.31,0.02-0.54-0.2-0.32-0.82
		c0.05-0.13-0.05-0.27-0.18,0c-0.47,0.93-0.18,1.45,0.29,1.52c0.39,0.06,0.85-0.16,1.09-0.75c0.18,0.3,0.55,0.39,0.88,0.3
		c0.42-0.11,0.51-0.31,0.63-0.65c0.12-0.33,0.12-0.77-0.04-1.29C130.67,315.32,130.62,315.36,130.6,315.41z M131.73,312.45
		c-0.93,0.39-4.68,1.66-5.5,2.01c-0.05,0.02-0.08,0.03-0.1,0.1c-0.03,0.1-0.13,0.42-0.18,0.59c-0.02,0.07,0.04,0.07,0.1,0.04
		c0.11-0.05,0.26-0.13,0.39-0.18c0.64-0.27,4.24-1.51,5.07-1.84c0.05-0.02,0.1-0.05,0.12-0.11c0.05-0.12,0.13-0.39,0.17-0.55
		C131.82,312.45,131.79,312.42,131.73,312.45z M120.29,332.58c-0.15,0.24-0.35,0.59-0.54,0.88c-0.27-0.18-0.62-0.4-0.86-0.55
		c-0.13-0.08-0.18-0.08-0.26,0.05c-0.14,0.21-0.35,0.54-0.5,0.8c-0.05,0.09-0.04,0.18,0.1,0.26c0.26,0.15,0.66,0.38,0.9,0.51
		c0.08,0.04,0.14,0.02,0.2-0.06c0.13-0.18,0.28-0.45,0.49-0.79c0.36,0.21,0.65,0.4,0.94,0.54c0.08,0.04,0.12,0.03,0.18-0.04
		c0.14-0.18,0.39-0.58,0.5-0.78c0.07-0.14,0.05-0.19-0.07-0.27c-0.19-0.12-0.65-0.41-0.88-0.56
		C120.38,332.5,120.34,332.51,120.29,332.58z M84.52,327.76c-0.17,0.28-0.4,0.69-0.53,0.94c-0.05,0.1-0.05,0.17,0.06,0.23
		c0.22,0.12,0.61,0.33,0.89,0.48c0.12,0.06,0.18,0.05,0.24-0.03c0.15-0.25,0.38-0.63,0.52-0.88c0.05-0.09,0.07-0.16-0.02-0.21
		c-0.26-0.16-0.69-0.42-0.95-0.57C84.62,327.66,84.57,327.68,84.52,327.76z M90.76,326.42c-0.06,0.27-0.17,0.66-0.22,0.93
		c-0.02,0.1-0.04,0.2,0.03,0.31c0.32,0.5,0.77,0.81,1.01,1.67c-2.81,3.53-9.21,4.02-12.8,2.62c-1.18-0.46-2.34-1.09-3.32-2.06
		c-0.33-0.33-0.41-0.08-0.26,0.16c0.9,1.53,1.93,2.51,3.08,3.08c3.69,1.8,10.93,0.65,13.27-2.63c0.25-0.35,0.57-1.09,0.58-1.71
		c0.02-0.96-0.48-1.72-1.12-2.42c-0.06-0.07-0.11-0.09-0.15-0.08C90.81,326.31,90.77,326.35,90.76,326.42z M86.92,323.94
		c-0.93,0.39-5.12,1.74-5.93,2.09c-0.05,0.02-0.08,0.03-0.1,0.1c-0.03,0.1-0.18,0.48-0.22,0.65c-0.02,0.07,0.04,0.07,0.1,0.04
		c0.11-0.05,0.3-0.15,0.43-0.2c0.68-0.24,4.63-1.57,5.46-1.89c0.05-0.02,0.1-0.05,0.12-0.11c0.05-0.12,0.17-0.45,0.22-0.61
		C87.01,323.94,86.98,323.91,86.92,323.94z M112.5,322.54c-0.03,0.08-0.09,0.2-0.12,0.28c-0.04,0.14,0.04,0.24,0.11,0.13
		c0.08-0.13,0.19-0.25,0.32-0.33c0.31-0.19,0.65-0.26,0.99-0.23c0.31,0.03,0.89,0.25,0.89,0.28c0,0.07-1.35,0.73-1.56,0.87
		c-0.09,0.06-0.2,0.16-0.18,0.27c0.02,0.08,0.15,0.1,0.25,0.06c0.53-0.19,0.72-0.18,1.15-0.36c0.58-0.25,0.75-0.55,0.85-0.58
		c0.04-0.01,0.09-0.01,0.14-0.05c0.17-0.16,0.31-0.57,0.32-0.71c-0.02-0.11-0.41-0.15-0.52-0.17c-0.38-0.09-0.75-0.29-1.14-0.32
		C113.39,321.61,112.82,321.89,112.5,322.54z M95.61,330.5c-0.72,0.18-1.55-0.25-1.47-0.48c0.12-0.31,0.29-0.53,0.51-0.54
		c0.01,0,0.02,0,0.02,0C94.94,329.48,95.26,329.77,95.61,330.5z M100.62,330.19c-0.7,0.05-2.1-0.55-1.81-0.81
		c0.4-0.4,0.66-0.58,0.85-0.58C100.03,328.79,100.16,329.4,100.62,330.19z M104.15,321.13c-0.07,0-0.17,0.28-0.33,1.33
		c-0.02,0.14,1.01,6.41,1.01,6.41c-0.37,1.05-1.63,1.21-2.57,1.03c-0.57-0.13-1.15-0.25-1.86-1.39c-0.55-1.06-1.21-0.06-1.5,0.26
		c-0.55,0.71-1.24,1.41-2.54,1.67c-0.14-0.79-0.54-1.39-0.83-1.82c-0.37-0.46-0.75-0.78-1.4,0.17c-0.09,0.14-0.27,0.26-0.47,1.5
		c-0.08,0.73,0.17,1.06,0.68,1.31c0.42,0.19,1.09,0.12,1.8,0.04c-1.68,3.49-5.06,3.75-7.46,2.8c-0.25-0.09-0.54,0.25-0.09,0.42
		c3.85,1.68,6.87,1.05,8.08-3.41c0.86-0.12,1.56-0.78,1.77-1.45c0.22,0.47-0.17,1.31,2.86,1.62c0.32,0.02,0.28-0.11,0.34-0.69
		c0.99,0.28,2.95,0.4,3.36-1.37c0.31,1.02,0.64,1.88,2.26,2.42c2.52,0.72,6,0.27,9.36-1.46c1.56,1.34,3.39,1.02,3.96-0.3
		c0.25-0.6,0.4-1.4,0.05-2.38c-0.25-0.66-0.84-1.5-1.18-1.88c-0.51-0.62-0.53,1.09-0.39,1.23c0.45,0.59,0.88,0.92,1.3,2.16
		c-0.35,0.87-1.5,1.14-2.83,0.61c0.32-0.23,0.85-0.97,0.81-1.3c-0.27-1.29-3.73-1.67-4.31,0.38c-0.03,0.12-0.21,0.47,0.21,0.31
		c0.23-0.11,1.03-0.1,1.72,0.39c-1.42,0.86-5.98,2.09-8.39,1.08c-1.32-0.57-1.95-1.2-2.23-2.93c-0.27-1.29-0.67-4.36-1.09-6.52
		C104.23,321.27,104.2,321.14,104.15,321.13L104.15,321.13z M99.14,321.58c0.11,0.12,0.26,0.37,0.29,0.8c0,0.12-0.02,0.3-0.03,0.31
		c-0.01,0.01-0.24-0.09-0.28-0.11c-0.08-0.04-0.31-0.13-0.71-0.28c-0.16-0.03,0-0.28,0-0.28c0.06-0.11,0.16-0.25,0.27-0.37l0.15-0.1
		C98.92,321.52,99.07,321.49,99.14,321.58z M99.05,320.83c-0.46,0.08-1,0.72-1.22,1.45c-0.1,0.33-0.04,0.52,0.14,0.63
		c0.26,0.16,0.64,0.29,1.09,0.41c-0.52,0.87-2.2,2-2.51,2.18c-0.36,0.21-0.3,0.44,0.16,0.24c1.69-0.76,2.52-1.57,2.9-2.29
		c0.12,0.02,0.22,0.06,0.34,0.09c0.2,0.05,0.16,0.08,0.26-0.24c0.05-0.15,0.09-0.26,0.1-0.33l-0.51-0.17l0.05-0.18
		c0.06-0.58-0.09-1.06-0.14-1.21C99.55,320.95,99.32,320.78,99.05,320.83z M121.21,320.55c-0.93,0.39-3.52,1.42-4.34,1.77
		c-0.05,0.02-0.08,0.03-0.1,0.1c-0.03,0.1-0.13,0.42-0.18,0.59c-0.02,0.07,0.04,0.07,0.1,0.04c0.11-0.04,0.26-0.13,0.38-0.18
		c0.64-0.27,3.08-1.27,3.91-1.6c0.05-0.03,0.1-0.05,0.12-0.11c0.05-0.12,0.13-0.39,0.17-0.55
		C121.3,320.55,121.26,320.52,121.21,320.55z M105.93,318.02c-0.93,0.39-3.52,1.42-4.34,1.77c-0.05,0.02-0.08,0.03-0.1,0.1
		c-0.03,0.1-0.13,0.42-0.18,0.59c-0.02,0.07,0.04,0.07,0.1,0.05c0.11-0.05,0.26-0.13,0.38-0.18c0.64-0.27,3.08-1.27,3.91-1.6
		c0.05-0.02,0.1-0.05,0.12-0.11c0.05-0.12,0.13-0.39,0.17-0.55C106.02,318.01,105.99,317.99,105.93,318.02z"/>
</g>
</svg>
