<?xml version="1.0" encoding="iso-8859-1"?>
<!-- Generator: Adobe Illustrator 25.2.1, SVG Export Plug-In . SVG Version: 6.00 Build 0)  -->
<svg version="1.1" xmlns="http://www.w3.org/2000/svg" xmlns:xlink="http://www.w3.org/1999/xlink" x="0px" y="0px"
	 viewBox="0 0 293.23 484.99" enable-background="new 0 0 293.23 484.99" xml:space="preserve">
<g id="Ornaments">
	<path fill-rule="evenodd" clip-rule="evenodd" fill="#C0E2CA" d="M217.78,77.89c-0.06-0.01-0.12-0.02-0.18-0.02
		c-0.52,0-0.96,0.38-1.03,0.88c-0.5,0.15-0.87,0.6-0.87,1.14c0,0.07,0.01,0.15,0.02,0.22c0,0.01,0,0.01,0.01,0.01
		c-0.87,0.32-1.84,0.99-2.58,2.25c-0.53,0.9-0.89,2.1-0.94,3.63c-0.01,0.06-0.01,0.41,0,0.46c0.06,1.52,0.41,2.72,0.94,3.63
		c0.62,1.06,1.4,1.69,2.15,2.06c0.04,0.57,0.51,1.03,1.1,1.03c0.2,0.31,0.54,0.52,0.94,0.52c0.15,0,0.29-0.03,0.43-0.09
		c0.06,0.08,0.12,0.15,0.2,0.21c0.05,0.04,0.15,0.1,0.18,0.12l0.01,0c0.05,0.02,0.09,0.05,0.15,0.07c0.03,0.01,0.07,0.02,0.11,0.03
		c0.01,0,0.01,0,0.02,0.01c0.02,0,0.03,0.01,0.05,0.01c0.06,0.01,0.12,0.02,0.17,0.02c0.08,0,0.14-0.01,0.18-0.01l0.01,0
		c0.01,0,0.01,0,0.01,0l0,0c0.04-0.01,0.06-0.01,0.08-0.02l0.01,0c0.04-0.01,0.08-0.02,0.11-0.03c0.05-0.02,0.09-0.04,0.14-0.06
		c0.02-0.01,0.13-0.08,0.17-0.11c0.09-0.08,0.16-0.15,0.22-0.23c0.13,0.06,0.27,0.09,0.42,0.09c0.4,0,0.74-0.21,0.94-0.52
		c0.59,0,1.06-0.47,1.1-1.05c0.74-0.37,1.5-1.01,2.12-2.04c0.52-0.9,0.88-2.09,0.94-3.61c0,0,0,0,0,0c0,0,0,0,0,0
		c0-0.02,0-0.04,0.01-0.08c0-0.04,0-0.1,0-0.16c0-0.1,0-0.21-0.01-0.24c-0.06-1.52-0.41-2.72-0.94-3.62
		c-0.73-1.24-1.68-1.91-2.54-2.24c0.01-0.01,0.01-0.02,0.01-0.03c0.01-0.07,0.02-0.15,0.02-0.22c0-0.55-0.37-0.99-0.87-1.14
		c-0.08-0.5-0.51-0.89-1.04-0.89c-0.07,0-0.13,0.01-0.2,0.03c-0.07-0.48-0.42-0.88-0.88-0.88C218.21,77.01,217.86,77.4,217.78,77.89
		z"/>
	<path fill-rule="evenodd" clip-rule="evenodd" fill="#C0E2CA" d="M89.74,105.28c-0.06-0.01-0.12-0.02-0.18-0.02
		c-0.52,0-0.96,0.38-1.03,0.88c-0.5,0.15-0.87,0.6-0.87,1.15c0,0.07,0.01,0.15,0.02,0.22c0,0.01,0,0.01,0.01,0.01
		c-0.87,0.32-1.84,0.99-2.58,2.25c-0.53,0.9-0.89,2.1-0.94,3.63c-0.01,0.06-0.01,0.41,0,0.46c0.06,1.52,0.41,2.72,0.94,3.63
		c0.62,1.06,1.4,1.69,2.15,2.06c0.04,0.57,0.51,1.03,1.1,1.03c0.2,0.31,0.54,0.52,0.94,0.52c0.15,0,0.29-0.03,0.43-0.09
		c0.06,0.08,0.12,0.15,0.2,0.21c0.05,0.04,0.15,0.1,0.18,0.12l0.01,0c0.05,0.02,0.1,0.05,0.15,0.07c0.03,0.01,0.07,0.02,0.11,0.03
		c0.01,0,0.01,0,0.02,0c0.02,0,0.03,0.01,0.05,0.01c0.06,0.01,0.12,0.02,0.17,0.02c0.08,0,0.14-0.01,0.18-0.01l0.01,0
		c0.01,0,0.01,0,0.01,0l0,0c0.04-0.01,0.06-0.01,0.08-0.02l0.01,0c0.04-0.01,0.07-0.02,0.11-0.03c0.05-0.02,0.09-0.04,0.14-0.06
		c0.02-0.01,0.13-0.08,0.17-0.11c0.09-0.08,0.16-0.15,0.22-0.23c0.13,0.06,0.27,0.09,0.42,0.09c0.39,0,0.74-0.21,0.94-0.52
		c0.59,0,1.06-0.47,1.1-1.05c0.74-0.37,1.5-1.01,2.12-2.04c0.52-0.9,0.88-2.09,0.94-3.61c0,0,0,0,0,0c0,0,0,0,0,0
		c0-0.02,0-0.04,0.01-0.08c0-0.04,0-0.1,0-0.16c0-0.1,0-0.21-0.01-0.24c-0.06-1.52-0.41-2.72-0.94-3.62
		c-0.73-1.24-1.68-1.91-2.54-2.24c0.01-0.01,0.01-0.02,0.01-0.03c0.01-0.07,0.02-0.15,0.02-0.22c0-0.55-0.37-0.99-0.87-1.14
		c-0.08-0.5-0.51-0.89-1.04-0.89c-0.07,0-0.13,0.01-0.2,0.03c-0.07-0.48-0.42-0.88-0.88-0.88C90.16,104.4,89.81,104.79,89.74,105.28
		z"/>
	<path fill-rule="evenodd" clip-rule="evenodd" fill="#C0E2CA" d="M29.77,132.17c-0.06-0.01-0.12-0.02-0.18-0.02
		c-0.52,0-0.96,0.38-1.03,0.88c-0.5,0.15-0.87,0.6-0.87,1.15c0,0.07,0.01,0.15,0.02,0.22c0,0.01,0,0.01,0.01,0.01
		c-0.87,0.32-1.84,0.99-2.58,2.25c-0.53,0.9-0.89,2.1-0.94,3.63c-0.01,0.06-0.01,0.41,0,0.46c0.06,1.52,0.41,2.72,0.94,3.63
		c0.62,1.06,1.4,1.69,2.15,2.06c0.05,0.57,0.51,1.03,1.1,1.03c0.2,0.31,0.54,0.52,0.94,0.52c0.15,0,0.29-0.03,0.42-0.09
		c0.06,0.08,0.12,0.15,0.2,0.21c0.05,0.04,0.15,0.1,0.18,0.12l0.01,0c0.05,0.02,0.09,0.05,0.15,0.07c0.03,0.01,0.07,0.02,0.11,0.03
		c0.01,0,0.01,0,0.02,0c0.02,0,0.03,0.01,0.05,0.01c0.06,0.01,0.12,0.02,0.17,0.02c0.08,0,0.14-0.01,0.18-0.01l0.01,0
		c0.01,0,0.01,0,0.01,0h0c0.04-0.01,0.06-0.01,0.07-0.02l0.01,0c0.04-0.01,0.08-0.02,0.11-0.03c0.05-0.02,0.09-0.04,0.14-0.06
		c0.02-0.01,0.13-0.08,0.17-0.11c0.09-0.08,0.16-0.15,0.22-0.23c0.13,0.06,0.27,0.09,0.43,0.09c0.39,0,0.74-0.21,0.94-0.52
		c0.59,0,1.07-0.47,1.1-1.05c0.74-0.37,1.5-1.01,2.12-2.04c0.52-0.9,0.88-2.09,0.94-3.61c0,0,0,0,0,0c0,0,0,0,0,0
		c0-0.02,0-0.04,0-0.08c0-0.04,0-0.1,0-0.16c0-0.1,0-0.21-0.01-0.24c-0.06-1.52-0.41-2.72-0.94-3.62c-0.73-1.24-1.68-1.91-2.53-2.24
		c0-0.01,0.01-0.02,0.01-0.03c0.01-0.07,0.02-0.15,0.02-0.22c0-0.55-0.37-0.99-0.87-1.14c-0.08-0.5-0.51-0.89-1.03-0.89
		c-0.07,0-0.13,0.01-0.2,0.03c-0.07-0.48-0.41-0.88-0.88-0.88C30.2,131.29,29.85,131.69,29.77,132.17z"/>
	<path fill-rule="evenodd" clip-rule="evenodd" fill="#C0E2CA" d="M82.88,212.72c-0.06-0.01-0.12-0.02-0.18-0.02
		c-0.52,0-0.96,0.38-1.03,0.88c-0.5,0.15-0.87,0.6-0.87,1.14c0,0.07,0.01,0.15,0.02,0.22c0,0.01,0,0.01,0.01,0.01
		c-0.87,0.32-1.84,0.99-2.58,2.25c-0.53,0.9-0.89,2.1-0.94,3.63c-0.01,0.06-0.01,0.41,0,0.46c0.06,1.52,0.41,2.72,0.94,3.63
		c0.62,1.06,1.4,1.69,2.15,2.06c0.04,0.57,0.51,1.03,1.1,1.03c0.2,0.31,0.54,0.52,0.94,0.52c0.15,0,0.29-0.03,0.43-0.09
		c0.06,0.08,0.12,0.15,0.2,0.21c0.05,0.04,0.15,0.1,0.18,0.12l0.01,0c0.05,0.02,0.09,0.05,0.15,0.07c0.03,0.01,0.07,0.02,0.11,0.03
		c0.01,0,0.01,0,0.02,0c0.02,0,0.03,0.01,0.05,0.01c0.06,0.01,0.12,0.02,0.17,0.02c0.08,0,0.14-0.01,0.18-0.01l0.01,0
		c0.01,0,0.01,0,0.01,0l0,0c0.04-0.01,0.06-0.01,0.08-0.02l0.01,0c0.04-0.01,0.07-0.02,0.11-0.03c0.05-0.02,0.09-0.04,0.14-0.06
		c0.02-0.01,0.13-0.08,0.17-0.11c0.09-0.08,0.16-0.15,0.22-0.23c0.13,0.06,0.27,0.09,0.42,0.09c0.4,0,0.74-0.21,0.94-0.52
		c0.59,0,1.06-0.47,1.1-1.05c0.74-0.37,1.5-1.01,2.12-2.04c0.52-0.9,0.88-2.09,0.93-3.61c0,0,0,0,0,0c0,0,0,0,0,0
		c0-0.02,0-0.04,0.01-0.08c0-0.04,0-0.1,0-0.16c0-0.1,0-0.21-0.01-0.24c-0.06-1.52-0.41-2.72-0.94-3.62
		c-0.73-1.24-1.68-1.91-2.54-2.24c0.01-0.01,0.01-0.02,0.01-0.03c0.01-0.07,0.02-0.15,0.02-0.22c0-0.55-0.37-0.99-0.87-1.14
		c-0.08-0.5-0.51-0.89-1.03-0.89c-0.07,0-0.13,0.01-0.2,0.03c-0.07-0.48-0.41-0.88-0.88-0.88C83.3,211.84,82.95,212.24,82.88,212.72
		z"/>
	<path fill-rule="evenodd" clip-rule="evenodd" fill="#C0E2CA" d="M204.45,185.64c-0.06-0.01-0.12-0.02-0.18-0.02
		c-0.52,0-0.96,0.38-1.04,0.88c-0.5,0.15-0.87,0.6-0.87,1.15c0,0.07,0.01,0.15,0.02,0.22c0,0.01,0,0.01,0.01,0.01
		c-0.87,0.32-1.84,0.99-2.58,2.25c-0.53,0.9-0.89,2.1-0.94,3.63c-0.01,0.06-0.01,0.41,0,0.46c0.06,1.52,0.41,2.72,0.94,3.63
		c0.62,1.06,1.4,1.69,2.15,2.06c0.04,0.57,0.51,1.03,1.1,1.03c0.2,0.31,0.54,0.52,0.94,0.52c0.15,0,0.29-0.03,0.42-0.09
		c0.06,0.08,0.12,0.15,0.2,0.21c0.05,0.04,0.15,0.1,0.18,0.12l0.01,0c0.05,0.02,0.09,0.05,0.15,0.07c0.03,0.01,0.07,0.02,0.11,0.03
		c0,0,0.01,0,0.02,0.01c0.01,0,0.03,0.01,0.05,0.01c0.06,0.01,0.12,0.02,0.17,0.02c0.08,0,0.14-0.01,0.18-0.01l0.01,0
		c0.01,0,0.01,0,0.01,0l0,0c0.04-0.01,0.06-0.01,0.08-0.02l0.01,0c0.04-0.01,0.07-0.02,0.11-0.03c0.05-0.02,0.09-0.04,0.14-0.06
		c0.02-0.01,0.13-0.08,0.17-0.11c0.09-0.08,0.16-0.15,0.22-0.23c0.13,0.06,0.27,0.09,0.42,0.09c0.39,0,0.74-0.21,0.94-0.52
		c0.59,0,1.06-0.47,1.1-1.05c0.74-0.37,1.5-1.01,2.12-2.04c0.52-0.9,0.88-2.09,0.93-3.61c0,0,0,0,0,0c0,0,0,0,0,0
		c0-0.02,0-0.04,0-0.08c0-0.04,0-0.1,0-0.16c0-0.1,0-0.21-0.01-0.24c-0.06-1.52-0.41-2.72-0.94-3.62c-0.73-1.24-1.68-1.91-2.54-2.24
		c0-0.01,0.01-0.02,0.01-0.03c0.01-0.07,0.02-0.15,0.02-0.22c0-0.55-0.37-0.99-0.87-1.14c-0.08-0.5-0.51-0.89-1.04-0.89
		c-0.07,0-0.13,0.01-0.2,0.03c-0.07-0.48-0.41-0.88-0.88-0.88C204.88,184.77,204.52,185.16,204.45,185.64z"/>
	<path fill-rule="evenodd" clip-rule="evenodd" fill="#C0E2CA" d="M68.81,239.72c-0.06-0.01-0.12-0.02-0.18-0.02
		c-0.52,0-0.96,0.38-1.03,0.88c-0.5,0.15-0.87,0.6-0.87,1.15c0,0.07,0.01,0.15,0.02,0.22c0,0.01,0,0.01,0.01,0.01
		c-0.87,0.32-1.84,0.99-2.58,2.25c-0.53,0.9-0.89,2.1-0.94,3.63c-0.01,0.06-0.01,0.41,0,0.46c0.06,1.53,0.41,2.72,0.94,3.63
		c0.62,1.06,1.4,1.69,2.15,2.06c0.04,0.57,0.51,1.03,1.1,1.03c0.2,0.31,0.54,0.52,0.94,0.52c0.15,0,0.29-0.03,0.43-0.09
		c0.06,0.08,0.12,0.15,0.2,0.21c0.05,0.04,0.15,0.1,0.18,0.12l0.01,0c0.05,0.03,0.09,0.05,0.15,0.07c0.03,0.01,0.07,0.02,0.11,0.03
		c0.01,0,0.01,0,0.02,0c0.02,0,0.03,0.01,0.05,0.01c0.06,0.01,0.12,0.02,0.17,0.02c0.08,0,0.14-0.01,0.18-0.01l0.01,0
		c0.01,0,0.01,0,0.01,0h0c0.04-0.01,0.06-0.01,0.08-0.02l0.01,0c0.04-0.01,0.07-0.02,0.11-0.03c0.05-0.02,0.09-0.04,0.14-0.06
		c0.02-0.01,0.13-0.08,0.17-0.11c0.09-0.08,0.16-0.15,0.22-0.23c0.13,0.05,0.27,0.09,0.42,0.09c0.4,0,0.74-0.21,0.94-0.52
		c0.59,0,1.06-0.47,1.1-1.05c0.74-0.37,1.5-1,2.12-2.04c0.52-0.9,0.88-2.09,0.94-3.61c0,0,0,0,0,0c0,0,0,0,0,0
		c0-0.01,0-0.04,0.01-0.08c0-0.04,0-0.1,0-0.16c0-0.1,0-0.21-0.01-0.24c-0.06-1.52-0.41-2.72-0.94-3.62
		c-0.73-1.24-1.68-1.91-2.54-2.24c0.01-0.01,0.01-0.02,0.01-0.03c0.01-0.07,0.02-0.15,0.02-0.22c0-0.55-0.37-0.99-0.87-1.14
		c-0.08-0.5-0.51-0.89-1.03-0.89c-0.07,0-0.13,0.01-0.2,0.03c-0.07-0.48-0.41-0.88-0.88-0.88
		C69.23,238.84,68.88,239.24,68.81,239.72z"/>
	<path fill-rule="evenodd" clip-rule="evenodd" fill="#C0E2CA" d="M91.6,266.6c-0.06-0.01-0.12-0.02-0.18-0.02
		c-0.52,0-0.96,0.38-1.03,0.88c-0.5,0.15-0.87,0.6-0.87,1.15c0,0.07,0.01,0.15,0.02,0.22c0,0.01,0,0.01,0.01,0.01
		c-0.87,0.32-1.84,0.99-2.58,2.25c-0.53,0.9-0.89,2.1-0.94,3.63c-0.01,0.06-0.01,0.41,0,0.46c0.06,1.52,0.41,2.72,0.94,3.63
		c0.62,1.06,1.4,1.69,2.15,2.06c0.05,0.57,0.51,1.03,1.1,1.03c0.2,0.31,0.54,0.52,0.94,0.52c0.15,0,0.29-0.03,0.43-0.09
		c0.06,0.08,0.12,0.15,0.2,0.21c0.05,0.04,0.15,0.1,0.18,0.12l0.01,0c0.05,0.02,0.09,0.05,0.15,0.07c0.03,0.01,0.07,0.02,0.11,0.03
		c0.01,0,0.01,0,0.02,0.01c0.02,0,0.03,0.01,0.05,0.01c0.06,0.01,0.12,0.02,0.17,0.02c0.08,0,0.14-0.01,0.18-0.01l0.01,0
		c0.01,0,0.01,0,0.01,0l0,0c0.04-0.01,0.06-0.01,0.07-0.02l0.01,0c0.04-0.01,0.08-0.02,0.11-0.03c0.05-0.02,0.09-0.04,0.14-0.06
		c0.02-0.01,0.13-0.08,0.17-0.11c0.09-0.08,0.16-0.15,0.22-0.23c0.13,0.06,0.27,0.09,0.42,0.09c0.39,0,0.74-0.21,0.94-0.52
		c0.59,0,1.06-0.47,1.1-1.05c0.74-0.37,1.5-1.01,2.12-2.04c0.52-0.9,0.88-2.09,0.94-3.61c0,0,0,0,0,0c0,0,0,0,0,0
		c0-0.02,0-0.04,0-0.08c0-0.04,0-0.1,0-0.16c0-0.1,0-0.21-0.01-0.24c-0.06-1.52-0.41-2.72-0.94-3.62c-0.73-1.24-1.68-1.91-2.54-2.24
		c0-0.01,0.01-0.02,0.01-0.03c0.01-0.07,0.02-0.15,0.02-0.22c0-0.55-0.37-0.99-0.87-1.14c-0.08-0.5-0.51-0.89-1.03-0.89
		c-0.07,0-0.13,0.01-0.2,0.03c-0.07-0.48-0.41-0.88-0.88-0.88C92.03,265.72,91.68,266.12,91.6,266.6z"/>
	<path fill-rule="evenodd" clip-rule="evenodd" fill="#C0E2CA" d="M66.41,320.94c-0.06-0.01-0.12-0.02-0.18-0.02
		c-0.52,0-0.96,0.38-1.03,0.88c-0.5,0.15-0.87,0.6-0.87,1.15c0,0.07,0.01,0.15,0.02,0.22c0,0.01,0,0.01,0.01,0.01
		c-0.87,0.32-1.84,0.99-2.58,2.25c-0.53,0.9-0.89,2.1-0.94,3.63c-0.01,0.06-0.01,0.4,0,0.46c0.06,1.53,0.41,2.72,0.94,3.63
		c0.62,1.05,1.4,1.69,2.15,2.06c0.05,0.57,0.51,1.03,1.1,1.03c0.2,0.31,0.54,0.52,0.94,0.52c0.15,0,0.29-0.03,0.43-0.09
		c0.06,0.08,0.12,0.15,0.2,0.21c0.05,0.04,0.15,0.1,0.18,0.12l0.01,0c0.05,0.02,0.09,0.05,0.15,0.07c0.03,0.01,0.07,0.02,0.11,0.03
		c0.01,0,0.01,0,0.02,0c0.02,0,0.03,0.01,0.05,0.01c0.06,0.01,0.12,0.02,0.17,0.02c0.08,0,0.14-0.01,0.18-0.01h0.01
		c0.01,0,0.01,0,0.01,0h0c0.04-0.01,0.06-0.01,0.07-0.02l0.01,0c0.04-0.01,0.08-0.02,0.11-0.03c0.05-0.02,0.09-0.04,0.14-0.06
		c0.02-0.01,0.13-0.08,0.17-0.11c0.09-0.08,0.16-0.15,0.22-0.23c0.13,0.06,0.27,0.09,0.42,0.09c0.4,0,0.74-0.21,0.94-0.52
		c0.59,0,1.07-0.47,1.1-1.05c0.74-0.37,1.5-1.01,2.12-2.04c0.52-0.9,0.88-2.09,0.93-3.61c0,0,0,0,0,0c0,0,0,0,0,0
		c0-0.02,0-0.04,0-0.08c0-0.04,0-0.1,0-0.16c0-0.1,0-0.21-0.01-0.24c-0.06-1.52-0.41-2.72-0.94-3.62c-0.73-1.24-1.68-1.91-2.54-2.24
		c0.01-0.01,0.01-0.02,0.01-0.03c0.01-0.07,0.02-0.15,0.02-0.22c0-0.55-0.37-0.99-0.87-1.14c-0.08-0.5-0.51-0.89-1.03-0.89
		c-0.07,0-0.13,0.01-0.2,0.03c-0.07-0.48-0.41-0.88-0.88-0.88C66.84,320.06,66.49,320.45,66.41,320.94z"/>
	<path fill-rule="evenodd" clip-rule="evenodd" fill="#C0E2CA" d="M141.86,374.11c-0.06-0.01-0.12-0.02-0.18-0.02
		c-0.52,0-0.96,0.38-1.03,0.88c-0.5,0.15-0.87,0.6-0.87,1.15c0,0.07,0.01,0.15,0.02,0.22c0,0.01,0,0.01,0.01,0.01
		c-0.87,0.32-1.84,0.99-2.58,2.25c-0.53,0.9-0.89,2.1-0.94,3.63c-0.01,0.06-0.01,0.41,0,0.46c0.06,1.52,0.41,2.72,0.94,3.63
		c0.62,1.06,1.4,1.69,2.15,2.06c0.04,0.57,0.51,1.03,1.1,1.03c0.2,0.31,0.54,0.52,0.94,0.52c0.15,0,0.29-0.03,0.43-0.09
		c0.06,0.08,0.12,0.15,0.2,0.21c0.05,0.04,0.15,0.1,0.18,0.12l0.01,0c0.05,0.02,0.1,0.05,0.15,0.07c0.03,0.01,0.07,0.02,0.11,0.03
		c0.01,0,0.01,0,0.02,0c0.02,0,0.03,0.01,0.05,0.01c0.06,0.01,0.12,0.02,0.17,0.02c0.08,0,0.14-0.01,0.18-0.01l0.01,0
		c0.01,0,0.01,0,0.01,0h0c0.04-0.01,0.06-0.01,0.08-0.02l0.01,0c0.04-0.01,0.07-0.02,0.11-0.03c0.05-0.02,0.09-0.04,0.14-0.06
		c0.02-0.01,0.13-0.08,0.17-0.11c0.09-0.08,0.16-0.15,0.22-0.23c0.13,0.06,0.27,0.09,0.42,0.09c0.4,0,0.74-0.21,0.94-0.52
		c0.59,0,1.06-0.47,1.1-1.05c0.74-0.37,1.5-1.01,2.12-2.05c0.52-0.9,0.88-2.09,0.93-3.61c0,0,0,0,0,0c0,0,0,0,0,0
		c0-0.02,0-0.04,0.01-0.08c0-0.04,0-0.1,0-0.16c0-0.1,0-0.21-0.01-0.24c-0.06-1.52-0.41-2.72-0.94-3.62
		c-0.73-1.24-1.68-1.91-2.54-2.24c0.01-0.01,0.01-0.02,0.01-0.03c0.01-0.07,0.02-0.15,0.02-0.22c0-0.55-0.37-0.99-0.87-1.14
		c-0.08-0.5-0.51-0.89-1.04-0.89c-0.07,0-0.13,0.01-0.2,0.03c-0.07-0.48-0.41-0.88-0.88-0.88
		C142.29,373.24,141.94,373.63,141.86,374.11z"/>
	<path fill-rule="evenodd" clip-rule="evenodd" fill="#C0E2CA" d="M168.73,401.18c-0.06-0.01-0.12-0.02-0.18-0.02
		c-0.52,0-0.96,0.38-1.03,0.88c-0.5,0.15-0.87,0.6-0.87,1.14c0,0.07,0.01,0.15,0.02,0.22c0,0.01,0,0.01,0.01,0.01
		c-0.87,0.32-1.84,0.99-2.58,2.25c-0.53,0.9-0.89,2.1-0.94,3.63c-0.01,0.06-0.01,0.41,0,0.46c0.06,1.53,0.41,2.72,0.94,3.63
		c0.62,1.06,1.4,1.69,2.15,2.06c0.04,0.57,0.51,1.03,1.1,1.03c0.2,0.31,0.54,0.52,0.94,0.52c0.15,0,0.29-0.03,0.43-0.09
		c0.06,0.08,0.12,0.15,0.2,0.21c0.05,0.04,0.15,0.1,0.18,0.12l0.01,0c0.05,0.02,0.09,0.05,0.15,0.07c0.03,0.01,0.07,0.02,0.11,0.03
		c0.01,0,0.01,0,0.02,0c0.02,0,0.03,0.01,0.05,0.01c0.06,0.01,0.12,0.02,0.17,0.02c0.08,0,0.14-0.01,0.18-0.01l0.01,0
		c0.01,0,0.01,0,0.01,0h0c0.04-0.01,0.06-0.01,0.07-0.02l0.01,0c0.04-0.01,0.08-0.02,0.11-0.03c0.05-0.02,0.09-0.04,0.14-0.06
		c0.02-0.01,0.13-0.08,0.17-0.11c0.09-0.08,0.16-0.15,0.22-0.23c0.13,0.06,0.27,0.09,0.43,0.09c0.39,0,0.74-0.21,0.94-0.52
		c0.59,0,1.06-0.47,1.1-1.05c0.74-0.37,1.5-1.01,2.12-2.04c0.52-0.9,0.88-2.09,0.94-3.61c0,0,0,0,0,0c0,0,0,0,0,0
		c0-0.01,0-0.04,0-0.08c0-0.04,0-0.1,0-0.16c0-0.1,0-0.21-0.01-0.24c-0.06-1.52-0.41-2.72-0.94-3.62c-0.73-1.24-1.68-1.91-2.53-2.24
		c0-0.01,0.01-0.02,0.01-0.03c0.01-0.07,0.02-0.15,0.02-0.22c0-0.55-0.37-0.99-0.87-1.14c-0.08-0.5-0.51-0.89-1.04-0.89
		c-0.07,0-0.13,0.01-0.2,0.03c-0.07-0.48-0.41-0.88-0.88-0.88C169.15,400.3,168.8,400.69,168.73,401.18z"/>
	<path fill-rule="evenodd" clip-rule="evenodd" fill="#C0E2CA" d="M29.79,427.33c-0.06-0.01-0.12-0.02-0.18-0.02
		c-0.52,0-0.96,0.38-1.03,0.88c-0.5,0.15-0.87,0.6-0.87,1.14c0,0.07,0.01,0.15,0.02,0.22c0,0.01,0,0.01,0.01,0.01
		c-0.87,0.32-1.84,0.99-2.58,2.25c-0.53,0.9-0.89,2.1-0.94,3.63c-0.01,0.06-0.01,0.41,0,0.46c0.06,1.53,0.41,2.72,0.94,3.63
		c0.62,1.06,1.4,1.69,2.15,2.06c0.04,0.57,0.51,1.03,1.1,1.03c0.2,0.31,0.54,0.52,0.94,0.52c0.15,0,0.29-0.03,0.43-0.09
		c0.06,0.08,0.12,0.15,0.2,0.21c0.05,0.04,0.15,0.1,0.18,0.12l0.01,0c0.05,0.02,0.09,0.05,0.15,0.07c0.03,0.01,0.07,0.02,0.11,0.03
		c0.01,0,0.01,0,0.02,0c0.02,0,0.03,0.01,0.05,0.01c0.06,0.01,0.12,0.02,0.17,0.02c0.08,0,0.14-0.01,0.18-0.01h0.01
		c0.01,0,0.01,0,0.01,0h0c0.04-0.01,0.06-0.01,0.07-0.02l0.01,0c0.04-0.01,0.08-0.02,0.11-0.03c0.05-0.02,0.09-0.04,0.14-0.06
		c0.02-0.01,0.13-0.08,0.17-0.11c0.09-0.08,0.16-0.15,0.22-0.23c0.13,0.06,0.27,0.09,0.43,0.09c0.4,0,0.74-0.21,0.94-0.52
		c0.59,0,1.06-0.47,1.1-1.05c0.74-0.37,1.5-1.01,2.12-2.04c0.52-0.9,0.88-2.09,0.94-3.61c0,0,0,0,0,0c0,0,0,0,0,0
		c0-0.01,0-0.04,0-0.08c0-0.04,0-0.1,0-0.16c0-0.1,0-0.21-0.01-0.24c-0.06-1.52-0.41-2.72-0.94-3.62c-0.73-1.24-1.68-1.91-2.53-2.24
		c0-0.01,0.01-0.02,0.01-0.03c0.01-0.07,0.02-0.15,0.02-0.22c0-0.55-0.37-0.99-0.87-1.14c-0.08-0.5-0.51-0.89-1.03-0.89
		c-0.07,0-0.13,0.01-0.2,0.03c-0.07-0.48-0.41-0.88-0.88-0.88C30.22,426.46,29.87,426.85,29.79,427.33z"/>
	<path fill-rule="evenodd" clip-rule="evenodd" fill="#C0E2CA" d="M258.96,19.36c-0.69,0-1.25,0.48-1.44,1.12
		c-0.72,0.01-1.4,0.6-1.47,1.45c-0.44-0.09-0.95-0.14-1.5-0.14c-2.14,0-4.98,0.8-7.08,3.31c-1.14-1.92-3.06-2.74-5.02-2.73
		c-1.27,0-2.56,0.34-3.7,0.93c-0.1-1.74-1.37-2.85-2.08-3.46l0,0c-0.12-0.1-0.3-0.1-0.42,0l0,0c-0.71,0.6-1.97,1.72-2.07,3.46
		c-1.13-0.59-2.43-0.93-3.7-0.93c-1.95-0.01-3.88,0.81-5.02,2.73c-2.1-2.52-4.93-3.32-7.08-3.32c-0.55,0-1.05,0.05-1.5,0.14
		c-0.07-0.86-0.74-1.44-1.47-1.45c-0.18-0.64-0.75-1.11-1.44-1.12h0c-0.69,0-1.26,0.48-1.44,1.11c-0.72,0.02-1.4,0.6-1.47,1.45
		c-0.44-0.09-0.95-0.14-1.5-0.14c-2.14,0-4.98,0.8-7.08,3.32c-1.14-1.92-3.06-2.74-5.02-2.74c-1.27,0-2.56,0.34-3.7,0.93
		c-0.1-1.73-1.36-2.85-2.07-3.46c-0.12-0.1-0.3-0.1-0.42,0l0,0l0,0c-0.71,0.6-1.96,1.72-2.06,3.46c-1.14-0.59-2.43-0.93-3.7-0.93
		c-1.95,0-3.87,0.81-5.02,2.74c-2.09-2.51-4.93-3.32-7.07-3.32c-0.55,0-1.06,0.05-1.5,0.15c-0.07-0.86-0.74-1.44-1.47-1.45
		c-0.18-0.64-0.75-1.11-1.44-1.12c-0.69,0-1.25,0.48-1.44,1.12c-0.72,0.02-1.4,0.6-1.46,1.45c-0.44-0.09-0.95-0.15-1.5-0.15
		c-2.14,0-4.97,0.8-7.07,3.32c-1.14-1.92-3.06-2.74-5.01-2.74c-1.27,0-2.56,0.34-3.7,0.93c-0.1-1.74-1.36-2.85-2.07-3.46
		c-0.12-0.1-0.3-0.1-0.42,0c-0.7,0.6-1.96,1.72-2.06,3.46c-1.13-0.59-2.43-0.93-3.7-0.93c-1.95,0-3.87,0.81-5.02,2.73
		c-2.09-2.51-4.93-3.31-7.07-3.31c-0.55,0-1.05,0.05-1.49,0.14c-0.07-0.86-0.74-1.44-1.47-1.45c-0.18-0.64-0.75-1.12-1.44-1.12
		c-0.69,0-1.25,0.48-1.44,1.12c-0.72,0.02-1.4,0.6-1.46,1.45c-0.44-0.09-0.95-0.14-1.5-0.14c-2.14,0-4.98,0.8-7.07,3.32
		c-1.14-1.92-3.06-2.74-5.02-2.73c-1.27,0-2.56,0.34-3.7,0.93c-0.1-1.74-1.35-2.85-2.06-3.46c-0.12-0.1-0.3-0.1-0.42,0l0,0
		c-0.7,0.6-1.96,1.72-2.06,3.46c-1.13-0.59-2.43-0.93-3.7-0.93c-1.95,0-3.88,0.81-5.02,2.74c-2.1-2.52-4.93-3.32-7.07-3.32
		c-0.55,0-1.05,0.05-1.49,0.14c-0.07-0.86-0.75-1.44-1.47-1.45c-0.18-0.64-0.75-1.12-1.44-1.12c-0.69,0-1.25,0.48-1.44,1.12
		c-0.72,0.02-1.4,0.6-1.46,1.45c-0.44-0.09-0.95-0.14-1.5-0.14c-2.14,0-4.98,0.8-7.08,3.32c-1.14-1.92-3.06-2.74-5.02-2.73
		c-1.27,0-2.56,0.34-3.7,0.93c-0.1-1.74-1.37-2.85-2.07-3.46c-0.12-0.1-0.3-0.1-0.42,0c-0.71,0.6-1.97,1.72-2.07,3.46
		c-1.13-0.59-2.43-0.93-3.7-0.93c-1.95,0-3.88,0.81-5.02,2.73c-2.1-2.52-4.93-3.32-7.07-3.32c-0.55,0-1.06,0.05-1.5,0.14
		c-0.06-0.86-0.74-1.44-1.47-1.45c-0.18-0.64-0.75-1.11-1.47-1.11h0h0c-0.67,0.02-1.22,0.48-1.4,1.11c-0.72,0.02-1.4,0.6-1.46,1.45
		c-0.44-0.09-0.95-0.14-1.5-0.14c-2.14,0-4.98,0.8-7.07,3.31c-1.18-2-3.19-2.87-5.22-2.87c-1.28,0-2.57,0.34-3.7,0.97
		c-0.99-1.66-2.69-2.44-4.32-2.43c-0.45,0-0.89,0.06-1.32,0.17c-0.54-0.5-1.23-0.8-1.97-0.97c-0.76-0.18-1.59-0.22-2.38-0.22
		c-0.53,0-1.05,0.02-1.52,0.04c-0.4,0.02-0.77,0.03-1.09,0.03c-0.19,0-0.36-0.01-0.51-0.02c-0.1-0.01-0.19,0.03-0.25,0.09
		c-0.07,0.07-0.1,0.16-0.09,0.25v0l0,0c0.01,0.15,0.02,0.32,0.02,0.52c0,0.34-0.01,0.73-0.03,1.16c-0.02,0.5-0.04,1.05-0.04,1.61
		c0,0.83,0.04,1.69,0.21,2.5c0.16,0.77,0.44,1.5,0.92,2.06c-0.11,0.45-0.17,0.92-0.17,1.4c0,1.7,0.73,3.49,2.32,4.54
		c-0.6,1.19-0.93,2.56-0.93,3.91c0,2.13,0.83,4.25,2.75,5.49c-2.41,2.21-3.17,5.2-3.17,7.45c0,0.59,0.05,1.13,0.14,1.6
		c-0.85,0.08-1.38,0.82-1.38,1.55C0.44,54.12,0,54.72,0,55.41c0,0.69,0.44,1.3,1.07,1.49c0,0.74,0.53,1.48,1.38,1.55
		c-0.09,0.47-0.14,1.01-0.14,1.59c0,2.25,0.76,5.24,3.17,7.45c-1.85,1.2-2.62,3.23-2.62,5.28c0,1.34,0.32,2.71,0.9,3.91
		c-0.8,0.05-1.46,0.39-2,0.8c-0.58,0.45-1.01,1-1.31,1.39c-0.09,0.12-0.09,0.28,0,0.4c0.3,0.39,0.73,0.93,1.31,1.38
		c0.53,0.42,1.19,0.75,2,0.8c-0.57,1.2-0.9,2.57-0.9,3.91c0,2.05,0.77,4.07,2.62,5.28c-2.41,2.21-3.17,5.2-3.17,7.45
		c0,0.59,0.05,1.13,0.14,1.6c-0.85,0.08-1.38,0.82-1.38,1.55C0.44,101.44,0,102.04,0,102.74c0,0.7,0.44,1.3,1.07,1.49
		c0,0.74,0.53,1.48,1.38,1.56c-0.09,0.47-0.14,1.01-0.14,1.6c0,2.25,0.76,5.24,3.17,7.45c-1.85,1.2-2.62,3.23-2.62,5.28
		c0,1.34,0.32,2.71,0.89,3.91c-0.8,0.05-1.46,0.39-2,0.8c-0.58,0.45-1.01,0.99-1.31,1.38c-0.09,0.12-0.09,0.28,0,0.4
		c0.3,0.39,0.74,0.93,1.31,1.38c0.53,0.41,1.19,0.75,2,0.8c-0.57,1.2-0.9,2.57-0.9,3.91c0,2.05,0.77,4.07,2.62,5.28
		c-2.41,2.21-3.17,5.2-3.17,7.45c0,0.59,0.05,1.13,0.14,1.6c-0.85,0.08-1.38,0.82-1.38,1.55C0.44,148.74,0,149.34,0,150.04
		c0,0.7,0.44,1.3,1.07,1.49c0,0.73,0.53,1.48,1.38,1.56c-0.09,0.47-0.14,1.01-0.14,1.59c0,2.25,0.76,5.24,3.17,7.45
		c-1.85,1.2-2.62,3.23-2.62,5.28c0,1.34,0.32,2.71,0.9,3.91c-0.8,0.05-1.46,0.38-2,0.79c-0.58,0.44-1.01,0.98-1.31,1.37l-0.02,0.02
		l-0.05,0.17l0,0.09l0.05,0.14l0.01,0.02c0.3,0.39,0.73,0.93,1.31,1.37c0.53,0.41,1.19,0.74,2,0.79c-0.57,1.2-0.9,2.57-0.9,3.91
		c0,2.05,0.77,4.08,2.62,5.28c-2.41,2.21-3.17,5.2-3.17,7.45c0,0.59,0.05,1.12,0.14,1.59c-0.84,0.08-1.38,0.82-1.38,1.55
		C0.44,196.04,0,196.64,0,197.34c0,0.7,0.44,1.3,1.07,1.49c0,0.74,0.53,1.48,1.38,1.56c-0.09,0.47-0.14,1.01-0.14,1.59
		c0,2.25,0.76,5.24,3.17,7.45c-1.85,1.2-2.62,3.23-2.62,5.28c0,1.34,0.32,2.71,0.9,3.91c-0.8,0.05-1.46,0.38-2,0.79
		c-0.58,0.45-1.01,0.99-1.31,1.38c-0.09,0.12-0.08,0.28,0,0.39l0,0l0,0c0.3,0.39,0.73,0.93,1.31,1.37c0.53,0.41,1.19,0.74,2,0.79
		c-0.57,1.2-0.9,2.56-0.9,3.91c0,2.05,0.77,4.07,2.62,5.28c-2.41,2.21-3.17,5.2-3.17,7.45c0,0.59,0.05,1.13,0.14,1.59
		c-0.85,0.08-1.38,0.82-1.38,1.56C0.44,243.33,0,243.93,0,244.63c0,0.69,0.44,1.3,1.06,1.48c0,0.73,0.53,1.48,1.38,1.55
		c-0.09,0.47-0.14,1.01-0.14,1.59c0,2.25,0.76,5.24,3.17,7.45c-1.85,1.2-2.62,3.23-2.62,5.28c0,1.34,0.32,2.71,0.9,3.91
		c-0.8,0.05-1.46,0.39-2,0.8c-0.58,0.45-1.01,0.99-1.31,1.38c-0.09,0.12-0.08,0.28,0,0.4l0,0c0.3,0.39,0.73,0.93,1.31,1.38
		c0.53,0.41,1.19,0.75,2,0.8c-0.57,1.2-0.9,2.57-0.9,3.91c0,2.05,0.77,4.07,2.62,5.28c-2.41,2.21-3.17,5.2-3.17,7.45
		c0,0.59,0.05,1.13,0.14,1.59c-0.85,0.08-1.38,0.82-1.38,1.56C0.44,290.63,0,291.23,0,291.93c0,0.7,0.44,1.3,1.07,1.49
		c0,0.73,0.53,1.48,1.38,1.55c-0.09,0.47-0.14,1.01-0.14,1.6c0,2.25,0.76,5.24,3.17,7.45c-1.85,1.2-2.62,3.23-2.62,5.28
		c0,1.34,0.32,2.71,0.89,3.91c-0.8,0.05-1.46,0.39-2,0.8c-0.58,0.45-1.01,0.99-1.31,1.38c-0.09,0.12-0.09,0.28,0,0.39l0,0
		c0.3,0.39,0.73,0.93,1.31,1.38c0.53,0.41,1.19,0.75,2,0.8c-0.57,1.2-0.9,2.57-0.9,3.91c0,2.05,0.77,4.07,2.62,5.28
		c-2.41,2.21-3.17,5.2-3.17,7.45c0,0.59,0.05,1.13,0.14,1.59c-0.85,0.08-1.38,0.82-1.38,1.55c-0.62,0.19-1.06,0.8-1.06,1.5
		c0,0.69,0.44,1.29,1.06,1.48c0,0.73,0.53,1.48,1.38,1.55c-0.09,0.47-0.14,1.01-0.14,1.59c0,2.25,0.76,5.24,3.17,7.45
		c-1.85,1.2-2.62,3.23-2.62,5.28c0,1.34,0.32,2.71,0.9,3.91c-0.8,0.05-1.46,0.39-2,0.8c-0.58,0.45-1.01,0.99-1.31,1.38l0,0l0,0
		c-0.09,0.12-0.09,0.28,0,0.39l0,0c0.3,0.39,0.73,0.93,1.31,1.38c0.53,0.41,1.19,0.75,2,0.8c-0.57,1.2-0.9,2.57-0.9,3.91
		c0,2.05,0.77,4.07,2.62,5.28c-2.41,2.21-3.17,5.2-3.17,7.45c0,0.59,0.05,1.13,0.14,1.59c-0.85,0.08-1.38,0.82-1.38,1.56
		c-0.62,0.19-1.06,0.8-1.06,1.49c0,0.7,0.44,1.3,1.07,1.48c0,0.74,0.53,1.48,1.38,1.55c-0.09,0.47-0.14,1.01-0.14,1.6
		c0,2.25,0.76,5.24,3.17,7.45c-1.85,1.2-2.62,3.23-2.62,5.28c0,1.34,0.32,2.71,0.89,3.91c-0.8,0.05-1.46,0.39-1.99,0.81
		c-0.58,0.45-1.01,1-1.31,1.39c-0.09,0.12-0.09,0.28,0,0.39c0.3,0.39,0.73,0.93,1.31,1.38c0.53,0.41,1.19,0.75,2,0.8
		c-0.57,1.2-0.9,2.57-0.9,3.91c0,2.05,0.77,4.07,2.62,5.28c-2.41,2.21-3.17,5.2-3.17,7.45c0,0.59,0.05,1.12,0.14,1.59
		c-0.85,0.08-1.38,0.82-1.38,1.55c-0.62,0.19-1.07,0.8-1.07,1.49c0,0.7,0.44,1.3,1.07,1.48c0,0.73,0.53,1.48,1.38,1.55
		c-0.09,0.47-0.14,1.01-0.14,1.6c0,2.25,0.76,5.24,3.17,7.45c-1.92,1.24-2.75,3.36-2.75,5.49c0,1.35,0.33,2.72,0.93,3.91
		c-1.59,1.05-2.32,2.83-2.32,4.54c0,0.47,0.05,0.94,0.16,1.39c-0.48,0.57-0.76,1.29-0.92,2.07c-0.17,0.8-0.21,1.67-0.21,2.49
		c0,0.56,0.02,1.11,0.04,1.61c0.02,0.43,0.03,0.82,0.03,1.16c0,0.2-0.01,0.37-0.02,0.52c-0.01,0.09,0.03,0.19,0.1,0.26l0,0
		l0.07,0.06c0.06,0.03,0.12,0.04,0.18,0.04h0h0c0.15-0.02,0.31-0.02,0.5-0.02c0.32,0,0.69,0.01,1.09,0.03
		c0.47,0.02,0.99,0.04,1.52,0.04c0.79,0,1.61-0.05,2.38-0.22c0.74-0.17,1.43-0.46,1.97-0.97c0.42,0.11,0.87,0.17,1.32,0.17
		c1.63,0,3.33-0.77,4.32-2.43c1.13,0.62,2.42,0.97,3.7,0.97c2.03,0,4.04-0.88,5.22-2.87c2.1,2.51,4.94,3.31,7.07,3.31
		c0.55,0,1.06-0.05,1.5-0.14c0.07,0.85,0.74,1.44,1.46,1.45c0.18,0.64,0.75,1.12,1.44,1.12h0c0.69,0,1.26-0.48,1.44-1.12
		c0.73-0.01,1.4-0.6,1.47-1.45c0.44,0.09,0.95,0.15,1.5,0.15c2.14,0,4.98-0.8,7.07-3.31c1.14,1.92,3.07,2.74,5.02,2.73
		c1.27,0,2.56-0.34,3.7-0.93c0.1,1.74,1.37,2.86,2.08,3.46c0.12,0.1,0.3,0.11,0.42,0c0.71-0.61,1.97-1.72,2.07-3.46
		c1.14,0.59,2.43,0.93,3.7,0.93c1.95,0,3.88-0.81,5.02-2.73c2.1,2.51,4.94,3.31,7.08,3.31c0.55,0,1.06-0.05,1.5-0.14
		c0.06,0.85,0.74,1.43,1.46,1.45c0.18,0.64,0.75,1.12,1.44,1.12c0.69,0,1.26-0.48,1.44-1.12c0.72-0.02,1.4-0.59,1.47-1.45
		c0.44,0.09,0.95,0.14,1.5,0.14c2.14,0,4.98-0.8,7.07-3.31c1.14,1.92,3.07,2.74,5.02,2.73c1.27,0,2.57-0.34,3.7-0.93
		c0.1,1.74,1.35,2.85,2.06,3.46l0,0l0,0c0.12,0.1,0.3,0.1,0.42,0l0,0c0.71-0.61,1.96-1.72,2.06-3.46c1.14,0.59,2.42,0.93,3.7,0.93
		c1.95,0,3.88-0.81,5.02-2.73c2.1,2.51,4.93,3.31,7.07,3.31c0.55,0,1.06-0.05,1.5-0.14c0.06,0.85,0.74,1.43,1.46,1.45
		c0.18,0.64,0.75,1.12,1.44,1.12c0.69,0,1.26-0.48,1.44-1.12c0.72-0.01,1.4-0.59,1.47-1.45c0.44,0.09,0.95,0.15,1.5,0.15
		c2.14,0,4.97-0.8,7.07-3.31c1.14,1.92,3.06,2.74,5.02,2.73c1.27,0,2.56-0.34,3.7-0.93c0.1,1.74,1.35,2.86,2.06,3.46
		c0.12,0.1,0.3,0.1,0.42,0c0.71-0.61,1.97-1.72,2.07-3.46c1.14,0.59,2.43,0.93,3.7,0.93c1.95,0,3.87-0.81,5.01-2.73
		c2.1,2.51,4.93,3.31,7.07,3.31c0.55,0,1.06-0.05,1.5-0.14c0.06,0.85,0.74,1.44,1.46,1.45c0.18,0.64,0.75,1.12,1.44,1.12
		c0.69,0,1.26-0.48,1.44-1.12c0.73-0.02,1.4-0.59,1.47-1.45c0.44,0.09,0.95,0.15,1.5,0.15c2.14,0,4.97-0.8,7.07-3.31
		c1.14,1.92,3.06,2.74,5.01,2.73c1.27,0,2.56-0.34,3.7-0.93c0.1,1.74,1.36,2.86,2.07,3.46c0.12,0.1,0.3,0.1,0.42,0
		c0.71-0.61,1.96-1.72,2.07-3.46c1.13,0.59,2.43,0.93,3.7,0.93c1.95,0,3.88-0.81,5.02-2.73c2.1,2.51,4.94,3.31,7.08,3.31
		c0.55,0,1.06-0.05,1.5-0.14c0.07,0.85,0.74,1.43,1.47,1.45c0.18,0.64,0.75,1.12,1.44,1.12c0.69,0,1.25-0.48,1.44-1.12
		c0.72-0.02,1.4-0.59,1.47-1.45c0.44,0.09,0.95,0.15,1.5,0.15c2.14,0,4.98-0.8,7.08-3.31c1.14,1.92,3.06,2.73,5.02,2.73
		c1.27,0,2.56-0.34,3.7-0.93c0.1,1.74,1.37,2.85,2.07,3.46c0.12,0.1,0.3,0.1,0.42,0c0.71-0.61,1.97-1.72,2.08-3.46
		c1.13,0.59,2.43,0.93,3.7,0.93c1.95,0,3.88-0.81,5.02-2.73c2.1,2.51,4.94,3.31,7.08,3.31c0.55,0,1.06-0.05,1.5-0.14
		c0.07,0.85,0.74,1.43,1.47,1.45c0.18,0.64,0.75,1.12,1.44,1.12h0c0.69,0,1.26-0.48,1.44-1.12c0.72-0.01,1.4-0.59,1.46-1.45
		c0.44,0.09,0.95,0.15,1.5,0.15c2.14,0,4.98-0.8,7.07-3.31c1.18,1.99,3.2,2.88,5.22,2.87c1.28,0,2.57-0.34,3.7-0.97
		c0.99,1.66,2.69,2.43,4.32,2.43c0.45,0,0.89-0.06,1.31-0.17c0.54,0.5,1.23,0.79,1.97,0.96c0.77,0.17,1.59,0.22,2.38,0.22
		c0.53,0,1.04-0.02,1.52-0.04c0.4-0.02,0.77-0.03,1.1-0.03c0.19,0,0.36,0.01,0.5,0.02h0c0.09,0.01,0.18-0.02,0.25-0.09l0,0l0,0
		c0.07-0.07,0.1-0.16,0.09-0.25c-0.01-0.16-0.02-0.34-0.02-0.54c0-0.34,0.01-0.73,0.03-1.16c0.02-0.5,0.04-1.04,0.04-1.59
		c0-0.83-0.04-1.69-0.21-2.5c-0.16-0.77-0.44-1.5-0.92-2.07c0.11-0.45,0.17-0.92,0.17-1.4c0-1.7-0.73-3.49-2.32-4.54
		c0.6-1.19,0.94-2.56,0.94-3.91c0-2.13-0.83-4.24-2.75-5.49c2.41-2.21,3.17-5.21,3.17-7.45c0-0.59-0.05-1.13-0.14-1.6
		c0.85-0.08,1.38-0.82,1.38-1.55c0.62-0.19,1.06-0.79,1.06-1.48c0-0.69-0.44-1.3-1.06-1.49c0-0.73-0.53-1.48-1.38-1.55
		c0.09-0.47,0.14-1.01,0.14-1.59c0-2.25-0.76-5.24-3.17-7.45c1.85-1.21,2.62-3.23,2.62-5.28c0-1.34-0.33-2.71-0.9-3.91
		c0.8-0.05,1.46-0.39,2-0.8c0.58-0.45,1.01-1,1.31-1.39c0.09-0.11,0.09-0.28,0-0.39c-0.3-0.39-0.73-0.94-1.31-1.39
		c-0.53-0.42-1.19-0.75-2-0.8c0.57-1.2,0.9-2.57,0.9-3.91c0-2.05-0.77-4.07-2.62-5.28c2.41-2.21,3.17-5.2,3.17-7.45
		c0-0.59-0.05-1.12-0.14-1.59c0.85-0.08,1.38-0.82,1.38-1.55c0.62-0.19,1.06-0.79,1.06-1.48c0-0.7-0.44-1.3-1.06-1.49
		c0-0.74-0.53-1.48-1.38-1.56c0.09-0.47,0.14-1.01,0.14-1.59c0-2.25-0.76-5.24-3.17-7.45c1.85-1.21,2.62-3.23,2.62-5.28
		c0-1.34-0.33-2.71-0.9-3.91c0.8-0.05,1.46-0.39,2-0.8c0.58-0.45,1.01-0.99,1.31-1.38c0.09-0.12,0.09-0.28,0-0.4
		c-0.3-0.39-0.73-0.93-1.31-1.38c-0.53-0.41-1.2-0.75-2-0.8c0.57-1.2,0.9-2.57,0.9-3.91c0-2.05-0.77-4.07-2.62-5.28
		c2.41-2.21,3.17-5.21,3.17-7.45c0-0.59-0.05-1.13-0.14-1.59c0.85-0.08,1.38-0.82,1.38-1.55c0.62-0.19,1.06-0.79,1.06-1.48
		c0-0.7-0.44-1.3-1.06-1.49c0-0.74-0.54-1.48-1.38-1.56c0.09-0.47,0.14-1.01,0.14-1.59c0-2.25-0.76-5.24-3.17-7.45
		c1.85-1.21,2.62-3.23,2.62-5.28c0-1.34-0.33-2.71-0.9-3.91c0.8-0.05,1.46-0.39,2-0.8c0.58-0.45,1.01-0.99,1.31-1.38v0
		c0.08-0.11,0.09-0.28,0-0.39c-0.3-0.39-0.73-0.93-1.31-1.38c-0.53-0.41-1.2-0.75-2-0.8c0.57-1.2,0.9-2.57,0.9-3.91
		c0-2.05-0.77-4.07-2.62-5.28c2.41-2.21,3.17-5.21,3.17-7.45c0-0.59-0.05-1.13-0.14-1.59c0.85-0.07,1.38-0.82,1.38-1.55
		c0.62-0.19,1.06-0.79,1.06-1.49c0-0.69-0.44-1.3-1.06-1.49c0-0.74-0.54-1.48-1.38-1.56c0.09-0.47,0.14-1.01,0.14-1.59
		c0-2.25-0.76-5.24-3.17-7.45c1.85-1.21,2.62-3.23,2.62-5.28c0-1.34-0.33-2.71-0.9-3.91c0.8-0.05,1.46-0.39,2-0.8
		c0.58-0.45,1.01-0.99,1.31-1.38c0.09-0.12,0.09-0.28,0-0.39l0,0c-0.3-0.39-0.73-0.93-1.31-1.38c-0.53-0.41-1.19-0.75-2-0.8
		c0.57-1.2,0.9-2.57,0.9-3.91c0-2.05-0.77-4.07-2.62-5.28c2.41-2.21,3.17-5.21,3.17-7.45c0-0.59-0.05-1.12-0.14-1.59
		c0.85-0.07,1.38-0.82,1.38-1.55c0.62-0.19,1.06-0.79,1.06-1.49c0-0.69-0.44-1.3-1.06-1.49c0-0.74-0.54-1.48-1.38-1.56
		c0.09-0.47,0.14-1.01,0.14-1.59c0-2.25-0.76-5.24-3.17-7.45c1.85-1.2,2.63-3.23,2.62-5.28c0-1.34-0.33-2.71-0.9-3.91
		c0.8-0.05,1.46-0.38,2-0.8c0.58-0.45,1.01-0.99,1.31-1.38c0.09-0.12,0.09-0.28,0-0.4c-0.3-0.39-0.73-0.93-1.31-1.38
		c-0.53-0.41-1.19-0.74-2-0.8c0.57-1.2,0.9-2.56,0.9-3.91c0-2.05-0.77-4.07-2.62-5.28c2.41-2.21,3.17-5.21,3.17-7.45
		c0-0.59-0.05-1.12-0.14-1.59c0.85-0.08,1.38-0.82,1.38-1.56c0.62-0.19,1.06-0.79,1.06-1.49c0-0.69-0.44-1.29-1.06-1.48
		c0-0.74-0.54-1.48-1.38-1.55c0.09-0.47,0.14-1.01,0.14-1.59c0-2.25-0.76-5.24-3.17-7.45c1.85-1.2,2.62-3.23,2.62-5.28
		c0-1.34-0.33-2.71-0.9-3.91c0.8-0.05,1.47-0.39,2-0.8c0.58-0.45,1.01-0.99,1.31-1.38c0.09-0.12,0.09-0.28,0-0.4
		c-0.3-0.39-0.73-0.93-1.31-1.38c-0.53-0.41-1.19-0.75-2-0.8c0.57-1.2,0.9-2.57,0.9-3.91c0-2.05-0.77-4.07-2.62-5.28
		c2.41-2.21,3.17-5.2,3.17-7.45c0-0.59-0.05-1.13-0.14-1.59c0.85-0.08,1.38-0.82,1.38-1.56c0.62-0.19,1.06-0.79,1.06-1.49
		c0-0.69-0.44-1.29-1.06-1.48c0-0.74-0.54-1.48-1.38-1.55c0.09-0.47,0.14-1.01,0.14-1.59c0-2.25-0.76-5.24-3.17-7.45
		c1.85-1.21,2.62-3.23,2.62-5.28c0-1.34-0.33-2.71-0.9-3.91c0.8-0.05,1.46-0.39,2-0.8c0.58-0.45,1.01-0.99,1.31-1.38l0,0l0,0
		c0.09-0.12,0.09-0.28,0-0.39c-0.3-0.39-0.73-0.93-1.31-1.38c-0.53-0.41-1.2-0.75-2-0.8c0.57-1.2,0.9-2.57,0.9-3.91
		c0-2.05-0.77-4.07-2.62-5.28c2.41-2.21,3.17-5.2,3.17-7.45c0-0.59-0.05-1.13-0.14-1.59c0.85-0.08,1.38-0.82,1.38-1.56
		c0.62-0.19,1.06-0.79,1.06-1.49c0-0.69-0.44-1.29-1.06-1.48c0-0.74-0.54-1.48-1.38-1.55c0.09-0.47,0.14-1.01,0.14-1.59
		c0-2.25-0.76-5.24-3.17-7.45c1.85-1.2,2.62-3.23,2.62-5.28c0-1.34-0.33-2.71-0.9-3.91c0.8-0.05,1.46-0.39,2-0.8
		c0.58-0.45,1.01-1,1.31-1.39c0.09-0.12,0.09-0.28,0-0.39c-0.3-0.39-0.73-0.94-1.31-1.39c-0.53-0.42-1.19-0.75-2-0.81
		c0.57-1.2,0.9-2.57,0.9-3.91c0-2.05-0.77-4.07-2.62-5.28c2.41-2.21,3.17-5.2,3.17-7.45c0-0.59-0.05-1.12-0.14-1.59
		c0.85-0.08,1.38-0.82,1.38-1.55c0.62-0.19,1.06-0.8,1.06-1.49c0-0.69-0.44-1.29-1.06-1.49c0-0.73-0.54-1.48-1.38-1.55
		c0.09-0.47,0.14-1.01,0.14-1.59c0-2.25-0.76-5.24-3.17-7.45c1.92-1.25,2.76-3.36,2.75-5.49c0-1.35-0.33-2.72-0.94-3.91
		c1.59-1.05,2.32-2.83,2.32-4.54c0-0.47-0.06-0.94-0.17-1.4c0.48-0.57,0.76-1.29,0.92-2.07c0.17-0.8,0.21-1.67,0.21-2.5
		c0-0.55-0.02-1.08-0.04-1.57c-0.02-0.43-0.03-0.83-0.03-1.18c0-0.2,0-0.38,0.02-0.54c0.01-0.09-0.03-0.19-0.1-0.25
		c-0.06-0.07-0.16-0.1-0.25-0.09c-0.15,0.01-0.32,0.02-0.51,0.02c-0.32,0-0.69-0.01-1.09-0.03c-0.47-0.02-0.99-0.04-1.52-0.04
		c-0.79,0-1.61,0.05-2.38,0.22c-0.74,0.17-1.43,0.46-1.97,0.96c-0.42-0.12-0.87-0.17-1.31-0.17c-1.63,0-3.33,0.78-4.32,2.44
		c-1.12-0.63-2.42-0.97-3.7-0.97c-2.03,0-4.04,0.88-5.22,2.87c-2.1-2.52-4.93-3.32-7.07-3.32c-0.55,0-1.06,0.05-1.5,0.15
		c-0.07-0.85-0.74-1.44-1.46-1.45c-0.16-0.55-0.61-0.99-1.18-1.09L259,19.36l-0.01,0h0L258.96,19.36L258.96,19.36z M274.52,450.35
		H18.72V38.92h255.8V450.35z"/>
</g>
<g id="Header__x26__Marks__x26__Page_No.">
	<path d="M147.13,477.5c0.03,0,0.06,0.02,0.08,0.05c0.02,0.03,0.03,0.07,0.03,0.11c0,0.14,0,0.24,0,0.32c0,0.07,0,0.16,0.03,0.25
		c0.03,0.12,0.12,0.21,0.25,0.27c0.13,0.06,0.27,0.1,0.43,0.1c0.16,0,0.32-0.02,0.48-0.07c0.16-0.05,0.29-0.13,0.38-0.23
		c0.02-0.05,0.06-0.16,0.1-0.33c0.04-0.16,0.08-0.34,0.12-0.54c0-0.04,0.01-0.07,0.04-0.08c0.02-0.01,0.05-0.02,0.07-0.02
		c0.03,0,0.07,0.03,0.1,0.1c0.04,0.13,0.07,0.29,0.08,0.5c0.01,0.21,0,0.42-0.03,0.65c-0.03,0.22-0.08,0.44-0.15,0.65
		c-0.07,0.21-0.16,0.38-0.28,0.51c-0.13,0.15-0.27,0.25-0.44,0.32c-0.17,0.07-0.34,0.1-0.51,0.1c-0.17,0-0.34-0.04-0.51-0.11
		c-0.17-0.07-0.31-0.18-0.45-0.31c-0.05,0.1-0.12,0.19-0.21,0.29c-0.08,0.09-0.18,0.17-0.28,0.25c-0.1,0.07-0.21,0.13-0.33,0.17
		c-0.11,0.04-0.23,0.05-0.35,0.04c-0.02,0-0.06-0.01-0.1-0.01c-0.04,0-0.06,0.01-0.07,0.02c-0.02,0.03-0.03,0.06-0.02,0.08
		c0.01,0.03,0.02,0.04,0.03,0.05c0.15,0.32,0.27,0.65,0.37,0.99c0.1,0.33,0.18,0.67,0.22,1.01c0.05,0.34,0.06,0.69,0.04,1.04
		c-0.02,0.35-0.08,0.71-0.19,1.06c-0.01,0.05-0.04,0.11-0.07,0.17c-0.03,0.06-0.06,0.1-0.1,0.1c-0.03,0-0.06-0.01-0.08-0.04
		c-0.02-0.02-0.03-0.05-0.04-0.09c-0.01-0.04-0.01-0.07-0.02-0.11c0-0.04-0.01-0.07-0.01-0.1c-0.04-0.26-0.09-0.52-0.14-0.78
		c-0.05-0.25-0.1-0.5-0.15-0.75c-0.06-0.25-0.12-0.49-0.19-0.74c-0.07-0.25-0.16-0.5-0.25-0.75c-0.09-0.21-0.18-0.42-0.27-0.61
		c-0.09-0.19-0.18-0.38-0.28-0.57c-0.1-0.19-0.19-0.38-0.3-0.58c-0.1-0.2-0.21-0.4-0.32-0.62c-0.07-0.11-0.1-0.21-0.09-0.31
		c0-0.1,0.01-0.21,0.03-0.32c0.01-0.11,0.03-0.22,0.05-0.34s0.04-0.22,0.07-0.32c0.02-0.1,0.05-0.2,0.07-0.28
		c0.01-0.05,0.04-0.07,0.07-0.06c0.03,0.01,0.06,0.04,0.09,0.08c0.03,0.07,0.06,0.14,0.1,0.22c0.04,0.08,0.08,0.16,0.13,0.23
		c0.05,0.08,0.1,0.15,0.15,0.22c0.05,0.07,0.11,0.12,0.16,0.17c0.12,0.11,0.27,0.19,0.45,0.25c0.18,0.06,0.36,0.09,0.55,0.08
		c0.19,0,0.37-0.04,0.55-0.11c0.18-0.07,0.33-0.18,0.46-0.34c0.13-0.2,0.22-0.44,0.28-0.72c0.01-0.04,0.03-0.08,0.05-0.14
		C147.04,477.51,147.07,477.49,147.13,477.5z"/>
	<path d="M30.33,8.51c0.2,1.63,0.13,2.74-0.03,3.13c-0.09,0.23-0.22,0.15-0.22-0.17c0-1.37-0.32-3.29-0.41-3.94
		c-0.09-0.64-0.19-1.31-0.28-2.2c-0.06-0.52,0.02-0.9,0.18-1.19c0.15-0.28,0.2,0.03,0.22,0.38C29.83,5.16,30.23,7.69,30.33,8.51z
		 M18.29,3.87c0.1-0.04,3.32-1.37,3.48-1.45c0.17-0.09,0.27-0.11,0.35-0.26c0.08-0.14,0.1-0.17,0.15-0.27
		c0.05-0.11,0.11-0.23-0.2-0.09c-0.2,0.09-3.37,1.41-3.59,1.49c-0.21,0.08-0.28,0.12-0.32,0.26c-0.05,0.14-0.07,0.22-0.08,0.25
		C18.03,3.91,17.98,4.01,18.29,3.87z M10.64,7.58c0.1-0.04,3.32-1.35,3.49-1.44c0.17-0.09,0.27-0.11,0.35-0.26
		c0.08-0.14,0.1-0.17,0.15-0.27c0.05-0.11,0.11-0.23-0.2-0.09c-0.2,0.09-3.38,1.39-3.59,1.48c-0.21,0.08-0.28,0.12-0.33,0.26
		c-0.05,0.14-0.07,0.22-0.08,0.25C10.38,7.61,10.33,7.71,10.64,7.58z M9.16,9.34C9.12,10.74,8,10.95,7.82,10.98
		c-1.09,0.16-1.14-0.42-1.14-0.72C6.67,9.74,7.03,8.7,7.11,8.48l0.01-0.03l0-0.13c0.02-0.08,0.16-0.58,0.21-0.74
		C7.4,7.44,8.21,7.86,8.37,7.94C9.24,8.41,9.17,9.18,9.16,9.34z M8.67,9.46C8.35,8.99,7.8,8.74,7.43,8.65L7.28,8.6
		C7.26,8.66,7.1,9.19,7.05,9.48c-0.06,0.31,0.16,0.54,0.45,0.58c0.29,0.04,0.91-0.15,1.1-0.27C8.79,9.66,8.75,9.58,8.67,9.46z
		 M22.65,4.3c0.1-0.04,2.72-1.09,2.89-1.17c0.17-0.08,0.27-0.11,0.35-0.25c0.08-0.14,0.1-0.17,0.15-0.27
		c0.05-0.11,0.1-0.23-0.21-0.09c-0.2,0.09-2.78,1.12-2.99,1.21c-0.21,0.08-0.28,0.12-0.33,0.26c-0.05,0.14-0.07,0.22-0.09,0.25
		C22.39,4.33,22.34,4.43,22.65,4.3z M21.5,5.06L20.86,5.7l-0.02,0.04l-0.26-0.23c-0.12-0.11-0.21-0.24-0.31-0.37l-0.07-0.01
		l-0.64,0.64L19.53,5.9c0.09,0.12,0.19,0.24,0.3,0.35c0.12,0.12,0.25,0.23,0.38,0.32l0.13-0.01l0.6-0.6l0.2,0.22
		c0.12,0.12,0.25,0.23,0.38,0.32l0.13-0.01l0.64-0.64l-0.01-0.08c-0.14-0.1-0.28-0.21-0.4-0.33c-0.12-0.12-0.21-0.24-0.31-0.37
		L21.5,5.06z M8.81,12.15c0.09-0.14,0.1-0.17,0.15-0.27c0.05-0.11,0.11-0.23-0.21-0.09c-0.2,0.09-2.65,1.07-2.86,1.15
		c-0.22,0.08-0.28,0.12-0.33,0.26c-0.05,0.14-0.07,0.22-0.09,0.25c-0.04,0.09-0.1,0.19,0.22,0.07c0.1-0.04,2.59-1.03,2.76-1.11
		C8.63,12.32,8.72,12.29,8.81,12.15z M7.04,6.18l0.13-0.01l0.6-0.6l0.19,0.22C8.08,5.9,8.21,6.01,8.34,6.1l0.13-0.01l0.64-0.64
		L9.1,5.38c-0.14-0.1-0.27-0.21-0.4-0.33C8.58,4.93,8.48,4.8,8.39,4.67L8.31,4.67L7.68,5.31L7.65,5.34L7.39,5.12
		C7.27,5,7.17,4.87,7.08,4.75l-0.07,0L6.37,5.38L6.35,5.5c0.09,0.12,0.19,0.25,0.3,0.36C6.77,5.98,6.9,6.09,7.04,6.18z M25.06,13.29
		c-0.11-0.11-0.21-0.24-0.3-0.36l-0.07-0.01l-0.62,0.62l-0.02,0.11c0.09,0.12,0.18,0.24,0.29,0.34c0.12,0.12,0.24,0.22,0.37,0.31
		l0.12-0.01l0.61-0.61l-0.01-0.08C25.31,13.52,25.18,13.41,25.06,13.29z M27.14,5.25c0,0,0.56,4.15,0.55,4.48
		c-0.02,1.58-0.72,1.99-1.06,2.02c-0.34,0.04-1.05-0.57-1.28-0.73c-0.23-0.16-0.38-0.03-0.47,0.05c-1.54,1.46-3.46,0.61-3.77,0.48
		c-0.17-0.07-0.31-0.14-0.44-0.21c-0.57,0.3-1.12,0.41-1.33,0.48c-3.8,0.98-5.73,0.42-6.64-0.07c-0.29,0.87-0.95,1.84-1.15,2.06
		c-1.61,1.75-4.06,0.45-4.41,0.27C6.86,13.94,7,13.74,7.29,13.83c1.49,0.46,2.57,0.12,2.87,0.01c1.29-0.53,1.96-1.88,2.14-2.33
		l-0.2-0.14c-0.48-0.37-0.39-1.19-0.33-1.47c0.05-0.28,0.18-0.19,0.26-0.04c1.54,2.6,7.21,1.09,7.48,1
		c0.15-0.04,0.29-0.08,0.42-0.12c-0.32-0.47-0.15-0.91-0.07-1.21c0.24-0.76,0.66-1.34,1.12-1.74c0.46-0.4,1.35-0.16,1.23,1.39
		c-0.09,0.64-0.34,1.12-0.67,1.49c0.56,0.21,1.14,0.32,1.77,0.3c0.64-0.01,1.59-0.75,1.75-0.89c0.16-0.13,0.32-0.08,0.45,0.02
		c0.43,0.38,1,0.67,1.44,0.65c0.43-0.02,0.34-0.68,0.28-1c-0.06-0.32-0.61-4.14-0.67-4.97c-0.02-0.29-0.05-0.51-0.18-0.75
		c-0.09-0.17,0-0.22,0.08-0.33c0.17-0.21,0.22-0.32,0.34-0.5c0.1-0.16,0.16,0.01,0.23,0.22c0.08,0.24,0.42,0.69,0.58,0.92
		c0.16,0.23-0.18,0.47-0.32,0.59C27.18,5.05,27.12,5.01,27.14,5.25z M21.68,9.74c0.1-0.11,0.24-0.62-0.13-0.95
		c-0.56-0.44-1.06,0.36-1.3,0.74c-0.24,0.39,0.1,0.52,0.27,0.61c0.11,0.06,0.21,0.13,0.32,0.18C21.33,10.07,21.62,9.81,21.68,9.74z
		 M50.25,11.04c-0.1,0.21-0.55,0.45-1.72-0.48c0,0-0.61,1.36-2.98,0.85c-0.42,0.27-0.99,0.5-1.75,0.64
		c-0.03,0.17-0.08,0.35-0.14,0.53c-0.06,0.21-0.57,1.5-1.36,2.01c-0.31,0.21-1.13,0.82-4.06,0.19c-0.21-0.05-0.17-0.12-0.16-0.2
		c0.01-0.08,0.11-0.09,0.29-0.05c0.17,0.05,2.35,0.53,3.94-0.98c0.15-0.15,0.81-0.68,0.99-1.42c-0.48,0.06-1.47,0.03-1.68-0.81
		c-0.09-0.34,0.02-1.15,0.47-1.62c0.21-0.21,0.54-0.5,0.88-0.22c0.36,0.29,0.64,0.87,0.81,1.62c0.97-0.11,2.16-0.55,2.83-1.66
		c0.07-0.11,0.14-0.29,0.17-0.1c0.01,0.1,0.02,0.71-0.42,1.34l0.07,0.01c2.26,0.01,2.38-1.51,2.49-1.76c0.11-0.25,0.26-0.21,0.2,0.1
		c-0.02,0.13-0.18,0.81-0.18,0.81c0.09,0.07,0.86,0.35,1.06,0.37c0.21,0.03,0.2-0.07,0.21-0.18c0.01-0.11-0.05-0.69-0.06-0.84
		c0-0.15,0.18-0.65,0.24-0.78c0.06-0.13,0.14-0.14,0.18,0.07C50.83,9.94,50.36,10.83,50.25,11.04z M43.21,11.18
		c-0.03-0.09-0.12-0.28-0.17-0.37c-0.1-0.18-0.43-0.56-0.77-0.28c-0.33,0.27-0.12,0.47,0.01,0.52
		C42.33,11.06,42.65,11.24,43.21,11.18z M39.42,11.72c0.13-0.37,0.44-1.56,0.14-2.35c-0.14-0.36-1.02-1.57-1.09-1.2
		c-0.07,0.37-0.06,0.96-0.06,0.96c0.17,0.14,1.06,0.88,0.95,1.24c-0.11,0.36-1.01,2.24-2.39,2.74c-0.23,0.1-1.52,0.44-2.47,0.16
		c-0.28-0.06-0.41,0.23,0.08,0.35C35.02,13.73,38.34,14.79,39.42,11.72z M34.28,12.12c-1.08,0.2-1.15-0.38-1.17-0.69
		c-0.03-0.52,0.3-1.57,0.38-1.79l0.01-0.03V9.5c0.02-0.08,0.14-0.59,0.19-0.75c0.05-0.15,0.87,0.24,1.03,0.32
		c0.89,0.44,0.84,1.21,0.84,1.37C35.57,11.85,34.46,12.09,34.28,12.12z M33.93,11.21c0.29,0.03,0.9-0.18,1.09-0.31
		c0.19-0.13,0.14-0.21,0.06-0.33c-0.33-0.46-0.89-0.69-1.26-0.77l-0.16-0.05c-0.02,0.06-0.16,0.6-0.2,0.89
		C33.41,10.95,33.64,11.18,33.93,11.21z M36.93,6.26c0.09-0.04,3.3-1.4,3.47-1.48c0.17-0.09,0.27-0.12,0.35-0.26
		c0.08-0.14,0.1-0.17,0.15-0.27c0,0,0.12-0.25-0.2-0.09c-0.2,0.1-3.36,1.44-3.57,1.53c-0.21,0.09-0.27,0.13-0.32,0.27
		c-0.05,0.14-0.07,0.22-0.08,0.25C36.71,6.21,36.63,6.4,36.93,6.26z M34.36,7.16c0.12,0.12,0.26,0.22,0.4,0.31l0.12-0.01l0.62-0.66
		l-0.01-0.08c-0.14-0.09-0.28-0.2-0.41-0.32c-0.12-0.11-0.22-0.24-0.32-0.36l-0.07,0l-0.62,0.66l-0.02,0.04
		c-0.09-0.07-0.18-0.14-0.27-0.22c-0.12-0.11-0.22-0.24-0.32-0.36l-0.07,0l-0.62,0.66l-0.01,0.12c0.09,0.12,0.19,0.24,0.31,0.35
		c0.12,0.12,0.25,0.22,0.39,0.31l0.13-0.01l0.58-0.62L34.36,7.16z M34.34,3.85c0.34,0.16,0.49,0.52,0.53,0.39
		c0.13-0.38,0.17-0.59,0.07-0.69c-0.07-0.07-0.32-0.26-0.32-0.26c0.09-0.21,0.27-0.96-0.03-1.55c-0.07-0.13-0.38-0.6-1.01,0.11
		c-0.25,0.27-0.57,0.97-0.32,1.22c0.25,0.25,0.8,0.61,0.8,0.61c-0.29,0.49-0.98,0.93-1.89,1.58c-0.59,0.42-0.37,0.57-0.11,0.44
		C33.78,4.89,34.07,4.41,34.34,3.85z M33.71,2.64c-0.16-0.1-0.16-0.21-0.08-0.33c0.24-0.37,0.41-0.36,0.57-0.19
		c0.25,0.33,0.2,0.87,0.17,0.97C34.36,3.09,33.87,2.74,33.71,2.64z M47.43,5.42c0.33,0.15,0.47,0.51,0.52,0.38
		c0.12-0.37,0.17-0.57,0.07-0.67c-0.07-0.07-0.31-0.25-0.31-0.25c0.09-0.21,0.27-0.93-0.03-1.51c-0.07-0.12-0.37-0.58-0.98,0.11
		c-0.24,0.27-0.55,0.94-0.31,1.19c0.24,0.24,0.78,0.59,0.78,0.59c-0.28,0.48-0.95,0.91-1.83,1.53c-0.57,0.41-0.36,0.55-0.11,0.43
		C46.88,6.42,47.17,5.96,47.43,5.42z M46.81,4.24c-0.15-0.1-0.15-0.21-0.08-0.32c0.23-0.36,0.4-0.35,0.55-0.18
		c0.25,0.32,0.19,0.84,0.16,0.94C47.44,4.68,46.97,4.34,46.81,4.24z"/>
	<path d="M266.01,4.41c-0.01-0.37-0.06-0.69-0.22-0.4c-0.17,0.3-0.26,0.7-0.21,1.23c0.07,0.92,0.16,1.62,0.25,2.29
		c0.08,0.67,0.38,2.67,0.35,4.09c-0.01,0.33,0.12,0.42,0.22,0.18c0.17-0.41,0.27-1.56,0.09-3.24C266.4,7.71,266.04,5.08,266.01,4.41
		z M256.16,1.9c0.1-0.04,2.7-1.11,2.87-1.19c0.17-0.09,0.28-0.11,0.36-0.26c0.08-0.15,0.1-0.18,0.15-0.28
		c0.05-0.11,0.11-0.24-0.21-0.09c-0.21,0.1-2.76,1.15-2.98,1.23c-0.22,0.09-0.29,0.13-0.33,0.28c-0.05,0.15-0.08,0.23-0.09,0.26
		C255.9,1.93,255.84,2.03,256.16,1.9z M253.51,5.76c0.1-0.05,1.97-0.85,2.14-0.94c0.17-0.1,0.27-0.12,0.35-0.28
		c0.08-0.15,0.1-0.18,0.14-0.29c0.05-0.11,0.1-0.24-0.22-0.09c-0.2,0.1-2.02,0.89-2.24,0.98c-0.21,0.1-0.28,0.14-0.33,0.29
		c-0.04,0.15-0.07,0.23-0.08,0.26C253.25,5.8,253.2,5.9,253.51,5.76z M252.84,9.8c-0.11-1.25-0.71-4.98-0.71-4.98
		c-0.03-0.18-0.01-0.26,0.02-0.31c0.04-0.06,0.22-0.36,0.28-0.52c0.03-0.08-0.05-0.27-0.14-0.37c-0.14-0.15-0.45-0.6-0.5-0.74
		c-0.05-0.15-0.15-0.31-0.2-0.17c-0.12,0.31-0.3,0.52-0.34,0.6c-0.04,0.08-0.12,0.33,0.01,0.55c0.13,0.22,0.25,0.36,0.28,0.51
		c0.21,0.92,0.89,5.54,0.93,5.87c0.04,0.33,0.12,1.03-0.34,1.38c-0.47,0.35-2.1,1.35-3.23,0.73c-0.29-0.16-1.22-0.65-0.87-1.85
		c0.1-0.35,0.18-0.58,0.25-0.76c0.07-0.18-0.01-0.32-0.17-0.03c-0.16,0.28-1.06,2.01-0.22,3.09c0.24,0.31,1.54,1.56,3.89,0.02
		C252.06,12.65,253.03,11.92,252.84,9.8z M257.17,4.3c0.35-0.2,0.67-0.31,0.92-0.37c0.32-0.08,0.76-0.13,0.76-0.13l0.12-0.17
		c0.06-0.1,0.27-0.38,0.09-0.36c-0.18,0.03-0.89,0.22-1.22,0.11c-0.3-0.1-0.41-0.26-0.43-0.35c-0.02-0.1,0.12-0.2,0.15-0.22
		c0.12-0.06,0.33-0.14,0.46-0.06c0.07,0.05,0.12,0.13,0.18,0.22c0.05,0.08,0.09,0.07,0.15,0.01c0.08-0.09,0.36-0.37,0.25-0.55
		c-0.11-0.18-0.3-0.37-0.62-0.25c-0.13,0.05-0.3,0.16-0.46,0.28c-0.22,0.16-0.55,0.53-0.65,0.84c-0.03,0.1-0.01,0.19,0.09,0.29
		c0.18,0.19,0.32,0.27,0.32,0.27c-0.09,0.08-0.21,0.18-0.22,0.2c-0.05,0.09-0.09,0.32-0.03,0.3C257.07,4.36,257.12,4.33,257.17,4.3z
		 M263.7,4.73l-0.04,0.13c0,0,0.48,2.77-0.3,4.93c-0.12,0.33-0.25,0.62-0.38,0.88c0.33,0.72,0.45,1.21,0.47,1.33
		c0.14,0.66-0.21,0.82-0.34,0.85c-0.14,0.04-2.45,0.38-2.55,0.4c-0.1,0.02-0.17-0.01-0.16-0.13c0.01-0.13,0.06-0.56,0.08-0.67
		c0.02-0.11,0.08-0.16,0.18-0.16c0.03,0,0.26-0.04,0.57-0.1c0.58-0.36,1-0.88,1.31-1.49c-1-1.8-2.7-3.35-3.03-3.5l-0.07,0.14
		c-0.05,0.07-0.16,0.13-0.32,0.1c-0.15-0.04-1.14-0.54-1.21-0.58c-0.07-0.05-0.11-0.07-0.14-0.27c-0.03-0.2-0.23-1.15-0.22-1.52
		c0.01-0.37,0.29-0.19,0.47-0.06c2.62,1.82,4.01,3.82,4.73,5.22c0.9-2.33,0.38-5.47,0.33-5.61c-0.05-0.14-0.15-0.29-0.28-0.51
		c-0.13-0.22-0.05-0.47-0.01-0.55c0.04-0.08,0.22-0.29,0.34-0.6c0.06-0.15,0.16,0.01,0.2,0.17c0.04,0.14,0.36,0.59,0.5,0.74
		c0.09,0.1,0.17,0.29,0.14,0.37C263.92,4.36,263.73,4.67,263.7,4.73z M262.75,11.09c-0.27,0.43-0.53,0.74-0.76,0.95
		c0.55-0.1,1.08-0.2,1.08-0.2C262.97,11.58,262.87,11.33,262.75,11.09z M257.14,9.73c0.82,2.08-0.37,3.53-0.5,3.7
		c-0.36,0.49-0.74,0.94-1.24,1.15c-1.58,0.65-3.57,0.23-3.78,0.18c-0.41-0.09-0.23-0.36,0.11-0.31c3.62,0.48,5.04-2.18,5.25-2.87
		l0.03-0.17c-0.64,0.13-1.29,0.14-1.53,0.06c-0.93-0.29-0.75-1.69,0.01-2.61C256.28,7.93,257.02,9.42,257.14,9.73z M256.76,10.48
		c-0.18-0.34-0.45-0.6-0.63-0.75c-0.34-0.29-0.64,0.13-0.7,0.31c-0.19,0.59,0.82,0.49,1.04,0.48L256.76,10.48z M248.05,4.34
		c-0.24,0.11-0.44-0.02,0.1-0.41c0.84-0.6,1.48-1,1.75-1.46c0,0-0.51-0.33-0.74-0.56c-0.23-0.23,0.06-0.88,0.29-1.13
		c0.59-0.66,0.87-0.22,0.94-0.11c0.29,0.55,0.11,1.24,0.03,1.44c0,0,0.23,0.17,0.29,0.24c0.09,0.1,0.05,0.29-0.07,0.64
		c-0.04,0.12-0.18-0.21-0.49-0.36C249.9,3.15,249.63,3.6,248.05,4.34z M250.17,1.93c0.03-0.09,0.08-0.59-0.16-0.89
		c-0.15-0.16-0.31-0.17-0.53,0.17c-0.07,0.1-0.07,0.21,0.08,0.3C249.71,1.6,250.17,1.93,250.17,1.93z M274.49,6.51l-0.07-0.01
		l-0.64,0.64l-0.02,0.12c0.09,0.12,0.19,0.24,0.3,0.36c0.12,0.12,0.25,0.23,0.39,0.32l0.13-0.01l0.64-0.64l-0.01-0.08
		c-0.15-0.1-0.28-0.21-0.4-0.33C274.68,6.77,274.58,6.64,274.49,6.51z M286.35,9.78c-0.43-0.03-2.45-0.06-3.62-0.71
		c0.12-0.1,0.37-0.43,0.28-1.25c-0.09-0.82-0.42-3.18-0.42-3.18c-0.03-0.25-0.13-0.48,0.01-0.61c0.14-0.13,0.44-0.34,0.27-0.57
		c-0.17-0.23-0.46-0.67-0.55-0.92c-0.07-0.21-0.13-0.39-0.24-0.22c-0.12,0.19-0.17,0.44-0.34,0.66c-0.09,0.12-0.18,0.17-0.08,0.35
		c0.14,0.24,0.27,0.67,0.3,0.97c0.01,0.16,0.06,0.5,0.1,0.82c0,0,0.58,2.98,0.53,3.46c0,0-2.38,0.08-2.69,0.39l-0.48,0.74
		c-0.04,0.08-0.04,0.17,0.08,0.15c0.11-0.02,1.58-0.49,3.63,0.34c-0.24,0.08-2.96,1.25-5.25,0.99c-0.34-0.01-2.75-0.33-2.95-1.55
		c-0.03-0.16-0.07-0.21-0.15-0.06c-0.07,0.14-0.74,1.14,0.31,1.85c-0.33,0.7-0.93,1.66-1.83,2.03c-0.3,0.11-1.62,0.45-2.96-0.15
		c-0.16-0.05-0.41,0.08-0.16,0.25c0.25,0.17,2.7,1.74,4.28,0.09c0.28-0.29,0.76-1.06,1.12-1.98c1.63,0.88,4.33,0.4,4.33,0.4
		c0.59-0.12,1.2-0.3,1.84-0.54c0.33-0.14,2.64-1.18,4.19-0.81c0.33,0.08,0.4,0.08,0.4,0.08s0.28-0.6,0.34-0.74
		C286.71,9.89,286.78,9.81,286.35,9.78z M283.38,12.88c-0.12-0.12-0.22-0.24-0.31-0.37L283,12.5l-0.64,0.64l-0.02,0.12
		c0.09,0.12,0.19,0.24,0.3,0.35c0.12,0.12,0.25,0.23,0.39,0.32l0.12-0.01l0.64-0.64l-0.01-0.08
		C283.64,13.11,283.5,13.01,283.38,12.88z M287.68,8.48c-0.09-0.85-0.45-3.47-0.48-4.15c-0.01-0.37-0.06-0.69-0.22-0.4
		c-0.17,0.31-0.26,0.7-0.21,1.24c0.07,0.93,0.16,1.62,0.24,2.28c0.08,0.67,0.38,2.67,0.35,4.09c-0.01,0.33,0.12,0.42,0.22,0.18
		C287.77,11.32,287.86,10.17,287.68,8.48z M269.92,10.86c-0.31-0.19-0.58-0.34-0.75-0.48c-0.19-0.16-0.2-0.48-0.07-0.68
		c0.36-0.56,1.27-1.47,1.81-1.44c0.33,0.02,0.67,0.43,0.65,0.6c-0.02,0.16-0.35,0.74-0.51,0.73c-0.13,0-0.13-0.45-0.63-0.52
		c-0.17-0.03-0.64,0.27-0.65,0.42c-0.02,0.2,0.49,0.69,1.15,0.75c0.53,0.05,0.87-0.03,1.31-0.11c0.08-0.01,0.13,0.02,0.06,0.12
		c-0.05,0.08-0.36,0.62-0.41,0.63c-0.38,0.02-0.79,0.14-1.31,0.32c-0.57,0.2-1.11,0.48-1.47,0.7c-0.06,0.04-0.1-0.03-0.09-0.08
		c0.05-0.15,0.14-0.39,0.21-0.54C269.37,11.15,269.77,10.92,269.92,10.86z M274.41,4.96c-0.36,0.15-0.52,0.14-0.97,0.3
		c-0.09,0.03-0.2,0.02-0.21-0.05c-0.02-0.09,0.08-0.18,0.16-0.23c0.18-0.11,1.31-0.67,1.32-0.73c0-0.03-0.49-0.21-0.75-0.23
		c-0.29-0.03-0.57,0.03-0.83,0.19c-0.11,0.07-0.2,0.17-0.27,0.28c-0.06,0.09-0.12,0.01-0.09-0.11c0.03-0.07,0.07-0.17,0.1-0.24
		c0.27-0.54,0.75-0.78,1.26-0.74c0.34,0.02,0.64,0.19,0.96,0.27c0.09,0.02,0.42,0.05,0.44,0.14c-0.01,0.12-0.13,0.47-0.27,0.6
		c-0.04,0.04-0.08,0.04-0.12,0.05C275.04,4.49,274.9,4.75,274.41,4.96z M256.07,6.25l0.19-0.36c0.02-0.04,0.05-0.08,0.08,0
		c0.13,0.44,0.13,0.81,0.03,1.09c-0.1,0.29-0.18,0.45-0.54,0.55c-0.28,0.07-0.59,0-0.74-0.25c-0.2,0.5-0.59,0.68-0.92,0.63
		c-0.4-0.06-0.64-0.5-0.25-1.28c0.12-0.23,0.19-0.11,0.16,0c-0.18,0.52,0.01,0.71,0.27,0.69c0.42-0.03,0.65-0.27,0.72-0.82
		c0.01-0.09-0.04-0.07,0.15-0.23c0.15-0.12,0.13-0.05,0.12,0.11c-0.01,0.23,0.03,0.41,0.14,0.5c0.18,0.15,0.42,0.11,0.65-0.11
		c0-0.1-0.04-0.26-0.1-0.41C256.03,6.32,256.05,6.29,256.07,6.25z M268.29,7.65c-0.26,0.12-0.48-0.02,0.11-0.44
		c0.91-0.64,1.6-1.08,1.89-1.58c0,0-0.55-0.36-0.8-0.61c-0.25-0.25,0.07-0.95,0.32-1.22c0.63-0.71,0.94-0.24,1.01-0.11
		c0.31,0.6,0.12,1.34,0.03,1.55c0,0,0.25,0.18,0.32,0.26c0.1,0.1,0.05,0.32-0.08,0.69c-0.05,0.13-0.19-0.23-0.53-0.39
		C270.3,6.36,270,6.84,268.29,7.65z M270.58,5.04c0.03-0.1,0.08-0.64-0.17-0.96c-0.16-0.17-0.33-0.18-0.57,0.19
		c-0.07,0.11-0.07,0.23,0.08,0.33C270.09,4.68,270.58,5.04,270.58,5.04z M277.47,7.66c-0.26,0.12-0.48-0.02,0.11-0.44
		c0.91-0.64,1.6-1.08,1.89-1.58c0,0-0.55-0.36-0.8-0.61c-0.25-0.25,0.07-0.95,0.32-1.22c0.63-0.71,0.94-0.24,1.01-0.11
		c0.31,0.59,0.12,1.34,0.03,1.55c0,0,0.25,0.18,0.32,0.26c0.1,0.1,0.05,0.32-0.08,0.69c-0.05,0.13-0.19-0.23-0.53-0.39
		C279.47,6.38,279.18,6.85,277.47,7.66z M279.76,5.06c0.03-0.1,0.08-0.64-0.17-0.97c-0.16-0.17-0.33-0.18-0.57,0.19
		c-0.07,0.11-0.07,0.23,0.09,0.33C279.26,4.7,279.76,5.06,279.76,5.06z"/>
</g>
<g id="Aya_No.">
	<path fill-rule="evenodd" clip-rule="evenodd" d="M30.36,433.51c-0.03,0.16-0.05,0.4-0.01,0.66c0.06,0.33,0.34,0.5,0.62,0.53
		c0.36,0.03,0.75-0.02,1.09-0.08c0.09-0.03,0.13,0.03,0.13,0.09c0,0.63,0.02,1.03,0.08,1.48c0.09,0.6,0.23,1.21,0.52,1.75
		c0.06,0.11,0.13,0.12,0.16-0.01c0.04-0.19,0.13-0.43,0.19-0.63c0.02-0.11,0.01-0.15-0.05-0.26c-0.43-0.9-0.5-1.71-0.59-2.75
		c-0.04-0.38,0-0.75-0.55-0.68c-0.27,0.06-0.54,0.09-0.83,0.09c-0.28,0-0.63-0.1-0.65-0.2c-0.01-0.03-0.03-0.07-0.07-0.07
		C30.39,433.43,30.37,433.48,30.36,433.51z M28.17,434.28c0.02,0.08,0.07,0.15,0.13,0.21c0.58,0.88,1.03,2.01,1.12,3.23
		c0.01,0.09,0.02,0.29,0.09,0.29c0.1,0,0.14-0.22,0.16-0.29c0.13-0.71,0.01-1.57-0.19-2.29c-0.2-0.77-0.6-1.41-1.04-2.02
		c-0.03-0.03-0.05-0.05-0.08-0.04C28.3,433.44,28.13,434.2,28.17,434.28z"/>
	<path fill-rule="evenodd" clip-rule="evenodd" d="M171.7,409.5c0.03,0.29-0.5,0.45-0.86,0.45c-0.34,0-0.82-0.24-0.82-0.54
		c0-0.34,0.3-0.74,0.71-0.74C171.2,408.67,171.61,409.16,171.7,409.5z M169.74,409.53c0,0.67,0.32,1.35,1.06,1.35
		c0.84,0,1.19-0.51,1.19-1.5c0-0.59-0.55-1.67-1.23-1.67C170.08,407.72,169.74,409.03,169.74,409.53z M167.22,408.13
		c0.03,0.08,0.07,0.15,0.13,0.21c0.58,0.88,1.03,2.01,1.12,3.23c0.01,0.09,0.02,0.29,0.09,0.29c0.1,0,0.13-0.22,0.16-0.29
		c0.13-0.71,0.01-1.57-0.19-2.29c-0.2-0.77-0.6-1.41-1.04-2.02c-0.02-0.03-0.05-0.05-0.08-0.04
		C167.34,407.29,167.18,408.05,167.22,408.13z"/>
	<path fill-rule="evenodd" clip-rule="evenodd" d="M140.36,381.08c0.02,0.08,0.07,0.15,0.13,0.21c0.58,0.88,1.03,2.01,1.12,3.23
		c0.01,0.09,0.02,0.29,0.09,0.29c0.1,0,0.13-0.22,0.16-0.29c0.13-0.71,0.01-1.57-0.19-2.29c-0.2-0.77-0.6-1.41-1.04-2.02
		c-0.03-0.03-0.05-0.05-0.08-0.04C140.49,380.24,140.32,381.01,140.36,381.08z M143.73,380.17c-0.4,0.4-0.92,0.88-0.98,1.59
		c-0.02,0.31,0.04,0.46,0.2,0.62c0.23,0.18,0.6,0.28,0.6,0.44c0,0.05-0.47,0.83-0.5,1.23c-0.04,0.48,0.29,0.71,0.52,0.71
		c0.76,0,1.22-0.61,1.53-1.06c0.03-0.04,0.01-0.12-0.02-0.09c-0.38,0.16-0.64,0.2-0.85,0.23c-0.5,0.03-0.73-0.13-0.69-0.24
		c-0.04-0.08,0.42-0.82,0.49-1.18c0.04-0.19,0.03-0.39-0.07-0.51c-0.22-0.26-0.78-0.29-0.78-0.54c0-0.27,0.32-0.36,0.52-0.5
		c0.09-0.24,0.13-0.46,0.17-0.62C143.91,380.18,143.82,380.08,143.73,380.17z"/>
	<path fill-rule="evenodd" clip-rule="evenodd" d="M69.69,327.12c0,0.24-0.1,0.47-0.14,0.53c-0.23,0.27-0.76,0.22-0.85-0.05
		c-0.03-0.11,0-0.24,0-0.34c0-0.07-0.02-0.1-0.06-0.1c-0.06,0-0.07,0.07-0.09,0.13c-0.06,0.18-0.08,0.34-0.16,0.44
		c-0.29,0.39-0.78,0.34-1.08,0.07c-0.13-0.1-0.25-0.34-0.32-0.5c-0.03-0.06-0.08-0.09-0.1,0l-0.13,0.76c0,0.06,0.03,0.09,0.07,0.19
		c0.27,0.6,0.41,0.87,0.61,1.4c0.23,0.62,0.33,1.03,0.44,1.78c0.01,0.08,0.03,0.21,0.13,0.21c0.06,0,0.1-0.1,0.11-0.16
		c0.11-0.74,0.03-1.66-0.31-2.44c-0.03-0.05-0.03-0.08,0-0.1c0.03-0.01,0.06-0.01,0.1,0.01c0.26,0.03,0.49-0.22,0.61-0.45
		c0.3,0.34,0.77,0.37,1.08,0.01c0.28-0.32,0.33-1.07,0.22-1.37c-0.03-0.04-0.04-0.06-0.05-0.06
		C69.71,327.06,69.69,327.07,69.69,327.12z M64.71,327.88c0.02,0.08,0.07,0.15,0.13,0.21c0.58,0.87,1.03,2.01,1.12,3.23
		c0.01,0.09,0.02,0.29,0.09,0.29c0.1,0,0.13-0.22,0.16-0.29c0.13-0.71,0.01-1.57-0.19-2.29c-0.2-0.77-0.6-1.41-1.04-2.02
		c-0.03-0.03-0.05-0.05-0.08-0.04C64.84,327.04,64.67,327.81,64.71,327.88z"/>
	<path fill-rule="evenodd" clip-rule="evenodd" d="M93.37,272.8c-0.85,0.31-0.98,1.38-0.55,2.14c0.4,0.76,0.73,1.32,0.91,2.15
		c0.03,0.11,0.05,0.19,0.12,0.19c0.06,0,0.14-0.04,0.13-0.17c-0.06-1.12-0.26-1.95-0.82-2.76c-0.06-0.08-0.16-0.21-0.16-0.35
		c0-0.17,0.52-0.29,0.75-0.29c0.23,0,0.49,0.04,0.65,0.04c0.01,0,0.02,0,0.02-0.01l0.19-0.91C94.15,272.71,93.73,272.67,93.37,272.8
		z M90.35,273.55c0.02,0.08,0.07,0.15,0.13,0.21c0.58,0.87,1.03,2.01,1.12,3.23c0.01,0.09,0.02,0.29,0.09,0.29
		c0.1,0,0.13-0.22,0.16-0.29c0.13-0.71,0.01-1.57-0.19-2.29c-0.2-0.77-0.6-1.41-1.04-2.02c-0.03-0.03-0.05-0.05-0.08-0.04
		C90.48,272.7,90.31,273.47,90.35,273.55z"/>
	<path fill-rule="evenodd" clip-rule="evenodd" d="M67.9,246.71c0.02,0.08,0.07,0.15,0.13,0.21c0.58,0.87,1.03,2.01,1.12,3.23
		c0.01,0.09,0.02,0.29,0.09,0.29c0.1,0,0.13-0.22,0.16-0.29c0.13-0.7,0.01-1.57-0.19-2.29c-0.2-0.77-0.6-1.41-1.04-2.02
		c-0.02-0.03-0.05-0.05-0.08-0.04C68.02,245.87,67.86,246.64,67.9,246.71z M69.92,246.63c0.03,0.08,0.07,0.15,0.13,0.21
		c0.58,0.87,1.03,2.01,1.12,3.23c0.01,0.09,0.02,0.3,0.09,0.3c0.1,0,0.13-0.22,0.16-0.3c0.13-0.71,0.01-1.57-0.19-2.29
		c-0.2-0.77-0.6-1.41-1.04-2.02c-0.03-0.03-0.05-0.05-0.08-0.04C70.04,245.79,69.87,246.55,69.92,246.63z"/>
	<path fill-rule="evenodd" clip-rule="evenodd" d="M84.7,220.83c-0.17,0.29-0.25,0.53-0.35,0.79c-0.03,0.08-0.02,0.15,0.04,0.21
		c0.24,0.18,0.47,0.36,0.7,0.53c0.07,0.04,0.08,0.05,0.12-0.03c0.18-0.32,0.25-0.49,0.39-0.82c0.02-0.06,0.02-0.1-0.03-0.16
		c-0.21-0.18-0.41-0.35-0.71-0.55C84.79,220.76,84.74,220.77,84.7,220.83z M81.9,219.67c0.03,0.08,0.07,0.15,0.13,0.21
		c0.58,0.87,1.03,2.01,1.12,3.23c0.01,0.09,0.02,0.29,0.09,0.29c0.1,0,0.13-0.22,0.16-0.29c0.13-0.71,0.01-1.57-0.19-2.29
		c-0.2-0.77-0.6-1.41-1.04-2.02c-0.03-0.03-0.05-0.05-0.08-0.04C82.02,218.83,81.85,219.59,81.9,219.67z"/>
	<path fill-rule="evenodd" clip-rule="evenodd" d="M205.39,193.04c0,0.09-0.22,0.15-0.48,0.15c-0.23,0-0.46-0.1-0.49-0.28
		c0-0.11,0.22-0.37,0.41-0.37C205.1,192.57,205.36,192.93,205.39,193.04z M204.08,193.12c-0.02,0.55,0.19,0.96,0.81,0.96
		c0.23,0,0.5-0.09,0.68-0.26c0.03,0.71,0.21,1.85,0.61,2.45c0.06,0.08,0.09,0.05,0.13-0.01c0.04-0.08,0.2-0.49,0.24-0.61
		c0.03-0.06,0.02-0.13-0.02-0.18c-0.43-0.74-0.55-1.58-0.72-2.41c-0.12-0.5-0.24-1.34-0.84-1.34
		C204.41,191.73,204.11,192.47,204.08,193.12z"/>
	<path fill-rule="evenodd" clip-rule="evenodd" d="M30.31,138.42c-0.11,1.24-0.4,2.24-1.14,3.24c-0.03,0.04-0.08,0.11-0.08,0.17
		c0.01,0.29,0.02,0.66,0.05,0.9c0.02,0.13,0.09,0.14,0.19,0.02c0.54-0.76,1.08-1.85,1.19-2.98c0.27,1.02,0.88,2.18,1.5,2.99
		c0.06,0.09,0.1,0.03,0.11-0.07c0.02-0.18,0.06-0.55,0.06-0.76c0-0.06,0.01-0.09-0.02-0.13c-0.67-0.94-1.26-2.34-1.62-3.43
		c-0.02-0.11-0.07-0.16-0.13-0.16C30.36,138.23,30.32,138.32,30.31,138.42z"/>
	<path fill-rule="evenodd" clip-rule="evenodd" d="M91.69,111.48c-0.5,0.87-0.76,2-0.89,2.69c-0.18-0.47-0.73-1.87-1.41-2.71
		c-0.07-0.09-0.15-0.07-0.16,0.07c-0.03,0.2-0.07,0.47-0.08,0.67c-0.01,0.09,0.01,0.17,0.07,0.23c0.69,1.03,1.28,2.04,1.52,3.36
		c0.02,0.07,0.02,0.15,0.11,0.15c0.07,0,0.11-0.05,0.12-0.15c0.23-1.37,0.48-2.4,1.03-3.48c0.04-0.09,0.08-0.11,0.08-0.2
		c-0.06-0.17-0.13-0.48-0.15-0.64C91.86,111.26,91.79,111.32,91.69,111.48z"/>
	<path fill-rule="evenodd" clip-rule="evenodd" d="M217.27,84.03c-0.03,0.16-0.05,0.4-0.01,0.66c0.06,0.33,0.34,0.5,0.62,0.53
		c0.36,0.03,0.75-0.02,1.09-0.08c0.09-0.03,0.13,0.03,0.13,0.09c0,0.63,0.02,1.03,0.08,1.48c0.09,0.61,0.23,1.21,0.52,1.75
		c0.06,0.11,0.13,0.12,0.16-0.01c0.04-0.19,0.13-0.43,0.19-0.63c0.02-0.11,0.01-0.15-0.05-0.26c-0.43-0.9-0.5-1.71-0.59-2.75
		c-0.04-0.38,0-0.75-0.55-0.68c-0.27,0.06-0.54,0.09-0.83,0.09c-0.28,0-0.63-0.1-0.65-0.2c-0.01-0.03-0.03-0.07-0.07-0.07
		C217.29,83.95,217.28,84,217.27,84.03z"/>
</g>
<g id="Quran_Text">
</g>
</svg>
