<svg id="Layer_1" data-name="Layer 1" xmlns="http://www.w3.org/2000/svg" xmlns:xlink="http://www.w3.org/1999/xlink" viewBox="0 0 207.21 213.09"><defs><clipPath id="clip-path" transform="translate(-231.47 -92.08)"><path d="M263.47,171c-.05-.23.13-.51.51-1.08a10.41,10.41,0,0,1,1.3-.75c.7-.14,1.27.23,1.74,1.35a5.16,5.16,0,0,1,.29,2.62c-2.58-.69-3.7-1.44-3.84-2.14m-.67-3.27a7.06,7.06,0,0,0-1.48,5.9c.34,1.64,2.07,3,5.17,3.82a50,50,0,0,1-8.34,9.25c-3.08,2.81-6.39,5.68-9.46,8.5-.8.89-1,1.17-.94,1.41l.05.23a9.21,9.21,0,0,0,1.54-.8c4.53-2.87,6.91-4.33,7.33-4.66a49.74,49.74,0,0,0,6.76-6.25,30.33,30.33,0,0,0,4.83-7.32c1.36.7,2.44,1.21,3,1.58.79-2.11,1.25-3.42,1.11-4.12a7.29,7.29,0,0,0-3.23-1.53,19.08,19.08,0,0,0,0-5.85c-.33-1.63-1.27-2.66-2.26-2.7a2.25,2.25,0,0,0-.93,0c-1,.2-2,1-3.17,2.53" fill="#fff" stroke="#fff" stroke-miterlimit="10"/></clipPath><clipPath id="clip-path-2" transform="translate(-231.47 -92.08)"><path d="M403,155.08c0-.2.17-.42.53-.86a7,7,0,0,1,1.18-.5c.6-.06,1,.31,1.32,1.3a4.42,4.42,0,0,1,0,2.23c-2.1-.84-3-1.57-3-2.17m-.24-2.82a6,6,0,0,0-1.82,4.81c.13,1.41,1.45,2.71,4,3.71a41.46,41.46,0,0,1-7.91,6.95c-2.86,2.07-5.92,4.15-8.78,6.22-.75.67-.94.89-.92,1.09l0,.2a7.61,7.61,0,0,0,1.37-.52c4.08-2,6.22-3,6.61-3.2a42,42,0,0,0,6.29-4.58,25.72,25.72,0,0,0,4.77-5.67c1.08.71,1.93,1.25,2.37,1.62.87-1.7,1.38-2.76,1.33-3.36a6.22,6.22,0,0,0-2.56-1.6,16.23,16.23,0,0,0,.59-4.91c-.12-1.4-.81-2.36-1.63-2.49a1.89,1.89,0,0,0-.79-.08,5,5,0,0,0-2.91,1.81" fill="#fff" stroke="#fff" stroke-miterlimit="10"/></clipPath><clipPath id="clip-path-3" transform="translate(-231.47 -92.08)"><path d="M319.59,92.7c-13.5,5.09-26.75,9.93-39.23,14.52a16.47,16.47,0,0,0-1.53,4.58c15.29-6.36,28.79-11.46,40.25-15.79a7.07,7.07,0,0,0,1.28-2.55,2,2,0,0,0,.25-.76.33.33,0,0,0-.26-.12c-.19,0-.42.12-.76.12" fill="#fff" stroke="#fff" stroke-miterlimit="10"/></clipPath></defs><path d="M348.51,94.64c3.58-.68,8.1.53,9.51,4.23.89,4.72-1.42,9.31-3.7,13.31-5.27,9.19-13.39,16.21-19.91,24.45a6,6,0,0,1-1.08.93c.37-2.66,1.8-5,3.14-7.26,4.72-7.22,11.5-12.76,16.66-19.64,2.15-2.58.46-7.38-3.07-7.49-11.87-.55-23.1,4-34.17,7.6-2.56,1-5.31,1.43-7.83,2.55-18.11,7.23-36.88,13.4-53.48,23.85,15.43,10.93,31.06,21.58,46.52,32.48.6.39,1.3,1.21,2.06.65a40.37,40.37,0,0,1,20.36-4.12c-2.07-10.62-6.59-20.77-7.06-31.7-.27-3.78.22-7.91,2.64-11,2.59,5,5,10.16,7.49,15.25a36.74,36.74,0,0,0-3.9-1.48,56,56,0,0,0,5,20.93c2.46,5.56,7,9.93,12,13.19,1.42.8,1.45,2.62,1.56,4.05,0,2.29.24,4.75-.85,6.85A26.83,26.83,0,0,0,317,174.93a12.56,12.56,0,0,0-5,1.73c10.92,8.59,21.57,17.55,32,26.76,4.12,3.68,8.2,7.85,13.57,9.59-2-24.58-6.2-48.92-8.42-73.47-.49-2.4.91-4.53,2-6.56,4.25,6.31,8,13.2,9.35,20.78-1.58-1.11-3-2.44-4.58-3.53,2,20.82,5.38,41.48,7.48,62.29a5.51,5.51,0,0,0,.32,1.49c3.23,1.53,6.89.23,9.93-1.16,2.14-1.07,4.39-2.37,5.7-4.45-.86-9-1.91-18-3.19-26.91q-3.67-27.72-7.41-55.43c-.75-7.91-2.67-15.65-3.39-23.55a21.47,21.47,0,0,1,2.07-7.07c3.64,6.72,8.22,13.22,9.55,20.9-1.66-1.06-3.1-2.46-4.78-3.51-.16,9.88,2,19.59,3.09,29.36q3.92,28.59,7.82,57.18c1,5.67,0,12-3.67,16.55-3.61,4.19-8.92,6.18-14,8,.5,11,1,22.62-3.48,33a209.77,209.77,0,0,0-2.31-33.4c-8-2.61-14.25-8.46-20.11-14.24-8-7.45-15.77-15.42-25.2-21.08-.27,1,.79,1.56,1.32,2.24,4.82,5.25,9.13,11.48,10.08,18.72.15,3.34.24,6.9-1.32,10-1.87,3.14-5,5.26-8.16,7-9.07,5.1-19.51,6.83-28.94,11.09a43.61,43.61,0,0,0-16.51,11.74c-.61.75-1.4,1.52-1.34,2.57-.28,6,.62,12.33,4.12,17.33,3,4.32,7.87,6.9,12.89,8a38.16,38.16,0,0,0,21.6-1.45c2-5.45,3.8-11,6.51-16.2-1.52-2-3.69-3.37-5.1-5.42,0-2.23,1.86-4,3.35-5.55.78-1.07,1.95-.07,2.86.27,4.72-4,9.36-8.34,12.48-13.76-4.11-1.48-3.47-6.69-1.56-9.71.83-1.67,3.46-2.55,4.66-.77,2.49,2.68,1.3,6.48,1.06,9.68,1.34,1.34,2.72,3.42,1,5.09a25.91,25.91,0,0,1-2.92-2.72,121.52,121.52,0,0,1-13.28,13.18c1.16,1.71,3.22,2.8,4,4.74-.83,3.26-3.78,5.45-5.35,8.36-1.88,3.53-3.56,7.37-3.58,11.44,12.48-4.91,24.57-11.4,34.37-20.68.63-.71,1.82-1.42,1.23-2.51-2.75-8.24-7-15.86-10.52-23.78-.68-1.67-1.92-3.36-1.46-5.25.34-2.14.59-4.62,2.46-6q5.22,5.79,10.41,11.6c.18.18.5.85,0,.77-1.77.54-3.07-1.14-4.75-1.29.75,5.44,4.41,9.83,6.13,14.94a18,18,0,0,1,.16,12.84c-1.74,4.73-5.33,8.5-9.07,11.75-8.87,7.34-19.44,12.25-30.09,16.39-.68,5,.55,10.46,4,14.19a7.72,7.72,0,0,0,9.24,1.34c9.76-5,15.52-14.79,22.68-22.71a55.18,55.18,0,0,1,17.37-13.2c8.18-4.09,16.92-7,25-11.32-2-8.41-4.17-18,.28-26,1.84-3.77,6.78-5.81,10.59-3.82a16.81,16.81,0,0,1,5.51,8.6c2.87,8.12-.26,17.38-6.25,23.26-.73.83-1.79,1.41-2.3,2.42a12.46,12.46,0,0,0,8.09,6.1c6.49,1.55,13.35-1.19,18-5.77-2-25.15-5.66-50.15-8.7-75.2-2.39-18.57-4.65-37.16-7.08-55.72.19-2.3,1.45-4.33,2.49-6.34A62.11,62.11,0,0,1,419,139.83c-1.94-.57-2.81-2.49-4.21-3.76,1.09,21.08,4,42,6.52,63q2.42,20.52,4.95,41a45.54,45.54,0,0,1-.14,13.79c-.82,5.45-3.47,11-8.57,13.66-5,2.24-11.06,3.77-16.33,1.37-4.31-2.13-6.72-6.56-8.92-10.62a226.91,226.91,0,0,0-30,13.22c-10.4,5.47-17,15.57-24.67,24.06-3.48,3.47-6.43,7.72-11.66,9.07a15.09,15.09,0,0,1-11.07-3.5c-4.67-3.66-6.47-9.7-7.07-15.38.07-1.88-2.17-.8-3.29-.78-9.64,1.32-20.83,2.43-28.94-4.09-7.88-6.73-8.93-17.87-8.86-27.56-3.82,2.07-6.45,6.53-11.17,6.71-8.09.25-14.49-7.25-15.59-14.8-1.32-8.83,2.78-17.13,5.79-25.17a15.68,15.68,0,0,1-11.17-7.68c-3.27-4.91-2.55-12.73-2.55-12.73a55.82,55.82,0,0,1,7.87-20.3c.45-.82,1.22-1.71.77-2.69a18.22,18.22,0,0,1-.54-10.49c1.82-7.63,7-13.84,11.6-20-1.08-4.85-.1-9.95,1.75-14.49.53-1.55,2.3-2,3.55-2.79C285.46,112.68,316.75,102.11,348.51,94.64ZM253,147.91c-2.33,3.36-4.89,6.59-6.62,10.31-1.92,3.68-3.3,10-.71,12.08.76,1.09,3.78,1,6.61-3.23-.53,4.9-5.18,12.87-8.87,11.7-.95.95-6.3,12.23-7.63,17.23-1.12,5-1.08,10.74,2.21,14.9a10,10,0,0,0,12.09,1.1c15.74-9.08,27.88-22.89,41.19-35C278.48,167.33,265.77,157.56,253,147.91Zm-.4,71a12,12,0,0,1-3.9,1.31c-3,6.53-6.44,14.88-6.08,22.22a14.92,14.92,0,0,0,3.87,9.78c1.84,2.13,4.95,2.2,7.51,1.73,5.2-1.64,8.59-6.19,12.18-10,7.13-7.48,16.48-12.35,26-16,10.78-4.17,22.05-7.77,31.38-14.86-4.29-13-15.63-21.67-25.73-30.12C281.19,192.92,270.25,210.37,252.58,218.87ZM390.06,235a24.61,24.61,0,0,0,4,13.2c3.22-1.66,6.8-3.23,8.89-6.33.68-3.28-.72-6.59-2.33-9.41-1.36-2.07-3.48-4.35-6.22-3.89A6.77,6.77,0,0,0,390.06,235Z" transform="translate(-231.47 -92.08)" fill="#fff" stroke="#fff" stroke-miterlimit="10"/><path d="M400,168.39c.13-.13-4.54-33.61-6.24-47.8,1.87.71,2.94,2.59,4.67,3.54-1.52-7.93-5.6-15-9.56-21.94a15.8,15.8,0,0,0-2.66,7.39c3.85,19.9,11.62,80.39,12.27,89C402.54,189.09,401.3,178.36,400,168.39Z" transform="translate(-231.47 -92.08)" fill="#fff" stroke="#fff" stroke-miterlimit="10"/><path d="M284.14,248.46c9.76-4,19.43-8.23,29.07-12.49a6.52,6.52,0,0,1-3.83,4.76c-9.12,4.35-18.82,7.52-27.5,12.76,1,1.65,2.78,3.22,2.19,5.34-1.79.37-2.87-1.27-4-2.37A6.94,6.94,0,0,1,284.14,248.46Z" transform="translate(-231.47 -92.08)" fill="#fff" stroke="#fff" stroke-miterlimit="10"/><path d="M263.47,171c-.05-.23.13-.51.51-1.08a10.41,10.41,0,0,1,1.3-.75c.7-.14,1.27.23,1.74,1.35a5.16,5.16,0,0,1,.29,2.62c-2.58-.69-3.7-1.44-3.84-2.14m-.67-3.27a7.06,7.06,0,0,0-1.48,5.9c.34,1.64,2.07,3,5.17,3.82a50,50,0,0,1-8.34,9.25c-3.08,2.81-6.39,5.68-9.46,8.5-.8.89-1,1.17-.94,1.41l.05.23a9.21,9.21,0,0,0,1.54-.8c4.53-2.87,6.91-4.33,7.33-4.66a49.74,49.74,0,0,0,6.76-6.25,30.33,30.33,0,0,0,4.83-7.32c1.36.7,2.44,1.21,3,1.58.79-2.11,1.25-3.42,1.11-4.12a7.29,7.29,0,0,0-3.23-1.53,19.08,19.08,0,0,0,0-5.85c-.33-1.63-1.27-2.66-2.26-2.7a2.25,2.25,0,0,0-.93,0c-1,.2-2,1-3.17,2.53" transform="translate(-231.47 -92.08)" fill="#fff"/><g clip-path="url(#clip-path)"><rect x="244.78" y="166.95" width="28.39" height="27.37" transform="translate(-262.37 -36.64) rotate(-11.54)" fill="#fff" stroke="#fff" stroke-miterlimit="10"/></g><path d="M263.47,171c-.05-.23.13-.51.51-1.08a10.41,10.41,0,0,1,1.3-.75c.7-.14,1.27.23,1.74,1.35a5.16,5.16,0,0,1,.29,2.62c-2.58-.69-3.7-1.44-3.84-2.14m-.67-3.27a7.06,7.06,0,0,0-1.48,5.9c.34,1.64,2.07,3,5.17,3.82a50,50,0,0,1-8.34,9.25c-3.08,2.81-6.39,5.68-9.46,8.5-.8.89-1,1.17-.94,1.41l.05.23a9.21,9.21,0,0,0,1.54-.8c4.53-2.87,6.91-4.33,7.33-4.66a49.74,49.74,0,0,0,6.76-6.25,30.33,30.33,0,0,0,4.83-7.32c1.36.7,2.44,1.21,3,1.58.79-2.11,1.25-3.42,1.11-4.12a7.29,7.29,0,0,0-3.23-1.53,19.08,19.08,0,0,0,0-5.85c-.33-1.63-1.27-2.66-2.26-2.7a2.25,2.25,0,0,0-.93,0c-1,.2-2,1-3.17,2.53" transform="translate(-231.47 -92.08)" fill="none" stroke="#fff" stroke-miterlimit="10"/><path d="M403,155.08c0-.2.17-.42.53-.86a7,7,0,0,1,1.18-.5c.6-.06,1,.31,1.32,1.3a4.42,4.42,0,0,1,0,2.23c-2.1-.84-3-1.57-3-2.17m-.24-2.82a6,6,0,0,0-1.82,4.81c.13,1.41,1.45,2.71,4,3.71a41.46,41.46,0,0,1-7.91,6.95c-2.86,2.07-5.92,4.15-8.78,6.22-.75.67-.94.89-.92,1.09l0,.2a7.61,7.61,0,0,0,1.37-.52c4.08-2,6.22-3,6.61-3.2a42,42,0,0,0,6.29-4.58,25.72,25.72,0,0,0,4.77-5.67c1.08.71,1.93,1.25,2.37,1.62.87-1.7,1.38-2.76,1.33-3.36a6.22,6.22,0,0,0-2.56-1.6,16.23,16.23,0,0,0,.59-4.91c-.12-1.4-.81-2.36-1.63-2.49a1.89,1.89,0,0,0-.79-.08,5,5,0,0,0-2.91,1.81" transform="translate(-231.47 -92.08)" fill="#fff"/><g clip-path="url(#clip-path-2)"><rect x="386.28" y="151.12" width="24" height="23.14" transform="translate(-243.89 -57.54) rotate(-4.89)" fill="#fff" stroke="#fff" stroke-miterlimit="10"/></g><path d="M403,155.08c0-.2.17-.42.53-.86a7,7,0,0,1,1.18-.5c.6-.06,1,.31,1.32,1.3a4.42,4.42,0,0,1,0,2.23c-2.1-.84-3-1.57-3-2.17m-.24-2.82a6,6,0,0,0-1.82,4.81c.13,1.41,1.45,2.71,4,3.71a41.46,41.46,0,0,1-7.91,6.95c-2.86,2.07-5.92,4.15-8.78,6.22-.75.67-.94.89-.92,1.09l0,.2a7.61,7.61,0,0,0,1.37-.52c4.08-2,6.22-3,6.61-3.2a42,42,0,0,0,6.29-4.58,25.72,25.72,0,0,0,4.77-5.67c1.08.71,1.93,1.25,2.37,1.62.87-1.7,1.38-2.76,1.33-3.36a6.22,6.22,0,0,0-2.56-1.6,16.23,16.23,0,0,0,.59-4.91c-.12-1.4-.81-2.36-1.63-2.49a1.89,1.89,0,0,0-.79-.08,5,5,0,0,0-2.91,1.81" transform="translate(-231.47 -92.08)" fill="none" stroke="#fff" stroke-miterlimit="10"/><path d="M295.67,147.42c1.53-.43,3.15,0,4.77,1.52a19.08,19.08,0,0,1,4.63,6.36l.15.56.14,0c0-.14.06-.32,0-.6-.23-1.89-.23-4.59-.37-8.3.42-2.82,1.22-4.24,2.47-4.59a2.5,2.5,0,0,1,2.16.75,3.13,3.13,0,0,1,1.3,1.44A5.82,5.82,0,0,1,311,146c0,.91-.2,1.4-.48,1.48s-.5-.16-1.21-.56a1.78,1.78,0,0,0-1.63-.45c-1.11.31-1.39,3.09-1,8.37a25.91,25.91,0,0,1,.07,5.09c-.27.67-.43,1.17-.71,1.24s-.35-.2-.55-.89c-.23-.84-1.25-2.35-3-4.73-1.81-2.19-2.85-3.25-3.27-3.13s-.42.11-.48.43a.85.85,0,0,1-.62.47,3,3,0,0,1-2.12-.61c-1-.46-1.46-.94-1.58-1.36a11.09,11.09,0,0,1,.33-2c.39-1.31.69-1.84.83-1.88" transform="translate(-231.47 -92.08)" fill="#fff" stroke="#fff" stroke-miterlimit="10"/><path d="M369.87,275.61c1.53-.43,3.16,0,4.77,1.52a19.08,19.08,0,0,1,4.63,6.36l.16.56.13,0c0-.14.07-.32,0-.6-.23-1.88-.23-4.59-.37-8.3.42-2.82,1.22-4.24,2.47-4.59a2.5,2.5,0,0,1,2.16.75,3.13,3.13,0,0,1,1.3,1.44,5.82,5.82,0,0,1,.11,1.47c0,.91-.2,1.4-.48,1.48s-.5-.16-1.21-.56a1.77,1.77,0,0,0-1.62-.45c-1.12.31-1.39,3.09-1,8.37a25.91,25.91,0,0,1,.07,5.09c-.26.67-.43,1.17-.7,1.24s-.36-.2-.55-.89a22.59,22.59,0,0,0-3-4.73c-1.82-2.19-2.86-3.25-3.28-3.13s-.42.11-.48.43a.83.83,0,0,1-.62.47,3,3,0,0,1-2.12-.61c-1-.46-1.46-.94-1.58-1.36a12.23,12.23,0,0,1,.33-2c.39-1.31.69-1.84.83-1.88" transform="translate(-231.47 -92.08)" fill="#fff" stroke="#fff" stroke-miterlimit="10"/><path d="M379.6,239.09a3.27,3.27,0,0,1-.87,2c-1.24.75-4.23,2.74-8.71,5.85-.12.12-.37.25-.62.5-.12-.13-.12-.13-.12-.25l.25-1.62c0-.37.74-1.12,2.24-2.24-1.75-.62-2.62-1.37-2.62-2.36a4.64,4.64,0,0,1,1.37-3.23c1.74-2.24,3.24-3.24,4.48-3.24,1,0,1.62.5,1.62,1.74a6,6,0,0,1-.87,2.49c-.13.25-.38.13-.5-.12a1.28,1.28,0,0,0-1.25-1,2.46,2.46,0,0,0-1.61.62c-.5.38-.87.75-.87,1s.37.74,1.12,1.12a4.21,4.21,0,0,0,1.74.62,4.86,4.86,0,0,0,2.11-.87,19.46,19.46,0,0,1,2.12-1.37c.62-.37.87-.5,1-.37s.12.25,0,.74" transform="translate(-231.47 -92.08)" fill="#fff" stroke="#fff" stroke-miterlimit="10"/><path d="M296.94,207l2.6-5.37c.18-.35.35-.52.7-.52s1.73.87,4.33,2.6,3.81,2.77,3.81,3.12c0,1-1,3.46-3.29,7.1-.35.52-.7.69-.87.35-2.25-1.56-4.85-3.3-7.62-5.2a41.21,41.21,0,0,1-2.78,5.54c-.34.35-.51.52-.86.35-2.6-2.08-5.2-3.81-7.8-5.54-.17,0-.17-.18,0-.52l3.12-6.76c.35-.35.52-.52.69-.52.35,0,1.56.69,3.82,2.25a31.75,31.75,0,0,1,4.15,3.12" transform="translate(-231.47 -92.08)" fill="#fff" stroke="#fff" stroke-miterlimit="10"/><path d="M399.58,204.13l2.6-5.37c.17-.35.35-.52.69-.52s1.74.86,4.33,2.6S411,203.61,411,204c0,1-1,3.47-3.3,7.11-.34.52-.69.69-.86.34-2.25-1.56-4.85-3.29-7.63-5.19a40.11,40.11,0,0,1-2.77,5.54c-.34.35-.52.52-.86.35-2.6-2.08-5.2-3.81-7.8-5.55-.17,0-.17-.17,0-.52l3.12-6.75c.35-.35.52-.52.69-.52.35,0,1.56.69,3.81,2.25a30.47,30.47,0,0,1,4.16,3.12" transform="translate(-231.47 -92.08)" fill="#fff" stroke="#fff" stroke-miterlimit="10"/><path d="M319.59,92.7c-13.5,5.09-26.75,9.93-39.23,14.52a16.47,16.47,0,0,0-1.53,4.58c15.29-6.36,28.79-11.46,40.25-15.79a7.07,7.07,0,0,0,1.28-2.55,2,2,0,0,0,.25-.76.33.33,0,0,0-.26-.12c-.19,0-.42.12-.76.12" transform="translate(-231.47 -92.08)" fill="#fff"/><g clip-path="url(#clip-path-3)"><rect x="47.36" y="0.5" width="41.78" height="19.22" fill="#fff" stroke="#fff" stroke-miterlimit="10"/></g><path d="M319.59,92.7c-13.5,5.09-26.75,9.93-39.23,14.52a16.47,16.47,0,0,0-1.53,4.58c15.29-6.36,28.79-11.46,40.25-15.79a7.07,7.07,0,0,0,1.28-2.55,2,2,0,0,0,.25-.76.33.33,0,0,0-.26-.12c-.19,0-.42.12-.76.12" transform="translate(-231.47 -92.08)" fill="none" stroke="#fff" stroke-miterlimit="10"/><path d="M425.06,156.26a20.64,20.64,0,0,0-1.62-7.13c-.08-1.16.46-3.76,1.83-7.82.2-.48.42-.72.65-.74s.48.2.76.89c.52.9,1.63,3.63,3.79,8.16,2.17,4.76,3.52,7.71,3.83,8.85a5.75,5.75,0,0,1,.35,1.85c.09,1.39-1.13.54-3.87-2.09-.26-.45-.48-.2-.43.5,0,.23,1.3,9.48,3.64,27.77,2.57,18.27,3.92,28.45,4.06,30.78a50.29,50.29,0,0,1-2.06,18.8,7,7,0,0,1-1,2.4c-.17.94-.4,1-.66.51a23,23,0,0,1,0-3.5c.08-2.34.13-5.15-.07-8.4-.2-3-1.88-14.82-4.63-35.88-2.73-20.83-4.41-32.62-4.56-35" transform="translate(-231.47 -92.08)" fill="#fff" stroke="#fff" stroke-miterlimit="10"/></svg>